solid OpenSCAD_Model
  facet normal 0 -1 0
    outer loop
      vertex -56.7963 -25.7508 78.1734
      vertex 56.7963 -25.7508 78.1734
      vertex -0 -25.7508 96.6276
    endloop
  endfacet
  facet normal 0 -1 0
    outer loop
      vertex -91.8983 -25.7508 29.8596
      vertex 56.7963 -25.7508 78.1734
      vertex -56.7963 -25.7508 78.1734
    endloop
  endfacet
  facet normal 0 -1 0
    outer loop
      vertex -91.8983 -25.7508 29.8596
      vertex 91.8983 -25.7508 29.8596
      vertex 56.7963 -25.7508 78.1734
    endloop
  endfacet
  facet normal 0 -1 0
    outer loop
      vertex -91.8983 -25.7508 -29.8596
      vertex 91.8983 -25.7508 29.8596
      vertex -91.8983 -25.7508 29.8596
    endloop
  endfacet
  facet normal 0 -1 0
    outer loop
      vertex -91.8983 -25.7508 -29.8596
      vertex 91.8983 -25.7508 -29.8596
      vertex 91.8983 -25.7508 29.8596
    endloop
  endfacet
  facet normal 0 -1 0
    outer loop
      vertex -56.7963 -25.7508 -78.1734
      vertex 91.8983 -25.7508 -29.8596
      vertex -91.8983 -25.7508 -29.8596
    endloop
  endfacet
  facet normal 0 -1 0
    outer loop
      vertex -56.7963 -25.7508 -78.1734
      vertex 56.7963 -25.7508 -78.1734
      vertex 91.8983 -25.7508 -29.8596
    endloop
  endfacet
  facet normal -0 -1 0
    outer loop
      vertex 56.7963 -25.7508 -78.1734
      vertex -56.7963 -25.7508 -78.1734
      vertex -0 -25.7508 -96.6276
    endloop
  endfacet
  facet normal 0 1 0
    outer loop
      vertex 78.1734 25.7508 56.7963
      vertex -29.8596 25.7508 91.8983
      vertex 29.8596 25.7508 91.8983
    endloop
  endfacet
  facet normal 0 1 0
    outer loop
      vertex 78.1734 25.7508 56.7963
      vertex -78.1734 25.7508 56.7963
      vertex -29.8596 25.7508 91.8983
    endloop
  endfacet
  facet normal 0 1 0
    outer loop
      vertex 96.6276 25.7508 0
      vertex -78.1734 25.7508 56.7963
      vertex 78.1734 25.7508 56.7963
    endloop
  endfacet
  facet normal 0 1 0
    outer loop
      vertex 96.6276 25.7508 0
      vertex -96.6276 25.7508 0
      vertex -78.1734 25.7508 56.7963
    endloop
  endfacet
  facet normal 0 1 -0
    outer loop
      vertex 78.1734 25.7508 -56.7963
      vertex -96.6276 25.7508 0
      vertex 96.6276 25.7508 0
    endloop
  endfacet
  facet normal 0 1 0
    outer loop
      vertex 78.1734 25.7508 -56.7963
      vertex -78.1734 25.7508 -56.7963
      vertex -96.6276 25.7508 0
    endloop
  endfacet
  facet normal 0 1 -0
    outer loop
      vertex 29.8596 25.7508 -91.8983
      vertex -78.1734 25.7508 -56.7963
      vertex 78.1734 25.7508 -56.7963
    endloop
  endfacet
  facet normal 0 1 0
    outer loop
      vertex -78.1734 25.7508 -56.7963
      vertex 29.8596 25.7508 -91.8983
      vertex -29.8596 25.7508 -91.8983
    endloop
  endfacet
  facet normal 0 0.0914433 -0.99581
    outer loop
      vertex 29.8596 25.7508 -91.8983
      vertex -0 -25.7508 -96.6276
      vertex -29.8596 25.7508 -91.8983
    endloop
  endfacet
  facet normal -0.307722 -0.0914433 -0.947072
    outer loop
      vertex -29.8596 25.7508 -91.8983
      vertex -0 -25.7508 -96.6276
      vertex -56.7963 -25.7508 -78.1734
    endloop
  endfacet
  facet normal -0.585323 0.0914433 -0.805627
    outer loop
      vertex -29.8596 25.7508 -91.8983
      vertex -56.7963 -25.7508 -78.1734
      vertex -78.1734 25.7508 -56.7963
    endloop
  endfacet
  facet normal -0.805627 -0.0914433 -0.585323
    outer loop
      vertex -78.1734 25.7508 -56.7963
      vertex -56.7963 -25.7508 -78.1734
      vertex -91.8983 -25.7508 -29.8596
    endloop
  endfacet
  facet normal -0.947072 0.0914433 -0.307722
    outer loop
      vertex -78.1734 25.7508 -56.7963
      vertex -91.8983 -25.7508 -29.8596
      vertex -96.6276 25.7508 0
    endloop
  endfacet
  facet normal -0.99581 -0.0914433 0
    outer loop
      vertex -96.6276 25.7508 0
      vertex -91.8983 -25.7508 -29.8596
      vertex -91.8983 -25.7508 29.8596
    endloop
  endfacet
  facet normal -0.947072 0.0914433 0.307722
    outer loop
      vertex -96.6276 25.7508 0
      vertex -91.8983 -25.7508 29.8596
      vertex -78.1734 25.7508 56.7963
    endloop
  endfacet
  facet normal -0.805627 -0.0914433 0.585323
    outer loop
      vertex -78.1734 25.7508 56.7963
      vertex -91.8983 -25.7508 29.8596
      vertex -56.7963 -25.7508 78.1734
    endloop
  endfacet
  facet normal -0.585323 0.0914433 0.805627
    outer loop
      vertex -78.1734 25.7508 56.7963
      vertex -56.7963 -25.7508 78.1734
      vertex -29.8596 25.7508 91.8983
    endloop
  endfacet
  facet normal -0.307722 -0.0914433 0.947072
    outer loop
      vertex -29.8596 25.7508 91.8983
      vertex -56.7963 -25.7508 78.1734
      vertex -0 -25.7508 96.6276
    endloop
  endfacet
  facet normal -0 0.0914433 0.99581
    outer loop
      vertex -29.8596 25.7508 91.8983
      vertex -0 -25.7508 96.6276
      vertex 29.8596 25.7508 91.8983
    endloop
  endfacet
  facet normal 0.307722 -0.0914433 0.947072
    outer loop
      vertex 29.8596 25.7508 91.8983
      vertex -0 -25.7508 96.6276
      vertex 56.7963 -25.7508 78.1734
    endloop
  endfacet
  facet normal 0.585323 0.0914433 0.805627
    outer loop
      vertex 29.8596 25.7508 91.8983
      vertex 56.7963 -25.7508 78.1734
      vertex 78.1734 25.7508 56.7963
    endloop
  endfacet
  facet normal 0.805627 -0.0914433 0.585323
    outer loop
      vertex 78.1734 25.7508 56.7963
      vertex 56.7963 -25.7508 78.1734
      vertex 91.8983 -25.7508 29.8596
    endloop
  endfacet
  facet normal 0.947072 0.0914433 0.307722
    outer loop
      vertex 78.1734 25.7508 56.7963
      vertex 91.8983 -25.7508 29.8596
      vertex 96.6276 25.7508 0
    endloop
  endfacet
  facet normal 0.99581 -0.0914433 0
    outer loop
      vertex 96.6276 25.7508 0
      vertex 91.8983 -25.7508 29.8596
      vertex 91.8983 -25.7508 -29.8596
    endloop
  endfacet
  facet normal 0.947072 0.0914433 -0.307722
    outer loop
      vertex 96.6276 25.7508 0
      vertex 91.8983 -25.7508 -29.8596
      vertex 78.1734 25.7508 -56.7963
    endloop
  endfacet
  facet normal 0.805627 -0.0914433 -0.585323
    outer loop
      vertex 78.1734 25.7508 -56.7963
      vertex 91.8983 -25.7508 -29.8596
      vertex 56.7963 -25.7508 -78.1734
    endloop
  endfacet
  facet normal 0.585323 0.0914433 -0.805627
    outer loop
      vertex 78.1734 25.7508 -56.7963
      vertex 56.7963 -25.7508 -78.1734
      vertex 29.8596 25.7508 -91.8983
    endloop
  endfacet
  facet normal 0.307722 -0.0914433 -0.947072
    outer loop
      vertex 29.8596 25.7508 -91.8983
      vertex 56.7963 -25.7508 -78.1734
      vertex -0 -25.7508 -96.6276
    endloop
  endfacet
endsolid OpenSCAD_Model
