solid OpenSCAD_Model
  facet normal 4.79785e-14 1 1.8419e-07
    outer loop
      vertex 29.2893 70.7107 70.7107
      vertex -70.7107 70.7107 29.2893
      vertex -29.2893 70.7107 70.7107
    endloop
  endfacet
  facet normal 1.07896e-07 1 -7.6294e-08
    outer loop
      vertex 70.7107 70.7107 29.2893
      vertex -70.7107 70.7107 29.2893
      vertex 29.2893 70.7107 70.7107
    endloop
  endfacet
  facet normal 1.07896e-07 1 -1.40526e-14
    outer loop
      vertex 70.7107 70.7107 29.2893
      vertex -70.7107 70.7107 -29.2893
      vertex -70.7107 70.7107 29.2893
    endloop
  endfacet
  facet normal 1.07896e-07 1 -1.40526e-14
    outer loop
      vertex 70.7107 70.7107 -29.2893
      vertex -70.7107 70.7107 -29.2893
      vertex 70.7107 70.7107 29.2893
    endloop
  endfacet
  facet normal 1.07896e-07 1 -1.07896e-07
    outer loop
      vertex 29.2893 70.7107 -70.7107
      vertex -70.7107 70.7107 -29.2893
      vertex 70.7107 70.7107 -29.2893
    endloop
  endfacet
  facet normal 3.90726e-07 1 5.74915e-07
    outer loop
      vertex -70.7107 70.7107 -29.2893
      vertex 29.2893 70.7107 -70.7107
      vertex -29.2893 70.7107 -70.7107
    endloop
  endfacet
  facet normal 2.06536e-07 3.90726e-07 -1
    outer loop
      vertex 70.7107 -29.2893 -70.7107
      vertex 29.2893 70.7107 -70.7107
      vertex 70.7107 29.2893 -70.7107
    endloop
  endfacet
  facet normal -7.36759e-07 6.95566e-14 -1
    outer loop
      vertex 29.2893 -70.7107 -70.7107
      vertex 29.2893 70.7107 -70.7107
      vertex 70.7107 -29.2893 -70.7107
    endloop
  endfacet
  facet normal 0 0 -1
    outer loop
      vertex 29.2893 -70.7107 -70.7107
      vertex -29.2893 70.7107 -70.7107
      vertex 29.2893 70.7107 -70.7107
    endloop
  endfacet
  facet normal -2.60484e-07 -1.07896e-07 -1
    outer loop
      vertex -29.2893 -70.7107 -70.7107
      vertex -29.2893 70.7107 -70.7107
      vertex 29.2893 -70.7107 -70.7107
    endloop
  endfacet
  facet normal -2.92086e-07 -1.07896e-07 -1
    outer loop
      vertex -70.7107 -29.2893 -70.7107
      vertex -29.2893 70.7107 -70.7107
      vertex -29.2893 -70.7107 -70.7107
    endloop
  endfacet
  facet normal -5.5257e-07 0 -1
    outer loop
      vertex -29.2893 70.7107 -70.7107
      vertex -70.7107 -29.2893 -70.7107
      vertex -70.7107 29.2893 -70.7107
    endloop
  endfacet
  facet normal -1 8.67002e-07 1.30242e-07
    outer loop
      vertex -70.7107 70.7107 -29.2893
      vertex -70.7107 29.2893 70.7107
      vertex -70.7107 70.7107 29.2893
    endloop
  endfacet
  facet normal -1 4.22328e-07 -5.3948e-08
    outer loop
      vertex -70.7107 29.2893 -70.7107
      vertex -70.7107 29.2893 70.7107
      vertex -70.7107 70.7107 -29.2893
    endloop
  endfacet
  facet normal -1 -6.51209e-07 -5.39479e-08
    outer loop
      vertex -70.7107 29.2893 -70.7107
      vertex -70.7107 -29.2893 70.7107
      vertex -70.7107 29.2893 70.7107
    endloop
  endfacet
  facet normal -1 0 2.15792e-07
    outer loop
      vertex -70.7107 -29.2893 -70.7107
      vertex -70.7107 -29.2893 70.7107
      vertex -70.7107 29.2893 -70.7107
    endloop
  endfacet
  facet normal -1 3.1602e-08 2.15792e-07
    outer loop
      vertex -70.7107 -70.7107 -29.2893
      vertex -70.7107 -29.2893 70.7107
      vertex -70.7107 -29.2893 -70.7107
    endloop
  endfacet
  facet normal -1 2.38138e-07 1.30242e-07
    outer loop
      vertex -70.7107 -29.2893 70.7107
      vertex -70.7107 -70.7107 -29.2893
      vertex -70.7107 -70.7107 29.2893
    endloop
  endfacet
  facet normal 1 5.3948e-08 -1.30242e-07
    outer loop
      vertex 70.7107 29.2893 70.7107
      vertex 70.7107 70.7107 -29.2893
      vertex 70.7107 70.7107 29.2893
    endloop
  endfacet
  facet normal 1 -1.52588e-07 -2.15792e-07
    outer loop
      vertex 70.7107 29.2893 70.7107
      vertex 70.7107 29.2893 -70.7107
      vertex 70.7107 70.7107 -29.2893
    endloop
  endfacet
  facet normal 1 0 -2.15792e-07
    outer loop
      vertex 70.7107 -29.2893 70.7107
      vertex 70.7107 29.2893 -70.7107
      vertex 70.7107 29.2893 70.7107
    endloop
  endfacet
  facet normal 1 6.51209e-07 5.39479e-08
    outer loop
      vertex 70.7107 -29.2893 70.7107
      vertex 70.7107 -29.2893 -70.7107
      vertex 70.7107 29.2893 -70.7107
    endloop
  endfacet
  facet normal 1 -4.22328e-07 5.3948e-08
    outer loop
      vertex 70.7107 -70.7107 29.2893
      vertex 70.7107 -29.2893 -70.7107
      vertex 70.7107 -29.2893 70.7107
    endloop
  endfacet
  facet normal 1 -8.67002e-07 -1.30242e-07
    outer loop
      vertex 70.7107 -29.2893 -70.7107
      vertex 70.7107 -70.7107 29.2893
      vertex 70.7107 -70.7107 -29.2893
    endloop
  endfacet
  facet normal 1.8419e-07 0 1
    outer loop
      vertex 29.2893 70.7107 70.7107
      vertex 70.7107 -29.2893 70.7107
      vertex 70.7107 29.2893 70.7107
    endloop
  endfacet
  facet normal 4.44674e-07 1.07896e-07 1
    outer loop
      vertex 29.2893 70.7107 70.7107
      vertex 29.2893 -70.7107 70.7107
      vertex 70.7107 -29.2893 70.7107
    endloop
  endfacet
  facet normal 2.60484e-07 1.07896e-07 1
    outer loop
      vertex -29.2893 70.7107 70.7107
      vertex 29.2893 -70.7107 70.7107
      vertex 29.2893 70.7107 70.7107
    endloop
  endfacet
  facet normal 0 0 1
    outer loop
      vertex -29.2893 70.7107 70.7107
      vertex -29.2893 -70.7107 70.7107
      vertex 29.2893 -70.7107 70.7107
    endloop
  endfacet
  facet normal 1.8419e-07 -1.73892e-14 1
    outer loop
      vertex -29.2893 70.7107 70.7107
      vertex -70.7107 -29.2893 70.7107
      vertex -29.2893 -70.7107 70.7107
    endloop
  endfacet
  facet normal 1.12748e-06 -3.90725e-07 1
    outer loop
      vertex -70.7107 -29.2893 70.7107
      vertex -29.2893 70.7107 70.7107
      vertex -70.7107 29.2893 70.7107
    endloop
  endfacet
  facet normal -3.90726e-07 -1 3.90726e-07
    outer loop
      vertex -70.7107 -70.7107 29.2893
      vertex 29.2893 -70.7107 70.7107
      vertex -29.2893 -70.7107 70.7107
    endloop
  endfacet
  facet normal -1.07896e-07 -1 -2.92086e-07
    outer loop
      vertex -70.7107 -70.7107 29.2893
      vertex 70.7107 -70.7107 29.2893
      vertex 29.2893 -70.7107 70.7107
    endloop
  endfacet
  facet normal -1.07896e-07 -1 1.40526e-14
    outer loop
      vertex -70.7107 -70.7107 -29.2893
      vertex 70.7107 -70.7107 29.2893
      vertex -70.7107 -70.7107 29.2893
    endloop
  endfacet
  facet normal -1.07896e-07 -1 1.40526e-14
    outer loop
      vertex -70.7107 -70.7107 -29.2893
      vertex 70.7107 -70.7107 -29.2893
      vertex 70.7107 -70.7107 29.2893
    endloop
  endfacet
  facet normal -1.07896e-07 -1 7.6294e-08
    outer loop
      vertex -29.2893 -70.7107 -70.7107
      vertex 70.7107 -70.7107 -29.2893
      vertex -70.7107 -70.7107 -29.2893
    endloop
  endfacet
  facet normal -4.79785e-14 -1 -1.8419e-07
    outer loop
      vertex 70.7107 -70.7107 -29.2893
      vertex -29.2893 -70.7107 -70.7107
      vertex 29.2893 -70.7107 -70.7107
    endloop
  endfacet
  facet normal -0.577351 0.57735 -0.57735
    outer loop
      vertex -29.2893 70.7107 -70.7107
      vertex -70.7107 29.2893 -70.7107
      vertex -70.7107 70.7107 -29.2893
    endloop
  endfacet
  facet normal 0.57735 0.57735 -0.57735
    outer loop
      vertex 29.2893 70.7107 -70.7107
      vertex 70.7107 70.7107 -29.2893
      vertex 70.7107 29.2893 -70.7107
    endloop
  endfacet
  facet normal -0.57735 0.577351 0.57735
    outer loop
      vertex -70.7107 70.7107 29.2893
      vertex -70.7107 29.2893 70.7107
      vertex -29.2893 70.7107 70.7107
    endloop
  endfacet
  facet normal -0.57735 -0.57735 -0.57735
    outer loop
      vertex -70.7107 -29.2893 -70.7107
      vertex -29.2893 -70.7107 -70.7107
      vertex -70.7107 -70.7107 -29.2893
    endloop
  endfacet
  facet normal 0.57735 -0.577351 -0.57735
    outer loop
      vertex 70.7107 -29.2893 -70.7107
      vertex 70.7107 -70.7107 -29.2893
      vertex 29.2893 -70.7107 -70.7107
    endloop
  endfacet
  facet normal 0.57735 0.57735 0.57735
    outer loop
      vertex 70.7107 70.7107 29.2893
      vertex 29.2893 70.7107 70.7107
      vertex 70.7107 29.2893 70.7107
    endloop
  endfacet
  facet normal -0.57735 -0.57735 0.57735
    outer loop
      vertex -70.7107 -29.2893 70.7107
      vertex -70.7107 -70.7107 29.2893
      vertex -29.2893 -70.7107 70.7107
    endloop
  endfacet
  facet normal 0.577351 -0.57735 0.57735
    outer loop
      vertex 70.7107 -70.7107 29.2893
      vertex 70.7107 -29.2893 70.7107
      vertex 29.2893 -70.7107 70.7107
    endloop
  endfacet
endsolid OpenSCAD_Model
