solid OpenSCAD_Model
  facet normal -0.440828 0.860752 0.254512
    outer loop
      vertex -58.0179 74.9007 33.4966
      vertex 0 93.4172 71.3644
      vertex -61.8034 93.4172 -35.6822
    endloop
  endfacet
  facet normal -0.544894 0.666322 0.509024
    outer loop
      vertex -58.0179 74.9007 33.4966
      vertex -100 22.0528 57.735
      vertex 0 93.4172 71.3644
    endloop
  endfacet
  facet normal -0.168381 0.980916 0.097215
    outer loop
      vertex 0 93.4172 71.3644
      vertex 0 100.49 0
      vertex -61.8034 93.4172 -35.6822
    endloop
  endfacet
  facet normal -0.713275 0.666322 0.217379
    outer loop
      vertex -61.8034 93.4172 -35.6822
      vertex -100 22.0528 57.735
      vertex -58.0179 74.9007 33.4966
    endloop
  endfacet
  facet normal -0.440828 0.471892 0.763537
    outer loop
      vertex 0 93.4172 71.3644
      vertex -100 22.0528 57.735
      vertex -35.857 33.4966 87.6953
    endloop
  endfacet
  facet normal 7.2546e-08 0.980916 -0.19443
    outer loop
      vertex -61.8034 93.4172 -35.6822
      vertex 0 100.49 0
      vertex 61.8034 93.4172 -35.6822
    endloop
  endfacet
  facet normal 0.168381 0.980916 0.097215
    outer loop
      vertex 0 100.49 0
      vertex 0 93.4172 71.3644
      vertex 61.8034 93.4172 -35.6822
    endloop
  endfacet
  facet normal -0.881656 0.471892 -7.84855e-08
    outer loop
      vertex -100 22.0528 57.735
      vertex -61.8034 93.4172 -35.6822
      vertex -93.8749 33.4966 -12.7946
    endloop
  endfacet
  facet normal -0.440828 0.157297 0.883701
    outer loop
      vertex -100 22.0528 57.735
      vertex 9.63e-06 -22.0528 115.47
      vertex -35.857 33.4966 87.6953
    endloop
  endfacet
  facet normal -0.168381 0.351727 0.920834
    outer loop
      vertex -35.857 33.4966 87.6953
      vertex 9.63e-06 -22.0528 115.47
      vertex 0 93.4172 71.3644
    endloop
  endfacet
  facet normal 8.45469e-08 0.860752 -0.509025
    outer loop
      vertex 61.8034 93.4172 -35.6822
      vertex -8.07e-07 74.9007 -66.9933
      vertex -61.8034 93.4172 -35.6822
    endloop
  endfacet
  facet normal 0.440828 0.860752 0.254512
    outer loop
      vertex 0 93.4172 71.3644
      vertex 58.0179 74.9007 33.4966
      vertex 61.8034 93.4172 -35.6822
    endloop
  endfacet
  facet normal -0.881656 0.351727 -0.314595
    outer loop
      vertex -61.8034 93.4172 -35.6822
      vertex -100 -22.0528 -57.735
      vertex -93.8749 33.4966 -12.7946
    endloop
  endfacet
  facet normal -0.985722 0.157297 -0.0600824
    outer loop
      vertex -93.8749 33.4966 -12.7946
      vertex -100 -22.0528 -57.735
      vertex -100 22.0528 57.735
    endloop
  endfacet
  facet normal -0.544893 -0.157297 0.823619
    outer loop
      vertex 9.63e-06 -22.0528 115.47
      vertex -100 22.0528 57.735
      vertex -58.0179 -33.4966 74.9007
    endloop
  endfacet
  facet normal 0.168381 0.351727 0.920834
    outer loop
      vertex 0 93.4172 71.3644
      vertex 9.63e-06 -22.0528 115.47
      vertex 35.857 33.4966 87.6953
    endloop
  endfacet
  facet normal -0.168382 0.666322 -0.726404
    outer loop
      vertex -61.8034 93.4172 -35.6822
      vertex -8.07e-07 74.9007 -66.9933
      vertex -9.63e-06 22.0528 -115.47
    endloop
  endfacet
  facet normal 0.168382 0.666321 -0.726404
    outer loop
      vertex -8.07e-07 74.9007 -66.9933
      vertex 61.8034 93.4172 -35.6822
      vertex -9.63e-06 22.0528 -115.47
    endloop
  endfacet
  facet normal 0.713275 0.666322 0.217379
    outer loop
      vertex 61.8034 93.4172 -35.6822
      vertex 58.0179 74.9007 33.4966
      vertex 100 22.0528 57.735
    endloop
  endfacet
  facet normal 0.544894 0.666322 0.509025
    outer loop
      vertex 58.0179 74.9007 33.4966
      vertex 0 93.4172 71.3644
      vertex 100 22.0528 57.735
    endloop
  endfacet
  facet normal -0.713275 0.351727 -0.606239
    outer loop
      vertex -100 -22.0528 -57.735
      vertex -61.8034 93.4172 -35.6822
      vertex -58.0179 33.4966 -74.9007
    endloop
  endfacet
  facet normal -0.985722 -0.157297 0.0600817
    outer loop
      vertex -100 22.0528 57.735
      vertex -100 -22.0528 -57.735
      vertex -93.8749 -33.4966 12.7946
    endloop
  endfacet
  facet normal -0.713275 -0.351727 0.60624
    outer loop
      vertex -100 22.0528 57.735
      vertex -61.8034 -93.4172 35.6822
      vertex -58.0179 -33.4966 74.9007
    endloop
  endfacet
  facet normal -0.440828 -0.471892 0.763537
    outer loop
      vertex -58.0179 -33.4966 74.9007
      vertex -61.8034 -93.4172 35.6822
      vertex 9.63e-06 -22.0528 115.47
    endloop
  endfacet
  facet normal 0.440829 0.157297 0.883701
    outer loop
      vertex 9.63e-06 -22.0528 115.47
      vertex 100 22.0528 57.735
      vertex 35.857 33.4966 87.6953
    endloop
  endfacet
  facet normal 0.440829 0.471892 0.763537
    outer loop
      vertex 35.857 33.4966 87.6953
      vertex 100 22.0528 57.735
      vertex 0 93.4172 71.3644
    endloop
  endfacet
  facet normal -0.440828 0.471892 -0.763537
    outer loop
      vertex -9.63e-06 22.0528 -115.47
      vertex -58.0179 33.4966 -74.9007
      vertex -61.8034 93.4172 -35.6822
    endloop
  endfacet
  facet normal 0.440828 0.471892 -0.763537
    outer loop
      vertex 61.8034 93.4172 -35.6822
      vertex 58.0179 33.4966 -74.9007
      vertex -9.63e-06 22.0528 -115.47
    endloop
  endfacet
  facet normal 0.881656 0.471892 5.52947e-07
    outer loop
      vertex 100 22.0528 57.735
      vertex 93.8749 33.4966 -12.7946
      vertex 61.8034 93.4172 -35.6822
    endloop
  endfacet
  facet normal -0.544894 0.157297 -0.823619
    outer loop
      vertex -58.0179 33.4966 -74.9007
      vertex -9.63e-06 22.0528 -115.47
      vertex -100 -22.0528 -57.735
    endloop
  endfacet
  facet normal -0.881656 -0.471892 -5.52947e-07
    outer loop
      vertex -100 -22.0528 -57.735
      vertex -61.8034 -93.4172 35.6822
      vertex -93.8749 -33.4966 12.7946
    endloop
  endfacet
  facet normal -0.881656 -0.351727 0.314594
    outer loop
      vertex -93.8749 -33.4966 12.7946
      vertex -61.8034 -93.4172 35.6822
      vertex -100 22.0528 57.735
    endloop
  endfacet
  facet normal -0.168382 -0.666321 0.726404
    outer loop
      vertex 9.63e-06 -22.0528 115.47
      vertex -61.8034 -93.4172 35.6822
      vertex 8.07e-07 -74.9007 66.9933
    endloop
  endfacet
  facet normal 0.544894 -0.157297 0.823619
    outer loop
      vertex 100 22.0528 57.735
      vertex 9.63e-06 -22.0528 115.47
      vertex 58.0179 -33.4966 74.9007
    endloop
  endfacet
  facet normal 0.544893 0.157297 -0.823619
    outer loop
      vertex -9.63e-06 22.0528 -115.47
      vertex 58.0179 33.4966 -74.9007
      vertex 100 -22.0528 -57.735
    endloop
  endfacet
  facet normal 0.713275 0.351727 -0.60624
    outer loop
      vertex 58.0179 33.4966 -74.9007
      vertex 61.8034 93.4172 -35.6822
      vertex 100 -22.0528 -57.735
    endloop
  endfacet
  facet normal 0.881656 0.351727 -0.314594
    outer loop
      vertex 61.8034 93.4172 -35.6822
      vertex 93.8749 33.4966 -12.7946
      vertex 100 -22.0528 -57.735
    endloop
  endfacet
  facet normal 0.985722 0.157297 -0.0600817
    outer loop
      vertex 93.8749 33.4966 -12.7946
      vertex 100 22.0528 57.735
      vertex 100 -22.0528 -57.735
    endloop
  endfacet
  facet normal -0.440829 -0.157297 -0.883701
    outer loop
      vertex -100 -22.0528 -57.735
      vertex -9.63e-06 22.0528 -115.47
      vertex -35.857 -33.4966 -87.6953
    endloop
  endfacet
  facet normal -0.713275 -0.666322 -0.217379
    outer loop
      vertex -61.8034 -93.4172 35.6822
      vertex -100 -22.0528 -57.735
      vertex -58.0179 -74.9007 -33.4966
    endloop
  endfacet
  facet normal -8.45469e-08 -0.860752 0.509025
    outer loop
      vertex -61.8034 -93.4172 35.6822
      vertex 61.8034 -93.4172 35.6822
      vertex 8.07e-07 -74.9007 66.9933
    endloop
  endfacet
  facet normal 0.168382 -0.666322 0.726404
    outer loop
      vertex 8.07e-07 -74.9007 66.9933
      vertex 61.8034 -93.4172 35.6822
      vertex 9.63e-06 -22.0528 115.47
    endloop
  endfacet
  facet normal 0.440828 -0.471892 0.763537
    outer loop
      vertex 9.63e-06 -22.0528 115.47
      vertex 61.8034 -93.4172 35.6822
      vertex 58.0179 -33.4966 74.9007
    endloop
  endfacet
  facet normal 0.713275 -0.351727 0.606239
    outer loop
      vertex 58.0179 -33.4966 74.9007
      vertex 61.8034 -93.4172 35.6822
      vertex 100 22.0528 57.735
    endloop
  endfacet
  facet normal 0.440828 -0.157297 -0.883701
    outer loop
      vertex 100 -22.0528 -57.735
      vertex 35.857 -33.4966 -87.6953
      vertex -9.63e-06 22.0528 -115.47
    endloop
  endfacet
  facet normal 0.985722 -0.157297 0.0600824
    outer loop
      vertex 100 22.0528 57.735
      vertex 93.8749 -33.4966 12.7946
      vertex 100 -22.0528 -57.735
    endloop
  endfacet
  facet normal -0.168381 -0.351727 -0.920834
    outer loop
      vertex -9.63e-06 22.0528 -115.47
      vertex -0 -93.4172 -71.3644
      vertex -35.857 -33.4966 -87.6953
    endloop
  endfacet
  facet normal -0.440829 -0.471892 -0.763537
    outer loop
      vertex -35.857 -33.4966 -87.6953
      vertex -0 -93.4172 -71.3644
      vertex -100 -22.0528 -57.735
    endloop
  endfacet
  facet normal -0.544894 -0.666322 -0.509025
    outer loop
      vertex -100 -22.0528 -57.735
      vertex -0 -93.4172 -71.3644
      vertex -58.0179 -74.9007 -33.4966
    endloop
  endfacet
  facet normal -0.440828 -0.860752 -0.254512
    outer loop
      vertex -58.0179 -74.9007 -33.4966
      vertex -0 -93.4172 -71.3644
      vertex -61.8034 -93.4172 35.6822
    endloop
  endfacet
  facet normal -7.2546e-08 -0.980916 0.19443
    outer loop
      vertex 61.8034 -93.4172 35.6822
      vertex -61.8034 -93.4172 35.6822
      vertex -0 -100.49 0
    endloop
  endfacet
  facet normal 0.881656 -0.351727 0.314595
    outer loop
      vertex 100 22.0528 57.735
      vertex 61.8034 -93.4172 35.6822
      vertex 93.8749 -33.4966 12.7946
    endloop
  endfacet
  facet normal 0.168381 -0.351727 -0.920834
    outer loop
      vertex -9.63e-06 22.0528 -115.47
      vertex 35.857 -33.4966 -87.6953
      vertex -0 -93.4172 -71.3644
    endloop
  endfacet
  facet normal 0.440828 -0.471892 -0.763537
    outer loop
      vertex 35.857 -33.4966 -87.6953
      vertex 100 -22.0528 -57.735
      vertex -0 -93.4172 -71.3644
    endloop
  endfacet
  facet normal 0.881656 -0.471892 7.84855e-08
    outer loop
      vertex 100 -22.0528 -57.735
      vertex 93.8749 -33.4966 12.7946
      vertex 61.8034 -93.4172 35.6822
    endloop
  endfacet
  facet normal -0.168381 -0.980916 -0.097215
    outer loop
      vertex -61.8034 -93.4172 35.6822
      vertex -0 -93.4172 -71.3644
      vertex -0 -100.49 0
    endloop
  endfacet
  facet normal 0.168381 -0.980916 -0.097215
    outer loop
      vertex -0 -100.49 0
      vertex -0 -93.4172 -71.3644
      vertex 61.8034 -93.4172 35.6822
    endloop
  endfacet
  facet normal 0.544894 -0.666322 -0.509024
    outer loop
      vertex 100 -22.0528 -57.735
      vertex 58.0179 -74.9007 -33.4966
      vertex -0 -93.4172 -71.3644
    endloop
  endfacet
  facet normal 0.713275 -0.666322 -0.217379
    outer loop
      vertex 61.8034 -93.4172 35.6822
      vertex 58.0179 -74.9007 -33.4966
      vertex 100 -22.0528 -57.735
    endloop
  endfacet
  facet normal 0.440828 -0.860752 -0.254512
    outer loop
      vertex 61.8034 -93.4172 35.6822
      vertex -0 -93.4172 -71.3644
      vertex 58.0179 -74.9007 -33.4966
    endloop
  endfacet
endsolid OpenSCAD_Model
