solid OpenSCAD_Model
  facet normal 0 -0 1
    outer loop
      vertex 20.1774 -29.5686 97.9432
      vertex 20.1774 38.1966 97.9432
      vertex -42.9239 -4.86327 97.9432
    endloop
  endfacet
  facet normal 0.395248 -0 0.918574
    outer loop
      vertex 20.1774 -29.5686 97.9432
      vertex 78.1406 -4.86327 73.0026
      vertex 20.1774 38.1966 97.9432
    endloop
  endfacet
  facet normal -0.222786 0.326477 0.918574
    outer loop
      vertex 20.1774 38.1966 97.9432
      vertex -40.3548 59.1372 75.8194
      vertex -42.9239 -4.86327 97.9432
    endloop
  endfacet
  facet normal -0.144097 -0.368045 0.918574
    outer loop
      vertex -42.9239 -4.86327 97.9432
      vertex -23.9594 -74.5356 73.0026
      vertex 20.1774 -29.5686 97.9432
    endloop
  endfacet
  facet normal 0.56771 0.326477 0.755723
    outer loop
      vertex 20.1774 38.1966 97.9432
      vertex 78.1406 -4.86327 73.0026
      vertex 67.0364 59.1372 53.6956
    endloop
  endfacet
  facet normal 0.495428 -0.368045 0.786825
    outer loop
      vertex 78.1406 -4.86327 73.0026
      vertex 20.1774 -29.5686 97.9432
      vertex 50.8626 -74.5356 57.5884
    endloop
  endfacet
  facet normal -0.589668 0.28491 0.755723
    outer loop
      vertex -42.9239 -4.86327 97.9432
      vertex -40.3548 59.1372 75.8194
      vertex -92.1987 25.4644 48.0619
    endloop
  endfacet
  facet normal -0.0503239 0.652955 0.755723
    outer loop
      vertex -40.3548 59.1372 75.8194
      vertex 20.1774 38.1966 97.9432
      vertex 9.9013 95.1367 48.0619
    endloop
  endfacet
  facet normal 0.162095 -0.595509 0.786825
    outer loop
      vertex 20.1774 -29.5686 97.9432
      vertex -23.9594 -74.5356 73.0026
      vertex 50.8626 -74.5356 57.5884
    endloop
  endfacet
  facet normal -0.510979 -0.409613 0.755723
    outer loop
      vertex -23.9594 -74.5356 73.0026
      vertex -42.9239 -4.86327 97.9432
      vertex -79.5067 -40.8628 53.6956
    endloop
  endfacet
  facet normal 0.840353 0.28491 0.461122
    outer loop
      vertex 78.1406 -4.86327 73.0026
      vertex 103.688 25.4644 7.70709
      vertex 67.0364 59.1372 53.6956
    endloop
  endfacet
  facet normal 0.344924 0.652955 0.674298
    outer loop
      vertex 67.0364 59.1372 53.6956
      vertex 9.9013 95.1367 48.0619
      vertex 20.1774 38.1966 97.9432
    endloop
  endfacet
  facet normal 0.76807 -0.409613 0.492225
    outer loop
      vertex 50.8626 -74.5356 57.5884
      vertex 94.2559 -40.8628 17.8985
      vertex 78.1406 -4.86327 73.0026
    endloop
  endfacet
  facet normal -0.643952 0.585697 0.492225
    outer loop
      vertex -40.3548 59.1372 75.8194
      vertex -59.5509 87.2678 17.2336
      vertex -92.1987 25.4644 48.0619
    endloop
  endfacet
  facet normal -0.733765 -0.0831356 0.674298
    outer loop
      vertex -92.1987 25.4644 48.0619
      vertex -79.5067 -40.8628 53.6956
      vertex -42.9239 -4.86327 97.9432
    endloop
  endfacet
  facet normal -0.310619 0.813161 0.492225
    outer loop
      vertex 9.9013 95.1367 48.0619
      vertex -59.5509 87.2678 17.2336
      vertex -40.3548 59.1372 75.8194
    endloop
  endfacet
  facet normal 0.101404 -0.864542 0.492224
    outer loop
      vertex -23.9594 -74.5356 73.0026
      vertex 3.6873 -102.666 17.8985
      vertex 50.8626 -74.5356 57.5884
    endloop
  endfacet
  facet normal -0.57167 -0.678645 0.461123
    outer loop
      vertex -79.5067 -40.8628 53.6956
      vertex -61.5135 -87.2678 7.70709
      vertex -23.9594 -74.5356 73.0026
    endloop
  endfacet
  facet normal 0.786069 0.585696 0.197624
    outer loop
      vertex 67.0364 59.1372 53.6956
      vertex 103.688 25.4644 7.70709
      vertex 61.5135 87.2678 -7.70709
    endloop
  endfacet
  facet normal 0.940533 -0.083135 0.329373
    outer loop
      vertex 103.688 25.4644 7.70709
      vertex 78.1406 -4.86327 73.0026
      vertex 94.2559 -40.8628 17.8985
    endloop
  endfacet
  facet normal 0.479877 0.813161 0.329373
    outer loop
      vertex 9.9013 95.1367 48.0619
      vertex 67.0364 59.1372 53.6956
      vertex 61.5135 87.2678 -7.70709
    endloop
  endfacet
  facet normal 0.707379 -0.678645 0.197624
    outer loop
      vertex 94.2559 -40.8628 17.8985
      vertex 50.8626 -74.5356 57.5884
      vertex 59.5509 -87.2678 -17.2336
    endloop
  endfacet
  facet normal -0.842332 0.518439 0.1473
    outer loop
      vertex -92.1987 25.4644 48.0619
      vertex -59.5509 87.2678 17.2336
      vertex -94.2559 40.8628 -17.8985
    endloop
  endfacet
  facet normal -0.932145 -0.150394 0.329373
    outer loop
      vertex -79.5067 -40.8628 53.6956
      vertex -92.1987 25.4644 48.0619
      vertex -103.688 -25.4644 -7.70709
    endloop
  endfacet
  facet normal -0.175666 0.973367 0.1473
    outer loop
      vertex -59.5509 87.2678 17.2336
      vertex 9.9013 95.1367 48.0619
      vertex -3.6873 102.666 -17.8985
    endloop
  endfacet
  facet normal 0.374046 -0.906109 0.197624
    outer loop
      vertex 50.8626 -74.5356 57.5884
      vertex 3.6873 -102.666 17.8985
      vertex 59.5509 -87.2678 -17.2336
    endloop
  endfacet
  facet normal -0.265479 -0.906109 0.329373
    outer loop
      vertex 3.6873 -102.666 17.8985
      vertex -23.9594 -74.5356 73.0026
      vertex -61.5135 -87.2678 7.70709
    endloop
  endfacet
  facet normal -0.831965 -0.518438 0.197624
    outer loop
      vertex -61.5135 -87.2678 7.70709
      vertex -79.5067 -40.8628 53.6956
      vertex -103.688 -25.4644 -7.70709
    endloop
  endfacet
  facet normal 0.831965 0.518438 -0.197624
    outer loop
      vertex 103.688 25.4644 7.70709
      vertex 79.5067 40.8628 -53.6956
      vertex 61.5135 87.2678 -7.70709
    endloop
  endfacet
  facet normal 0.986429 -0.150393 -0.0658745
    outer loop
      vertex 94.2559 -40.8628 17.8985
      vertex 92.1987 -25.4644 -48.0619
      vertex 103.688 25.4644 7.70709
    endloop
  endfacet
  facet normal 0.219582 0.973367 0.0658748
    outer loop
      vertex 61.5135 87.2678 -7.70709
      vertex -3.6873 102.666 -17.8985
      vertex 9.9013 95.1367 48.0619
    endloop
  endfacet
  facet normal 0.842332 -0.518439 -0.1473
    outer loop
      vertex 59.5509 -87.2678 -17.2336
      vertex 92.1987 -25.4644 -48.0619
      vertex 94.2559 -40.8628 17.8985
    endloop
  endfacet
  facet normal -0.707379 0.678645 -0.197624
    outer loop
      vertex -59.5509 87.2678 17.2336
      vertex -50.8626 74.5356 -57.5884
      vertex -94.2559 40.8628 -17.8985
    endloop
  endfacet
  facet normal -0.986429 0.150393 0.0658745
    outer loop
      vertex -94.2559 40.8628 -17.8985
      vertex -103.688 -25.4644 -7.70709
      vertex -92.1987 25.4644 48.0619
    endloop
  endfacet
  facet normal -0.374046 0.906109 -0.197624
    outer loop
      vertex -3.6873 102.666 -17.8985
      vertex -50.8626 74.5356 -57.5884
      vertex -59.5509 87.2678 17.2336
    endloop
  endfacet
  facet normal 0.175666 -0.973367 -0.1473
    outer loop
      vertex 3.6873 -102.666 17.8985
      vertex -9.9013 -95.1367 -48.0619
      vertex 59.5509 -87.2678 -17.2336
    endloop
  endfacet
  facet normal -0.219582 -0.973367 -0.0658748
    outer loop
      vertex -61.5135 -87.2678 7.70709
      vertex -9.9013 -95.1367 -48.0619
      vertex 3.6873 -102.666 17.8985
    endloop
  endfacet
  facet normal -0.786069 -0.585696 -0.197624
    outer loop
      vertex -103.688 -25.4644 -7.70709
      vertex -67.0364 -59.1372 -53.6956
      vertex -61.5135 -87.2678 7.70709
    endloop
  endfacet
  facet normal 0.57167 0.678645 -0.461123
    outer loop
      vertex 61.5135 87.2678 -7.70709
      vertex 79.5067 40.8628 -53.6956
      vertex 23.9594 74.5356 -73.0026
    endloop
  endfacet
  facet normal 0.932145 0.150394 -0.329373
    outer loop
      vertex 79.5067 40.8628 -53.6956
      vertex 103.688 25.4644 7.70709
      vertex 92.1987 -25.4644 -48.0619
    endloop
  endfacet
  facet normal 0.265479 0.906109 -0.329373
    outer loop
      vertex -3.6873 102.666 -17.8985
      vertex 61.5135 87.2678 -7.70709
      vertex 23.9594 74.5356 -73.0026
    endloop
  endfacet
  facet normal 0.643952 -0.585697 -0.492225
    outer loop
      vertex 92.1987 -25.4644 -48.0619
      vertex 59.5509 -87.2678 -17.2336
      vertex 40.3548 -59.1372 -75.8194
    endloop
  endfacet
  facet normal -0.76807 0.409613 -0.492225
    outer loop
      vertex -94.2559 40.8628 -17.8985
      vertex -50.8626 74.5356 -57.5884
      vertex -78.1406 4.86327 -73.0026
    endloop
  endfacet
  facet normal -0.940533 0.083135 -0.329373
    outer loop
      vertex -103.688 -25.4644 -7.70709
      vertex -94.2559 40.8628 -17.8985
      vertex -78.1406 4.86327 -73.0026
    endloop
  endfacet
  facet normal -0.101404 0.864542 -0.492224
    outer loop
      vertex -50.8626 74.5356 -57.5884
      vertex -3.6873 102.666 -17.8985
      vertex 23.9594 74.5356 -73.0026
    endloop
  endfacet
  facet normal 0.310619 -0.813161 -0.492225
    outer loop
      vertex 59.5509 -87.2678 -17.2336
      vertex -9.9013 -95.1367 -48.0619
      vertex 40.3548 -59.1372 -75.8194
    endloop
  endfacet
  facet normal -0.479877 -0.813161 -0.329373
    outer loop
      vertex -9.9013 -95.1367 -48.0619
      vertex -61.5135 -87.2678 7.70709
      vertex -67.0364 -59.1372 -53.6956
    endloop
  endfacet
  facet normal -0.840353 -0.28491 -0.461122
    outer loop
      vertex -67.0364 -59.1372 -53.6956
      vertex -103.688 -25.4644 -7.70709
      vertex -78.1406 4.86327 -73.0026
    endloop
  endfacet
  facet normal 0.510979 0.409613 -0.755723
    outer loop
      vertex 79.5067 40.8628 -53.6956
      vertex 42.9239 4.86327 -97.9432
      vertex 23.9594 74.5356 -73.0026
    endloop
  endfacet
  facet normal 0.733765 0.0831356 -0.674298
    outer loop
      vertex 92.1987 -25.4644 -48.0619
      vertex 42.9239 4.86327 -97.9432
      vertex 79.5067 40.8628 -53.6956
    endloop
  endfacet
  facet normal 0.589668 -0.28491 -0.755723
    outer loop
      vertex 40.3548 -59.1372 -75.8194
      vertex 42.9239 4.86327 -97.9432
      vertex 92.1987 -25.4644 -48.0619
    endloop
  endfacet
  facet normal -0.495428 0.368045 -0.786825
    outer loop
      vertex -50.8626 74.5356 -57.5884
      vertex -20.1774 29.5686 -97.9432
      vertex -78.1406 4.86327 -73.0026
    endloop
  endfacet
  facet normal -0.162095 0.595509 -0.786825
    outer loop
      vertex 23.9594 74.5356 -73.0026
      vertex -20.1774 29.5686 -97.9432
      vertex -50.8626 74.5356 -57.5884
    endloop
  endfacet
  facet normal 0.0503239 -0.652955 -0.755723
    outer loop
      vertex -9.9013 -95.1367 -48.0619
      vertex -20.1774 -38.1966 -97.9432
      vertex 40.3548 -59.1372 -75.8194
    endloop
  endfacet
  facet normal -0.344924 -0.652955 -0.674298
    outer loop
      vertex -67.0364 -59.1372 -53.6956
      vertex -20.1774 -38.1966 -97.9432
      vertex -9.9013 -95.1367 -48.0619
    endloop
  endfacet
  facet normal -0.56771 -0.326477 -0.755723
    outer loop
      vertex -78.1406 4.86327 -73.0026
      vertex -20.1774 -38.1966 -97.9432
      vertex -67.0364 -59.1372 -53.6956
    endloop
  endfacet
  facet normal 0.144097 0.368045 -0.918574
    outer loop
      vertex 23.9594 74.5356 -73.0026
      vertex 42.9239 4.86327 -97.9432
      vertex -20.1774 29.5686 -97.9432
    endloop
  endfacet
  facet normal 0.222786 -0.326477 -0.918574
    outer loop
      vertex 42.9239 4.86327 -97.9432
      vertex 40.3548 -59.1372 -75.8194
      vertex -20.1774 -38.1966 -97.9432
    endloop
  endfacet
  facet normal -0.395248 0 -0.918574
    outer loop
      vertex -78.1406 4.86327 -73.0026
      vertex -20.1774 29.5686 -97.9432
      vertex -20.1774 -38.1966 -97.9432
    endloop
  endfacet
  facet normal -0 0 -1
    outer loop
      vertex 42.9239 4.86327 -97.9432
      vertex -20.1774 -38.1966 -97.9432
      vertex -20.1774 29.5686 -97.9432
    endloop
  endfacet
endsolid OpenSCAD_Model
