solid OpenSCAD_Model
  facet normal 0.210408 0.220943 0.95232
    outer loop
      vertex 41.0416 43.0964 83.3453
      vertex 0 0 102.412
      vertex 43.1479 0 92.8785
    endloop
  endfacet
  facet normal 0.210408 0.220942 0.95232
    outer loop
      vertex 0 0 102.412
      vertex 41.0416 43.0964 83.3453
      vertex -2.10629 43.0964 92.8785
    endloop
  endfacet
  facet normal -0.561418 -0.377172 0.73658
    outer loop
      vertex -75.4029 -47.1404 50.7969
      vertex -34.1058 -26.4298 92.8785
      vertex -70.3179 -9.76311 73.8121
    endloop
  endfacet
  facet normal -0.561418 -0.377172 0.73658
    outer loop
      vertex -34.1058 -26.4298 92.8785
      vertex -75.4029 -47.1404 50.7969
      vertex -39.1908 -63.8071 69.8633
    endloop
  endfacet
  facet normal 0.819492 -0.377172 0.431479
    outer loop
      vertex 64.9774 -63.8071 46.8482
      vertex 94.8706 -9.76311 37.315
      vertex 70.0624 -26.4298 69.8633
    endloop
  endfacet
  facet normal 0.819492 -0.377172 0.431479
    outer loop
      vertex 94.8706 -9.76311 37.315
      vertex 64.9774 -63.8071 46.8482
      vertex 89.7856 -47.1404 14.2998
    endloop
  endfacet
  facet normal -0.609084 0.598115 0.520841
    outer loop
      vertex -80.488 56.9036 27.7818
      vertex -38.3184 59.7631 73.8121
      vertex -46.3822 83.3333 37.315
    endloop
  endfacet
  facet normal -0.609084 0.598114 0.520841
    outer loop
      vertex -38.3184 59.7631 73.8121
      vertex -80.488 56.9036 27.7818
      vertex -72.4242 33.3333 64.2789
    endloop
  endfacet
  facet normal 0.771826 0.598115 0.215739
    outer loop
      vertex 92.7643 33.3333 27.7818
      vertex 57.786 83.3333 14.2998
      vertex 65.8498 59.7631 50.7969
    endloop
  endfacet
  facet normal 0.771826 0.598115 0.21574
    outer loop
      vertex 57.786 83.3333 14.2998
      vertex 92.7643 33.3333 27.7818
      vertex 84.7005 56.9036 -8.71538
    endloop
  endfacet
  facet normal 0.047666 -0.975287 0.215739
    outer loop
      vertex -21.5739 -100 4.7666
      vertex 30.8715 -90.2369 37.315
      vertex -12.2763 -90.2369 46.8482
    endloop
  endfacet
  facet normal 0.047666 -0.975287 0.215739
    outer loop
      vertex 30.8715 -90.2369 37.315
      vertex -21.5739 -100 4.7666
      vertex 21.5739 -100 -4.7666
    endloop
  endfacet
  facet normal -0.047666 0.975287 -0.215739
    outer loop
      vertex 21.5739 100 -4.7666
      vertex -30.8715 90.2369 -37.315
      vertex -21.5739 100 4.7666
    endloop
  endfacet
  facet normal -0.047666 0.975287 -0.215739
    outer loop
      vertex -30.8715 90.2369 -37.315
      vertex 21.5739 100 -4.7666
      vertex 12.2763 90.2369 -46.8482
    endloop
  endfacet
  facet normal -0.771826 -0.598115 -0.215739
    outer loop
      vertex -57.786 -83.3333 -14.2998
      vertex -92.7643 -33.3333 -27.7818
      vertex -65.8498 -59.7631 -50.7969
    endloop
  endfacet
  facet normal -0.771826 -0.598115 -0.21574
    outer loop
      vertex -92.7643 -33.3333 -27.7818
      vertex -57.786 -83.3333 -14.2998
      vertex -84.7005 -56.9036 8.71538
    endloop
  endfacet
  facet normal 0.609084 -0.598114 -0.520841
    outer loop
      vertex 80.488 -56.9036 -27.7818
      vertex 38.3184 -59.7631 -73.8121
      vertex 72.4242 -33.3333 -64.2789
    endloop
  endfacet
  facet normal 0.609084 -0.598115 -0.520841
    outer loop
      vertex 38.3184 -59.7631 -73.8121
      vertex 80.488 -56.9036 -27.7818
      vertex 46.3822 -83.3333 -37.315
    endloop
  endfacet
  facet normal -0.819492 0.377172 -0.431479
    outer loop
      vertex -94.8706 9.76311 -37.315
      vertex -64.9774 63.8071 -46.8482
      vertex -70.0624 26.4298 -69.8633
    endloop
  endfacet
  facet normal -0.819492 0.377172 -0.431479
    outer loop
      vertex -64.9774 63.8071 -46.8482
      vertex -94.8706 9.76311 -37.315
      vertex -89.7856 47.1404 -14.2998
    endloop
  endfacet
  facet normal 0.561418 0.377172 -0.73658
    outer loop
      vertex 34.1058 26.4298 -92.8785
      vertex 75.4029 47.1404 -50.7969
      vertex 70.3179 9.76311 -73.8121
    endloop
  endfacet
  facet normal 0.561418 0.377172 -0.73658
    outer loop
      vertex 75.4029 47.1404 -50.7969
      vertex 34.1058 26.4298 -92.8785
      vertex 39.1908 63.8071 -69.8633
    endloop
  endfacet
  facet normal -0.210408 -0.220942 -0.95232
    outer loop
      vertex -41.0416 -43.0964 -83.3453
      vertex -0 -0 -102.412
      vertex 2.10629 -43.0964 -92.8785
    endloop
  endfacet
  facet normal -0.210408 -0.220943 -0.95232
    outer loop
      vertex -0 -0 -102.412
      vertex -41.0416 -43.0964 -83.3453
      vertex -43.1479 -0 -92.8785
    endloop
  endfacet
  facet normal -0.391957 0.180399 0.902123
    outer loop
      vertex -72.4242 33.3333 64.2789
      vertex 0 0 102.412
      vertex -2.10629 43.0964 92.8785
    endloop
  endfacet
  facet normal -0.391957 0.180399 0.902123
    outer loop
      vertex -72.4242 33.3333 64.2789
      vertex -2.10629 43.0964 92.8785
      vertex -38.3184 59.7631 73.8121
    endloop
  endfacet
  facet normal -0.391957 0.180399 0.902123
    outer loop
      vertex 0 0 102.412
      vertex -72.4242 33.3333 64.2789
      vertex -34.1058 -26.4298 92.8785
    endloop
  endfacet
  facet normal -0.391957 0.180399 0.902123
    outer loop
      vertex -34.1058 -26.4298 92.8785
      vertex -72.4242 33.3333 64.2789
      vertex -70.3179 -9.76311 73.8121
    endloop
  endfacet
  facet normal 0.735551 0.180399 0.653009
    outer loop
      vertex 41.0416 43.0964 83.3453
      vertex 92.7643 33.3333 27.7818
      vertex 65.8498 59.7631 50.7969
    endloop
  endfacet
  facet normal 0.735552 0.180399 0.653009
    outer loop
      vertex 94.8706 -9.76311 37.315
      vertex 41.0416 43.0964 83.3453
      vertex 43.1479 0 92.8785
    endloop
  endfacet
  facet normal 0.735551 0.180399 0.653009
    outer loop
      vertex 41.0416 43.0964 83.3453
      vertex 94.8706 -9.76311 37.315
      vertex 92.7643 33.3333 27.7818
    endloop
  endfacet
  facet normal 0.735552 0.180399 0.653009
    outer loop
      vertex 94.8706 -9.76311 37.315
      vertex 43.1479 0 92.8785
      vertex 70.0624 -26.4298 69.8633
    endloop
  endfacet
  facet normal -0.524835 -0.796318 0.300708
    outer loop
      vertex -75.4029 -47.1404 50.7969
      vertex -12.2763 -90.2369 46.8482
      vertex -39.1908 -63.8071 69.8633
    endloop
  endfacet
  facet normal -0.524835 -0.796318 0.300708
    outer loop
      vertex -21.5739 -100 4.7666
      vertex -75.4029 -47.1404 50.7969
      vertex -84.7005 -56.9036 8.71538
    endloop
  endfacet
  facet normal -0.524835 -0.796318 0.300708
    outer loop
      vertex -75.4029 -47.1404 50.7969
      vertex -21.5739 -100 4.7666
      vertex -12.2763 -90.2369 46.8482
    endloop
  endfacet
  facet normal -0.524835 -0.796318 0.300707
    outer loop
      vertex -21.5739 -100 4.7666
      vertex -84.7005 -56.9036 8.71538
      vertex -57.786 -83.3333 -14.2998
    endloop
  endfacet
  facet normal 0.602673 -0.796318 0.0515929
    outer loop
      vertex 30.8715 -90.2369 37.315
      vertex 89.7856 -47.1404 14.2998
      vertex 64.9774 -63.8071 46.8482
    endloop
  endfacet
  facet normal 0.602673 -0.796318 0.0515933
    outer loop
      vertex 21.5739 -100 -4.7666
      vertex 89.7856 -47.1404 14.2998
      vertex 30.8715 -90.2369 37.315
    endloop
  endfacet
  facet normal 0.602673 -0.796318 0.0515934
    outer loop
      vertex 21.5739 -100 -4.7666
      vertex 80.488 -56.9036 -27.7818
      vertex 89.7856 -47.1404 14.2998
    endloop
  endfacet
  facet normal 0.602673 -0.796318 0.0515933
    outer loop
      vertex 80.488 -56.9036 -27.7818
      vertex 21.5739 -100 -4.7666
      vertex 46.3822 -83.3333 -37.315
    endloop
  endfacet
  facet normal -0.602673 0.796318 -0.0515933
    outer loop
      vertex -21.5739 100 4.7666
      vertex -80.488 56.9036 27.7818
      vertex -46.3822 83.3333 37.315
    endloop
  endfacet
  facet normal -0.602673 0.796318 -0.0515934
    outer loop
      vertex -21.5739 100 4.7666
      vertex -89.7856 47.1404 -14.2998
      vertex -80.488 56.9036 27.7818
    endloop
  endfacet
  facet normal -0.602673 0.796318 -0.0515933
    outer loop
      vertex -30.8715 90.2369 -37.315
      vertex -89.7856 47.1404 -14.2998
      vertex -21.5739 100 4.7666
    endloop
  endfacet
  facet normal -0.602673 0.796318 -0.0515929
    outer loop
      vertex -89.7856 47.1404 -14.2998
      vertex -30.8715 90.2369 -37.315
      vertex -64.9774 63.8071 -46.8482
    endloop
  endfacet
  facet normal 0.524835 0.796318 -0.300707
    outer loop
      vertex 84.7005 56.9036 -8.71538
      vertex 21.5739 100 -4.7666
      vertex 57.786 83.3333 14.2998
    endloop
  endfacet
  facet normal 0.524835 0.796318 -0.300708
    outer loop
      vertex 75.4029 47.1404 -50.7969
      vertex 21.5739 100 -4.7666
      vertex 84.7005 56.9036 -8.71538
    endloop
  endfacet
  facet normal 0.524835 0.796318 -0.300708
    outer loop
      vertex 21.5739 100 -4.7666
      vertex 75.4029 47.1404 -50.7969
      vertex 12.2763 90.2369 -46.8482
    endloop
  endfacet
  facet normal 0.524835 0.796318 -0.300708
    outer loop
      vertex 12.2763 90.2369 -46.8482
      vertex 75.4029 47.1404 -50.7969
      vertex 39.1908 63.8071 -69.8633
    endloop
  endfacet
  facet normal -0.735552 -0.180399 -0.653009
    outer loop
      vertex -43.1479 -0 -92.8785
      vertex -94.8706 9.76311 -37.315
      vertex -70.0624 26.4298 -69.8633
    endloop
  endfacet
  facet normal -0.735552 -0.180399 -0.653009
    outer loop
      vertex -41.0416 -43.0964 -83.3453
      vertex -94.8706 9.76311 -37.315
      vertex -43.1479 -0 -92.8785
    endloop
  endfacet
  facet normal -0.735551 -0.180399 -0.653009
    outer loop
      vertex -94.8706 9.76311 -37.315
      vertex -41.0416 -43.0964 -83.3453
      vertex -92.7643 -33.3333 -27.7818
    endloop
  endfacet
  facet normal -0.735551 -0.180399 -0.653009
    outer loop
      vertex -92.7643 -33.3333 -27.7818
      vertex -41.0416 -43.0964 -83.3453
      vertex -65.8498 -59.7631 -50.7969
    endloop
  endfacet
  facet normal 0.391957 -0.180399 -0.902123
    outer loop
      vertex -0 -0 -102.412
      vertex 72.4242 -33.3333 -64.2789
      vertex 38.3184 -59.7631 -73.8121
    endloop
  endfacet
  facet normal 0.391957 -0.180399 -0.902123
    outer loop
      vertex 72.4242 -33.3333 -64.2789
      vertex -0 -0 -102.412
      vertex 70.3179 9.76311 -73.8121
    endloop
  endfacet
  facet normal 0.391957 -0.180399 -0.902123
    outer loop
      vertex -0 -0 -102.412
      vertex 38.3184 -59.7631 -73.8121
      vertex 2.10629 -43.0964 -92.8785
    endloop
  endfacet
  facet normal 0.391957 -0.180399 -0.902123
    outer loop
      vertex 70.3179 9.76311 -73.8121
      vertex -0 -0 -102.412
      vertex 34.1058 26.4298 -92.8785
    endloop
  endfacet
  facet normal 0.182486 -0.533402 0.825943
    outer loop
      vertex 43.1479 0 92.8785
      vertex 64.9774 -63.8071 46.8482
      vertex 70.0624 -26.4298 69.8633
    endloop
  endfacet
  facet normal 0.182486 -0.533402 0.825943
    outer loop
      vertex 43.1479 0 92.8785
      vertex 30.8715 -90.2369 37.315
      vertex 64.9774 -63.8071 46.8482
    endloop
  endfacet
  facet normal 0.182486 -0.533402 0.825943
    outer loop
      vertex 0 0 102.412
      vertex 30.8715 -90.2369 37.315
      vertex 43.1479 0 92.8785
    endloop
  endfacet
  facet normal 0.182486 -0.533402 0.825943
    outer loop
      vertex 0 0 102.412
      vertex -12.2763 -90.2369 46.8482
      vertex 30.8715 -90.2369 37.315
    endloop
  endfacet
  facet normal 0.182486 -0.533402 0.825943
    outer loop
      vertex -34.1058 -26.4298 92.8785
      vertex -12.2763 -90.2369 46.8482
      vertex 0 0 102.412
    endloop
  endfacet
  facet normal 0.182486 -0.533402 0.825943
    outer loop
      vertex -12.2763 -90.2369 46.8482
      vertex -34.1058 -26.4298 92.8785
      vertex -39.1908 -63.8071 69.8633
    endloop
  endfacet
  facet normal 0.115076 0.845862 0.520841
    outer loop
      vertex -21.5739 100 4.7666
      vertex -2.10629 43.0964 92.8785
      vertex 41.0416 43.0964 83.3453
    endloop
  endfacet
  facet normal 0.115076 0.845862 0.520841
    outer loop
      vertex 21.5739 100 -4.7666
      vertex 41.0416 43.0964 83.3453
      vertex 65.8498 59.7631 50.7969
    endloop
  endfacet
  facet normal 0.115076 0.845862 0.520841
    outer loop
      vertex -2.10629 43.0964 92.8785
      vertex -21.5739 100 4.7666
      vertex -38.3184 59.7631 73.8121
    endloop
  endfacet
  facet normal 0.115076 0.845862 0.520841
    outer loop
      vertex 21.5739 100 -4.7666
      vertex 65.8498 59.7631 50.7969
      vertex 57.786 83.3333 14.2998
    endloop
  endfacet
  facet normal 0.115075 0.845862 0.520841
    outer loop
      vertex -38.3184 59.7631 73.8121
      vertex -21.5739 100 4.7666
      vertex -46.3822 83.3333 37.315
    endloop
  endfacet
  facet normal 0.115076 0.845862 0.520841
    outer loop
      vertex 41.0416 43.0964 83.3453
      vertex 21.5739 100 -4.7666
      vertex -21.5739 100 4.7666
    endloop
  endfacet
  facet normal -0.976451 1.54552e-07 0.215739
    outer loop
      vertex -89.7856 47.1404 -14.2998
      vertex -72.4242 33.3333 64.2789
      vertex -80.488 56.9036 27.7818
    endloop
  endfacet
  facet normal -0.976451 1.15184e-07 0.215739
    outer loop
      vertex -94.8706 9.76311 -37.315
      vertex -72.4242 33.3333 64.2789
      vertex -89.7856 47.1404 -14.2998
    endloop
  endfacet
  facet normal -0.976451 -9.48258e-08 0.215739
    outer loop
      vertex -94.8706 9.76311 -37.315
      vertex -70.3179 -9.76311 73.8121
      vertex -72.4242 33.3333 64.2789
    endloop
  endfacet
  facet normal -0.976451 1.54868e-08 0.215739
    outer loop
      vertex -92.7643 -33.3333 -27.7818
      vertex -70.3179 -9.76311 73.8121
      vertex -94.8706 9.76311 -37.315
    endloop
  endfacet
  facet normal -0.976451 7.64518e-08 0.215739
    outer loop
      vertex -92.7643 -33.3333 -27.7818
      vertex -75.4029 -47.1404 50.7969
      vertex -70.3179 -9.76311 73.8121
    endloop
  endfacet
  facet normal -0.976451 -1.84759e-08 0.215739
    outer loop
      vertex -75.4029 -47.1404 50.7969
      vertex -92.7643 -33.3333 -27.7818
      vertex -84.7005 -56.9036 8.71538
    endloop
  endfacet
  facet normal 0.976451 1.84759e-08 -0.215739
    outer loop
      vertex 92.7643 33.3333 27.7818
      vertex 75.4029 47.1404 -50.7969
      vertex 84.7005 56.9036 -8.71538
    endloop
  endfacet
  facet normal 0.976451 -7.64518e-08 -0.215739
    outer loop
      vertex 92.7643 33.3333 27.7818
      vertex 70.3179 9.76311 -73.8121
      vertex 75.4029 47.1404 -50.7969
    endloop
  endfacet
  facet normal 0.976451 -1.54868e-08 -0.215739
    outer loop
      vertex 94.8706 -9.76311 37.315
      vertex 70.3179 9.76311 -73.8121
      vertex 92.7643 33.3333 27.7818
    endloop
  endfacet
  facet normal 0.976451 9.48258e-08 -0.215739
    outer loop
      vertex 94.8706 -9.76311 37.315
      vertex 72.4242 -33.3333 -64.2789
      vertex 70.3179 9.76311 -73.8121
    endloop
  endfacet
  facet normal 0.976451 -1.15184e-07 -0.215739
    outer loop
      vertex 89.7856 -47.1404 14.2998
      vertex 72.4242 -33.3333 -64.2789
      vertex 94.8706 -9.76311 37.315
    endloop
  endfacet
  facet normal 0.976451 -1.54552e-07 -0.215739
    outer loop
      vertex 72.4242 -33.3333 -64.2789
      vertex 89.7856 -47.1404 14.2998
      vertex 80.488 -56.9036 -27.7818
    endloop
  endfacet
  facet normal -0.115076 -0.845862 -0.520841
    outer loop
      vertex -41.0416 -43.0964 -83.3453
      vertex -21.5739 -100 4.7666
      vertex -57.786 -83.3333 -14.2998
    endloop
  endfacet
  facet normal -0.115076 -0.845862 -0.520841
    outer loop
      vertex -21.5739 -100 4.7666
      vertex -41.0416 -43.0964 -83.3453
      vertex 21.5739 -100 -4.7666
    endloop
  endfacet
  facet normal -0.115075 -0.845862 -0.520841
    outer loop
      vertex -41.0416 -43.0964 -83.3453
      vertex -57.786 -83.3333 -14.2998
      vertex -65.8498 -59.7631 -50.7969
    endloop
  endfacet
  facet normal -0.115076 -0.845862 -0.520841
    outer loop
      vertex 2.10629 -43.0964 -92.8785
      vertex 21.5739 -100 -4.7666
      vertex -41.0416 -43.0964 -83.3453
    endloop
  endfacet
  facet normal -0.115076 -0.845862 -0.520841
    outer loop
      vertex 21.5739 -100 -4.7666
      vertex 2.10629 -43.0964 -92.8785
      vertex 46.3822 -83.3333 -37.315
    endloop
  endfacet
  facet normal -0.115076 -0.845862 -0.520841
    outer loop
      vertex 46.3822 -83.3333 -37.315
      vertex 2.10629 -43.0964 -92.8785
      vertex 38.3184 -59.7631 -73.8121
    endloop
  endfacet
  facet normal -0.182486 0.533402 -0.825943
    outer loop
      vertex 34.1058 26.4298 -92.8785
      vertex 12.2763 90.2369 -46.8482
      vertex 39.1908 63.8071 -69.8633
    endloop
  endfacet
  facet normal -0.182486 0.533402 -0.825943
    outer loop
      vertex -0 -0 -102.412
      vertex 12.2763 90.2369 -46.8482
      vertex 34.1058 26.4298 -92.8785
    endloop
  endfacet
  facet normal -0.182486 0.533402 -0.825943
    outer loop
      vertex -0 -0 -102.412
      vertex -30.8715 90.2369 -37.315
      vertex 12.2763 90.2369 -46.8482
    endloop
  endfacet
  facet normal -0.182486 0.533402 -0.825943
    outer loop
      vertex -43.1479 -0 -92.8785
      vertex -30.8715 90.2369 -37.315
      vertex -0 -0 -102.412
    endloop
  endfacet
  facet normal -0.182486 0.533402 -0.825943
    outer loop
      vertex -43.1479 -0 -92.8785
      vertex -64.9774 63.8071 -46.8482
      vertex -30.8715 90.2369 -37.315
    endloop
  endfacet
  facet normal -0.182486 0.533402 -0.825943
    outer loop
      vertex -64.9774 63.8071 -46.8482
      vertex -43.1479 -0 -92.8785
      vertex -70.0624 26.4298 -69.8633
    endloop
  endfacet
endsolid OpenSCAD_Model
