<?xml version="1.0" encoding="UTF-8" standalone="no"?>
<!DOCTYPE svg PUBLIC "-//W3C//DTD SVG 1.1//EN"
 "http://www.w3.org/Graphics/SVG/1.1/DTD/svg11.dtd">
<!-- Generated by graphviz version 2.38.0 (20140413.2041)
 -->
<!-- Title: console.scad Pages: 1 -->
<svg width="709pt" height="274pt"
 viewBox="0.00 0.00 708.50 274.00" xmlns="http://www.w3.org/2000/svg" xmlns:xlink="http://www.w3.org/1999/xlink">
<g id="graph0" class="graph" transform="scale(1 1) rotate(0) translate(4 270)">
<title>console.scad</title>
<polygon fill="white" stroke="none" points="-4,4 -4,-270 704.5,-270 704.5,4 -4,4"/>
<!-- Node1 -->
<g id="node1" class="node"><title>Node1</title>
<polygon fill="#bfbfbf" stroke="black" points="206.5,-246.5 206.5,-265.5 280.5,-265.5 280.5,-246.5 206.5,-246.5"/>
<text text-anchor="middle" x="243.5" y="-253.5" font-family="Helvetica,sans-Serif" font-size="10.00">console.scad</text>
</g>
<!-- Node2 -->
<g id="node2" class="node"><title>Node2</title>
<g id="a_node2"><a xlink:href="units__resolution_8scad.html" target="_top" xlink:title="An abstraction for arc rendering resolution control. ">
<polygon fill="white" stroke="black" points="0,-118 0,-137 133,-137 133,-118 0,-118"/>
<text text-anchor="middle" x="66.5" y="-125" font-family="Helvetica,sans-Serif" font-size="10.00">units/units_resolution.scad</text>
</a>
</g>
</g>
<!-- Node1&#45;&gt;Node2 -->
<g id="edge1" class="edge"><title>Node1&#45;&gt;Node2</title>
<path fill="none" stroke="midnightblue" d="M222.793,-240.201C185.616,-213.631 108.65,-158.624 78.7511,-137.256"/>
<polygon fill="midnightblue" stroke="midnightblue" points="221.163,-243.338 231.334,-246.305 225.233,-237.643 221.163,-243.338"/>
</g>
<!-- Node4 -->
<g id="node4" class="node"><title>Node4</title>
<g id="a_node4"><a xlink:href="datatypes__map_8scad.html" target="_top" xlink:title="Map data type operations. ">
<polygon fill="white" stroke="black" points="151,-112.5 151,-142.5 256,-142.5 256,-112.5 151,-112.5"/>
<text text-anchor="start" x="159" y="-130.5" font-family="Helvetica,sans-Serif" font-size="10.00">datatypes/datatypes</text>
<text text-anchor="middle" x="203.5" y="-119.5" font-family="Helvetica,sans-Serif" font-size="10.00">_map.scad</text>
</a>
</g>
</g>
<!-- Node1&#45;&gt;Node4 -->
<g id="edge3" class="edge"><title>Node1&#45;&gt;Node4</title>
<path fill="none" stroke="midnightblue" d="M234.222,-237.344C230.207,-229.185 225.704,-219.269 222.5,-210 214.525,-186.931 208.835,-159.041 205.865,-142.593"/>
<polygon fill="midnightblue" stroke="midnightblue" points="231.104,-238.935 238.757,-246.262 237.344,-235.762 231.104,-238.935"/>
</g>
<!-- Node5 -->
<g id="node5" class="node"><title>Node5</title>
<g id="a_node5"><a xlink:href="datatypes__table_8scad.html" target="_top" xlink:title="Table data type operations. ">
<polygon fill="white" stroke="black" points="232,-179.5 232,-209.5 337,-209.5 337,-179.5 232,-179.5"/>
<text text-anchor="start" x="240" y="-197.5" font-family="Helvetica,sans-Serif" font-size="10.00">datatypes/datatypes</text>
<text text-anchor="middle" x="284.5" y="-186.5" font-family="Helvetica,sans-Serif" font-size="10.00">_table.scad</text>
</a>
</g>
</g>
<!-- Node1&#45;&gt;Node5 -->
<g id="edge5" class="edge"><title>Node1&#45;&gt;Node5</title>
<path fill="none" stroke="midnightblue" d="M255.24,-237.963C261.446,-228.956 268.972,-218.034 274.837,-209.523"/>
<polygon fill="midnightblue" stroke="midnightblue" points="252.166,-236.255 249.374,-246.475 257.93,-240.227 252.166,-236.255"/>
</g>
<!-- Node6 -->
<g id="node6" class="node"><title>Node6</title>
<g id="a_node6"><a xlink:href="tools__utility_8scad.html" target="_top" xlink:title="Shape transformation utility tools. ">
<polygon fill="white" stroke="black" points="404.5,-185 404.5,-204 518.5,-204 518.5,-185 404.5,-185"/>
<text text-anchor="middle" x="461.5" y="-192" font-family="Helvetica,sans-Serif" font-size="10.00">tools/tools_utility.scad</text>
</a>
</g>
</g>
<!-- Node1&#45;&gt;Node6 -->
<g id="edge7" class="edge"><title>Node1&#45;&gt;Node6</title>
<path fill="none" stroke="midnightblue" d="M284.453,-243.822C326.8,-232.264 391.985,-214.473 430.324,-204.009"/>
<polygon fill="midnightblue" stroke="midnightblue" points="283.46,-240.465 274.734,-246.475 285.303,-247.218 283.46,-240.465"/>
</g>
<!-- Node3 -->
<g id="node3" class="node"><title>Node3</title>
<g id="a_node3"><a xlink:href="omdl-base_8scad.html" target="_top" xlink:title="Include file wrapper of omdl base primitives. ">
<polygon fill="white" stroke="black" points="285.5,-0.5 285.5,-19.5 371.5,-19.5 371.5,-0.5 285.5,-0.5"/>
<text text-anchor="middle" x="328.5" y="-7.5" font-family="Helvetica,sans-Serif" font-size="10.00">omdl&#45;base.scad</text>
</a>
</g>
</g>
<!-- Node2&#45;&gt;Node3 -->
<g id="edge2" class="edge"><title>Node2&#45;&gt;Node3</title>
<path fill="none" stroke="midnightblue" d="M95.5091,-113.712C149.313,-89.9929 263.243,-39.768 308.936,-19.6245"/>
<polygon fill="midnightblue" stroke="midnightblue" points="93.931,-110.582 86.1926,-117.819 96.7548,-116.987 93.931,-110.582"/>
</g>
<!-- Node4&#45;&gt;Node3 -->
<g id="edge4" class="edge"><title>Node4&#45;&gt;Node3</title>
<path fill="none" stroke="midnightblue" d="M222.441,-104.923C235.445,-90.5309 253.384,-71.4831 270.5,-56 285.433,-42.4914 304.027,-28.516 316.074,-19.7958"/>
<polygon fill="midnightblue" stroke="midnightblue" points="219.822,-102.601 215.761,-112.387 225.038,-107.269 219.822,-102.601"/>
</g>
<!-- Node5&#45;&gt;Node3 -->
<g id="edge6" class="edge"><title>Node5&#45;&gt;Node3</title>
<path fill="none" stroke="midnightblue" d="M285.154,-169.408C286.517,-141.468 290.7,-94.3411 303.5,-56 308.028,-42.4364 316.662,-28.2492 322.5,-19.5161"/>
<polygon fill="midnightblue" stroke="midnightblue" points="281.654,-169.321 284.746,-179.455 288.649,-169.605 281.654,-169.321"/>
</g>
<!-- Node7 -->
<g id="node7" class="node"><title>Node7</title>
<g id="a_node7"><a xlink:href="shapes2d_8scad.html" target="_top" xlink:title="Two&#45;dimensional basic shapes. ">
<polygon fill="white" stroke="black" points="428,-118 428,-137 545,-137 545,-118 428,-118"/>
<text text-anchor="middle" x="486.5" y="-125" font-family="Helvetica,sans-Serif" font-size="10.00">shapes/shapes2d.scad</text>
</a>
</g>
</g>
<!-- Node6&#45;&gt;Node7 -->
<g id="edge8" class="edge"><title>Node6&#45;&gt;Node7</title>
<path fill="none" stroke="midnightblue" d="M468.504,-175.29C473.305,-162.808 479.456,-146.814 483.182,-137.127"/>
<polygon fill="midnightblue" stroke="midnightblue" points="465.195,-174.144 464.872,-184.734 471.728,-176.657 465.195,-174.144"/>
</g>
<!-- Node8 -->
<g id="node8" class="node"><title>Node8</title>
<g id="a_node8"><a xlink:href="shapes2de_8scad.html" target="_top" xlink:title="Linearly extruded two&#45;dimensional basic shapes. ">
<polygon fill="white" stroke="black" points="312.5,-56.5 312.5,-75.5 434.5,-75.5 434.5,-56.5 312.5,-56.5"/>
<text text-anchor="middle" x="373.5" y="-63.5" font-family="Helvetica,sans-Serif" font-size="10.00">shapes/shapes2de.scad</text>
</a>
</g>
</g>
<!-- Node7&#45;&gt;Node8 -->
<g id="edge9" class="edge"><title>Node7&#45;&gt;Node8</title>
<path fill="none" stroke="midnightblue" d="M461.264,-113.212C439.378,-101.688 408.359,-85.355 389.66,-75.5091"/>
<polygon fill="midnightblue" stroke="midnightblue" points="459.831,-116.413 470.31,-117.975 463.092,-110.219 459.831,-116.413"/>
</g>
<!-- Node9 -->
<g id="node9" class="node"><title>Node9</title>
<g id="a_node9"><a xlink:href="shapes3d_8scad.html" target="_top" xlink:title="Three&#45;dimensional basic shapes. ">
<polygon fill="white" stroke="black" points="453,-56.5 453,-75.5 570,-75.5 570,-56.5 453,-56.5"/>
<text text-anchor="middle" x="511.5" y="-63.5" font-family="Helvetica,sans-Serif" font-size="10.00">shapes/shapes3d.scad</text>
</a>
</g>
</g>
<!-- Node7&#45;&gt;Node9 -->
<g id="edge11" class="edge"><title>Node7&#45;&gt;Node9</title>
<path fill="none" stroke="midnightblue" d="M494.064,-108.497C498.664,-97.5497 504.326,-84.0746 507.925,-75.5091"/>
<polygon fill="midnightblue" stroke="midnightblue" points="490.729,-107.4 490.082,-117.975 497.182,-110.112 490.729,-107.4"/>
</g>
<!-- Node10 -->
<g id="node10" class="node"><title>Node10</title>
<g id="a_node10"><a xlink:href="tools__edge_8scad.html" target="_top" xlink:title="Shape edge finishing tools. ">
<polygon fill="white" stroke="black" points="588.5,-56.5 588.5,-75.5 700.5,-75.5 700.5,-56.5 588.5,-56.5"/>
<text text-anchor="middle" x="644.5" y="-63.5" font-family="Helvetica,sans-Serif" font-size="10.00">tools/tools_edge.scad</text>
</a>
</g>
</g>
<!-- Node7&#45;&gt;Node10 -->
<g id="edge13" class="edge"><title>Node7&#45;&gt;Node10</title>
<path fill="none" stroke="midnightblue" d="M518.544,-114.433C549.253,-102.868 594.821,-85.7083 621.904,-75.5091"/>
<polygon fill="midnightblue" stroke="midnightblue" points="517.262,-111.175 509.138,-117.975 519.729,-117.726 517.262,-111.175"/>
</g>
<!-- Node8&#45;&gt;Node3 -->
<g id="edge10" class="edge"><title>Node8&#45;&gt;Node3</title>
<path fill="none" stroke="midnightblue" d="M359.453,-48.144C351.613,-38.7357 342.171,-27.4046 335.793,-19.7511"/>
<polygon fill="midnightblue" stroke="midnightblue" points="356.979,-50.6414 366.069,-56.083 362.356,-46.1601 356.979,-50.6414"/>
</g>
<!-- Node9&#45;&gt;Node3 -->
<g id="edge12" class="edge"><title>Node9&#45;&gt;Node3</title>
<path fill="none" stroke="midnightblue" d="M472.757,-53.5677C438.235,-43.381 388.495,-28.7034 357.361,-19.5164"/>
<polygon fill="midnightblue" stroke="midnightblue" points="471.921,-56.9702 482.503,-56.4435 473.903,-50.2564 471.921,-56.9702"/>
</g>
<!-- Node10&#45;&gt;Node3 -->
<g id="edge14" class="edge"><title>Node10&#45;&gt;Node3</title>
<path fill="none" stroke="midnightblue" d="M584.375,-54.7255C522.244,-44.1082 426.8,-27.7981 371.736,-18.3884"/>
<polygon fill="midnightblue" stroke="midnightblue" points="583.982,-58.209 594.429,-56.4435 585.161,-51.309 583.982,-58.209"/>
</g>
</g>
</svg>
