<?xml version="1.0" encoding="UTF-8" standalone="no"?>
<!DOCTYPE svg PUBLIC "-//W3C//DTD SVG 1.1//EN"
 "http://www.w3.org/Graphics/SVG/1.1/DTD/svg11.dtd">
<!-- Generated by graphviz version 2.38.0 (20140413.2041)
 -->
<!-- Title: constants.scad Pages: 1 -->
<svg width="980pt" height="397pt"
 viewBox="0.00 0.00 980.00 397.00" xmlns="http://www.w3.org/2000/svg" xmlns:xlink="http://www.w3.org/1999/xlink">
<g id="graph0" class="graph" transform="scale(1 1) rotate(0) translate(4 393)">
<title>constants.scad</title>
<polygon fill="white" stroke="none" points="-4,4 -4,-393 976,-393 976,4 -4,4"/>
<!-- Node1 -->
<g id="node1" class="node"><title>Node1</title>
<polygon fill="#bfbfbf" stroke="black" points="182.5,-369.5 182.5,-388.5 265.5,-388.5 265.5,-369.5 182.5,-369.5"/>
<text text-anchor="middle" x="224" y="-376.5" font-family="Helvetica,sans-Serif" font-size="10.00">constants.scad</text>
</g>
<!-- Node2 -->
<g id="node2" class="node"><title>Node2</title>
<g id="a_node2"><a xlink:href="units__angle_8scad.html" target="_top" xlink:title="Angle units and conversions. ">
<polygon fill="white" stroke="black" points="0,-129 0,-148 114,-148 114,-129 0,-129"/>
<text text-anchor="middle" x="57" y="-136" font-family="Helvetica,sans-Serif" font-size="10.00">units/units_angle.scad</text>
</a>
</g>
</g>
<!-- Node1&#45;&gt;Node2 -->
<g id="edge1" class="edge"><title>Node1&#45;&gt;Node2</title>
<path fill="none" stroke="midnightblue" d="M171.882,-377.107C137.692,-373.531 95.0157,-362.79 71,-333 25.3397,-276.361 46.7644,-177.545 54.5743,-148.048"/>
<polygon fill="midnightblue" stroke="midnightblue" points="171.926,-380.624 182.19,-378 172.53,-373.65 171.926,-380.624"/>
</g>
<!-- Node4 -->
<g id="node4" class="node"><title>Node4</title>
<g id="a_node4"><a xlink:href="units__coordinate_8scad.html" target="_top" xlink:title="Coordinate systems and conversions. ">
<polygon fill="white" stroke="black" points="80,-308 80,-327 216,-327 216,-308 80,-308"/>
<text text-anchor="middle" x="148" y="-315" font-family="Helvetica,sans-Serif" font-size="10.00">units/units_coordinate.scad</text>
</a>
</g>
</g>
<!-- Node1&#45;&gt;Node4 -->
<g id="edge3" class="edge"><title>Node1&#45;&gt;Node4</title>
<path fill="none" stroke="midnightblue" d="M205.216,-363.294C190.637,-351.88 170.938,-336.458 158.869,-327.009"/>
<polygon fill="midnightblue" stroke="midnightblue" points="203.079,-366.066 213.111,-369.475 207.395,-360.555 203.079,-366.066"/>
</g>
<!-- Node5 -->
<g id="node5" class="node"><title>Node5</title>
<g id="a_node5"><a xlink:href="units__resolution_8scad.html" target="_top" xlink:title="An abstraction for arc rendering resolution control. ">
<polygon fill="white" stroke="black" points="234.5,-308 234.5,-327 367.5,-327 367.5,-308 234.5,-308"/>
<text text-anchor="middle" x="301" y="-315" font-family="Helvetica,sans-Serif" font-size="10.00">units/units_resolution.scad</text>
</a>
</g>
</g>
<!-- Node1&#45;&gt;Node5 -->
<g id="edge5" class="edge"><title>Node1&#45;&gt;Node5</title>
<path fill="none" stroke="midnightblue" d="M243.032,-363.294C257.802,-351.88 277.761,-336.458 289.988,-327.009"/>
<polygon fill="midnightblue" stroke="midnightblue" points="240.805,-360.591 235.032,-369.475 245.085,-366.13 240.805,-360.591"/>
</g>
<!-- Node6 -->
<g id="node6" class="node"><title>Node6</title>
<g id="a_node6"><a xlink:href="datatypes-base_8scad.html" target="_top" xlink:title="Include file wrapper of data types base primitives. ">
<polygon fill="white" stroke="black" points="387.5,-302.5 387.5,-332.5 492.5,-332.5 492.5,-302.5 387.5,-302.5"/>
<text text-anchor="start" x="395.5" y="-320.5" font-family="Helvetica,sans-Serif" font-size="10.00">datatypes/datatypes</text>
<text text-anchor="middle" x="440" y="-309.5" font-family="Helvetica,sans-Serif" font-size="10.00">&#45;base.scad</text>
</a>
</g>
</g>
<!-- Node1&#45;&gt;Node6 -->
<g id="edge7" class="edge"><title>Node1&#45;&gt;Node6</title>
<path fill="none" stroke="midnightblue" d="M264.897,-366.734C300.15,-357.023 351.201,-342.961 389.093,-332.523"/>
<polygon fill="midnightblue" stroke="midnightblue" points="263.659,-363.445 254.948,-369.475 265.518,-370.194 263.659,-363.445"/>
</g>
<!-- Node3 -->
<g id="node3" class="node"><title>Node3</title>
<g id="a_node3"><a xlink:href="omdl-base_8scad.html" target="_top" xlink:title="Include file wrapper of omdl base primitives. ">
<polygon fill="white" stroke="black" points="342,-0.5 342,-19.5 428,-19.5 428,-0.5 342,-0.5"/>
<text text-anchor="middle" x="385" y="-7.5" font-family="Helvetica,sans-Serif" font-size="10.00">omdl&#45;base.scad</text>
</a>
</g>
</g>
<!-- Node2&#45;&gt;Node3 -->
<g id="edge2" class="edge"><title>Node2&#45;&gt;Node3</title>
<path fill="none" stroke="midnightblue" d="M67.5236,-120.329C80.1322,-101.343 103.09,-71.4096 131,-56 198.041,-18.9854 288.85,-11.3418 341.761,-10.3466"/>
<polygon fill="midnightblue" stroke="midnightblue" points="64.4864,-118.581 62.0452,-128.891 70.3828,-122.354 64.4864,-118.581"/>
</g>
<!-- Node4&#45;&gt;Node3 -->
<g id="edge4" class="edge"><title>Node4&#45;&gt;Node3</title>
<path fill="none" stroke="midnightblue" d="M147.216,-297.795C146.327,-274.955 145,-235.148 145,-201 145,-201 145,-201 145,-137.5 145,-49.5403 272.718,-22.5943 341.816,-14.4526"/>
<polygon fill="midnightblue" stroke="midnightblue" points="143.719,-297.958 147.62,-307.809 150.713,-297.675 143.719,-297.958"/>
</g>
<!-- Node5&#45;&gt;Node3 -->
<g id="edge6" class="edge"><title>Node5&#45;&gt;Node3</title>
<path fill="none" stroke="midnightblue" d="M271.407,-303.373C236.454,-285.619 183,-250.393 183,-201 183,-201 183,-201 183,-137.5 183,-63.2254 282.312,-30.9166 341.666,-18.2397"/>
<polygon fill="midnightblue" stroke="midnightblue" points="270.193,-306.676 280.715,-307.915 273.263,-300.384 270.193,-306.676"/>
</g>
<!-- Node7 -->
<g id="node7" class="node"><title>Node7</title>
<g id="a_node7"><a xlink:href="datatypes__map_8scad.html" target="_top" xlink:title="Map data type operations. ">
<polygon fill="white" stroke="black" points="211.5,-123.5 211.5,-153.5 316.5,-153.5 316.5,-123.5 211.5,-123.5"/>
<text text-anchor="start" x="219.5" y="-141.5" font-family="Helvetica,sans-Serif" font-size="10.00">datatypes/datatypes</text>
<text text-anchor="middle" x="264" y="-130.5" font-family="Helvetica,sans-Serif" font-size="10.00">_map.scad</text>
</a>
</g>
</g>
<!-- Node6&#45;&gt;Node7 -->
<g id="edge8" class="edge"><title>Node6&#45;&gt;Node7</title>
<path fill="none" stroke="midnightblue" d="M379.51,-298.816C360.674,-291.069 340.947,-280.379 326,-266 292.335,-233.613 274.392,-179.137 267.45,-153.561"/>
<polygon fill="midnightblue" stroke="midnightblue" points="378.364,-302.126 388.953,-302.495 380.905,-295.604 378.364,-302.126"/>
</g>
<!-- Node8 -->
<g id="node8" class="node"><title>Node8</title>
<g id="a_node8"><a xlink:href="datatypes__table_8scad.html" target="_top" xlink:title="Table data type operations. ">
<polygon fill="white" stroke="black" points="292.5,-56.5 292.5,-86.5 397.5,-86.5 397.5,-56.5 292.5,-56.5"/>
<text text-anchor="start" x="300.5" y="-74.5" font-family="Helvetica,sans-Serif" font-size="10.00">datatypes/datatypes</text>
<text text-anchor="middle" x="345" y="-63.5" font-family="Helvetica,sans-Serif" font-size="10.00">_table.scad</text>
</a>
</g>
</g>
<!-- Node6&#45;&gt;Node8 -->
<g id="edge10" class="edge"><title>Node6&#45;&gt;Node8</title>
<path fill="none" stroke="midnightblue" d="M416.489,-295.385C407.61,-286.763 397.781,-276.386 390,-266 372.943,-243.233 367.503,-237.148 359,-210 345.374,-166.494 344.262,-111.826 344.595,-86.5301"/>
<polygon fill="midnightblue" stroke="midnightblue" points="414.303,-298.135 423.973,-302.466 419.114,-293.05 414.303,-298.135"/>
</g>
<!-- Node9 -->
<g id="node9" class="node"><title>Node9</title>
<g id="a_node9"><a xlink:href="validation_8scad.html" target="_top" xlink:title="Function validation methods. ">
<polygon fill="white" stroke="black" points="399,-246.5 399,-265.5 481,-265.5 481,-246.5 399,-246.5"/>
<text text-anchor="middle" x="440" y="-253.5" font-family="Helvetica,sans-Serif" font-size="10.00">validation.scad</text>
</a>
</g>
</g>
<!-- Node6&#45;&gt;Node9 -->
<g id="edge12" class="edge"><title>Node6&#45;&gt;Node9</title>
<path fill="none" stroke="midnightblue" d="M440,-292.289C440,-282.857 440,-272.655 440,-265.658"/>
<polygon fill="midnightblue" stroke="midnightblue" points="436.5,-292.399 440,-302.399 443.5,-292.399 436.5,-292.399"/>
</g>
<!-- Node10 -->
<g id="node10" class="node"><title>Node10</title>
<g id="a_node10"><a xlink:href="math-base_8scad.html" target="_top" xlink:title="Include file wrapper of math base primitives. ">
<polygon fill="white" stroke="black" points="510.5,-246.5 510.5,-265.5 621.5,-265.5 621.5,-246.5 510.5,-246.5"/>
<text text-anchor="middle" x="566" y="-253.5" font-family="Helvetica,sans-Serif" font-size="10.00">math/math&#45;base.scad</text>
</a>
</g>
</g>
<!-- Node6&#45;&gt;Node10 -->
<g id="edge13" class="edge"><title>Node6&#45;&gt;Node10</title>
<path fill="none" stroke="midnightblue" d="M478.998,-298.084C501.885,-287.276 529.742,-274.122 547.666,-265.658"/>
<polygon fill="midnightblue" stroke="midnightblue" points="477.408,-294.964 469.86,-302.399 480.397,-301.294 477.408,-294.964"/>
</g>
<!-- Node20 -->
<g id="node20" class="node"><title>Node20</title>
<g id="a_node20"><a xlink:href="math__bitwise_8scad.html" target="_top" xlink:title="Mathematical base&#45;two bitwise binary functions. ">
<polygon fill="white" stroke="black" points="786.5,-246.5 786.5,-265.5 909.5,-265.5 909.5,-246.5 786.5,-246.5"/>
<text text-anchor="middle" x="848" y="-253.5" font-family="Helvetica,sans-Serif" font-size="10.00">math/math_bitwise.scad</text>
</a>
</g>
</g>
<!-- Node6&#45;&gt;Node20 -->
<g id="edge29" class="edge"><title>Node6&#45;&gt;Node20</title>
<path fill="none" stroke="midnightblue" d="M502.687,-307.358C580.81,-295.965 713.286,-276.646 789.436,-265.541"/>
<polygon fill="midnightblue" stroke="midnightblue" points="501.894,-303.937 492.504,-308.843 502.904,-310.863 501.894,-303.937"/>
</g>
<!-- Node22 -->
<g id="node22" class="node"><title>Node22</title>
<g id="a_node22"><a xlink:href="math__oshapes_8scad.html" target="_top" xlink:title="Other shapes mathematical functions. ">
<polygon fill="white" stroke="black" points="639.5,-246.5 639.5,-265.5 768.5,-265.5 768.5,-246.5 639.5,-246.5"/>
<text text-anchor="middle" x="704" y="-253.5" font-family="Helvetica,sans-Serif" font-size="10.00">math/math_oshapes.scad</text>
</a>
</g>
</g>
<!-- Node6&#45;&gt;Node22 -->
<g id="edge33" class="edge"><title>Node6&#45;&gt;Node22</title>
<path fill="none" stroke="midnightblue" d="M502.694,-302.37C553.561,-290.906 623.594,-275.122 666.229,-265.513"/>
<polygon fill="midnightblue" stroke="midnightblue" points="501.776,-298.989 492.79,-304.602 503.315,-305.818 501.776,-298.989"/>
</g>
<!-- Node7&#45;&gt;Node3 -->
<g id="edge9" class="edge"><title>Node7&#45;&gt;Node3</title>
<path fill="none" stroke="midnightblue" d="M264.08,-113.328C265.35,-95.6381 269.716,-72.0244 283,-56 298.564,-37.225 323.517,-26.0305 344.846,-19.5026"/>
<polygon fill="midnightblue" stroke="midnightblue" points="260.578,-113.313 263.638,-123.456 267.571,-113.618 260.578,-113.313"/>
</g>
<!-- Node8&#45;&gt;Node3 -->
<g id="edge11" class="edge"><title>Node8&#45;&gt;Node3</title>
<path fill="none" stroke="midnightblue" d="M360.258,-47.8032C366.873,-37.9633 374.223,-27.031 379.18,-19.6578"/>
<polygon fill="midnightblue" stroke="midnightblue" points="357.154,-46.1476 354.479,-56.3993 362.963,-50.053 357.154,-46.1476"/>
</g>
<!-- Node11 -->
<g id="node11" class="node"><title>Node11</title>
<g id="a_node11"><a xlink:href="math__polytope_8scad.html" target="_top" xlink:title="Polygon and polyhedron mathematical functions. ">
<polygon fill="white" stroke="black" points="368.5,-190.5 368.5,-209.5 497.5,-209.5 497.5,-190.5 368.5,-190.5"/>
<text text-anchor="middle" x="433" y="-197.5" font-family="Helvetica,sans-Serif" font-size="10.00">math/math_polytope.scad</text>
</a>
</g>
</g>
<!-- Node10&#45;&gt;Node11 -->
<g id="edge14" class="edge"><title>Node10&#45;&gt;Node11</title>
<path fill="none" stroke="midnightblue" d="M535.552,-242.638C510.593,-232.504 475.923,-218.427 453.976,-209.516"/>
<polygon fill="midnightblue" stroke="midnightblue" points="534.344,-245.924 544.926,-246.444 536.977,-239.439 534.344,-245.924"/>
</g>
<!-- Node13 -->
<g id="node13" class="node"><title>Node13</title>
<g id="a_node13"><a xlink:href="math__triangle_8scad.html" target="_top" xlink:title="Triangle solutions mathematical functions. ">
<polygon fill="white" stroke="black" points="645,-190.5 645,-209.5 769,-209.5 769,-190.5 645,-190.5"/>
<text text-anchor="middle" x="707" y="-197.5" font-family="Helvetica,sans-Serif" font-size="10.00">math/math_triangle.scad</text>
</a>
</g>
</g>
<!-- Node10&#45;&gt;Node13 -->
<g id="edge17" class="edge"><title>Node10&#45;&gt;Node13</title>
<path fill="none" stroke="midnightblue" d="M597.929,-242.772C624.414,-232.629 661.392,-218.467 684.763,-209.516"/>
<polygon fill="midnightblue" stroke="midnightblue" points="596.429,-239.599 588.342,-246.444 598.932,-246.136 596.429,-239.599"/>
</g>
<!-- Node18 -->
<g id="node18" class="node"><title>Node18</title>
<g id="a_node18"><a xlink:href="tools__align_8scad.html" target="_top" xlink:title="Shape alignment tools. ">
<polygon fill="white" stroke="black" points="515.5,-190.5 515.5,-209.5 626.5,-209.5 626.5,-190.5 515.5,-190.5"/>
<text text-anchor="middle" x="571" y="-197.5" font-family="Helvetica,sans-Serif" font-size="10.00">tools/tools_align.scad</text>
</a>
</g>
</g>
<!-- Node10&#45;&gt;Node18 -->
<g id="edge25" class="edge"><title>Node10&#45;&gt;Node18</title>
<path fill="none" stroke="midnightblue" d="M567.75,-236.101C568.58,-227.136 569.532,-216.858 570.19,-209.751"/>
<polygon fill="midnightblue" stroke="midnightblue" points="564.263,-235.803 566.826,-246.083 571.233,-236.448 564.263,-235.803"/>
</g>
<!-- Node19 -->
<g id="node19" class="node"><title>Node19</title>
<g id="a_node19"><a xlink:href="tools__utility_8scad.html" target="_top" xlink:title="Shape transformation utility tools. ">
<polygon fill="white" stroke="black" points="787,-190.5 787,-209.5 901,-209.5 901,-190.5 787,-190.5"/>
<text text-anchor="middle" x="844" y="-197.5" font-family="Helvetica,sans-Serif" font-size="10.00">tools/tools_utility.scad</text>
</a>
</g>
</g>
<!-- Node10&#45;&gt;Node19 -->
<g id="edge27" class="edge"><title>Node10&#45;&gt;Node19</title>
<path fill="none" stroke="midnightblue" d="M620.192,-244.473C672.732,-234.268 751.439,-218.979 800.156,-209.516"/>
<polygon fill="midnightblue" stroke="midnightblue" points="619.199,-241.101 610.05,-246.444 620.534,-247.972 619.199,-241.101"/>
</g>
<!-- Node12 -->
<g id="node12" class="node"><title>Node12</title>
<g id="a_node12"><a xlink:href="tools__polytope_8scad.html" target="_top" xlink:title="Polygon and polyhedron tools. ">
<polygon fill="white" stroke="black" points="373,-129 373,-148 501,-148 501,-129 373,-129"/>
<text text-anchor="middle" x="437" y="-136" font-family="Helvetica,sans-Serif" font-size="10.00">tools/tools_polytope.scad</text>
</a>
</g>
</g>
<!-- Node11&#45;&gt;Node12 -->
<g id="edge15" class="edge"><title>Node11&#45;&gt;Node12</title>
<path fill="none" stroke="midnightblue" d="M434.256,-180.317C434.983,-169.496 435.864,-156.398 436.428,-148.009"/>
<polygon fill="midnightblue" stroke="midnightblue" points="430.752,-180.263 433.573,-190.475 437.736,-180.732 430.752,-180.263"/>
</g>
<!-- Node12&#45;&gt;Node3 -->
<g id="edge16" class="edge"><title>Node12&#45;&gt;Node3</title>
<path fill="none" stroke="midnightblue" d="M430.508,-119.292C424.48,-102.675 415.092,-77.5027 406,-56 400.561,-43.1362 393.596,-28.5328 389.215,-19.5429"/>
<polygon fill="midnightblue" stroke="midnightblue" points="427.268,-120.627 433.946,-128.852 433.855,-118.258 427.268,-120.627"/>
</g>
<!-- Node14 -->
<g id="node14" class="node"><title>Node14</title>
<g id="a_node14"><a xlink:href="shapes2d_8scad.html" target="_top" xlink:title="Two&#45;dimensional basic shapes. ">
<polygon fill="white" stroke="black" points="648.5,-129 648.5,-148 765.5,-148 765.5,-129 648.5,-129"/>
<text text-anchor="middle" x="707" y="-136" font-family="Helvetica,sans-Serif" font-size="10.00">shapes/shapes2d.scad</text>
</a>
</g>
</g>
<!-- Node13&#45;&gt;Node14 -->
<g id="edge18" class="edge"><title>Node13&#45;&gt;Node14</title>
<path fill="none" stroke="midnightblue" d="M707,-180.317C707,-169.496 707,-156.398 707,-148.009"/>
<polygon fill="midnightblue" stroke="midnightblue" points="703.5,-180.475 707,-190.475 710.5,-180.475 703.5,-180.475"/>
</g>
<!-- Node15 -->
<g id="node15" class="node"><title>Node15</title>
<g id="a_node15"><a xlink:href="shapes2de_8scad.html" target="_top" xlink:title="Linearly extruded two&#45;dimensional basic shapes. ">
<polygon fill="white" stroke="black" points="454,-62 454,-81 576,-81 576,-62 454,-62"/>
<text text-anchor="middle" x="515" y="-69" font-family="Helvetica,sans-Serif" font-size="10.00">shapes/shapes2de.scad</text>
</a>
</g>
</g>
<!-- Node14&#45;&gt;Node15 -->
<g id="edge19" class="edge"><title>Node14&#45;&gt;Node15</title>
<path fill="none" stroke="midnightblue" d="M671.853,-125.601C633.785,-112.714 573.997,-92.4728 540.296,-81.0637"/>
<polygon fill="midnightblue" stroke="midnightblue" points="670.91,-128.977 681.504,-128.869 673.154,-122.347 670.91,-128.977"/>
</g>
<!-- Node16 -->
<g id="node16" class="node"><title>Node16</title>
<g id="a_node16"><a xlink:href="shapes3d_8scad.html" target="_top" xlink:title="Three&#45;dimensional basic shapes. ">
<polygon fill="white" stroke="black" points="594.5,-62 594.5,-81 711.5,-81 711.5,-62 594.5,-62"/>
<text text-anchor="middle" x="653" y="-69" font-family="Helvetica,sans-Serif" font-size="10.00">shapes/shapes3d.scad</text>
</a>
</g>
</g>
<!-- Node14&#45;&gt;Node16 -->
<g id="edge21" class="edge"><title>Node14&#45;&gt;Node16</title>
<path fill="none" stroke="midnightblue" d="M693.102,-120.77C682.573,-108.097 668.536,-91.201 660.167,-81.1273"/>
<polygon fill="midnightblue" stroke="midnightblue" points="690.635,-123.278 699.717,-128.734 696.019,-118.805 690.635,-123.278"/>
</g>
<!-- Node17 -->
<g id="node17" class="node"><title>Node17</title>
<g id="a_node17"><a xlink:href="tools__edge_8scad.html" target="_top" xlink:title="Shape edge finishing tools. ">
<polygon fill="white" stroke="black" points="730,-62 730,-81 842,-81 842,-62 730,-62"/>
<text text-anchor="middle" x="786" y="-69" font-family="Helvetica,sans-Serif" font-size="10.00">tools/tools_edge.scad</text>
</a>
</g>
</g>
<!-- Node14&#45;&gt;Node17 -->
<g id="edge23" class="edge"><title>Node14&#45;&gt;Node17</title>
<path fill="none" stroke="midnightblue" d="M725.579,-122.213C741.144,-109.407 762.8,-91.5884 775.515,-81.1273"/>
<polygon fill="midnightblue" stroke="midnightblue" points="723.153,-119.677 717.654,-128.734 727.6,-125.083 723.153,-119.677"/>
</g>
<!-- Node15&#45;&gt;Node3 -->
<g id="edge20" class="edge"><title>Node15&#45;&gt;Node3</title>
<path fill="none" stroke="midnightblue" d="M486.977,-57.6742C461.752,-46.1287 425.393,-29.4875 403.591,-19.5091"/>
<polygon fill="midnightblue" stroke="midnightblue" points="485.825,-60.9958 496.374,-61.9751 488.738,-54.6308 485.825,-60.9958"/>
</g>
<!-- Node16&#45;&gt;Node3 -->
<g id="edge22" class="edge"><title>Node16&#45;&gt;Node3</title>
<path fill="none" stroke="midnightblue" d="M604.618,-59.7584C552.629,-48.216 471.056,-30.1056 423.327,-19.5091"/>
<polygon fill="midnightblue" stroke="midnightblue" points="604.081,-63.2245 614.602,-61.9751 605.598,-56.3908 604.081,-63.2245"/>
</g>
<!-- Node17&#45;&gt;Node3 -->
<g id="edge24" class="edge"><title>Node17&#45;&gt;Node3</title>
<path fill="none" stroke="midnightblue" d="M739.626,-59.806C733.054,-58.4383 726.368,-57.1253 720,-56 615.695,-37.5692 491.936,-22.7576 428.01,-15.6242"/>
<polygon fill="midnightblue" stroke="midnightblue" points="739.286,-63.3123 749.796,-61.9811 740.75,-56.4671 739.286,-63.3123"/>
</g>
<!-- Node18&#45;&gt;Node12 -->
<g id="edge26" class="edge"><title>Node18&#45;&gt;Node12</title>
<path fill="none" stroke="midnightblue" d="M542.46,-186.327C516.445,-174.776 478.735,-158.032 456.163,-148.009"/>
<polygon fill="midnightblue" stroke="midnightblue" points="541.241,-189.616 551.801,-190.475 544.082,-183.218 541.241,-189.616"/>
</g>
<!-- Node19&#45;&gt;Node14 -->
<g id="edge28" class="edge"><title>Node19&#45;&gt;Node14</title>
<path fill="none" stroke="midnightblue" d="M815.171,-186.48C788.564,-174.924 749.771,-158.076 726.592,-148.009"/>
<polygon fill="midnightblue" stroke="midnightblue" points="813.805,-189.702 824.371,-190.475 816.593,-183.281 813.805,-189.702"/>
</g>
<!-- Node20&#45;&gt;Node19 -->
<g id="edge32" class="edge"><title>Node20&#45;&gt;Node19</title>
<path fill="none" stroke="midnightblue" d="M846.6,-236.101C845.936,-227.136 845.175,-216.858 844.648,-209.751"/>
<polygon fill="midnightblue" stroke="midnightblue" points="843.11,-236.369 847.339,-246.083 850.091,-235.852 843.11,-236.369"/>
</g>
<!-- Node21 -->
<g id="node21" class="node"><title>Node21</title>
<g id="a_node21"><a xlink:href="math__utility_8scad.html" target="_top" xlink:title="Miscellaneous mathematical utilities. ">
<polygon fill="white" stroke="black" points="856,-129 856,-148 972,-148 972,-129 856,-129"/>
<text text-anchor="middle" x="914" y="-136" font-family="Helvetica,sans-Serif" font-size="10.00">math/math_utility.scad</text>
</a>
</g>
</g>
<!-- Node20&#45;&gt;Node21 -->
<g id="edge30" class="edge"><title>Node20&#45;&gt;Node21</title>
<path fill="none" stroke="midnightblue" d="M876.753,-241.47C889.211,-234.027 902.614,-223.526 910,-210 920.811,-190.202 918.147,-162.443 915.794,-148.395"/>
<polygon fill="midnightblue" stroke="midnightblue" points="874.998,-238.441 867.947,-246.349 878.39,-244.564 874.998,-238.441"/>
</g>
<!-- Node21&#45;&gt;Node3 -->
<g id="edge31" class="edge"><title>Node21&#45;&gt;Node3</title>
<path fill="none" stroke="midnightblue" d="M905.777,-119.733C895.795,-100.409 877.011,-70.3621 851,-56 778.958,-16.221 529.31,-11.2169 428.111,-10.8626"/>
<polygon fill="midnightblue" stroke="midnightblue" points="902.754,-121.519 910.297,-128.96 909.041,-118.44 902.754,-121.519"/>
</g>
<!-- Node22&#45;&gt;Node19 -->
<g id="edge34" class="edge"><title>Node22&#45;&gt;Node19</title>
<path fill="none" stroke="midnightblue" d="M735.702,-242.772C762,-232.629 798.716,-218.467 821.92,-209.516"/>
<polygon fill="midnightblue" stroke="midnightblue" points="734.254,-239.579 726.183,-246.444 736.773,-246.11 734.254,-239.579"/>
</g>
</g>
</svg>
