solid OpenSCAD_Model
  facet normal 0 -1 0
    outer loop
      vertex -38.2683 -54.1196 -38.2683
      vertex 38.2683 -54.1196 38.2683
      vertex -38.2683 -54.1196 38.2683
    endloop
  endfacet
  facet normal 0 -1 -0
    outer loop
      vertex 38.2683 -54.1196 38.2683
      vertex -38.2683 -54.1196 -38.2683
      vertex 38.2683 -54.1196 -38.2683
    endloop
  endfacet
  facet normal 0 -0.707107 -0.707107
    outer loop
      vertex -38.2683 -0 -92.388
      vertex 38.2683 -54.1196 -38.2683
      vertex -38.2683 -54.1196 -38.2683
    endloop
  endfacet
  facet normal 0 -0.707107 -0.707107
    outer loop
      vertex 38.2683 -54.1196 -38.2683
      vertex -38.2683 -0 -92.388
      vertex 38.2683 0 -92.388
    endloop
  endfacet
  facet normal 0.57735 -0.57735 -0.57735
    outer loop
      vertex 38.2683 -54.1196 -38.2683
      vertex 38.2683 0 -92.388
      vertex 92.388 -0 -38.2683
    endloop
  endfacet
  facet normal 0.707107 -0.707107 0
    outer loop
      vertex 38.2683 -54.1196 38.2683
      vertex 92.388 -0 -38.2683
      vertex 92.388 0 38.2683
    endloop
  endfacet
  facet normal 0.707107 -0.707107 0
    outer loop
      vertex 92.388 -0 -38.2683
      vertex 38.2683 -54.1196 38.2683
      vertex 38.2683 -54.1196 -38.2683
    endloop
  endfacet
  facet normal 0.57735 -0.57735 0.57735
    outer loop
      vertex 38.2683 -54.1196 38.2683
      vertex 92.388 0 38.2683
      vertex 38.2683 0 92.388
    endloop
  endfacet
  facet normal 0 -0.707107 0.707107
    outer loop
      vertex -38.2683 -54.1196 38.2683
      vertex 38.2683 0 92.388
      vertex -38.2683 -0 92.388
    endloop
  endfacet
  facet normal 0 -0.707107 0.707107
    outer loop
      vertex 38.2683 0 92.388
      vertex -38.2683 -54.1196 38.2683
      vertex 38.2683 -54.1196 38.2683
    endloop
  endfacet
  facet normal -0.57735 -0.57735 0.57735
    outer loop
      vertex -38.2683 -54.1196 38.2683
      vertex -38.2683 -0 92.388
      vertex -92.388 -0 38.2683
    endloop
  endfacet
  facet normal -0.707107 -0.707107 0
    outer loop
      vertex -38.2683 -54.1196 -38.2683
      vertex -92.388 -0 38.2683
      vertex -92.388 -0 -38.2683
    endloop
  endfacet
  facet normal -0.707107 -0.707107 0
    outer loop
      vertex -92.388 -0 38.2683
      vertex -38.2683 -54.1196 -38.2683
      vertex -38.2683 -54.1196 38.2683
    endloop
  endfacet
  facet normal -0.57735 -0.57735 -0.57735
    outer loop
      vertex -38.2683 -54.1196 -38.2683
      vertex -92.388 -0 -38.2683
      vertex -38.2683 -0 -92.388
    endloop
  endfacet
  facet normal 0 1 -0
    outer loop
      vertex 38.2683 54.1196 -38.2683
      vertex -38.2683 54.1196 38.2683
      vertex 38.2683 54.1196 38.2683
    endloop
  endfacet
  facet normal 0 1 0
    outer loop
      vertex -38.2683 54.1196 38.2683
      vertex 38.2683 54.1196 -38.2683
      vertex -38.2683 54.1196 -38.2683
    endloop
  endfacet
  facet normal 0 0.707107 -0.707107
    outer loop
      vertex 38.2683 0 -92.388
      vertex -38.2683 54.1196 -38.2683
      vertex 38.2683 54.1196 -38.2683
    endloop
  endfacet
  facet normal 0 0.707107 -0.707107
    outer loop
      vertex -38.2683 54.1196 -38.2683
      vertex 38.2683 0 -92.388
      vertex -38.2683 -0 -92.388
    endloop
  endfacet
  facet normal -0.57735 0.57735 -0.57735
    outer loop
      vertex -38.2683 54.1196 -38.2683
      vertex -38.2683 -0 -92.388
      vertex -92.388 -0 -38.2683
    endloop
  endfacet
  facet normal -0.707107 0.707107 0
    outer loop
      vertex -92.388 -0 -38.2683
      vertex -38.2683 54.1196 38.2683
      vertex -38.2683 54.1196 -38.2683
    endloop
  endfacet
  facet normal -0.707107 0.707107 0
    outer loop
      vertex -38.2683 54.1196 38.2683
      vertex -92.388 -0 -38.2683
      vertex -92.388 -0 38.2683
    endloop
  endfacet
  facet normal -0.57735 0.57735 0.57735
    outer loop
      vertex -38.2683 54.1196 38.2683
      vertex -92.388 -0 38.2683
      vertex -38.2683 -0 92.388
    endloop
  endfacet
  facet normal 0 0.707107 0.707107
    outer loop
      vertex 38.2683 54.1196 38.2683
      vertex -38.2683 -0 92.388
      vertex 38.2683 0 92.388
    endloop
  endfacet
  facet normal 0 0.707107 0.707107
    outer loop
      vertex -38.2683 -0 92.388
      vertex 38.2683 54.1196 38.2683
      vertex -38.2683 54.1196 38.2683
    endloop
  endfacet
  facet normal 0.57735 0.57735 0.57735
    outer loop
      vertex 38.2683 54.1196 38.2683
      vertex 38.2683 0 92.388
      vertex 92.388 0 38.2683
    endloop
  endfacet
  facet normal 0.707107 0.707107 0
    outer loop
      vertex 92.388 0 38.2683
      vertex 38.2683 54.1196 -38.2683
      vertex 38.2683 54.1196 38.2683
    endloop
  endfacet
  facet normal 0.707107 0.707107 0
    outer loop
      vertex 38.2683 54.1196 -38.2683
      vertex 92.388 0 38.2683
      vertex 92.388 -0 -38.2683
    endloop
  endfacet
  facet normal 0.57735 0.57735 -0.57735
    outer loop
      vertex 38.2683 54.1196 -38.2683
      vertex 92.388 -0 -38.2683
      vertex 38.2683 0 -92.388
    endloop
  endfacet
endsolid OpenSCAD_Model
