solid OpenSCAD_Model
  facet normal -0.707107 -0.57735 -0.408248
    outer loop
      vertex -0 -81.6497 -57.735
      vertex -100 -0 0
      vertex -50 -0 -86.6025
    endloop
  endfacet
  facet normal -0.707107 -0.57735 -0.408248
    outer loop
      vertex -100 -0 0
      vertex -0 -81.6497 -57.735
      vertex -50 -81.6497 28.8675
    endloop
  endfacet
  facet normal 0.707107 -0.57735 -0.408248
    outer loop
      vertex -0 -81.6497 -57.735
      vertex 100 0 0
      vertex 50 -81.6497 28.8675
    endloop
  endfacet
  facet normal 0.707107 -0.57735 -0.408248
    outer loop
      vertex 100 0 0
      vertex -0 -81.6497 -57.735
      vertex 50 0 -86.6025
    endloop
  endfacet
  facet normal 0 -0.57735 0.816497
    outer loop
      vertex -50 -0 86.6025
      vertex 50 -81.6497 28.8675
      vertex 50 -0 86.6025
    endloop
  endfacet
  facet normal 0 -0.57735 0.816497
    outer loop
      vertex 50 -81.6497 28.8675
      vertex -50 -0 86.6025
      vertex -50 -81.6497 28.8675
    endloop
  endfacet
  facet normal -0.707107 0.57735 0.408248
    outer loop
      vertex -100 -0 0
      vertex 0 81.6497 57.735
      vertex -50 81.6497 -28.8675
    endloop
  endfacet
  facet normal -0.707107 0.57735 0.408248
    outer loop
      vertex 0 81.6497 57.735
      vertex -100 -0 0
      vertex -50 -0 86.6025
    endloop
  endfacet
  facet normal 0 0.57735 -0.816497
    outer loop
      vertex -50 -0 -86.6025
      vertex 50 81.6497 -28.8675
      vertex 50 0 -86.6025
    endloop
  endfacet
  facet normal 0 0.57735 -0.816497
    outer loop
      vertex 50 81.6497 -28.8675
      vertex -50 -0 -86.6025
      vertex -50 81.6497 -28.8675
    endloop
  endfacet
  facet normal 0.707107 0.57735 0.408248
    outer loop
      vertex 100 0 0
      vertex 0 81.6497 57.735
      vertex 50 -0 86.6025
    endloop
  endfacet
  facet normal 0.707107 0.57735 0.408248
    outer loop
      vertex 0 81.6497 57.735
      vertex 100 0 0
      vertex 50 81.6497 -28.8675
    endloop
  endfacet
  facet normal -0 -1 0
    outer loop
      vertex 50 -81.6497 28.8675
      vertex -50 -81.6497 28.8675
      vertex -0 -81.6497 -57.735
    endloop
  endfacet
  facet normal -0.816497 -0.333333 0.471405
    outer loop
      vertex -50 -0 86.6025
      vertex -100 -0 0
      vertex -50 -81.6497 28.8675
    endloop
  endfacet
  facet normal -0.816497 0.333333 -0.471405
    outer loop
      vertex -50 81.6497 -28.8675
      vertex -50 -0 -86.6025
      vertex -100 -0 0
    endloop
  endfacet
  facet normal 0 -0.333333 -0.942809
    outer loop
      vertex 50 0 -86.6025
      vertex -0 -81.6497 -57.735
      vertex -50 -0 -86.6025
    endloop
  endfacet
  facet normal 0.816497 -0.333333 0.471405
    outer loop
      vertex 100 0 0
      vertex 50 -0 86.6025
      vertex 50 -81.6497 28.8675
    endloop
  endfacet
  facet normal 0 0.333333 0.942809
    outer loop
      vertex 50 -0 86.6025
      vertex 0 81.6497 57.735
      vertex -50 -0 86.6025
    endloop
  endfacet
  facet normal 0 1 0
    outer loop
      vertex 0 81.6497 57.735
      vertex 50 81.6497 -28.8675
      vertex -50 81.6497 -28.8675
    endloop
  endfacet
  facet normal 0.816497 0.333333 -0.471405
    outer loop
      vertex 50 81.6497 -28.8675
      vertex 100 0 0
      vertex 50 0 -86.6025
    endloop
  endfacet
endsolid OpenSCAD_Model
