<?xml version="1.0" encoding="UTF-8" standalone="no"?>
<!DOCTYPE svg PUBLIC "-//W3C//DTD SVG 1.1//EN"
 "http://www.w3.org/Graphics/SVG/1.1/DTD/svg11.dtd">
<!-- Generated by graphviz version 2.38.0 (20140413.2041)
 -->
<!-- Title: datatypes/datatypes_identify_list.scad Pages: 1 -->
<svg width="772pt" height="397pt"
 viewBox="0.00 0.00 771.50 397.00" xmlns="http://www.w3.org/2000/svg" xmlns:xlink="http://www.w3.org/1999/xlink">
<g id="graph0" class="graph" transform="scale(1 1) rotate(0) translate(4 393)">
<title>datatypes/datatypes_identify_list.scad</title>
<polygon fill="white" stroke="none" points="-4,4 -4,-393 767.5,-393 767.5,4 -4,4"/>
<!-- Node1 -->
<g id="node1" class="node"><title>Node1</title>
<polygon fill="#bfbfbf" stroke="black" points="227,-358.5 227,-388.5 332,-388.5 332,-358.5 227,-358.5"/>
<text text-anchor="start" x="235" y="-376.5" font-family="Helvetica,sans-Serif" font-size="10.00">datatypes/datatypes</text>
<text text-anchor="middle" x="279.5" y="-365.5" font-family="Helvetica,sans-Serif" font-size="10.00">_identify_list.scad</text>
</g>
<!-- Node2 -->
<g id="node2" class="node"><title>Node2</title>
<g id="a_node2"><a xlink:href="datatypes-base_8scad.html" target="_top" xlink:title="Include file wrapper of data types base primitives. ">
<polygon fill="white" stroke="black" points="227,-291.5 227,-321.5 332,-321.5 332,-291.5 227,-291.5"/>
<text text-anchor="start" x="235" y="-309.5" font-family="Helvetica,sans-Serif" font-size="10.00">datatypes/datatypes</text>
<text text-anchor="middle" x="279.5" y="-298.5" font-family="Helvetica,sans-Serif" font-size="10.00">&#45;base.scad</text>
</a>
</g>
</g>
<!-- Node1&#45;&gt;Node2 -->
<g id="edge1" class="edge"><title>Node1&#45;&gt;Node2</title>
<path fill="none" stroke="midnightblue" d="M279.5,-348.108C279.5,-339.154 279.5,-329.323 279.5,-321.577"/>
<polygon fill="midnightblue" stroke="midnightblue" points="276,-348.396 279.5,-358.396 283,-348.396 276,-348.396"/>
</g>
<!-- Node3 -->
<g id="node3" class="node"><title>Node3</title>
<g id="a_node3"><a xlink:href="datatypes__map_8scad.html" target="_top" xlink:title="Map data type operations. ">
<polygon fill="white" stroke="black" points="0,-112.5 0,-142.5 105,-142.5 105,-112.5 0,-112.5"/>
<text text-anchor="start" x="8" y="-130.5" font-family="Helvetica,sans-Serif" font-size="10.00">datatypes/datatypes</text>
<text text-anchor="middle" x="52.5" y="-119.5" font-family="Helvetica,sans-Serif" font-size="10.00">_map.scad</text>
</a>
</g>
</g>
<!-- Node2&#45;&gt;Node3 -->
<g id="edge2" class="edge"><title>Node2&#45;&gt;Node3</title>
<path fill="none" stroke="midnightblue" d="M217.177,-289.946C193.512,-282.046 167.28,-270.709 146.5,-255 104.812,-223.485 73.0044,-168.579 59.54,-142.729"/>
<polygon fill="midnightblue" stroke="midnightblue" points="216.201,-293.309 226.792,-293.019 218.332,-286.641 216.201,-293.309"/>
</g>
<!-- Node5 -->
<g id="node5" class="node"><title>Node5</title>
<g id="a_node5"><a xlink:href="datatypes__table_8scad.html" target="_top" xlink:title="Table data type operations. ">
<polygon fill="white" stroke="black" points="123,-112.5 123,-142.5 228,-142.5 228,-112.5 123,-112.5"/>
<text text-anchor="start" x="131" y="-130.5" font-family="Helvetica,sans-Serif" font-size="10.00">datatypes/datatypes</text>
<text text-anchor="middle" x="175.5" y="-119.5" font-family="Helvetica,sans-Serif" font-size="10.00">_table.scad</text>
</a>
</g>
</g>
<!-- Node2&#45;&gt;Node5 -->
<g id="edge4" class="edge"><title>Node2&#45;&gt;Node5</title>
<path fill="none" stroke="midnightblue" d="M226.272,-287.532C188.415,-271.292 141.543,-243.069 125.5,-199 117.544,-177.145 137.552,-155.91 154.578,-142.557"/>
<polygon fill="midnightblue" stroke="midnightblue" points="225.099,-290.834 235.678,-291.405 227.764,-284.362 225.099,-290.834"/>
</g>
<!-- Node6 -->
<g id="node6" class="node"><title>Node6</title>
<g id="a_node6"><a xlink:href="validation_8scad.html" target="_top" xlink:title="Function validation methods. ">
<polygon fill="white" stroke="black" points="181.5,-235.5 181.5,-254.5 263.5,-254.5 263.5,-235.5 181.5,-235.5"/>
<text text-anchor="middle" x="222.5" y="-242.5" font-family="Helvetica,sans-Serif" font-size="10.00">validation.scad</text>
</a>
</g>
</g>
<!-- Node2&#45;&gt;Node6 -->
<g id="edge6" class="edge"><title>Node2&#45;&gt;Node6</title>
<path fill="none" stroke="midnightblue" d="M258.906,-284.002C249.191,-273.862 238.146,-262.332 230.794,-254.658"/>
<polygon fill="midnightblue" stroke="midnightblue" points="256.547,-286.599 265.992,-291.399 261.601,-281.757 256.547,-286.599"/>
</g>
<!-- Node7 -->
<g id="node7" class="node"><title>Node7</title>
<g id="a_node7"><a xlink:href="math-base_8scad.html" target="_top" xlink:title="Include file wrapper of math base primitives. ">
<polygon fill="white" stroke="black" points="282,-235.5 282,-254.5 393,-254.5 393,-235.5 282,-235.5"/>
<text text-anchor="middle" x="337.5" y="-242.5" font-family="Helvetica,sans-Serif" font-size="10.00">math/math&#45;base.scad</text>
</a>
</g>
</g>
<!-- Node2&#45;&gt;Node7 -->
<g id="edge7" class="edge"><title>Node2&#45;&gt;Node7</title>
<path fill="none" stroke="midnightblue" d="M300.456,-284.002C310.341,-273.862 321.58,-262.332 329.06,-254.658"/>
<polygon fill="midnightblue" stroke="midnightblue" points="297.719,-281.795 293.245,-291.399 302.732,-286.682 297.719,-281.795"/>
</g>
<!-- Node17 -->
<g id="node17" class="node"><title>Node17</title>
<g id="a_node17"><a xlink:href="math__bitwise_8scad.html" target="_top" xlink:title="Mathematical base&#45;two bitwise binary functions. ">
<polygon fill="white" stroke="black" points="558,-235.5 558,-254.5 681,-254.5 681,-235.5 558,-235.5"/>
<text text-anchor="middle" x="619.5" y="-242.5" font-family="Helvetica,sans-Serif" font-size="10.00">math/math_bitwise.scad</text>
</a>
</g>
</g>
<!-- Node2&#45;&gt;Node17 -->
<g id="edge23" class="edge"><title>Node2&#45;&gt;Node17</title>
<path fill="none" stroke="midnightblue" d="M342.111,-294.543C408.076,-282.999 510.57,-265.063 570.762,-254.529"/>
<polygon fill="midnightblue" stroke="midnightblue" points="341.499,-291.097 332.252,-296.268 342.706,-297.992 341.499,-291.097"/>
</g>
<!-- Node19 -->
<g id="node19" class="node"><title>Node19</title>
<g id="a_node19"><a xlink:href="math__oshapes_8scad.html" target="_top" xlink:title="Other shapes mathematical functions. ">
<polygon fill="white" stroke="black" points="411,-235.5 411,-254.5 540,-254.5 540,-235.5 411,-235.5"/>
<text text-anchor="middle" x="475.5" y="-242.5" font-family="Helvetica,sans-Serif" font-size="10.00">math/math_oshapes.scad</text>
</a>
</g>
</g>
<!-- Node2&#45;&gt;Node19 -->
<g id="edge27" class="edge"><title>Node2&#45;&gt;Node19</title>
<path fill="none" stroke="midnightblue" d="M335.961,-288.36C372.421,-277.292 418.293,-263.367 447.266,-254.571"/>
<polygon fill="midnightblue" stroke="midnightblue" points="334.501,-285.145 325.949,-291.399 336.535,-291.844 334.501,-285.145"/>
</g>
<!-- Node4 -->
<g id="node4" class="node"><title>Node4</title>
<g id="a_node4"><a xlink:href="omdl-base_8scad.html" target="_top" xlink:title="Include file wrapper of omdl base primitives. ">
<polygon fill="white" stroke="black" points="259.5,-0.5 259.5,-19.5 345.5,-19.5 345.5,-0.5 259.5,-0.5"/>
<text text-anchor="middle" x="302.5" y="-7.5" font-family="Helvetica,sans-Serif" font-size="10.00">omdl&#45;base.scad</text>
</a>
</g>
</g>
<!-- Node3&#45;&gt;Node4 -->
<g id="edge3" class="edge"><title>Node3&#45;&gt;Node4</title>
<path fill="none" stroke="midnightblue" d="M92.2337,-108.143C147.075,-82.8065 243.752,-38.1414 284.053,-19.5223"/>
<polygon fill="midnightblue" stroke="midnightblue" points="90.765,-104.966 83.1549,-112.337 93.7008,-111.321 90.765,-104.966"/>
</g>
<!-- Node5&#45;&gt;Node4 -->
<g id="edge5" class="edge"><title>Node5&#45;&gt;Node4</title>
<path fill="none" stroke="midnightblue" d="M188.477,-103.887C197.751,-89.0574 211.251,-69.9117 226.5,-56 243.605,-40.3949 266.973,-27.5427 283.265,-19.6251"/>
<polygon fill="midnightblue" stroke="midnightblue" points="185.461,-102.11 183.271,-112.477 191.447,-105.739 185.461,-102.11"/>
</g>
<!-- Node8 -->
<g id="node8" class="node"><title>Node8</title>
<g id="a_node8"><a xlink:href="math__polytope_8scad.html" target="_top" xlink:title="Polygon and polyhedron mathematical functions. ">
<polygon fill="white" stroke="black" points="135,-179.5 135,-198.5 264,-198.5 264,-179.5 135,-179.5"/>
<text text-anchor="middle" x="199.5" y="-186.5" font-family="Helvetica,sans-Serif" font-size="10.00">math/math_polytope.scad</text>
</a>
</g>
</g>
<!-- Node7&#45;&gt;Node8 -->
<g id="edge8" class="edge"><title>Node7&#45;&gt;Node8</title>
<path fill="none" stroke="midnightblue" d="M306.251,-231.772C280.329,-221.629 244.138,-207.467 221.264,-198.516"/>
<polygon fill="midnightblue" stroke="midnightblue" points="305.046,-235.059 315.633,-235.444 307.596,-228.54 305.046,-235.059"/>
</g>
<!-- Node10 -->
<g id="node10" class="node"><title>Node10</title>
<g id="a_node10"><a xlink:href="math__triangle_8scad.html" target="_top" xlink:title="Triangle solutions mathematical functions. ">
<polygon fill="white" stroke="black" points="411.5,-179.5 411.5,-198.5 535.5,-198.5 535.5,-179.5 411.5,-179.5"/>
<text text-anchor="middle" x="473.5" y="-186.5" font-family="Helvetica,sans-Serif" font-size="10.00">math/math_triangle.scad</text>
</a>
</g>
</g>
<!-- Node7&#45;&gt;Node10 -->
<g id="edge11" class="edge"><title>Node7&#45;&gt;Node10</title>
<path fill="none" stroke="midnightblue" d="M368.635,-231.638C394.157,-221.504 429.609,-207.427 452.051,-198.516"/>
<polygon fill="midnightblue" stroke="midnightblue" points="367.052,-228.5 359.05,-235.444 369.635,-235.006 367.052,-228.5"/>
</g>
<!-- Node15 -->
<g id="node15" class="node"><title>Node15</title>
<g id="a_node15"><a xlink:href="tools__align_8scad.html" target="_top" xlink:title="Shape alignment tools. ">
<polygon fill="white" stroke="black" points="282,-179.5 282,-198.5 393,-198.5 393,-179.5 282,-179.5"/>
<text text-anchor="middle" x="337.5" y="-186.5" font-family="Helvetica,sans-Serif" font-size="10.00">tools/tools_align.scad</text>
</a>
</g>
</g>
<!-- Node7&#45;&gt;Node15 -->
<g id="edge19" class="edge"><title>Node7&#45;&gt;Node15</title>
<path fill="none" stroke="midnightblue" d="M337.5,-224.805C337.5,-215.91 337.5,-205.78 337.5,-198.751"/>
<polygon fill="midnightblue" stroke="midnightblue" points="334,-225.083 337.5,-235.083 341,-225.083 334,-225.083"/>
</g>
<!-- Node16 -->
<g id="node16" class="node"><title>Node16</title>
<g id="a_node16"><a xlink:href="tools__utility_8scad.html" target="_top" xlink:title="Shape transformation utility tools. ">
<polygon fill="white" stroke="black" points="553.5,-179.5 553.5,-198.5 667.5,-198.5 667.5,-179.5 553.5,-179.5"/>
<text text-anchor="middle" x="610.5" y="-186.5" font-family="Helvetica,sans-Serif" font-size="10.00">tools/tools_utility.scad</text>
</a>
</g>
</g>
<!-- Node7&#45;&gt;Node16 -->
<g id="edge21" class="edge"><title>Node7&#45;&gt;Node16</title>
<path fill="none" stroke="midnightblue" d="M390.718,-233.473C442.313,-223.268 519.604,-207.979 567.445,-198.516"/>
<polygon fill="midnightblue" stroke="midnightblue" points="389.888,-230.07 380.758,-235.444 391.247,-236.937 389.888,-230.07"/>
</g>
<!-- Node9 -->
<g id="node9" class="node"><title>Node9</title>
<g id="a_node9"><a xlink:href="tools__polytope_8scad.html" target="_top" xlink:title="Polygon and polyhedron tools. ">
<polygon fill="white" stroke="black" points="246.5,-118 246.5,-137 374.5,-137 374.5,-118 246.5,-118"/>
<text text-anchor="middle" x="310.5" y="-125" font-family="Helvetica,sans-Serif" font-size="10.00">tools/tools_polytope.scad</text>
</a>
</g>
</g>
<!-- Node8&#45;&gt;Node9 -->
<g id="edge9" class="edge"><title>Node8&#45;&gt;Node9</title>
<path fill="none" stroke="midnightblue" d="M224.29,-174.712C245.788,-163.188 276.258,-146.855 294.626,-137.009"/>
<polygon fill="midnightblue" stroke="midnightblue" points="222.564,-171.666 215.404,-179.475 225.871,-177.835 222.564,-171.666"/>
</g>
<!-- Node9&#45;&gt;Node4 -->
<g id="edge10" class="edge"><title>Node9&#45;&gt;Node4</title>
<path fill="none" stroke="midnightblue" d="M276.17,-113.529C259.824,-105.41 241.842,-93.1778 232.5,-76 219.03,-51.2328 254.319,-30.6959 279.548,-19.6927"/>
<polygon fill="midnightblue" stroke="midnightblue" points="274.98,-116.835 285.527,-117.841 277.909,-110.477 274.98,-116.835"/>
</g>
<!-- Node11 -->
<g id="node11" class="node"><title>Node11</title>
<g id="a_node11"><a xlink:href="shapes2d_8scad.html" target="_top" xlink:title="Two&#45;dimensional basic shapes. ">
<polygon fill="white" stroke="black" points="415,-118 415,-137 532,-137 532,-118 415,-118"/>
<text text-anchor="middle" x="473.5" y="-125" font-family="Helvetica,sans-Serif" font-size="10.00">shapes/shapes2d.scad</text>
</a>
</g>
</g>
<!-- Node10&#45;&gt;Node11 -->
<g id="edge12" class="edge"><title>Node10&#45;&gt;Node11</title>
<path fill="none" stroke="midnightblue" d="M473.5,-169.317C473.5,-158.496 473.5,-145.398 473.5,-137.009"/>
<polygon fill="midnightblue" stroke="midnightblue" points="470,-169.475 473.5,-179.475 477,-169.475 470,-169.475"/>
</g>
<!-- Node12 -->
<g id="node12" class="node"><title>Node12</title>
<g id="a_node12"><a xlink:href="shapes2de_8scad.html" target="_top" xlink:title="Linearly extruded two&#45;dimensional basic shapes. ">
<polygon fill="white" stroke="black" points="241.5,-56.5 241.5,-75.5 363.5,-75.5 363.5,-56.5 241.5,-56.5"/>
<text text-anchor="middle" x="302.5" y="-63.5" font-family="Helvetica,sans-Serif" font-size="10.00">shapes/shapes2de.scad</text>
</a>
</g>
</g>
<!-- Node11&#45;&gt;Node12 -->
<g id="edge13" class="edge"><title>Node11&#45;&gt;Node12</title>
<path fill="none" stroke="midnightblue" d="M439.25,-114.583C406.011,-103.017 356.393,-85.7524 326.955,-75.5091"/>
<polygon fill="midnightblue" stroke="midnightblue" points="438.405,-117.994 449,-117.975 440.705,-111.383 438.405,-117.994"/>
</g>
<!-- Node13 -->
<g id="node13" class="node"><title>Node13</title>
<g id="a_node13"><a xlink:href="shapes3d_8scad.html" target="_top" xlink:title="Three&#45;dimensional basic shapes. ">
<polygon fill="white" stroke="black" points="382,-56.5 382,-75.5 499,-75.5 499,-56.5 382,-56.5"/>
<text text-anchor="middle" x="440.5" y="-63.5" font-family="Helvetica,sans-Serif" font-size="10.00">shapes/shapes3d.scad</text>
</a>
</g>
</g>
<!-- Node11&#45;&gt;Node13 -->
<g id="edge15" class="edge"><title>Node11&#45;&gt;Node13</title>
<path fill="none" stroke="midnightblue" d="M463.889,-109.171C457.753,-98.1075 450.068,-84.2512 445.219,-75.5091"/>
<polygon fill="midnightblue" stroke="midnightblue" points="460.861,-110.928 468.772,-117.975 466.982,-107.532 460.861,-110.928"/>
</g>
<!-- Node14 -->
<g id="node14" class="node"><title>Node14</title>
<g id="a_node14"><a xlink:href="tools__edge_8scad.html" target="_top" xlink:title="Shape edge finishing tools. ">
<polygon fill="white" stroke="black" points="517.5,-56.5 517.5,-75.5 629.5,-75.5 629.5,-56.5 517.5,-56.5"/>
<text text-anchor="middle" x="573.5" y="-63.5" font-family="Helvetica,sans-Serif" font-size="10.00">tools/tools_edge.scad</text>
</a>
</g>
</g>
<!-- Node11&#45;&gt;Node14 -->
<g id="edge17" class="edge"><title>Node11&#45;&gt;Node14</title>
<path fill="none" stroke="midnightblue" d="M496.619,-112.744C515.937,-101.25 542.874,-85.2226 559.199,-75.5091"/>
<polygon fill="midnightblue" stroke="midnightblue" points="494.632,-109.854 487.828,-117.975 498.211,-115.87 494.632,-109.854"/>
</g>
<!-- Node12&#45;&gt;Node4 -->
<g id="edge14" class="edge"><title>Node12&#45;&gt;Node4</title>
<path fill="none" stroke="midnightblue" d="M302.5,-45.8045C302.5,-36.9102 302.5,-26.7798 302.5,-19.7511"/>
<polygon fill="midnightblue" stroke="midnightblue" points="299,-46.083 302.5,-56.083 306,-46.083 299,-46.083"/>
</g>
<!-- Node13&#45;&gt;Node4 -->
<g id="edge16" class="edge"><title>Node13&#45;&gt;Node4</title>
<path fill="none" stroke="midnightblue" d="M409.251,-52.772C383.329,-42.6287 347.138,-28.4669 324.264,-19.5164"/>
<polygon fill="midnightblue" stroke="midnightblue" points="408.046,-56.0588 418.633,-56.4435 410.596,-49.5401 408.046,-56.0588"/>
</g>
<!-- Node14&#45;&gt;Node4 -->
<g id="edge18" class="edge"><title>Node14&#45;&gt;Node4</title>
<path fill="none" stroke="midnightblue" d="M520.672,-54.4734C469.455,-44.2678 392.73,-28.9794 345.24,-19.5164"/>
<polygon fill="midnightblue" stroke="midnightblue" points="520.068,-57.9218 530.559,-56.4435 521.436,-51.0567 520.068,-57.9218"/>
</g>
<!-- Node15&#45;&gt;Node9 -->
<g id="edge20" class="edge"><title>Node15&#45;&gt;Node9</title>
<path fill="none" stroke="midnightblue" d="M329.484,-170.335C324.489,-159.328 318.288,-145.663 314.361,-137.009"/>
<polygon fill="midnightblue" stroke="midnightblue" points="326.312,-171.815 333.632,-179.475 332.686,-168.922 326.312,-171.815"/>
</g>
<!-- Node16&#45;&gt;Node11 -->
<g id="edge22" class="edge"><title>Node16&#45;&gt;Node11</title>
<path fill="none" stroke="midnightblue" d="M581.671,-175.48C555.064,-163.924 516.271,-147.076 493.092,-137.009"/>
<polygon fill="midnightblue" stroke="midnightblue" points="580.305,-178.702 590.871,-179.475 583.093,-172.281 580.305,-178.702"/>
</g>
<!-- Node17&#45;&gt;Node16 -->
<g id="edge26" class="edge"><title>Node17&#45;&gt;Node16</title>
<path fill="none" stroke="midnightblue" d="M616.35,-225.101C614.856,-216.136 613.143,-205.858 611.959,-198.751"/>
<polygon fill="midnightblue" stroke="midnightblue" points="612.917,-225.794 618.014,-235.083 619.822,-224.644 612.917,-225.794"/>
</g>
<!-- Node18 -->
<g id="node18" class="node"><title>Node18</title>
<g id="a_node18"><a xlink:href="math__utility_8scad.html" target="_top" xlink:title="Miscellaneous mathematical utilities. ">
<polygon fill="white" stroke="black" points="647.5,-56.5 647.5,-75.5 763.5,-75.5 763.5,-56.5 647.5,-56.5"/>
<text text-anchor="middle" x="705.5" y="-63.5" font-family="Helvetica,sans-Serif" font-size="10.00">math/math_utility.scad</text>
</a>
</g>
</g>
<!-- Node17&#45;&gt;Node18 -->
<g id="edge24" class="edge"><title>Node17&#45;&gt;Node18</title>
<path fill="none" stroke="midnightblue" d="M644.346,-229.932C655.8,-222.22 668.581,-211.648 676.5,-199 702.025,-158.232 705.266,-98.1113 705.545,-75.7751"/>
<polygon fill="midnightblue" stroke="midnightblue" points="642.143,-227.184 635.563,-235.488 645.885,-233.1 642.143,-227.184"/>
</g>
<!-- Node18&#45;&gt;Node4 -->
<g id="edge25" class="edge"><title>Node18&#45;&gt;Node4</title>
<path fill="none" stroke="midnightblue" d="M637.35,-55.8461C526.163,-40.9343 407.827,-25.0941 345.729,-16.784"/>
<polygon fill="midnightblue" stroke="midnightblue" points="637.019,-59.333 647.396,-57.1935 637.95,-52.3952 637.019,-59.333"/>
</g>
<!-- Node19&#45;&gt;Node16 -->
<g id="edge28" class="edge"><title>Node19&#45;&gt;Node16</title>
<path fill="none" stroke="midnightblue" d="M506.406,-231.638C531.74,-221.504 566.931,-207.427 589.209,-198.516"/>
<polygon fill="midnightblue" stroke="midnightblue" points="504.876,-228.48 496.891,-235.444 507.476,-234.979 504.876,-228.48"/>
</g>
</g>
</svg>
