<?xml version="1.0" encoding="UTF-8" standalone="no"?>
<!DOCTYPE svg PUBLIC "-//W3C//DTD SVG 1.1//EN"
 "http://www.w3.org/Graphics/SVG/1.1/DTD/svg11.dtd">
<!-- Generated by graphviz version 2.38.0 (20140413.2041)
 -->
<!-- Title: datatypes/datatypes_table.scad Pages: 1 -->
<svg width="946pt" height="162pt"
 viewBox="0.00 0.00 945.50 162.00" xmlns="http://www.w3.org/2000/svg" xmlns:xlink="http://www.w3.org/1999/xlink">
<g id="graph0" class="graph" transform="scale(1 1) rotate(0) translate(4 158)">
<title>datatypes/datatypes_table.scad</title>
<polygon fill="white" stroke="none" points="-4,4 -4,-158 941.5,-158 941.5,4 -4,4"/>
<!-- Node1 -->
<g id="node1" class="node"><title>Node1</title>
<polygon fill="#bfbfbf" stroke="black" points="276.5,-123.5 276.5,-153.5 381.5,-153.5 381.5,-123.5 276.5,-123.5"/>
<text text-anchor="start" x="284.5" y="-141.5" font-family="Helvetica,sans-Serif" font-size="10.00">datatypes/datatypes</text>
<text text-anchor="middle" x="329" y="-130.5" font-family="Helvetica,sans-Serif" font-size="10.00">_table.scad</text>
</g>
<!-- Node2 -->
<g id="node2" class="node"><title>Node2</title>
<g id="a_node2"><a xlink:href="console_8scad.html" target="_top" xlink:title="Message logging functions. ">
<polygon fill="white" stroke="black" points="231.5,-67.5 231.5,-86.5 314.5,-86.5 314.5,-67.5 231.5,-67.5"/>
<text text-anchor="middle" x="273" y="-74.5" font-family="Helvetica,sans-Serif" font-size="10.00">../console.scad</text>
</a>
</g>
</g>
<!-- Node1&#45;&gt;Node2 -->
<g id="edge1" class="edge"><title>Node1&#45;&gt;Node2</title>
<path fill="none" stroke="midnightblue" d="M315.729,-123.399C307.424,-114.575 296.701,-103.183 288.076,-94.0178"/>
<polygon fill="midnightblue" stroke="midnightblue" points="290.551,-91.541 281.148,-86.6578 285.453,-96.3386 290.551,-91.541"/>
</g>
<!-- Node3 -->
<g id="node3" class="node"><title>Node3</title>
<g id="a_node3"><a xlink:href="datatypes-base_8scad.html" target="_top" xlink:title="Include file wrapper of data types base primitives. ">
<polygon fill="white" stroke="black" points="332.5,-67.5 332.5,-86.5 439.5,-86.5 439.5,-67.5 332.5,-67.5"/>
<text text-anchor="middle" x="386" y="-74.5" font-family="Helvetica,sans-Serif" font-size="10.00">datatypes&#45;base.scad</text>
</a>
</g>
</g>
<!-- Node1&#45;&gt;Node3 -->
<g id="edge2" class="edge"><title>Node1&#45;&gt;Node3</title>
<path fill="none" stroke="midnightblue" d="M342.508,-123.399C350.962,-114.575 361.875,-103.183 370.655,-94.0178"/>
<polygon fill="midnightblue" stroke="midnightblue" points="373.316,-96.3002 377.706,-86.6578 368.261,-91.4577 373.316,-96.3002"/>
</g>
<!-- Node4 -->
<g id="node4" class="node"><title>Node4</title>
<g id="a_node4"><a xlink:href="constants_8scad.html" target="_top" xlink:title="Design constant definitions. ">
<polygon fill="white" stroke="black" points="0,-6 0,-25 92,-25 92,-6 0,-6"/>
<text text-anchor="middle" x="46" y="-13" font-family="Helvetica,sans-Serif" font-size="10.00">../constants.scad</text>
</a>
</g>
</g>
<!-- Node3&#45;&gt;Node4 -->
<g id="edge3" class="edge"><title>Node3&#45;&gt;Node4</title>
<path fill="none" stroke="midnightblue" d="M332.239,-68.1757C262.332,-57.8862 144.077,-40.0549 101,-31 96.1802,-29.9869 91.1509,-28.8181 86.1765,-27.5929"/>
<polygon fill="midnightblue" stroke="midnightblue" points="86.6829,-24.1101 76.1281,-25.0303 84.953,-30.893 86.6829,-24.1101"/>
</g>
<!-- Node5 -->
<g id="node5" class="node"><title>Node5</title>
<g id="a_node5"><a xlink:href="datatypes__identify__scalar_8scad.html" target="_top" xlink:title="Scalar data type identification. ">
<polygon fill="white" stroke="black" points="110,-0.5 110,-30.5 206,-30.5 206,-0.5 110,-0.5"/>
<text text-anchor="start" x="118" y="-18.5" font-family="Helvetica,sans-Serif" font-size="10.00">datatypes_identify</text>
<text text-anchor="middle" x="158" y="-7.5" font-family="Helvetica,sans-Serif" font-size="10.00">_scalar.scad</text>
</a>
</g>
</g>
<!-- Node3&#45;&gt;Node5 -->
<g id="edge4" class="edge"><title>Node3&#45;&gt;Node5</title>
<path fill="none" stroke="midnightblue" d="M353.333,-67.4751C317.578,-58.1442 259.549,-43.0007 216.013,-31.6393"/>
<polygon fill="midnightblue" stroke="midnightblue" points="216.68,-28.1962 206.12,-29.0576 214.912,-34.9694 216.68,-28.1962"/>
</g>
<!-- Node6 -->
<g id="node6" class="node"><title>Node6</title>
<g id="a_node6"><a xlink:href="datatypes__identify__iterable_8scad.html" target="_top" xlink:title="Iterable data type identification. ">
<polygon fill="white" stroke="black" points="224,-0.5 224,-30.5 320,-30.5 320,-0.5 224,-0.5"/>
<text text-anchor="start" x="232" y="-18.5" font-family="Helvetica,sans-Serif" font-size="10.00">datatypes_identify</text>
<text text-anchor="middle" x="272" y="-7.5" font-family="Helvetica,sans-Serif" font-size="10.00">_iterable.scad</text>
</a>
</g>
</g>
<!-- Node3&#45;&gt;Node6 -->
<g id="edge5" class="edge"><title>Node3&#45;&gt;Node6</title>
<path fill="none" stroke="midnightblue" d="M369.667,-67.4751C353.578,-59.0777 328.469,-45.9728 307.739,-35.1534"/>
<polygon fill="midnightblue" stroke="midnightblue" points="309.352,-32.0472 298.868,-30.523 306.113,-38.2528 309.352,-32.0472"/>
</g>
<!-- Node7 -->
<g id="node7" class="node"><title>Node7</title>
<g id="a_node7"><a xlink:href="datatypes__identify__list_8scad.html" target="_top" xlink:title="List data type identification. ">
<polygon fill="white" stroke="black" points="338,-0.5 338,-30.5 434,-30.5 434,-0.5 338,-0.5"/>
<text text-anchor="start" x="346" y="-18.5" font-family="Helvetica,sans-Serif" font-size="10.00">datatypes_identify</text>
<text text-anchor="middle" x="386" y="-7.5" font-family="Helvetica,sans-Serif" font-size="10.00">_list.scad</text>
</a>
</g>
</g>
<!-- Node3&#45;&gt;Node7 -->
<g id="edge6" class="edge"><title>Node3&#45;&gt;Node7</title>
<path fill="none" stroke="midnightblue" d="M386,-67.4751C386,-60.471 386,-50.1919 386,-40.6956"/>
<polygon fill="midnightblue" stroke="midnightblue" points="389.5,-40.5229 386,-30.523 382.5,-40.523 389.5,-40.5229"/>
</g>
<!-- Node8 -->
<g id="node8" class="node"><title>Node8</title>
<g id="a_node8"><a xlink:href="datatypes__operate__scalar_8scad.html" target="_top" xlink:title="Scalar data type operations. ">
<polygon fill="white" stroke="black" points="452,-6 452,-25 604,-25 604,-6 452,-6"/>
<text text-anchor="middle" x="528" y="-13" font-family="Helvetica,sans-Serif" font-size="10.00">datatypes_operate_scalar.scad</text>
</a>
</g>
</g>
<!-- Node3&#45;&gt;Node8 -->
<g id="edge7" class="edge"><title>Node3&#45;&gt;Node8</title>
<path fill="none" stroke="midnightblue" d="M406.345,-67.4751C430.387,-57.4013 470.597,-40.5525 498.163,-29.0023"/>
<polygon fill="midnightblue" stroke="midnightblue" points="499.822,-32.1018 507.693,-25.0091 497.117,-25.6457 499.822,-32.1018"/>
</g>
<!-- Node9 -->
<g id="node9" class="node"><title>Node9</title>
<g id="a_node9"><a xlink:href="datatypes__operate__iterable_8scad.html" target="_top" xlink:title="Iterable data type operations. ">
<polygon fill="white" stroke="black" points="622,-6 622,-25 780,-25 780,-6 622,-6"/>
<text text-anchor="middle" x="701" y="-13" font-family="Helvetica,sans-Serif" font-size="10.00">datatypes_operate_iterable.scad</text>
</a>
</g>
</g>
<!-- Node3&#45;&gt;Node9 -->
<g id="edge8" class="edge"><title>Node3&#45;&gt;Node9</title>
<path fill="none" stroke="midnightblue" d="M431.132,-67.4751C487.855,-56.7606 585.154,-38.3821 646.121,-26.8661"/>
<polygon fill="midnightblue" stroke="midnightblue" points="646.775,-30.3044 655.952,-25.0091 645.476,-23.426 646.775,-30.3044"/>
</g>
<!-- Node10 -->
<g id="node10" class="node"><title>Node10</title>
<g id="a_node10"><a xlink:href="datatypes__operate__list_8scad.html" target="_top" xlink:title="List data type operations. ">
<polygon fill="white" stroke="black" points="798.5,-6 798.5,-25 937.5,-25 937.5,-6 798.5,-6"/>
<text text-anchor="middle" x="868" y="-13" font-family="Helvetica,sans-Serif" font-size="10.00">datatypes_operate_list.scad</text>
</a>
</g>
</g>
<!-- Node3&#45;&gt;Node10 -->
<g id="edge9" class="edge"><title>Node3&#45;&gt;Node10</title>
<path fill="none" stroke="midnightblue" d="M439.609,-71.2237C516.974,-64.0565 664.331,-49.3783 789,-31 797.329,-29.7722 806.123,-28.317 814.7,-26.81"/>
<polygon fill="midnightblue" stroke="midnightblue" points="815.404,-30.2397 824.628,-25.0276 814.167,-23.3498 815.404,-30.2397"/>
</g>
</g>
</svg>
