solid OpenSCAD_Model
  facet normal -0.774597 -0.447214 0.447214
    outer loop
      vertex -0 -100 0
      vertex -28.8675 3.609e-06 50
      vertex -57.735 -3.61e-07 0
    endloop
  endfacet
  facet normal -3.07515e-08 -0.447214 0.894427
    outer loop
      vertex -0 -100 0
      vertex 28.8675 -3.61e-07 50
      vertex -28.8675 3.609e-06 50
    endloop
  endfacet
  facet normal -0.774597 0.447214 0.447214
    outer loop
      vertex -28.8675 3.609e-06 50
      vertex 0 100 0
      vertex -57.735 -3.61e-07 0
    endloop
  endfacet
  facet normal -0.774597 -0.447214 -0.447214
    outer loop
      vertex -57.735 -3.61e-07 0
      vertex -28.8675 3.61e-07 -50
      vertex -0 -100 0
    endloop
  endfacet
  facet normal 3.07515e-08 0.447214 0.894427
    outer loop
      vertex -28.8675 3.609e-06 50
      vertex 28.8675 -3.61e-07 50
      vertex 0 100 0
    endloop
  endfacet
  facet normal 0.774597 -0.447214 0.447214
    outer loop
      vertex 28.8675 -3.61e-07 50
      vertex -0 -100 0
      vertex 57.735 3.61e-07 0
    endloop
  endfacet
  facet normal -0.774597 0.447214 -0.447214
    outer loop
      vertex -57.735 -3.61e-07 0
      vertex 0 100 0
      vertex -28.8675 3.61e-07 -50
    endloop
  endfacet
  facet normal -3.07515e-08 -0.447214 -0.894427
    outer loop
      vertex -0 -100 0
      vertex -28.8675 3.61e-07 -50
      vertex 28.8675 -3.609e-06 -50
    endloop
  endfacet
  facet normal 0.774597 0.447214 0.447214
    outer loop
      vertex 28.8675 -3.61e-07 50
      vertex 57.735 3.61e-07 0
      vertex 0 100 0
    endloop
  endfacet
  facet normal 0.774597 -0.447214 -0.447214
    outer loop
      vertex -0 -100 0
      vertex 28.8675 -3.609e-06 -50
      vertex 57.735 3.61e-07 0
    endloop
  endfacet
  facet normal 3.07515e-08 0.447214 -0.894427
    outer loop
      vertex 0 100 0
      vertex 28.8675 -3.609e-06 -50
      vertex -28.8675 3.61e-07 -50
    endloop
  endfacet
  facet normal 0.774597 0.447214 -0.447214
    outer loop
      vertex 0 100 0
      vertex 57.735 3.61e-07 0
      vertex 28.8675 -3.609e-06 -50
    endloop
  endfacet
endsolid OpenSCAD_Model
