<?xml version="1.0" encoding="UTF-8" standalone="no"?>
<!DOCTYPE svg PUBLIC "-//W3C//DTD SVG 1.1//EN"
 "http://www.w3.org/Graphics/SVG/1.1/DTD/svg11.dtd">
<!-- Generated by graphviz version 2.38.0 (20140413.2041)
 -->
<!-- Title: shapes Pages: 1 -->
<svg width="90pt" height="188pt"
 viewBox="0.00 0.00 90.00 188.00" xmlns="http://www.w3.org/2000/svg" xmlns:xlink="http://www.w3.org/1999/xlink">
<g id="graph0" class="graph" transform="scale(1 1) rotate(0) translate(4 184)">
<title>shapes</title>
<polygon fill="white" stroke="none" points="-4,4 -4,-184 86,-184 86,4 -4,4"/>
<!-- dir_b89c2a9ae890e4bed7d20c515eb3b07e -->
<g id="node1" class="node"><title>dir_b89c2a9ae890e4bed7d20c515eb3b07e</title>
<g id="a_node1"><a xlink:href="dir_b89c2a9ae890e4bed7d20c515eb3b07e.html" target="_top" xlink:title="shapes">
<polygon fill="#eeeeff" stroke="black" points="82,-180 28,-180 28,-144 82,-144 82,-180"/>
<text text-anchor="middle" x="55" y="-159.5" font-family="Helvetica,sans-Serif" font-size="10.00">shapes</text>
</a>
</g>
</g>
<!-- dir_296d53ceaeaa7e099814a6def439fe8a -->
<g id="node2" class="node"><title>dir_296d53ceaeaa7e099814a6def439fe8a</title>
<g id="a_node2"><a xlink:href="dir_296d53ceaeaa7e099814a6def439fe8a.html" target="_top" xlink:title="math">
<polygon fill="none" stroke="black" points="54,-36 0,-36 0,-0 54,-0 54,-36"/>
<text text-anchor="middle" x="27" y="-15.5" font-family="Helvetica,sans-Serif" font-size="10.00">math</text>
</a>
</g>
</g>
<!-- dir_b89c2a9ae890e4bed7d20c515eb3b07e&#45;&gt;dir_296d53ceaeaa7e099814a6def439fe8a -->
<g id="edge1" class="edge"><title>dir_b89c2a9ae890e4bed7d20c515eb3b07e&#45;&gt;dir_296d53ceaeaa7e099814a6def439fe8a</title>
<path fill="none" stroke="black" d="M39.3901,-143.774C31.6271,-134.03 23.0541,-121.184 19,-108 12.7868,-87.7951 15.4541,-63.8851 19.3085,-45.9382"/>
<polygon fill="black" stroke="black" points="22.7313,-46.6736 21.657,-36.1334 15.9239,-45.043 22.7313,-46.6736"/>
<g id="a_edge1&#45;headlabel"><a xlink:href="dir_000005_000004.html" target="_top" xlink:title="1">
<text text-anchor="middle" x="24.6552" y="-48.3307" font-family="Helvetica,sans-Serif" font-size="10.00">1</text>
</a>
</g>
</g>
<!-- dir_4eeb864c4eec08c7d6b9d3b0352cfdde -->
<g id="node3" class="node"><title>dir_4eeb864c4eec08c7d6b9d3b0352cfdde</title>
<g id="a_node3"><a xlink:href="dir_4eeb864c4eec08c7d6b9d3b0352cfdde.html" target="_top" xlink:title="tools">
<polygon fill="none" stroke="black" points="82,-108 28,-108 28,-72 82,-72 82,-108"/>
<text text-anchor="middle" x="55" y="-87.5" font-family="Helvetica,sans-Serif" font-size="10.00">tools</text>
</a>
</g>
</g>
<!-- dir_b89c2a9ae890e4bed7d20c515eb3b07e&#45;&gt;dir_4eeb864c4eec08c7d6b9d3b0352cfdde -->
<g id="edge2" class="edge"><title>dir_b89c2a9ae890e4bed7d20c515eb3b07e&#45;&gt;dir_4eeb864c4eec08c7d6b9d3b0352cfdde</title>
<path fill="none" stroke="black" d="M49.0843,-143.697C48.2886,-135.983 48.0621,-126.712 48.4047,-118.112"/>
<polygon fill="black" stroke="black" points="51.8984,-118.324 49.105,-108.104 44.9154,-117.836 51.8984,-118.324"/>
<g id="a_edge2&#45;headlabel"><a xlink:href="dir_000005_000006.html" target="_top" xlink:title="1">
<text text-anchor="middle" x="54.4799" y="-119.608" font-family="Helvetica,sans-Serif" font-size="10.00">1</text>
</a>
</g>
</g>
<!-- dir_4eeb864c4eec08c7d6b9d3b0352cfdde&#45;&gt;dir_b89c2a9ae890e4bed7d20c515eb3b07e -->
<g id="edge3" class="edge"><title>dir_4eeb864c4eec08c7d6b9d3b0352cfdde&#45;&gt;dir_b89c2a9ae890e4bed7d20c515eb3b07e</title>
<path fill="none" stroke="black" d="M60.895,-108.104C61.7005,-115.791 61.9369,-125.054 61.604,-133.665"/>
<polygon fill="black" stroke="black" points="58.1085,-133.48 60.9157,-143.697 65.0921,-133.96 58.1085,-133.48"/>
<g id="a_edge3&#45;headlabel"><a xlink:href="dir_000006_000005.html" target="_top" xlink:title="1">
<text text-anchor="middle" x="55.5219" y="-127.2" font-family="Helvetica,sans-Serif" font-size="10.00">1</text>
</a>
</g>
</g>
<!-- dir_4eeb864c4eec08c7d6b9d3b0352cfdde&#45;&gt;dir_296d53ceaeaa7e099814a6def439fe8a -->
<g id="edge4" class="edge"><title>dir_4eeb864c4eec08c7d6b9d3b0352cfdde&#45;&gt;dir_296d53ceaeaa7e099814a6def439fe8a</title>
<path fill="none" stroke="black" d="M48.0786,-71.6966C44.9253,-63.8132 41.1217,-54.3042 37.6186,-45.5464"/>
<polygon fill="black" stroke="black" points="40.8054,-44.0892 33.8417,-36.1043 34.306,-46.689 40.8054,-44.0892"/>
<g id="a_edge4&#45;headlabel"><a xlink:href="dir_000006_000004.html" target="_top" xlink:title="5">
<text text-anchor="middle" x="44.7765" y="-43.8723" font-family="Helvetica,sans-Serif" font-size="10.00">5</text>
</a>
</g>
</g>
</g>
</svg>
