<?xml version="1.0" encoding="UTF-8" standalone="no"?>
<!DOCTYPE svg PUBLIC "-//W3C//DTD SVG 1.1//EN"
 "http://www.w3.org/Graphics/SVG/1.1/DTD/svg11.dtd">
<!-- Generated by graphviz version 2.38.0 (20140413.2041)
 -->
<!-- Title: tools Pages: 1 -->
<svg width="89pt" height="188pt"
 viewBox="0.00 0.00 89.00 188.00" xmlns="http://www.w3.org/2000/svg" xmlns:xlink="http://www.w3.org/1999/xlink">
<g id="graph0" class="graph" transform="scale(1 1) rotate(0) translate(4 184)">
<title>tools</title>
<polygon fill="white" stroke="none" points="-4,4 -4,-184 85,-184 85,4 -4,4"/>
<!-- dir_4eeb864c4eec08c7d6b9d3b0352cfdde -->
<g id="node1" class="node"><title>dir_4eeb864c4eec08c7d6b9d3b0352cfdde</title>
<g id="a_node1"><a xlink:href="dir_4eeb864c4eec08c7d6b9d3b0352cfdde.html" target="_top" xlink:title="tools">
<polygon fill="#eeeeff" stroke="black" points="54,-180 0,-180 0,-144 54,-144 54,-180"/>
<text text-anchor="middle" x="27" y="-159.5" font-family="Helvetica,sans-Serif" font-size="10.00">tools</text>
</a>
</g>
</g>
<!-- dir_b89c2a9ae890e4bed7d20c515eb3b07e -->
<g id="node2" class="node"><title>dir_b89c2a9ae890e4bed7d20c515eb3b07e</title>
<g id="a_node2"><a xlink:href="dir_b89c2a9ae890e4bed7d20c515eb3b07e.html" target="_top" xlink:title="shapes">
<polygon fill="none" stroke="black" points="54,-108 0,-108 0,-72 54,-72 54,-108"/>
<text text-anchor="middle" x="27" y="-87.5" font-family="Helvetica,sans-Serif" font-size="10.00">shapes</text>
</a>
</g>
</g>
<!-- dir_4eeb864c4eec08c7d6b9d3b0352cfdde&#45;&gt;dir_b89c2a9ae890e4bed7d20c515eb3b07e -->
<g id="edge3" class="edge"><title>dir_4eeb864c4eec08c7d6b9d3b0352cfdde&#45;&gt;dir_b89c2a9ae890e4bed7d20c515eb3b07e</title>
<path fill="none" stroke="black" d="M21.0843,-143.697C20.2886,-135.983 20.0621,-126.712 20.4047,-118.112"/>
<polygon fill="black" stroke="black" points="23.8984,-118.324 21.105,-108.104 16.9154,-117.836 23.8984,-118.324"/>
<g id="a_edge3&#45;headlabel"><a xlink:href="dir_000006_000005.html" target="_top" xlink:title="1">
<text text-anchor="middle" x="26.4799" y="-119.608" font-family="Helvetica,sans-Serif" font-size="10.00">1</text>
</a>
</g>
</g>
<!-- dir_296d53ceaeaa7e099814a6def439fe8a -->
<g id="node3" class="node"><title>dir_296d53ceaeaa7e099814a6def439fe8a</title>
<g id="a_node3"><a xlink:href="dir_296d53ceaeaa7e099814a6def439fe8a.html" target="_top" xlink:title="math">
<polygon fill="none" stroke="black" points="81,-36 27,-36 27,-0 81,-0 81,-36"/>
<text text-anchor="middle" x="54" y="-15.5" font-family="Helvetica,sans-Serif" font-size="10.00">math</text>
</a>
</g>
</g>
<!-- dir_4eeb864c4eec08c7d6b9d3b0352cfdde&#45;&gt;dir_296d53ceaeaa7e099814a6def439fe8a -->
<g id="edge4" class="edge"><title>dir_4eeb864c4eec08c7d6b9d3b0352cfdde&#45;&gt;dir_296d53ceaeaa7e099814a6def439fe8a</title>
<path fill="none" stroke="black" d="M42.6099,-143.774C50.3729,-134.03 58.9459,-121.184 63,-108 69.2198,-87.7736 66.2688,-63.865 62.1475,-45.9241"/>
<polygon fill="black" stroke="black" points="65.5104,-44.9471 59.6461,-36.1232 58.7278,-46.6782 65.5104,-44.9471"/>
<g id="a_edge4&#45;headlabel"><a xlink:href="dir_000006_000004.html" target="_top" xlink:title="5">
<text text-anchor="middle" x="69.1503" y="-45.228" font-family="Helvetica,sans-Serif" font-size="10.00">5</text>
</a>
</g>
</g>
<!-- dir_b89c2a9ae890e4bed7d20c515eb3b07e&#45;&gt;dir_4eeb864c4eec08c7d6b9d3b0352cfdde -->
<g id="edge2" class="edge"><title>dir_b89c2a9ae890e4bed7d20c515eb3b07e&#45;&gt;dir_4eeb864c4eec08c7d6b9d3b0352cfdde</title>
<path fill="none" stroke="black" d="M32.895,-108.104C33.7005,-115.791 33.9369,-125.054 33.604,-133.665"/>
<polygon fill="black" stroke="black" points="30.1085,-133.48 32.9157,-143.697 37.0921,-133.96 30.1085,-133.48"/>
<g id="a_edge2&#45;headlabel"><a xlink:href="dir_000005_000006.html" target="_top" xlink:title="1">
<text text-anchor="middle" x="27.5219" y="-127.2" font-family="Helvetica,sans-Serif" font-size="10.00">1</text>
</a>
</g>
</g>
<!-- dir_b89c2a9ae890e4bed7d20c515eb3b07e&#45;&gt;dir_296d53ceaeaa7e099814a6def439fe8a -->
<g id="edge1" class="edge"><title>dir_b89c2a9ae890e4bed7d20c515eb3b07e&#45;&gt;dir_296d53ceaeaa7e099814a6def439fe8a</title>
<path fill="none" stroke="black" d="M33.6742,-71.6966C36.7149,-63.8132 40.3827,-54.3042 43.7607,-45.5464"/>
<polygon fill="black" stroke="black" points="47.0693,-46.6939 47.4026,-36.1043 40.5383,-44.1748 47.0693,-46.6939"/>
<g id="a_edge1&#45;headlabel"><a xlink:href="dir_000005_000004.html" target="_top" xlink:title="1">
<text text-anchor="middle" x="48.4248" y="-48.5695" font-family="Helvetica,sans-Serif" font-size="10.00">1</text>
</a>
</g>
</g>
</g>
</svg>
