<?xml version="1.0" encoding="UTF-8" standalone="no"?>
<!DOCTYPE svg PUBLIC "-//W3C//DTD SVG 1.1//EN"
 "http://www.w3.org/Graphics/SVG/1.1/DTD/svg11.dtd">
<!-- Generated by graphviz version 2.38.0 (20140413.2041)
 -->
<!-- Title: rectangle_c Pages: 1 -->
<svg width="299pt" height="196pt"
 viewBox="0.00 0.00 299.00 195.71" xmlns="http://www.w3.org/2000/svg" xmlns:xlink="http://www.w3.org/1999/xlink">
<g id="graph0" class="graph" transform="scale(1 1) rotate(0) translate(4 191.709)">
<title>rectangle_c</title>
<polygon fill="white" stroke="none" points="-4,4 -4,-191.709 295,-191.709 295,4 -4,4"/>
<!-- Node1 -->
<g id="node1" class="node"><title>Node1</title>
<polygon fill="#bfbfbf" stroke="black" points="0,-114.5 0,-133.5 67,-133.5 67,-114.5 0,-114.5"/>
<text text-anchor="middle" x="33.5" y="-121.5" font-family="Helvetica,sans-Serif" font-size="10.00">rectangle_c</text>
</g>
<!-- Node2 -->
<g id="node2" class="node"><title>Node2</title>
<g id="a_node2"><a xlink:href="group__datatypes__operate__iterable.html#ga3d679b4617986e31d5e2803971b37af8" target="_top" xlink:title="Return an iterable element when it exists or a default value when it does not. ">
<polygon fill="white" stroke="black" points="213,-152.5 213,-171.5 280,-171.5 280,-152.5 213,-152.5"/>
<text text-anchor="middle" x="246.5" y="-159.5" font-family="Helvetica,sans-Serif" font-size="10.00">edefined_or</text>
</a>
</g>
</g>
<!-- Node1&#45;&gt;Node2 -->
<g id="edge1" class="edge"><title>Node1&#45;&gt;Node2</title>
<path fill="none" stroke="midnightblue" d="M42.1028,-133.584C53.5855,-147.197 76.8119,-171.529 103,-181 139.112,-194.06 183.29,-184.558 212.794,-174.897"/>
<polygon fill="midnightblue" stroke="midnightblue" points="214.275,-178.088 222.581,-171.51 211.986,-171.473 214.275,-178.088"/>
</g>
<!-- Node3 -->
<g id="node3" class="node"><title>Node3</title>
<g id="a_node3"><a xlink:href="group__datatypes__identify__iterable.html#ga3fa2b76e04a4c8bba633d9e5e08004e8" target="_top" xlink:title="Test if no element of a list of values is undefined. ">
<polygon fill="white" stroke="black" points="103,-152.5 103,-171.5 166,-171.5 166,-152.5 103,-152.5"/>
<text text-anchor="middle" x="134.5" y="-159.5" font-family="Helvetica,sans-Serif" font-size="10.00">all_defined</text>
</a>
</g>
</g>
<!-- Node1&#45;&gt;Node3 -->
<g id="edge2" class="edge"><title>Node1&#45;&gt;Node3</title>
<path fill="none" stroke="midnightblue" d="M59.4819,-133.589C71.4411,-138.179 85.9548,-143.75 98.951,-148.739"/>
<polygon fill="midnightblue" stroke="midnightblue" points="97.936,-152.098 108.526,-152.414 100.444,-145.563 97.936,-152.098"/>
</g>
<!-- Node4 -->
<g id="node4" class="node"><title>Node4</title>
<g id="a_node4"><a xlink:href="group__datatypes__operate__scalar.html#gac119300e8c83de0037f2d0a4d9f0ab5c" target="_top" xlink:title="Return a value when it is defined or a default value when it is not. ">
<polygon fill="white" stroke="black" points="103.5,-114.5 103.5,-133.5 165.5,-133.5 165.5,-114.5 103.5,-114.5"/>
<text text-anchor="middle" x="134.5" y="-121.5" font-family="Helvetica,sans-Serif" font-size="10.00">defined_or</text>
</a>
</g>
</g>
<!-- Node1&#45;&gt;Node4 -->
<g id="edge3" class="edge"><title>Node1&#45;&gt;Node4</title>
<path fill="none" stroke="midnightblue" d="M67.1907,-124C75.4391,-124 84.3942,-124 92.9767,-124"/>
<polygon fill="midnightblue" stroke="midnightblue" points="93.1883,-127.5 103.188,-124 93.1882,-120.5 93.1883,-127.5"/>
</g>
<!-- Node5 -->
<g id="node5" class="node"><title>Node5</title>
<g id="a_node5"><a xlink:href="group__datatypes__identify__scalar.html#ga51d7fdb800c10f4b7479d23b89ab8d22" target="_top" xlink:title="Test if a value is defined. ">
<polygon fill="white" stroke="black" points="104,-76.5 104,-95.5 165,-95.5 165,-76.5 104,-76.5"/>
<text text-anchor="middle" x="134.5" y="-83.5" font-family="Helvetica,sans-Serif" font-size="10.00">is_defined</text>
</a>
</g>
</g>
<!-- Node1&#45;&gt;Node5 -->
<g id="edge4" class="edge"><title>Node1&#45;&gt;Node5</title>
<path fill="none" stroke="midnightblue" d="M59.4819,-114.411C71.4411,-109.821 85.9548,-104.25 98.951,-99.2612"/>
<polygon fill="midnightblue" stroke="midnightblue" points="100.444,-102.437 108.526,-95.5859 97.936,-95.9019 100.444,-102.437"/>
</g>
<!-- Node6 -->
<g id="node6" class="node"><title>Node6</title>
<g id="a_node6"><a xlink:href="group__shapes__2d.html#ga9f679c29426c44ee83b4a13b5dd47138" target="_top" xlink:title="A rectangle with edge, fillet, and/or chamfer corners. ">
<polygon fill="white" stroke="black" points="106.5,-38.5 106.5,-57.5 162.5,-57.5 162.5,-38.5 106.5,-38.5"/>
<text text-anchor="middle" x="134.5" y="-45.5" font-family="Helvetica,sans-Serif" font-size="10.00">rectangle</text>
</a>
</g>
</g>
<!-- Node1&#45;&gt;Node6 -->
<g id="edge5" class="edge"><title>Node1&#45;&gt;Node6</title>
<path fill="none" stroke="midnightblue" d="M45.2793,-114.238C58.4684,-102.483 81.6797,-82.4008 103,-67 104.808,-65.694 106.706,-64.3823 108.633,-63.0919"/>
<polygon fill="midnightblue" stroke="midnightblue" points="110.568,-66.0089 117.084,-57.6548 106.78,-60.122 110.568,-66.0089"/>
</g>
<!-- Node6&#45;&gt;Node2 -->
<g id="edge6" class="edge"><title>Node6&#45;&gt;Node2</title>
<path fill="none" stroke="midnightblue" d="M152.947,-57.5498C157.402,-60.3347 162.045,-63.5621 166,-67 180.456,-79.5658 213.284,-120.638 231.919,-144.464"/>
<polygon fill="midnightblue" stroke="midnightblue" points="229.176,-146.638 238.082,-152.377 234.698,-142.336 229.176,-146.638"/>
</g>
<!-- Node7 -->
<g id="node7" class="node"><title>Node7</title>
<g id="a_node7"><a xlink:href="group__datatypes__identify__scalar.html#ga62dbd35f498bfc2a090812b1cf8a37c4" target="_top" xlink:title="Test if a value is not defined. ">
<polygon fill="white" stroke="black" points="213,-76.5 213,-95.5 280,-95.5 280,-76.5 213,-76.5"/>
<text text-anchor="middle" x="246.5" y="-83.5" font-family="Helvetica,sans-Serif" font-size="10.00">not_defined</text>
</a>
</g>
</g>
<!-- Node6&#45;&gt;Node7 -->
<g id="edge7" class="edge"><title>Node6&#45;&gt;Node7</title>
<path fill="none" stroke="midnightblue" d="M162.691,-57.3933C176.469,-62.1529 193.407,-68.0041 208.366,-73.1719"/>
<polygon fill="midnightblue" stroke="midnightblue" points="207.263,-76.4938 217.858,-76.4509 209.549,-69.8774 207.263,-76.4938"/>
</g>
<!-- Node8 -->
<g id="node8" class="node"><title>Node8</title>
<g id="a_node8"><a xlink:href="group__datatypes__identify__scalar.html#ga258e8911375d30ff85a6e52df01dc1c5" target="_top" xlink:title="Test if a value is a single non&#45;iterable value. ">
<polygon fill="white" stroke="black" points="218.5,-38.5 218.5,-57.5 274.5,-57.5 274.5,-38.5 218.5,-38.5"/>
<text text-anchor="middle" x="246.5" y="-45.5" font-family="Helvetica,sans-Serif" font-size="10.00">is_scalar</text>
</a>
</g>
</g>
<!-- Node6&#45;&gt;Node8 -->
<g id="edge8" class="edge"><title>Node6&#45;&gt;Node8</title>
<path fill="none" stroke="midnightblue" d="M162.691,-48C176.309,-48 193.014,-48 207.844,-48"/>
<polygon fill="midnightblue" stroke="midnightblue" points="208.241,-51.5001 218.241,-48 208.241,-44.5001 208.241,-51.5001"/>
</g>
<!-- Node9 -->
<g id="node9" class="node"><title>Node9</title>
<g id="a_node9"><a xlink:href="group__math__bitwise.html#ga31b8c7bc875d9fadd86b49a1ba39d1a4" target="_top" xlink:title="Test if a base&#45;two bit position of an integer value equals a test bit. ">
<polygon fill="white" stroke="black" points="202,-0.5 202,-19.5 291,-19.5 291,-0.5 202,-0.5"/>
<text text-anchor="middle" x="246.5" y="-7.5" font-family="Helvetica,sans-Serif" font-size="10.00">bitwise_is_equal</text>
</a>
</g>
</g>
<!-- Node6&#45;&gt;Node9 -->
<g id="edge9" class="edge"><title>Node6&#45;&gt;Node9</title>
<path fill="none" stroke="midnightblue" d="M162.691,-38.6067C176.469,-33.8471 193.407,-27.9959 208.366,-22.8281"/>
<polygon fill="midnightblue" stroke="midnightblue" points="209.549,-26.1226 217.858,-19.5491 207.263,-19.5062 209.549,-26.1226"/>
</g>
</g>
</svg>
