<?xml version="1.0" encoding="UTF-8" standalone="no"?>
<!DOCTYPE svg PUBLIC "-//W3C//DTD SVG 1.1//EN"
 "http://www.w3.org/Graphics/SVG/1.1/DTD/svg11.dtd">
<!-- Generated by graphviz version 2.38.0 (20140413.2041)
 -->
<!-- Title: get_table_ri Pages: 1 -->
<svg width="180pt" height="66pt"
 viewBox="0.00 0.00 180.00 66.00" xmlns="http://www.w3.org/2000/svg" xmlns:xlink="http://www.w3.org/1999/xlink">
<g id="graph0" class="graph" transform="scale(1 1) rotate(0) translate(4 62)">
<title>get_table_ri</title>
<polygon fill="white" stroke="none" points="-4,4 -4,-62 176,-62 176,4 -4,4"/>
<!-- Node1 -->
<g id="node1" class="node"><title>Node1</title>
<polygon fill="#bfbfbf" stroke="black" points="0,-19.5 0,-38.5 67,-38.5 67,-19.5 0,-19.5"/>
<text text-anchor="middle" x="33.5" y="-26.5" font-family="Helvetica,sans-Serif" font-size="10.00">get_table_ri</text>
</g>
<!-- Node2 -->
<g id="node2" class="node"><title>Node2</title>
<g id="a_node2"><a xlink:href="group__datatypes__table.html#ga8a4429649e8b06d9f492e1a0d2653656" target="_top" xlink:title="Perform some basic validation/checks on a table. ">
<polygon fill="white" stroke="black" points="103,-38.5 103,-57.5 172,-57.5 172,-38.5 103,-38.5"/>
<text text-anchor="middle" x="137.5" y="-45.5" font-family="Helvetica,sans-Serif" font-size="10.00">table_check</text>
</a>
</g>
</g>
<!-- Node1&#45;&gt;Node2 -->
<g id="edge1" class="edge"><title>Node1&#45;&gt;Node2</title>
<path fill="none" stroke="midnightblue" d="M76.973,-36.9116C85.6063,-38.5198 94.5752,-40.1905 102.852,-41.7322"/>
<polygon fill="midnightblue" stroke="midnightblue" points="77.5257,-33.4545 67.0539,-35.064 76.2438,-40.3361 77.5257,-33.4545"/>
</g>
<!-- Node3 -->
<g id="node3" class="node"><title>Node3</title>
<g id="a_node3"><a xlink:href="group__datatypes__table.html#ga717ca569831188092358ee04f7211700" target="_top" xlink:title="Dump a table to the console. ">
<polygon fill="white" stroke="black" points="104,-0.5 104,-19.5 171,-19.5 171,-0.5 104,-0.5"/>
<text text-anchor="middle" x="137.5" y="-7.5" font-family="Helvetica,sans-Serif" font-size="10.00">table_dump</text>
</a>
</g>
</g>
<!-- Node1&#45;&gt;Node3 -->
<g id="edge2" class="edge"><title>Node1&#45;&gt;Node3</title>
<path fill="none" stroke="midnightblue" d="M76.9931,-21.0846C85.988,-19.4091 95.3462,-17.6659 103.906,-16.0715"/>
<polygon fill="midnightblue" stroke="midnightblue" points="76.2438,-17.6639 67.0539,-22.936 77.5257,-24.5455 76.2438,-17.6639"/>
</g>
</g>
</svg>
