<?xml version="1.0" encoding="UTF-8" standalone="no"?>
<!DOCTYPE svg PUBLIC "-//W3C//DTD SVG 1.1//EN"
 "http://www.w3.org/Graphics/SVG/1.1/DTD/svg11.dtd">
<!-- Generated by graphviz version 2.38.0 (20140413.2041)
 -->
<!-- Title: get_line_ip Pages: 1 -->
<svg width="234pt" height="28pt"
 viewBox="0.00 0.00 234.00 28.00" xmlns="http://www.w3.org/2000/svg" xmlns:xlink="http://www.w3.org/1999/xlink">
<g id="graph0" class="graph" transform="scale(1 1) rotate(0) translate(4 24)">
<title>get_line_ip</title>
<polygon fill="white" stroke="none" points="-4,4 -4,-24 230,-24 230,4 -4,4"/>
<!-- Node1 -->
<g id="node1" class="node"><title>Node1</title>
<polygon fill="#bfbfbf" stroke="black" points="0,-0.5 0,-19.5 63,-19.5 63,-0.5 0,-0.5"/>
<text text-anchor="middle" x="31.5" y="-7.5" font-family="Helvetica,sans-Serif" font-size="10.00">get_line_ip</text>
</g>
<!-- Node2 -->
<g id="node2" class="node"><title>Node2</title>
<g id="a_node2"><a xlink:href="group__tools__align.html#ga8572146edee6a1b5b4b87392c2cd1928" target="_top" xlink:title="Align a line or vector to a reference line or vector. ">
<polygon fill="white" stroke="black" points="99,-0.5 99,-19.5 146,-19.5 146,-0.5 99,-0.5"/>
<text text-anchor="middle" x="122.5" y="-7.5" font-family="Helvetica,sans-Serif" font-size="10.00">align_ll</text>
</a>
</g>
</g>
<!-- Node1&#45;&gt;Node2 -->
<g id="edge1" class="edge"><title>Node1&#45;&gt;Node2</title>
<path fill="none" stroke="midnightblue" d="M73.3136,-10C82.1372,-10 91.1554,-10 98.9679,-10"/>
<polygon fill="midnightblue" stroke="midnightblue" points="73.1288,-6.5001 63.1288,-10 73.1287,-13.5001 73.1288,-6.5001"/>
</g>
<!-- Node3 -->
<g id="node3" class="node"><title>Node3</title>
<g id="a_node3"><a xlink:href="group__tools__align.html#gac0c4c3356fb23ec1ddd12e24f958ef6a" target="_top" xlink:title="Align a shapes&#39; x, y, or z Cartesian axis to reference line or vector. ">
<polygon fill="white" stroke="black" points="182,-0.5 182,-19.5 226,-19.5 226,-0.5 182,-0.5"/>
<text text-anchor="middle" x="204" y="-7.5" font-family="Helvetica,sans-Serif" font-size="10.00">align_l</text>
</a>
</g>
</g>
<!-- Node2&#45;&gt;Node3 -->
<g id="edge2" class="edge"><title>Node2&#45;&gt;Node3</title>
<path fill="none" stroke="midnightblue" d="M156.234,-10C164.845,-10 173.909,-10 181.741,-10"/>
<polygon fill="midnightblue" stroke="midnightblue" points="156.069,-6.5001 146.069,-10 156.069,-13.5001 156.069,-6.5001"/>
</g>
</g>
</svg>
