<?xml version="1.0" encoding="UTF-8" standalone="no"?>
<!DOCTYPE svg PUBLIC "-//W3C//DTD SVG 1.1//EN"
 "http://www.w3.org/Graphics/SVG/1.1/DTD/svg11.dtd">
<!-- Generated by graphviz version 2.38.0 (20140413.2041)
 -->
<!-- Title: ellipse Pages: 1 -->
<svg width="359pt" height="142pt"
 viewBox="0.00 0.00 359.00 142.00" xmlns="http://www.w3.org/2000/svg" xmlns:xlink="http://www.w3.org/1999/xlink">
<g id="graph0" class="graph" transform="scale(1 1) rotate(0) translate(4 138)">
<title>ellipse</title>
<polygon fill="white" stroke="none" points="-4,4 -4,-138 355,-138 355,4 -4,4"/>
<!-- Node1 -->
<g id="node1" class="node"><title>Node1</title>
<polygon fill="#bfbfbf" stroke="black" points="0,-57.5 0,-76.5 44,-76.5 44,-57.5 0,-57.5"/>
<text text-anchor="middle" x="22" y="-64.5" font-family="Helvetica,sans-Serif" font-size="10.00">ellipse</text>
</g>
<!-- Node2 -->
<g id="node2" class="node"><title>Node2</title>
<g id="a_node2"><a xlink:href="group__shapes__2d.html#ga9f2b6ba2562760853dd998b0086736a3" target="_top" xlink:title="An ellipse with a removed elliptical core. ">
<polygon fill="white" stroke="black" points="80,-114.5 80,-133.5 135,-133.5 135,-114.5 80,-114.5"/>
<text text-anchor="middle" x="107.5" y="-121.5" font-family="Helvetica,sans-Serif" font-size="10.00">ellipse_c</text>
</a>
</g>
</g>
<!-- Node1&#45;&gt;Node2 -->
<g id="edge1" class="edge"><title>Node1&#45;&gt;Node2</title>
<path fill="none" stroke="midnightblue" d="M45.845,-82.5948C60.7855,-92.7937 79.8206,-105.788 92.5446,-114.474"/>
<polygon fill="midnightblue" stroke="midnightblue" points="47.3971,-79.4166 37.1646,-76.6693 43.4505,-85.198 47.3971,-79.4166"/>
</g>
<!-- Node4 -->
<g id="node4" class="node"><title>Node4</title>
<g id="a_node4"><a xlink:href="group__shapes__2d.html#ga8925cd75276266667fbc1f0896482a7a" target="_top" xlink:title="An ellipse sector. ">
<polygon fill="white" stroke="black" points="80,-38.5 80,-57.5 135,-57.5 135,-38.5 80,-38.5"/>
<text text-anchor="middle" x="107.5" y="-45.5" font-family="Helvetica,sans-Serif" font-size="10.00">ellipse_s</text>
</a>
</g>
</g>
<!-- Node1&#45;&gt;Node4 -->
<g id="edge3" class="edge"><title>Node1&#45;&gt;Node4</title>
<path fill="none" stroke="midnightblue" d="M53.9746,-59.9519C62.4358,-58.0266 71.5308,-55.9571 79.7355,-54.0901"/>
<polygon fill="midnightblue" stroke="midnightblue" points="53.0447,-56.5739 44.0706,-62.2055 54.5979,-63.3995 53.0447,-56.5739"/>
</g>
<!-- Node5 -->
<g id="node5" class="node"><title>Node5</title>
<g id="a_node5"><a xlink:href="group__shapes__2d.html#ga3e186b32450bffe183da7422f0b19f95" target="_top" xlink:title="A sector of an ellipse with a removed elliptical core. ">
<polygon fill="white" stroke="black" points="179.5,-76.5 179.5,-95.5 239.5,-95.5 239.5,-76.5 179.5,-76.5"/>
<text text-anchor="middle" x="209.5" y="-83.5" font-family="Helvetica,sans-Serif" font-size="10.00">ellipse_cs</text>
</a>
</g>
</g>
<!-- Node1&#45;&gt;Node5 -->
<g id="edge10" class="edge"><title>Node1&#45;&gt;Node5</title>
<path fill="none" stroke="midnightblue" d="M54.3908,-70.2152C89.3018,-73.791 145.248,-79.5213 179.264,-83.0054"/>
<polygon fill="midnightblue" stroke="midnightblue" points="54.5838,-66.7168 44.2792,-69.1795 53.8705,-73.6803 54.5838,-66.7168"/>
</g>
<!-- Node11 -->
<g id="node11" class="node"><title>Node11</title>
<g id="a_node11"><a xlink:href="group__shapes__2de.html#ga8a0fdbbb045a70b7207fd84abeb7b18a" target="_top" xlink:title="An extruded ellipse. ">
<polygon fill="white" stroke="black" points="82.5,-0.5 82.5,-19.5 132.5,-19.5 132.5,-0.5 82.5,-0.5"/>
<text text-anchor="middle" x="107.5" y="-7.5" font-family="Helvetica,sans-Serif" font-size="10.00">eellipse</text>
</a>
</g>
</g>
<!-- Node1&#45;&gt;Node11 -->
<g id="edge11" class="edge"><title>Node1&#45;&gt;Node11</title>
<path fill="none" stroke="midnightblue" d="M45.845,-51.4052C60.7855,-41.2063 79.8206,-28.2123 92.5446,-19.5265"/>
<polygon fill="midnightblue" stroke="midnightblue" points="43.4505,-48.802 37.1646,-57.3307 47.3971,-54.5834 43.4505,-48.802"/>
</g>
<!-- Node3 -->
<g id="node3" class="node"><title>Node3</title>
<g id="a_node3"><a xlink:href="group__shapes__2de.html#ga3189db3471cd678cc0f8d88f325186eb" target="_top" xlink:title="An extruded ellipse with a removed elliptical core. ">
<polygon fill="white" stroke="black" points="179.5,-114.5 179.5,-133.5 239.5,-133.5 239.5,-114.5 179.5,-114.5"/>
<text text-anchor="middle" x="209.5" y="-121.5" font-family="Helvetica,sans-Serif" font-size="10.00">eellipse_c</text>
</a>
</g>
</g>
<!-- Node2&#45;&gt;Node3 -->
<g id="edge2" class="edge"><title>Node2&#45;&gt;Node3</title>
<path fill="none" stroke="midnightblue" d="M145.062,-124C156.361,-124 168.65,-124 179.376,-124"/>
<polygon fill="midnightblue" stroke="midnightblue" points="145.036,-120.5 135.036,-124 145.036,-127.5 145.036,-120.5"/>
</g>
<!-- Node4&#45;&gt;Node5 -->
<g id="edge4" class="edge"><title>Node4&#45;&gt;Node5</title>
<path fill="none" stroke="midnightblue" d="M143.407,-61.2646C156.535,-66.2533 171.195,-71.8241 183.274,-76.4141"/>
<polygon fill="midnightblue" stroke="midnightblue" points="144.325,-57.8695 133.734,-57.589 141.839,-64.413 144.325,-57.8695"/>
</g>
<!-- Node8 -->
<g id="node8" class="node"><title>Node8</title>
<g id="a_node8"><a xlink:href="group__shapes__2de.html#gaea89a352b138d105073d0a401b94c024" target="_top" xlink:title="An extruded ellipse sector. ">
<polygon fill="white" stroke="black" points="179.5,-38.5 179.5,-57.5 239.5,-57.5 239.5,-38.5 179.5,-38.5"/>
<text text-anchor="middle" x="209.5" y="-45.5" font-family="Helvetica,sans-Serif" font-size="10.00">eellipse_s</text>
</a>
</g>
</g>
<!-- Node4&#45;&gt;Node8 -->
<g id="edge7" class="edge"><title>Node4&#45;&gt;Node8</title>
<path fill="none" stroke="midnightblue" d="M145.062,-48C156.361,-48 168.65,-48 179.376,-48"/>
<polygon fill="midnightblue" stroke="midnightblue" points="145.036,-44.5001 135.036,-48 145.036,-51.5001 145.036,-44.5001"/>
</g>
<!-- Node9 -->
<g id="node9" class="node"><title>Node9</title>
<g id="a_node9"><a xlink:href="group__tools__edge.html#ga59a75abff2be2d912fc1881eba650c97" target="_top" xlink:title="A 2d edge&#45;finish profile specified by intersection radius. ">
<polygon fill="white" stroke="black" points="171,-0.5 171,-19.5 248,-19.5 248,-0.5 171,-0.5"/>
<text text-anchor="middle" x="209.5" y="-7.5" font-family="Helvetica,sans-Serif" font-size="10.00">edge_profile_r</text>
</a>
</g>
</g>
<!-- Node4&#45;&gt;Node9 -->
<g id="edge8" class="edge"><title>Node4&#45;&gt;Node9</title>
<path fill="none" stroke="midnightblue" d="M143.407,-34.7354C156.535,-29.7467 171.195,-24.1759 183.274,-19.5859"/>
<polygon fill="midnightblue" stroke="midnightblue" points="141.839,-31.587 133.734,-38.411 144.325,-38.1305 141.839,-31.587"/>
</g>
<!-- Node6 -->
<g id="node6" class="node"><title>Node6</title>
<g id="a_node6"><a xlink:href="group__shapes__2de.html#gae015f9c06a0ad064212475dcd1c1eb5c" target="_top" xlink:title="An extruded sector of an ellipse with a removed elliptical core. ">
<polygon fill="white" stroke="black" points="285,-95.5 285,-114.5 350,-114.5 350,-95.5 285,-95.5"/>
<text text-anchor="middle" x="317.5" y="-102.5" font-family="Helvetica,sans-Serif" font-size="10.00">eellipse_cs</text>
</a>
</g>
</g>
<!-- Node5&#45;&gt;Node6 -->
<g id="edge5" class="edge"><title>Node5&#45;&gt;Node6</title>
<path fill="none" stroke="midnightblue" d="M249.609,-93.01C261.18,-95.0842 273.702,-97.3287 284.748,-99.3086"/>
<polygon fill="midnightblue" stroke="midnightblue" points="250.206,-89.5615 239.746,-91.2421 248.971,-96.4516 250.206,-89.5615"/>
</g>
<!-- Node7 -->
<g id="node7" class="node"><title>Node7</title>
<g id="a_node7"><a xlink:href="group__shapes__3d.html#gaf5589d4cfa40aefb7853b4eebc792312" target="_top" xlink:title="An elliptical cross&#45;sectional profile revolved about the z&#45;axis. ">
<polygon fill="white" stroke="black" points="290.5,-57.5 290.5,-76.5 344.5,-76.5 344.5,-57.5 290.5,-57.5"/>
<text text-anchor="middle" x="317.5" y="-64.5" font-family="Helvetica,sans-Serif" font-size="10.00">torus_ep</text>
</a>
</g>
</g>
<!-- Node5&#45;&gt;Node7 -->
<g id="edge6" class="edge"><title>Node5&#45;&gt;Node7</title>
<path fill="none" stroke="midnightblue" d="M249.756,-78.9635C263.256,-76.5436 278.035,-73.8948 290.246,-71.706"/>
<polygon fill="midnightblue" stroke="midnightblue" points="248.971,-75.5484 239.746,-80.7579 250.206,-82.4386 248.971,-75.5484"/>
</g>
<!-- Node10 -->
<g id="node10" class="node"><title>Node10</title>
<g id="a_node10"><a xlink:href="group__tools__edge.html#ga44c40aee1894824493e1a6b5b36e610f" target="_top" xlink:title="A 3d edge&#45;finish additive shape specified by intersection radius. ">
<polygon fill="white" stroke="black" points="284,-0.5 284,-19.5 351,-19.5 351,-0.5 284,-0.5"/>
<text text-anchor="middle" x="317.5" y="-7.5" font-family="Helvetica,sans-Serif" font-size="10.00">edge_add_r</text>
</a>
</g>
</g>
<!-- Node9&#45;&gt;Node10 -->
<g id="edge9" class="edge"><title>Node9&#45;&gt;Node10</title>
<path fill="none" stroke="midnightblue" d="M258.212,-10C266.889,-10 275.756,-10 283.872,-10"/>
<polygon fill="midnightblue" stroke="midnightblue" points="258.17,-6.5001 248.17,-10 258.17,-13.5001 258.17,-6.5001"/>
</g>
</g>
</svg>
