<?xml version="1.0" encoding="UTF-8" standalone="no"?>
<!DOCTYPE svg PUBLIC "-//W3C//DTD SVG 1.1//EN"
 "http://www.w3.org/Graphics/SVG/1.1/DTD/svg11.dtd">
<!-- Generated by graphviz version 2.38.0 (20140413.2041)
 -->
<!-- Title: get_line_tp Pages: 1 -->
<svg width="235pt" height="28pt"
 viewBox="0.00 0.00 235.00 28.00" xmlns="http://www.w3.org/2000/svg" xmlns:xlink="http://www.w3.org/1999/xlink">
<g id="graph0" class="graph" transform="scale(1 1) rotate(0) translate(4 24)">
<title>get_line_tp</title>
<polygon fill="white" stroke="none" points="-4,4 -4,-24 231,-24 231,4 -4,4"/>
<!-- Node1 -->
<g id="node1" class="node"><title>Node1</title>
<polygon fill="#bfbfbf" stroke="black" points="0,-0.5 0,-19.5 64,-19.5 64,-0.5 0,-0.5"/>
<text text-anchor="middle" x="32" y="-7.5" font-family="Helvetica,sans-Serif" font-size="10.00">get_line_tp</text>
</g>
<!-- Node2 -->
<g id="node2" class="node"><title>Node2</title>
<g id="a_node2"><a xlink:href="group__tools__align.html#ga8572146edee6a1b5b4b87392c2cd1928" target="_top" xlink:title="Align a line or vector to a reference line or vector. ">
<polygon fill="white" stroke="black" points="100,-0.5 100,-19.5 147,-19.5 147,-0.5 100,-0.5"/>
<text text-anchor="middle" x="123.5" y="-7.5" font-family="Helvetica,sans-Serif" font-size="10.00">align_ll</text>
</a>
</g>
</g>
<!-- Node1&#45;&gt;Node2 -->
<g id="edge1" class="edge"><title>Node1&#45;&gt;Node2</title>
<path fill="none" stroke="midnightblue" d="M74.2707,-10C83.1185,-10 92.1488,-10 99.9668,-10"/>
<polygon fill="midnightblue" stroke="midnightblue" points="74.0516,-6.5001 64.0516,-10 74.0515,-13.5001 74.0516,-6.5001"/>
</g>
<!-- Node3 -->
<g id="node3" class="node"><title>Node3</title>
<g id="a_node3"><a xlink:href="group__tools__align.html#gac0c4c3356fb23ec1ddd12e24f958ef6a" target="_top" xlink:title="Align a shapes&#39; x, y, or z Cartesian axis to reference line or vector. ">
<polygon fill="white" stroke="black" points="183,-0.5 183,-19.5 227,-19.5 227,-0.5 183,-0.5"/>
<text text-anchor="middle" x="205" y="-7.5" font-family="Helvetica,sans-Serif" font-size="10.00">align_l</text>
</a>
</g>
</g>
<!-- Node2&#45;&gt;Node3 -->
<g id="edge2" class="edge"><title>Node2&#45;&gt;Node3</title>
<path fill="none" stroke="midnightblue" d="M157.234,-10C165.845,-10 174.909,-10 182.741,-10"/>
<polygon fill="midnightblue" stroke="midnightblue" points="157.069,-6.5001 147.069,-10 157.069,-13.5001 157.069,-6.5001"/>
</g>
</g>
</svg>
