<?xml version="1.0" encoding="UTF-8" standalone="no"?>
<!DOCTYPE svg PUBLIC "-//W3C//DTD SVG 1.1//EN"
 "http://www.w3.org/Graphics/SVG/1.1/DTD/svg11.dtd">
<!-- Generated by graphviz version 2.38.0 (20140413.2041)
 -->
<!-- Title: Operations Pages: 1 -->
<svg width="271pt" height="373pt"
 viewBox="0.00 0.00 271.00 372.52" xmlns="http://www.w3.org/2000/svg" xmlns:xlink="http://www.w3.org/1999/xlink">
<g id="graph0" class="graph" transform="scale(1 1) rotate(0) translate(4 368.52)">
<title>Operations</title>
<polygon fill="white" stroke="none" points="-4,4 -4,-368.52 267,-368.52 267,4 -4,4"/>
<!-- Node0 -->
<g id="node1" class="node"><title>Node0</title>
<polygon fill="#bfbfbf" stroke="black" points="0,-178.02 0,-197.02 64,-197.02 64,-178.02 0,-178.02"/>
<text text-anchor="middle" x="32" y="-185.02" font-family="Helvetica,sans-Serif" font-size="10.00">Operations</text>
</g>
<!-- Node6 -->
<g id="node2" class="node"><title>Node6</title>
<g id="a_node2"><a xlink:href="group__datatypes__identify__scalar.html" target="_top" xlink:title="Scalar data type identification. ">
<polygon fill="white" stroke="black" points="202,-342.02 202,-361.02 252,-361.02 252,-342.02 202,-342.02"/>
<text text-anchor="middle" x="227" y="-349.02" font-family="Helvetica,sans-Serif" font-size="10.00">Scalars</text>
</a>
</g>
</g>
<!-- Node0&#45;&gt;Node6 -->
<g id="edge7" class="edge"><title>Node0&#45;&gt;Node6</title>
<path fill="none" stroke="darkgreen" stroke-dasharray="5,2" d="M33.3092,-197.377C34.6786,-222.918 42.0823,-291.616 82,-325.52 115.788,-354.218 170.421,-355.873 201.782,-354.019"/>
<text text-anchor="middle" x="127.5" y="-356.52" font-family="Helvetica,sans-Serif" font-size="10.00">datatypes&#45;base.scad</text>
</g>
<!-- Node1 -->
<g id="node3" class="node"><title>Node1</title>
<g id="a_node3"><a xlink:href="group__datatypes.html" target="_top" xlink:title="Data type definitions and operators. ">
<polygon fill="white" stroke="black" points="196,-289.02 196,-308.02 258,-308.02 258,-289.02 196,-289.02"/>
<text text-anchor="middle" x="227" y="-296.02" font-family="Helvetica,sans-Serif" font-size="10.00">Datatypes</text>
</a>
</g>
</g>
<!-- Node0&#45;&gt;Node1 -->
<g id="edge5" class="edge"><title>Node0&#45;&gt;Node1</title>
<path fill="none" stroke="darkgreen" stroke-dasharray="5,2" d="M34.1595,-197.298C37.3153,-219.009 48.2228,-271.088 82,-293.52 115.862,-316.009 164.757,-311.962 195.956,-306.006"/>
<text text-anchor="middle" x="127.5" y="-313.52" font-family="Helvetica,sans-Serif" font-size="10.00">datatypes&#45;base.scad</text>
</g>
<!-- Node4 -->
<g id="node4" class="node"><title>Node4</title>
<g id="a_node4"><a xlink:href="group__datatypes__operate__list.html" target="_top" xlink:title="List data type operations. ">
<polygon fill="white" stroke="black" points="208,-230.02 208,-249.02 246,-249.02 246,-230.02 208,-230.02"/>
<text text-anchor="middle" x="227" y="-237.02" font-family="Helvetica,sans-Serif" font-size="10.00">Lists</text>
</a>
</g>
</g>
<!-- Node0&#45;&gt;Node4 -->
<g id="edge4" class="edge"><title>Node0&#45;&gt;Node4</title>
<path fill="none" stroke="black" d="M42.6544,-205.884C51.015,-219.63 64.5141,-237.402 82,-245.52 123.532,-264.802 179.27,-253.451 207.682,-245.409"/>
<polygon fill="black" stroke="black" points="45.6888,-204.14 37.7014,-197.179 39.6047,-207.601 45.6888,-204.14"/>
</g>
<!-- Node0&#45;&gt;Node4 -->
<g id="edge12" class="edge"><title>Node0&#45;&gt;Node4</title>
<path fill="none" stroke="darkgreen" stroke-dasharray="5,2" d="M61.138,-197.085C67.9392,-199.292 75.2062,-201.565 82,-203.52 126.822,-216.424 180.248,-229.077 207.704,-235.384"/>
<text text-anchor="middle" x="127.5" y="-229.52" font-family="Helvetica,sans-Serif" font-size="10.00">datatypes&#45;base.scad</text>
</g>
<!-- Node3 -->
<g id="node5" class="node"><title>Node3</title>
<g id="a_node5"><a xlink:href="group__datatypes__operate__iterable.html" target="_top" xlink:title="Iterable data type operations. ">
<polygon fill="white" stroke="black" points="200,-184.02 200,-203.02 254,-203.02 254,-184.02 200,-184.02"/>
<text text-anchor="middle" x="227" y="-191.02" font-family="Helvetica,sans-Serif" font-size="10.00">Iterables</text>
</a>
</g>
</g>
<!-- Node0&#45;&gt;Node3 -->
<g id="edge3" class="edge"><title>Node0&#45;&gt;Node3</title>
<path fill="none" stroke="black" d="M74.2298,-188.802C112.206,-189.983 167.41,-191.699 199.718,-192.703"/>
<polygon fill="black" stroke="black" points="74.1127,-185.297 64.0088,-188.484 73.8952,-192.294 74.1127,-185.297"/>
</g>
<!-- Node0&#45;&gt;Node3 -->
<g id="edge11" class="edge"><title>Node0&#45;&gt;Node3</title>
<path fill="none" stroke="darkgreen" stroke-dasharray="5,2" d="M61.2131,-178.016C67.9473,-176.151 75.1658,-174.478 82,-173.52 122.054,-167.911 133.212,-166.263 173,-173.52 184.223,-175.568 196.157,-179.866 205.854,-183.955"/>
<text text-anchor="middle" x="127.5" y="-176.52" font-family="Helvetica,sans-Serif" font-size="10.00">datatypes&#45;base.scad</text>
</g>
<!-- Node8 -->
<g id="node6" class="node"><title>Node8</title>
<g id="a_node6"><a xlink:href="group__datatypes__identify__list.html" target="_top" xlink:title="List data type identification. ">
<polygon fill="white" stroke="black" points="208,-133.02 208,-152.02 246,-152.02 246,-133.02 208,-133.02"/>
<text text-anchor="middle" x="227" y="-140.02" font-family="Helvetica,sans-Serif" font-size="10.00">Lists</text>
</a>
</g>
</g>
<!-- Node0&#45;&gt;Node8 -->
<g id="edge9" class="edge"><title>Node0&#45;&gt;Node8</title>
<path fill="none" stroke="darkgreen" stroke-dasharray="5,2" d="M43.3475,-177.855C52.6762,-169.788 67.1699,-158.79 82,-153.52 124.999,-138.241 179.641,-139.127 207.638,-140.916"/>
<text text-anchor="middle" x="127.5" y="-156.52" font-family="Helvetica,sans-Serif" font-size="10.00">datatypes&#45;base.scad</text>
</g>
<!-- Node7 -->
<g id="node7" class="node"><title>Node7</title>
<g id="a_node7"><a xlink:href="group__datatypes__identify__iterable.html" target="_top" xlink:title="Iterable data type identification. ">
<polygon fill="white" stroke="black" points="200,-95.0204 200,-114.02 254,-114.02 254,-95.0204 200,-95.0204"/>
<text text-anchor="middle" x="227" y="-102.02" font-family="Helvetica,sans-Serif" font-size="10.00">Iterables</text>
</a>
</g>
</g>
<!-- Node0&#45;&gt;Node7 -->
<g id="edge8" class="edge"><title>Node0&#45;&gt;Node7</title>
<path fill="none" stroke="darkgreen" stroke-dasharray="5,2" d="M37.4421,-177.934C44.6097,-163.656 60.1637,-137.136 82,-124.52 118.826,-103.245 169.559,-101.312 199.938,-102.476"/>
<text text-anchor="middle" x="127.5" y="-127.52" font-family="Helvetica,sans-Serif" font-size="10.00">datatypes&#45;base.scad</text>
</g>
<!-- Node2 -->
<g id="node8" class="node"><title>Node2</title>
<g id="a_node8"><a xlink:href="group__datatypes__operate__scalar.html" target="_top" xlink:title="Scalar data type operations. ">
<polygon fill="white" stroke="black" points="202,-51.0204 202,-70.0204 252,-70.0204 252,-51.0204 202,-51.0204"/>
<text text-anchor="middle" x="227" y="-58.0204" font-family="Helvetica,sans-Serif" font-size="10.00">Scalars</text>
</a>
</g>
</g>
<!-- Node0&#45;&gt;Node2 -->
<g id="edge2" class="edge"><title>Node0&#45;&gt;Node2</title>
<path fill="none" stroke="black" d="M38.6525,-168.045C45.568,-147.684 59.253,-116.275 82,-98.5204 117.363,-70.9182 170.935,-63.2756 201.791,-61.2163"/>
<polygon fill="black" stroke="black" points="35.2429,-167.219 35.5665,-177.809 41.9175,-169.329 35.2429,-167.219"/>
</g>
<!-- Node0&#45;&gt;Node2 -->
<g id="edge10" class="edge"><title>Node0&#45;&gt;Node2</title>
<path fill="none" stroke="darkgreen" stroke-dasharray="5,2" d="M32.9659,-178.002C33.453,-152.06 38.8018,-80.0224 82,-49.5204 118.56,-23.7057 174.146,-39.2384 204.45,-51.0088"/>
<text text-anchor="middle" x="127.5" y="-52.5204" font-family="Helvetica,sans-Serif" font-size="10.00">datatypes&#45;base.scad</text>
</g>
<!-- Node5 -->
<g id="node9" class="node"><title>Node5</title>
<g id="a_node9"><a xlink:href="group__datatypes__identify.html" target="_top" xlink:title="Compile&#45;time data type identification and tests. ">
<polygon fill="white" stroke="black" points="191,-4.02039 191,-23.0204 263,-23.0204 263,-4.02039 191,-4.02039"/>
<text text-anchor="middle" x="227" y="-11.0204" font-family="Helvetica,sans-Serif" font-size="10.00">Identification</text>
</a>
</g>
</g>
<!-- Node0&#45;&gt;Node5 -->
<g id="edge6" class="edge"><title>Node0&#45;&gt;Node5</title>
<path fill="none" stroke="darkgreen" stroke-dasharray="5,2" d="M32.3507,-177.857C30.964,-148.384 31.288,-59.2306 82,-19.5204 112.536,4.39071 158.884,1.54652 190.702,-4.41961"/>
<text text-anchor="middle" x="127.5" y="-22.5204" font-family="Helvetica,sans-Serif" font-size="10.00">datatypes&#45;base.scad</text>
</g>
<!-- Node1&#45;&gt;Node0 -->
<g id="edge1" class="edge"><title>Node1&#45;&gt;Node0</title>
<path fill="none" stroke="black" d="M185.73,-297.091C154.842,-294.202 112.473,-286.182 82,-264.52 57.7201,-247.261 42.6753,-213.825 36.3958,-197.28"/>
<polygon fill="black" stroke="black" points="185.486,-300.583 195.732,-297.887 186.041,-293.605 185.486,-300.583"/>
</g>
</g>
</svg>
