<?xml version="1.0" encoding="UTF-8" standalone="no"?>
<!DOCTYPE svg PUBLIC "-//W3C//DTD SVG 1.1//EN"
 "http://www.w3.org/Graphics/SVG/1.1/DTD/svg11.dtd">
<!-- Generated by graphviz version 2.38.0 (20140413.2041)
 -->
<!-- Title: angle_ll Pages: 1 -->
<svg width="626pt" height="408pt"
 viewBox="0.00 0.00 626.00 408.00" xmlns="http://www.w3.org/2000/svg" xmlns:xlink="http://www.w3.org/1999/xlink">
<g id="graph0" class="graph" transform="scale(1 1) rotate(0) translate(4 404)">
<title>angle_ll</title>
<polygon fill="white" stroke="none" points="-4,4 -4,-404 622,-404 622,4 -4,4"/>
<!-- Node1 -->
<g id="node1" class="node"><title>Node1</title>
<polygon fill="#bfbfbf" stroke="black" points="0,-190.5 0,-209.5 50,-209.5 50,-190.5 0,-190.5"/>
<text text-anchor="middle" x="25" y="-197.5" font-family="Helvetica,sans-Serif" font-size="10.00">angle_ll</text>
</g>
<!-- Node2 -->
<g id="node2" class="node"><title>Node2</title>
<g id="a_node2"><a xlink:href="group__shapes__2d.html#ga89c8cb6f39cf9b045091f8b0434b25d0" target="_top" xlink:title="A rhombus. ">
<polygon fill="white" stroke="black" points="95,-361.5 95,-380.5 149,-380.5 149,-361.5 95,-361.5"/>
<text text-anchor="middle" x="122" y="-368.5" font-family="Helvetica,sans-Serif" font-size="10.00">rhombus</text>
</a>
</g>
</g>
<!-- Node1&#45;&gt;Node2 -->
<g id="edge1" class="edge"><title>Node1&#45;&gt;Node2</title>
<path fill="none" stroke="midnightblue" d="M32.4651,-219.249C41.9415,-246.035 61.2014,-295.482 86,-333 93.0229,-343.625 103.024,-354.155 110.538,-361.426"/>
<polygon fill="midnightblue" stroke="midnightblue" points="35.6907,-217.867 29.1165,-209.559 29.0746,-220.154 35.6907,-217.867"/>
</g>
<!-- Node4 -->
<g id="node4" class="node"><title>Node4</title>
<g id="a_node4"><a xlink:href="group__shapes__2d.html#ga33d2a7677306c346ad6be5a488885d86" target="_top" xlink:title="A general triangle specified by three vertices. ">
<polygon fill="white" stroke="black" points="87.5,-190.5 87.5,-209.5 156.5,-209.5 156.5,-190.5 87.5,-190.5"/>
<text text-anchor="middle" x="122" y="-197.5" font-family="Helvetica,sans-Serif" font-size="10.00">triangle_ppp</text>
</a>
</g>
</g>
<!-- Node1&#45;&gt;Node4 -->
<g id="edge3" class="edge"><title>Node1&#45;&gt;Node4</title>
<path fill="none" stroke="midnightblue" d="M60.6706,-200C69.3603,-200 78.6691,-200 87.3102,-200"/>
<polygon fill="midnightblue" stroke="midnightblue" points="60.4649,-196.5 50.4649,-200 60.4648,-203.5 60.4649,-196.5"/>
</g>
<!-- Node28 -->
<g id="node28" class="node"><title>Node28</title>
<g id="a_node28"><a xlink:href="group__tools__align.html#ga6feefab7f1d6951a75a8d7bb74ecf78e" target="_top" xlink:title="Orient a line or vector to a reference line or vector. ">
<polygon fill="white" stroke="black" points="97,-76.5 97,-95.5 147,-95.5 147,-76.5 97,-76.5"/>
<text text-anchor="middle" x="122" y="-83.5" font-family="Helvetica,sans-Serif" font-size="10.00">orient_ll</text>
</a>
</g>
</g>
<!-- Node1&#45;&gt;Node28 -->
<g id="edge27" class="edge"><title>Node1&#45;&gt;Node28</title>
<path fill="none" stroke="midnightblue" d="M40.554,-182.535C60.828,-158.206 96.8827,-114.941 112.921,-95.695"/>
<polygon fill="midnightblue" stroke="midnightblue" points="37.8127,-180.358 34.0996,-190.28 43.1903,-184.839 37.8127,-180.358"/>
</g>
<!-- Node31 -->
<g id="node31" class="node"><title>Node31</title>
<g id="a_node31"><a xlink:href="group__tools__align.html#ga8572146edee6a1b5b4b87392c2cd1928" target="_top" xlink:title="Align a line or vector to a reference line or vector. ">
<polygon fill="white" stroke="black" points="98.5,-19.5 98.5,-38.5 145.5,-38.5 145.5,-19.5 98.5,-19.5"/>
<text text-anchor="middle" x="122" y="-26.5" font-family="Helvetica,sans-Serif" font-size="10.00">align_ll</text>
</a>
</g>
</g>
<!-- Node1&#45;&gt;Node31 -->
<g id="edge30" class="edge"><title>Node1&#45;&gt;Node31</title>
<path fill="none" stroke="midnightblue" d="M32.4651,-180.751C41.9415,-153.965 61.2014,-104.518 86,-67 93.0229,-56.3751 103.024,-45.8454 110.538,-38.5744"/>
<polygon fill="midnightblue" stroke="midnightblue" points="29.0746,-179.846 29.1165,-190.441 35.6907,-182.133 29.0746,-179.846"/>
</g>
<!-- Node33 -->
<g id="node33" class="node"><title>Node33</title>
<g id="a_node33"><a xlink:href="group__tools__repeat.html#gaa2529fb73f5660932dd812b457188e32" target="_top" xlink:title="Distribute copies of a 2d or 3d shape equally about a z&#45;axis radius. ">
<polygon fill="white" stroke="black" points="86,-304.5 86,-323.5 158,-323.5 158,-304.5 86,-304.5"/>
<text text-anchor="middle" x="122" y="-311.5" font-family="Helvetica,sans-Serif" font-size="10.00">radial_repeat</text>
</a>
</g>
</g>
<!-- Node1&#45;&gt;Node33 -->
<g id="edge32" class="edge"><title>Node1&#45;&gt;Node33</title>
<path fill="none" stroke="midnightblue" d="M40.554,-217.465C60.828,-241.794 96.8827,-285.059 112.921,-304.305"/>
<polygon fill="midnightblue" stroke="midnightblue" points="43.1903,-215.161 34.0996,-209.72 37.8127,-219.642 43.1903,-215.161"/>
</g>
<!-- Node3 -->
<g id="node3" class="node"><title>Node3</title>
<g id="a_node3"><a xlink:href="group__shapes__2de.html#gadc20c762def9f625af7141e22229ff55" target="_top" xlink:title="An extruded rhombus. ">
<polygon fill="white" stroke="black" points="210,-380.5 210,-399.5 269,-399.5 269,-380.5 210,-380.5"/>
<text text-anchor="middle" x="239.5" y="-387.5" font-family="Helvetica,sans-Serif" font-size="10.00">erhombus</text>
</a>
</g>
</g>
<!-- Node2&#45;&gt;Node3 -->
<g id="edge2" class="edge"><title>Node2&#45;&gt;Node3</title>
<path fill="none" stroke="midnightblue" d="M159.479,-377.001C175.785,-379.683 194.721,-382.798 209.968,-385.306"/>
<polygon fill="midnightblue" stroke="midnightblue" points="159.644,-373.481 149.209,-375.311 158.508,-380.388 159.644,-373.481"/>
</g>
<!-- Node5 -->
<g id="node5" class="node"><title>Node5</title>
<g id="a_node5"><a xlink:href="group__shapes__2d.html#ga9fe8dcb93cf5fca81671a04f1ccb562c" target="_top" xlink:title="A general triangle specified by a list of its three vertices. ">
<polygon fill="white" stroke="black" points="209,-266.5 209,-285.5 270,-285.5 270,-266.5 209,-266.5"/>
<text text-anchor="middle" x="239.5" y="-273.5" font-family="Helvetica,sans-Serif" font-size="10.00">triangle_lp</text>
</a>
</g>
</g>
<!-- Node4&#45;&gt;Node5 -->
<g id="edge4" class="edge"><title>Node4&#45;&gt;Node5</title>
<path fill="none" stroke="midnightblue" d="M141.119,-216.865C154.887,-229.084 174.688,-245.424 194,-257 199.764,-260.455 206.271,-263.606 212.494,-266.306"/>
<polygon fill="midnightblue" stroke="midnightblue" points="143.148,-213.981 133.384,-209.869 138.452,-219.172 143.148,-213.981"/>
</g>
<!-- Node7 -->
<g id="node7" class="node"><title>Node7</title>
<g id="a_node7"><a xlink:href="group__shapes__2d.html#gab40e6edfc3c5ab69a4db26301318cd86" target="_top" xlink:title="A general triangle specified by its three side lengths. ">
<polygon fill="white" stroke="black" points="205,-152.5 205,-171.5 274,-171.5 274,-152.5 205,-152.5"/>
<text text-anchor="middle" x="239.5" y="-159.5" font-family="Helvetica,sans-Serif" font-size="10.00">triangle_sss</text>
</a>
</g>
</g>
<!-- Node4&#45;&gt;Node7 -->
<g id="edge6" class="edge"><title>Node4&#45;&gt;Node7</title>
<path fill="none" stroke="midnightblue" d="M161.984,-187.174C177.482,-182.075 195.002,-176.311 209.364,-171.586"/>
<polygon fill="midnightblue" stroke="midnightblue" points="160.551,-183.961 152.146,-190.411 162.738,-190.61 160.551,-183.961"/>
</g>
<!-- Node23 -->
<g id="node23" class="node"><title>Node23</title>
<g id="a_node23"><a xlink:href="group__shapes__2d.html#ga0f93c98a50f652382cce6e2a9080a14d" target="_top" xlink:title="A right&#45;angled triangle specified by its opposite and adjacent side lengths. ">
<polygon fill="white" stroke="black" points="207.5,-114.5 207.5,-133.5 271.5,-133.5 271.5,-114.5 207.5,-114.5"/>
<text text-anchor="middle" x="239.5" y="-121.5" font-family="Helvetica,sans-Serif" font-size="10.00">triangle_ss</text>
</a>
</g>
</g>
<!-- Node4&#45;&gt;Node23 -->
<g id="edge22" class="edge"><title>Node4&#45;&gt;Node23</title>
<path fill="none" stroke="midnightblue" d="M141.119,-183.135C154.887,-170.916 174.688,-154.576 194,-143 199.764,-139.545 206.271,-136.394 212.494,-133.694"/>
<polygon fill="midnightblue" stroke="midnightblue" points="138.452,-180.828 133.384,-190.131 143.148,-186.019 138.452,-180.828"/>
</g>
<!-- Node25 -->
<g id="node25" class="node"><title>Node25</title>
<g id="a_node25"><a xlink:href="group__shapes__2d.html#ga84e0a2811547e6c658909671d9e2bc0b" target="_top" xlink:title="A right&#45;angled triangle specified by a side length and an angle. ">
<polygon fill="white" stroke="black" points="207.5,-228.5 207.5,-247.5 271.5,-247.5 271.5,-228.5 207.5,-228.5"/>
<text text-anchor="middle" x="239.5" y="-235.5" font-family="Helvetica,sans-Serif" font-size="10.00">triangle_sa</text>
</a>
</g>
</g>
<!-- Node4&#45;&gt;Node25 -->
<g id="edge24" class="edge"><title>Node4&#45;&gt;Node25</title>
<path fill="none" stroke="midnightblue" d="M161.984,-212.826C177.482,-217.925 195.002,-223.689 209.364,-228.414"/>
<polygon fill="midnightblue" stroke="midnightblue" points="162.738,-209.39 152.146,-209.589 160.551,-216.039 162.738,-209.39"/>
</g>
<!-- Node27 -->
<g id="node27" class="node"><title>Node27</title>
<g id="a_node27"><a xlink:href="group__shapes__2de.html#ga115ebc47b0630da820f163c0627c9b18" target="_top" xlink:title="An extruded general triangle specified by three vertices. ">
<polygon fill="white" stroke="black" points="202.5,-190.5 202.5,-209.5 276.5,-209.5 276.5,-190.5 202.5,-190.5"/>
<text text-anchor="middle" x="239.5" y="-197.5" font-family="Helvetica,sans-Serif" font-size="10.00">etriangle_ppp</text>
</a>
</g>
</g>
<!-- Node4&#45;&gt;Node27 -->
<g id="edge26" class="edge"><title>Node4&#45;&gt;Node27</title>
<path fill="none" stroke="midnightblue" d="M167.071,-200C178.645,-200 190.996,-200 202.117,-200"/>
<polygon fill="midnightblue" stroke="midnightblue" points="166.718,-196.5 156.718,-200 166.718,-203.5 166.718,-196.5"/>
</g>
<!-- Node6 -->
<g id="node6" class="node"><title>Node6</title>
<g id="a_node6"><a xlink:href="group__shapes__2de.html#ga919151e4d8f40c9218c63b867fb80b7b" target="_top" xlink:title="An extruded general triangle specified by a list of its three vertices. ">
<polygon fill="white" stroke="black" points="325,-304.5 325,-323.5 391,-323.5 391,-304.5 325,-304.5"/>
<text text-anchor="middle" x="358" y="-311.5" font-family="Helvetica,sans-Serif" font-size="10.00">etriangle_lp</text>
</a>
</g>
</g>
<!-- Node5&#45;&gt;Node6 -->
<g id="edge5" class="edge"><title>Node5&#45;&gt;Node6</title>
<path fill="none" stroke="midnightblue" d="M279.822,-288.826C295.453,-293.925 313.126,-299.689 327.612,-304.414"/>
<polygon fill="midnightblue" stroke="midnightblue" points="280.49,-285.363 269.898,-285.589 278.32,-292.018 280.49,-285.363"/>
</g>
<!-- Node8 -->
<g id="node8" class="node"><title>Node8</title>
<g id="a_node8"><a xlink:href="group__shapes__2d.html#ga5321277acf52177e1c7928c13377dd00" target="_top" xlink:title="A general triangle specified by a list of its three side lengths. ">
<polygon fill="white" stroke="black" points="327.5,-228.5 327.5,-247.5 388.5,-247.5 388.5,-228.5 327.5,-228.5"/>
<text text-anchor="middle" x="358" y="-235.5" font-family="Helvetica,sans-Serif" font-size="10.00">triangle_ls</text>
</a>
</g>
</g>
<!-- Node7&#45;&gt;Node8 -->
<g id="edge7" class="edge"><title>Node7&#45;&gt;Node8</title>
<path fill="none" stroke="midnightblue" d="M276.922,-176.05C279.733,-177.582 282.462,-179.234 285,-181 304.096,-194.289 302.466,-204.939 321,-219 325.617,-222.503 330.969,-225.711 336.113,-228.454"/>
<polygon fill="midnightblue" stroke="midnightblue" points="278.309,-172.832 267.791,-171.562 275.221,-179.114 278.309,-172.832"/>
</g>
<!-- Node15 -->
<g id="node15" class="node"><title>Node15</title>
<g id="a_node15"><a xlink:href="group__shapes__2d.html#gac6b0e8a6784a03e427d8b14eee7d90ca" target="_top" xlink:title="A general triangle specified by two sides and the included angle. ">
<polygon fill="white" stroke="black" points="323.5,-190.5 323.5,-209.5 392.5,-209.5 392.5,-190.5 323.5,-190.5"/>
<text text-anchor="middle" x="358" y="-197.5" font-family="Helvetica,sans-Serif" font-size="10.00">triangle_sas</text>
</a>
</g>
</g>
<!-- Node7&#45;&gt;Node15 -->
<g id="edge14" class="edge"><title>Node7&#45;&gt;Node15</title>
<path fill="none" stroke="midnightblue" d="M279.822,-174.826C295.453,-179.925 313.126,-185.689 327.612,-190.414"/>
<polygon fill="midnightblue" stroke="midnightblue" points="280.49,-171.363 269.898,-171.589 278.32,-178.018 280.49,-171.363"/>
</g>
<!-- Node17 -->
<g id="node17" class="node"><title>Node17</title>
<g id="a_node17"><a xlink:href="group__shapes__2d.html#gaaefcea1b06acb7b1633e86f657341701" target="_top" xlink:title="A general triangle specified by a side and two adjacent angles. ">
<polygon fill="white" stroke="black" points="323.5,-152.5 323.5,-171.5 392.5,-171.5 392.5,-152.5 323.5,-152.5"/>
<text text-anchor="middle" x="358" y="-159.5" font-family="Helvetica,sans-Serif" font-size="10.00">triangle_asa</text>
</a>
</g>
</g>
<!-- Node7&#45;&gt;Node17 -->
<g id="edge16" class="edge"><title>Node7&#45;&gt;Node17</title>
<path fill="none" stroke="midnightblue" d="M284.301,-162C297.238,-162 311.19,-162 323.379,-162"/>
<polygon fill="midnightblue" stroke="midnightblue" points="284.197,-158.5 274.197,-162 284.197,-165.5 284.197,-158.5"/>
</g>
<!-- Node19 -->
<g id="node19" class="node"><title>Node19</title>
<g id="a_node19"><a xlink:href="group__shapes__2d.html#gad0730473c871f346877e8ef91e2bdfd4" target="_top" xlink:title="A general triangle specified by a side, one adjacent angle and the opposite angle. ">
<polygon fill="white" stroke="black" points="323.5,-114.5 323.5,-133.5 392.5,-133.5 392.5,-114.5 323.5,-114.5"/>
<text text-anchor="middle" x="358" y="-121.5" font-family="Helvetica,sans-Serif" font-size="10.00">triangle_aas</text>
</a>
</g>
</g>
<!-- Node7&#45;&gt;Node19 -->
<g id="edge18" class="edge"><title>Node7&#45;&gt;Node19</title>
<path fill="none" stroke="midnightblue" d="M279.822,-149.174C295.453,-144.075 313.126,-138.311 327.612,-133.586"/>
<polygon fill="midnightblue" stroke="midnightblue" points="278.32,-145.982 269.898,-152.411 280.49,-152.637 278.32,-145.982"/>
</g>
<!-- Node21 -->
<g id="node21" class="node"><title>Node21</title>
<g id="a_node21"><a xlink:href="group__shapes__2de.html#ga4940596130c3cd1e62fea77569459a52" target="_top" xlink:title="An extruded general triangle specified by its three side lengths. ">
<polygon fill="white" stroke="black" points="321,-76.5 321,-95.5 395,-95.5 395,-76.5 321,-76.5"/>
<text text-anchor="middle" x="358" y="-83.5" font-family="Helvetica,sans-Serif" font-size="10.00">etriangle_sss</text>
</a>
</g>
</g>
<!-- Node7&#45;&gt;Node21 -->
<g id="edge20" class="edge"><title>Node7&#45;&gt;Node21</title>
<path fill="none" stroke="midnightblue" d="M276.922,-147.95C279.733,-146.418 282.462,-144.766 285,-143 304.096,-129.711 302.466,-119.061 321,-105 325.617,-101.497 330.969,-98.2893 336.113,-95.5464"/>
<polygon fill="midnightblue" stroke="midnightblue" points="275.221,-144.886 267.791,-152.438 278.309,-151.168 275.221,-144.886"/>
</g>
<!-- Node22 -->
<g id="node22" class="node"><title>Node22</title>
<g id="a_node22"><a xlink:href="group__shapes__3d.html#ga66f0c4a748f33cc1fff3343655b17f45" target="_top" xlink:title="A cone. ">
<polygon fill="white" stroke="black" points="339,-38.5 339,-57.5 377,-57.5 377,-38.5 339,-38.5"/>
<text text-anchor="middle" x="358" y="-45.5" font-family="Helvetica,sans-Serif" font-size="10.00">cone</text>
</a>
</g>
</g>
<!-- Node7&#45;&gt;Node22 -->
<g id="edge21" class="edge"><title>Node7&#45;&gt;Node22</title>
<path fill="none" stroke="midnightblue" d="M279.735,-147.336C281.605,-146.004 283.377,-144.561 285,-143 311.937,-117.09 295.149,-93.9938 321,-67 325.888,-61.896 332.45,-57.8803 338.633,-54.8815"/>
<polygon fill="midnightblue" stroke="midnightblue" points="277.863,-144.377 271.049,-152.489 281.435,-150.397 277.863,-144.377"/>
</g>
<!-- Node9 -->
<g id="node9" class="node"><title>Node9</title>
<g id="a_node9"><a xlink:href="group__shapes__2d.html#ga7eefb280ad124a8d35eb4218e5f0bdad" target="_top" xlink:title="A general triangle specified by its sides with a removed triangular core. ">
<polygon fill="white" stroke="black" points="432.5,-266.5 432.5,-285.5 503.5,-285.5 503.5,-266.5 432.5,-266.5"/>
<text text-anchor="middle" x="468" y="-273.5" font-family="Helvetica,sans-Serif" font-size="10.00">triangle_ls_c</text>
</a>
</g>
</g>
<!-- Node8&#45;&gt;Node9 -->
<g id="edge8" class="edge"><title>Node8&#45;&gt;Node9</title>
<path fill="none" stroke="midnightblue" d="M395.867,-250.972C410.256,-256.034 426.455,-261.734 439.756,-266.414"/>
<polygon fill="midnightblue" stroke="midnightblue" points="396.848,-247.607 386.253,-247.589 394.524,-254.21 396.848,-247.607"/>
</g>
<!-- Node12 -->
<g id="node12" class="node"><title>Node12</title>
<g id="a_node12"><a xlink:href="group__shapes__2d.html#ga7452bf5414a3677ec806a31aed6b61dd" target="_top" xlink:title="A two&#45;dimensional star. ">
<polygon fill="white" stroke="black" points="446,-323.5 446,-342.5 490,-342.5 490,-323.5 446,-323.5"/>
<text text-anchor="middle" x="468" y="-330.5" font-family="Helvetica,sans-Serif" font-size="10.00">star2d</text>
</a>
</g>
</g>
<!-- Node8&#45;&gt;Node12 -->
<g id="edge11" class="edge"><title>Node8&#45;&gt;Node12</title>
<path fill="none" stroke="midnightblue" d="M388.597,-252.586C390.819,-253.992 392.98,-255.468 395,-257 395.113,-257.085 438.557,-302.962 457.898,-323.387"/>
<polygon fill="midnightblue" stroke="midnightblue" points="390.295,-249.525 379.887,-247.546 386.79,-255.584 390.295,-249.525"/>
</g>
<!-- Node14 -->
<g id="node14" class="node"><title>Node14</title>
<g id="a_node14"><a xlink:href="group__shapes__2de.html#gace35f9581cef6d5c20c3fd1d922284d1" target="_top" xlink:title="An extruded general triangle specified by a list of its three side lengths. ">
<polygon fill="white" stroke="black" points="435,-228.5 435,-247.5 501,-247.5 501,-228.5 435,-228.5"/>
<text text-anchor="middle" x="468" y="-235.5" font-family="Helvetica,sans-Serif" font-size="10.00">etriangle_ls</text>
</a>
</g>
</g>
<!-- Node8&#45;&gt;Node14 -->
<g id="edge13" class="edge"><title>Node8&#45;&gt;Node14</title>
<path fill="none" stroke="midnightblue" d="M398.662,-238C410.581,-238 423.504,-238 434.871,-238"/>
<polygon fill="midnightblue" stroke="midnightblue" points="398.512,-234.5 388.511,-238 398.511,-241.5 398.512,-234.5"/>
</g>
<!-- Node10 -->
<g id="node10" class="node"><title>Node10</title>
<g id="a_node10"><a xlink:href="group__shapes__2de.html#ga0c99582ccf3d5b1425c99001b228c202" target="_top" xlink:title="A general triangle specified by its sides with a removed triangular core. ">
<polygon fill="white" stroke="black" points="541,-238.5 541,-257.5 618,-257.5 618,-238.5 541,-238.5"/>
<text text-anchor="middle" x="579.5" y="-245.5" font-family="Helvetica,sans-Serif" font-size="10.00">etriangle_ls_c</text>
</a>
</g>
</g>
<!-- Node9&#45;&gt;Node10 -->
<g id="edge9" class="edge"><title>Node9&#45;&gt;Node10</title>
<path fill="none" stroke="midnightblue" d="M513.394,-264.648C522.569,-262.302 532.147,-259.853 541.046,-257.577"/>
<polygon fill="midnightblue" stroke="midnightblue" points="512.468,-261.272 503.646,-267.141 514.202,-268.054 512.468,-261.272"/>
</g>
<!-- Node11 -->
<g id="node11" class="node"><title>Node11</title>
<g id="a_node11"><a xlink:href="group__shapes__3d.html#gaa3137155089f4d50c13ebea05402edd0" target="_top" xlink:title="A triangular cross&#45;sectional profile revolved about the z&#45;axis. ">
<polygon fill="white" stroke="black" points="553.5,-276.5 553.5,-295.5 605.5,-295.5 605.5,-276.5 553.5,-276.5"/>
<text text-anchor="middle" x="579.5" y="-283.5" font-family="Helvetica,sans-Serif" font-size="10.00">torus_tp</text>
</a>
</g>
</g>
<!-- Node9&#45;&gt;Node11 -->
<g id="edge10" class="edge"><title>Node9&#45;&gt;Node11</title>
<path fill="none" stroke="midnightblue" d="M513.776,-280.089C527.312,-281.325 541.69,-282.638 553.447,-283.712"/>
<polygon fill="midnightblue" stroke="midnightblue" points="513.923,-276.588 503.646,-279.164 513.287,-283.559 513.923,-276.588"/>
</g>
<!-- Node13 -->
<g id="node13" class="node"><title>Node13</title>
<g id="a_node13"><a xlink:href="group__shapes__2de.html#ga69ece32102ccb27e9985975fa4590251" target="_top" xlink:title="An extruded two&#45;dimensional star. ">
<polygon fill="white" stroke="black" points="555,-323.5 555,-342.5 604,-342.5 604,-323.5 555,-323.5"/>
<text text-anchor="middle" x="579.5" y="-330.5" font-family="Helvetica,sans-Serif" font-size="10.00">estar2d</text>
</a>
</g>
</g>
<!-- Node12&#45;&gt;Node13 -->
<g id="edge12" class="edge"><title>Node12&#45;&gt;Node13</title>
<path fill="none" stroke="midnightblue" d="M500.324,-333C517.655,-333 538.846,-333 554.791,-333"/>
<polygon fill="midnightblue" stroke="midnightblue" points="500.113,-329.5 490.113,-333 500.113,-336.5 500.113,-329.5"/>
</g>
<!-- Node16 -->
<g id="node16" class="node"><title>Node16</title>
<g id="a_node16"><a xlink:href="group__shapes__2de.html#gae4dc22fae0c22daa5d4844755cd268ac" target="_top" xlink:title="An extruded general triangle specified by two sides and the included angle. ">
<polygon fill="white" stroke="black" points="431,-190.5 431,-209.5 505,-209.5 505,-190.5 431,-190.5"/>
<text text-anchor="middle" x="468" y="-197.5" font-family="Helvetica,sans-Serif" font-size="10.00">etriangle_sas</text>
</a>
</g>
</g>
<!-- Node15&#45;&gt;Node16 -->
<g id="edge15" class="edge"><title>Node15&#45;&gt;Node16</title>
<path fill="none" stroke="midnightblue" d="M402.836,-200C412.131,-200 421.844,-200 430.817,-200"/>
<polygon fill="midnightblue" stroke="midnightblue" points="402.58,-196.5 392.58,-200 402.58,-203.5 402.58,-196.5"/>
</g>
<!-- Node18 -->
<g id="node18" class="node"><title>Node18</title>
<g id="a_node18"><a xlink:href="group__shapes__2de.html#ga5b1240a97e34583d10011e5d0044ca28" target="_top" xlink:title="An extruded general triangle specified by a side and two adjacent angles. ">
<polygon fill="white" stroke="black" points="431,-152.5 431,-171.5 505,-171.5 505,-152.5 431,-152.5"/>
<text text-anchor="middle" x="468" y="-159.5" font-family="Helvetica,sans-Serif" font-size="10.00">etriangle_asa</text>
</a>
</g>
</g>
<!-- Node17&#45;&gt;Node18 -->
<g id="edge17" class="edge"><title>Node17&#45;&gt;Node18</title>
<path fill="none" stroke="midnightblue" d="M402.836,-162C412.131,-162 421.844,-162 430.817,-162"/>
<polygon fill="midnightblue" stroke="midnightblue" points="402.58,-158.5 392.58,-162 402.58,-165.5 402.58,-158.5"/>
</g>
<!-- Node20 -->
<g id="node20" class="node"><title>Node20</title>
<g id="a_node20"><a xlink:href="group__shapes__2de.html#ga8a3300cf4ca82dad9002965960a76a9c" target="_top" xlink:title="An extruded general triangle specified by a side, one adjacent angle and the opposite angle...">
<polygon fill="white" stroke="black" points="431,-114.5 431,-133.5 505,-133.5 505,-114.5 431,-114.5"/>
<text text-anchor="middle" x="468" y="-121.5" font-family="Helvetica,sans-Serif" font-size="10.00">etriangle_aas</text>
</a>
</g>
</g>
<!-- Node19&#45;&gt;Node20 -->
<g id="edge19" class="edge"><title>Node19&#45;&gt;Node20</title>
<path fill="none" stroke="midnightblue" d="M402.836,-124C412.131,-124 421.844,-124 430.817,-124"/>
<polygon fill="midnightblue" stroke="midnightblue" points="402.58,-120.5 392.58,-124 402.58,-127.5 402.58,-120.5"/>
</g>
<!-- Node24 -->
<g id="node24" class="node"><title>Node24</title>
<g id="a_node24"><a xlink:href="group__shapes__2de.html#gac86de6d90f92b19be2fda894d97dfad4" target="_top" xlink:title="An extruded right&#45;angled triangle specified by its opposite and adjacent side lengths. ">
<polygon fill="white" stroke="black" points="323.5,-0.5 323.5,-19.5 392.5,-19.5 392.5,-0.5 323.5,-0.5"/>
<text text-anchor="middle" x="358" y="-7.5" font-family="Helvetica,sans-Serif" font-size="10.00">etriangle_ss</text>
</a>
</g>
</g>
<!-- Node23&#45;&gt;Node24 -->
<g id="edge23" class="edge"><title>Node23&#45;&gt;Node24</title>
<path fill="none" stroke="midnightblue" d="M279.735,-109.336C281.605,-108.004 283.377,-106.561 285,-105 311.937,-79.0896 295.149,-55.9938 321,-29 324.519,-25.3251 328.907,-22.2144 333.395,-19.6412"/>
<polygon fill="midnightblue" stroke="midnightblue" points="277.863,-106.377 271.049,-114.489 281.435,-112.397 277.863,-106.377"/>
</g>
<!-- Node26 -->
<g id="node26" class="node"><title>Node26</title>
<g id="a_node26"><a xlink:href="group__shapes__2de.html#gaa80e1bde5ce902feba29d0d57169b8d5" target="_top" xlink:title="An extruded right&#45;angled triangle specified by a side length and an angle. ">
<polygon fill="white" stroke="black" points="323.5,-266.5 323.5,-285.5 392.5,-285.5 392.5,-266.5 323.5,-266.5"/>
<text text-anchor="middle" x="358" y="-273.5" font-family="Helvetica,sans-Serif" font-size="10.00">etriangle_sa</text>
</a>
</g>
</g>
<!-- Node25&#45;&gt;Node26 -->
<g id="edge25" class="edge"><title>Node25&#45;&gt;Node26</title>
<path fill="none" stroke="midnightblue" d="M279.822,-250.826C295.453,-255.925 313.126,-261.689 327.612,-266.414"/>
<polygon fill="midnightblue" stroke="midnightblue" points="280.49,-247.363 269.898,-247.589 278.32,-254.018 280.49,-247.363"/>
</g>
<!-- Node29 -->
<g id="node29" class="node"><title>Node29</title>
<g id="a_node29"><a xlink:href="group__tools__polytope.html#ga00b574079f19251be7281151d11db8fa" target="_top" xlink:title="Label the vertices, paths, and edges of a polytope. ">
<polygon fill="white" stroke="black" points="194,-76.5 194,-95.5 285,-95.5 285,-76.5 194,-76.5"/>
<text text-anchor="middle" x="239.5" y="-83.5" font-family="Helvetica,sans-Serif" font-size="10.00">polytope_number</text>
</a>
</g>
</g>
<!-- Node28&#45;&gt;Node29 -->
<g id="edge28" class="edge"><title>Node28&#45;&gt;Node29</title>
<path fill="none" stroke="midnightblue" d="M157.251,-86C168.709,-86 181.655,-86 193.79,-86"/>
<polygon fill="midnightblue" stroke="midnightblue" points="157.213,-82.5001 147.213,-86 157.213,-89.5001 157.213,-82.5001"/>
</g>
<!-- Node30 -->
<g id="node30" class="node"><title>Node30</title>
<g id="a_node30"><a xlink:href="group__tools__polytope.html#ga530c86f9c90ce074aa7adc29834f0539" target="_top" xlink:title="Assemble a polytope skeletal frame using child objects. ">
<polygon fill="white" stroke="black" points="198,-38.5 198,-57.5 281,-57.5 281,-38.5 198,-38.5"/>
<text text-anchor="middle" x="239.5" y="-45.5" font-family="Helvetica,sans-Serif" font-size="10.00">polytope_frame</text>
</a>
</g>
</g>
<!-- Node28&#45;&gt;Node30 -->
<g id="edge29" class="edge"><title>Node28&#45;&gt;Node30</title>
<path fill="none" stroke="midnightblue" d="M157.093,-74.7833C173.719,-69.3132 193.508,-62.8026 209.412,-57.5702"/>
<polygon fill="midnightblue" stroke="midnightblue" points="155.618,-71.584 147.213,-78.034 157.806,-78.2333 155.618,-71.584"/>
</g>
<!-- Node32 -->
<g id="node32" class="node"><title>Node32</title>
<g id="a_node32"><a xlink:href="group__tools__align.html#gac0c4c3356fb23ec1ddd12e24f958ef6a" target="_top" xlink:title="Align a shapes&#39; x, y, or z Cartesian axis to reference line or vector. ">
<polygon fill="white" stroke="black" points="217.5,-0.5 217.5,-19.5 261.5,-19.5 261.5,-0.5 217.5,-0.5"/>
<text text-anchor="middle" x="239.5" y="-7.5" font-family="Helvetica,sans-Serif" font-size="10.00">align_l</text>
</a>
</g>
</g>
<!-- Node31&#45;&gt;Node32 -->
<g id="edge31" class="edge"><title>Node31&#45;&gt;Node32</title>
<path fill="none" stroke="midnightblue" d="M155.637,-23.6312C175.36,-20.3867 199.936,-16.3439 217.183,-13.5067"/>
<polygon fill="midnightblue" stroke="midnightblue" points="154.843,-20.2146 145.544,-25.2915 155.979,-27.1218 154.843,-20.2146"/>
</g>
<!-- Node33&#45;&gt;Node12 -->
<g id="edge33" class="edge"><title>Node33&#45;&gt;Node12</title>
<path fill="none" stroke="midnightblue" d="M161.368,-326.227C171.84,-329.024 183.262,-331.588 194,-333 287.278,-345.265 400.038,-338.51 445.986,-334.856"/>
<polygon fill="midnightblue" stroke="midnightblue" points="162.246,-322.838 151.672,-323.503 160.353,-329.577 162.246,-322.838"/>
</g>
<!-- Node34 -->
<g id="node34" class="node"><title>Node34</title>
<g id="a_node34"><a xlink:href="group__shapes__3d.html#gab99dacd3036b965579d68b1d3b7ee2d8" target="_top" xlink:title="A three&#45;dimensional star. ">
<polygon fill="white" stroke="black" points="217.5,-304.5 217.5,-323.5 261.5,-323.5 261.5,-304.5 217.5,-304.5"/>
<text text-anchor="middle" x="239.5" y="-311.5" font-family="Helvetica,sans-Serif" font-size="10.00">star3d</text>
</a>
</g>
</g>
<!-- Node33&#45;&gt;Node34 -->
<g id="edge34" class="edge"><title>Node33&#45;&gt;Node34</title>
<path fill="none" stroke="midnightblue" d="M168.497,-314C185.291,-314 203.534,-314 217.185,-314"/>
<polygon fill="midnightblue" stroke="midnightblue" points="168.281,-310.5 158.281,-314 168.281,-317.5 168.281,-310.5"/>
</g>
</g>
</svg>
