<?xml version="1.0" encoding="UTF-8" standalone="no"?>
<!DOCTYPE svg PUBLIC "-//W3C//DTD SVG 1.1//EN"
 "http://www.w3.org/Graphics/SVG/1.1/DTD/svg11.dtd">
<!-- Generated by graphviz version 2.38.0 (20140413.2041)
 -->
<!-- Title: System Pages: 1 -->
<svg width="223pt" height="118pt"
 viewBox="0.00 0.00 223.00 118.00" xmlns="http://www.w3.org/2000/svg" xmlns:xlink="http://www.w3.org/1999/xlink">
<g id="graph0" class="graph" transform="scale(1 1) rotate(0) translate(4 114)">
<title>System</title>
<polygon fill="white" stroke="none" points="-4,4 -4,-114 219,-114 219,4 -4,4"/>
<!-- Node3 -->
<g id="node1" class="node"><title>Node3</title>
<g id="a_node1"><a xlink:href="group__constants__euclidean.html" target="_top" xlink:title="Euclidean space axis mapping. ">
<polygon fill="white" stroke="black" points="154.5,-90.5 154.5,-109.5 213.5,-109.5 213.5,-90.5 154.5,-90.5"/>
<text text-anchor="middle" x="184" y="-97.5" font-family="Helvetica,sans-Serif" font-size="10.00">Euclidean</text>
</a>
</g>
</g>
<!-- Node0 -->
<g id="node2" class="node"><title>Node0</title>
<polygon fill="#bfbfbf" stroke="black" points="0,-35.5 0,-54.5 50,-54.5 50,-35.5 0,-35.5"/>
<text text-anchor="middle" x="25" y="-42.5" font-family="Helvetica,sans-Serif" font-size="10.00">System</text>
</g>
<!-- Node0&#45;&gt;Node3 -->
<g id="edge4" class="edge"><title>Node0&#45;&gt;Node3</title>
<path fill="none" stroke="darkgreen" stroke-dasharray="5,2" d="M39.0474,-54.5353C47.0642,-60.015 57.7345,-66.6517 68,-71 96.2498,-82.966 130.572,-90.8269 154.329,-95.3076"/>
<text text-anchor="middle" x="101.5" y="-93" font-family="Helvetica,sans-Serif" font-size="10.00">constants.scad</text>
</g>
<!-- Node2 -->
<g id="node3" class="node"><title>Node2</title>
<g id="a_node3"><a xlink:href="group__constants__general.html" target="_top" xlink:title="General design constants. ">
<polygon fill="white" stroke="black" points="159,-52.5 159,-71.5 209,-71.5 209,-52.5 159,-52.5"/>
<text text-anchor="middle" x="184" y="-59.5" font-family="Helvetica,sans-Serif" font-size="10.00">General</text>
</a>
</g>
</g>
<!-- Node0&#45;&gt;Node2 -->
<g id="edge3" class="edge"><title>Node0&#45;&gt;Node2</title>
<path fill="none" stroke="darkgreen" stroke-dasharray="5,2" d="M50.1872,-47.619C79.6904,-50.8136 129.27,-56.1821 158.785,-59.378"/>
<text text-anchor="middle" x="101.5" y="-59" font-family="Helvetica,sans-Serif" font-size="10.00">constants.scad</text>
</g>
<!-- Node1 -->
<g id="node4" class="node"><title>Node1</title>
<g id="a_node4"><a xlink:href="group__constants.html" target="_top" xlink:title="Design constant definitions. ">
<polygon fill="white" stroke="black" points="153,-0.5 153,-19.5 215,-19.5 215,-0.5 153,-0.5"/>
<text text-anchor="middle" x="184" y="-7.5" font-family="Helvetica,sans-Serif" font-size="10.00">Constants</text>
</a>
</g>
</g>
<!-- Node0&#45;&gt;Node1 -->
<g id="edge2" class="edge"><title>Node0&#45;&gt;Node1</title>
<path fill="none" stroke="darkgreen" stroke-dasharray="5,2" d="M50.378,-38.3931C56.1421,-36.8926 62.2768,-35.3458 68,-34 96.5897,-27.2774 129.403,-20.5239 152.642,-15.9015"/>
<text text-anchor="middle" x="101.5" y="-37" font-family="Helvetica,sans-Serif" font-size="10.00">constants.scad</text>
</g>
<!-- Node1&#45;&gt;Node0 -->
<g id="edge1" class="edge"><title>Node1&#45;&gt;Node0</title>
<path fill="none" stroke="black" d="M142.733,-2.77034C120.095,-0.378905 91.7087,-0.229591 68,-9 53.9488,-14.1979 41.4263,-26.429 33.7872,-35.1914"/>
<polygon fill="black" stroke="black" points="142.338,-6.24809 152.692,-4.0029 143.198,0.698911 142.338,-6.24809"/>
</g>
</g>
</svg>
