<?xml version="1.0" encoding="UTF-8" standalone="no"?>
<!DOCTYPE svg PUBLIC "-//W3C//DTD SVG 1.1//EN"
 "http://www.w3.org/Graphics/SVG/1.1/DTD/svg11.dtd">
<!-- Generated by graphviz version 2.38.0 (20140413.2041)
 -->
<!-- Title: any_undefined Pages: 1 -->
<svg width="636pt" height="332pt"
 viewBox="0.00 0.00 636.00 332.00" xmlns="http://www.w3.org/2000/svg" xmlns:xlink="http://www.w3.org/1999/xlink">
<g id="graph0" class="graph" transform="scale(1 1) rotate(0) translate(4 328)">
<title>any_undefined</title>
<polygon fill="white" stroke="none" points="-4,4 -4,-328 632,-328 632,4 -4,4"/>
<!-- Node1 -->
<g id="node1" class="node"><title>Node1</title>
<polygon fill="#bfbfbf" stroke="black" points="0,-227.5 0,-246.5 80,-246.5 80,-227.5 0,-227.5"/>
<text text-anchor="middle" x="40" y="-234.5" font-family="Helvetica,sans-Serif" font-size="10.00">any_undefined</text>
</g>
<!-- Node2 -->
<g id="node2" class="node"><title>Node2</title>
<g id="a_node2"><a xlink:href="group__shapes__2d.html#ga33d2a7677306c346ad6be5a488885d86" target="_top" xlink:title="A general triangle specified by three vertices. ">
<polygon fill="white" stroke="black" points="116,-142.5 116,-161.5 185,-161.5 185,-142.5 116,-142.5"/>
<text text-anchor="middle" x="150.5" y="-149.5" font-family="Helvetica,sans-Serif" font-size="10.00">triangle_ppp</text>
</a>
</g>
</g>
<!-- Node1&#45;&gt;Node2 -->
<g id="edge1" class="edge"><title>Node1&#45;&gt;Node2</title>
<path fill="none" stroke="midnightblue" d="M61.6041,-220.859C83.9268,-203.371 118.809,-176.044 137.199,-161.637"/>
<polygon fill="midnightblue" stroke="midnightblue" points="59.1599,-218.327 53.4463,-227.249 63.4768,-223.838 59.1599,-218.327"/>
</g>
<!-- Node20 -->
<g id="node20" class="node"><title>Node20</title>
<g id="a_node20"><a xlink:href="group__shapes__3d.html#ga66f0c4a748f33cc1fff3343655b17f45" target="_top" xlink:title="A cone. ">
<polygon fill="white" stroke="black" points="349,-304.5 349,-323.5 387,-323.5 387,-304.5 349,-304.5"/>
<text text-anchor="middle" x="368" y="-311.5" font-family="Helvetica,sans-Serif" font-size="10.00">cone</text>
</a>
</g>
</g>
<!-- Node1&#45;&gt;Node20 -->
<g id="edge25" class="edge"><title>Node1&#45;&gt;Node20</title>
<path fill="none" stroke="midnightblue" d="M90.3045,-248.646C164.061,-266.067 299.697,-298.103 348.717,-309.682"/>
<polygon fill="midnightblue" stroke="midnightblue" points="90.86,-245.181 80.3232,-246.288 89.2509,-251.993 90.86,-245.181"/>
</g>
<!-- Node3 -->
<g id="node3" class="node"><title>Node3</title>
<g id="a_node3"><a xlink:href="group__shapes__2d.html#ga9fe8dcb93cf5fca81671a04f1ccb562c" target="_top" xlink:title="A general triangle specified by a list of its three vertices. ">
<polygon fill="white" stroke="black" points="227.5,-237.5 227.5,-256.5 288.5,-256.5 288.5,-237.5 227.5,-237.5"/>
<text text-anchor="middle" x="258" y="-244.5" font-family="Helvetica,sans-Serif" font-size="10.00">triangle_lp</text>
</a>
</g>
</g>
<!-- Node2&#45;&gt;Node3 -->
<g id="edge2" class="edge"><title>Node2&#45;&gt;Node3</title>
<path fill="none" stroke="midnightblue" d="M169.83,-168.506C191.941,-188.416 228.372,-221.221 246.323,-237.386"/>
<polygon fill="midnightblue" stroke="midnightblue" points="172.166,-165.9 162.393,-161.809 167.482,-171.101 172.166,-165.9"/>
</g>
<!-- Node5 -->
<g id="node5" class="node"><title>Node5</title>
<g id="a_node5"><a xlink:href="group__shapes__2d.html#gab40e6edfc3c5ab69a4db26301318cd86" target="_top" xlink:title="A general triangle specified by its three side lengths. ">
<polygon fill="white" stroke="black" points="223.5,-161.5 223.5,-180.5 292.5,-180.5 292.5,-161.5 223.5,-161.5"/>
<text text-anchor="middle" x="258" y="-168.5" font-family="Helvetica,sans-Serif" font-size="10.00">triangle_sss</text>
</a>
</g>
</g>
<!-- Node2&#45;&gt;Node5 -->
<g id="edge4" class="edge"><title>Node2&#45;&gt;Node5</title>
<path fill="none" stroke="midnightblue" d="M195.151,-159.861C204.546,-161.553 214.339,-163.317 223.287,-164.928"/>
<polygon fill="midnightblue" stroke="midnightblue" points="195.633,-156.392 185.171,-158.064 194.392,-163.281 195.633,-156.392"/>
</g>
<!-- Node21 -->
<g id="node21" class="node"><title>Node21</title>
<g id="a_node21"><a xlink:href="group__shapes__2d.html#ga0f93c98a50f652382cce6e2a9080a14d" target="_top" xlink:title="A right&#45;angled triangle specified by its opposite and adjacent side lengths. ">
<polygon fill="white" stroke="black" points="226,-76.5 226,-95.5 290,-95.5 290,-76.5 226,-76.5"/>
<text text-anchor="middle" x="258" y="-83.5" font-family="Helvetica,sans-Serif" font-size="10.00">triangle_ss</text>
</a>
</g>
</g>
<!-- Node2&#45;&gt;Node21 -->
<g id="edge20" class="edge"><title>Node2&#45;&gt;Node21</title>
<path fill="none" stroke="midnightblue" d="M175.764,-136.821C196.075,-124.114 224.434,-106.373 241.712,-95.5639"/>
<polygon fill="midnightblue" stroke="midnightblue" points="173.688,-133.991 167.067,-142.261 177.401,-139.925 173.688,-133.991"/>
</g>
<!-- Node23 -->
<g id="node23" class="node"><title>Node23</title>
<g id="a_node23"><a xlink:href="group__shapes__2d.html#ga84e0a2811547e6c658909671d9e2bc0b" target="_top" xlink:title="A right&#45;angled triangle specified by a side length and an angle. ">
<polygon fill="white" stroke="black" points="226,-19.5 226,-38.5 290,-38.5 290,-19.5 226,-19.5"/>
<text text-anchor="middle" x="258" y="-26.5" font-family="Helvetica,sans-Serif" font-size="10.00">triangle_sa</text>
</a>
</g>
</g>
<!-- Node2&#45;&gt;Node23 -->
<g id="edge22" class="edge"><title>Node2&#45;&gt;Node23</title>
<path fill="none" stroke="midnightblue" d="M165.405,-134.235C179.181,-116.819 201.049,-89.661 221,-67 229.768,-57.0416 240.244,-46.0823 247.628,-38.5027"/>
<polygon fill="midnightblue" stroke="midnightblue" points="162.429,-132.357 158.992,-142.379 167.929,-136.688 162.429,-132.357"/>
</g>
<!-- Node25 -->
<g id="node25" class="node"><title>Node25</title>
<g id="a_node25"><a xlink:href="group__shapes__2de.html#ga115ebc47b0630da820f163c0627c9b18" target="_top" xlink:title="An extruded general triangle specified by three vertices. ">
<polygon fill="white" stroke="black" points="221,-123.5 221,-142.5 295,-142.5 295,-123.5 221,-123.5"/>
<text text-anchor="middle" x="258" y="-130.5" font-family="Helvetica,sans-Serif" font-size="10.00">etriangle_ppp</text>
</a>
</g>
</g>
<!-- Node2&#45;&gt;Node25 -->
<g id="edge24" class="edge"><title>Node2&#45;&gt;Node25</title>
<path fill="none" stroke="midnightblue" d="M195.282,-144.115C203.75,-142.59 212.536,-141.008 220.732,-139.532"/>
<polygon fill="midnightblue" stroke="midnightblue" points="194.392,-140.719 185.171,-145.936 195.633,-147.608 194.392,-140.719"/>
</g>
<!-- Node4 -->
<g id="node4" class="node"><title>Node4</title>
<g id="a_node4"><a xlink:href="group__shapes__2de.html#ga919151e4d8f40c9218c63b867fb80b7b" target="_top" xlink:title="An extruded general triangle specified by a list of its three vertices. ">
<polygon fill="white" stroke="black" points="335,-266.5 335,-285.5 401,-285.5 401,-266.5 335,-266.5"/>
<text text-anchor="middle" x="368" y="-273.5" font-family="Helvetica,sans-Serif" font-size="10.00">etriangle_lp</text>
</a>
</g>
</g>
<!-- Node3&#45;&gt;Node4 -->
<g id="edge3" class="edge"><title>Node3&#45;&gt;Node4</title>
<path fill="none" stroke="midnightblue" d="M298.301,-257.553C310.319,-260.78 323.389,-264.29 334.871,-267.373"/>
<polygon fill="midnightblue" stroke="midnightblue" points="299.077,-254.138 288.511,-254.924 297.262,-260.898 299.077,-254.138"/>
</g>
<!-- Node6 -->
<g id="node6" class="node"><title>Node6</title>
<g id="a_node6"><a xlink:href="group__shapes__2d.html#ga5321277acf52177e1c7928c13377dd00" target="_top" xlink:title="A general triangle specified by a list of its three side lengths. ">
<polygon fill="white" stroke="black" points="337.5,-114.5 337.5,-133.5 398.5,-133.5 398.5,-114.5 337.5,-114.5"/>
<text text-anchor="middle" x="368" y="-121.5" font-family="Helvetica,sans-Serif" font-size="10.00">triangle_ls</text>
</a>
</g>
</g>
<!-- Node5&#45;&gt;Node6 -->
<g id="edge5" class="edge"><title>Node5&#45;&gt;Node6</title>
<path fill="none" stroke="midnightblue" d="M290.107,-157.463C307.597,-149.851 329.019,-140.529 344.806,-133.658"/>
<polygon fill="midnightblue" stroke="midnightblue" points="288.628,-154.289 280.855,-161.489 291.421,-160.708 288.628,-154.289"/>
</g>
<!-- Node13 -->
<g id="node13" class="node"><title>Node13</title>
<g id="a_node13"><a xlink:href="group__shapes__2d.html#gac6b0e8a6784a03e427d8b14eee7d90ca" target="_top" xlink:title="A general triangle specified by two sides and the included angle. ">
<polygon fill="white" stroke="black" points="333.5,-76.5 333.5,-95.5 402.5,-95.5 402.5,-76.5 333.5,-76.5"/>
<text text-anchor="middle" x="368" y="-83.5" font-family="Helvetica,sans-Serif" font-size="10.00">triangle_sas</text>
</a>
</g>
</g>
<!-- Node5&#45;&gt;Node13 -->
<g id="edge12" class="edge"><title>Node5&#45;&gt;Node13</title>
<path fill="none" stroke="midnightblue" d="M289.541,-156.13C291.45,-154.823 293.289,-153.445 295,-152 315.101,-135.021 310.899,-121.979 331,-105 335.211,-101.443 340.198,-98.2897 345.097,-95.6243"/>
<polygon fill="midnightblue" stroke="midnightblue" points="287.633,-153.193 280.903,-161.376 291.267,-159.177 287.633,-153.193"/>
</g>
<!-- Node15 -->
<g id="node15" class="node"><title>Node15</title>
<g id="a_node15"><a xlink:href="group__shapes__2d.html#gaaefcea1b06acb7b1633e86f657341701" target="_top" xlink:title="A general triangle specified by a side and two adjacent angles. ">
<polygon fill="white" stroke="black" points="333.5,-228.5 333.5,-247.5 402.5,-247.5 402.5,-228.5 333.5,-228.5"/>
<text text-anchor="middle" x="368" y="-235.5" font-family="Helvetica,sans-Serif" font-size="10.00">triangle_asa</text>
</a>
</g>
</g>
<!-- Node5&#45;&gt;Node15 -->
<g id="edge14" class="edge"><title>Node5&#45;&gt;Node15</title>
<path fill="none" stroke="midnightblue" d="M281.035,-186.542C295.098,-196.246 313.844,-208.79 331,-219 336.466,-222.253 342.538,-225.567 348.114,-228.497"/>
<polygon fill="midnightblue" stroke="midnightblue" points="282.742,-183.466 272.534,-180.628 278.745,-189.212 282.742,-183.466"/>
</g>
<!-- Node17 -->
<g id="node17" class="node"><title>Node17</title>
<g id="a_node17"><a xlink:href="group__shapes__2d.html#gad0730473c871f346877e8ef91e2bdfd4" target="_top" xlink:title="A general triangle specified by a side, one adjacent angle and the opposite angle. ">
<polygon fill="white" stroke="black" points="333.5,-190.5 333.5,-209.5 402.5,-209.5 402.5,-190.5 333.5,-190.5"/>
<text text-anchor="middle" x="368" y="-197.5" font-family="Helvetica,sans-Serif" font-size="10.00">triangle_aas</text>
</a>
</g>
</g>
<!-- Node5&#45;&gt;Node17 -->
<g id="edge16" class="edge"><title>Node5&#45;&gt;Node17</title>
<path fill="none" stroke="midnightblue" d="M302.301,-182.627C312.67,-185.412 323.588,-188.343 333.441,-190.989"/>
<polygon fill="midnightblue" stroke="midnightblue" points="303.145,-179.23 292.58,-180.017 301.33,-185.99 303.145,-179.23"/>
</g>
<!-- Node19 -->
<g id="node19" class="node"><title>Node19</title>
<g id="a_node19"><a xlink:href="group__shapes__2de.html#ga4940596130c3cd1e62fea77569459a52" target="_top" xlink:title="An extruded general triangle specified by its three side lengths. ">
<polygon fill="white" stroke="black" points="331,-152.5 331,-171.5 405,-171.5 405,-152.5 331,-152.5"/>
<text text-anchor="middle" x="368" y="-159.5" font-family="Helvetica,sans-Serif" font-size="10.00">etriangle_sss</text>
</a>
</g>
</g>
<!-- Node5&#45;&gt;Node19 -->
<g id="edge18" class="edge"><title>Node5&#45;&gt;Node19</title>
<path fill="none" stroke="midnightblue" d="M302.836,-167.347C312.131,-166.572 321.844,-165.763 330.817,-165.015"/>
<polygon fill="midnightblue" stroke="midnightblue" points="302.255,-163.883 292.58,-168.202 302.836,-170.859 302.255,-163.883"/>
</g>
<!-- Node5&#45;&gt;Node20 -->
<g id="edge19" class="edge"><title>Node5&#45;&gt;Node20</title>
<path fill="none" stroke="midnightblue" d="M270.799,-188.962C277.992,-200.086 287.258,-214.732 295,-228 312.036,-257.197 307.008,-271.186 331,-295 336.016,-299.979 342.606,-303.967 348.776,-306.979"/>
<polygon fill="midnightblue" stroke="midnightblue" points="273.714,-187.025 265.324,-180.555 267.848,-190.845 273.714,-187.025"/>
</g>
<!-- Node7 -->
<g id="node7" class="node"><title>Node7</title>
<g id="a_node7"><a xlink:href="group__shapes__2d.html#ga7eefb280ad124a8d35eb4218e5f0bdad" target="_top" xlink:title="A general triangle specified by its sides with a removed triangular core. ">
<polygon fill="white" stroke="black" points="442.5,-114.5 442.5,-133.5 513.5,-133.5 513.5,-114.5 442.5,-114.5"/>
<text text-anchor="middle" x="478" y="-121.5" font-family="Helvetica,sans-Serif" font-size="10.00">triangle_ls_c</text>
</a>
</g>
</g>
<!-- Node6&#45;&gt;Node7 -->
<g id="edge6" class="edge"><title>Node6&#45;&gt;Node7</title>
<path fill="none" stroke="midnightblue" d="M408.703,-124C419.672,-124 431.489,-124 442.159,-124"/>
<polygon fill="midnightblue" stroke="midnightblue" points="408.512,-120.5 398.511,-124 408.511,-127.5 408.512,-120.5"/>
</g>
<!-- Node10 -->
<g id="node10" class="node"><title>Node10</title>
<g id="a_node10"><a xlink:href="group__shapes__2d.html#ga7452bf5414a3677ec806a31aed6b61dd" target="_top" xlink:title="A two&#45;dimensional star. ">
<polygon fill="white" stroke="black" points="456,-76.5 456,-95.5 500,-95.5 500,-76.5 456,-76.5"/>
<text text-anchor="middle" x="478" y="-83.5" font-family="Helvetica,sans-Serif" font-size="10.00">star2d</text>
</a>
</g>
</g>
<!-- Node6&#45;&gt;Node10 -->
<g id="edge9" class="edge"><title>Node6&#45;&gt;Node10</title>
<path fill="none" stroke="midnightblue" d="M405.753,-111.068C422.467,-105.188 441.643,-98.4404 455.888,-93.4283"/>
<polygon fill="midnightblue" stroke="midnightblue" points="404.524,-107.79 396.253,-114.411 406.848,-114.393 404.524,-107.79"/>
</g>
<!-- Node12 -->
<g id="node12" class="node"><title>Node12</title>
<g id="a_node12"><a xlink:href="group__shapes__2de.html#gace35f9581cef6d5c20c3fd1d922284d1" target="_top" xlink:title="An extruded general triangle specified by a list of its three side lengths. ">
<polygon fill="white" stroke="black" points="445,-152.5 445,-171.5 511,-171.5 511,-152.5 445,-152.5"/>
<text text-anchor="middle" x="478" y="-159.5" font-family="Helvetica,sans-Serif" font-size="10.00">etriangle_ls</text>
</a>
</g>
</g>
<!-- Node6&#45;&gt;Node12 -->
<g id="edge11" class="edge"><title>Node6&#45;&gt;Node12</title>
<path fill="none" stroke="midnightblue" d="M405.867,-136.972C420.256,-142.034 436.455,-147.734 449.756,-152.414"/>
<polygon fill="midnightblue" stroke="midnightblue" points="406.848,-133.607 396.253,-133.589 404.524,-140.21 406.848,-133.607"/>
</g>
<!-- Node8 -->
<g id="node8" class="node"><title>Node8</title>
<g id="a_node8"><a xlink:href="group__shapes__2de.html#ga0c99582ccf3d5b1425c99001b228c202" target="_top" xlink:title="A general triangle specified by its sides with a removed triangular core. ">
<polygon fill="white" stroke="black" points="551,-114.5 551,-133.5 628,-133.5 628,-114.5 551,-114.5"/>
<text text-anchor="middle" x="589.5" y="-121.5" font-family="Helvetica,sans-Serif" font-size="10.00">etriangle_ls_c</text>
</a>
</g>
</g>
<!-- Node7&#45;&gt;Node8 -->
<g id="edge7" class="edge"><title>Node7&#45;&gt;Node8</title>
<path fill="none" stroke="midnightblue" d="M523.869,-124C532.767,-124 542.027,-124 550.663,-124"/>
<polygon fill="midnightblue" stroke="midnightblue" points="523.647,-120.5 513.646,-124 523.646,-127.5 523.647,-120.5"/>
</g>
<!-- Node9 -->
<g id="node9" class="node"><title>Node9</title>
<g id="a_node9"><a xlink:href="group__shapes__3d.html#gaa3137155089f4d50c13ebea05402edd0" target="_top" xlink:title="A triangular cross&#45;sectional profile revolved about the z&#45;axis. ">
<polygon fill="white" stroke="black" points="563.5,-152.5 563.5,-171.5 615.5,-171.5 615.5,-152.5 563.5,-152.5"/>
<text text-anchor="middle" x="589.5" y="-159.5" font-family="Helvetica,sans-Serif" font-size="10.00">torus_tp</text>
</a>
</g>
</g>
<!-- Node7&#45;&gt;Node9 -->
<g id="edge8" class="edge"><title>Node7&#45;&gt;Node9</title>
<path fill="none" stroke="midnightblue" d="M516.476,-137.005C532,-142.393 549.589,-148.497 563.499,-153.324"/>
<polygon fill="midnightblue" stroke="midnightblue" points="517.226,-133.561 506.631,-133.589 514.931,-140.174 517.226,-133.561"/>
</g>
<!-- Node11 -->
<g id="node11" class="node"><title>Node11</title>
<g id="a_node11"><a xlink:href="group__shapes__2de.html#ga69ece32102ccb27e9985975fa4590251" target="_top" xlink:title="An extruded two&#45;dimensional star. ">
<polygon fill="white" stroke="black" points="565,-76.5 565,-95.5 614,-95.5 614,-76.5 565,-76.5"/>
<text text-anchor="middle" x="589.5" y="-83.5" font-family="Helvetica,sans-Serif" font-size="10.00">estar2d</text>
</a>
</g>
</g>
<!-- Node10&#45;&gt;Node11 -->
<g id="edge10" class="edge"><title>Node10&#45;&gt;Node11</title>
<path fill="none" stroke="midnightblue" d="M510.324,-86C527.655,-86 548.846,-86 564.791,-86"/>
<polygon fill="midnightblue" stroke="midnightblue" points="510.113,-82.5001 500.113,-86 510.113,-89.5001 510.113,-82.5001"/>
</g>
<!-- Node14 -->
<g id="node14" class="node"><title>Node14</title>
<g id="a_node14"><a xlink:href="group__shapes__2de.html#gae4dc22fae0c22daa5d4844755cd268ac" target="_top" xlink:title="An extruded general triangle specified by two sides and the included angle. ">
<polygon fill="white" stroke="black" points="441,-38.5 441,-57.5 515,-57.5 515,-38.5 441,-38.5"/>
<text text-anchor="middle" x="478" y="-45.5" font-family="Helvetica,sans-Serif" font-size="10.00">etriangle_sas</text>
</a>
</g>
</g>
<!-- Node13&#45;&gt;Node14 -->
<g id="edge13" class="edge"><title>Node13&#45;&gt;Node14</title>
<path fill="none" stroke="midnightblue" d="M405.867,-73.0282C420.256,-67.9656 436.455,-62.2659 449.756,-57.5859"/>
<polygon fill="midnightblue" stroke="midnightblue" points="404.524,-69.7903 396.253,-76.411 406.848,-76.3935 404.524,-69.7903"/>
</g>
<!-- Node16 -->
<g id="node16" class="node"><title>Node16</title>
<g id="a_node16"><a xlink:href="group__shapes__2de.html#ga5b1240a97e34583d10011e5d0044ca28" target="_top" xlink:title="An extruded general triangle specified by a side and two adjacent angles. ">
<polygon fill="white" stroke="black" points="441,-228.5 441,-247.5 515,-247.5 515,-228.5 441,-228.5"/>
<text text-anchor="middle" x="478" y="-235.5" font-family="Helvetica,sans-Serif" font-size="10.00">etriangle_asa</text>
</a>
</g>
</g>
<!-- Node15&#45;&gt;Node16 -->
<g id="edge15" class="edge"><title>Node15&#45;&gt;Node16</title>
<path fill="none" stroke="midnightblue" d="M412.836,-238C422.131,-238 431.844,-238 440.817,-238"/>
<polygon fill="midnightblue" stroke="midnightblue" points="412.58,-234.5 402.58,-238 412.58,-241.5 412.58,-234.5"/>
</g>
<!-- Node18 -->
<g id="node18" class="node"><title>Node18</title>
<g id="a_node18"><a xlink:href="group__shapes__2de.html#ga8a3300cf4ca82dad9002965960a76a9c" target="_top" xlink:title="An extruded general triangle specified by a side, one adjacent angle and the opposite angle...">
<polygon fill="white" stroke="black" points="441,-190.5 441,-209.5 515,-209.5 515,-190.5 441,-190.5"/>
<text text-anchor="middle" x="478" y="-197.5" font-family="Helvetica,sans-Serif" font-size="10.00">etriangle_aas</text>
</a>
</g>
</g>
<!-- Node17&#45;&gt;Node18 -->
<g id="edge17" class="edge"><title>Node17&#45;&gt;Node18</title>
<path fill="none" stroke="midnightblue" d="M412.836,-200C422.131,-200 431.844,-200 440.817,-200"/>
<polygon fill="midnightblue" stroke="midnightblue" points="412.58,-196.5 402.58,-200 412.58,-203.5 412.58,-196.5"/>
</g>
<!-- Node22 -->
<g id="node22" class="node"><title>Node22</title>
<g id="a_node22"><a xlink:href="group__shapes__2de.html#gac86de6d90f92b19be2fda894d97dfad4" target="_top" xlink:title="An extruded right&#45;angled triangle specified by its opposite and adjacent side lengths. ">
<polygon fill="white" stroke="black" points="333.5,-38.5 333.5,-57.5 402.5,-57.5 402.5,-38.5 333.5,-38.5"/>
<text text-anchor="middle" x="368" y="-45.5" font-family="Helvetica,sans-Serif" font-size="10.00">etriangle_ss</text>
</a>
</g>
</g>
<!-- Node21&#45;&gt;Node22 -->
<g id="edge21" class="edge"><title>Node21&#45;&gt;Node22</title>
<path fill="none" stroke="midnightblue" d="M295.867,-73.0282C310.256,-67.9656 326.455,-62.2659 339.756,-57.5859"/>
<polygon fill="midnightblue" stroke="midnightblue" points="294.524,-69.7903 286.253,-76.411 296.848,-76.3935 294.524,-69.7903"/>
</g>
<!-- Node24 -->
<g id="node24" class="node"><title>Node24</title>
<g id="a_node24"><a xlink:href="group__shapes__2de.html#gaa80e1bde5ce902feba29d0d57169b8d5" target="_top" xlink:title="An extruded right&#45;angled triangle specified by a side length and an angle. ">
<polygon fill="white" stroke="black" points="333.5,-0.5 333.5,-19.5 402.5,-19.5 402.5,-0.5 333.5,-0.5"/>
<text text-anchor="middle" x="368" y="-7.5" font-family="Helvetica,sans-Serif" font-size="10.00">etriangle_sa</text>
</a>
</g>
</g>
<!-- Node23&#45;&gt;Node24 -->
<g id="edge23" class="edge"><title>Node23&#45;&gt;Node24</title>
<path fill="none" stroke="midnightblue" d="M300.359,-21.7238C311.211,-19.8147 322.784,-17.7787 333.189,-15.9482"/>
<polygon fill="midnightblue" stroke="midnightblue" points="299.48,-18.3246 290.238,-23.5044 300.693,-25.2187 299.48,-18.3246"/>
</g>
</g>
</svg>
