<?xml version="1.0" encoding="UTF-8" standalone="no"?>
<!DOCTYPE svg PUBLIC "-//W3C//DTD SVG 1.1//EN"
 "http://www.w3.org/Graphics/SVG/1.1/DTD/svg11.dtd">
<!-- Generated by graphviz version 2.38.0 (20140413.2041)
 -->
<!-- Title: ellipse_cs Pages: 1 -->
<svg width="350pt" height="142pt"
 viewBox="0.00 0.00 350.00 142.00" xmlns="http://www.w3.org/2000/svg" xmlns:xlink="http://www.w3.org/1999/xlink">
<g id="graph0" class="graph" transform="scale(1 1) rotate(0) translate(4 138)">
<title>ellipse_cs</title>
<polygon fill="white" stroke="none" points="-4,4 -4,-138 346,-138 346,4 -4,4"/>
<!-- Node1 -->
<g id="node1" class="node"><title>Node1</title>
<polygon fill="#bfbfbf" stroke="black" points="0,-57.5 0,-76.5 60,-76.5 60,-57.5 0,-57.5"/>
<text text-anchor="middle" x="30" y="-64.5" font-family="Helvetica,sans-Serif" font-size="10.00">ellipse_cs</text>
</g>
<!-- Node2 -->
<g id="node2" class="node"><title>Node2</title>
<g id="a_node2"><a xlink:href="group__datatypes__identify__iterable.html#ga3fa2b76e04a4c8bba633d9e5e08004e8" target="_top" xlink:title="Test if no element of a list of values is undefined. ">
<polygon fill="white" stroke="black" points="96,-114.5 96,-133.5 159,-133.5 159,-114.5 96,-114.5"/>
<text text-anchor="middle" x="127.5" y="-121.5" font-family="Helvetica,sans-Serif" font-size="10.00">all_defined</text>
</a>
</g>
</g>
<!-- Node1&#45;&gt;Node2 -->
<g id="edge1" class="edge"><title>Node1&#45;&gt;Node2</title>
<path fill="none" stroke="midnightblue" d="M47.2003,-76.6693C62.1074,-85.5667 84.4401,-98.8962 101.611,-109.145"/>
<polygon fill="midnightblue" stroke="midnightblue" points="100.158,-112.354 110.539,-114.474 103.746,-106.343 100.158,-112.354"/>
</g>
<!-- Node3 -->
<g id="node3" class="node"><title>Node3</title>
<g id="a_node3"><a xlink:href="group__datatypes__identify__scalar.html#ga51d7fdb800c10f4b7479d23b89ab8d22" target="_top" xlink:title="Test if a value is defined. ">
<polygon fill="white" stroke="black" points="97,-76.5 97,-95.5 158,-95.5 158,-76.5 97,-76.5"/>
<text text-anchor="middle" x="127.5" y="-83.5" font-family="Helvetica,sans-Serif" font-size="10.00">is_defined</text>
</a>
</g>
</g>
<!-- Node1&#45;&gt;Node3 -->
<g id="edge2" class="edge"><title>Node1&#45;&gt;Node3</title>
<path fill="none" stroke="midnightblue" d="M60.1721,-72.8039C68.6212,-74.4848 77.9896,-76.3487 86.9596,-78.1333"/>
<polygon fill="midnightblue" stroke="midnightblue" points="86.3567,-81.5819 96.8475,-80.1005 87.7227,-74.7165 86.3567,-81.5819"/>
</g>
<!-- Node4 -->
<g id="node4" class="node"><title>Node4</title>
<g id="a_node4"><a xlink:href="group__shapes__2d.html#ga8925cd75276266667fbc1f0896482a7a" target="_top" xlink:title="An ellipse sector. ">
<polygon fill="white" stroke="black" points="100,-38.5 100,-57.5 155,-57.5 155,-38.5 100,-38.5"/>
<text text-anchor="middle" x="127.5" y="-45.5" font-family="Helvetica,sans-Serif" font-size="10.00">ellipse_s</text>
</a>
</g>
</g>
<!-- Node1&#45;&gt;Node4 -->
<g id="edge3" class="edge"><title>Node1&#45;&gt;Node4</title>
<path fill="none" stroke="midnightblue" d="M60.1721,-61.1961C69.5357,-59.3332 80.0285,-57.2456 89.8566,-55.2903"/>
<polygon fill="midnightblue" stroke="midnightblue" points="90.658,-58.6995 99.7828,-53.3155 89.2921,-51.8341 90.658,-58.6995"/>
</g>
<!-- Node6 -->
<g id="node6" class="node"><title>Node6</title>
<g id="a_node6"><a xlink:href="group__shapes__2d.html#ga7d62c56f88b839dc7e879ff16f968ea2" target="_top" xlink:title="An ellipse. ">
<polygon fill="white" stroke="black" points="195,-0.5 195,-19.5 239,-19.5 239,-0.5 195,-0.5"/>
<text text-anchor="middle" x="217" y="-7.5" font-family="Helvetica,sans-Serif" font-size="10.00">ellipse</text>
</a>
</g>
</g>
<!-- Node1&#45;&gt;Node6 -->
<g id="edge7" class="edge"><title>Node1&#45;&gt;Node6</title>
<path fill="none" stroke="midnightblue" d="M44.2153,-57.2746C56.8601,-48.4691 76.7962,-35.8586 96,-29 124.897,-18.6796 159.701,-13.953 184.369,-11.7955"/>
<polygon fill="midnightblue" stroke="midnightblue" points="184.904,-15.2644 194.602,-10.9967 184.36,-8.28567 184.904,-15.2644"/>
</g>
<!-- Node5 -->
<g id="node5" class="node"><title>Node5</title>
<g id="a_node5"><a xlink:href="group__datatypes__operate__iterable.html#ga3d679b4617986e31d5e2803971b37af8" target="_top" xlink:title="Return an iterable element when it exists or a default value when it does not. ">
<polygon fill="white" stroke="black" points="275,-19.5 275,-38.5 342,-38.5 342,-19.5 275,-19.5"/>
<text text-anchor="middle" x="308.5" y="-26.5" font-family="Helvetica,sans-Serif" font-size="10.00">edefined_or</text>
</a>
</g>
</g>
<!-- Node4&#45;&gt;Node5 -->
<g id="edge4" class="edge"><title>Node4&#45;&gt;Node5</title>
<path fill="none" stroke="midnightblue" d="M155.298,-45.1555C184.2,-42.0877 230.634,-37.159 264.622,-33.5513"/>
<polygon fill="midnightblue" stroke="midnightblue" points="265.163,-37.0136 274.738,-32.4776 264.424,-30.0527 265.163,-37.0136"/>
</g>
<!-- Node4&#45;&gt;Node6 -->
<g id="edge5" class="edge"><title>Node4&#45;&gt;Node6</title>
<path fill="none" stroke="midnightblue" d="M150.58,-38.411C161.18,-33.8075 174.051,-28.218 185.562,-23.2187"/>
<polygon fill="midnightblue" stroke="midnightblue" points="187.054,-26.3865 194.833,-19.1927 184.266,-19.9658 187.054,-26.3865"/>
</g>
<!-- Node6&#45;&gt;Node5 -->
<g id="edge6" class="edge"><title>Node6&#45;&gt;Node5</title>
<path fill="none" stroke="midnightblue" d="M239.21,-14.5027C246.947,-16.1452 255.996,-18.0663 264.929,-19.9627"/>
<polygon fill="midnightblue" stroke="midnightblue" points="264.381,-23.4241 274.89,-22.0772 265.835,-16.5767 264.381,-23.4241"/>
</g>
</g>
</svg>
