<?xml version="1.0" encoding="UTF-8" standalone="no"?>
<!DOCTYPE svg PUBLIC "-//W3C//DTD SVG 1.1//EN"
 "http://www.w3.org/Graphics/SVG/1.1/DTD/svg11.dtd">
<!-- Generated by graphviz version 2.38.0 (20140413.2041)
 -->
<!-- Title: first Pages: 1 -->
<svg width="168pt" height="180pt"
 viewBox="0.00 0.00 168.00 180.00" xmlns="http://www.w3.org/2000/svg" xmlns:xlink="http://www.w3.org/1999/xlink">
<g id="graph0" class="graph" transform="scale(1 1) rotate(0) translate(4 176)">
<title>first</title>
<polygon fill="white" stroke="none" points="-4,4 -4,-176 164,-176 164,4 -4,4"/>
<!-- Node1 -->
<g id="node1" class="node"><title>Node1</title>
<polygon fill="#bfbfbf" stroke="black" points="0,-76.5 0,-95.5 33,-95.5 33,-76.5 0,-76.5"/>
<text text-anchor="middle" x="16.5" y="-83.5" font-family="Helvetica,sans-Serif" font-size="10.00">first</text>
</g>
<!-- Node2 -->
<g id="node2" class="node"><title>Node2</title>
<g id="a_node2"><a xlink:href="group__datatypes__map.html#ga4a3d0704d80be0d9e8bae1fcb3ab7958" target="_top" xlink:title="Perform some basic validation/checks on a map. ">
<polygon fill="white" stroke="black" points="81,-152.5 81,-171.5 148,-171.5 148,-152.5 81,-152.5"/>
<text text-anchor="middle" x="114.5" y="-159.5" font-family="Helvetica,sans-Serif" font-size="10.00">map_check</text>
</a>
</g>
</g>
<!-- Node1&#45;&gt;Node2 -->
<g id="edge1" class="edge"><title>Node1&#45;&gt;Node2</title>
<path fill="none" stroke="midnightblue" d="M30.2745,-103.819C39.821,-116.121 53.7998,-132.153 69,-143 74.0601,-146.611 79.9131,-149.722 85.6778,-152.32"/>
<polygon fill="midnightblue" stroke="midnightblue" points="32.9499,-101.553 24.1525,-95.6491 27.3481,-105.751 32.9499,-101.553"/>
</g>
<!-- Node3 -->
<g id="node3" class="node"><title>Node3</title>
<g id="a_node3"><a xlink:href="group__datatypes__table.html#ga8a4429649e8b06d9f492e1a0d2653656" target="_top" xlink:title="Perform some basic validation/checks on a table. ">
<polygon fill="white" stroke="black" points="80,-114.5 80,-133.5 149,-133.5 149,-114.5 80,-114.5"/>
<text text-anchor="middle" x="114.5" y="-121.5" font-family="Helvetica,sans-Serif" font-size="10.00">table_check</text>
</a>
</g>
</g>
<!-- Node1&#45;&gt;Node3 -->
<g id="edge2" class="edge"><title>Node1&#45;&gt;Node3</title>
<path fill="none" stroke="midnightblue" d="M42.6726,-95.9642C57.0922,-101.672 75.0944,-108.798 89.341,-114.437"/>
<polygon fill="midnightblue" stroke="midnightblue" points="43.9387,-92.7011 33.3524,-92.2749 41.3623,-99.2098 43.9387,-92.7011"/>
</g>
<!-- Node4 -->
<g id="node4" class="node"><title>Node4</title>
<g id="a_node4"><a xlink:href="group__datatypes__table.html#ga717ca569831188092358ee04f7211700" target="_top" xlink:title="Dump a table to the console. ">
<polygon fill="white" stroke="black" points="81,-76.5 81,-95.5 148,-95.5 148,-76.5 81,-76.5"/>
<text text-anchor="middle" x="114.5" y="-83.5" font-family="Helvetica,sans-Serif" font-size="10.00">table_dump</text>
</a>
</g>
</g>
<!-- Node1&#45;&gt;Node4 -->
<g id="edge3" class="edge"><title>Node1&#45;&gt;Node4</title>
<path fill="none" stroke="midnightblue" d="M43.6054,-86C55.104,-86 68.7359,-86 80.8941,-86"/>
<polygon fill="midnightblue" stroke="midnightblue" points="43.3525,-82.5001 33.3524,-86 43.3524,-89.5001 43.3525,-82.5001"/>
</g>
<!-- Node5 -->
<g id="node5" class="node"><title>Node5</title>
<g id="a_node5"><a xlink:href="group__tools__polytope.html#ga00b574079f19251be7281151d11db8fa" target="_top" xlink:title="Label the vertices, paths, and edges of a polytope. ">
<polygon fill="white" stroke="black" points="69,-38.5 69,-57.5 160,-57.5 160,-38.5 69,-38.5"/>
<text text-anchor="middle" x="114.5" y="-45.5" font-family="Helvetica,sans-Serif" font-size="10.00">polytope_number</text>
</a>
</g>
</g>
<!-- Node1&#45;&gt;Node5 -->
<g id="edge4" class="edge"><title>Node1&#45;&gt;Node5</title>
<path fill="none" stroke="midnightblue" d="M42.6726,-76.0358C57.0922,-70.3281 75.0944,-63.2022 89.341,-57.5629"/>
<polygon fill="midnightblue" stroke="midnightblue" points="41.3623,-72.7902 33.3524,-79.7251 43.9387,-79.2989 41.3623,-72.7902"/>
</g>
<!-- Node6 -->
<g id="node6" class="node"><title>Node6</title>
<g id="a_node6"><a xlink:href="group__tools__polytope.html#ga530c86f9c90ce074aa7adc29834f0539" target="_top" xlink:title="Assemble a polytope skeletal frame using child objects. ">
<polygon fill="white" stroke="black" points="73,-0.5 73,-19.5 156,-19.5 156,-0.5 73,-0.5"/>
<text text-anchor="middle" x="114.5" y="-7.5" font-family="Helvetica,sans-Serif" font-size="10.00">polytope_frame</text>
</a>
</g>
</g>
<!-- Node1&#45;&gt;Node6 -->
<g id="edge5" class="edge"><title>Node1&#45;&gt;Node6</title>
<path fill="none" stroke="midnightblue" d="M30.2745,-68.1807C39.821,-55.8795 53.7998,-39.8468 69,-29 74.0601,-25.3892 79.9131,-22.2783 85.6778,-19.68"/>
<polygon fill="midnightblue" stroke="midnightblue" points="27.3481,-66.2494 24.1525,-76.3509 32.9499,-70.447 27.3481,-66.2494"/>
</g>
</g>
</svg>
