<?xml version="1.0" encoding="UTF-8" standalone="no"?>
<!DOCTYPE svg PUBLIC "-//W3C//DTD SVG 1.1//EN"
 "http://www.w3.org/Graphics/SVG/1.1/DTD/svg11.dtd">
<!-- Generated by graphviz version 2.38.0 (20140413.2041)
 -->
<!-- Title: map_dump Pages: 1 -->
<svg width="186pt" height="256pt"
 viewBox="0.00 0.00 186.00 256.00" xmlns="http://www.w3.org/2000/svg" xmlns:xlink="http://www.w3.org/1999/xlink">
<g id="graph0" class="graph" transform="scale(1 1) rotate(0) translate(4 252)">
<title>map_dump</title>
<polygon fill="white" stroke="none" points="-4,4 -4,-252 182,-252 182,4 -4,4"/>
<!-- Node1 -->
<g id="node1" class="node"><title>Node1</title>
<polygon fill="#bfbfbf" stroke="black" points="0,-114.5 0,-133.5 65,-133.5 65,-114.5 0,-114.5"/>
<text text-anchor="middle" x="32.5" y="-121.5" font-family="Helvetica,sans-Serif" font-size="10.00">map_dump</text>
</g>
<!-- Node2 -->
<g id="node2" class="node"><title>Node2</title>
<g id="a_node2"><a xlink:href="group__datatypes__map.html#ga7824c51b145d28c8cec66c778e34028a" target="_top" xlink:title="Get the number of map entries. ">
<polygon fill="white" stroke="black" points="101,-228.5 101,-247.5 178,-247.5 178,-228.5 101,-228.5"/>
<text text-anchor="middle" x="139.5" y="-235.5" font-family="Helvetica,sans-Serif" font-size="10.00">get_map_size</text>
</a>
</g>
</g>
<!-- Node1&#45;&gt;Node2 -->
<g id="edge1" class="edge"><title>Node1&#45;&gt;Node2</title>
<path fill="none" stroke="midnightblue" d="M38.2266,-133.51C47.8305,-152.036 71.2593,-193.385 101,-219 102.707,-220.471 104.548,-221.863 106.466,-223.174"/>
<polygon fill="midnightblue" stroke="midnightblue" points="104.809,-226.261 115.186,-228.398 108.406,-220.257 104.809,-226.261"/>
</g>
<!-- Node3 -->
<g id="node3" class="node"><title>Node3</title>
<g id="a_node3"><a xlink:href="group__datatypes__map.html#ga4b56b3c79ab0b632497fbb8fdfea10a1" target="_top" xlink:title="Get a list of all map keys. ">
<polygon fill="white" stroke="black" points="106,-190.5 106,-209.5 173,-209.5 173,-190.5 106,-190.5"/>
<text text-anchor="middle" x="139.5" y="-197.5" font-family="Helvetica,sans-Serif" font-size="10.00">get_map_kl</text>
</a>
</g>
</g>
<!-- Node1&#45;&gt;Node3 -->
<g id="edge2" class="edge"><title>Node1&#45;&gt;Node3</title>
<path fill="none" stroke="midnightblue" d="M43.4294,-133.677C56.0966,-145.708 79.0071,-166.43 101,-181 103.396,-182.587 105.942,-184.136 108.535,-185.62"/>
<polygon fill="midnightblue" stroke="midnightblue" points="106.919,-188.725 117.384,-190.38 110.236,-182.56 106.919,-188.725"/>
</g>
<!-- Node4 -->
<g id="node4" class="node"><title>Node4</title>
<g id="a_node4"><a xlink:href="group__datatypes__operate__list.html#ga21b85fef2e715a7a688b6262507e7c25" target="_top" xlink:title="Sort the numeric or string elements of a list using quick sort. ">
<polygon fill="white" stroke="black" points="120.5,-152.5 120.5,-171.5 158.5,-171.5 158.5,-152.5 120.5,-152.5"/>
<text text-anchor="middle" x="139.5" y="-159.5" font-family="Helvetica,sans-Serif" font-size="10.00">qsort</text>
</a>
</g>
</g>
<!-- Node1&#45;&gt;Node4 -->
<g id="edge3" class="edge"><title>Node1&#45;&gt;Node4</title>
<path fill="none" stroke="midnightblue" d="M59.9959,-133.589C75.4452,-139.18 94.9137,-146.226 110.598,-151.902"/>
<polygon fill="midnightblue" stroke="midnightblue" points="109.684,-155.293 120.278,-155.405 112.066,-148.711 109.684,-155.293"/>
</g>
<!-- Node5 -->
<g id="node5" class="node"><title>Node5</title>
<g id="a_node5"><a xlink:href="group__datatypes__map.html#ga24c580e2fc302cd3a2ace45de2b0d947" target="_top" xlink:title="Return the index of a map key. ">
<polygon fill="white" stroke="black" points="108.5,-114.5 108.5,-133.5 170.5,-133.5 170.5,-114.5 108.5,-114.5"/>
<text text-anchor="middle" x="139.5" y="-121.5" font-family="Helvetica,sans-Serif" font-size="10.00">get_map_i</text>
</a>
</g>
</g>
<!-- Node1&#45;&gt;Node5 -->
<g id="edge4" class="edge"><title>Node1&#45;&gt;Node5</title>
<path fill="none" stroke="midnightblue" d="M65.0035,-124C75.4407,-124 87.2034,-124 98.2085,-124"/>
<polygon fill="midnightblue" stroke="midnightblue" points="98.4596,-127.5 108.46,-124 98.4595,-120.5 98.4596,-127.5"/>
</g>
<!-- Node6 -->
<g id="node6" class="node"><title>Node6</title>
<g id="a_node6"><a xlink:href="group__utilities__console.html#ga2565219688decee9515f527f4553044a" target="_top" xlink:title="Output message to console. ">
<polygon fill="white" stroke="black" points="111.5,-76.5 111.5,-95.5 167.5,-95.5 167.5,-76.5 111.5,-76.5"/>
<text text-anchor="middle" x="139.5" y="-83.5" font-family="Helvetica,sans-Serif" font-size="10.00">log_echo</text>
</a>
</g>
</g>
<!-- Node1&#45;&gt;Node6 -->
<g id="edge5" class="edge"><title>Node1&#45;&gt;Node6</title>
<path fill="none" stroke="midnightblue" d="M59.9959,-114.411C72.8043,-109.776 88.3753,-104.14 102.262,-99.1147"/>
<polygon fill="midnightblue" stroke="midnightblue" points="103.8,-102.28 112.013,-95.5859 101.418,-95.6979 103.8,-102.28"/>
</g>
<!-- Node7 -->
<g id="node7" class="node"><title>Node7</title>
<g id="a_node7"><a xlink:href="group__datatypes__operate__list.html#gab05ff3da4d68d30922daa197f505580d" target="_top" xlink:title="Create a sequence of constant or incrementing elements. ">
<polygon fill="white" stroke="black" points="116.5,-38.5 116.5,-57.5 162.5,-57.5 162.5,-38.5 116.5,-38.5"/>
<text text-anchor="middle" x="139.5" y="-45.5" font-family="Helvetica,sans-Serif" font-size="10.00">consts</text>
</a>
</g>
</g>
<!-- Node1&#45;&gt;Node7 -->
<g id="edge6" class="edge"><title>Node1&#45;&gt;Node7</title>
<path fill="none" stroke="midnightblue" d="M43.4294,-114.323C56.0966,-102.292 79.0071,-81.5703 101,-67 103.396,-65.4129 105.942,-63.8645 108.535,-62.3804"/>
<polygon fill="midnightblue" stroke="midnightblue" points="110.236,-65.4399 117.384,-57.6201 106.919,-59.2752 110.236,-65.4399"/>
</g>
<!-- Node8 -->
<g id="node8" class="node"><title>Node8</title>
<g id="a_node8"><a xlink:href="group__datatypes__map.html#ga046849acb70e3a5451117e1a6304bf65" target="_top" xlink:title="Get the map value associated with a key. ">
<polygon fill="white" stroke="black" points="107,-0.5 107,-19.5 172,-19.5 172,-0.5 107,-0.5"/>
<text text-anchor="middle" x="139.5" y="-7.5" font-family="Helvetica,sans-Serif" font-size="10.00">get_map_v</text>
</a>
</g>
</g>
<!-- Node1&#45;&gt;Node8 -->
<g id="edge7" class="edge"><title>Node1&#45;&gt;Node8</title>
<path fill="none" stroke="midnightblue" d="M38.2266,-114.49C47.8305,-95.9638 71.2593,-54.6149 101,-29 102.707,-27.5295 104.548,-26.1373 106.466,-24.8259"/>
<polygon fill="midnightblue" stroke="midnightblue" points="108.406,-27.7435 115.186,-19.6019 104.809,-21.7385 108.406,-27.7435"/>
</g>
</g>
</svg>
