<?xml version="1.0" encoding="UTF-8" standalone="no"?>
<!DOCTYPE svg PUBLIC "-//W3C//DTD SVG 1.1//EN"
 "http://www.w3.org/Graphics/SVG/1.1/DTD/svg11.dtd">
<!-- Generated by graphviz version 2.38.0 (20140413.2041)
 -->
<!-- Title: align_l Pages: 1 -->
<svg width="266pt" height="294pt"
 viewBox="0.00 0.00 266.00 294.00" xmlns="http://www.w3.org/2000/svg" xmlns:xlink="http://www.w3.org/1999/xlink">
<g id="graph0" class="graph" transform="scale(1 1) rotate(0) translate(4 290)">
<title>align_l</title>
<polygon fill="white" stroke="none" points="-4,4 -4,-290 262,-290 262,4 -4,4"/>
<!-- Node1 -->
<g id="node1" class="node"><title>Node1</title>
<polygon fill="#bfbfbf" stroke="black" points="0,-190.5 0,-209.5 44,-209.5 44,-190.5 0,-190.5"/>
<text text-anchor="middle" x="22" y="-197.5" font-family="Helvetica,sans-Serif" font-size="10.00">align_l</text>
</g>
<!-- Node2 -->
<g id="node2" class="node"><title>Node2</title>
<g id="a_node2"><a xlink:href="group__datatypes__operate__list.html#ga1c935914b3cbd915b1d46d9a58ed4f31" target="_top" xlink:title="Case&#45;like select a value from a list of ordered value options. ">
<polygon fill="white" stroke="black" points="185.5,-266.5 185.5,-285.5 235.5,-285.5 235.5,-266.5 185.5,-266.5"/>
<text text-anchor="middle" x="210.5" y="-273.5" font-family="Helvetica,sans-Serif" font-size="10.00">ciselect</text>
</a>
</g>
</g>
<!-- Node1&#45;&gt;Node2 -->
<g id="edge1" class="edge"><title>Node1&#45;&gt;Node2</title>
<path fill="none" stroke="midnightblue" d="M44.0314,-208.57C76.2123,-221.684 137.96,-246.847 176.25,-262.45"/>
<polygon fill="midnightblue" stroke="midnightblue" points="175.334,-265.856 185.915,-266.389 177.975,-259.374 175.334,-265.856"/>
</g>
<!-- Node3 -->
<g id="node3" class="node"><title>Node3</title>
<g id="a_node3"><a xlink:href="group__tools__align.html#ga8572146edee6a1b5b4b87392c2cd1928" target="_top" xlink:title="Align a line or vector to a reference line or vector. ">
<polygon fill="white" stroke="black" points="80,-152.5 80,-171.5 127,-171.5 127,-152.5 80,-152.5"/>
<text text-anchor="middle" x="103.5" y="-159.5" font-family="Helvetica,sans-Serif" font-size="10.00">align_ll</text>
</a>
</g>
</g>
<!-- Node1&#45;&gt;Node3 -->
<g id="edge2" class="edge"><title>Node1&#45;&gt;Node3</title>
<path fill="none" stroke="midnightblue" d="M43.0612,-190.411C52.1941,-186.046 63.182,-180.793 73.213,-175.999"/>
<polygon fill="midnightblue" stroke="midnightblue" points="74.9323,-179.056 82.4452,-171.586 71.9135,-172.741 74.9323,-179.056"/>
</g>
<!-- Node3&#45;&gt;Node2 -->
<g id="edge7" class="edge"><title>Node3&#45;&gt;Node2</title>
<path fill="none" stroke="midnightblue" d="M108.089,-171.741C115.523,-190.671 134.342,-232.696 163,-257 166.791,-260.215 171.199,-262.94 175.762,-265.235"/>
<polygon fill="midnightblue" stroke="midnightblue" points="174.631,-268.56 185.195,-269.357 177.434,-262.146 174.631,-268.56"/>
</g>
<!-- Node4 -->
<g id="node4" class="node"><title>Node4</title>
<g id="a_node4"><a xlink:href="group__math__vector__algebra.html#gae2ec73dee799d38b3aa67e2119809eec" target="_top" xlink:title="Return 3d vector unchanged or add a zeroed third dimension to 2d vector. ">
<polygon fill="white" stroke="black" points="163,-228.5 163,-247.5 258,-247.5 258,-228.5 163,-228.5"/>
<text text-anchor="middle" x="210.5" y="-235.5" font-family="Helvetica,sans-Serif" font-size="10.00">dimension_2to3_v</text>
</a>
</g>
</g>
<!-- Node3&#45;&gt;Node4 -->
<g id="edge3" class="edge"><title>Node3&#45;&gt;Node4</title>
<path fill="none" stroke="midnightblue" d="M112.309,-171.635C122.754,-184.003 142.364,-205.475 163,-219 165.772,-220.817 168.745,-222.512 171.799,-224.083"/>
<polygon fill="midnightblue" stroke="midnightblue" points="170.541,-227.359 181.083,-228.418 173.503,-221.016 170.541,-227.359"/>
</g>
<!-- Node5 -->
<g id="node5" class="node"><title>Node5</title>
<g id="a_node5"><a xlink:href="group__math__vector__algebra.html#gaa7dab850a778cc2b63d7f7c7f3dfbda4" target="_top" xlink:title="Return the initial point of a Euclidean line (or vector). ">
<polygon fill="white" stroke="black" points="179,-190.5 179,-209.5 242,-209.5 242,-190.5 179,-190.5"/>
<text text-anchor="middle" x="210.5" y="-197.5" font-family="Helvetica,sans-Serif" font-size="10.00">get_line_ip</text>
</a>
</g>
</g>
<!-- Node3&#45;&gt;Node5 -->
<g id="edge4" class="edge"><title>Node3&#45;&gt;Node5</title>
<path fill="none" stroke="midnightblue" d="M127.025,-170.152C140.47,-175.018 157.86,-181.311 173.203,-186.864"/>
<polygon fill="midnightblue" stroke="midnightblue" points="172.333,-190.271 182.928,-190.383 174.716,-183.689 172.333,-190.271"/>
</g>
<!-- Node6 -->
<g id="node6" class="node"><title>Node6</title>
<g id="a_node6"><a xlink:href="group__math__vector__algebra.html#ga8f90927df73a5a220df401f550335c4a" target="_top" xlink:title="Return the terminal point of a Euclidean line (or vector). ">
<polygon fill="white" stroke="black" points="178.5,-152.5 178.5,-171.5 242.5,-171.5 242.5,-152.5 178.5,-152.5"/>
<text text-anchor="middle" x="210.5" y="-159.5" font-family="Helvetica,sans-Serif" font-size="10.00">get_line_tp</text>
</a>
</g>
</g>
<!-- Node3&#45;&gt;Node6 -->
<g id="edge5" class="edge"><title>Node3&#45;&gt;Node6</title>
<path fill="none" stroke="midnightblue" d="M127.025,-162C138.934,-162 153.937,-162 167.871,-162"/>
<polygon fill="midnightblue" stroke="midnightblue" points="168.25,-165.5 178.25,-162 168.25,-158.5 168.25,-165.5"/>
</g>
<!-- Node7 -->
<g id="node7" class="node"><title>Node7</title>
<g id="a_node7"><a xlink:href="group__datatypes__operate__list.html#ga1088f9b09ff8ed12e2c844758f39c039" target="_top" xlink:title="Compute the mean/average of a list of numbers. ">
<polygon fill="white" stroke="black" points="190,-114.5 190,-133.5 231,-133.5 231,-114.5 190,-114.5"/>
<text text-anchor="middle" x="210.5" y="-121.5" font-family="Helvetica,sans-Serif" font-size="10.00">mean</text>
</a>
</g>
</g>
<!-- Node3&#45;&gt;Node7 -->
<g id="edge6" class="edge"><title>Node3&#45;&gt;Node7</title>
<path fill="none" stroke="midnightblue" d="M127.025,-153.848C142.495,-148.25 163.186,-140.761 179.973,-134.686"/>
<polygon fill="midnightblue" stroke="midnightblue" points="181.628,-137.809 189.84,-131.115 179.246,-131.227 181.628,-137.809"/>
</g>
<!-- Node8 -->
<g id="node8" class="node"><title>Node8</title>
<g id="a_node8"><a xlink:href="group__math__vector__algebra.html#gaf05cb2c5d4cb98e331ecf79fd85e0dc6" target="_top" xlink:title="Shift a Euclidean line (or vector) to the origin. ">
<polygon fill="white" stroke="black" points="171,-76.5 171,-95.5 250,-95.5 250,-76.5 171,-76.5"/>
<text text-anchor="middle" x="210.5" y="-83.5" font-family="Helvetica,sans-Serif" font-size="10.00">get_line2origin</text>
</a>
</g>
</g>
<!-- Node3&#45;&gt;Node8 -->
<g id="edge8" class="edge"><title>Node3&#45;&gt;Node8</title>
<path fill="none" stroke="midnightblue" d="M112.309,-152.365C122.754,-139.997 142.364,-118.525 163,-105 165.772,-103.183 168.745,-101.488 171.799,-99.9165"/>
<polygon fill="midnightblue" stroke="midnightblue" points="173.503,-102.984 181.083,-95.5822 170.541,-96.6412 173.503,-102.984"/>
</g>
<!-- Node9 -->
<g id="node9" class="node"><title>Node9</title>
<g id="a_node9"><a xlink:href="group__math__vector__algebra.html#ga3a0c4c75047b8003ab09286a77a58c86" target="_top" xlink:title="Compute the angle between two lines (or vectors) in a Euclidean 3d or 2d&#45;space. ">
<polygon fill="white" stroke="black" points="185.5,-38.5 185.5,-57.5 235.5,-57.5 235.5,-38.5 185.5,-38.5"/>
<text text-anchor="middle" x="210.5" y="-45.5" font-family="Helvetica,sans-Serif" font-size="10.00">angle_ll</text>
</a>
</g>
</g>
<!-- Node3&#45;&gt;Node9 -->
<g id="edge9" class="edge"><title>Node3&#45;&gt;Node9</title>
<path fill="none" stroke="midnightblue" d="M108.089,-152.259C115.523,-133.329 134.342,-91.3043 163,-67 166.791,-63.7849 171.199,-61.0595 175.762,-58.7653"/>
<polygon fill="midnightblue" stroke="midnightblue" points="177.434,-61.8543 185.195,-54.6426 174.631,-55.44 177.434,-61.8543"/>
</g>
<!-- Node10 -->
<g id="node10" class="node"><title>Node10</title>
<g id="a_node10"><a xlink:href="group__math__vector__algebra.html#ga882329ee346d5a7f9d0877afd115c3de" target="_top" xlink:title="Compute the cross product of two lines (or vectors) in a Euclidean 3d or 2d&#45;space. ">
<polygon fill="white" stroke="black" points="185.5,-0.5 185.5,-19.5 235.5,-19.5 235.5,-0.5 185.5,-0.5"/>
<text text-anchor="middle" x="210.5" y="-7.5" font-family="Helvetica,sans-Serif" font-size="10.00">cross_ll</text>
</a>
</g>
</g>
<!-- Node3&#45;&gt;Node10 -->
<g id="edge10" class="edge"><title>Node3&#45;&gt;Node10</title>
<path fill="none" stroke="midnightblue" d="M106.197,-152.211C110.875,-128.042 126.134,-64.9023 163,-29 166.731,-25.3665 171.252,-22.3943 175.991,-19.9725"/>
<polygon fill="midnightblue" stroke="midnightblue" points="177.443,-23.1575 185.223,-15.9648 174.656,-16.7365 177.443,-23.1575"/>
</g>
</g>
</svg>
