<?xml version="1.0" encoding="UTF-8" standalone="no"?>
<!DOCTYPE svg PUBLIC "-//W3C//DTD SVG 1.1//EN"
 "http://www.w3.org/Graphics/SVG/1.1/DTD/svg11.dtd">
<!-- Generated by graphviz version 2.38.0 (20140413.2041)
 -->
<!-- Title: Repeat Pages: 1 -->
<svg width="216pt" height="80pt"
 viewBox="0.00 0.00 216.00 80.00" xmlns="http://www.w3.org/2000/svg" xmlns:xlink="http://www.w3.org/1999/xlink">
<g id="graph0" class="graph" transform="scale(1 1) rotate(0) translate(4 76)">
<title>Repeat</title>
<polygon fill="white" stroke="none" points="-4,4 -4,-76 212,-76 212,4 -4,4"/>
<!-- Node2 -->
<g id="node1" class="node"><title>Node2</title>
<g id="a_node1"><a xlink:href="group__tools__extrude.html" target="_top" xlink:title="Shape extrusion tools. ">
<polygon fill="white" stroke="black" points="158,-52.5 158,-71.5 208,-71.5 208,-52.5 158,-52.5"/>
<text text-anchor="middle" x="183" y="-59.5" font-family="Helvetica,sans-Serif" font-size="10.00">Extrude</text>
</a>
</g>
</g>
<!-- Node0 -->
<g id="node2" class="node"><title>Node0</title>
<polygon fill="#bfbfbf" stroke="black" points="0,-18.5 0,-37.5 48,-37.5 48,-18.5 0,-18.5"/>
<text text-anchor="middle" x="24" y="-25.5" font-family="Helvetica,sans-Serif" font-size="10.00">Repeat</text>
</g>
<!-- Node0&#45;&gt;Node2 -->
<g id="edge3" class="edge"><title>Node0&#45;&gt;Node2</title>
<path fill="none" stroke="darkgreen" stroke-dasharray="5,2" d="M48.3828,-33.8537C54.1338,-35.2519 60.282,-36.7116 66,-38 97.6986,-45.1425 134.456,-52.6106 157.953,-57.2816"/>
<text text-anchor="middle" x="103" y="-56" font-family="Helvetica,sans-Serif" font-size="10.00">tools_utility.scad</text>
</g>
<!-- Node1 -->
<g id="node3" class="node"><title>Node1</title>
<g id="a_node3"><a xlink:href="group__tools.html" target="_top" xlink:title="Design tools and techniques. ">
<polygon fill="white" stroke="black" points="162.5,-0.5 162.5,-19.5 203.5,-19.5 203.5,-0.5 162.5,-0.5"/>
<text text-anchor="middle" x="183" y="-7.5" font-family="Helvetica,sans-Serif" font-size="10.00">Tools</text>
</a>
</g>
</g>
<!-- Node0&#45;&gt;Node1 -->
<g id="edge2" class="edge"><title>Node0&#45;&gt;Node1</title>
<path fill="none" stroke="darkgreen" stroke-dasharray="5,2" d="M48.1659,-25.344C79.0435,-21.8039 133.161,-15.5994 162.22,-12.2677"/>
<text text-anchor="middle" x="103" y="-26" font-family="Helvetica,sans-Serif" font-size="10.00">tools_utility.scad</text>
</g>
<!-- Node1&#45;&gt;Node0 -->
<g id="edge1" class="edge"><title>Node1&#45;&gt;Node0</title>
<path fill="none" stroke="black" d="M152.328,-6.12389C128.662,-3.89475 94.8235,-2.64594 66,-9 57.5726,-10.8578 48.8176,-14.627 41.5725,-18.3221"/>
<polygon fill="black" stroke="black" points="152.118,-9.62112 162.43,-7.19328 152.854,-2.66001 152.118,-9.62112"/>
</g>
</g>
</svg>
