<?xml version="1.0" encoding="UTF-8" standalone="no"?>
<!DOCTYPE svg PUBLIC "-//W3C//DTD SVG 1.1//EN"
 "http://www.w3.org/Graphics/SVG/1.1/DTD/svg11.dtd">
<!-- Generated by graphviz version 2.38.0 (20140413.2041)
 -->
<!-- Title: not_defined Pages: 1 -->
<svg width="427pt" height="864pt"
 viewBox="0.00 0.00 427.00 864.00" xmlns="http://www.w3.org/2000/svg" xmlns:xlink="http://www.w3.org/1999/xlink">
<g id="graph0" class="graph" transform="scale(1 1) rotate(0) translate(4 860)">
<title>not_defined</title>
<polygon fill="white" stroke="none" points="-4,4 -4,-860 423,-860 423,4 -4,4"/>
<!-- Node1 -->
<g id="node1" class="node"><title>Node1</title>
<polygon fill="#bfbfbf" stroke="black" points="0,-722.5 0,-741.5 67,-741.5 67,-722.5 0,-722.5"/>
<text text-anchor="middle" x="33.5" y="-729.5" font-family="Helvetica,sans-Serif" font-size="10.00">not_defined</text>
</g>
<!-- Node2 -->
<g id="node2" class="node"><title>Node2</title>
<g id="a_node2"><a xlink:href="group__datatypes__table.html#ga717ca569831188092358ee04f7211700" target="_top" xlink:title="Dump a table to the console. ">
<polygon fill="white" stroke="black" points="117,-836.5 117,-855.5 184,-855.5 184,-836.5 117,-836.5"/>
<text text-anchor="middle" x="150.5" y="-843.5" font-family="Helvetica,sans-Serif" font-size="10.00">table_dump</text>
</a>
</g>
</g>
<!-- Node1&#45;&gt;Node2 -->
<g id="edge1" class="edge"><title>Node1&#45;&gt;Node2</title>
<path fill="none" stroke="midnightblue" d="M43.8099,-750.665C55.1792,-771.772 76.2444,-805.934 103,-827 107.796,-830.776 113.446,-833.908 119.125,-836.466"/>
<polygon fill="midnightblue" stroke="midnightblue" points="46.8767,-748.977 39.1538,-741.724 40.668,-752.21 46.8767,-748.977"/>
</g>
<!-- Node3 -->
<g id="node3" class="node"><title>Node3</title>
<g id="a_node3"><a xlink:href="group__shapes__2d.html#ga9f679c29426c44ee83b4a13b5dd47138" target="_top" xlink:title="A rectangle with edge, fillet, and/or chamfer corners. ">
<polygon fill="white" stroke="black" points="122.5,-798.5 122.5,-817.5 178.5,-817.5 178.5,-798.5 122.5,-798.5"/>
<text text-anchor="middle" x="150.5" y="-805.5" font-family="Helvetica,sans-Serif" font-size="10.00">rectangle</text>
</a>
</g>
</g>
<!-- Node1&#45;&gt;Node3 -->
<g id="edge2" class="edge"><title>Node1&#45;&gt;Node3</title>
<path fill="none" stroke="midnightblue" d="M51.3697,-748.572C64.5908,-760.905 83.8902,-777.52 103,-789 108.98,-792.593 115.764,-795.795 122.265,-798.501"/>
<polygon fill="midnightblue" stroke="midnightblue" points="53.6336,-745.895 43.9791,-741.531 48.8051,-750.963 53.6336,-745.895"/>
</g>
<!-- Node8 -->
<g id="node8" class="node"><title>Node8</title>
<g id="a_node8"><a xlink:href="group__shapes__2d.html#ga89c8cb6f39cf9b045091f8b0434b25d0" target="_top" xlink:title="A rhombus. ">
<polygon fill="white" stroke="black" points="123.5,-760.5 123.5,-779.5 177.5,-779.5 177.5,-760.5 123.5,-760.5"/>
<text text-anchor="middle" x="150.5" y="-767.5" font-family="Helvetica,sans-Serif" font-size="10.00">rhombus</text>
</a>
</g>
</g>
<!-- Node1&#45;&gt;Node8 -->
<g id="edge7" class="edge"><title>Node1&#45;&gt;Node8</title>
<path fill="none" stroke="midnightblue" d="M73.3927,-744.852C89.8098,-750.276 108.495,-756.451 123.243,-761.324"/>
<polygon fill="midnightblue" stroke="midnightblue" points="74.1126,-741.403 63.5194,-741.589 71.9163,-748.05 74.1126,-741.403"/>
</g>
<!-- Node10 -->
<g id="node10" class="node"><title>Node10</title>
<g id="a_node10"><a xlink:href="group__shapes__2d.html#ga523675020d361e525669de448e17cfd7" target="_top" xlink:title="An n&#45;sided equiangular/equilateral regular polygon. ">
<polygon fill="white" stroke="black" points="131.5,-722.5 131.5,-741.5 169.5,-741.5 169.5,-722.5 131.5,-722.5"/>
<text text-anchor="middle" x="150.5" y="-729.5" font-family="Helvetica,sans-Serif" font-size="10.00">ngon</text>
</a>
</g>
</g>
<!-- Node1&#45;&gt;Node10 -->
<g id="edge9" class="edge"><title>Node1&#45;&gt;Node10</title>
<path fill="none" stroke="midnightblue" d="M77.2609,-732C95.9796,-732 116.933,-732 131.432,-732"/>
<polygon fill="midnightblue" stroke="midnightblue" points="77.1468,-728.5 67.1468,-732 77.1467,-735.5 77.1468,-728.5"/>
</g>
<!-- Node12 -->
<g id="node12" class="node"><title>Node12</title>
<g id="a_node12"><a xlink:href="group__shapes__3d.html#gaf1d71183e9f3fb9a5e48b8c9a67085d6" target="_top" xlink:title="A cuboid with edge, fillet, or chamfer corners. ">
<polygon fill="white" stroke="black" points="128,-38.5 128,-57.5 173,-57.5 173,-38.5 128,-38.5"/>
<text text-anchor="middle" x="150.5" y="-45.5" font-family="Helvetica,sans-Serif" font-size="10.00">cuboid</text>
</a>
</g>
</g>
<!-- Node1&#45;&gt;Node12 -->
<g id="edge11" class="edge"><title>Node1&#45;&gt;Node12</title>
<path fill="none" stroke="midnightblue" d="M35.3296,-712.378C39.9011,-607.933 63.2694,-120.055 103,-67 108.959,-59.0423 118.832,-54.4041 127.951,-51.7071"/>
<polygon fill="midnightblue" stroke="midnightblue" points="31.8288,-712.323 34.8948,-722.464 38.8223,-712.624 31.8288,-712.323"/>
</g>
<!-- Node13 -->
<g id="node13" class="node"><title>Node13</title>
<g id="a_node13"><a xlink:href="group__tools__extrude.html#gaf0e13f98be7287f0157f2026db5e52d3" target="_top" xlink:title="Translate, rotate, and revolve the 2d shape about the z&#45;axis with linear elongation. ">
<polygon fill="white" stroke="black" points="103,-76.5 103,-95.5 198,-95.5 198,-76.5 103,-76.5"/>
<text text-anchor="middle" x="150.5" y="-83.5" font-family="Helvetica,sans-Serif" font-size="10.00">rotate_extrude_tre</text>
</a>
</g>
</g>
<!-- Node1&#45;&gt;Node13 -->
<g id="edge12" class="edge"><title>Node1&#45;&gt;Node13</title>
<path fill="none" stroke="midnightblue" d="M37.973,-712.491C55.6235,-613.341 135.042,-167.216 147.775,-95.6889"/>
<polygon fill="midnightblue" stroke="midnightblue" points="34.5218,-711.908 36.2149,-722.367 41.4134,-713.135 34.5218,-711.908"/>
</g>
<!-- Node16 -->
<g id="node16" class="node"><title>Node16</title>
<g id="a_node16"><a xlink:href="group__tools__extrude.html#ga2cb6eb6927858c6b5e1e2dfadb197bf9" target="_top" xlink:title="Linearly extrude 2d shape with extrusion upper and lower scaling. ">
<polygon fill="white" stroke="black" points="103,-475.5 103,-494.5 198,-494.5 198,-475.5 103,-475.5"/>
<text text-anchor="middle" x="150.5" y="-482.5" font-family="Helvetica,sans-Serif" font-size="10.00">linear_extrude_uls</text>
</a>
</g>
</g>
<!-- Node1&#45;&gt;Node16 -->
<g id="edge16" class="edge"><title>Node1&#45;&gt;Node16</title>
<path fill="none" stroke="midnightblue" d="M43.3164,-713.064C66.3812,-663.525 127.902,-531.389 145.023,-494.616"/>
<polygon fill="midnightblue" stroke="midnightblue" points="40.0561,-711.774 39.0081,-722.317 46.402,-714.729 40.0561,-711.774"/>
</g>
<!-- Node4 -->
<g id="node4" class="node"><title>Node4</title>
<g id="a_node4"><a xlink:href="group__shapes__2d.html#ga803b8196745be0e3a338def3c58e3b2b" target="_top" xlink:title="A rectangle with a removed rectangular core. ">
<polygon fill="white" stroke="black" points="239,-836.5 239,-855.5 306,-855.5 306,-836.5 239,-836.5"/>
<text text-anchor="middle" x="272.5" y="-843.5" font-family="Helvetica,sans-Serif" font-size="10.00">rectangle_c</text>
</a>
</g>
</g>
<!-- Node3&#45;&gt;Node4 -->
<g id="edge3" class="edge"><title>Node3&#45;&gt;Node4</title>
<path fill="none" stroke="midnightblue" d="M188.361,-819.673C205.382,-825.063 225.336,-831.382 241.429,-836.478"/>
<polygon fill="midnightblue" stroke="midnightblue" points="189.32,-816.305 178.73,-816.623 187.207,-822.978 189.32,-816.305"/>
</g>
<!-- Node7 -->
<g id="node7" class="node"><title>Node7</title>
<g id="a_node7"><a xlink:href="group__shapes__2de.html#ga5fd9b6fca4860ae7c54cbeb9024e74f0" target="_top" xlink:title="An extruded rectangle with edge, fillet, and/or chamfer corners. ">
<polygon fill="white" stroke="black" points="241.5,-798.5 241.5,-817.5 303.5,-817.5 303.5,-798.5 241.5,-798.5"/>
<text text-anchor="middle" x="272.5" y="-805.5" font-family="Helvetica,sans-Serif" font-size="10.00">erectangle</text>
</a>
</g>
</g>
<!-- Node3&#45;&gt;Node7 -->
<g id="edge6" class="edge"><title>Node3&#45;&gt;Node7</title>
<path fill="none" stroke="midnightblue" d="M188.839,-808C205.755,-808 225.487,-808 241.429,-808"/>
<polygon fill="midnightblue" stroke="midnightblue" points="188.73,-804.5 178.73,-808 188.73,-811.5 188.73,-804.5"/>
</g>
<!-- Node5 -->
<g id="node5" class="node"><title>Node5</title>
<g id="a_node5"><a xlink:href="group__shapes__2de.html#gaa24ca5f53d00f33d356f40f740a1d7f7" target="_top" xlink:title="An extruded rectangle with a removed rectangular core. ">
<polygon fill="white" stroke="black" points="347,-760.5 347,-779.5 419,-779.5 419,-760.5 347,-760.5"/>
<text text-anchor="middle" x="383" y="-767.5" font-family="Helvetica,sans-Serif" font-size="10.00">erectangle_c</text>
</a>
</g>
</g>
<!-- Node4&#45;&gt;Node5 -->
<g id="edge4" class="edge"><title>Node4&#45;&gt;Node5</title>
<path fill="none" stroke="midnightblue" d="M303.237,-831.66C305.903,-830.158 308.527,-828.594 311,-827 333.85,-812.266 358.046,-791.6 371.464,-779.625"/>
<polygon fill="midnightblue" stroke="midnightblue" points="301.349,-828.701 294.169,-836.492 304.64,-834.879 301.349,-828.701"/>
</g>
<!-- Node6 -->
<g id="node6" class="node"><title>Node6</title>
<g id="a_node6"><a xlink:href="group__shapes__3d.html#gac521ba184d6ac7693df4db67df2499b8" target="_top" xlink:title="A rectangular cross&#45;sectional profile revolved about the z&#45;axis. ">
<polygon fill="white" stroke="black" points="357,-437.5 357,-456.5 409,-456.5 409,-437.5 357,-437.5"/>
<text text-anchor="middle" x="383" y="-444.5" font-family="Helvetica,sans-Serif" font-size="10.00">torus_rp</text>
</a>
</g>
</g>
<!-- Node4&#45;&gt;Node6 -->
<g id="edge5" class="edge"><title>Node4&#45;&gt;Node6</title>
<path fill="none" stroke="midnightblue" d="M308.427,-829.994C309.349,-829.048 310.212,-828.051 311,-827 357.093,-765.513 377.536,-509.959 381.335,-456.737"/>
<polygon fill="midnightblue" stroke="midnightblue" points="306.124,-827.352 300.413,-836.276 310.442,-832.861 306.124,-827.352"/>
</g>
<!-- Node9 -->
<g id="node9" class="node"><title>Node9</title>
<g id="a_node9"><a xlink:href="group__shapes__2de.html#gadc20c762def9f625af7141e22229ff55" target="_top" xlink:title="An extruded rhombus. ">
<polygon fill="white" stroke="black" points="243,-760.5 243,-779.5 302,-779.5 302,-760.5 243,-760.5"/>
<text text-anchor="middle" x="272.5" y="-767.5" font-family="Helvetica,sans-Serif" font-size="10.00">erhombus</text>
</a>
</g>
</g>
<!-- Node8&#45;&gt;Node9 -->
<g id="edge8" class="edge"><title>Node8&#45;&gt;Node9</title>
<path fill="none" stroke="midnightblue" d="M187.543,-770C205.293,-770 226.39,-770 242.995,-770"/>
<polygon fill="midnightblue" stroke="midnightblue" points="187.538,-766.5 177.538,-770 187.538,-773.5 187.538,-766.5"/>
</g>
<!-- Node11 -->
<g id="node11" class="node"><title>Node11</title>
<g id="a_node11"><a xlink:href="group__shapes__2de.html#ga67e3b7f863de9d93ec949f5d39a6e04a" target="_top" xlink:title="An extruded n&#45;sided equiangular/equilateral regular polygon. ">
<polygon fill="white" stroke="black" points="251,-722.5 251,-741.5 294,-741.5 294,-722.5 251,-722.5"/>
<text text-anchor="middle" x="272.5" y="-729.5" font-family="Helvetica,sans-Serif" font-size="10.00">engon</text>
</a>
</g>
</g>
<!-- Node10&#45;&gt;Node11 -->
<g id="edge10" class="edge"><title>Node10&#45;&gt;Node11</title>
<path fill="none" stroke="midnightblue" d="M179.992,-732C201.714,-732 231.127,-732 250.679,-732"/>
<polygon fill="midnightblue" stroke="midnightblue" points="179.725,-728.5 169.725,-732 179.725,-735.5 179.725,-728.5"/>
</g>
<!-- Node13&#45;&gt;Node6 -->
<g id="edge13" class="edge"><title>Node13&#45;&gt;Node6</title>
<path fill="none" stroke="midnightblue" d="M208.529,-77.5345C242.405,-75.851 283.903,-80.1423 311,-105 361.942,-151.733 378.462,-386.502 381.466,-437.298"/>
<polygon fill="midnightblue" stroke="midnightblue" points="208.024,-74.0607 198.285,-78.2326 208.5,-81.0445 208.024,-74.0607"/>
</g>
<!-- Node14 -->
<g id="node14" class="node"><title>Node14</title>
<g id="a_node14"><a xlink:href="group__shapes__3d.html#gaa3137155089f4d50c13ebea05402edd0" target="_top" xlink:title="A triangular cross&#45;sectional profile revolved about the z&#45;axis. ">
<polygon fill="white" stroke="black" points="246.5,-38.5 246.5,-57.5 298.5,-57.5 298.5,-38.5 246.5,-38.5"/>
<text text-anchor="middle" x="272.5" y="-45.5" font-family="Helvetica,sans-Serif" font-size="10.00">torus_tp</text>
</a>
</g>
</g>
<!-- Node13&#45;&gt;Node14 -->
<g id="edge14" class="edge"><title>Node13&#45;&gt;Node14</title>
<path fill="none" stroke="midnightblue" d="M191.536,-73.3218C209.695,-67.5716 230.607,-60.9495 246.49,-55.9198"/>
<polygon fill="midnightblue" stroke="midnightblue" points="190.258,-70.0553 181.781,-76.411 192.371,-76.7287 190.258,-70.0553"/>
</g>
<!-- Node15 -->
<g id="node15" class="node"><title>Node15</title>
<g id="a_node15"><a xlink:href="group__shapes__3d.html#gaf5589d4cfa40aefb7853b4eebc792312" target="_top" xlink:title="An elliptical cross&#45;sectional profile revolved about the z&#45;axis. ">
<polygon fill="white" stroke="black" points="245.5,-0.5 245.5,-19.5 299.5,-19.5 299.5,-0.5 245.5,-0.5"/>
<text text-anchor="middle" x="272.5" y="-7.5" font-family="Helvetica,sans-Serif" font-size="10.00">torus_ep</text>
</a>
</g>
</g>
<!-- Node13&#45;&gt;Node15 -->
<g id="edge15" class="edge"><title>Node13&#45;&gt;Node15</title>
<path fill="none" stroke="midnightblue" d="M189.797,-71.9301C192.652,-70.4089 195.42,-68.7654 198,-67 217.199,-53.8608 215.349,-42.9063 234,-29 238.681,-25.5099 244.098,-22.3457 249.335,-19.6444"/>
<polygon fill="midnightblue" stroke="midnightblue" points="188.025,-68.898 180.515,-76.3714 191.046,-75.2125 188.025,-68.898"/>
</g>
<!-- Node16&#45;&gt;Node5 -->
<g id="edge18" class="edge"><title>Node16&#45;&gt;Node5</title>
<path fill="none" stroke="midnightblue" d="M155.329,-504.707C163.543,-542.245 186.127,-624.732 234,-675 260.319,-702.635 278.818,-692.488 311,-713 333.927,-727.613 358.097,-748.321 371.489,-760.337"/>
<polygon fill="midnightblue" stroke="midnightblue" points="158.688,-503.667 153.23,-494.586 151.834,-505.089 158.688,-503.667"/>
</g>
<!-- Node16&#45;&gt;Node7 -->
<g id="edge17" class="edge"><title>Node16&#45;&gt;Node7</title>
<path fill="none" stroke="midnightblue" d="M154.685,-504.602C164.743,-564.534 197.342,-743.983 234,-789 237.042,-792.735 241.007,-795.807 245.219,-798.31"/>
<polygon fill="midnightblue" stroke="midnightblue" points="158.111,-503.867 153.026,-494.572 151.204,-505.009 158.111,-503.867"/>
</g>
<!-- Node16&#45;&gt;Node9 -->
<g id="edge19" class="edge"><title>Node16&#45;&gt;Node9</title>
<path fill="none" stroke="midnightblue" d="M152.512,-504.996C155.934,-552.956 170.741,-676.092 234,-751 237.202,-754.792 241.349,-757.91 245.713,-760.444"/>
<polygon fill="midnightblue" stroke="midnightblue" points="155.988,-504.5 151.877,-494.735 149.002,-504.932 155.988,-504.5"/>
</g>
<!-- Node16&#45;&gt;Node11 -->
<g id="edge30" class="edge"><title>Node16&#45;&gt;Node11</title>
<path fill="none" stroke="midnightblue" d="M154.407,-504.438C161.451,-545.894 182.776,-644.384 234,-708 238.654,-713.78 245.091,-718.6 251.319,-722.367"/>
<polygon fill="midnightblue" stroke="midnightblue" points="157.859,-503.863 152.817,-494.545 150.948,-504.974 157.859,-503.863"/>
</g>
<!-- Node17 -->
<g id="node17" class="node"><title>Node17</title>
<g id="a_node17"><a xlink:href="group__shapes__2de.html#ga115ebc47b0630da820f163c0627c9b18" target="_top" xlink:title="An extruded general triangle specified by three vertices. ">
<polygon fill="white" stroke="black" points="235.5,-418.5 235.5,-437.5 309.5,-437.5 309.5,-418.5 235.5,-418.5"/>
<text text-anchor="middle" x="272.5" y="-425.5" font-family="Helvetica,sans-Serif" font-size="10.00">etriangle_ppp</text>
</a>
</g>
</g>
<!-- Node16&#45;&gt;Node17 -->
<g id="edge20" class="edge"><title>Node16&#45;&gt;Node17</title>
<path fill="none" stroke="midnightblue" d="M180.757,-471.103C202.652,-460.703 232.031,-446.748 251.349,-437.572"/>
<polygon fill="midnightblue" stroke="midnightblue" points="179.116,-468.007 171.585,-475.459 182.12,-474.33 179.116,-468.007"/>
</g>
<!-- Node18 -->
<g id="node18" class="node"><title>Node18</title>
<g id="a_node18"><a xlink:href="group__shapes__2de.html#ga919151e4d8f40c9218c63b867fb80b7b" target="_top" xlink:title="An extruded general triangle specified by a list of its three vertices. ">
<polygon fill="white" stroke="black" points="239.5,-380.5 239.5,-399.5 305.5,-399.5 305.5,-380.5 239.5,-380.5"/>
<text text-anchor="middle" x="272.5" y="-387.5" font-family="Helvetica,sans-Serif" font-size="10.00">etriangle_lp</text>
</a>
</g>
</g>
<!-- Node16&#45;&gt;Node18 -->
<g id="edge21" class="edge"><title>Node16&#45;&gt;Node18</title>
<path fill="none" stroke="midnightblue" d="M167.363,-467.866C183.18,-451.421 208.702,-426.557 234,-409 238.917,-405.588 244.531,-402.412 249.892,-399.672"/>
<polygon fill="midnightblue" stroke="midnightblue" points="164.757,-465.528 160.421,-475.195 169.839,-470.342 164.757,-465.528"/>
</g>
<!-- Node19 -->
<g id="node19" class="node"><title>Node19</title>
<g id="a_node19"><a xlink:href="group__shapes__2de.html#ga4940596130c3cd1e62fea77569459a52" target="_top" xlink:title="An extruded general triangle specified by its three side lengths. ">
<polygon fill="white" stroke="black" points="235.5,-342.5 235.5,-361.5 309.5,-361.5 309.5,-342.5 235.5,-342.5"/>
<text text-anchor="middle" x="272.5" y="-349.5" font-family="Helvetica,sans-Serif" font-size="10.00">etriangle_sss</text>
</a>
</g>
</g>
<!-- Node16&#45;&gt;Node19 -->
<g id="edge22" class="edge"><title>Node16&#45;&gt;Node19</title>
<path fill="none" stroke="midnightblue" d="M161.308,-466.28C174.901,-441.791 201.503,-398.744 234,-371 238.219,-367.399 243.237,-364.261 248.209,-361.629"/>
<polygon fill="midnightblue" stroke="midnightblue" points="158.132,-464.796 156.449,-475.257 164.288,-468.128 158.132,-464.796"/>
</g>
<!-- Node20 -->
<g id="node20" class="node"><title>Node20</title>
<g id="a_node20"><a xlink:href="group__shapes__2de.html#gace35f9581cef6d5c20c3fd1d922284d1" target="_top" xlink:title="An extruded general triangle specified by a list of its three side lengths. ">
<polygon fill="white" stroke="black" points="239.5,-304.5 239.5,-323.5 305.5,-323.5 305.5,-304.5 239.5,-304.5"/>
<text text-anchor="middle" x="272.5" y="-311.5" font-family="Helvetica,sans-Serif" font-size="10.00">etriangle_ls</text>
</a>
</g>
</g>
<!-- Node16&#45;&gt;Node20 -->
<g id="edge23" class="edge"><title>Node16&#45;&gt;Node20</title>
<path fill="none" stroke="midnightblue" d="M157.797,-465.43C168.777,-433.968 194.134,-371.753 234,-333 237.768,-329.337 242.383,-326.232 247.07,-323.66"/>
<polygon fill="midnightblue" stroke="midnightblue" points="154.386,-464.593 154.512,-475.187 161.02,-466.826 154.386,-464.593"/>
</g>
<!-- Node21 -->
<g id="node21" class="node"><title>Node21</title>
<g id="a_node21"><a xlink:href="group__shapes__2de.html#ga0c99582ccf3d5b1425c99001b228c202" target="_top" xlink:title="A general triangle specified by its sides with a removed triangular core. ">
<polygon fill="white" stroke="black" points="234,-266.5 234,-285.5 311,-285.5 311,-266.5 234,-266.5"/>
<text text-anchor="middle" x="272.5" y="-273.5" font-family="Helvetica,sans-Serif" font-size="10.00">etriangle_ls_c</text>
</a>
</g>
</g>
<!-- Node16&#45;&gt;Node21 -->
<g id="edge24" class="edge"><title>Node16&#45;&gt;Node21</title>
<path fill="none" stroke="midnightblue" d="M155.378,-465.338C163.674,-427.879 186.392,-345.519 234,-295 237.504,-291.282 241.895,-288.177 246.427,-285.627"/>
<polygon fill="midnightblue" stroke="midnightblue" points="151.887,-464.931 153.254,-475.437 158.737,-466.371 151.887,-464.931"/>
</g>
<!-- Node22 -->
<g id="node22" class="node"><title>Node22</title>
<g id="a_node22"><a xlink:href="group__shapes__2de.html#gae4dc22fae0c22daa5d4844755cd268ac" target="_top" xlink:title="An extruded general triangle specified by two sides and the included angle. ">
<polygon fill="white" stroke="black" points="235.5,-228.5 235.5,-247.5 309.5,-247.5 309.5,-228.5 235.5,-228.5"/>
<text text-anchor="middle" x="272.5" y="-235.5" font-family="Helvetica,sans-Serif" font-size="10.00">etriangle_sas</text>
</a>
</g>
</g>
<!-- Node16&#45;&gt;Node22 -->
<g id="edge25" class="edge"><title>Node16&#45;&gt;Node22</title>
<path fill="none" stroke="midnightblue" d="M153.754,-464.988C159.563,-421.962 178.681,-319.502 234,-257 237.289,-253.284 241.477,-250.201 245.854,-247.678"/>
<polygon fill="midnightblue" stroke="midnightblue" points="150.267,-464.67 152.499,-475.027 157.213,-465.538 150.267,-464.67"/>
</g>
<!-- Node23 -->
<g id="node23" class="node"><title>Node23</title>
<g id="a_node23"><a xlink:href="group__shapes__2de.html#ga5b1240a97e34583d10011e5d0044ca28" target="_top" xlink:title="An extruded general triangle specified by a side and two adjacent angles. ">
<polygon fill="white" stroke="black" points="235.5,-190.5 235.5,-209.5 309.5,-209.5 309.5,-190.5 235.5,-190.5"/>
<text text-anchor="middle" x="272.5" y="-197.5" font-family="Helvetica,sans-Serif" font-size="10.00">etriangle_asa</text>
</a>
</g>
</g>
<!-- Node16&#45;&gt;Node23 -->
<g id="edge26" class="edge"><title>Node16&#45;&gt;Node23</title>
<path fill="none" stroke="midnightblue" d="M152.512,-465.004C155.934,-417.044 170.741,-293.908 234,-219 237.202,-215.208 241.349,-212.09 245.713,-209.556"/>
<polygon fill="midnightblue" stroke="midnightblue" points="149.002,-465.068 151.877,-475.265 155.988,-465.5 149.002,-465.068"/>
</g>
<!-- Node24 -->
<g id="node24" class="node"><title>Node24</title>
<g id="a_node24"><a xlink:href="group__shapes__2de.html#ga8a3300cf4ca82dad9002965960a76a9c" target="_top" xlink:title="An extruded general triangle specified by a side, one adjacent angle and the opposite angle...">
<polygon fill="white" stroke="black" points="235.5,-152.5 235.5,-171.5 309.5,-171.5 309.5,-152.5 235.5,-152.5"/>
<text text-anchor="middle" x="272.5" y="-159.5" font-family="Helvetica,sans-Serif" font-size="10.00">etriangle_aas</text>
</a>
</g>
</g>
<!-- Node16&#45;&gt;Node24 -->
<g id="edge27" class="edge"><title>Node16&#45;&gt;Node24</title>
<path fill="none" stroke="midnightblue" d="M151.564,-465.036C152.754,-412.515 162.73,-268.52 234,-181 237.042,-177.265 241.007,-174.193 245.219,-171.69"/>
<polygon fill="midnightblue" stroke="midnightblue" points="148.061,-465.272 151.422,-475.319 155.06,-465.368 148.061,-465.272"/>
</g>
<!-- Node25 -->
<g id="node25" class="node"><title>Node25</title>
<g id="a_node25"><a xlink:href="group__shapes__2de.html#gac86de6d90f92b19be2fda894d97dfad4" target="_top" xlink:title="An extruded right&#45;angled triangle specified by its opposite and adjacent side lengths. ">
<polygon fill="white" stroke="black" points="238,-114.5 238,-133.5 307,-133.5 307,-114.5 238,-114.5"/>
<text text-anchor="middle" x="272.5" y="-121.5" font-family="Helvetica,sans-Serif" font-size="10.00">etriangle_ss</text>
</a>
</g>
</g>
<!-- Node16&#45;&gt;Node25 -->
<g id="edge28" class="edge"><title>Node16&#45;&gt;Node25</title>
<path fill="none" stroke="midnightblue" d="M150.82,-465.232C149.906,-408.597 154.589,-243.385 234,-143 236.988,-139.222 240.929,-136.129 245.131,-133.62"/>
<polygon fill="midnightblue" stroke="midnightblue" points="147.324,-465.423 151.066,-475.334 154.322,-465.252 147.324,-465.423"/>
</g>
<!-- Node26 -->
<g id="node26" class="node"><title>Node26</title>
<g id="a_node26"><a xlink:href="group__shapes__2de.html#gaa80e1bde5ce902feba29d0d57169b8d5" target="_top" xlink:title="An extruded right&#45;angled triangle specified by a side length and an angle. ">
<polygon fill="white" stroke="black" points="238,-646.5 238,-665.5 307,-665.5 307,-646.5 238,-646.5"/>
<text text-anchor="middle" x="272.5" y="-653.5" font-family="Helvetica,sans-Serif" font-size="10.00">etriangle_sa</text>
</a>
</g>
</g>
<!-- Node16&#45;&gt;Node26 -->
<g id="edge29" class="edge"><title>Node16&#45;&gt;Node26</title>
<path fill="none" stroke="midnightblue" d="M157.797,-504.57C168.777,-536.032 194.134,-598.247 234,-637 237.768,-640.663 242.383,-643.768 247.07,-646.34"/>
<polygon fill="midnightblue" stroke="midnightblue" points="161.02,-503.174 154.512,-494.813 154.386,-505.407 161.02,-503.174"/>
</g>
<!-- Node27 -->
<g id="node27" class="node"><title>Node27</title>
<g id="a_node27"><a xlink:href="group__shapes__2de.html#ga8a0fdbbb045a70b7207fd84abeb7b18a" target="_top" xlink:title="An extruded ellipse. ">
<polygon fill="white" stroke="black" points="247.5,-608.5 247.5,-627.5 297.5,-627.5 297.5,-608.5 247.5,-608.5"/>
<text text-anchor="middle" x="272.5" y="-615.5" font-family="Helvetica,sans-Serif" font-size="10.00">eellipse</text>
</a>
</g>
</g>
<!-- Node16&#45;&gt;Node27 -->
<g id="edge31" class="edge"><title>Node16&#45;&gt;Node27</title>
<path fill="none" stroke="midnightblue" d="M161.308,-503.72C174.901,-528.209 201.503,-571.256 234,-599 238.219,-602.601 243.237,-605.739 248.209,-608.371"/>
<polygon fill="midnightblue" stroke="midnightblue" points="164.288,-501.872 156.449,-494.743 158.132,-505.204 164.288,-501.872"/>
</g>
<!-- Node28 -->
<g id="node28" class="node"><title>Node28</title>
<g id="a_node28"><a xlink:href="group__shapes__2de.html#ga3189db3471cd678cc0f8d88f325186eb" target="_top" xlink:title="An extruded ellipse with a removed elliptical core. ">
<polygon fill="white" stroke="black" points="242.5,-570.5 242.5,-589.5 302.5,-589.5 302.5,-570.5 242.5,-570.5"/>
<text text-anchor="middle" x="272.5" y="-577.5" font-family="Helvetica,sans-Serif" font-size="10.00">eellipse_c</text>
</a>
</g>
</g>
<!-- Node16&#45;&gt;Node28 -->
<g id="edge32" class="edge"><title>Node16&#45;&gt;Node28</title>
<path fill="none" stroke="midnightblue" d="M167.363,-502.134C183.18,-518.579 208.702,-543.443 234,-561 238.917,-564.412 244.531,-567.588 249.892,-570.328"/>
<polygon fill="midnightblue" stroke="midnightblue" points="169.839,-499.658 160.421,-494.805 164.757,-504.472 169.839,-499.658"/>
</g>
<!-- Node29 -->
<g id="node29" class="node"><title>Node29</title>
<g id="a_node29"><a xlink:href="group__shapes__2de.html#gaea89a352b138d105073d0a401b94c024" target="_top" xlink:title="An extruded ellipse sector. ">
<polygon fill="white" stroke="black" points="242.5,-532.5 242.5,-551.5 302.5,-551.5 302.5,-532.5 242.5,-532.5"/>
<text text-anchor="middle" x="272.5" y="-539.5" font-family="Helvetica,sans-Serif" font-size="10.00">eellipse_s</text>
</a>
</g>
</g>
<!-- Node16&#45;&gt;Node29 -->
<g id="edge33" class="edge"><title>Node16&#45;&gt;Node29</title>
<path fill="none" stroke="midnightblue" d="M180.757,-498.897C202.652,-509.297 232.031,-523.252 251.349,-532.428"/>
<polygon fill="midnightblue" stroke="midnightblue" points="182.12,-495.67 171.585,-494.541 179.116,-501.993 182.12,-495.67"/>
</g>
<!-- Node30 -->
<g id="node30" class="node"><title>Node30</title>
<g id="a_node30"><a xlink:href="group__shapes__2de.html#gae015f9c06a0ad064212475dcd1c1eb5c" target="_top" xlink:title="An extruded sector of an ellipse with a removed elliptical core. ">
<polygon fill="white" stroke="black" points="240,-494.5 240,-513.5 305,-513.5 305,-494.5 240,-494.5"/>
<text text-anchor="middle" x="272.5" y="-501.5" font-family="Helvetica,sans-Serif" font-size="10.00">eellipse_cs</text>
</a>
</g>
</g>
<!-- Node16&#45;&gt;Node30 -->
<g id="edge34" class="edge"><title>Node16&#45;&gt;Node30</title>
<path fill="none" stroke="midnightblue" d="M208.173,-493.973C219.08,-495.7 230.134,-497.45 239.888,-498.995"/>
<polygon fill="midnightblue" stroke="midnightblue" points="208.663,-490.507 198.239,-492.4 207.568,-497.421 208.663,-490.507"/>
</g>
<!-- Node31 -->
<g id="node31" class="node"><title>Node31</title>
<g id="a_node31"><a xlink:href="group__shapes__2de.html#ga69ece32102ccb27e9985975fa4590251" target="_top" xlink:title="An extruded two&#45;dimensional star. ">
<polygon fill="white" stroke="black" points="248,-456.5 248,-475.5 297,-475.5 297,-456.5 248,-456.5"/>
<text text-anchor="middle" x="272.5" y="-463.5" font-family="Helvetica,sans-Serif" font-size="10.00">estar2d</text>
</a>
</g>
</g>
<!-- Node16&#45;&gt;Node31 -->
<g id="edge35" class="edge"><title>Node16&#45;&gt;Node31</title>
<path fill="none" stroke="midnightblue" d="M208.315,-476.004C222.267,-473.795 236.45,-471.55 247.834,-469.747"/>
<polygon fill="midnightblue" stroke="midnightblue" points="207.568,-472.579 198.239,-477.6 208.663,-479.493 207.568,-472.579"/>
</g>
</g>
</svg>
