<?xml version="1.0" encoding="UTF-8" standalone="no"?>
<!DOCTYPE svg PUBLIC "-//W3C//DTD SVG 1.1//EN"
 "http://www.w3.org/Graphics/SVG/1.1/DTD/svg11.dtd">
<!-- Generated by graphviz version 2.38.0 (20140413.2041)
 -->
<!-- Title: log_error Pages: 1 -->
<svg width="167pt" height="66pt"
 viewBox="0.00 0.00 167.00 66.00" xmlns="http://www.w3.org/2000/svg" xmlns:xlink="http://www.w3.org/1999/xlink">
<g id="graph0" class="graph" transform="scale(1 1) rotate(0) translate(4 62)">
<title>log_error</title>
<polygon fill="white" stroke="none" points="-4,4 -4,-62 163,-62 163,4 -4,4"/>
<!-- Node1 -->
<g id="node1" class="node"><title>Node1</title>
<polygon fill="#bfbfbf" stroke="black" points="0,-19.5 0,-38.5 54,-38.5 54,-19.5 0,-19.5"/>
<text text-anchor="middle" x="27" y="-26.5" font-family="Helvetica,sans-Serif" font-size="10.00">log_error</text>
</g>
<!-- Node2 -->
<g id="node2" class="node"><title>Node2</title>
<g id="a_node2"><a xlink:href="group__datatypes__map.html#ga4a3d0704d80be0d9e8bae1fcb3ab7958" target="_top" xlink:title="Perform some basic validation/checks on a map. ">
<polygon fill="white" stroke="black" points="91,-38.5 91,-57.5 158,-57.5 158,-38.5 91,-38.5"/>
<text text-anchor="middle" x="124.5" y="-45.5" font-family="Helvetica,sans-Serif" font-size="10.00">map_check</text>
</a>
</g>
</g>
<!-- Node1&#45;&gt;Node2 -->
<g id="edge1" class="edge"><title>Node1&#45;&gt;Node2</title>
<path fill="none" stroke="midnightblue" d="M64.1103,-36.1842C72.9285,-37.9387 82.3107,-39.8053 90.9515,-41.5244"/>
<polygon fill="midnightblue" stroke="midnightblue" points="64.5866,-32.7105 54.0958,-34.1918 63.2206,-39.5759 64.5866,-32.7105"/>
</g>
<!-- Node3 -->
<g id="node3" class="node"><title>Node3</title>
<g id="a_node3"><a xlink:href="group__datatypes__table.html#ga8a4429649e8b06d9f492e1a0d2653656" target="_top" xlink:title="Perform some basic validation/checks on a table. ">
<polygon fill="white" stroke="black" points="90,-0.5 90,-19.5 159,-19.5 159,-0.5 90,-0.5"/>
<text text-anchor="middle" x="124.5" y="-7.5" font-family="Helvetica,sans-Serif" font-size="10.00">table_check</text>
</a>
</g>
</g>
<!-- Node1&#45;&gt;Node3 -->
<g id="edge2" class="edge"><title>Node1&#45;&gt;Node3</title>
<path fill="none" stroke="midnightblue" d="M64.088,-21.8202C72.5554,-20.1356 81.5439,-18.3473 89.8974,-16.6853"/>
<polygon fill="midnightblue" stroke="midnightblue" points="63.2206,-18.4241 54.0958,-23.8082 64.5866,-25.2895 63.2206,-18.4241"/>
</g>
</g>
</svg>
