<?xml version="1.0" encoding="UTF-8" standalone="no"?>
<!DOCTYPE svg PUBLIC "-//W3C//DTD SVG 1.1//EN"
 "http://www.w3.org/Graphics/SVG/1.1/DTD/svg11.dtd">
<!-- Generated by graphviz version 2.38.0 (20140413.2041)
 -->
<!-- Title: polytope_number Pages: 1 -->
<svg width="364pt" height="560pt"
 viewBox="0.00 0.00 364.00 560.00" xmlns="http://www.w3.org/2000/svg" xmlns:xlink="http://www.w3.org/1999/xlink">
<g id="graph0" class="graph" transform="scale(1 1) rotate(0) translate(4 556)">
<title>polytope_number</title>
<polygon fill="white" stroke="none" points="-4,4 -4,-556 360,-556 360,4 -4,4"/>
<!-- Node1 -->
<g id="node1" class="node"><title>Node1</title>
<polygon fill="#bfbfbf" stroke="black" points="0,-266.5 0,-285.5 91,-285.5 91,-266.5 0,-266.5"/>
<text text-anchor="middle" x="45.5" y="-273.5" font-family="Helvetica,sans-Serif" font-size="10.00">polytope_number</text>
</g>
<!-- Node2 -->
<g id="node2" class="node"><title>Node2</title>
<g id="a_node2"><a xlink:href="group__datatypes__operate__scalar.html#gac119300e8c83de0037f2d0a4d9f0ab5c" target="_top" xlink:title="Return a value when it is defined or a default value when it is not. ">
<polygon fill="white" stroke="black" points="153,-532.5 153,-551.5 215,-551.5 215,-532.5 153,-532.5"/>
<text text-anchor="middle" x="184" y="-539.5" font-family="Helvetica,sans-Serif" font-size="10.00">defined_or</text>
</a>
</g>
</g>
<!-- Node1&#45;&gt;Node2 -->
<g id="edge1" class="edge"><title>Node1&#45;&gt;Node2</title>
<path fill="none" stroke="midnightblue" d="M46.7082,-285.584C48.0208,-321.929 57.5786,-452.738 127,-523 131.546,-527.601 137.246,-531.088 143.257,-533.731"/>
<polygon fill="midnightblue" stroke="midnightblue" points="142.243,-537.087 152.836,-537.228 144.643,-530.511 142.243,-537.087"/>
</g>
<!-- Node3 -->
<g id="node3" class="node"><title>Node3</title>
<g id="a_node3"><a xlink:href="group__datatypes__operate__list.html#gab05ff3da4d68d30922daa197f505580d" target="_top" xlink:title="Create a sequence of constant or incrementing elements. ">
<polygon fill="white" stroke="black" points="161,-494.5 161,-513.5 207,-513.5 207,-494.5 161,-494.5"/>
<text text-anchor="middle" x="184" y="-501.5" font-family="Helvetica,sans-Serif" font-size="10.00">consts</text>
</a>
</g>
</g>
<!-- Node1&#45;&gt;Node3 -->
<g id="edge2" class="edge"><title>Node1&#45;&gt;Node3</title>
<path fill="none" stroke="midnightblue" d="M47.393,-285.91C50.9056,-319.038 66.7002,-427.097 127,-485 133.547,-491.286 142.25,-495.497 150.84,-498.316"/>
<polygon fill="midnightblue" stroke="midnightblue" points="150.166,-501.76 160.736,-501.026 152.016,-495.008 150.166,-501.76"/>
</g>
<!-- Node4 -->
<g id="node4" class="node"><title>Node4</title>
<g id="a_node4"><a xlink:href="group__datatypes__identify__scalar.html#ga51d7fdb800c10f4b7479d23b89ab8d22" target="_top" xlink:title="Test if a value is defined. ">
<polygon fill="white" stroke="black" points="153.5,-456.5 153.5,-475.5 214.5,-475.5 214.5,-456.5 153.5,-456.5"/>
<text text-anchor="middle" x="184" y="-463.5" font-family="Helvetica,sans-Serif" font-size="10.00">is_defined</text>
</a>
</g>
</g>
<!-- Node1&#45;&gt;Node4 -->
<g id="edge3" class="edge"><title>Node1&#45;&gt;Node4</title>
<path fill="none" stroke="midnightblue" d="M48.3008,-285.719C54.1587,-314.621 75.3599,-400.883 127,-447 131.824,-451.308 137.666,-454.647 143.731,-457.232"/>
<polygon fill="midnightblue" stroke="midnightblue" points="142.739,-460.595 153.333,-460.705 145.12,-454.012 142.739,-460.595"/>
</g>
<!-- Node5 -->
<g id="node5" class="node"><title>Node5</title>
<g id="a_node5"><a xlink:href="group__math__polytope.html#ga3acbef4dac1e9b9c464566f80b52a4f6" target="_top" xlink:title="List the edge coordinate index pairs of a polytope. ">
<polygon fill="white" stroke="black" points="127,-418.5 127,-437.5 241,-437.5 241,-418.5 127,-418.5"/>
<text text-anchor="middle" x="184" y="-425.5" font-family="Helvetica,sans-Serif" font-size="10.00">polytope_faces2edges</text>
</a>
</g>
</g>
<!-- Node1&#45;&gt;Node5 -->
<g id="edge4" class="edge"><title>Node1&#45;&gt;Node5</title>
<path fill="none" stroke="midnightblue" d="M49.676,-285.606C58.193,-309.906 83.8658,-374.346 127,-409 129.251,-410.808 131.683,-412.449 134.23,-413.936"/>
<polygon fill="midnightblue" stroke="midnightblue" points="132.721,-417.095 143.231,-418.426 135.845,-410.831 132.721,-417.095"/>
</g>
<!-- Node6 -->
<g id="node6" class="node"><title>Node6</title>
<g id="a_node6"><a xlink:href="group__math__polytope.html#gafddbfd3c16e63de5d668dc693d6a75c4" target="_top" xlink:title="Determine the bounding limits of a polytope. ">
<polygon fill="white" stroke="black" points="143,-380.5 143,-399.5 225,-399.5 225,-380.5 143,-380.5"/>
<text text-anchor="middle" x="184" y="-387.5" font-family="Helvetica,sans-Serif" font-size="10.00">polytope_limits</text>
</a>
</g>
</g>
<!-- Node1&#45;&gt;Node6 -->
<g id="edge5" class="edge"><title>Node1&#45;&gt;Node6</title>
<path fill="none" stroke="midnightblue" d="M52.0971,-285.572C63.6833,-304.578 92.1476,-347.286 127,-371 129.889,-372.965 132.999,-374.744 136.221,-376.351"/>
<polygon fill="midnightblue" stroke="midnightblue" points="134.942,-379.612 145.505,-380.437 137.762,-373.205 134.942,-379.612"/>
</g>
<!-- Node7 -->
<g id="node7" class="node"><title>Node7</title>
<g id="a_node7"><a xlink:href="group__datatypes__identify__iterable.html#ga3fa2b76e04a4c8bba633d9e5e08004e8" target="_top" xlink:title="Test if no element of a list of values is undefined. ">
<polygon fill="white" stroke="black" points="152.5,-342.5 152.5,-361.5 215.5,-361.5 215.5,-342.5 152.5,-342.5"/>
<text text-anchor="middle" x="184" y="-349.5" font-family="Helvetica,sans-Serif" font-size="10.00">all_defined</text>
</a>
</g>
</g>
<!-- Node1&#45;&gt;Node7 -->
<g id="edge6" class="edge"><title>Node1&#45;&gt;Node7</title>
<path fill="none" stroke="midnightblue" d="M57.8166,-285.631C72.8063,-297.995 100.456,-319.463 127,-333 131.973,-335.536 137.36,-337.852 142.761,-339.927"/>
<polygon fill="midnightblue" stroke="midnightblue" points="141.815,-343.307 152.41,-343.397 144.184,-336.72 141.815,-343.307"/>
</g>
<!-- Node8 -->
<g id="node8" class="node"><title>Node8</title>
<g id="a_node8"><a xlink:href="group__datatypes__operate__list.html#ga654f1ba0630af9523b13ba9fe8f4287b" target="_top" xlink:title="Create a sequence for a list index sequence specification. ">
<polygon fill="white" stroke="black" points="154.5,-304.5 154.5,-323.5 213.5,-323.5 213.5,-304.5 154.5,-304.5"/>
<text text-anchor="middle" x="184" y="-311.5" font-family="Helvetica,sans-Serif" font-size="10.00">get_index</text>
</a>
</g>
</g>
<!-- Node1&#45;&gt;Node8 -->
<g id="edge7" class="edge"><title>Node1&#45;&gt;Node8</title>
<path fill="none" stroke="midnightblue" d="M80.9447,-285.589C100.268,-290.968 124.428,-297.694 144.39,-303.251"/>
<polygon fill="midnightblue" stroke="midnightblue" points="143.532,-306.646 154.104,-305.956 145.409,-299.902 143.532,-306.646"/>
</g>
<!-- Node9 -->
<g id="node9" class="node"><title>Node9</title>
<g id="a_node9"><a xlink:href="group__math__polytope.html#gab8edcfe729fd861145090608ed5863d1" target="_top" xlink:title="Get a normal vector for a polytope vertex. ">
<polygon fill="white" stroke="black" points="136,-266.5 136,-285.5 232,-285.5 232,-266.5 136,-266.5"/>
<text text-anchor="middle" x="184" y="-273.5" font-family="Helvetica,sans-Serif" font-size="10.00">polytope_vertex_n</text>
</a>
</g>
</g>
<!-- Node1&#45;&gt;Node9 -->
<g id="edge8" class="edge"><title>Node1&#45;&gt;Node9</title>
<path fill="none" stroke="midnightblue" d="M91.1952,-276C102.26,-276 114.267,-276 125.837,-276"/>
<polygon fill="midnightblue" stroke="midnightblue" points="125.857,-279.5 135.857,-276 125.857,-272.5 125.857,-279.5"/>
</g>
<!-- Node10 -->
<g id="node10" class="node"><title>Node10</title>
<g id="a_node10"><a xlink:href="group__tools__align.html#ga6feefab7f1d6951a75a8d7bb74ecf78e" target="_top" xlink:title="Orient a line or vector to a reference line or vector. ">
<polygon fill="white" stroke="black" points="159,-228.5 159,-247.5 209,-247.5 209,-228.5 159,-228.5"/>
<text text-anchor="middle" x="184" y="-235.5" font-family="Helvetica,sans-Serif" font-size="10.00">orient_ll</text>
</a>
</g>
</g>
<!-- Node1&#45;&gt;Node10 -->
<g id="edge9" class="edge"><title>Node1&#45;&gt;Node10</title>
<path fill="none" stroke="midnightblue" d="M80.9447,-266.411C101.849,-260.591 128.415,-253.196 149.201,-247.409"/>
<polygon fill="midnightblue" stroke="midnightblue" points="150.196,-250.765 158.891,-244.712 148.319,-244.022 150.196,-250.765"/>
</g>
<!-- Node13 -->
<g id="node13" class="node"><title>Node13</title>
<g id="a_node13"><a xlink:href="group__math__polytope.html#gaef7e9dfdd7a8ae873faa7b26a572ffaa" target="_top" xlink:title="Get the mean coordinate of all vertices of a polytope face. ">
<polygon fill="white" stroke="black" points="138.5,-190.5 138.5,-209.5 229.5,-209.5 229.5,-190.5 138.5,-190.5"/>
<text text-anchor="middle" x="184" y="-197.5" font-family="Helvetica,sans-Serif" font-size="10.00">polytope_face_m</text>
</a>
</g>
</g>
<!-- Node1&#45;&gt;Node13 -->
<g id="edge12" class="edge"><title>Node1&#45;&gt;Node13</title>
<path fill="none" stroke="midnightblue" d="M57.8166,-266.369C72.8063,-254.005 100.456,-232.537 127,-219 131.236,-216.84 135.772,-214.839 140.36,-213.012"/>
<polygon fill="midnightblue" stroke="midnightblue" points="141.625,-216.276 149.775,-209.507 139.182,-209.716 141.625,-216.276"/>
</g>
<!-- Node14 -->
<g id="node14" class="node"><title>Node14</title>
<g id="a_node14"><a xlink:href="group__math__polytope.html#ga34b3d2bc74bc2d42f4cbc94499ec4637" target="_top" xlink:title="Get the normal vector of a polytope face. ">
<polygon fill="white" stroke="black" points="140,-152.5 140,-171.5 228,-171.5 228,-152.5 140,-152.5"/>
<text text-anchor="middle" x="184" y="-159.5" font-family="Helvetica,sans-Serif" font-size="10.00">polytope_face_n</text>
</a>
</g>
</g>
<!-- Node1&#45;&gt;Node14 -->
<g id="edge13" class="edge"><title>Node1&#45;&gt;Node14</title>
<path fill="none" stroke="midnightblue" d="M52.0971,-266.428C63.6833,-247.422 92.1476,-204.714 127,-181 129.889,-179.035 132.999,-177.256 136.221,-175.649"/>
<polygon fill="midnightblue" stroke="midnightblue" points="137.762,-178.795 145.505,-171.563 134.942,-172.388 137.762,-178.795"/>
</g>
<!-- Node15 -->
<g id="node15" class="node"><title>Node15</title>
<g id="a_node15"><a xlink:href="group__datatypes__operate__list.html#ga1088f9b09ff8ed12e2c844758f39c039" target="_top" xlink:title="Compute the mean/average of a list of numbers. ">
<polygon fill="white" stroke="black" points="163.5,-114.5 163.5,-133.5 204.5,-133.5 204.5,-114.5 163.5,-114.5"/>
<text text-anchor="middle" x="184" y="-121.5" font-family="Helvetica,sans-Serif" font-size="10.00">mean</text>
</a>
</g>
</g>
<!-- Node1&#45;&gt;Node15 -->
<g id="edge14" class="edge"><title>Node1&#45;&gt;Node15</title>
<path fill="none" stroke="midnightblue" d="M49.676,-266.394C58.193,-242.094 83.8658,-177.654 127,-143 134.7,-136.814 144.521,-132.594 153.781,-129.736"/>
<polygon fill="midnightblue" stroke="midnightblue" points="154.727,-133.106 163.483,-127.141 152.919,-126.344 154.727,-133.106"/>
</g>
<!-- Node16 -->
<g id="node16" class="node"><title>Node16</title>
<g id="a_node16"><a xlink:href="group__datatypes__operate__iterable.html#gaccab3e37e43cb1d882713b3f3d6d9e1b" target="_top" xlink:title="Return the first element of an iterable value. ">
<polygon fill="white" stroke="black" points="167.5,-76.5 167.5,-95.5 200.5,-95.5 200.5,-76.5 167.5,-76.5"/>
<text text-anchor="middle" x="184" y="-83.5" font-family="Helvetica,sans-Serif" font-size="10.00">first</text>
</a>
</g>
</g>
<!-- Node1&#45;&gt;Node16 -->
<g id="edge15" class="edge"><title>Node1&#45;&gt;Node16</title>
<path fill="none" stroke="midnightblue" d="M48.3008,-266.281C54.1587,-237.379 75.3599,-151.117 127,-105 135.442,-97.4606 147,-92.8911 157.423,-90.1319"/>
<polygon fill="midnightblue" stroke="midnightblue" points="158.309,-93.5204 167.311,-87.933 156.789,-86.6873 158.309,-93.5204"/>
</g>
<!-- Node17 -->
<g id="node17" class="node"><title>Node17</title>
<g id="a_node17"><a xlink:href="group__datatypes__operate__iterable.html#ga894d4bec62cc9cf38d5e099de3028c54" target="_top" xlink:title="Return the second element of an iterable value. ">
<polygon fill="white" stroke="black" points="160,-38.5 160,-57.5 208,-57.5 208,-38.5 160,-38.5"/>
<text text-anchor="middle" x="184" y="-45.5" font-family="Helvetica,sans-Serif" font-size="10.00">second</text>
</a>
</g>
</g>
<!-- Node1&#45;&gt;Node17 -->
<g id="edge16" class="edge"><title>Node1&#45;&gt;Node17</title>
<path fill="none" stroke="midnightblue" d="M47.393,-266.09C50.9056,-232.962 66.7002,-124.903 127,-67 133.387,-60.8669 141.827,-56.7097 150.211,-53.8932"/>
<polygon fill="midnightblue" stroke="midnightblue" points="151.225,-57.244 159.902,-51.1647 149.328,-50.506 151.225,-57.244"/>
</g>
<!-- Node18 -->
<g id="node18" class="node"><title>Node18</title>
<g id="a_node18"><a xlink:href="group__math__polytope.html#gaf3938a4896c2b528906ab9e114082f59" target="_top" xlink:title="Get a normal vector for a polytope edge. ">
<polygon fill="white" stroke="black" points="139,-0.5 139,-19.5 229,-19.5 229,-0.5 139,-0.5"/>
<text text-anchor="middle" x="184" y="-7.5" font-family="Helvetica,sans-Serif" font-size="10.00">polytope_edge_n</text>
</a>
</g>
</g>
<!-- Node1&#45;&gt;Node18 -->
<g id="edge17" class="edge"><title>Node1&#45;&gt;Node18</title>
<path fill="none" stroke="midnightblue" d="M46.7082,-266.416C48.0208,-230.071 57.5786,-99.2624 127,-29 128.434,-27.5485 129.983,-26.2079 131.62,-24.9696"/>
<polygon fill="midnightblue" stroke="midnightblue" points="133.713,-27.7929 140.421,-19.5925 130.063,-21.8196 133.713,-27.7929"/>
</g>
<!-- Node11 -->
<g id="node11" class="node"><title>Node11</title>
<g id="a_node11"><a xlink:href="group__math__vector__algebra.html#gaf05cb2c5d4cb98e331ecf79fd85e0dc6" target="_top" xlink:title="Shift a Euclidean line (or vector) to the origin. ">
<polygon fill="white" stroke="black" points="277,-247.5 277,-266.5 356,-266.5 356,-247.5 277,-247.5"/>
<text text-anchor="middle" x="316.5" y="-254.5" font-family="Helvetica,sans-Serif" font-size="10.00">get_line2origin</text>
</a>
</g>
</g>
<!-- Node10&#45;&gt;Node11 -->
<g id="edge10" class="edge"><title>Node10&#45;&gt;Node11</title>
<path fill="none" stroke="midnightblue" d="M209.24,-241.529C225.372,-243.878 247.127,-247.045 266.751,-249.903"/>
<polygon fill="midnightblue" stroke="midnightblue" points="266.378,-253.385 276.778,-251.362 267.387,-246.458 266.378,-253.385"/>
</g>
<!-- Node12 -->
<g id="node12" class="node"><title>Node12</title>
<g id="a_node12"><a xlink:href="group__math__vector__algebra.html#ga3a0c4c75047b8003ab09286a77a58c86" target="_top" xlink:title="Compute the angle between two lines (or vectors) in a Euclidean 3d or 2d&#45;space. ">
<polygon fill="white" stroke="black" points="291.5,-209.5 291.5,-228.5 341.5,-228.5 341.5,-209.5 291.5,-209.5"/>
<text text-anchor="middle" x="316.5" y="-216.5" font-family="Helvetica,sans-Serif" font-size="10.00">angle_ll</text>
</a>
</g>
</g>
<!-- Node10&#45;&gt;Node12 -->
<g id="edge11" class="edge"><title>Node10&#45;&gt;Node12</title>
<path fill="none" stroke="midnightblue" d="M209.24,-234.471C229.567,-231.511 258.823,-227.252 281.493,-223.951"/>
<polygon fill="midnightblue" stroke="midnightblue" points="281.998,-227.415 291.39,-222.51 280.99,-220.488 281.998,-227.415"/>
</g>
</g>
</svg>
