<?xml version="1.0" encoding="UTF-8" standalone="no"?>
<!DOCTYPE svg PUBLIC "-//W3C//DTD SVG 1.1//EN"
 "http://www.w3.org/Graphics/SVG/1.1/DTD/svg11.dtd">
<!-- Generated by graphviz version 2.38.0 (20140413.2041)
 -->
<!-- Title: Lists Pages: 1 -->
<svg width="245pt" height="317pt"
 viewBox="0.00 0.00 245.00 317.00" xmlns="http://www.w3.org/2000/svg" xmlns:xlink="http://www.w3.org/1999/xlink">
<g id="graph0" class="graph" transform="scale(1 1) rotate(0) translate(4 312.997)">
<title>Lists</title>
<polygon fill="white" stroke="none" points="-4,4 -4,-312.997 241,-312.997 241,4 -4,4"/>
<!-- Node5 -->
<g id="node1" class="node"><title>Node5</title>
<g id="a_node1"><a xlink:href="group__datatypes__operate.html" target="_top" xlink:title="Data type operation. ">
<polygon fill="white" stroke="black" points="169,-283.497 169,-302.497 233,-302.497 233,-283.497 169,-283.497"/>
<text text-anchor="middle" x="201" y="-290.497" font-family="Helvetica,sans-Serif" font-size="10.00">Operations</text>
</a>
</g>
</g>
<!-- Node3 -->
<g id="node2" class="node"><title>Node3</title>
<g id="a_node2"><a xlink:href="group__datatypes__identify__scalar.html" target="_top" xlink:title="Scalar data type identification. ">
<polygon fill="white" stroke="black" points="176,-245.497 176,-264.497 226,-264.497 226,-245.497 176,-245.497"/>
<text text-anchor="middle" x="201" y="-252.497" font-family="Helvetica,sans-Serif" font-size="10.00">Scalars</text>
</a>
</g>
</g>
<!-- Node2 -->
<g id="node3" class="node"><title>Node2</title>
<g id="a_node3"><a xlink:href="group__datatypes.html" target="_top" xlink:title="Data type definitions and operators. ">
<polygon fill="white" stroke="black" points="170,-207.497 170,-226.497 232,-226.497 232,-207.497 170,-207.497"/>
<text text-anchor="middle" x="201" y="-214.497" font-family="Helvetica,sans-Serif" font-size="10.00">Datatypes</text>
</a>
</g>
</g>
<!-- Node8 -->
<g id="node4" class="node"><title>Node8</title>
<g id="a_node4"><a xlink:href="group__datatypes__operate__list.html" target="_top" xlink:title="List data type operations. ">
<polygon fill="white" stroke="black" points="182,-169.497 182,-188.497 220,-188.497 220,-169.497 182,-169.497"/>
<text text-anchor="middle" x="201" y="-176.497" font-family="Helvetica,sans-Serif" font-size="10.00">Lists</text>
</a>
</g>
</g>
<!-- Node7 -->
<g id="node5" class="node"><title>Node7</title>
<g id="a_node5"><a xlink:href="group__datatypes__operate__iterable.html" target="_top" xlink:title="Iterable data type operations. ">
<polygon fill="white" stroke="black" points="174,-131.497 174,-150.497 228,-150.497 228,-131.497 174,-131.497"/>
<text text-anchor="middle" x="201" y="-138.497" font-family="Helvetica,sans-Serif" font-size="10.00">Iterables</text>
</a>
</g>
</g>
<!-- Node0 -->
<g id="node6" class="node"><title>Node0</title>
<polygon fill="#bfbfbf" stroke="black" points="0,-131.497 0,-150.497 38,-150.497 38,-131.497 0,-131.497"/>
<text text-anchor="middle" x="19" y="-138.497" font-family="Helvetica,sans-Serif" font-size="10.00">Lists</text>
</g>
<!-- Node0&#45;&gt;Node5 -->
<g id="edge6" class="edge"><title>Node0&#45;&gt;Node5</title>
<path fill="none" stroke="darkgreen" stroke-dasharray="5,2" d="M19.4428,-150.624C18.6116,-174.934 20.1014,-239.12 56,-270.997 86.8245,-298.368 136.775,-299.803 168.999,-297.233"/>
<text text-anchor="middle" x="101.5" y="-300.997" font-family="Helvetica,sans-Serif" font-size="10.00">datatypes&#45;base.scad</text>
</g>
<!-- Node0&#45;&gt;Node3 -->
<g id="edge4" class="edge"><title>Node0&#45;&gt;Node3</title>
<path fill="none" stroke="darkgreen" stroke-dasharray="5,2" d="M20.8847,-150.555C23.1391,-169.048 30.84,-209.686 56,-229.997 90.4524,-257.809 144.844,-259.322 175.984,-257.465"/>
<text text-anchor="middle" x="101.5" y="-259.997" font-family="Helvetica,sans-Serif" font-size="10.00">datatypes&#45;base.scad</text>
</g>
<!-- Node0&#45;&gt;Node2 -->
<g id="edge2" class="edge"><title>Node0&#45;&gt;Node2</title>
<path fill="none" stroke="darkgreen" stroke-dasharray="5,2" d="M24.6443,-150.599C30.425,-161.47 41.3512,-178.855 56,-187.997 90.9396,-209.802 139.105,-215.637 169.903,-216.973"/>
<text text-anchor="middle" x="101.5" y="-217.997" font-family="Helvetica,sans-Serif" font-size="10.00">datatypes&#45;base.scad</text>
</g>
<!-- Node0&#45;&gt;Node8 -->
<g id="edge9" class="edge"><title>Node0&#45;&gt;Node8</title>
<path fill="none" stroke="darkgreen" stroke-dasharray="5,2" d="M38.0157,-149.483C43.6728,-151.88 50.0076,-154.296 56,-155.997 100.325,-168.579 154.408,-174.896 181.971,-177.497"/>
<text text-anchor="middle" x="101.5" y="-175.997" font-family="Helvetica,sans-Serif" font-size="10.00">datatypes&#45;base.scad</text>
</g>
<!-- Node0&#45;&gt;Node7 -->
<g id="edge8" class="edge"><title>Node0&#45;&gt;Node7</title>
<path fill="none" stroke="darkgreen" stroke-dasharray="5,2" d="M38.2499,-140.997C70.3364,-140.997 136.95,-140.997 173.896,-140.997"/>
<text text-anchor="middle" x="101.5" y="-143.997" font-family="Helvetica,sans-Serif" font-size="10.00">datatypes&#45;base.scad</text>
</g>
<!-- Node4 -->
<g id="node7" class="node"><title>Node4</title>
<g id="a_node7"><a xlink:href="group__datatypes__identify__iterable.html" target="_top" xlink:title="Iterable data type identification. ">
<polygon fill="white" stroke="black" points="174,-93.4969 174,-112.497 228,-112.497 228,-93.4969 174,-93.4969"/>
<text text-anchor="middle" x="201" y="-100.497" font-family="Helvetica,sans-Serif" font-size="10.00">Iterables</text>
</a>
</g>
</g>
<!-- Node0&#45;&gt;Node4 -->
<g id="edge5" class="edge"><title>Node0&#45;&gt;Node4</title>
<path fill="none" stroke="darkgreen" stroke-dasharray="5,2" d="M38.0157,-132.511C43.6728,-130.114 50.0076,-127.698 56,-125.997 96.307,-114.555 144.682,-108.295 173.847,-105.298"/>
<text text-anchor="middle" x="101.5" y="-128.997" font-family="Helvetica,sans-Serif" font-size="10.00">datatypes&#45;base.scad</text>
</g>
<!-- Node6 -->
<g id="node8" class="node"><title>Node6</title>
<g id="a_node8"><a xlink:href="group__datatypes__operate__scalar.html" target="_top" xlink:title="Scalar data type operations. ">
<polygon fill="white" stroke="black" points="176,-55.4969 176,-74.4969 226,-74.4969 226,-55.4969 176,-55.4969"/>
<text text-anchor="middle" x="201" y="-62.4969" font-family="Helvetica,sans-Serif" font-size="10.00">Scalars</text>
</a>
</g>
</g>
<!-- Node0&#45;&gt;Node6 -->
<g id="edge7" class="edge"><title>Node0&#45;&gt;Node6</title>
<path fill="none" stroke="darkgreen" stroke-dasharray="5,2" d="M24.58,-131.174C30.3005,-120.056 41.17,-102.288 56,-92.9969 93.2299,-69.6727 145.669,-65.0683 175.917,-64.546"/>
<text text-anchor="middle" x="101.5" y="-95.9969" font-family="Helvetica,sans-Serif" font-size="10.00">datatypes&#45;base.scad</text>
</g>
<!-- Node1 -->
<g id="node9" class="node"><title>Node1</title>
<g id="a_node9"><a xlink:href="group__datatypes__identify.html" target="_top" xlink:title="Compile&#45;time data type identification and tests. ">
<polygon fill="white" stroke="black" points="165,-6.49694 165,-25.4969 237,-25.4969 237,-6.49694 165,-6.49694"/>
<text text-anchor="middle" x="201" y="-13.4969" font-family="Helvetica,sans-Serif" font-size="10.00">Identification</text>
</a>
</g>
</g>
<!-- Node0&#45;&gt;Node1 -->
<g id="edge3" class="edge"><title>Node0&#45;&gt;Node1</title>
<path fill="none" stroke="darkgreen" stroke-dasharray="5,2" d="M20.9717,-131.481C23.3785,-113.042 31.3344,-72.3855 56,-50.9969 86.2256,-24.7871 132.862,-17.5045 164.821,-15.8259"/>
<text text-anchor="middle" x="101.5" y="-53.9969" font-family="Helvetica,sans-Serif" font-size="10.00">datatypes&#45;base.scad</text>
</g>
<!-- Node1&#45;&gt;Node0 -->
<g id="edge1" class="edge"><title>Node1&#45;&gt;Node0</title>
<path fill="none" stroke="black" d="M158.018,-4.32418C126.758,1.69467 84.7019,3.82135 56,-17.9969 19.8651,-45.4655 18.4598,-107.262 19.3799,-131.234"/>
<polygon fill="black" stroke="black" points="157.66,-7.82647 168.17,-6.4856 159.118,-0.97991 157.66,-7.82647"/>
</g>
</g>
</svg>
