<?xml version="1.0" encoding="UTF-8" standalone="no"?>
<!DOCTYPE svg PUBLIC "-//W3C//DTD SVG 1.1//EN"
 "http://www.w3.org/Graphics/SVG/1.1/DTD/svg11.dtd">
<!-- Generated by graphviz version 2.38.0 (20140413.2041)
 -->
<!-- Title: ellipsoid_s Pages: 1 -->
<svg width="261pt" height="47pt"
 viewBox="0.00 0.00 261.00 47.00" xmlns="http://www.w3.org/2000/svg" xmlns:xlink="http://www.w3.org/1999/xlink">
<g id="graph0" class="graph" transform="scale(1 1) rotate(0) translate(4 43)">
<title>ellipsoid_s</title>
<polygon fill="white" stroke="none" points="-4,4 -4,-43 257,-43 257,4 -4,4"/>
<!-- Node1 -->
<g id="node1" class="node"><title>Node1</title>
<polygon fill="#bfbfbf" stroke="black" points="0,-19.5 0,-38.5 62,-38.5 62,-19.5 0,-19.5"/>
<text text-anchor="middle" x="31" y="-26.5" font-family="Helvetica,sans-Serif" font-size="10.00">ellipsoid_s</text>
</g>
<!-- Node2 -->
<g id="node2" class="node"><title>Node2</title>
<g id="a_node2"><a xlink:href="group__datatypes__operate__iterable.html#ga3d679b4617986e31d5e2803971b37af8" target="_top" xlink:title="Return an iterable element when it exists or a default value when it does not. ">
<polygon fill="white" stroke="black" points="186,-19.5 186,-38.5 253,-38.5 253,-19.5 186,-19.5"/>
<text text-anchor="middle" x="219.5" y="-26.5" font-family="Helvetica,sans-Serif" font-size="10.00">edefined_or</text>
</a>
</g>
</g>
<!-- Node1&#45;&gt;Node2 -->
<g id="edge1" class="edge"><title>Node1&#45;&gt;Node2</title>
<path fill="none" stroke="midnightblue" d="M62.3795,-29C93.1542,-29 141.029,-29 175.652,-29"/>
<polygon fill="midnightblue" stroke="midnightblue" points="175.938,-32.5001 185.938,-29 175.938,-25.5001 175.938,-32.5001"/>
</g>
<!-- Node3 -->
<g id="node3" class="node"><title>Node3</title>
<g id="a_node3"><a xlink:href="group__shapes__3d.html#gae55c3490ba068ba5713b3de4302315de" target="_top" xlink:title="An ellipsoid. ">
<polygon fill="white" stroke="black" points="98,-0.5 98,-19.5 150,-19.5 150,-0.5 98,-0.5"/>
<text text-anchor="middle" x="124" y="-7.5" font-family="Helvetica,sans-Serif" font-size="10.00">ellipsoid</text>
</a>
</g>
</g>
<!-- Node1&#45;&gt;Node3 -->
<g id="edge2" class="edge"><title>Node1&#45;&gt;Node3</title>
<path fill="none" stroke="midnightblue" d="M62.049,-22.726C70.2934,-21.0047 79.3058,-19.123 87.8108,-17.3472"/>
<polygon fill="midnightblue" stroke="midnightblue" points="88.7742,-20.7216 97.8477,-15.2516 87.3434,-13.8694 88.7742,-20.7216"/>
</g>
<!-- Node3&#45;&gt;Node2 -->
<g id="edge3" class="edge"><title>Node3&#45;&gt;Node2</title>
<path fill="none" stroke="midnightblue" d="M150.056,-15.0917C158.074,-16.7209 167.185,-18.5724 176.086,-20.381"/>
<polygon fill="midnightblue" stroke="midnightblue" points="175.478,-23.829 185.975,-22.3906 176.872,-16.9692 175.478,-23.829"/>
</g>
</g>
</svg>
