<?xml version="1.0" encoding="UTF-8" standalone="no"?>
<!DOCTYPE svg PUBLIC "-//W3C//DTD SVG 1.1//EN"
 "http://www.w3.org/Graphics/SVG/1.1/DTD/svg11.dtd">
<!-- Generated by graphviz version 2.38.0 (20140413.2041)
 -->
<!-- Title: rectangle Pages: 1 -->
<svg width="275pt" height="85pt"
 viewBox="0.00 0.00 275.00 85.00" xmlns="http://www.w3.org/2000/svg" xmlns:xlink="http://www.w3.org/1999/xlink">
<g id="graph0" class="graph" transform="scale(1 1) rotate(0) translate(4 81)">
<title>rectangle</title>
<polygon fill="white" stroke="none" points="-4,4 -4,-81 271,-81 271,4 -4,4"/>
<!-- Node1 -->
<g id="node1" class="node"><title>Node1</title>
<polygon fill="#bfbfbf" stroke="black" points="0,-19.5 0,-38.5 56,-38.5 56,-19.5 0,-19.5"/>
<text text-anchor="middle" x="28" y="-26.5" font-family="Helvetica,sans-Serif" font-size="10.00">rectangle</text>
</g>
<!-- Node2 -->
<g id="node2" class="node"><title>Node2</title>
<g id="a_node2"><a xlink:href="group__shapes__2d.html#ga803b8196745be0e3a338def3c58e3b2b" target="_top" xlink:title="A rectangle with a removed rectangular core. ">
<polygon fill="white" stroke="black" points="92,-38.5 92,-57.5 159,-57.5 159,-38.5 92,-38.5"/>
<text text-anchor="middle" x="125.5" y="-45.5" font-family="Helvetica,sans-Serif" font-size="10.00">rectangle_c</text>
</a>
</g>
</g>
<!-- Node1&#45;&gt;Node2 -->
<g id="edge1" class="edge"><title>Node1&#45;&gt;Node2</title>
<path fill="none" stroke="midnightblue" d="M66.1587,-36.3928C74.6506,-38.0823 83.6132,-39.8655 91.8973,-41.5136"/>
<polygon fill="midnightblue" stroke="midnightblue" points="66.6018,-32.9125 56.111,-34.3938 65.2358,-39.7779 66.6018,-32.9125"/>
</g>
<!-- Node5 -->
<g id="node5" class="node"><title>Node5</title>
<g id="a_node5"><a xlink:href="group__shapes__2de.html#ga5fd9b6fca4860ae7c54cbeb9024e74f0" target="_top" xlink:title="An extruded rectangle with edge, fillet, and/or chamfer corners. ">
<polygon fill="white" stroke="black" points="94.5,-0.5 94.5,-19.5 156.5,-19.5 156.5,-0.5 94.5,-0.5"/>
<text text-anchor="middle" x="125.5" y="-7.5" font-family="Helvetica,sans-Serif" font-size="10.00">erectangle</text>
</a>
</g>
</g>
<!-- Node1&#45;&gt;Node5 -->
<g id="edge4" class="edge"><title>Node1&#45;&gt;Node5</title>
<path fill="none" stroke="midnightblue" d="M65.9786,-21.643C75.351,-19.7783 85.3076,-17.7974 94.2996,-16.0085"/>
<polygon fill="midnightblue" stroke="midnightblue" points="65.2358,-18.2221 56.111,-23.6062 66.6018,-25.0875 65.2358,-18.2221"/>
</g>
<!-- Node3 -->
<g id="node3" class="node"><title>Node3</title>
<g id="a_node3"><a xlink:href="group__shapes__2de.html#gaa24ca5f53d00f33d356f40f740a1d7f7" target="_top" xlink:title="An extruded rectangle with a removed rectangular core. ">
<polygon fill="white" stroke="black" points="195,-57.5 195,-76.5 267,-76.5 267,-57.5 195,-57.5"/>
<text text-anchor="middle" x="231" y="-64.5" font-family="Helvetica,sans-Serif" font-size="10.00">erectangle_c</text>
</a>
</g>
</g>
<!-- Node2&#45;&gt;Node3 -->
<g id="edge2" class="edge"><title>Node2&#45;&gt;Node3</title>
<path fill="none" stroke="midnightblue" d="M169.12,-55.824C177.716,-57.402 186.659,-59.0437 194.96,-60.5675"/>
<polygon fill="midnightblue" stroke="midnightblue" points="169.716,-52.3749 159.248,-54.0117 168.452,-59.2599 169.716,-52.3749"/>
</g>
<!-- Node4 -->
<g id="node4" class="node"><title>Node4</title>
<g id="a_node4"><a xlink:href="group__shapes__3d.html#gac521ba184d6ac7693df4db67df2499b8" target="_top" xlink:title="A rectangular cross&#45;sectional profile revolved about the z&#45;axis. ">
<polygon fill="white" stroke="black" points="205,-19.5 205,-38.5 257,-38.5 257,-19.5 205,-19.5"/>
<text text-anchor="middle" x="231" y="-26.5" font-family="Helvetica,sans-Serif" font-size="10.00">torus_rp</text>
</a>
</g>
</g>
<!-- Node2&#45;&gt;Node4 -->
<g id="edge3" class="edge"><title>Node2&#45;&gt;Node4</title>
<path fill="none" stroke="midnightblue" d="M169.167,-40.1674C181.237,-37.9516 193.988,-35.6109 204.681,-33.6479"/>
<polygon fill="midnightblue" stroke="midnightblue" points="168.452,-36.7401 159.248,-41.9883 169.716,-43.6251 168.452,-36.7401"/>
</g>
</g>
</svg>
