<?xml version="1.0" encoding="UTF-8" standalone="no"?>
<!DOCTYPE svg PUBLIC "-//W3C//DTD SVG 1.1//EN"
 "http://www.w3.org/Graphics/SVG/1.1/DTD/svg11.dtd">
<!-- Generated by graphviz version 2.38.0 (20140413.2041)
 -->
<!-- Title: Edge Pages: 1 -->
<svg width="196pt" height="29pt"
 viewBox="0.00 0.00 196.00 29.00" xmlns="http://www.w3.org/2000/svg" xmlns:xlink="http://www.w3.org/1999/xlink">
<g id="graph0" class="graph" transform="scale(1 1) rotate(0) translate(4 25)">
<title>Edge</title>
<polygon fill="white" stroke="none" points="-4,4 -4,-25 192,-25 192,4 -4,4"/>
<!-- Node0 -->
<g id="node1" class="node"><title>Node0</title>
<polygon fill="#bfbfbf" stroke="black" points="0,-0.5 0,-19.5 39,-19.5 39,-0.5 0,-0.5"/>
<text text-anchor="middle" x="19.5" y="-7.5" font-family="Helvetica,sans-Serif" font-size="10.00">Edge</text>
</g>
<!-- Node1 -->
<g id="node2" class="node"><title>Node1</title>
<g id="a_node2"><a xlink:href="group__tools.html" target="_top" xlink:title="Design tools and techniques. ">
<polygon fill="white" stroke="black" points="147,-0.5 147,-19.5 188,-19.5 188,-0.5 147,-0.5"/>
<text text-anchor="middle" x="167.5" y="-7.5" font-family="Helvetica,sans-Serif" font-size="10.00">Tools</text>
</a>
</g>
</g>
<!-- Node0&#45;&gt;Node1 -->
<g id="edge2" class="edge"><title>Node0&#45;&gt;Node1</title>
<path fill="none" stroke="darkgreen" stroke-dasharray="5,2" d="M39.2881,-10C67.0139,-10 118.642,-10 146.852,-10"/>
<text text-anchor="middle" x="93" y="-13" font-family="Helvetica,sans-Serif" font-size="10.00">tools_edge.scad</text>
</g>
<!-- Node1&#45;&gt;Node0 -->
<g id="edge1" class="edge"><title>Node1&#45;&gt;Node0</title>
<path fill="none" stroke="black" d="M136.443,-8.25538C133.926,-8.15231 131.42,-8.06448 129,-8 97.0114,-7.14758 88.988,-7.12427 57,-8 51.1636,-8.15978 44.8081,-8.46302 39.0604,-8.78597"/>
<polygon fill="black" stroke="black" points="136.501,-11.7621 146.657,-8.74397 136.836,-4.77005 136.501,-11.7621"/>
</g>
</g>
</svg>
