<?xml version="1.0" encoding="UTF-8" standalone="no"?>
<!DOCTYPE svg PUBLIC "-//W3C//DTD SVG 1.1//EN"
 "http://www.w3.org/Graphics/SVG/1.1/DTD/svg11.dtd">
<!-- Generated by graphviz version 2.38.0 (20140413.2041)
 -->
<!-- Title: log_echo Pages: 1 -->
<svg width="180pt" height="104pt"
 viewBox="0.00 0.00 180.00 104.00" xmlns="http://www.w3.org/2000/svg" xmlns:xlink="http://www.w3.org/1999/xlink">
<g id="graph0" class="graph" transform="scale(1 1) rotate(0) translate(4 100)">
<title>log_echo</title>
<polygon fill="white" stroke="none" points="-4,4 -4,-100 176,-100 176,4 -4,4"/>
<!-- Node1 -->
<g id="node1" class="node"><title>Node1</title>
<polygon fill="#bfbfbf" stroke="black" points="0,-38.5 0,-57.5 56,-57.5 56,-38.5 0,-38.5"/>
<text text-anchor="middle" x="28" y="-45.5" font-family="Helvetica,sans-Serif" font-size="10.00">log_echo</text>
</g>
<!-- Node2 -->
<g id="node2" class="node"><title>Node2</title>
<g id="a_node2"><a xlink:href="group__datatypes__map.html#gab86352ba6da2d2072f747e95b04d0435" target="_top" xlink:title="Dump each map entry to the console. ">
<polygon fill="white" stroke="black" points="99.5,-76.5 99.5,-95.5 164.5,-95.5 164.5,-76.5 99.5,-76.5"/>
<text text-anchor="middle" x="132" y="-83.5" font-family="Helvetica,sans-Serif" font-size="10.00">map_dump</text>
</a>
</g>
</g>
<!-- Node1&#45;&gt;Node2 -->
<g id="edge1" class="edge"><title>Node1&#45;&gt;Node2</title>
<path fill="none" stroke="midnightblue" d="M64.2115,-61.118C77.7022,-66.1439 92.8281,-71.7791 105.269,-76.4141"/>
<polygon fill="midnightblue" stroke="midnightblue" points="65.3316,-57.8004 54.7389,-57.589 62.8878,-64.3599 65.3316,-57.8004"/>
</g>
<!-- Node3 -->
<g id="node3" class="node"><title>Node3</title>
<g id="a_node3"><a xlink:href="group__datatypes__table.html#ga717ca569831188092358ee04f7211700" target="_top" xlink:title="Dump a table to the console. ">
<polygon fill="white" stroke="black" points="98.5,-38.5 98.5,-57.5 165.5,-57.5 165.5,-38.5 98.5,-38.5"/>
<text text-anchor="middle" x="132" y="-45.5" font-family="Helvetica,sans-Serif" font-size="10.00">table_dump</text>
</a>
</g>
</g>
<!-- Node1&#45;&gt;Node3 -->
<g id="edge2" class="edge"><title>Node1&#45;&gt;Node3</title>
<path fill="none" stroke="midnightblue" d="M66.233,-48C76.7548,-48 88.1217,-48 98.3518,-48"/>
<polygon fill="midnightblue" stroke="midnightblue" points="66.0664,-44.5001 56.0663,-48 66.0663,-51.5001 66.0664,-44.5001"/>
</g>
<!-- Node4 -->
<g id="node4" class="node"><title>Node4</title>
<g id="a_node4"><a xlink:href="group__units__resolution.html#ga4e16d61dca2fe81d9e14c62ff9da971d" target="_top" xlink:title="Output resolution information to the console for given radius. ">
<polygon fill="white" stroke="black" points="92,-0.5 92,-19.5 172,-19.5 172,-0.5 92,-0.5"/>
<text text-anchor="middle" x="132" y="-7.5" font-family="Helvetica,sans-Serif" font-size="10.00">resolution_info</text>
</a>
</g>
</g>
<!-- Node1&#45;&gt;Node4 -->
<g id="edge3" class="edge"><title>Node1&#45;&gt;Node4</title>
<path fill="none" stroke="midnightblue" d="M64.2115,-34.882C77.7022,-29.8561 92.8281,-24.2209 105.269,-19.5859"/>
<polygon fill="midnightblue" stroke="midnightblue" points="62.8878,-31.6401 54.7389,-38.411 65.3316,-38.1996 62.8878,-31.6401"/>
</g>
</g>
</svg>
