<?xml version="1.0" encoding="UTF-8" standalone="no"?>
<!DOCTYPE svg PUBLIC "-//W3C//DTD SVG 1.1//EN"
 "http://www.w3.org/Graphics/SVG/1.1/DTD/svg11.dtd">
<!-- Generated by graphviz version 2.38.0 (20140413.2041)
 -->
<!-- Title: Iterables Pages: 1 -->
<svg width="452pt" height="257pt"
 viewBox="0.00 0.00 452.00 257.00" xmlns="http://www.w3.org/2000/svg" xmlns:xlink="http://www.w3.org/1999/xlink">
<g id="graph0" class="graph" transform="scale(1 1) rotate(0) translate(4 253)">
<title>Iterables</title>
<polygon fill="white" stroke="none" points="-4,4 -4,-253 448,-253 448,4 -4,4"/>
<!-- Node1 -->
<g id="node1" class="node"><title>Node1</title>
<g id="a_node1"><a xlink:href="group__datatypes__operate.html" target="_top" xlink:title="Data type operation. ">
<polygon fill="white" stroke="black" points="0,-114.5 0,-133.5 64,-133.5 64,-114.5 0,-114.5"/>
<text text-anchor="middle" x="32" y="-121.5" font-family="Helvetica,sans-Serif" font-size="10.00">Operations</text>
</a>
</g>
</g>
<!-- Node0 -->
<g id="node5" class="node"><title>Node0</title>
<polygon fill="#bfbfbf" stroke="black" points="191,-114.5 191,-133.5 245,-133.5 245,-114.5 191,-114.5"/>
<text text-anchor="middle" x="218" y="-121.5" font-family="Helvetica,sans-Serif" font-size="10.00">Iterables</text>
</g>
<!-- Node1&#45;&gt;Node0 -->
<g id="edge1" class="edge"><title>Node1&#45;&gt;Node0</title>
<path fill="none" stroke="black" d="M74.3312,-124C110.076,-124 160.65,-124 190.997,-124"/>
<polygon fill="black" stroke="black" points="74.2131,-120.5 64.2131,-124 74.2131,-127.5 74.2131,-120.5"/>
</g>
<!-- Node4 -->
<g id="node2" class="node"><title>Node4</title>
<g id="a_node2"><a xlink:href="group__datatypes__identify__scalar.html" target="_top" xlink:title="Scalar data type identification. ">
<polygon fill="white" stroke="black" points="383,-228.5 383,-247.5 433,-247.5 433,-228.5 383,-228.5"/>
<text text-anchor="middle" x="408" y="-235.5" font-family="Helvetica,sans-Serif" font-size="10.00">Scalars</text>
</a>
</g>
</g>
<!-- Node2 -->
<g id="node3" class="node"><title>Node2</title>
<g id="a_node3"><a xlink:href="group__datatypes.html" target="_top" xlink:title="Data type definitions and operators. ">
<polygon fill="white" stroke="black" points="377,-190.5 377,-209.5 439,-209.5 439,-190.5 377,-190.5"/>
<text text-anchor="middle" x="408" y="-197.5" font-family="Helvetica,sans-Serif" font-size="10.00">Datatypes</text>
</a>
</g>
</g>
<!-- Node8 -->
<g id="node4" class="node"><title>Node8</title>
<g id="a_node4"><a xlink:href="group__datatypes__operate__list.html" target="_top" xlink:title="List data type operations. ">
<polygon fill="white" stroke="black" points="389,-152.5 389,-171.5 427,-171.5 427,-152.5 389,-152.5"/>
<text text-anchor="middle" x="408" y="-159.5" font-family="Helvetica,sans-Serif" font-size="10.00">Lists</text>
</a>
</g>
</g>
<!-- Node0&#45;&gt;Node1 -->
<g id="edge7" class="edge"><title>Node0&#45;&gt;Node1</title>
<path fill="none" stroke="darkgreen" stroke-dasharray="5,2" d="M191.726,-114.498C185.677,-112.634 179.179,-110.959 173,-110 133.034,-103.795 122.054,-104.39 82,-110 75.1658,-110.957 67.9473,-112.631 61.2131,-114.495"/>
<text text-anchor="middle" x="127.5" y="-113" font-family="Helvetica,sans-Serif" font-size="10.00">datatypes&#45;base.scad</text>
</g>
<!-- Node0&#45;&gt;Node4 -->
<g id="edge4" class="edge"><title>Node0&#45;&gt;Node4</title>
<path fill="none" stroke="darkgreen" stroke-dasharray="5,2" d="M220.936,-133.65C225.133,-151.899 236.875,-191.388 263,-211 298.293,-237.495 351.89,-240.478 382.77,-239.65"/>
<text text-anchor="middle" x="308.5" y="-241" font-family="Helvetica,sans-Serif" font-size="10.00">datatypes&#45;base.scad</text>
</g>
<!-- Node0&#45;&gt;Node2 -->
<g id="edge2" class="edge"><title>Node0&#45;&gt;Node2</title>
<path fill="none" stroke="darkgreen" stroke-dasharray="5,2" d="M225.543,-133.759C233.22,-144.401 246.958,-161.1 263,-170 298.84,-189.884 346.342,-196.627 376.796,-198.891"/>
<text text-anchor="middle" x="308.5" y="-199" font-family="Helvetica,sans-Serif" font-size="10.00">datatypes&#45;base.scad</text>
</g>
<!-- Node0&#45;&gt;Node8 -->
<g id="edge9" class="edge"><title>Node0&#45;&gt;Node8</title>
<path fill="none" stroke="darkgreen" stroke-dasharray="5,2" d="M244.84,-133.626C250.751,-135.599 257.047,-137.521 263,-139 307.472,-150.047 361.042,-156.97 388.614,-160.079"/>
<text text-anchor="middle" x="308.5" y="-158" font-family="Helvetica,sans-Serif" font-size="10.00">datatypes&#45;base.scad</text>
</g>
<!-- Node6 -->
<g id="node6" class="node"><title>Node6</title>
<g id="a_node6"><a xlink:href="group__datatypes__identify__list.html" target="_top" xlink:title="List data type identification. ">
<polygon fill="white" stroke="black" points="389,-114.5 389,-133.5 427,-133.5 427,-114.5 389,-114.5"/>
<text text-anchor="middle" x="408" y="-121.5" font-family="Helvetica,sans-Serif" font-size="10.00">Lists</text>
</a>
</g>
</g>
<!-- Node0&#45;&gt;Node6 -->
<g id="edge6" class="edge"><title>Node0&#45;&gt;Node6</title>
<path fill="none" stroke="darkgreen" stroke-dasharray="5,2" d="M245.141,-124C283.884,-124 355.558,-124 388.974,-124"/>
<text text-anchor="middle" x="308.5" y="-127" font-family="Helvetica,sans-Serif" font-size="10.00">datatypes&#45;base.scad</text>
</g>
<!-- Node5 -->
<g id="node7" class="node"><title>Node5</title>
<g id="a_node7"><a xlink:href="group__datatypes__identify__iterable.html" target="_top" xlink:title="Iterable data type identification. ">
<polygon fill="white" stroke="black" points="381,-76.5 381,-95.5 435,-95.5 435,-76.5 381,-76.5"/>
<text text-anchor="middle" x="408" y="-83.5" font-family="Helvetica,sans-Serif" font-size="10.00">Iterables</text>
</a>
</g>
</g>
<!-- Node0&#45;&gt;Node5 -->
<g id="edge5" class="edge"><title>Node0&#45;&gt;Node5</title>
<path fill="none" stroke="darkgreen" stroke-dasharray="5,2" d="M244.84,-114.374C250.751,-112.401 257.047,-110.479 263,-109 303.664,-98.8993 351.934,-92.2458 380.981,-88.8039"/>
<text text-anchor="middle" x="308.5" y="-112" font-family="Helvetica,sans-Serif" font-size="10.00">datatypes&#45;base.scad</text>
</g>
<!-- Node7 -->
<g id="node8" class="node"><title>Node7</title>
<g id="a_node8"><a xlink:href="group__datatypes__operate__scalar.html" target="_top" xlink:title="Scalar data type operations. ">
<polygon fill="white" stroke="black" points="383,-38.5 383,-57.5 433,-57.5 433,-38.5 383,-38.5"/>
<text text-anchor="middle" x="408" y="-45.5" font-family="Helvetica,sans-Serif" font-size="10.00">Scalars</text>
</a>
</g>
</g>
<!-- Node0&#45;&gt;Node7 -->
<g id="edge8" class="edge"><title>Node0&#45;&gt;Node7</title>
<path fill="none" stroke="darkgreen" stroke-dasharray="5,2" d="M225.543,-114.241C233.22,-103.599 246.958,-86.8997 263,-78 301.297,-56.7537 352.908,-50.5102 382.808,-48.7034"/>
<text text-anchor="middle" x="308.5" y="-81" font-family="Helvetica,sans-Serif" font-size="10.00">datatypes&#45;base.scad</text>
</g>
<!-- Node3 -->
<g id="node9" class="node"><title>Node3</title>
<g id="a_node9"><a xlink:href="group__datatypes__identify.html" target="_top" xlink:title="Compile&#45;time data type identification and tests. ">
<polygon fill="white" stroke="black" points="372,-0.5 372,-19.5 444,-19.5 444,-0.5 372,-0.5"/>
<text text-anchor="middle" x="408" y="-7.5" font-family="Helvetica,sans-Serif" font-size="10.00">Identification</text>
</a>
</g>
</g>
<!-- Node0&#45;&gt;Node3 -->
<g id="edge3" class="edge"><title>Node0&#45;&gt;Node3</title>
<path fill="none" stroke="darkgreen" stroke-dasharray="5,2" d="M220.936,-114.35C225.133,-96.1014 236.875,-56.6121 263,-37 294.428,-13.4069 340.371,-8.45716 371.861,-8.24101"/>
<text text-anchor="middle" x="308.5" y="-40" font-family="Helvetica,sans-Serif" font-size="10.00">datatypes&#45;base.scad</text>
</g>
</g>
</svg>
