<?xml version="1.0" encoding="UTF-8" standalone="no"?>
<!DOCTYPE svg PUBLIC "-//W3C//DTD SVG 1.1//EN"
 "http://www.w3.org/Graphics/SVG/1.1/DTD/svg11.dtd">
<!-- Generated by graphviz version 2.38.0 (20140413.2041)
 -->
<!-- Title: orient_ll Pages: 1 -->
<svg width="173pt" height="66pt"
 viewBox="0.00 0.00 173.00 66.00" xmlns="http://www.w3.org/2000/svg" xmlns:xlink="http://www.w3.org/1999/xlink">
<g id="graph0" class="graph" transform="scale(1 1) rotate(0) translate(4 62)">
<title>orient_ll</title>
<polygon fill="white" stroke="none" points="-4,4 -4,-62 169,-62 169,4 -4,4"/>
<!-- Node1 -->
<g id="node1" class="node"><title>Node1</title>
<polygon fill="#bfbfbf" stroke="black" points="0,-19.5 0,-38.5 50,-38.5 50,-19.5 0,-19.5"/>
<text text-anchor="middle" x="25" y="-26.5" font-family="Helvetica,sans-Serif" font-size="10.00">orient_ll</text>
</g>
<!-- Node2 -->
<g id="node2" class="node"><title>Node2</title>
<g id="a_node2"><a xlink:href="group__math__vector__algebra.html#gaf05cb2c5d4cb98e331ecf79fd85e0dc6" target="_top" xlink:title="Shift a Euclidean line (or vector) to the origin. ">
<polygon fill="white" stroke="black" points="86,-38.5 86,-57.5 165,-57.5 165,-38.5 86,-38.5"/>
<text text-anchor="middle" x="125.5" y="-45.5" font-family="Helvetica,sans-Serif" font-size="10.00">get_line2origin</text>
</a>
</g>
</g>
<!-- Node1&#45;&gt;Node2 -->
<g id="edge1" class="edge"><title>Node1&#45;&gt;Node2</title>
<path fill="none" stroke="midnightblue" d="M50.0958,-33.6479C57.8755,-35.1486 66.7998,-36.87 75.7043,-38.5876"/>
<polygon fill="midnightblue" stroke="midnightblue" points="75.2054,-42.0558 85.6873,-40.5133 76.5312,-35.1825 75.2054,-42.0558"/>
</g>
<!-- Node3 -->
<g id="node3" class="node"><title>Node3</title>
<g id="a_node3"><a xlink:href="group__math__vector__algebra.html#ga3a0c4c75047b8003ab09286a77a58c86" target="_top" xlink:title="Compute the angle between two lines (or vectors) in a Euclidean 3d or 2d&#45;space. ">
<polygon fill="white" stroke="black" points="100.5,-0.5 100.5,-19.5 150.5,-19.5 150.5,-0.5 100.5,-0.5"/>
<text text-anchor="middle" x="125.5" y="-7.5" font-family="Helvetica,sans-Serif" font-size="10.00">angle_ll</text>
</a>
</g>
</g>
<!-- Node1&#45;&gt;Node3 -->
<g id="edge2" class="edge"><title>Node1&#45;&gt;Node3</title>
<path fill="none" stroke="midnightblue" d="M50.0958,-24.3521C62.1399,-22.0288 76.9276,-19.1764 90.1379,-16.6282"/>
<polygon fill="midnightblue" stroke="midnightblue" points="91.1555,-19.9965 100.312,-14.6658 89.8296,-13.1232 91.1555,-19.9965"/>
</g>
</g>
</svg>
