<?xml version="1.0" encoding="UTF-8" standalone="no"?>
<!DOCTYPE svg PUBLIC "-//W3C//DTD SVG 1.1//EN"
 "http://www.w3.org/Graphics/SVG/1.1/DTD/svg11.dtd">
<!-- Generated by graphviz version 2.38.0 (20140413.2041)
 -->
<!-- Title: is_defined Pages: 1 -->
<svg width="309pt" height="332pt"
 viewBox="0.00 0.00 309.00 332.00" xmlns="http://www.w3.org/2000/svg" xmlns:xlink="http://www.w3.org/1999/xlink">
<g id="graph0" class="graph" transform="scale(1 1) rotate(0) translate(4 328)">
<title>is_defined</title>
<polygon fill="white" stroke="none" points="-4,4 -4,-328 305,-328 305,4 -4,4"/>
<!-- Node1 -->
<g id="node1" class="node"><title>Node1</title>
<polygon fill="#bfbfbf" stroke="black" points="0,-114.5 0,-133.5 61,-133.5 61,-114.5 0,-114.5"/>
<text text-anchor="middle" x="30.5" y="-121.5" font-family="Helvetica,sans-Serif" font-size="10.00">is_defined</text>
</g>
<!-- Node2 -->
<g id="node2" class="node"><title>Node2</title>
<g id="a_node2"><a xlink:href="group__shapes__2d.html#ga803b8196745be0e3a338def3c58e3b2b" target="_top" xlink:title="A rectangle with a removed rectangular core. ">
<polygon fill="white" stroke="black" points="109,-266.5 109,-285.5 176,-285.5 176,-266.5 109,-266.5"/>
<text text-anchor="middle" x="142.5" y="-273.5" font-family="Helvetica,sans-Serif" font-size="10.00">rectangle_c</text>
</a>
</g>
</g>
<!-- Node1&#45;&gt;Node2 -->
<g id="edge1" class="edge"><title>Node1&#45;&gt;Node2</title>
<path fill="none" stroke="midnightblue" d="M43.4348,-141.982C56.3324,-161.253 77.6431,-192.632 97,-219 109.481,-236.002 124.745,-255.237 133.765,-266.452"/>
<polygon fill="midnightblue" stroke="midnightblue" points="46.2848,-139.947 37.8246,-133.569 40.461,-143.831 46.2848,-139.947"/>
</g>
<!-- Node5 -->
<g id="node5" class="node"><title>Node5</title>
<g id="a_node5"><a xlink:href="group__shapes__2d.html#ga7eefb280ad124a8d35eb4218e5f0bdad" target="_top" xlink:title="A general triangle specified by its sides with a removed triangular core. ">
<polygon fill="white" stroke="black" points="107,-190.5 107,-209.5 178,-209.5 178,-190.5 107,-190.5"/>
<text text-anchor="middle" x="142.5" y="-197.5" font-family="Helvetica,sans-Serif" font-size="10.00">triangle_ls_c</text>
</a>
</g>
</g>
<!-- Node1&#45;&gt;Node5 -->
<g id="edge4" class="edge"><title>Node1&#45;&gt;Node5</title>
<path fill="none" stroke="midnightblue" d="M47.9131,-140.89C60.5049,-153.17 78.7681,-169.574 97,-181 102.694,-184.569 109.176,-187.763 115.396,-190.467"/>
<polygon fill="midnightblue" stroke="midnightblue" points="50.0665,-138.095 40.5147,-133.511 45.123,-143.051 50.0665,-138.095"/>
</g>
<!-- Node8 -->
<g id="node8" class="node"><title>Node8</title>
<g id="a_node8"><a xlink:href="group__shapes__2d.html#ga84e0a2811547e6c658909671d9e2bc0b" target="_top" xlink:title="A right&#45;angled triangle specified by a side length and an angle. ">
<polygon fill="white" stroke="black" points="110.5,-152.5 110.5,-171.5 174.5,-171.5 174.5,-152.5 110.5,-152.5"/>
<text text-anchor="middle" x="142.5" y="-159.5" font-family="Helvetica,sans-Serif" font-size="10.00">triangle_sa</text>
</a>
</g>
</g>
<!-- Node1&#45;&gt;Node8 -->
<g id="edge7" class="edge"><title>Node1&#45;&gt;Node8</title>
<path fill="none" stroke="midnightblue" d="M69.0499,-136.972C83.7049,-142.034 100.204,-147.734 113.751,-152.414"/>
<polygon fill="midnightblue" stroke="midnightblue" points="69.8524,-133.546 59.2576,-133.589 67.5667,-140.162 69.8524,-133.546"/>
</g>
<!-- Node10 -->
<g id="node10" class="node"><title>Node10</title>
<g id="a_node10"><a xlink:href="group__shapes__2d.html#ga9f2b6ba2562760853dd998b0086736a3" target="_top" xlink:title="An ellipse with a removed elliptical core. ">
<polygon fill="white" stroke="black" points="115,-114.5 115,-133.5 170,-133.5 170,-114.5 115,-114.5"/>
<text text-anchor="middle" x="142.5" y="-121.5" font-family="Helvetica,sans-Serif" font-size="10.00">ellipse_c</text>
</a>
</g>
</g>
<!-- Node1&#45;&gt;Node10 -->
<g id="edge9" class="edge"><title>Node1&#45;&gt;Node10</title>
<path fill="none" stroke="midnightblue" d="M71.4245,-124C85.8219,-124 101.713,-124 114.717,-124"/>
<polygon fill="midnightblue" stroke="midnightblue" points="71.2676,-120.5 61.2676,-124 71.2675,-127.5 71.2676,-120.5"/>
</g>
<!-- Node12 -->
<g id="node12" class="node"><title>Node12</title>
<g id="a_node12"><a xlink:href="group__shapes__2d.html#ga3e186b32450bffe183da7422f0b19f95" target="_top" xlink:title="A sector of an ellipse with a removed elliptical core. ">
<polygon fill="white" stroke="black" points="112.5,-76.5 112.5,-95.5 172.5,-95.5 172.5,-76.5 112.5,-76.5"/>
<text text-anchor="middle" x="142.5" y="-83.5" font-family="Helvetica,sans-Serif" font-size="10.00">ellipse_cs</text>
</a>
</g>
</g>
<!-- Node1&#45;&gt;Node12 -->
<g id="edge11" class="edge"><title>Node1&#45;&gt;Node12</title>
<path fill="none" stroke="midnightblue" d="M69.0499,-111.028C83.7049,-105.966 100.204,-100.266 113.751,-95.5859"/>
<polygon fill="midnightblue" stroke="midnightblue" points="67.5667,-107.838 59.2576,-114.411 69.8524,-114.454 67.5667,-107.838"/>
</g>
<!-- Node15 -->
<g id="node15" class="node"><title>Node15</title>
<g id="a_node15"><a xlink:href="group__tools__polytope.html#ga00b574079f19251be7281151d11db8fa" target="_top" xlink:title="Label the vertices, paths, and edges of a polytope. ">
<polygon fill="white" stroke="black" points="97,-38.5 97,-57.5 188,-57.5 188,-38.5 97,-38.5"/>
<text text-anchor="middle" x="142.5" y="-45.5" font-family="Helvetica,sans-Serif" font-size="10.00">polytope_number</text>
</a>
</g>
</g>
<!-- Node1&#45;&gt;Node15 -->
<g id="edge14" class="edge"><title>Node1&#45;&gt;Node15</title>
<path fill="none" stroke="midnightblue" d="M47.9131,-107.11C60.5049,-94.8303 78.7681,-78.4261 97,-67 102.694,-63.4312 109.176,-60.2375 115.396,-57.5329"/>
<polygon fill="midnightblue" stroke="midnightblue" points="45.123,-104.949 40.5147,-114.489 50.0665,-109.905 45.123,-104.949"/>
</g>
<!-- Node16 -->
<g id="node16" class="node"><title>Node16</title>
<g id="a_node16"><a xlink:href="group__tools__polytope.html#ga530c86f9c90ce074aa7adc29834f0539" target="_top" xlink:title="Assemble a polytope skeletal frame using child objects. ">
<polygon fill="white" stroke="black" points="101,-0.5 101,-19.5 184,-19.5 184,-0.5 101,-0.5"/>
<text text-anchor="middle" x="142.5" y="-7.5" font-family="Helvetica,sans-Serif" font-size="10.00">polytope_frame</text>
</a>
</g>
</g>
<!-- Node1&#45;&gt;Node16 -->
<g id="edge15" class="edge"><title>Node1&#45;&gt;Node16</title>
<path fill="none" stroke="midnightblue" d="M40.4082,-105.109C51.1842,-84.0367 71.1424,-50.1399 97,-29 101.553,-25.2781 106.943,-22.171 112.372,-19.6208"/>
<polygon fill="midnightblue" stroke="midnightblue" points="37.1541,-103.794 35.8702,-114.311 43.4322,-106.89 37.1541,-103.794"/>
</g>
<!-- Node3 -->
<g id="node3" class="node"><title>Node3</title>
<g id="a_node3"><a xlink:href="group__shapes__2de.html#gaa24ca5f53d00f33d356f40f740a1d7f7" target="_top" xlink:title="An extruded rectangle with a removed rectangular core. ">
<polygon fill="white" stroke="black" points="226.5,-304.5 226.5,-323.5 298.5,-323.5 298.5,-304.5 226.5,-304.5"/>
<text text-anchor="middle" x="262.5" y="-311.5" font-family="Helvetica,sans-Serif" font-size="10.00">erectangle_c</text>
</a>
</g>
</g>
<!-- Node2&#45;&gt;Node3 -->
<g id="edge2" class="edge"><title>Node2&#45;&gt;Node3</title>
<path fill="none" stroke="midnightblue" d="M182.876,-288.68C198.82,-293.815 216.921,-299.644 231.733,-304.414"/>
<polygon fill="midnightblue" stroke="midnightblue" points="183.868,-285.323 173.276,-285.589 181.722,-291.986 183.868,-285.323"/>
</g>
<!-- Node4 -->
<g id="node4" class="node"><title>Node4</title>
<g id="a_node4"><a xlink:href="group__shapes__3d.html#gac521ba184d6ac7693df4db67df2499b8" target="_top" xlink:title="A rectangular cross&#45;sectional profile revolved about the z&#45;axis. ">
<polygon fill="white" stroke="black" points="236.5,-266.5 236.5,-285.5 288.5,-285.5 288.5,-266.5 236.5,-266.5"/>
<text text-anchor="middle" x="262.5" y="-273.5" font-family="Helvetica,sans-Serif" font-size="10.00">torus_rp</text>
</a>
</g>
</g>
<!-- Node2&#45;&gt;Node4 -->
<g id="edge3" class="edge"><title>Node2&#45;&gt;Node4</title>
<path fill="none" stroke="midnightblue" d="M186.188,-276C202.943,-276 221.602,-276 236.155,-276"/>
<polygon fill="midnightblue" stroke="midnightblue" points="186.056,-272.5 176.056,-276 186.056,-279.5 186.056,-272.5"/>
</g>
<!-- Node6 -->
<g id="node6" class="node"><title>Node6</title>
<g id="a_node6"><a xlink:href="group__shapes__2de.html#ga0c99582ccf3d5b1425c99001b228c202" target="_top" xlink:title="A general triangle specified by its sides with a removed triangular core. ">
<polygon fill="white" stroke="black" points="224,-228.5 224,-247.5 301,-247.5 301,-228.5 224,-228.5"/>
<text text-anchor="middle" x="262.5" y="-235.5" font-family="Helvetica,sans-Serif" font-size="10.00">etriangle_ls_c</text>
</a>
</g>
</g>
<!-- Node5&#45;&gt;Node6 -->
<g id="edge5" class="edge"><title>Node5&#45;&gt;Node6</title>
<path fill="none" stroke="midnightblue" d="M182.876,-212.68C198.82,-217.815 216.921,-223.644 231.733,-228.414"/>
<polygon fill="midnightblue" stroke="midnightblue" points="183.868,-209.323 173.276,-209.589 181.722,-215.986 183.868,-209.323"/>
</g>
<!-- Node7 -->
<g id="node7" class="node"><title>Node7</title>
<g id="a_node7"><a xlink:href="group__shapes__3d.html#gaa3137155089f4d50c13ebea05402edd0" target="_top" xlink:title="A triangular cross&#45;sectional profile revolved about the z&#45;axis. ">
<polygon fill="white" stroke="black" points="236.5,-190.5 236.5,-209.5 288.5,-209.5 288.5,-190.5 236.5,-190.5"/>
<text text-anchor="middle" x="262.5" y="-197.5" font-family="Helvetica,sans-Serif" font-size="10.00">torus_tp</text>
</a>
</g>
</g>
<!-- Node5&#45;&gt;Node7 -->
<g id="edge6" class="edge"><title>Node5&#45;&gt;Node7</title>
<path fill="none" stroke="midnightblue" d="M188.63,-200C204.808,-200 222.461,-200 236.34,-200"/>
<polygon fill="midnightblue" stroke="midnightblue" points="188.266,-196.5 178.266,-200 188.266,-203.5 188.266,-196.5"/>
</g>
<!-- Node9 -->
<g id="node9" class="node"><title>Node9</title>
<g id="a_node9"><a xlink:href="group__shapes__2de.html#gaa80e1bde5ce902feba29d0d57169b8d5" target="_top" xlink:title="An extruded right&#45;angled triangle specified by a side length and an angle. ">
<polygon fill="white" stroke="black" points="228,-152.5 228,-171.5 297,-171.5 297,-152.5 228,-152.5"/>
<text text-anchor="middle" x="262.5" y="-159.5" font-family="Helvetica,sans-Serif" font-size="10.00">etriangle_sa</text>
</a>
</g>
</g>
<!-- Node8&#45;&gt;Node9 -->
<g id="edge8" class="edge"><title>Node8&#45;&gt;Node9</title>
<path fill="none" stroke="midnightblue" d="M184.894,-162C198.934,-162 214.438,-162 227.804,-162"/>
<polygon fill="midnightblue" stroke="midnightblue" points="184.503,-158.5 174.503,-162 184.503,-165.5 184.503,-158.5"/>
</g>
<!-- Node11 -->
<g id="node11" class="node"><title>Node11</title>
<g id="a_node11"><a xlink:href="group__shapes__2de.html#ga3189db3471cd678cc0f8d88f325186eb" target="_top" xlink:title="An extruded ellipse with a removed elliptical core. ">
<polygon fill="white" stroke="black" points="232.5,-114.5 232.5,-133.5 292.5,-133.5 292.5,-114.5 232.5,-114.5"/>
<text text-anchor="middle" x="262.5" y="-121.5" font-family="Helvetica,sans-Serif" font-size="10.00">eellipse_c</text>
</a>
</g>
</g>
<!-- Node10&#45;&gt;Node11 -->
<g id="edge10" class="edge"><title>Node10&#45;&gt;Node11</title>
<path fill="none" stroke="midnightblue" d="M180.293,-124C197.059,-124 216.625,-124 232.35,-124"/>
<polygon fill="midnightblue" stroke="midnightblue" points="180.276,-120.5 170.276,-124 180.276,-127.5 180.276,-120.5"/>
</g>
<!-- Node13 -->
<g id="node13" class="node"><title>Node13</title>
<g id="a_node13"><a xlink:href="group__shapes__2de.html#gae015f9c06a0ad064212475dcd1c1eb5c" target="_top" xlink:title="An extruded sector of an ellipse with a removed elliptical core. ">
<polygon fill="white" stroke="black" points="230,-76.5 230,-95.5 295,-95.5 295,-76.5 230,-76.5"/>
<text text-anchor="middle" x="262.5" y="-83.5" font-family="Helvetica,sans-Serif" font-size="10.00">eellipse_cs</text>
</a>
</g>
</g>
<!-- Node12&#45;&gt;Node13 -->
<g id="edge12" class="edge"><title>Node12&#45;&gt;Node13</title>
<path fill="none" stroke="midnightblue" d="M182.853,-86C198.104,-86 215.333,-86 229.769,-86"/>
<polygon fill="midnightblue" stroke="midnightblue" points="182.669,-82.5001 172.669,-86 182.669,-89.5001 182.669,-82.5001"/>
</g>
<!-- Node14 -->
<g id="node14" class="node"><title>Node14</title>
<g id="a_node14"><a xlink:href="group__shapes__3d.html#gaf5589d4cfa40aefb7853b4eebc792312" target="_top" xlink:title="An elliptical cross&#45;sectional profile revolved about the z&#45;axis. ">
<polygon fill="white" stroke="black" points="235.5,-38.5 235.5,-57.5 289.5,-57.5 289.5,-38.5 235.5,-38.5"/>
<text text-anchor="middle" x="262.5" y="-45.5" font-family="Helvetica,sans-Serif" font-size="10.00">torus_ep</text>
</a>
</g>
</g>
<!-- Node12&#45;&gt;Node14 -->
<g id="edge13" class="edge"><title>Node12&#45;&gt;Node14</title>
<path fill="none" stroke="midnightblue" d="M182.552,-73.4241C199.943,-67.8236 219.955,-61.379 235.479,-56.3797"/>
<polygon fill="midnightblue" stroke="midnightblue" points="181.114,-70.2098 172.669,-76.6067 183.26,-76.8729 181.114,-70.2098"/>
</g>
</g>
</svg>
