<?xml version="1.0" encoding="UTF-8" standalone="no"?>
<!DOCTYPE svg PUBLIC "-//W3C//DTD SVG 1.1//EN"
 "http://www.w3.org/Graphics/SVG/1.1/DTD/svg11.dtd">
<!-- Generated by graphviz version 2.38.0 (20140413.2041)
 -->
<!-- Title: triangle_sss Pages: 1 -->
<svg width="327pt" height="256pt"
 viewBox="0.00 0.00 327.00 256.00" xmlns="http://www.w3.org/2000/svg" xmlns:xlink="http://www.w3.org/1999/xlink">
<g id="graph0" class="graph" transform="scale(1 1) rotate(0) translate(4 252)">
<title>triangle_sss</title>
<polygon fill="white" stroke="none" points="-4,4 -4,-252 323,-252 323,4 -4,4"/>
<!-- Node1 -->
<g id="node1" class="node"><title>Node1</title>
<polygon fill="#bfbfbf" stroke="black" points="0,-190.5 0,-209.5 69,-209.5 69,-190.5 0,-190.5"/>
<text text-anchor="middle" x="34.5" y="-197.5" font-family="Helvetica,sans-Serif" font-size="10.00">triangle_sss</text>
</g>
<!-- Node2 -->
<g id="node2" class="node"><title>Node2</title>
<g id="a_node2"><a xlink:href="group__datatypes__identify__scalar.html#ga068402d4bbb2bbd22b955ad1e14f104b" target="_top" xlink:title="Test if a numerical value is invalid. ">
<polygon fill="white" stroke="black" points="117,-228.5 117,-247.5 162,-247.5 162,-228.5 117,-228.5"/>
<text text-anchor="middle" x="139.5" y="-235.5" font-family="Helvetica,sans-Serif" font-size="10.00">is_nan</text>
</a>
</g>
</g>
<!-- Node1&#45;&gt;Node2 -->
<g id="edge1" class="edge"><title>Node1&#45;&gt;Node2</title>
<path fill="none" stroke="midnightblue" d="M61.4912,-209.589C75.3398,-214.698 92.4805,-221.022 107.073,-226.405"/>
<polygon fill="midnightblue" stroke="midnightblue" points="106.102,-229.778 116.696,-229.956 108.525,-223.211 106.102,-229.778"/>
</g>
<!-- Node3 -->
<g id="node3" class="node"><title>Node3</title>
<g id="a_node3"><a xlink:href="group__utilities__console.html#ga1ece4e2cff9ae45c85429c226eb8362c" target="_top" xlink:title="Output warning message to console. ">
<polygon fill="white" stroke="black" points="111.5,-190.5 111.5,-209.5 167.5,-209.5 167.5,-190.5 111.5,-190.5"/>
<text text-anchor="middle" x="139.5" y="-197.5" font-family="Helvetica,sans-Serif" font-size="10.00">log_warn</text>
</a>
</g>
</g>
<!-- Node1&#45;&gt;Node3 -->
<g id="edge2" class="edge"><title>Node1&#45;&gt;Node3</title>
<path fill="none" stroke="midnightblue" d="M69.2261,-200C79.4347,-200 90.7053,-200 101.137,-200"/>
<polygon fill="midnightblue" stroke="midnightblue" points="101.219,-203.5 111.219,-200 101.219,-196.5 101.219,-203.5"/>
</g>
<!-- Node5 -->
<g id="node5" class="node"><title>Node5</title>
<g id="a_node5"><a xlink:href="group__shapes__2d.html#ga33d2a7677306c346ad6be5a488885d86" target="_top" xlink:title="A general triangle specified by three vertices. ">
<polygon fill="white" stroke="black" points="105,-114.5 105,-133.5 174,-133.5 174,-114.5 105,-114.5"/>
<text text-anchor="middle" x="139.5" y="-121.5" font-family="Helvetica,sans-Serif" font-size="10.00">triangle_ppp</text>
</a>
</g>
</g>
<!-- Node1&#45;&gt;Node5 -->
<g id="edge4" class="edge"><title>Node1&#45;&gt;Node5</title>
<path fill="none" stroke="midnightblue" d="M48.545,-190.375C65.881,-177.583 96.7236,-154.825 117.394,-139.573"/>
<polygon fill="midnightblue" stroke="midnightblue" points="119.592,-142.301 125.561,-133.547 115.436,-136.668 119.592,-142.301"/>
</g>
<!-- Node4 -->
<g id="node4" class="node"><title>Node4</title>
<g id="a_node4"><a xlink:href="group__utilities__console.html#ga4fb6c985031c9b551777b2e9ebd2fc34" target="_top" xlink:title="Format the function call stack as a string. ">
<polygon fill="white" stroke="black" points="244,-228.5 244,-247.5 285,-247.5 285,-228.5 244,-228.5"/>
<text text-anchor="middle" x="264.5" y="-235.5" font-family="Helvetica,sans-Serif" font-size="10.00">stack</text>
</a>
</g>
</g>
<!-- Node3&#45;&gt;Node4 -->
<g id="edge3" class="edge"><title>Node3&#45;&gt;Node4</title>
<path fill="none" stroke="midnightblue" d="M167.798,-208.433C187.536,-214.531 214.165,-222.758 234.323,-228.986"/>
<polygon fill="midnightblue" stroke="midnightblue" points="233.333,-232.343 243.921,-231.951 235.4,-225.655 233.333,-232.343"/>
</g>
<!-- Node6 -->
<g id="node6" class="node"><title>Node6</title>
<g id="a_node6"><a xlink:href="group__datatypes__operate__scalar.html#gac119300e8c83de0037f2d0a4d9f0ab5c" target="_top" xlink:title="Return a value when it is defined or a default value when it is not. ">
<polygon fill="white" stroke="black" points="233.5,-190.5 233.5,-209.5 295.5,-209.5 295.5,-190.5 233.5,-190.5"/>
<text text-anchor="middle" x="264.5" y="-197.5" font-family="Helvetica,sans-Serif" font-size="10.00">defined_or</text>
</a>
</g>
</g>
<!-- Node5&#45;&gt;Node6 -->
<g id="edge5" class="edge"><title>Node5&#45;&gt;Node6</title>
<path fill="none" stroke="midnightblue" d="M150.047,-133.688C162.746,-146.114 186.357,-167.648 210,-181 214.281,-183.417 218.924,-185.614 223.626,-187.584"/>
<polygon fill="midnightblue" stroke="midnightblue" points="222.674,-190.968 233.264,-191.308 225.197,-184.439 222.674,-190.968"/>
</g>
<!-- Node7 -->
<g id="node7" class="node"><title>Node7</title>
<g id="a_node7"><a xlink:href="group__math__triangle.html#ga6eb5bfb1ae077d0db22e41c142233be0" target="_top" xlink:title="Compute the coordinate for the triangle&#39;s incircle. ">
<polygon fill="white" stroke="black" points="210,-152.5 210,-171.5 319,-171.5 319,-152.5 210,-152.5"/>
<text text-anchor="middle" x="264.5" y="-159.5" font-family="Helvetica,sans-Serif" font-size="10.00">triangle_incenter_ppp</text>
</a>
</g>
</g>
<!-- Node5&#45;&gt;Node7 -->
<g id="edge6" class="edge"><title>Node5&#45;&gt;Node7</title>
<path fill="none" stroke="midnightblue" d="M171.538,-133.589C186.979,-138.359 205.848,-144.189 222.466,-149.323"/>
<polygon fill="midnightblue" stroke="midnightblue" points="221.884,-152.806 232.472,-152.414 223.951,-146.118 221.884,-152.806"/>
</g>
<!-- Node8 -->
<g id="node8" class="node"><title>Node8</title>
<g id="a_node8"><a xlink:href="group__math__triangle.html#ga7c94003074f622d6421a665207cafbd7" target="_top" xlink:title="Compute the centroid (geometric center) of a triangle. ">
<polygon fill="white" stroke="black" points="210,-114.5 210,-133.5 319,-133.5 319,-114.5 210,-114.5"/>
<text text-anchor="middle" x="264.5" y="-121.5" font-family="Helvetica,sans-Serif" font-size="10.00">triangle_centroid_ppp</text>
</a>
</g>
</g>
<!-- Node5&#45;&gt;Node8 -->
<g id="edge7" class="edge"><title>Node5&#45;&gt;Node8</title>
<path fill="none" stroke="midnightblue" d="M174.11,-124C181.983,-124 190.63,-124 199.348,-124"/>
<polygon fill="midnightblue" stroke="midnightblue" points="199.573,-127.5 209.573,-124 199.573,-120.5 199.573,-127.5"/>
</g>
<!-- Node9 -->
<g id="node9" class="node"><title>Node9</title>
<g id="a_node9"><a xlink:href="group__datatypes__identify__iterable.html#ga6dc7861bf5a7777bfb33876493107d75" target="_top" xlink:title="Test if any element of a list of values is undefined. ">
<polygon fill="white" stroke="black" points="224.5,-76.5 224.5,-95.5 304.5,-95.5 304.5,-76.5 224.5,-76.5"/>
<text text-anchor="middle" x="264.5" y="-83.5" font-family="Helvetica,sans-Serif" font-size="10.00">any_undefined</text>
</a>
</g>
</g>
<!-- Node5&#45;&gt;Node9 -->
<g id="edge8" class="edge"><title>Node5&#45;&gt;Node9</title>
<path fill="none" stroke="midnightblue" d="M171.538,-114.411C186.979,-109.641 205.848,-103.811 222.466,-98.6771"/>
<polygon fill="midnightblue" stroke="midnightblue" points="223.951,-101.882 232.472,-95.5859 221.884,-95.1937 223.951,-101.882"/>
</g>
<!-- Node10 -->
<g id="node10" class="node"><title>Node10</title>
<g id="a_node10"><a xlink:href="group__math__vector__algebra.html#ga3a0c4c75047b8003ab09286a77a58c86" target="_top" xlink:title="Compute the angle between two lines (or vectors) in a Euclidean 3d or 2d&#45;space. ">
<polygon fill="white" stroke="black" points="239.5,-38.5 239.5,-57.5 289.5,-57.5 289.5,-38.5 239.5,-38.5"/>
<text text-anchor="middle" x="264.5" y="-45.5" font-family="Helvetica,sans-Serif" font-size="10.00">angle_ll</text>
</a>
</g>
</g>
<!-- Node5&#45;&gt;Node10 -->
<g id="edge9" class="edge"><title>Node5&#45;&gt;Node10</title>
<path fill="none" stroke="midnightblue" d="M150.047,-114.312C162.746,-101.886 186.357,-80.3518 210,-67 216.112,-63.5482 222.964,-60.5465 229.672,-58.0116"/>
<polygon fill="midnightblue" stroke="midnightblue" points="231.016,-61.2491 239.292,-54.6336 228.697,-54.6444 231.016,-61.2491"/>
</g>
<!-- Node11 -->
<g id="node11" class="node"><title>Node11</title>
<g id="a_node11"><a xlink:href="group__math__vector__algebra.html#gaa71caf02a1433e6c84d61d13d12aa581" target="_top" xlink:title="Compute the normalized unit vector of a Euclidean line (or vector). ">
<polygon fill="white" stroke="black" points="244.5,-0.5 244.5,-19.5 284.5,-19.5 284.5,-0.5 244.5,-0.5"/>
<text text-anchor="middle" x="264.5" y="-7.5" font-family="Helvetica,sans-Serif" font-size="10.00">unit_l</text>
</a>
</g>
</g>
<!-- Node5&#45;&gt;Node11 -->
<g id="edge10" class="edge"><title>Node5&#45;&gt;Node11</title>
<path fill="none" stroke="midnightblue" d="M145.014,-114.444C154.445,-95.4649 178.042,-52.8047 210,-29 217.272,-23.583 226.227,-19.6057 234.716,-16.7328"/>
<polygon fill="midnightblue" stroke="midnightblue" points="235.765,-20.0722 244.338,-13.8475 233.754,-13.3672 235.765,-20.0722"/>
</g>
</g>
</svg>
