<?xml version="1.0" encoding="UTF-8" standalone="no"?>
<!DOCTYPE svg PUBLIC "-//W3C//DTD SVG 1.1//EN"
 "http://www.w3.org/Graphics/SVG/1.1/DTD/svg11.dtd">
<!-- Generated by graphviz version 2.38.0 (20140413.2041)
 -->
<!-- Title: edge_add_r Pages: 1 -->
<svg width="474pt" height="85pt"
 viewBox="0.00 0.00 474.00 85.00" xmlns="http://www.w3.org/2000/svg" xmlns:xlink="http://www.w3.org/1999/xlink">
<g id="graph0" class="graph" transform="scale(1 1) rotate(0) translate(4 81)">
<title>edge_add_r</title>
<polygon fill="white" stroke="none" points="-4,4 -4,-81 470,-81 470,4 -4,4"/>
<!-- Node1 -->
<g id="node1" class="node"><title>Node1</title>
<polygon fill="#bfbfbf" stroke="black" points="0,-19.5 0,-38.5 67,-38.5 67,-19.5 0,-19.5"/>
<text text-anchor="middle" x="33.5" y="-26.5" font-family="Helvetica,sans-Serif" font-size="10.00">edge_add_r</text>
</g>
<!-- Node2 -->
<g id="node2" class="node"><title>Node2</title>
<g id="a_node2"><a xlink:href="group__tools__edge.html#ga59a75abff2be2d912fc1881eba650c97" target="_top" xlink:title="A 2d edge&#45;finish profile specified by intersection radius. ">
<polygon fill="white" stroke="black" points="109,-38.5 109,-57.5 186,-57.5 186,-38.5 109,-38.5"/>
<text text-anchor="middle" x="147.5" y="-45.5" font-family="Helvetica,sans-Serif" font-size="10.00">edge_profile_r</text>
</a>
</g>
</g>
<!-- Node1&#45;&gt;Node2 -->
<g id="edge1" class="edge"><title>Node1&#45;&gt;Node2</title>
<path fill="none" stroke="midnightblue" d="M67.1961,-34.5467C77.0799,-36.2234 88.1425,-38.1001 98.7955,-39.9073"/>
<polygon fill="midnightblue" stroke="midnightblue" points="98.3874,-43.388 108.832,-41.6099 99.5582,-36.4866 98.3874,-43.388"/>
</g>
<!-- Node7 -->
<g id="node7" class="node"><title>Node7</title>
<g id="a_node7"><a xlink:href="group__math__bitwise.html#ga31b8c7bc875d9fadd86b49a1ba39d1a4" target="_top" xlink:title="Test if a base&#45;two bit position of an integer value equals a test bit. ">
<polygon fill="white" stroke="black" points="103,-0.5 103,-19.5 192,-19.5 192,-0.5 103,-0.5"/>
<text text-anchor="middle" x="147.5" y="-7.5" font-family="Helvetica,sans-Serif" font-size="10.00">bitwise_is_equal</text>
</a>
</g>
</g>
<!-- Node1&#45;&gt;Node7 -->
<g id="edge7" class="edge"><title>Node1&#45;&gt;Node7</title>
<path fill="none" stroke="midnightblue" d="M67.1961,-23.4533C75.1782,-22.0992 83.9291,-20.6147 92.6123,-19.1417"/>
<polygon fill="midnightblue" stroke="midnightblue" points="93.4505,-22.5496 102.724,-17.4263 92.2796,-15.6482 93.4505,-22.5496"/>
</g>
<!-- Node3 -->
<g id="node3" class="node"><title>Node3</title>
<g id="a_node3"><a xlink:href="group__math__vector__algebra.html#gaa71caf02a1433e6c84d61d13d12aa581" target="_top" xlink:title="Compute the normalized unit vector of a Euclidean line (or vector). ">
<polygon fill="white" stroke="black" points="235.5,-57.5 235.5,-76.5 275.5,-76.5 275.5,-57.5 235.5,-57.5"/>
<text text-anchor="middle" x="255.5" y="-64.5" font-family="Helvetica,sans-Serif" font-size="10.00">unit_l</text>
</a>
</g>
</g>
<!-- Node2&#45;&gt;Node3 -->
<g id="edge2" class="edge"><title>Node2&#45;&gt;Node3</title>
<path fill="none" stroke="midnightblue" d="M186.17,-54.7522C199.057,-57.0621 213.267,-59.6092 225.375,-61.7795"/>
<polygon fill="midnightblue" stroke="midnightblue" points="224.928,-65.255 235.389,-63.5744 226.163,-58.3649 224.928,-65.255"/>
</g>
<!-- Node4 -->
<g id="node4" class="node"><title>Node4</title>
<g id="a_node4"><a xlink:href="group__shapes__2d.html#ga8925cd75276266667fbc1f0896482a7a" target="_top" xlink:title="An ellipse sector. ">
<polygon fill="white" stroke="black" points="228,-19.5 228,-38.5 283,-38.5 283,-19.5 228,-19.5"/>
<text text-anchor="middle" x="255.5" y="-26.5" font-family="Helvetica,sans-Serif" font-size="10.00">ellipse_s</text>
</a>
</g>
</g>
<!-- Node2&#45;&gt;Node4 -->
<g id="edge3" class="edge"><title>Node2&#45;&gt;Node4</title>
<path fill="none" stroke="midnightblue" d="M186.17,-41.2478C196.524,-39.3919 207.733,-37.3829 218.018,-35.5391"/>
<polygon fill="midnightblue" stroke="midnightblue" points="218.706,-38.9718 227.931,-33.7623 217.471,-32.0816 218.706,-38.9718"/>
</g>
<!-- Node5 -->
<g id="node5" class="node"><title>Node5</title>
<g id="a_node5"><a xlink:href="group__datatypes__operate__iterable.html#ga3d679b4617986e31d5e2803971b37af8" target="_top" xlink:title="Return an iterable element when it exists or a default value when it does not. ">
<polygon fill="white" stroke="black" points="399,-19.5 399,-38.5 466,-38.5 466,-19.5 399,-19.5"/>
<text text-anchor="middle" x="432.5" y="-26.5" font-family="Helvetica,sans-Serif" font-size="10.00">edefined_or</text>
</a>
</g>
</g>
<!-- Node4&#45;&gt;Node5 -->
<g id="edge4" class="edge"><title>Node4&#45;&gt;Node5</title>
<path fill="none" stroke="midnightblue" d="M283.079,-29C311.033,-29 355.457,-29 388.426,-29"/>
<polygon fill="midnightblue" stroke="midnightblue" points="388.693,-32.5001 398.693,-29 388.693,-25.5001 388.693,-32.5001"/>
</g>
<!-- Node6 -->
<g id="node6" class="node"><title>Node6</title>
<g id="a_node6"><a xlink:href="group__shapes__2d.html#ga7d62c56f88b839dc7e879ff16f968ea2" target="_top" xlink:title="An ellipse. ">
<polygon fill="white" stroke="black" points="319,-0.5 319,-19.5 363,-19.5 363,-0.5 319,-0.5"/>
<text text-anchor="middle" x="341" y="-7.5" font-family="Helvetica,sans-Serif" font-size="10.00">ellipse</text>
</a>
</g>
</g>
<!-- Node4&#45;&gt;Node6 -->
<g id="edge5" class="edge"><title>Node4&#45;&gt;Node6</title>
<path fill="none" stroke="midnightblue" d="M283.38,-22.8837C291.582,-21.0173 300.665,-18.9504 309.111,-17.0286"/>
<polygon fill="midnightblue" stroke="midnightblue" points="310.021,-20.4111 318.995,-14.7796 308.468,-13.5856 310.021,-20.4111"/>
</g>
<!-- Node6&#45;&gt;Node5 -->
<g id="edge6" class="edge"><title>Node6&#45;&gt;Node5</title>
<path fill="none" stroke="midnightblue" d="M363.21,-14.5027C370.947,-16.1452 379.996,-18.0663 388.929,-19.9627"/>
<polygon fill="midnightblue" stroke="midnightblue" points="388.381,-23.4241 398.89,-22.0772 389.835,-16.5767 388.381,-23.4241"/>
</g>
</g>
</svg>
