<?xml version="1.0" encoding="UTF-8" standalone="no"?>
<!DOCTYPE svg PUBLIC "-//W3C//DTD SVG 1.1//EN"
 "http://www.w3.org/Graphics/SVG/1.1/DTD/svg11.dtd">
<!-- Generated by graphviz version 2.38.0 (20140413.2041)
 -->
<!-- Title: Tables Pages: 1 -->
<svg width="246pt" height="37pt"
 viewBox="0.00 0.00 246.00 36.98" xmlns="http://www.w3.org/2000/svg" xmlns:xlink="http://www.w3.org/1999/xlink">
<g id="graph0" class="graph" transform="scale(1 1) rotate(0) translate(4 32.9769)">
<title>Tables</title>
<polygon fill="white" stroke="none" points="-4,4 -4,-32.9769 242,-32.9769 242,4 -4,4"/>
<!-- Node1 -->
<g id="node1" class="node"><title>Node1</title>
<g id="a_node1"><a xlink:href="group__datatypes.html" target="_top" xlink:title="Data type definitions and operators. ">
<polygon fill="white" stroke="black" points="0,-9.47686 0,-28.4769 62,-28.4769 62,-9.47686 0,-9.47686"/>
<text text-anchor="middle" x="31" y="-16.4769" font-family="Helvetica,sans-Serif" font-size="10.00">Datatypes</text>
</a>
</g>
</g>
<!-- Node0 -->
<g id="node2" class="node"><title>Node0</title>
<polygon fill="#bfbfbf" stroke="black" points="192,-9.47686 192,-28.4769 238,-28.4769 238,-9.47686 192,-9.47686"/>
<text text-anchor="middle" x="215" y="-16.4769" font-family="Helvetica,sans-Serif" font-size="10.00">Tables</text>
</g>
<!-- Node1&#45;&gt;Node0 -->
<g id="edge1" class="edge"><title>Node1&#45;&gt;Node0</title>
<path fill="none" stroke="black" d="M72.4543,-18.9769C109.303,-18.9769 162.346,-18.9769 191.928,-18.9769"/>
<polygon fill="black" stroke="black" points="72.0536,-15.477 62.0536,-18.9769 72.0536,-22.477 72.0536,-15.477"/>
</g>
<!-- Node0&#45;&gt;Node1 -->
<g id="edge2" class="edge"><title>Node0&#45;&gt;Node1</title>
<path fill="none" stroke="darkgreen" stroke-dasharray="5,2" d="M191.926,-9.76679C186.189,-7.78734 179.948,-5.98768 174,-4.97686 132.813,2.02273 121.358,0.931405 80,-4.97686 73.2972,-5.93441 66.2229,-7.60813 59.6257,-9.47271"/>
<text text-anchor="middle" x="127" y="-7.97686" font-family="Helvetica,sans-Serif" font-size="10.00">datatypes_table.scad</text>
</g>
</g>
</svg>
