<?xml version="1.0" encoding="UTF-8" standalone="no"?>
<!DOCTYPE svg PUBLIC "-//W3C//DTD SVG 1.1//EN"
 "http://www.w3.org/Graphics/SVG/1.1/DTD/svg11.dtd">
<!-- Generated by graphviz version 2.38.0 (20140413.2041)
 -->
<!-- Title: grid_repeat Pages: 1 -->
<svg width="253pt" height="142pt"
 viewBox="0.00 0.00 253.00 142.00" xmlns="http://www.w3.org/2000/svg" xmlns:xlink="http://www.w3.org/1999/xlink">
<g id="graph0" class="graph" transform="scale(1 1) rotate(0) translate(4 138)">
<title>grid_repeat</title>
<polygon fill="white" stroke="none" points="-4,4 -4,-138 249,-138 249,4 -4,4"/>
<!-- Node1 -->
<g id="node1" class="node"><title>Node1</title>
<polygon fill="#bfbfbf" stroke="black" points="0,-57.5 0,-76.5 65,-76.5 65,-57.5 0,-57.5"/>
<text text-anchor="middle" x="32.5" y="-64.5" font-family="Helvetica,sans-Serif" font-size="10.00">grid_repeat</text>
</g>
<!-- Node2 -->
<g id="node2" class="node"><title>Node2</title>
<g id="a_node2"><a xlink:href="group__datatypes__identify__scalar.html#ga258e8911375d30ff85a6e52df01dc1c5" target="_top" xlink:title="Test if a value is a single non&#45;iterable value. ">
<polygon fill="white" stroke="black" points="106.5,-114.5 106.5,-133.5 162.5,-133.5 162.5,-114.5 106.5,-114.5"/>
<text text-anchor="middle" x="134.5" y="-121.5" font-family="Helvetica,sans-Serif" font-size="10.00">is_scalar</text>
</a>
</g>
</g>
<!-- Node1&#45;&gt;Node2 -->
<g id="edge1" class="edge"><title>Node1&#45;&gt;Node2</title>
<path fill="none" stroke="midnightblue" d="M50.4636,-76.6693C66.2177,-85.6491 89.8919,-99.1434 107.936,-109.429"/>
<polygon fill="midnightblue" stroke="midnightblue" points="106.366,-112.562 116.787,-114.474 109.832,-106.481 106.366,-112.562"/>
</g>
<!-- Node3 -->
<g id="node3" class="node"><title>Node3</title>
<g id="a_node3"><a xlink:href="group__datatypes__operate__iterable.html#ga3d679b4617986e31d5e2803971b37af8" target="_top" xlink:title="Return an iterable element when it exists or a default value when it does not. ">
<polygon fill="white" stroke="black" points="101,-76.5 101,-95.5 168,-95.5 168,-76.5 101,-76.5"/>
<text text-anchor="middle" x="134.5" y="-83.5" font-family="Helvetica,sans-Serif" font-size="10.00">edefined_or</text>
</a>
</g>
</g>
<!-- Node1&#45;&gt;Node3 -->
<g id="edge2" class="edge"><title>Node1&#45;&gt;Node3</title>
<path fill="none" stroke="midnightblue" d="M65.1406,-73.0117C73.2838,-74.5589 82.1815,-76.2495 90.7851,-77.8842"/>
<polygon fill="midnightblue" stroke="midnightblue" points="90.2094,-81.3373 100.687,-79.7655 91.5161,-74.4604 90.2094,-81.3373"/>
</g>
<!-- Node4 -->
<g id="node4" class="node"><title>Node4</title>
<g id="a_node4"><a xlink:href="group__utilities__console.html#ga1ece4e2cff9ae45c85429c226eb8362c" target="_top" xlink:title="Output warning message to console. ">
<polygon fill="white" stroke="black" points="106.5,-38.5 106.5,-57.5 162.5,-57.5 162.5,-38.5 106.5,-38.5"/>
<text text-anchor="middle" x="134.5" y="-45.5" font-family="Helvetica,sans-Serif" font-size="10.00">log_warn</text>
</a>
</g>
</g>
<!-- Node1&#45;&gt;Node4 -->
<g id="edge3" class="edge"><title>Node1&#45;&gt;Node4</title>
<path fill="none" stroke="midnightblue" d="M65.1406,-60.9883C75.097,-59.0966 86.1812,-56.9906 96.4768,-55.0344"/>
<polygon fill="midnightblue" stroke="midnightblue" points="97.2677,-58.4468 106.439,-53.1417 95.961,-51.5699 97.2677,-58.4468"/>
</g>
<!-- Node6 -->
<g id="node6" class="node"><title>Node6</title>
<g id="a_node6"><a xlink:href="group__utilities__console.html#gacb9540a228d2c15623784ff0b0653722" target="_top" xlink:title="Output information message to console. ">
<polygon fill="white" stroke="black" points="109.5,-0.5 109.5,-19.5 159.5,-19.5 159.5,-0.5 109.5,-0.5"/>
<text text-anchor="middle" x="134.5" y="-7.5" font-family="Helvetica,sans-Serif" font-size="10.00">log_info</text>
</a>
</g>
</g>
<!-- Node1&#45;&gt;Node6 -->
<g id="edge5" class="edge"><title>Node1&#45;&gt;Node6</title>
<path fill="none" stroke="midnightblue" d="M50.4636,-57.3307C66.2177,-48.3509 89.8919,-34.8566 107.936,-24.5715"/>
<polygon fill="midnightblue" stroke="midnightblue" points="109.832,-27.5193 116.787,-19.5265 106.366,-21.4378 109.832,-27.5193"/>
</g>
<!-- Node5 -->
<g id="node5" class="node"><title>Node5</title>
<g id="a_node5"><a xlink:href="group__utilities__console.html#ga4fb6c985031c9b551777b2e9ebd2fc34" target="_top" xlink:title="Format the function call stack as a string. ">
<polygon fill="white" stroke="black" points="204,-19.5 204,-38.5 245,-38.5 245,-19.5 204,-19.5"/>
<text text-anchor="middle" x="224.5" y="-26.5" font-family="Helvetica,sans-Serif" font-size="10.00">stack</text>
</a>
</g>
</g>
<!-- Node4&#45;&gt;Node5 -->
<g id="edge4" class="edge"><title>Node4&#45;&gt;Node5</title>
<path fill="none" stroke="midnightblue" d="M162.861,-42.0924C172.747,-39.958 183.947,-37.5398 194.008,-35.3676"/>
<polygon fill="midnightblue" stroke="midnightblue" points="194.941,-38.7469 203.977,-33.2152 193.463,-31.9046 194.941,-38.7469"/>
</g>
<!-- Node6&#45;&gt;Node5 -->
<g id="edge6" class="edge"><title>Node6&#45;&gt;Node5</title>
<path fill="none" stroke="midnightblue" d="M159.546,-15.1918C170.222,-17.4968 182.886,-20.231 194.116,-22.6558"/>
<polygon fill="midnightblue" stroke="midnightblue" points="193.416,-26.0851 203.929,-24.7744 194.893,-19.2427 193.416,-26.0851"/>
</g>
</g>
</svg>
