<?xml version="1.0" encoding="UTF-8" standalone="no"?>
<!DOCTYPE svg PUBLIC "-//W3C//DTD SVG 1.1//EN"
 "http://www.w3.org/Graphics/SVG/1.1/DTD/svg11.dtd">
<!-- Generated by graphviz version 2.38.0 (20140413.2041)
 -->
<!-- Title: edge_profile_r Pages: 1 -->
<svg width="359pt" height="85pt"
 viewBox="0.00 0.00 359.00 85.00" xmlns="http://www.w3.org/2000/svg" xmlns:xlink="http://www.w3.org/1999/xlink">
<g id="graph0" class="graph" transform="scale(1 1) rotate(0) translate(4 81)">
<title>edge_profile_r</title>
<polygon fill="white" stroke="none" points="-4,4 -4,-81 355,-81 355,4 -4,4"/>
<!-- Node1 -->
<g id="node1" class="node"><title>Node1</title>
<polygon fill="#bfbfbf" stroke="black" points="0,-38.5 0,-57.5 77,-57.5 77,-38.5 0,-38.5"/>
<text text-anchor="middle" x="38.5" y="-45.5" font-family="Helvetica,sans-Serif" font-size="10.00">edge_profile_r</text>
</g>
<!-- Node2 -->
<g id="node2" class="node"><title>Node2</title>
<g id="a_node2"><a xlink:href="group__math__vector__algebra.html#gaa71caf02a1433e6c84d61d13d12aa581" target="_top" xlink:title="Compute the normalized unit vector of a Euclidean line (or vector). ">
<polygon fill="white" stroke="black" points="120.5,-57.5 120.5,-76.5 160.5,-76.5 160.5,-57.5 120.5,-57.5"/>
<text text-anchor="middle" x="140.5" y="-64.5" font-family="Helvetica,sans-Serif" font-size="10.00">unit_l</text>
</a>
</g>
</g>
<!-- Node1&#45;&gt;Node2 -->
<g id="edge1" class="edge"><title>Node1&#45;&gt;Node2</title>
<path fill="none" stroke="midnightblue" d="M77.0208,-55.129C88.0773,-57.2297 100.003,-59.4956 110.443,-61.4791"/>
<polygon fill="midnightblue" stroke="midnightblue" points="109.822,-64.9237 120.299,-63.3519 111.129,-58.0467 109.822,-64.9237"/>
</g>
<!-- Node3 -->
<g id="node3" class="node"><title>Node3</title>
<g id="a_node3"><a xlink:href="group__shapes__2d.html#ga8925cd75276266667fbc1f0896482a7a" target="_top" xlink:title="An ellipse sector. ">
<polygon fill="white" stroke="black" points="113,-19.5 113,-38.5 168,-38.5 168,-19.5 113,-19.5"/>
<text text-anchor="middle" x="140.5" y="-26.5" font-family="Helvetica,sans-Serif" font-size="10.00">ellipse_s</text>
</a>
</g>
</g>
<!-- Node1&#45;&gt;Node3 -->
<g id="edge2" class="edge"><title>Node1&#45;&gt;Node3</title>
<path fill="none" stroke="midnightblue" d="M77.0208,-40.871C85.4526,-39.269 94.3901,-37.5709 102.788,-35.9752"/>
<polygon fill="midnightblue" stroke="midnightblue" points="103.524,-39.3982 112.695,-34.093 102.217,-32.5212 103.524,-39.3982"/>
</g>
<!-- Node4 -->
<g id="node4" class="node"><title>Node4</title>
<g id="a_node4"><a xlink:href="group__datatypes__operate__iterable.html#ga3d679b4617986e31d5e2803971b37af8" target="_top" xlink:title="Return an iterable element when it exists or a default value when it does not. ">
<polygon fill="white" stroke="black" points="284,-19.5 284,-38.5 351,-38.5 351,-19.5 284,-19.5"/>
<text text-anchor="middle" x="317.5" y="-26.5" font-family="Helvetica,sans-Serif" font-size="10.00">edefined_or</text>
</a>
</g>
</g>
<!-- Node3&#45;&gt;Node4 -->
<g id="edge3" class="edge"><title>Node3&#45;&gt;Node4</title>
<path fill="none" stroke="midnightblue" d="M168.079,-29C196.033,-29 240.457,-29 273.426,-29"/>
<polygon fill="midnightblue" stroke="midnightblue" points="273.693,-32.5001 283.693,-29 273.693,-25.5001 273.693,-32.5001"/>
</g>
<!-- Node5 -->
<g id="node5" class="node"><title>Node5</title>
<g id="a_node5"><a xlink:href="group__shapes__2d.html#ga7d62c56f88b839dc7e879ff16f968ea2" target="_top" xlink:title="An ellipse. ">
<polygon fill="white" stroke="black" points="204,-0.5 204,-19.5 248,-19.5 248,-0.5 204,-0.5"/>
<text text-anchor="middle" x="226" y="-7.5" font-family="Helvetica,sans-Serif" font-size="10.00">ellipse</text>
</a>
</g>
</g>
<!-- Node3&#45;&gt;Node5 -->
<g id="edge4" class="edge"><title>Node3&#45;&gt;Node5</title>
<path fill="none" stroke="midnightblue" d="M168.38,-22.8837C176.582,-21.0173 185.665,-18.9504 194.111,-17.0286"/>
<polygon fill="midnightblue" stroke="midnightblue" points="195.021,-20.4111 203.995,-14.7796 193.468,-13.5856 195.021,-20.4111"/>
</g>
<!-- Node5&#45;&gt;Node4 -->
<g id="edge5" class="edge"><title>Node5&#45;&gt;Node4</title>
<path fill="none" stroke="midnightblue" d="M248.21,-14.5027C255.947,-16.1452 264.996,-18.0663 273.929,-19.9627"/>
<polygon fill="midnightblue" stroke="midnightblue" points="273.381,-23.4241 283.89,-22.0772 274.835,-16.5767 273.381,-23.4241"/>
</g>
</g>
</svg>
