<?xml version="1.0" encoding="UTF-8" standalone="no"?>
<!DOCTYPE svg PUBLIC "-//W3C//DTD SVG 1.1//EN"
 "http://www.w3.org/Graphics/SVG/1.1/DTD/svg11.dtd">
<!-- Generated by graphviz version 2.38.0 (20140413.2041)
 -->
<!-- Title: table_check Pages: 1 -->
<svg width="270pt" height="218pt"
 viewBox="0.00 0.00 270.00 218.00" xmlns="http://www.w3.org/2000/svg" xmlns:xlink="http://www.w3.org/1999/xlink">
<g id="graph0" class="graph" transform="scale(1 1) rotate(0) translate(4 214)">
<title>table_check</title>
<polygon fill="white" stroke="none" points="-4,4 -4,-214 266,-214 266,4 -4,4"/>
<!-- Node1 -->
<g id="node1" class="node"><title>Node1</title>
<polygon fill="#bfbfbf" stroke="black" points="0,-95.5 0,-114.5 69,-114.5 69,-95.5 0,-95.5"/>
<text text-anchor="middle" x="34.5" y="-102.5" font-family="Helvetica,sans-Serif" font-size="10.00">table_check</text>
</g>
<!-- Node2 -->
<g id="node2" class="node"><title>Node2</title>
<g id="a_node2"><a xlink:href="group__utilities__console.html#gacb9540a228d2c15623784ff0b0653722" target="_top" xlink:title="Output information message to console. ">
<polygon fill="white" stroke="black" points="120,-190.5 120,-209.5 170,-209.5 170,-190.5 120,-190.5"/>
<text text-anchor="middle" x="145" y="-197.5" font-family="Helvetica,sans-Serif" font-size="10.00">log_info</text>
</a>
</g>
</g>
<!-- Node1&#45;&gt;Node2 -->
<g id="edge1" class="edge"><title>Node1&#45;&gt;Node2</title>
<path fill="none" stroke="midnightblue" d="M42.6463,-114.981C54.2718,-130.662 78.6455,-161.309 105,-181 107.059,-182.538 109.262,-184.004 111.534,-185.39"/>
<polygon fill="midnightblue" stroke="midnightblue" points="110.033,-188.559 120.481,-190.317 113.41,-182.427 110.033,-188.559"/>
</g>
<!-- Node4 -->
<g id="node4" class="node"><title>Node4</title>
<g id="a_node4"><a xlink:href="group__datatypes__operate__iterable.html#gaccab3e37e43cb1d882713b3f3d6d9e1b" target="_top" xlink:title="Return the first element of an iterable value. ">
<polygon fill="white" stroke="black" points="128.5,-152.5 128.5,-171.5 161.5,-171.5 161.5,-152.5 128.5,-152.5"/>
<text text-anchor="middle" x="145" y="-159.5" font-family="Helvetica,sans-Serif" font-size="10.00">first</text>
</a>
</g>
</g>
<!-- Node1&#45;&gt;Node4 -->
<g id="edge3" class="edge"><title>Node1&#45;&gt;Node4</title>
<path fill="none" stroke="midnightblue" d="M52.517,-114.595C66.5143,-122.417 86.9178,-133.659 105,-143 109.529,-145.34 114.39,-147.771 119.09,-150.081"/>
<polygon fill="midnightblue" stroke="midnightblue" points="117.831,-153.36 128.355,-154.585 120.892,-147.065 117.831,-153.36"/>
</g>
<!-- Node5 -->
<g id="node5" class="node"><title>Node5</title>
<g id="a_node5"><a xlink:href="group__utilities__console.html#ga1ece4e2cff9ae45c85429c226eb8362c" target="_top" xlink:title="Output warning message to console. ">
<polygon fill="white" stroke="black" points="117,-114.5 117,-133.5 173,-133.5 173,-114.5 117,-114.5"/>
<text text-anchor="middle" x="145" y="-121.5" font-family="Helvetica,sans-Serif" font-size="10.00">log_warn</text>
</a>
</g>
</g>
<!-- Node1&#45;&gt;Node5 -->
<g id="edge4" class="edge"><title>Node1&#45;&gt;Node5</title>
<path fill="none" stroke="midnightblue" d="M69.2353,-110.908C81.1909,-113.001 94.7054,-115.368 106.924,-117.507"/>
<polygon fill="midnightblue" stroke="midnightblue" points="106.366,-120.963 116.82,-119.24 107.574,-114.068 106.366,-120.963"/>
</g>
<!-- Node6 -->
<g id="node6" class="node"><title>Node6</title>
<g id="a_node6"><a xlink:href="group__datatypes__table.html#gac46ab6a9fd3f9d9f29e7fdc6a83e4251" target="_top" xlink:title="Get the size of a table. ">
<polygon fill="white" stroke="black" points="105,-76.5 105,-95.5 185,-95.5 185,-76.5 105,-76.5"/>
<text text-anchor="middle" x="145" y="-83.5" font-family="Helvetica,sans-Serif" font-size="10.00">get_table_size</text>
</a>
</g>
</g>
<!-- Node1&#45;&gt;Node6 -->
<g id="edge6" class="edge"><title>Node1&#45;&gt;Node6</title>
<path fill="none" stroke="midnightblue" d="M69.2353,-99.0924C77.3729,-97.6674 86.2327,-96.1159 94.9144,-94.5956"/>
<polygon fill="midnightblue" stroke="midnightblue" points="95.724,-98.0072 104.97,-92.8347 94.5165,-91.1121 95.724,-98.0072"/>
</g>
<!-- Node7 -->
<g id="node7" class="node"><title>Node7</title>
<g id="a_node7"><a xlink:href="group__utilities__console.html#ga22d6e9c8a9f751cc5716e4a69188408a" target="_top" xlink:title="Output error message to console. ">
<polygon fill="white" stroke="black" points="118,-38.5 118,-57.5 172,-57.5 172,-38.5 118,-38.5"/>
<text text-anchor="middle" x="145" y="-45.5" font-family="Helvetica,sans-Serif" font-size="10.00">log_error</text>
</a>
</g>
</g>
<!-- Node1&#45;&gt;Node7 -->
<g id="edge7" class="edge"><title>Node1&#45;&gt;Node7</title>
<path fill="none" stroke="midnightblue" d="M52.517,-95.4046C66.5143,-87.5825 86.9178,-76.3414 105,-67 108.105,-65.3958 111.366,-63.7489 114.624,-62.1274"/>
<polygon fill="midnightblue" stroke="midnightblue" points="116.238,-65.2344 123.668,-57.6817 113.15,-58.9523 116.238,-65.2344"/>
</g>
<!-- Node8 -->
<g id="node8" class="node"><title>Node8</title>
<g id="a_node8"><a xlink:href="group__datatypes__table.html#ga8a61574ea2be6f10c18cd04ef758cb8c" target="_top" xlink:title="Get the table row index that matches a table row identifier. ">
<polygon fill="white" stroke="black" points="111.5,-0.5 111.5,-19.5 178.5,-19.5 178.5,-0.5 111.5,-0.5"/>
<text text-anchor="middle" x="145" y="-7.5" font-family="Helvetica,sans-Serif" font-size="10.00">get_table_ri</text>
</a>
</g>
</g>
<!-- Node1&#45;&gt;Node8 -->
<g id="edge9" class="edge"><title>Node1&#45;&gt;Node8</title>
<path fill="none" stroke="midnightblue" d="M42.6463,-95.0193C54.2718,-79.3381 78.6455,-48.6914 105,-29 107.059,-27.4616 109.262,-25.9958 111.534,-24.6104"/>
<polygon fill="midnightblue" stroke="midnightblue" points="113.41,-27.5732 120.481,-19.6834 110.033,-21.4414 113.41,-27.5732"/>
</g>
<!-- Node3 -->
<g id="node3" class="node"><title>Node3</title>
<g id="a_node3"><a xlink:href="group__utilities__console.html#ga4fb6c985031c9b551777b2e9ebd2fc34" target="_top" xlink:title="Format the function call stack as a string. ">
<polygon fill="white" stroke="black" points="221,-114.5 221,-133.5 262,-133.5 262,-114.5 221,-114.5"/>
<text text-anchor="middle" x="241.5" y="-121.5" font-family="Helvetica,sans-Serif" font-size="10.00">stack</text>
</a>
</g>
</g>
<!-- Node2&#45;&gt;Node3 -->
<g id="edge2" class="edge"><title>Node2&#45;&gt;Node3</title>
<path fill="none" stroke="midnightblue" d="M169.031,-190.413C174.478,-187.71 180.117,-184.53 185,-181 200.642,-169.69 215.745,-153.742 226.237,-141.59"/>
<polygon fill="midnightblue" stroke="midnightblue" points="228.956,-143.794 232.713,-133.887 223.599,-139.289 228.956,-143.794"/>
</g>
<!-- Node5&#45;&gt;Node3 -->
<g id="edge5" class="edge"><title>Node5&#45;&gt;Node3</title>
<path fill="none" stroke="midnightblue" d="M173.08,-124C184.891,-124 198.773,-124 210.86,-124"/>
<polygon fill="midnightblue" stroke="midnightblue" points="210.923,-127.5 220.923,-124 210.923,-120.5 210.923,-127.5"/>
</g>
<!-- Node7&#45;&gt;Node3 -->
<g id="edge8" class="edge"><title>Node7&#45;&gt;Node3</title>
<path fill="none" stroke="midnightblue" d="M169.031,-57.5872C174.478,-60.2902 180.117,-63.4696 185,-67 200.642,-78.3098 215.745,-94.2579 226.237,-106.41"/>
<polygon fill="midnightblue" stroke="midnightblue" points="223.599,-108.711 232.713,-114.113 228.956,-104.206 223.599,-108.711"/>
</g>
</g>
</svg>
