<?xml version="1.0" encoding="UTF-8" standalone="no"?>
<!DOCTYPE svg PUBLIC "-//W3C//DTD SVG 1.1//EN"
 "http://www.w3.org/Graphics/SVG/1.1/DTD/svg11.dtd">
<!-- Generated by graphviz version 2.38.0 (20140413.2041)
 -->
<!-- Title: cross_ll Pages: 1 -->
<svg width="221pt" height="28pt"
 viewBox="0.00 0.00 221.00 28.00" xmlns="http://www.w3.org/2000/svg" xmlns:xlink="http://www.w3.org/1999/xlink">
<g id="graph0" class="graph" transform="scale(1 1) rotate(0) translate(4 24)">
<title>cross_ll</title>
<polygon fill="white" stroke="none" points="-4,4 -4,-24 217,-24 217,4 -4,4"/>
<!-- Node1 -->
<g id="node1" class="node"><title>Node1</title>
<polygon fill="#bfbfbf" stroke="black" points="0,-0.5 0,-19.5 50,-19.5 50,-0.5 0,-0.5"/>
<text text-anchor="middle" x="25" y="-7.5" font-family="Helvetica,sans-Serif" font-size="10.00">cross_ll</text>
</g>
<!-- Node2 -->
<g id="node2" class="node"><title>Node2</title>
<g id="a_node2"><a xlink:href="group__tools__align.html#ga8572146edee6a1b5b4b87392c2cd1928" target="_top" xlink:title="Align a line or vector to a reference line or vector. ">
<polygon fill="white" stroke="black" points="86,-0.5 86,-19.5 133,-19.5 133,-0.5 86,-0.5"/>
<text text-anchor="middle" x="109.5" y="-7.5" font-family="Helvetica,sans-Serif" font-size="10.00">align_ll</text>
</a>
</g>
</g>
<!-- Node1&#45;&gt;Node2 -->
<g id="edge1" class="edge"><title>Node1&#45;&gt;Node2</title>
<path fill="none" stroke="midnightblue" d="M60.4384,-10C68.9923,-10 77.948,-10 85.7791,-10"/>
<polygon fill="midnightblue" stroke="midnightblue" points="60.3065,-6.5001 50.3065,-10 60.3065,-13.5001 60.3065,-6.5001"/>
</g>
<!-- Node3 -->
<g id="node3" class="node"><title>Node3</title>
<g id="a_node3"><a xlink:href="group__tools__align.html#gac0c4c3356fb23ec1ddd12e24f958ef6a" target="_top" xlink:title="Align a shapes&#39; x, y, or z Cartesian axis to reference line or vector. ">
<polygon fill="white" stroke="black" points="169,-0.5 169,-19.5 213,-19.5 213,-0.5 169,-0.5"/>
<text text-anchor="middle" x="191" y="-7.5" font-family="Helvetica,sans-Serif" font-size="10.00">align_l</text>
</a>
</g>
</g>
<!-- Node2&#45;&gt;Node3 -->
<g id="edge2" class="edge"><title>Node2&#45;&gt;Node3</title>
<path fill="none" stroke="midnightblue" d="M143.234,-10C151.845,-10 160.909,-10 168.741,-10"/>
<polygon fill="midnightblue" stroke="midnightblue" points="143.069,-6.5001 133.069,-10 143.069,-13.5001 143.069,-6.5001"/>
</g>
</g>
</svg>
