<?xml version="1.0" encoding="UTF-8" standalone="no"?>
<!DOCTYPE svg PUBLIC "-//W3C//DTD SVG 1.1//EN"
 "http://www.w3.org/Graphics/SVG/1.1/DTD/svg11.dtd">
<!-- Generated by graphviz version 2.38.0 (20140413.2041)
 -->
<!-- Title: orient_ll Pages: 1 -->
<svg width="185pt" height="66pt"
 viewBox="0.00 0.00 185.00 66.00" xmlns="http://www.w3.org/2000/svg" xmlns:xlink="http://www.w3.org/1999/xlink">
<g id="graph0" class="graph" transform="scale(1 1) rotate(0) translate(4 62)">
<title>orient_ll</title>
<polygon fill="white" stroke="none" points="-4,4 -4,-62 181,-62 181,4 -4,4"/>
<!-- Node1 -->
<g id="node1" class="node"><title>Node1</title>
<polygon fill="#bfbfbf" stroke="black" points="0,-19.5 0,-38.5 50,-38.5 50,-19.5 0,-19.5"/>
<text text-anchor="middle" x="25" y="-26.5" font-family="Helvetica,sans-Serif" font-size="10.00">orient_ll</text>
</g>
<!-- Node2 -->
<g id="node2" class="node"><title>Node2</title>
<g id="a_node2"><a xlink:href="group__tools__polytope.html#ga00b574079f19251be7281151d11db8fa" target="_top" xlink:title="Label the vertices, paths, and edges of a polytope. ">
<polygon fill="white" stroke="black" points="86,-38.5 86,-57.5 177,-57.5 177,-38.5 86,-38.5"/>
<text text-anchor="middle" x="131.5" y="-45.5" font-family="Helvetica,sans-Serif" font-size="10.00">polytope_number</text>
</a>
</g>
</g>
<!-- Node1&#45;&gt;Node2 -->
<g id="edge1" class="edge"><title>Node1&#45;&gt;Node2</title>
<path fill="none" stroke="midnightblue" d="M60.1946,-35.2172C68.3987,-36.7089 77.28,-38.3236 85.8795,-39.8872"/>
<polygon fill="midnightblue" stroke="midnightblue" points="60.7019,-31.7521 50.2371,-33.4067 59.4496,-38.6392 60.7019,-31.7521"/>
</g>
<!-- Node3 -->
<g id="node3" class="node"><title>Node3</title>
<g id="a_node3"><a xlink:href="group__tools__polytope.html#ga530c86f9c90ce074aa7adc29834f0539" target="_top" xlink:title="Assemble a polytope skeletal frame using child objects. ">
<polygon fill="white" stroke="black" points="90,-0.5 90,-19.5 173,-19.5 173,-0.5 90,-0.5"/>
<text text-anchor="middle" x="131.5" y="-7.5" font-family="Helvetica,sans-Serif" font-size="10.00">polytope_frame</text>
</a>
</g>
</g>
<!-- Node1&#45;&gt;Node3 -->
<g id="edge2" class="edge"><title>Node1&#45;&gt;Node3</title>
<path fill="none" stroke="midnightblue" d="M60.3532,-22.754C69.7077,-21.0531 79.9327,-19.1941 89.6111,-17.4343"/>
<polygon fill="midnightblue" stroke="midnightblue" points="59.4496,-19.3608 50.2371,-24.5933 60.7019,-26.2479 59.4496,-19.3608"/>
</g>
</g>
</svg>
