<?xml version="1.0" encoding="UTF-8" standalone="no"?>
<!DOCTYPE svg PUBLIC "-//W3C//DTD SVG 1.1//EN"
 "http://www.w3.org/Graphics/SVG/1.1/DTD/svg11.dtd">
<!-- Generated by graphviz version 2.38.0 (20140413.2041)
 -->
<!-- Title: triangle_ss Pages: 1 -->
<svg width="322pt" height="218pt"
 viewBox="0.00 0.00 322.00 218.00" xmlns="http://www.w3.org/2000/svg" xmlns:xlink="http://www.w3.org/1999/xlink">
<g id="graph0" class="graph" transform="scale(1 1) rotate(0) translate(4 214)">
<title>triangle_ss</title>
<polygon fill="white" stroke="none" points="-4,4 -4,-214 318,-214 318,4 -4,4"/>
<!-- Node1 -->
<g id="node1" class="node"><title>Node1</title>
<polygon fill="#bfbfbf" stroke="black" points="0,-95.5 0,-114.5 64,-114.5 64,-95.5 0,-95.5"/>
<text text-anchor="middle" x="32" y="-102.5" font-family="Helvetica,sans-Serif" font-size="10.00">triangle_ss</text>
</g>
<!-- Node2 -->
<g id="node2" class="node"><title>Node2</title>
<g id="a_node2"><a xlink:href="group__shapes__2d.html#ga33d2a7677306c346ad6be5a488885d86" target="_top" xlink:title="A general triangle specified by three vertices. ">
<polygon fill="white" stroke="black" points="100,-95.5 100,-114.5 169,-114.5 169,-95.5 100,-95.5"/>
<text text-anchor="middle" x="134.5" y="-102.5" font-family="Helvetica,sans-Serif" font-size="10.00">triangle_ppp</text>
</a>
</g>
</g>
<!-- Node1&#45;&gt;Node2 -->
<g id="edge1" class="edge"><title>Node1&#45;&gt;Node2</title>
<path fill="none" stroke="midnightblue" d="M64.2479,-105C72.2771,-105 81.0653,-105 89.6047,-105"/>
<polygon fill="midnightblue" stroke="midnightblue" points="89.8297,-108.5 99.8297,-105 89.8297,-101.5 89.8297,-108.5"/>
</g>
<!-- Node3 -->
<g id="node3" class="node"><title>Node3</title>
<g id="a_node3"><a xlink:href="group__datatypes__operate__scalar.html#gac119300e8c83de0037f2d0a4d9f0ab5c" target="_top" xlink:title="Return a value when it is defined or a default value when it is not. ">
<polygon fill="white" stroke="black" points="228.5,-190.5 228.5,-209.5 290.5,-209.5 290.5,-190.5 228.5,-190.5"/>
<text text-anchor="middle" x="259.5" y="-197.5" font-family="Helvetica,sans-Serif" font-size="10.00">defined_or</text>
</a>
</g>
</g>
<!-- Node2&#45;&gt;Node3 -->
<g id="edge2" class="edge"><title>Node2&#45;&gt;Node3</title>
<path fill="none" stroke="midnightblue" d="M141.853,-114.56C152.896,-130.485 177.137,-162.519 205,-181 209.305,-183.855 214.089,-186.338 218.976,-188.48"/>
<polygon fill="midnightblue" stroke="midnightblue" points="217.815,-191.784 228.402,-192.19 220.379,-185.271 217.815,-191.784"/>
</g>
<!-- Node4 -->
<g id="node4" class="node"><title>Node4</title>
<g id="a_node4"><a xlink:href="group__math__triangle.html#ga6eb5bfb1ae077d0db22e41c142233be0" target="_top" xlink:title="Compute the coordinate for the triangle&#39;s incircle. ">
<polygon fill="white" stroke="black" points="205,-152.5 205,-171.5 314,-171.5 314,-152.5 205,-152.5"/>
<text text-anchor="middle" x="259.5" y="-159.5" font-family="Helvetica,sans-Serif" font-size="10.00">triangle_incenter_ppp</text>
</a>
</g>
</g>
<!-- Node2&#45;&gt;Node4 -->
<g id="edge3" class="edge"><title>Node2&#45;&gt;Node4</title>
<path fill="none" stroke="midnightblue" d="M151.419,-114.653C165.272,-122.821 186.046,-134.518 205,-143 209.66,-145.086 214.624,-147.105 219.579,-149"/>
<polygon fill="midnightblue" stroke="midnightblue" points="218.42,-152.302 229.014,-152.474 220.839,-145.734 218.42,-152.302"/>
</g>
<!-- Node5 -->
<g id="node5" class="node"><title>Node5</title>
<g id="a_node5"><a xlink:href="group__math__triangle.html#ga7c94003074f622d6421a665207cafbd7" target="_top" xlink:title="Compute the centroid (geometric center) of a triangle. ">
<polygon fill="white" stroke="black" points="205,-114.5 205,-133.5 314,-133.5 314,-114.5 205,-114.5"/>
<text text-anchor="middle" x="259.5" y="-121.5" font-family="Helvetica,sans-Serif" font-size="10.00">triangle_centroid_ppp</text>
</a>
</g>
</g>
<!-- Node2&#45;&gt;Node5 -->
<g id="edge4" class="edge"><title>Node2&#45;&gt;Node5</title>
<path fill="none" stroke="midnightblue" d="M169.11,-110.192C177.069,-111.421 185.818,-112.773 194.632,-114.134"/>
<polygon fill="midnightblue" stroke="midnightblue" points="194.156,-117.602 204.573,-115.67 195.224,-110.684 194.156,-117.602"/>
</g>
<!-- Node6 -->
<g id="node6" class="node"><title>Node6</title>
<g id="a_node6"><a xlink:href="group__datatypes__identify__iterable.html#ga6dc7861bf5a7777bfb33876493107d75" target="_top" xlink:title="Test if any element of a list of values is undefined. ">
<polygon fill="white" stroke="black" points="219.5,-76.5 219.5,-95.5 299.5,-95.5 299.5,-76.5 219.5,-76.5"/>
<text text-anchor="middle" x="259.5" y="-83.5" font-family="Helvetica,sans-Serif" font-size="10.00">any_undefined</text>
</a>
</g>
</g>
<!-- Node2&#45;&gt;Node6 -->
<g id="edge5" class="edge"><title>Node2&#45;&gt;Node6</title>
<path fill="none" stroke="midnightblue" d="M169.11,-99.8082C181.467,-97.8994 195.729,-95.6964 209.181,-93.6184"/>
<polygon fill="midnightblue" stroke="midnightblue" points="209.917,-97.0464 219.265,-92.0607 208.848,-90.1284 209.917,-97.0464"/>
</g>
<!-- Node7 -->
<g id="node7" class="node"><title>Node7</title>
<g id="a_node7"><a xlink:href="group__math__vector__algebra.html#ga3a0c4c75047b8003ab09286a77a58c86" target="_top" xlink:title="Compute the angle between two lines (or vectors) in a Euclidean 3d or 2d&#45;space. ">
<polygon fill="white" stroke="black" points="234.5,-38.5 234.5,-57.5 284.5,-57.5 284.5,-38.5 234.5,-38.5"/>
<text text-anchor="middle" x="259.5" y="-45.5" font-family="Helvetica,sans-Serif" font-size="10.00">angle_ll</text>
</a>
</g>
</g>
<!-- Node2&#45;&gt;Node7 -->
<g id="edge6" class="edge"><title>Node2&#45;&gt;Node7</title>
<path fill="none" stroke="midnightblue" d="M151.419,-95.3469C165.272,-87.179 186.046,-75.4824 205,-67 211.347,-64.1596 218.259,-61.4418 224.942,-58.9947"/>
<polygon fill="midnightblue" stroke="midnightblue" points="226.218,-62.2559 234.477,-55.6204 223.883,-55.6568 226.218,-62.2559"/>
</g>
<!-- Node8 -->
<g id="node8" class="node"><title>Node8</title>
<g id="a_node8"><a xlink:href="group__math__vector__algebra.html#gaa71caf02a1433e6c84d61d13d12aa581" target="_top" xlink:title="Compute the normalized unit vector of a Euclidean line (or vector). ">
<polygon fill="white" stroke="black" points="239.5,-0.5 239.5,-19.5 279.5,-19.5 279.5,-0.5 239.5,-0.5"/>
<text text-anchor="middle" x="259.5" y="-7.5" font-family="Helvetica,sans-Serif" font-size="10.00">unit_l</text>
</a>
</g>
</g>
<!-- Node2&#45;&gt;Node8 -->
<g id="edge7" class="edge"><title>Node2&#45;&gt;Node8</title>
<path fill="none" stroke="midnightblue" d="M141.853,-95.4404C152.896,-79.5147 177.137,-47.4807 205,-29 212.416,-24.081 221.256,-20.2683 229.593,-17.3935"/>
<polygon fill="midnightblue" stroke="midnightblue" points="230.878,-20.659 239.383,-14.3406 228.795,-13.9764 230.878,-20.659"/>
</g>
</g>
</svg>
