<?xml version="1.0" encoding="UTF-8" standalone="no"?>
<!DOCTYPE svg PUBLIC "-//W3C//DTD SVG 1.1//EN"
 "http://www.w3.org/Graphics/SVG/1.1/DTD/svg11.dtd">
<!-- Generated by graphviz version 2.38.0 (20140413.2041)
 -->
<!-- Title: eellipse_cs Pages: 1 -->
<svg width="490pt" height="218pt"
 viewBox="0.00 0.00 490.00 218.00" xmlns="http://www.w3.org/2000/svg" xmlns:xlink="http://www.w3.org/1999/xlink">
<g id="graph0" class="graph" transform="scale(1 1) rotate(0) translate(4 214)">
<title>eellipse_cs</title>
<polygon fill="white" stroke="none" points="-4,4 -4,-214 486,-214 486,4 -4,4"/>
<!-- Node1 -->
<g id="node1" class="node"><title>Node1</title>
<polygon fill="#bfbfbf" stroke="black" points="0,-114.5 0,-133.5 65,-133.5 65,-114.5 0,-114.5"/>
<text text-anchor="middle" x="32.5" y="-121.5" font-family="Helvetica,sans-Serif" font-size="10.00">eellipse_cs</text>
</g>
<!-- Node2 -->
<g id="node2" class="node"><title>Node2</title>
<g id="a_node2"><a xlink:href="group__tools__extrude.html#ga2cb6eb6927858c6b5e1e2dfadb197bf9" target="_top" xlink:title="Linearly extrude 2d shape with extrusion upper and lower scaling. ">
<polygon fill="white" stroke="black" points="101,-152.5 101,-171.5 196,-171.5 196,-152.5 101,-152.5"/>
<text text-anchor="middle" x="148.5" y="-159.5" font-family="Helvetica,sans-Serif" font-size="10.00">linear_extrude_uls</text>
</a>
</g>
</g>
<!-- Node1&#45;&gt;Node2 -->
<g id="edge1" class="edge"><title>Node1&#45;&gt;Node2</title>
<path fill="none" stroke="midnightblue" d="M62.267,-133.589C76.4433,-138.314 93.7366,-144.079 109.032,-149.177"/>
<polygon fill="midnightblue" stroke="midnightblue" points="108.149,-152.572 118.742,-152.414 110.362,-145.931 108.149,-152.572"/>
</g>
<!-- Node5 -->
<g id="node5" class="node"><title>Node5</title>
<g id="a_node5"><a xlink:href="group__shapes__2d.html#ga3e186b32450bffe183da7422f0b19f95" target="_top" xlink:title="A sector of an ellipse with a removed elliptical core. ">
<polygon fill="white" stroke="black" points="118.5,-76.5 118.5,-95.5 178.5,-95.5 178.5,-76.5 118.5,-76.5"/>
<text text-anchor="middle" x="148.5" y="-83.5" font-family="Helvetica,sans-Serif" font-size="10.00">ellipse_cs</text>
</a>
</g>
</g>
<!-- Node1&#45;&gt;Node5 -->
<g id="edge4" class="edge"><title>Node1&#45;&gt;Node5</title>
<path fill="none" stroke="midnightblue" d="M62.267,-114.411C76.4433,-109.686 93.7366,-103.921 109.032,-98.8226"/>
<polygon fill="midnightblue" stroke="midnightblue" points="110.362,-102.069 118.742,-95.5859 108.149,-95.4279 110.362,-102.069"/>
</g>
<!-- Node3 -->
<g id="node3" class="node"><title>Node3</title>
<g id="a_node3"><a xlink:href="group__datatypes__identify__scalar.html#ga62dbd35f498bfc2a090812b1cf8a37c4" target="_top" xlink:title="Test if a value is not defined. ">
<polygon fill="white" stroke="black" points="232,-190.5 232,-209.5 299,-209.5 299,-190.5 232,-190.5"/>
<text text-anchor="middle" x="265.5" y="-197.5" font-family="Helvetica,sans-Serif" font-size="10.00">not_defined</text>
</a>
</g>
</g>
<!-- Node2&#45;&gt;Node3 -->
<g id="edge2" class="edge"><title>Node2&#45;&gt;Node3</title>
<path fill="none" stroke="midnightblue" d="M178.519,-171.589C192.82,-176.314 210.265,-182.079 225.695,-187.177"/>
<polygon fill="midnightblue" stroke="midnightblue" points="224.897,-190.6 235.49,-190.414 227.093,-183.953 224.897,-190.6"/>
</g>
<!-- Node4 -->
<g id="node4" class="node"><title>Node4</title>
<g id="a_node4"><a xlink:href="group__datatypes__identify__scalar.html#ga258e8911375d30ff85a6e52df01dc1c5" target="_top" xlink:title="Test if a value is a single non&#45;iterable value. ">
<polygon fill="white" stroke="black" points="237.5,-152.5 237.5,-171.5 293.5,-171.5 293.5,-152.5 237.5,-152.5"/>
<text text-anchor="middle" x="265.5" y="-159.5" font-family="Helvetica,sans-Serif" font-size="10.00">is_scalar</text>
</a>
</g>
</g>
<!-- Node2&#45;&gt;Node4 -->
<g id="edge3" class="edge"><title>Node2&#45;&gt;Node4</title>
<path fill="none" stroke="midnightblue" d="M196.275,-162C206.504,-162 217.203,-162 227.014,-162"/>
<polygon fill="midnightblue" stroke="midnightblue" points="227.247,-165.5 237.247,-162 227.247,-158.5 227.247,-165.5"/>
</g>
<!-- Node6 -->
<g id="node6" class="node"><title>Node6</title>
<g id="a_node6"><a xlink:href="group__datatypes__identify__iterable.html#ga3fa2b76e04a4c8bba633d9e5e08004e8" target="_top" xlink:title="Test if no element of a list of values is undefined. ">
<polygon fill="white" stroke="black" points="234,-114.5 234,-133.5 297,-133.5 297,-114.5 234,-114.5"/>
<text text-anchor="middle" x="265.5" y="-121.5" font-family="Helvetica,sans-Serif" font-size="10.00">all_defined</text>
</a>
</g>
</g>
<!-- Node5&#45;&gt;Node6 -->
<g id="edge5" class="edge"><title>Node5&#45;&gt;Node6</title>
<path fill="none" stroke="midnightblue" d="M178.519,-95.589C192.82,-100.314 210.265,-106.079 225.695,-111.177"/>
<polygon fill="midnightblue" stroke="midnightblue" points="224.897,-114.6 235.49,-114.414 227.093,-107.953 224.897,-114.6"/>
</g>
<!-- Node7 -->
<g id="node7" class="node"><title>Node7</title>
<g id="a_node7"><a xlink:href="group__datatypes__identify__scalar.html#ga51d7fdb800c10f4b7479d23b89ab8d22" target="_top" xlink:title="Test if a value is defined. ">
<polygon fill="white" stroke="black" points="235,-76.5 235,-95.5 296,-95.5 296,-76.5 235,-76.5"/>
<text text-anchor="middle" x="265.5" y="-83.5" font-family="Helvetica,sans-Serif" font-size="10.00">is_defined</text>
</a>
</g>
</g>
<!-- Node5&#45;&gt;Node7 -->
<g id="edge6" class="edge"><title>Node5&#45;&gt;Node7</title>
<path fill="none" stroke="midnightblue" d="M178.519,-86C192.468,-86 209.407,-86 224.55,-86"/>
<polygon fill="midnightblue" stroke="midnightblue" points="224.688,-89.5001 234.688,-86 224.688,-82.5001 224.688,-89.5001"/>
</g>
<!-- Node8 -->
<g id="node8" class="node"><title>Node8</title>
<g id="a_node8"><a xlink:href="group__shapes__2d.html#ga8925cd75276266667fbc1f0896482a7a" target="_top" xlink:title="An ellipse sector. ">
<polygon fill="white" stroke="black" points="238,-38.5 238,-57.5 293,-57.5 293,-38.5 238,-38.5"/>
<text text-anchor="middle" x="265.5" y="-45.5" font-family="Helvetica,sans-Serif" font-size="10.00">ellipse_s</text>
</a>
</g>
</g>
<!-- Node5&#45;&gt;Node8 -->
<g id="edge7" class="edge"><title>Node5&#45;&gt;Node8</title>
<path fill="none" stroke="midnightblue" d="M178.519,-76.411C193.617,-71.4221 212.22,-65.275 228.256,-59.9762"/>
<polygon fill="midnightblue" stroke="midnightblue" points="229.458,-63.2653 237.855,-56.8045 227.262,-56.6188 229.458,-63.2653"/>
</g>
<!-- Node10 -->
<g id="node10" class="node"><title>Node10</title>
<g id="a_node10"><a xlink:href="group__shapes__2d.html#ga7d62c56f88b839dc7e879ff16f968ea2" target="_top" xlink:title="An ellipse. ">
<polygon fill="white" stroke="black" points="335,-0.5 335,-19.5 379,-19.5 379,-0.5 335,-0.5"/>
<text text-anchor="middle" x="357" y="-7.5" font-family="Helvetica,sans-Serif" font-size="10.00">ellipse</text>
</a>
</g>
</g>
<!-- Node5&#45;&gt;Node10 -->
<g id="edge11" class="edge"><title>Node5&#45;&gt;Node10</title>
<path fill="none" stroke="midnightblue" d="M160.293,-76.0954C175.21,-63.0146 203.527,-40.3172 232,-29 261.928,-17.1045 298.656,-12.6119 324.341,-10.939"/>
<polygon fill="midnightblue" stroke="midnightblue" points="324.826,-14.4179 334.621,-10.3813 324.446,-7.42822 324.826,-14.4179"/>
</g>
<!-- Node9 -->
<g id="node9" class="node"><title>Node9</title>
<g id="a_node9"><a xlink:href="group__datatypes__operate__iterable.html#ga3d679b4617986e31d5e2803971b37af8" target="_top" xlink:title="Return an iterable element when it exists or a default value when it does not. ">
<polygon fill="white" stroke="black" points="415,-19.5 415,-38.5 482,-38.5 482,-19.5 415,-19.5"/>
<text text-anchor="middle" x="448.5" y="-26.5" font-family="Helvetica,sans-Serif" font-size="10.00">edefined_or</text>
</a>
</g>
</g>
<!-- Node8&#45;&gt;Node9 -->
<g id="edge8" class="edge"><title>Node8&#45;&gt;Node9</title>
<path fill="none" stroke="midnightblue" d="M293.207,-45.1965C322.527,-42.1187 370.022,-37.1331 404.581,-33.5053"/>
<polygon fill="midnightblue" stroke="midnightblue" points="405.277,-36.9516 414.857,-32.4267 404.546,-29.9899 405.277,-36.9516"/>
</g>
<!-- Node8&#45;&gt;Node10 -->
<g id="edge9" class="edge"><title>Node8&#45;&gt;Node10</title>
<path fill="none" stroke="midnightblue" d="M289.085,-38.411C300.199,-33.6921 313.754,-27.9371 325.75,-22.8437"/>
<polygon fill="midnightblue" stroke="midnightblue" points="327.123,-26.0632 334.96,-18.9333 324.387,-19.6199 327.123,-26.0632"/>
</g>
<!-- Node10&#45;&gt;Node9 -->
<g id="edge10" class="edge"><title>Node10&#45;&gt;Node9</title>
<path fill="none" stroke="midnightblue" d="M379.21,-14.5027C386.947,-16.1452 395.996,-18.0663 404.929,-19.9627"/>
<polygon fill="midnightblue" stroke="midnightblue" points="404.381,-23.4241 414.89,-22.0772 405.835,-16.5767 404.381,-23.4241"/>
</g>
</g>
</svg>
