<?xml version="1.0" encoding="UTF-8" standalone="no"?>
<!DOCTYPE svg PUBLIC "-//W3C//DTD SVG 1.1//EN"
 "http://www.w3.org/Graphics/SVG/1.1/DTD/svg11.dtd">
<!-- Generated by graphviz version 2.38.0 (20140413.2041)
 -->
<!-- Title: Vector Algebra Pages: 1 -->
<svg width="418pt" height="37pt"
 viewBox="0.00 0.00 418.00 36.79" xmlns="http://www.w3.org/2000/svg" xmlns:xlink="http://www.w3.org/1999/xlink">
<g id="graph0" class="graph" transform="scale(1 1) rotate(0) translate(4 32.7948)">
<title>Vector Algebra</title>
<polygon fill="white" stroke="none" points="-4,4 -4,-32.7948 414,-32.7948 414,4 -4,4"/>
<!-- Node1 -->
<g id="node1" class="node"><title>Node1</title>
<g id="a_node1"><a xlink:href="group__math.html" target="_top" xlink:title="Mathematical functions. ">
<polygon fill="white" stroke="black" points="0,-8.29479 0,-27.2948 38,-27.2948 38,-8.29479 0,-8.29479"/>
<text text-anchor="middle" x="19" y="-15.2948" font-family="Helvetica,sans-Serif" font-size="10.00">Math</text>
</a>
</g>
</g>
<!-- Node0 -->
<g id="node3" class="node"><title>Node0</title>
<polygon fill="#bfbfbf" stroke="black" points="144,-8.29479 144,-27.2948 225,-27.2948 225,-8.29479 144,-8.29479"/>
<text text-anchor="middle" x="184.5" y="-15.2948" font-family="Helvetica,sans-Serif" font-size="10.00">Vector Algebra</text>
</g>
<!-- Node1&#45;&gt;Node0 -->
<g id="edge1" class="edge"><title>Node1&#45;&gt;Node0</title>
<path fill="none" stroke="black" d="M48.2136,-17.7948C74.6074,-17.7948 114.29,-17.7948 143.861,-17.7948"/>
<polygon fill="black" stroke="black" points="48.1221,-14.2949 38.1221,-17.7948 48.122,-21.2949 48.1221,-14.2949"/>
</g>
<!-- Node2 -->
<g id="node2" class="node"><title>Node2</title>
<g id="a_node2"><a xlink:href="group__math__linear__algebra.html" target="_top" xlink:title="Linear algebra transformations on Euclidean coordinates. ">
<polygon fill="white" stroke="black" points="331,-8.29479 331,-27.2948 410,-27.2948 410,-8.29479 331,-8.29479"/>
<text text-anchor="middle" x="370.5" y="-15.2948" font-family="Helvetica,sans-Serif" font-size="10.00">Linear Algebra</text>
</a>
</g>
</g>
<!-- Node0&#45;&gt;Node1 -->
<g id="edge2" class="edge"><title>Node0&#45;&gt;Node1</title>
<path fill="none" stroke="darkgreen" stroke-dasharray="5,2" d="M150.302,-8.28654C142.403,-6.42212 133.957,-4.7495 126,-3.79479 95.1104,-0.0884578 86.5777,1.94162 56,-3.79479 50.0681,-4.90762 43.8576,-6.96833 38.2976,-9.17292"/>
<text text-anchor="middle" x="91" y="-6.79479" font-family="Helvetica,sans-Serif" font-size="10.00">math&#45;base.scad</text>
</g>
<!-- Node0&#45;&gt;Node2 -->
<g id="edge3" class="edge"><title>Node0&#45;&gt;Node2</title>
<path fill="none" stroke="darkgreen" stroke-dasharray="5,2" d="M225.425,-17.7948C256.711,-17.7948 299.976,-17.7948 330.914,-17.7948"/>
<text text-anchor="middle" x="278" y="-20.7948" font-family="Helvetica,sans-Serif" font-size="10.00">math&#45;base.scad</text>
</g>
</g>
</svg>
