<?xml version="1.0" encoding="UTF-8" standalone="no"?>
<!DOCTYPE svg PUBLIC "-//W3C//DTD SVG 1.1//EN"
 "http://www.w3.org/Graphics/SVG/1.1/DTD/svg11.dtd">
<!-- Generated by graphviz version 2.38.0 (20140413.2041)
 -->
<!-- Title: etriangle_ppp Pages: 1 -->
<svg width="358pt" height="294pt"
 viewBox="0.00 0.00 358.00 294.00" xmlns="http://www.w3.org/2000/svg" xmlns:xlink="http://www.w3.org/1999/xlink">
<g id="graph0" class="graph" transform="scale(1 1) rotate(0) translate(4 290)">
<title>etriangle_ppp</title>
<polygon fill="white" stroke="none" points="-4,4 -4,-290 354,-290 354,4 -4,4"/>
<!-- Node1 -->
<g id="node1" class="node"><title>Node1</title>
<polygon fill="#bfbfbf" stroke="black" points="0,-171.5 0,-190.5 74,-190.5 74,-171.5 0,-171.5"/>
<text text-anchor="middle" x="37" y="-178.5" font-family="Helvetica,sans-Serif" font-size="10.00">etriangle_ppp</text>
</g>
<!-- Node2 -->
<g id="node2" class="node"><title>Node2</title>
<g id="a_node2"><a xlink:href="group__tools__extrude.html#ga2cb6eb6927858c6b5e1e2dfadb197bf9" target="_top" xlink:title="Linearly extrude 2d shape with extrusion upper and lower scaling. ">
<polygon fill="white" stroke="black" points="110,-228.5 110,-247.5 205,-247.5 205,-228.5 110,-228.5"/>
<text text-anchor="middle" x="157.5" y="-235.5" font-family="Helvetica,sans-Serif" font-size="10.00">linear_extrude_uls</text>
</a>
</g>
</g>
<!-- Node1&#45;&gt;Node2 -->
<g id="edge1" class="edge"><title>Node1&#45;&gt;Node2</title>
<path fill="none" stroke="midnightblue" d="M57.8342,-190.541C76.8889,-199.706 105.897,-213.659 127.535,-224.068"/>
<polygon fill="midnightblue" stroke="midnightblue" points="126.072,-227.248 136.601,-228.428 129.107,-220.939 126.072,-227.248"/>
</g>
<!-- Node5 -->
<g id="node5" class="node"><title>Node5</title>
<g id="a_node5"><a xlink:href="group__shapes__2d.html#ga33d2a7677306c346ad6be5a488885d86" target="_top" xlink:title="A general triangle specified by three vertices. ">
<polygon fill="white" stroke="black" points="123,-114.5 123,-133.5 192,-133.5 192,-114.5 123,-114.5"/>
<text text-anchor="middle" x="157.5" y="-121.5" font-family="Helvetica,sans-Serif" font-size="10.00">triangle_ppp</text>
</a>
</g>
</g>
<!-- Node1&#45;&gt;Node5 -->
<g id="edge4" class="edge"><title>Node1&#45;&gt;Node5</title>
<path fill="none" stroke="midnightblue" d="M57.8342,-171.459C76.8889,-162.294 105.897,-148.341 127.535,-137.932"/>
<polygon fill="midnightblue" stroke="midnightblue" points="129.107,-141.061 136.601,-133.572 126.072,-134.752 129.107,-141.061"/>
</g>
<!-- Node3 -->
<g id="node3" class="node"><title>Node3</title>
<g id="a_node3"><a xlink:href="group__datatypes__identify__scalar.html#ga62dbd35f498bfc2a090812b1cf8a37c4" target="_top" xlink:title="Test if a value is not defined. ">
<polygon fill="white" stroke="black" points="262,-266.5 262,-285.5 329,-285.5 329,-266.5 262,-266.5"/>
<text text-anchor="middle" x="295.5" y="-273.5" font-family="Helvetica,sans-Serif" font-size="10.00">not_defined</text>
</a>
</g>
</g>
<!-- Node2&#45;&gt;Node3 -->
<g id="edge2" class="edge"><title>Node2&#45;&gt;Node3</title>
<path fill="none" stroke="midnightblue" d="M192.819,-247.589C210.777,-252.607 232.928,-258.796 251.967,-264.116"/>
<polygon fill="midnightblue" stroke="midnightblue" points="251.027,-267.487 261.6,-266.807 252.911,-260.745 251.027,-267.487"/>
</g>
<!-- Node4 -->
<g id="node4" class="node"><title>Node4</title>
<g id="a_node4"><a xlink:href="group__datatypes__identify__scalar.html#ga258e8911375d30ff85a6e52df01dc1c5" target="_top" xlink:title="Test if a value is a single non&#45;iterable value. ">
<polygon fill="white" stroke="black" points="267.5,-228.5 267.5,-247.5 323.5,-247.5 323.5,-228.5 267.5,-228.5"/>
<text text-anchor="middle" x="295.5" y="-235.5" font-family="Helvetica,sans-Serif" font-size="10.00">is_scalar</text>
</a>
</g>
</g>
<!-- Node2&#45;&gt;Node4 -->
<g id="edge3" class="edge"><title>Node2&#45;&gt;Node4</title>
<path fill="none" stroke="midnightblue" d="M205.303,-238C222.321,-238 241.307,-238 257.374,-238"/>
<polygon fill="midnightblue" stroke="midnightblue" points="257.461,-241.5 267.461,-238 257.461,-234.5 257.461,-241.5"/>
</g>
<!-- Node6 -->
<g id="node6" class="node"><title>Node6</title>
<g id="a_node6"><a xlink:href="group__datatypes__operate__scalar.html#gac119300e8c83de0037f2d0a4d9f0ab5c" target="_top" xlink:title="Return a value when it is defined or a default value when it is not. ">
<polygon fill="white" stroke="black" points="264.5,-190.5 264.5,-209.5 326.5,-209.5 326.5,-190.5 264.5,-190.5"/>
<text text-anchor="middle" x="295.5" y="-197.5" font-family="Helvetica,sans-Serif" font-size="10.00">defined_or</text>
</a>
</g>
</g>
<!-- Node5&#45;&gt;Node6 -->
<g id="edge5" class="edge"><title>Node5&#45;&gt;Node6</title>
<path fill="none" stroke="midnightblue" d="M170.171,-133.551C185.611,-145.828 214.033,-167.202 241,-181 245.376,-183.239 250.078,-185.327 254.812,-187.238"/>
<polygon fill="midnightblue" stroke="midnightblue" points="253.891,-190.631 264.482,-190.902 256.371,-184.085 253.891,-190.631"/>
</g>
<!-- Node7 -->
<g id="node7" class="node"><title>Node7</title>
<g id="a_node7"><a xlink:href="group__math__triangle.html#ga6eb5bfb1ae077d0db22e41c142233be0" target="_top" xlink:title="Compute the coordinate for the triangle&#39;s incircle. ">
<polygon fill="white" stroke="black" points="241,-152.5 241,-171.5 350,-171.5 350,-152.5 241,-152.5"/>
<text text-anchor="middle" x="295.5" y="-159.5" font-family="Helvetica,sans-Serif" font-size="10.00">triangle_incenter_ppp</text>
</a>
</g>
</g>
<!-- Node5&#45;&gt;Node7 -->
<g id="edge6" class="edge"><title>Node5&#45;&gt;Node7</title>
<path fill="none" stroke="midnightblue" d="M192.118,-133.393C209.802,-138.334 231.695,-144.452 250.692,-149.759"/>
<polygon fill="midnightblue" stroke="midnightblue" points="249.751,-153.131 260.324,-152.451 251.635,-146.389 249.751,-153.131"/>
</g>
<!-- Node8 -->
<g id="node8" class="node"><title>Node8</title>
<g id="a_node8"><a xlink:href="group__math__triangle.html#ga7c94003074f622d6421a665207cafbd7" target="_top" xlink:title="Compute the centroid (geometric center) of a triangle. ">
<polygon fill="white" stroke="black" points="241,-114.5 241,-133.5 350,-133.5 350,-114.5 241,-114.5"/>
<text text-anchor="middle" x="295.5" y="-121.5" font-family="Helvetica,sans-Serif" font-size="10.00">triangle_centroid_ppp</text>
</a>
</g>
</g>
<!-- Node5&#45;&gt;Node8 -->
<g id="edge7" class="edge"><title>Node5&#45;&gt;Node8</title>
<path fill="none" stroke="midnightblue" d="M192.118,-124C203.839,-124 217.41,-124 230.762,-124"/>
<polygon fill="midnightblue" stroke="midnightblue" points="230.894,-127.5 240.894,-124 230.894,-120.5 230.894,-127.5"/>
</g>
<!-- Node9 -->
<g id="node9" class="node"><title>Node9</title>
<g id="a_node9"><a xlink:href="group__datatypes__identify__iterable.html#ga6dc7861bf5a7777bfb33876493107d75" target="_top" xlink:title="Test if any element of a list of values is undefined. ">
<polygon fill="white" stroke="black" points="255.5,-76.5 255.5,-95.5 335.5,-95.5 335.5,-76.5 255.5,-76.5"/>
<text text-anchor="middle" x="295.5" y="-83.5" font-family="Helvetica,sans-Serif" font-size="10.00">any_undefined</text>
</a>
</g>
</g>
<!-- Node5&#45;&gt;Node9 -->
<g id="edge8" class="edge"><title>Node5&#45;&gt;Node9</title>
<path fill="none" stroke="midnightblue" d="M192.118,-114.607C209.802,-109.666 231.695,-103.548 250.692,-98.2406"/>
<polygon fill="midnightblue" stroke="midnightblue" points="251.635,-101.611 260.324,-95.5491 249.751,-94.8694 251.635,-101.611"/>
</g>
<!-- Node10 -->
<g id="node10" class="node"><title>Node10</title>
<g id="a_node10"><a xlink:href="group__math__vector__algebra.html#ga3a0c4c75047b8003ab09286a77a58c86" target="_top" xlink:title="Compute the angle between two lines (or vectors) in a Euclidean 3d or 2d&#45;space. ">
<polygon fill="white" stroke="black" points="270.5,-38.5 270.5,-57.5 320.5,-57.5 320.5,-38.5 270.5,-38.5"/>
<text text-anchor="middle" x="295.5" y="-45.5" font-family="Helvetica,sans-Serif" font-size="10.00">angle_ll</text>
</a>
</g>
</g>
<!-- Node5&#45;&gt;Node10 -->
<g id="edge9" class="edge"><title>Node5&#45;&gt;Node10</title>
<path fill="none" stroke="midnightblue" d="M170.171,-114.449C185.611,-102.172 214.033,-80.7976 241,-67 247.19,-63.8328 254.032,-60.9683 260.695,-58.4802"/>
<polygon fill="midnightblue" stroke="midnightblue" points="261.97,-61.742 270.234,-55.1127 259.639,-55.1413 261.97,-61.742"/>
</g>
<!-- Node11 -->
<g id="node11" class="node"><title>Node11</title>
<g id="a_node11"><a xlink:href="group__math__vector__algebra.html#gaa71caf02a1433e6c84d61d13d12aa581" target="_top" xlink:title="Compute the normalized unit vector of a Euclidean line (or vector). ">
<polygon fill="white" stroke="black" points="275.5,-0.5 275.5,-19.5 315.5,-19.5 315.5,-0.5 275.5,-0.5"/>
<text text-anchor="middle" x="295.5" y="-7.5" font-family="Helvetica,sans-Serif" font-size="10.00">unit_l</text>
</a>
</g>
</g>
<!-- Node5&#45;&gt;Node11 -->
<g id="edge10" class="edge"><title>Node5&#45;&gt;Node11</title>
<path fill="none" stroke="midnightblue" d="M164.326,-114.476C176.361,-95.557 205.807,-52.9979 241,-29 248.353,-23.9862 257.174,-20.1457 265.513,-17.2744"/>
<polygon fill="midnightblue" stroke="midnightblue" points="266.798,-20.5406 275.315,-14.2391 264.727,-13.8539 266.798,-20.5406"/>
</g>
</g>
</svg>
