<?xml version="1.0" encoding="UTF-8" standalone="no"?>
<!DOCTYPE svg PUBLIC "-//W3C//DTD SVG 1.1//EN"
 "http://www.w3.org/Graphics/SVG/1.1/DTD/svg11.dtd">
<!-- Generated by graphviz version 2.38.0 (20140413.2041)
 -->
<!-- Title: stack Pages: 1 -->
<svg width="584pt" height="313pt"
 viewBox="0.00 0.00 584.00 313.00" xmlns="http://www.w3.org/2000/svg" xmlns:xlink="http://www.w3.org/1999/xlink">
<g id="graph0" class="graph" transform="scale(1 1) rotate(0) translate(4 309)">
<title>stack</title>
<polygon fill="white" stroke="none" points="-4,4 -4,-309 580,-309 580,4 -4,4"/>
<!-- Node1 -->
<g id="node1" class="node"><title>Node1</title>
<polygon fill="#bfbfbf" stroke="black" points="0,-228.5 0,-247.5 41,-247.5 41,-228.5 0,-228.5"/>
<text text-anchor="middle" x="20.5" y="-235.5" font-family="Helvetica,sans-Serif" font-size="10.00">stack</text>
</g>
<!-- Node2 -->
<g id="node2" class="node"><title>Node2</title>
<g id="a_node2"><a xlink:href="group__utilities__console.html#ga149f54a142f1c69163f45f45bd39797f" target="_top" xlink:title="Output diagnostic message to console. ">
<polygon fill="white" stroke="black" points="77,-285.5 77,-304.5 138,-304.5 138,-285.5 77,-285.5"/>
<text text-anchor="middle" x="107.5" y="-292.5" font-family="Helvetica,sans-Serif" font-size="10.00">log_debug</text>
</a>
</g>
</g>
<!-- Node1&#45;&gt;Node2 -->
<g id="edge1" class="edge"><title>Node1&#45;&gt;Node2</title>
<path fill="none" stroke="midnightblue" d="M43.8372,-253.505C53.923,-260.451 66.0156,-268.704 77,-276 81.6686,-279.101 86.7916,-282.427 91.4394,-285.416"/>
<polygon fill="midnightblue" stroke="midnightblue" points="45.7859,-250.597 35.5687,-247.794 41.8077,-256.357 45.7859,-250.597"/>
</g>
<!-- Node3 -->
<g id="node3" class="node"><title>Node3</title>
<g id="a_node3"><a xlink:href="group__utilities__console.html#gacb9540a228d2c15623784ff0b0653722" target="_top" xlink:title="Output information message to console. ">
<polygon fill="white" stroke="black" points="82.5,-209.5 82.5,-228.5 132.5,-228.5 132.5,-209.5 82.5,-209.5"/>
<text text-anchor="middle" x="107.5" y="-216.5" font-family="Helvetica,sans-Serif" font-size="10.00">log_info</text>
</a>
</g>
</g>
<!-- Node1&#45;&gt;Node3 -->
<g id="edge2" class="edge"><title>Node1&#45;&gt;Node3</title>
<path fill="none" stroke="midnightblue" d="M50.9829,-231.41C61.2239,-229.121 72.5811,-226.582 82.3414,-224.4"/>
<polygon fill="midnightblue" stroke="midnightblue" points="50.21,-227.996 41.2144,-233.593 51.7371,-234.827 50.21,-227.996"/>
</g>
<!-- Node7 -->
<g id="node7" class="node"><title>Node7</title>
<g id="a_node7"><a xlink:href="group__utilities__console.html#ga1ece4e2cff9ae45c85429c226eb8362c" target="_top" xlink:title="Output warning message to console. ">
<polygon fill="white" stroke="black" points="79.5,-171.5 79.5,-190.5 135.5,-190.5 135.5,-171.5 79.5,-171.5"/>
<text text-anchor="middle" x="107.5" y="-178.5" font-family="Helvetica,sans-Serif" font-size="10.00">log_warn</text>
</a>
</g>
</g>
<!-- Node1&#45;&gt;Node7 -->
<g id="edge6" class="edge"><title>Node1&#45;&gt;Node7</title>
<path fill="none" stroke="midnightblue" d="M43.8372,-222.495C53.923,-215.549 66.0156,-207.296 77,-200 81.6686,-196.899 86.7916,-193.573 91.4394,-190.584"/>
<polygon fill="midnightblue" stroke="midnightblue" points="41.8077,-219.643 35.5687,-228.206 45.7859,-225.403 41.8077,-219.643"/>
</g>
<!-- Node24 -->
<g id="node24" class="node"><title>Node24</title>
<g id="a_node24"><a xlink:href="group__utilities__console.html#ga22d6e9c8a9f751cc5716e4a69188408a" target="_top" xlink:title="Output error message to console. ">
<polygon fill="white" stroke="black" points="80.5,-247.5 80.5,-266.5 134.5,-266.5 134.5,-247.5 80.5,-247.5"/>
<text text-anchor="middle" x="107.5" y="-254.5" font-family="Helvetica,sans-Serif" font-size="10.00">log_error</text>
</a>
</g>
</g>
<!-- Node1&#45;&gt;Node24 -->
<g id="edge28" class="edge"><title>Node1&#45;&gt;Node24</title>
<path fill="none" stroke="midnightblue" d="M51.1007,-244.617C60.655,-246.752 71.1701,-249.103 80.4485,-251.177"/>
<polygon fill="midnightblue" stroke="midnightblue" points="51.7371,-241.173 41.2144,-242.407 50.21,-248.004 51.7371,-241.173"/>
</g>
<!-- Node4 -->
<g id="node4" class="node"><title>Node4</title>
<g id="a_node4"><a xlink:href="group__datatypes__map.html#ga4a3d0704d80be0d9e8bae1fcb3ab7958" target="_top" xlink:title="Perform some basic validation/checks on a map. ">
<polygon fill="white" stroke="black" points="175,-247.5 175,-266.5 242,-266.5 242,-247.5 175,-247.5"/>
<text text-anchor="middle" x="208.5" y="-254.5" font-family="Helvetica,sans-Serif" font-size="10.00">map_check</text>
</a>
</g>
</g>
<!-- Node3&#45;&gt;Node4 -->
<g id="edge3" class="edge"><title>Node3&#45;&gt;Node4</title>
<path fill="none" stroke="midnightblue" d="M142.388,-232.008C155.544,-237.057 170.34,-242.736 182.498,-247.403"/>
<polygon fill="midnightblue" stroke="midnightblue" points="143.308,-228.612 132.718,-228.296 140.8,-235.147 143.308,-228.612"/>
</g>
<!-- Node5 -->
<g id="node5" class="node"><title>Node5</title>
<g id="a_node5"><a xlink:href="group__datatypes__table.html#ga8a4429649e8b06d9f492e1a0d2653656" target="_top" xlink:title="Perform some basic validation/checks on a table. ">
<polygon fill="white" stroke="black" points="174,-209.5 174,-228.5 243,-228.5 243,-209.5 174,-209.5"/>
<text text-anchor="middle" x="208.5" y="-216.5" font-family="Helvetica,sans-Serif" font-size="10.00">table_check</text>
</a>
</g>
</g>
<!-- Node3&#45;&gt;Node5 -->
<g id="edge4" class="edge"><title>Node3&#45;&gt;Node5</title>
<path fill="none" stroke="midnightblue" d="M142.776,-219C152.825,-219 163.802,-219 173.815,-219"/>
<polygon fill="midnightblue" stroke="midnightblue" points="142.718,-215.5 132.718,-219 142.718,-222.5 142.718,-215.5"/>
</g>
<!-- Node6 -->
<g id="node6" class="node"><title>Node6</title>
<g id="a_node6"><a xlink:href="group__tools__repeat.html#ga1bdfb742c5c03621128336c662faee75" target="_top" xlink:title="Distribute copies of 2d or 3d shapes about Cartesian grid. ">
<polygon fill="white" stroke="black" points="176,-171.5 176,-190.5 241,-190.5 241,-171.5 176,-171.5"/>
<text text-anchor="middle" x="208.5" y="-178.5" font-family="Helvetica,sans-Serif" font-size="10.00">grid_repeat</text>
</a>
</g>
</g>
<!-- Node3&#45;&gt;Node6 -->
<g id="edge5" class="edge"><title>Node3&#45;&gt;Node6</title>
<path fill="none" stroke="midnightblue" d="M142.388,-205.992C155.544,-200.943 170.34,-195.264 182.498,-190.597"/>
<polygon fill="midnightblue" stroke="midnightblue" points="140.8,-202.853 132.718,-209.704 143.308,-209.388 140.8,-202.853"/>
</g>
<!-- Node7&#45;&gt;Node4 -->
<g id="edge7" class="edge"><title>Node7&#45;&gt;Node4</title>
<path fill="none" stroke="midnightblue" d="M133.248,-196.297C134.888,-197.506 136.488,-198.746 138,-200 155.908,-214.85 155.681,-223.66 174,-238 178.423,-241.462 183.55,-244.698 188.443,-247.483"/>
<polygon fill="midnightblue" stroke="midnightblue" points="135.141,-193.352 124.914,-190.584 131.183,-199.125 135.141,-193.352"/>
</g>
<!-- Node7&#45;&gt;Node5 -->
<g id="edge8" class="edge"><title>Node7&#45;&gt;Node5</title>
<path fill="none" stroke="midnightblue" d="M143.058,-194.265C156.055,-199.253 170.568,-204.824 182.526,-209.414"/>
<polygon fill="midnightblue" stroke="midnightblue" points="144.072,-190.905 133.482,-190.589 141.564,-197.44 144.072,-190.905"/>
</g>
<!-- Node7&#45;&gt;Node6 -->
<g id="edge27" class="edge"><title>Node7&#45;&gt;Node6</title>
<path fill="none" stroke="midnightblue" d="M145.613,-181C155.587,-181 166.278,-181 175.921,-181"/>
<polygon fill="midnightblue" stroke="midnightblue" points="145.552,-177.5 135.552,-181 145.552,-184.5 145.552,-177.5"/>
</g>
<!-- Node8 -->
<g id="node8" class="node"><title>Node8</title>
<g id="a_node8"><a xlink:href="group__shapes__2d.html#gab40e6edfc3c5ab69a4db26301318cd86" target="_top" xlink:title="A general triangle specified by its three side lengths. ">
<polygon fill="white" stroke="black" points="174,-95.5 174,-114.5 243,-114.5 243,-95.5 174,-95.5"/>
<text text-anchor="middle" x="208.5" y="-102.5" font-family="Helvetica,sans-Serif" font-size="10.00">triangle_sss</text>
</a>
</g>
</g>
<!-- Node7&#45;&gt;Node8 -->
<g id="edge9" class="edge"><title>Node7&#45;&gt;Node8</title>
<path fill="none" stroke="midnightblue" d="M128.214,-164.934C141.114,-154.524 158.407,-140.764 174,-129 180.397,-124.174 187.608,-118.977 193.698,-114.657"/>
<polygon fill="midnightblue" stroke="midnightblue" points="126.001,-162.222 120.433,-171.236 130.407,-167.662 126.001,-162.222"/>
</g>
<!-- Node18 -->
<g id="node18" class="node"><title>Node18</title>
<g id="a_node18"><a xlink:href="group__shapes__2d.html#gaaefcea1b06acb7b1633e86f657341701" target="_top" xlink:title="A general triangle specified by a side and two adjacent angles. ">
<polygon fill="white" stroke="black" points="281.5,-190.5 281.5,-209.5 350.5,-209.5 350.5,-190.5 281.5,-190.5"/>
<text text-anchor="middle" x="316" y="-197.5" font-family="Helvetica,sans-Serif" font-size="10.00">triangle_asa</text>
</a>
</g>
</g>
<!-- Node7&#45;&gt;Node18 -->
<g id="edge25" class="edge"><title>Node7&#45;&gt;Node18</title>
<path fill="none" stroke="midnightblue" d="M144.479,-168.527C171.789,-160.833 210.118,-153.855 243,-162 243.092,-162.023 275.562,-179.169 296.861,-190.418"/>
<polygon fill="midnightblue" stroke="midnightblue" points="143.167,-165.266 134.586,-171.481 145.169,-171.974 143.167,-165.266"/>
</g>
<!-- Node20 -->
<g id="node20" class="node"><title>Node20</title>
<g id="a_node20"><a xlink:href="group__shapes__2d.html#gad0730473c871f346877e8ef91e2bdfd4" target="_top" xlink:title="A general triangle specified by a side, one adjacent angle and the opposite angle. ">
<polygon fill="white" stroke="black" points="281.5,-0.5 281.5,-19.5 350.5,-19.5 350.5,-0.5 281.5,-0.5"/>
<text text-anchor="middle" x="316" y="-7.5" font-family="Helvetica,sans-Serif" font-size="10.00">triangle_aas</text>
</a>
</g>
</g>
<!-- Node7&#45;&gt;Node20 -->
<g id="edge26" class="edge"><title>Node7&#45;&gt;Node20</title>
<path fill="none" stroke="midnightblue" d="M117.953,-162.222C129.104,-141.521 149.29,-108.214 174,-86 208.847,-54.6734 258.906,-31.6597 289.056,-19.5875"/>
<polygon fill="midnightblue" stroke="midnightblue" points="114.755,-160.784 113.224,-171.268 120.959,-164.027 114.755,-160.784"/>
</g>
<!-- Node9 -->
<g id="node9" class="node"><title>Node9</title>
<g id="a_node9"><a xlink:href="group__shapes__2d.html#ga5321277acf52177e1c7928c13377dd00" target="_top" xlink:title="A general triangle specified by a list of its three side lengths. ">
<polygon fill="white" stroke="black" points="285.5,-114.5 285.5,-133.5 346.5,-133.5 346.5,-114.5 285.5,-114.5"/>
<text text-anchor="middle" x="316" y="-121.5" font-family="Helvetica,sans-Serif" font-size="10.00">triangle_ls</text>
</a>
</g>
</g>
<!-- Node8&#45;&gt;Node9 -->
<g id="edge10" class="edge"><title>Node8&#45;&gt;Node9</title>
<path fill="none" stroke="midnightblue" d="M253.264,-112.882C264.019,-114.819 275.287,-116.848 285.209,-118.635"/>
<polygon fill="midnightblue" stroke="midnightblue" points="253.633,-109.392 243.171,-111.064 252.392,-116.281 253.633,-109.392"/>
</g>
<!-- Node16 -->
<g id="node16" class="node"><title>Node16</title>
<g id="a_node16"><a xlink:href="group__shapes__2d.html#gac6b0e8a6784a03e427d8b14eee7d90ca" target="_top" xlink:title="A general triangle specified by two sides and the included angle. ">
<polygon fill="white" stroke="black" points="281.5,-76.5 281.5,-95.5 350.5,-95.5 350.5,-76.5 281.5,-76.5"/>
<text text-anchor="middle" x="316" y="-83.5" font-family="Helvetica,sans-Serif" font-size="10.00">triangle_sas</text>
</a>
</g>
</g>
<!-- Node8&#45;&gt;Node16 -->
<g id="edge17" class="edge"><title>Node8&#45;&gt;Node16</title>
<path fill="none" stroke="midnightblue" d="M253.151,-97.1386C262.546,-95.4466 272.339,-93.6831 281.287,-92.0715"/>
<polygon fill="midnightblue" stroke="midnightblue" points="252.392,-93.7189 243.171,-98.936 253.633,-100.608 252.392,-93.7189"/>
</g>
<!-- Node8&#45;&gt;Node18 -->
<g id="edge19" class="edge"><title>Node8&#45;&gt;Node18</title>
<path fill="none" stroke="midnightblue" d="M233.594,-120.708C236.907,-123.303 240.146,-126.1 243,-129 262.715,-149.036 257.968,-162.351 279,-181 283.019,-184.563 287.824,-187.686 292.595,-190.315"/>
<polygon fill="midnightblue" stroke="midnightblue" points="235.529,-117.788 225.386,-114.726 231.406,-123.445 235.529,-117.788"/>
</g>
<!-- Node8&#45;&gt;Node20 -->
<g id="edge21" class="edge"><title>Node8&#45;&gt;Node20</title>
<path fill="none" stroke="midnightblue" d="M223.114,-86.8373C236.15,-70.3093 257.034,-45.9714 279,-29 283.474,-25.5433 288.667,-22.3916 293.693,-19.6918"/>
<polygon fill="midnightblue" stroke="midnightblue" points="220.061,-85.0646 216.722,-95.1196 225.603,-89.3414 220.061,-85.0646"/>
</g>
<!-- Node22 -->
<g id="node22" class="node"><title>Node22</title>
<g id="a_node22"><a xlink:href="group__shapes__2de.html#ga4940596130c3cd1e62fea77569459a52" target="_top" xlink:title="An extruded general triangle specified by its three side lengths. ">
<polygon fill="white" stroke="black" points="279,-152.5 279,-171.5 353,-171.5 353,-152.5 279,-152.5"/>
<text text-anchor="middle" x="316" y="-159.5" font-family="Helvetica,sans-Serif" font-size="10.00">etriangle_sss</text>
</a>
</g>
</g>
<!-- Node8&#45;&gt;Node22 -->
<g id="edge23" class="edge"><title>Node8&#45;&gt;Node22</title>
<path fill="none" stroke="midnightblue" d="M235.757,-119.475C248.744,-126.604 264.67,-135.302 279,-143 284.727,-146.077 290.988,-149.396 296.658,-152.386"/>
<polygon fill="midnightblue" stroke="midnightblue" points="237.334,-116.348 226.884,-114.597 233.961,-122.482 237.334,-116.348"/>
</g>
<!-- Node23 -->
<g id="node23" class="node"><title>Node23</title>
<g id="a_node23"><a xlink:href="group__shapes__3d.html#ga66f0c4a748f33cc1fff3343655b17f45" target="_top" xlink:title="A cone. ">
<polygon fill="white" stroke="black" points="297,-38.5 297,-57.5 335,-57.5 335,-38.5 297,-38.5"/>
<text text-anchor="middle" x="316" y="-45.5" font-family="Helvetica,sans-Serif" font-size="10.00">cone</text>
</a>
</g>
</g>
<!-- Node8&#45;&gt;Node23 -->
<g id="edge24" class="edge"><title>Node8&#45;&gt;Node23</title>
<path fill="none" stroke="midnightblue" d="M235.757,-90.5251C248.744,-83.3957 264.67,-74.6984 279,-67 284.727,-63.923 290.988,-60.6037 296.658,-57.6137"/>
<polygon fill="midnightblue" stroke="midnightblue" points="233.961,-87.5181 226.884,-95.4026 237.334,-93.6524 233.961,-87.5181"/>
</g>
<!-- Node10 -->
<g id="node10" class="node"><title>Node10</title>
<g id="a_node10"><a xlink:href="group__shapes__2d.html#ga7eefb280ad124a8d35eb4218e5f0bdad" target="_top" xlink:title="A general triangle specified by its sides with a removed triangular core. ">
<polygon fill="white" stroke="black" points="390.5,-114.5 390.5,-133.5 461.5,-133.5 461.5,-114.5 390.5,-114.5"/>
<text text-anchor="middle" x="426" y="-121.5" font-family="Helvetica,sans-Serif" font-size="10.00">triangle_ls_c</text>
</a>
</g>
</g>
<!-- Node9&#45;&gt;Node10 -->
<g id="edge11" class="edge"><title>Node9&#45;&gt;Node10</title>
<path fill="none" stroke="midnightblue" d="M356.703,-124C367.672,-124 379.489,-124 390.159,-124"/>
<polygon fill="midnightblue" stroke="midnightblue" points="356.512,-120.5 346.511,-124 356.511,-127.5 356.512,-120.5"/>
</g>
<!-- Node13 -->
<g id="node13" class="node"><title>Node13</title>
<g id="a_node13"><a xlink:href="group__shapes__2d.html#ga7452bf5414a3677ec806a31aed6b61dd" target="_top" xlink:title="A two&#45;dimensional star. ">
<polygon fill="white" stroke="black" points="404,-76.5 404,-95.5 448,-95.5 448,-76.5 404,-76.5"/>
<text text-anchor="middle" x="426" y="-83.5" font-family="Helvetica,sans-Serif" font-size="10.00">star2d</text>
</a>
</g>
</g>
<!-- Node9&#45;&gt;Node13 -->
<g id="edge14" class="edge"><title>Node9&#45;&gt;Node13</title>
<path fill="none" stroke="midnightblue" d="M353.753,-111.068C370.467,-105.188 389.643,-98.4404 403.888,-93.4283"/>
<polygon fill="midnightblue" stroke="midnightblue" points="352.524,-107.79 344.253,-114.411 354.848,-114.393 352.524,-107.79"/>
</g>
<!-- Node15 -->
<g id="node15" class="node"><title>Node15</title>
<g id="a_node15"><a xlink:href="group__shapes__2de.html#gace35f9581cef6d5c20c3fd1d922284d1" target="_top" xlink:title="An extruded general triangle specified by a list of its three side lengths. ">
<polygon fill="white" stroke="black" points="393,-152.5 393,-171.5 459,-171.5 459,-152.5 393,-152.5"/>
<text text-anchor="middle" x="426" y="-159.5" font-family="Helvetica,sans-Serif" font-size="10.00">etriangle_ls</text>
</a>
</g>
</g>
<!-- Node9&#45;&gt;Node15 -->
<g id="edge16" class="edge"><title>Node9&#45;&gt;Node15</title>
<path fill="none" stroke="midnightblue" d="M353.867,-136.972C368.256,-142.034 384.455,-147.734 397.756,-152.414"/>
<polygon fill="midnightblue" stroke="midnightblue" points="354.848,-133.607 344.253,-133.589 352.524,-140.21 354.848,-133.607"/>
</g>
<!-- Node11 -->
<g id="node11" class="node"><title>Node11</title>
<g id="a_node11"><a xlink:href="group__shapes__2de.html#ga0c99582ccf3d5b1425c99001b228c202" target="_top" xlink:title="A general triangle specified by its sides with a removed triangular core. ">
<polygon fill="white" stroke="black" points="499,-152.5 499,-171.5 576,-171.5 576,-152.5 499,-152.5"/>
<text text-anchor="middle" x="537.5" y="-159.5" font-family="Helvetica,sans-Serif" font-size="10.00">etriangle_ls_c</text>
</a>
</g>
</g>
<!-- Node10&#45;&gt;Node11 -->
<g id="edge12" class="edge"><title>Node10&#45;&gt;Node11</title>
<path fill="none" stroke="midnightblue" d="M464.379,-136.972C478.968,-142.034 495.392,-147.734 508.877,-152.414"/>
<polygon fill="midnightblue" stroke="midnightblue" points="465.226,-133.561 454.631,-133.589 462.931,-140.174 465.226,-133.561"/>
</g>
<!-- Node12 -->
<g id="node12" class="node"><title>Node12</title>
<g id="a_node12"><a xlink:href="group__shapes__3d.html#gaa3137155089f4d50c13ebea05402edd0" target="_top" xlink:title="A triangular cross&#45;sectional profile revolved about the z&#45;axis. ">
<polygon fill="white" stroke="black" points="511.5,-114.5 511.5,-133.5 563.5,-133.5 563.5,-114.5 511.5,-114.5"/>
<text text-anchor="middle" x="537.5" y="-121.5" font-family="Helvetica,sans-Serif" font-size="10.00">torus_tp</text>
</a>
</g>
</g>
<!-- Node10&#45;&gt;Node12 -->
<g id="edge13" class="edge"><title>Node10&#45;&gt;Node12</title>
<path fill="none" stroke="midnightblue" d="M471.776,-124C485.312,-124 499.69,-124 511.447,-124"/>
<polygon fill="midnightblue" stroke="midnightblue" points="471.647,-120.5 461.646,-124 471.646,-127.5 471.647,-120.5"/>
</g>
<!-- Node14 -->
<g id="node14" class="node"><title>Node14</title>
<g id="a_node14"><a xlink:href="group__shapes__2de.html#ga69ece32102ccb27e9985975fa4590251" target="_top" xlink:title="An extruded two&#45;dimensional star. ">
<polygon fill="white" stroke="black" points="513,-76.5 513,-95.5 562,-95.5 562,-76.5 513,-76.5"/>
<text text-anchor="middle" x="537.5" y="-83.5" font-family="Helvetica,sans-Serif" font-size="10.00">estar2d</text>
</a>
</g>
</g>
<!-- Node13&#45;&gt;Node14 -->
<g id="edge15" class="edge"><title>Node13&#45;&gt;Node14</title>
<path fill="none" stroke="midnightblue" d="M458.324,-86C475.655,-86 496.846,-86 512.791,-86"/>
<polygon fill="midnightblue" stroke="midnightblue" points="458.113,-82.5001 448.113,-86 458.113,-89.5001 458.113,-82.5001"/>
</g>
<!-- Node17 -->
<g id="node17" class="node"><title>Node17</title>
<g id="a_node17"><a xlink:href="group__shapes__2de.html#gae4dc22fae0c22daa5d4844755cd268ac" target="_top" xlink:title="An extruded general triangle specified by two sides and the included angle. ">
<polygon fill="white" stroke="black" points="389,-38.5 389,-57.5 463,-57.5 463,-38.5 389,-38.5"/>
<text text-anchor="middle" x="426" y="-45.5" font-family="Helvetica,sans-Serif" font-size="10.00">etriangle_sas</text>
</a>
</g>
</g>
<!-- Node16&#45;&gt;Node17 -->
<g id="edge18" class="edge"><title>Node16&#45;&gt;Node17</title>
<path fill="none" stroke="midnightblue" d="M353.867,-73.0282C368.256,-67.9656 384.455,-62.2659 397.756,-57.5859"/>
<polygon fill="midnightblue" stroke="midnightblue" points="352.524,-69.7903 344.253,-76.411 354.848,-76.3935 352.524,-69.7903"/>
</g>
<!-- Node19 -->
<g id="node19" class="node"><title>Node19</title>
<g id="a_node19"><a xlink:href="group__shapes__2de.html#ga5b1240a97e34583d10011e5d0044ca28" target="_top" xlink:title="An extruded general triangle specified by a side and two adjacent angles. ">
<polygon fill="white" stroke="black" points="389,-190.5 389,-209.5 463,-209.5 463,-190.5 389,-190.5"/>
<text text-anchor="middle" x="426" y="-197.5" font-family="Helvetica,sans-Serif" font-size="10.00">etriangle_asa</text>
</a>
</g>
</g>
<!-- Node18&#45;&gt;Node19 -->
<g id="edge20" class="edge"><title>Node18&#45;&gt;Node19</title>
<path fill="none" stroke="midnightblue" d="M360.836,-200C370.131,-200 379.844,-200 388.817,-200"/>
<polygon fill="midnightblue" stroke="midnightblue" points="360.58,-196.5 350.58,-200 360.58,-203.5 360.58,-196.5"/>
</g>
<!-- Node21 -->
<g id="node21" class="node"><title>Node21</title>
<g id="a_node21"><a xlink:href="group__shapes__2de.html#ga8a3300cf4ca82dad9002965960a76a9c" target="_top" xlink:title="An extruded general triangle specified by a side, one adjacent angle and the opposite angle...">
<polygon fill="white" stroke="black" points="389,-0.5 389,-19.5 463,-19.5 463,-0.5 389,-0.5"/>
<text text-anchor="middle" x="426" y="-7.5" font-family="Helvetica,sans-Serif" font-size="10.00">etriangle_aas</text>
</a>
</g>
</g>
<!-- Node20&#45;&gt;Node21 -->
<g id="edge22" class="edge"><title>Node20&#45;&gt;Node21</title>
<path fill="none" stroke="midnightblue" d="M360.836,-10C370.131,-10 379.844,-10 388.817,-10"/>
<polygon fill="midnightblue" stroke="midnightblue" points="360.58,-6.5001 350.58,-10 360.58,-13.5001 360.58,-6.5001"/>
</g>
<!-- Node24&#45;&gt;Node4 -->
<g id="edge29" class="edge"><title>Node24&#45;&gt;Node4</title>
<path fill="none" stroke="midnightblue" d="M144.516,-257C154.461,-257 165.192,-257 174.929,-257"/>
<polygon fill="midnightblue" stroke="midnightblue" points="144.511,-253.5 134.511,-257 144.511,-260.5 144.511,-253.5"/>
</g>
<!-- Node24&#45;&gt;Node5 -->
<g id="edge30" class="edge"><title>Node24&#45;&gt;Node5</title>
<path fill="none" stroke="midnightblue" d="M143.058,-243.735C156.055,-238.747 170.568,-233.176 182.526,-228.586"/>
<polygon fill="midnightblue" stroke="midnightblue" points="141.564,-240.56 133.482,-247.411 144.072,-247.095 141.564,-240.56"/>
</g>
</g>
</svg>
