<?xml version="1.0" encoding="UTF-8" standalone="no"?>
<!DOCTYPE svg PUBLIC "-//W3C//DTD SVG 1.1//EN"
 "http://www.w3.org/Graphics/SVG/1.1/DTD/svg11.dtd">
<!-- Generated by graphviz version 2.38.0 (20140413.2041)
 -->
<!-- Title: triangle_ppp Pages: 1 -->
<svg width="222pt" height="218pt"
 viewBox="0.00 0.00 222.00 218.00" xmlns="http://www.w3.org/2000/svg" xmlns:xlink="http://www.w3.org/1999/xlink">
<g id="graph0" class="graph" transform="scale(1 1) rotate(0) translate(4 214)">
<title>triangle_ppp</title>
<polygon fill="white" stroke="none" points="-4,4 -4,-214 218,-214 218,4 -4,4"/>
<!-- Node1 -->
<g id="node1" class="node"><title>Node1</title>
<polygon fill="#bfbfbf" stroke="black" points="0,-95.5 0,-114.5 69,-114.5 69,-95.5 0,-95.5"/>
<text text-anchor="middle" x="34.5" y="-102.5" font-family="Helvetica,sans-Serif" font-size="10.00">triangle_ppp</text>
</g>
<!-- Node2 -->
<g id="node2" class="node"><title>Node2</title>
<g id="a_node2"><a xlink:href="group__datatypes__operate__scalar.html#gac119300e8c83de0037f2d0a4d9f0ab5c" target="_top" xlink:title="Return a value when it is defined or a default value when it is not. ">
<polygon fill="white" stroke="black" points="128.5,-190.5 128.5,-209.5 190.5,-209.5 190.5,-190.5 128.5,-190.5"/>
<text text-anchor="middle" x="159.5" y="-197.5" font-family="Helvetica,sans-Serif" font-size="10.00">defined_or</text>
</a>
</g>
</g>
<!-- Node1&#45;&gt;Node2 -->
<g id="edge1" class="edge"><title>Node1&#45;&gt;Node2</title>
<path fill="none" stroke="midnightblue" d="M41.8527,-114.56C52.8959,-130.485 77.1368,-162.519 105,-181 109.305,-183.855 114.089,-186.338 118.976,-188.48"/>
<polygon fill="midnightblue" stroke="midnightblue" points="117.815,-191.784 128.402,-192.19 120.379,-185.271 117.815,-191.784"/>
</g>
<!-- Node3 -->
<g id="node3" class="node"><title>Node3</title>
<g id="a_node3"><a xlink:href="group__math__triangle.html#ga6eb5bfb1ae077d0db22e41c142233be0" target="_top" xlink:title="Compute the coordinate for the triangle&#39;s incircle. ">
<polygon fill="white" stroke="black" points="105,-152.5 105,-171.5 214,-171.5 214,-152.5 105,-152.5"/>
<text text-anchor="middle" x="159.5" y="-159.5" font-family="Helvetica,sans-Serif" font-size="10.00">triangle_incenter_ppp</text>
</a>
</g>
</g>
<!-- Node1&#45;&gt;Node3 -->
<g id="edge2" class="edge"><title>Node1&#45;&gt;Node3</title>
<path fill="none" stroke="midnightblue" d="M51.419,-114.653C65.2719,-122.821 86.0463,-134.518 105,-143 109.66,-145.086 114.624,-147.105 119.579,-149"/>
<polygon fill="midnightblue" stroke="midnightblue" points="118.42,-152.302 129.014,-152.474 120.839,-145.734 118.42,-152.302"/>
</g>
<!-- Node4 -->
<g id="node4" class="node"><title>Node4</title>
<g id="a_node4"><a xlink:href="group__math__triangle.html#ga7c94003074f622d6421a665207cafbd7" target="_top" xlink:title="Compute the centroid (geometric center) of a triangle. ">
<polygon fill="white" stroke="black" points="105,-114.5 105,-133.5 214,-133.5 214,-114.5 105,-114.5"/>
<text text-anchor="middle" x="159.5" y="-121.5" font-family="Helvetica,sans-Serif" font-size="10.00">triangle_centroid_ppp</text>
</a>
</g>
</g>
<!-- Node1&#45;&gt;Node4 -->
<g id="edge3" class="edge"><title>Node1&#45;&gt;Node4</title>
<path fill="none" stroke="midnightblue" d="M69.1103,-110.192C77.069,-111.421 85.8182,-112.773 94.6324,-114.134"/>
<polygon fill="midnightblue" stroke="midnightblue" points="94.1556,-117.602 104.573,-115.67 95.2243,-110.684 94.1556,-117.602"/>
</g>
<!-- Node5 -->
<g id="node5" class="node"><title>Node5</title>
<g id="a_node5"><a xlink:href="group__datatypes__identify__iterable.html#ga6dc7861bf5a7777bfb33876493107d75" target="_top" xlink:title="Test if any element of a list of values is undefined. ">
<polygon fill="white" stroke="black" points="119.5,-76.5 119.5,-95.5 199.5,-95.5 199.5,-76.5 119.5,-76.5"/>
<text text-anchor="middle" x="159.5" y="-83.5" font-family="Helvetica,sans-Serif" font-size="10.00">any_undefined</text>
</a>
</g>
</g>
<!-- Node1&#45;&gt;Node5 -->
<g id="edge4" class="edge"><title>Node1&#45;&gt;Node5</title>
<path fill="none" stroke="midnightblue" d="M69.1103,-99.8082C81.4667,-97.8994 95.7288,-95.6964 109.181,-93.6184"/>
<polygon fill="midnightblue" stroke="midnightblue" points="109.917,-97.0464 119.265,-92.0607 108.848,-90.1284 109.917,-97.0464"/>
</g>
<!-- Node6 -->
<g id="node6" class="node"><title>Node6</title>
<g id="a_node6"><a xlink:href="group__math__vector__algebra.html#ga3a0c4c75047b8003ab09286a77a58c86" target="_top" xlink:title="Compute the angle between two lines (or vectors) in a Euclidean 3d or 2d&#45;space. ">
<polygon fill="white" stroke="black" points="134.5,-38.5 134.5,-57.5 184.5,-57.5 184.5,-38.5 134.5,-38.5"/>
<text text-anchor="middle" x="159.5" y="-45.5" font-family="Helvetica,sans-Serif" font-size="10.00">angle_ll</text>
</a>
</g>
</g>
<!-- Node1&#45;&gt;Node6 -->
<g id="edge5" class="edge"><title>Node1&#45;&gt;Node6</title>
<path fill="none" stroke="midnightblue" d="M51.419,-95.3469C65.2719,-87.179 86.0463,-75.4824 105,-67 111.347,-64.1596 118.259,-61.4418 124.942,-58.9947"/>
<polygon fill="midnightblue" stroke="midnightblue" points="126.218,-62.2559 134.477,-55.6204 123.883,-55.6568 126.218,-62.2559"/>
</g>
<!-- Node7 -->
<g id="node7" class="node"><title>Node7</title>
<g id="a_node7"><a xlink:href="group__math__vector__algebra.html#gaa71caf02a1433e6c84d61d13d12aa581" target="_top" xlink:title="Compute the normalized unit vector of a Euclidean line (or vector). ">
<polygon fill="white" stroke="black" points="139.5,-0.5 139.5,-19.5 179.5,-19.5 179.5,-0.5 139.5,-0.5"/>
<text text-anchor="middle" x="159.5" y="-7.5" font-family="Helvetica,sans-Serif" font-size="10.00">unit_l</text>
</a>
</g>
</g>
<!-- Node1&#45;&gt;Node7 -->
<g id="edge6" class="edge"><title>Node1&#45;&gt;Node7</title>
<path fill="none" stroke="midnightblue" d="M41.8527,-95.4404C52.8959,-79.5147 77.1368,-47.4807 105,-29 112.416,-24.081 121.256,-20.2683 129.593,-17.3935"/>
<polygon fill="midnightblue" stroke="midnightblue" points="130.878,-20.659 139.383,-14.3406 128.795,-13.9764 130.878,-20.659"/>
</g>
</g>
</svg>
