<?xml version="1.0" encoding="UTF-8" standalone="no"?>
<!DOCTYPE svg PUBLIC "-//W3C//DTD SVG 1.1//EN"
 "http://www.w3.org/Graphics/SVG/1.1/DTD/svg11.dtd">
<!-- Generated by graphviz version 2.38.0 (20140413.2041)
 -->
<!-- Title: align_ll Pages: 1 -->
<svg width="186pt" height="294pt"
 viewBox="0.00 0.00 186.00 294.00" xmlns="http://www.w3.org/2000/svg" xmlns:xlink="http://www.w3.org/1999/xlink">
<g id="graph0" class="graph" transform="scale(1 1) rotate(0) translate(4 290)">
<title>align_ll</title>
<polygon fill="white" stroke="none" points="-4,4 -4,-290 182,-290 182,4 -4,4"/>
<!-- Node1 -->
<g id="node1" class="node"><title>Node1</title>
<polygon fill="#bfbfbf" stroke="black" points="0,-133.5 0,-152.5 47,-152.5 47,-133.5 0,-133.5"/>
<text text-anchor="middle" x="23.5" y="-140.5" font-family="Helvetica,sans-Serif" font-size="10.00">align_ll</text>
</g>
<!-- Node2 -->
<g id="node2" class="node"><title>Node2</title>
<g id="a_node2"><a xlink:href="group__math__vector__algebra.html#gae2ec73dee799d38b3aa67e2119809eec" target="_top" xlink:title="Return 3d vector unchanged or add a zeroed third dimension to 2d vector. ">
<polygon fill="white" stroke="black" points="83,-266.5 83,-285.5 178,-285.5 178,-266.5 83,-266.5"/>
<text text-anchor="middle" x="130.5" y="-273.5" font-family="Helvetica,sans-Serif" font-size="10.00">dimension_2to3_v</text>
</a>
</g>
</g>
<!-- Node1&#45;&gt;Node2 -->
<g id="edge1" class="edge"><title>Node1&#45;&gt;Node2</title>
<path fill="none" stroke="midnightblue" d="M26.9666,-152.661C32.9504,-174.262 50.2136,-226.925 83,-257 84.6709,-258.533 86.4821,-259.95 88.3877,-261.26"/>
<polygon fill="midnightblue" stroke="midnightblue" points="86.7934,-264.38 97.2063,-266.335 90.2853,-258.314 86.7934,-264.38"/>
</g>
<!-- Node3 -->
<g id="node3" class="node"><title>Node3</title>
<g id="a_node3"><a xlink:href="group__math__vector__algebra.html#gaa7dab850a778cc2b63d7f7c7f3dfbda4" target="_top" xlink:title="Return the initial point of a Euclidean line (or vector). ">
<polygon fill="white" stroke="black" points="99,-228.5 99,-247.5 162,-247.5 162,-228.5 99,-228.5"/>
<text text-anchor="middle" x="130.5" y="-235.5" font-family="Helvetica,sans-Serif" font-size="10.00">get_line_ip</text>
</a>
</g>
</g>
<!-- Node1&#45;&gt;Node3 -->
<g id="edge2" class="edge"><title>Node1&#45;&gt;Node3</title>
<path fill="none" stroke="midnightblue" d="M29.7053,-152.728C38.6489,-168.612 58.3703,-200.224 83,-219 85.2757,-220.735 87.7319,-222.337 90.2851,-223.812"/>
<polygon fill="midnightblue" stroke="midnightblue" points="88.716,-226.941 99.2173,-228.346 91.8843,-220.699 88.716,-226.941"/>
</g>
<!-- Node4 -->
<g id="node4" class="node"><title>Node4</title>
<g id="a_node4"><a xlink:href="group__math__vector__algebra.html#ga8f90927df73a5a220df401f550335c4a" target="_top" xlink:title="Return the terminal point of a Euclidean line (or vector). ">
<polygon fill="white" stroke="black" points="98.5,-190.5 98.5,-209.5 162.5,-209.5 162.5,-190.5 98.5,-190.5"/>
<text text-anchor="middle" x="130.5" y="-197.5" font-family="Helvetica,sans-Serif" font-size="10.00">get_line_tp</text>
</a>
</g>
</g>
<!-- Node1&#45;&gt;Node4 -->
<g id="edge3" class="edge"><title>Node1&#45;&gt;Node4</title>
<path fill="none" stroke="midnightblue" d="M38.004,-152.819C49.5855,-160.98 66.9033,-172.579 83,-181 86.5497,-182.857 90.3228,-184.659 94.1248,-186.367"/>
<polygon fill="midnightblue" stroke="midnightblue" points="92.9539,-189.673 103.524,-190.393 95.7102,-183.238 92.9539,-189.673"/>
</g>
<!-- Node5 -->
<g id="node5" class="node"><title>Node5</title>
<g id="a_node5"><a xlink:href="group__datatypes__operate__list.html#ga1088f9b09ff8ed12e2c844758f39c039" target="_top" xlink:title="Compute the mean/average of a list of numbers. ">
<polygon fill="white" stroke="black" points="110,-152.5 110,-171.5 151,-171.5 151,-152.5 110,-152.5"/>
<text text-anchor="middle" x="130.5" y="-159.5" font-family="Helvetica,sans-Serif" font-size="10.00">mean</text>
</a>
</g>
</g>
<!-- Node1&#45;&gt;Node5 -->
<g id="edge4" class="edge"><title>Node1&#45;&gt;Node5</title>
<path fill="none" stroke="midnightblue" d="M47.0251,-147.076C62.4947,-149.875 83.1859,-153.619 99.9733,-156.657"/>
<polygon fill="midnightblue" stroke="midnightblue" points="99.3764,-160.106 109.84,-158.442 100.623,-153.218 99.3764,-160.106"/>
</g>
<!-- Node6 -->
<g id="node6" class="node"><title>Node6</title>
<g id="a_node6"><a xlink:href="group__datatypes__operate__list.html#ga1c935914b3cbd915b1d46d9a58ed4f31" target="_top" xlink:title="Case&#45;like select a value from a list of ordered value options. ">
<polygon fill="white" stroke="black" points="105.5,-114.5 105.5,-133.5 155.5,-133.5 155.5,-114.5 105.5,-114.5"/>
<text text-anchor="middle" x="130.5" y="-121.5" font-family="Helvetica,sans-Serif" font-size="10.00">ciselect</text>
</a>
</g>
</g>
<!-- Node1&#45;&gt;Node6 -->
<g id="edge5" class="edge"><title>Node1&#45;&gt;Node6</title>
<path fill="none" stroke="midnightblue" d="M47.0251,-138.924C61.0635,-136.384 79.4021,-133.065 95.2211,-130.203"/>
<polygon fill="midnightblue" stroke="midnightblue" points="95.9651,-133.625 105.182,-128.4 94.7186,-126.737 95.9651,-133.625"/>
</g>
<!-- Node7 -->
<g id="node7" class="node"><title>Node7</title>
<g id="a_node7"><a xlink:href="group__math__vector__algebra.html#gaf05cb2c5d4cb98e331ecf79fd85e0dc6" target="_top" xlink:title="Shift a Euclidean line (or vector) to the origin. ">
<polygon fill="white" stroke="black" points="91,-76.5 91,-95.5 170,-95.5 170,-76.5 91,-76.5"/>
<text text-anchor="middle" x="130.5" y="-83.5" font-family="Helvetica,sans-Serif" font-size="10.00">get_line2origin</text>
</a>
</g>
</g>
<!-- Node1&#45;&gt;Node7 -->
<g id="edge6" class="edge"><title>Node1&#45;&gt;Node7</title>
<path fill="none" stroke="midnightblue" d="M38.004,-133.181C49.5855,-125.02 66.9033,-113.421 83,-105 86.5497,-103.143 90.3228,-101.341 94.1248,-99.6331"/>
<polygon fill="midnightblue" stroke="midnightblue" points="95.7102,-102.762 103.524,-95.6069 92.9539,-96.3271 95.7102,-102.762"/>
</g>
<!-- Node8 -->
<g id="node8" class="node"><title>Node8</title>
<g id="a_node8"><a xlink:href="group__math__vector__algebra.html#ga3a0c4c75047b8003ab09286a77a58c86" target="_top" xlink:title="Compute the angle between two lines (or vectors) in a Euclidean 3d or 2d&#45;space. ">
<polygon fill="white" stroke="black" points="105.5,-38.5 105.5,-57.5 155.5,-57.5 155.5,-38.5 105.5,-38.5"/>
<text text-anchor="middle" x="130.5" y="-45.5" font-family="Helvetica,sans-Serif" font-size="10.00">angle_ll</text>
</a>
</g>
</g>
<!-- Node1&#45;&gt;Node8 -->
<g id="edge7" class="edge"><title>Node1&#45;&gt;Node8</title>
<path fill="none" stroke="midnightblue" d="M29.7053,-133.272C38.6489,-117.388 58.3703,-85.7758 83,-67 86.8708,-64.0492 91.2641,-61.4819 95.7679,-59.2712"/>
<polygon fill="midnightblue" stroke="midnightblue" points="97.2714,-62.4339 105.036,-55.2256 94.4711,-56.0185 97.2714,-62.4339"/>
</g>
<!-- Node9 -->
<g id="node9" class="node"><title>Node9</title>
<g id="a_node9"><a xlink:href="group__math__vector__algebra.html#ga882329ee346d5a7f9d0877afd115c3de" target="_top" xlink:title="Compute the cross product of two lines (or vectors) in a Euclidean 3d or 2d&#45;space. ">
<polygon fill="white" stroke="black" points="105.5,-0.5 105.5,-19.5 155.5,-19.5 155.5,-0.5 105.5,-0.5"/>
<text text-anchor="middle" x="130.5" y="-7.5" font-family="Helvetica,sans-Serif" font-size="10.00">cross_ll</text>
</a>
</g>
</g>
<!-- Node1&#45;&gt;Node9 -->
<g id="edge8" class="edge"><title>Node1&#45;&gt;Node9</title>
<path fill="none" stroke="midnightblue" d="M26.9666,-133.339C32.9504,-111.738 50.2136,-59.0748 83,-29 86.8379,-25.4795 91.4156,-22.5676 96.1792,-20.1719"/>
<polygon fill="midnightblue" stroke="midnightblue" points="97.6322,-23.3569 105.423,-16.1768 94.8551,-16.9313 97.6322,-23.3569"/>
</g>
</g>
</svg>
