<?xml version="1.0" encoding="UTF-8" standalone="no"?>
<!DOCTYPE svg PUBLIC "-//W3C//DTD SVG 1.1//EN"
 "http://www.w3.org/Graphics/SVG/1.1/DTD/svg11.dtd">
<!-- Generated by graphviz version 2.38.0 (20140413.2041)
 -->
<!-- Title: ngon Pages: 1 -->
<svg width="149pt" height="66pt"
 viewBox="0.00 0.00 149.00 66.00" xmlns="http://www.w3.org/2000/svg" xmlns:xlink="http://www.w3.org/1999/xlink">
<g id="graph0" class="graph" transform="scale(1 1) rotate(0) translate(4 62)">
<title>ngon</title>
<polygon fill="white" stroke="none" points="-4,4 -4,-62 145,-62 145,4 -4,4"/>
<!-- Node1 -->
<g id="node1" class="node"><title>Node1</title>
<polygon fill="#bfbfbf" stroke="black" points="0,-19.5 0,-38.5 38,-38.5 38,-19.5 0,-19.5"/>
<text text-anchor="middle" x="19" y="-26.5" font-family="Helvetica,sans-Serif" font-size="10.00">ngon</text>
</g>
<!-- Node2 -->
<g id="node2" class="node"><title>Node2</title>
<g id="a_node2"><a xlink:href="group__datatypes__identify__scalar.html#ga62dbd35f498bfc2a090812b1cf8a37c4" target="_top" xlink:title="Test if a value is not defined. ">
<polygon fill="white" stroke="black" points="74,-38.5 74,-57.5 141,-57.5 141,-38.5 74,-38.5"/>
<text text-anchor="middle" x="107.5" y="-45.5" font-family="Helvetica,sans-Serif" font-size="10.00">not_defined</text>
</a>
</g>
</g>
<!-- Node1&#45;&gt;Node2 -->
<g id="edge1" class="edge"><title>Node1&#45;&gt;Node2</title>
<path fill="none" stroke="midnightblue" d="M38.3444,-33.0294C45.8391,-34.6756 54.8473,-36.6543 63.8227,-38.6258"/>
<polygon fill="midnightblue" stroke="midnightblue" points="63.3416,-42.1035 73.8597,-40.8305 64.8435,-35.2665 63.3416,-42.1035"/>
</g>
<!-- Node3 -->
<g id="node3" class="node"><title>Node3</title>
<g id="a_node3"><a xlink:href="group__math__oshapes.html#ga0e1975ceeaf1701764e7041470e3db71" target="_top" xlink:title="Compute the coordinates for an n&#45;sided regular polygon. ">
<polygon fill="white" stroke="black" points="74.5,-0.5 74.5,-19.5 140.5,-19.5 140.5,-0.5 74.5,-0.5"/>
<text text-anchor="middle" x="107.5" y="-7.5" font-family="Helvetica,sans-Serif" font-size="10.00">rpolygon_lp</text>
</a>
</g>
</g>
<!-- Node1&#45;&gt;Node3 -->
<g id="edge2" class="edge"><title>Node1&#45;&gt;Node3</title>
<path fill="none" stroke="midnightblue" d="M38.3444,-24.9706C45.9925,-23.2907 55.2168,-21.2645 64.3738,-19.2532"/>
<polygon fill="midnightblue" stroke="midnightblue" points="65.1898,-22.6574 74.206,-17.0935 63.688,-15.8204 65.1898,-22.6574"/>
</g>
</g>
</svg>
