<?xml version="1.0" encoding="UTF-8" standalone="no"?>
<!DOCTYPE svg PUBLIC "-//W3C//DTD SVG 1.1//EN"
 "http://www.w3.org/Graphics/SVG/1.1/DTD/svg11.dtd">
<!-- Generated by graphviz version 2.38.0 (20140413.2041)
 -->
<!-- Title: Iterables Pages: 1 -->
<svg width="261pt" height="315pt"
 viewBox="0.00 0.00 261.00 315.28" xmlns="http://www.w3.org/2000/svg" xmlns:xlink="http://www.w3.org/1999/xlink">
<g id="graph0" class="graph" transform="scale(1 1) rotate(0) translate(4 311.28)">
<title>Iterables</title>
<polygon fill="white" stroke="none" points="-4,4 -4,-311.28 257,-311.28 257,4 -4,4"/>
<!-- Node5 -->
<g id="node1" class="node"><title>Node5</title>
<g id="a_node1"><a xlink:href="group__datatypes__operate.html" target="_top" xlink:title="Data type operation. ">
<polygon fill="white" stroke="black" points="185,-282.78 185,-301.78 249,-301.78 249,-282.78 185,-282.78"/>
<text text-anchor="middle" x="217" y="-289.78" font-family="Helvetica,sans-Serif" font-size="10.00">Operations</text>
</a>
</g>
</g>
<!-- Node3 -->
<g id="node2" class="node"><title>Node3</title>
<g id="a_node2"><a xlink:href="group__datatypes__identify__scalar.html" target="_top" xlink:title="Scalar data type identification. ">
<polygon fill="white" stroke="black" points="192,-244.78 192,-263.78 242,-263.78 242,-244.78 192,-244.78"/>
<text text-anchor="middle" x="217" y="-251.78" font-family="Helvetica,sans-Serif" font-size="10.00">Scalars</text>
</a>
</g>
</g>
<!-- Node2 -->
<g id="node3" class="node"><title>Node2</title>
<g id="a_node3"><a xlink:href="group__datatypes.html" target="_top" xlink:title="Data type definitions and operators. ">
<polygon fill="white" stroke="black" points="186,-206.78 186,-225.78 248,-225.78 248,-206.78 186,-206.78"/>
<text text-anchor="middle" x="217" y="-213.78" font-family="Helvetica,sans-Serif" font-size="10.00">Datatypes</text>
</a>
</g>
</g>
<!-- Node8 -->
<g id="node4" class="node"><title>Node8</title>
<g id="a_node4"><a xlink:href="group__datatypes__operate__list.html" target="_top" xlink:title="List data type operations. ">
<polygon fill="white" stroke="black" points="198,-168.78 198,-187.78 236,-187.78 236,-168.78 198,-168.78"/>
<text text-anchor="middle" x="217" y="-175.78" font-family="Helvetica,sans-Serif" font-size="10.00">Lists</text>
</a>
</g>
</g>
<!-- Node7 -->
<g id="node5" class="node"><title>Node7</title>
<g id="a_node5"><a xlink:href="group__datatypes__operate__iterable.html" target="_top" xlink:title="Iterable data type operations. ">
<polygon fill="white" stroke="black" points="190,-130.78 190,-149.78 244,-149.78 244,-130.78 190,-130.78"/>
<text text-anchor="middle" x="217" y="-137.78" font-family="Helvetica,sans-Serif" font-size="10.00">Iterables</text>
</a>
</g>
</g>
<!-- Node4 -->
<g id="node6" class="node"><title>Node4</title>
<g id="a_node6"><a xlink:href="group__datatypes__identify__list.html" target="_top" xlink:title="List data type identification. ">
<polygon fill="white" stroke="black" points="198,-92.7796 198,-111.78 236,-111.78 236,-92.7796 198,-92.7796"/>
<text text-anchor="middle" x="217" y="-99.7796" font-family="Helvetica,sans-Serif" font-size="10.00">Lists</text>
</a>
</g>
</g>
<!-- Node0 -->
<g id="node7" class="node"><title>Node0</title>
<polygon fill="#bfbfbf" stroke="black" points="0,-130.78 0,-149.78 54,-149.78 54,-130.78 0,-130.78"/>
<text text-anchor="middle" x="27" y="-137.78" font-family="Helvetica,sans-Serif" font-size="10.00">Iterables</text>
</g>
<!-- Node0&#45;&gt;Node5 -->
<g id="edge6" class="edge"><title>Node0&#45;&gt;Node5</title>
<path fill="none" stroke="darkgreen" stroke-dasharray="5,2" d="M28.1265,-149.877C29.0053,-174.104 34.9059,-238.021 72,-269.28 103.459,-295.79 153.002,-297.912 184.994,-295.926"/>
<text text-anchor="middle" x="117.5" y="-299.28" font-family="Helvetica,sans-Serif" font-size="10.00">datatypes&#45;base.scad</text>
</g>
<!-- Node0&#45;&gt;Node3 -->
<g id="edge4" class="edge"><title>Node0&#45;&gt;Node3</title>
<path fill="none" stroke="darkgreen" stroke-dasharray="5,2" d="M29.9361,-149.93C34.1332,-168.178 45.8752,-207.667 72,-227.28 107.293,-253.774 160.89,-256.758 191.77,-255.929"/>
<text text-anchor="middle" x="117.5" y="-257.28" font-family="Helvetica,sans-Serif" font-size="10.00">datatypes&#45;base.scad</text>
</g>
<!-- Node0&#45;&gt;Node2 -->
<g id="edge2" class="edge"><title>Node0&#45;&gt;Node2</title>
<path fill="none" stroke="darkgreen" stroke-dasharray="5,2" d="M34.5428,-150.038C42.2199,-160.68 55.9582,-177.38 72,-186.28 107.84,-206.163 155.342,-212.907 185.796,-215.171"/>
<text text-anchor="middle" x="117.5" y="-215.28" font-family="Helvetica,sans-Serif" font-size="10.00">datatypes&#45;base.scad</text>
</g>
<!-- Node0&#45;&gt;Node8 -->
<g id="edge9" class="edge"><title>Node0&#45;&gt;Node8</title>
<path fill="none" stroke="darkgreen" stroke-dasharray="5,2" d="M53.8399,-149.905C59.751,-151.878 66.0473,-153.801 72,-155.28 116.472,-166.326 170.042,-173.25 197.614,-176.358"/>
<text text-anchor="middle" x="117.5" y="-174.28" font-family="Helvetica,sans-Serif" font-size="10.00">datatypes&#45;base.scad</text>
</g>
<!-- Node0&#45;&gt;Node7 -->
<g id="edge8" class="edge"><title>Node0&#45;&gt;Node7</title>
<path fill="none" stroke="darkgreen" stroke-dasharray="5,2" d="M54.1406,-140.28C89.9576,-140.28 153.92,-140.28 189.779,-140.28"/>
<text text-anchor="middle" x="117.5" y="-143.28" font-family="Helvetica,sans-Serif" font-size="10.00">datatypes&#45;base.scad</text>
</g>
<!-- Node0&#45;&gt;Node4 -->
<g id="edge5" class="edge"><title>Node0&#45;&gt;Node4</title>
<path fill="none" stroke="darkgreen" stroke-dasharray="5,2" d="M53.8399,-130.654C59.751,-128.681 66.0473,-126.758 72,-125.28 116.472,-114.233 170.042,-107.309 197.614,-104.201"/>
<text text-anchor="middle" x="117.5" y="-128.28" font-family="Helvetica,sans-Serif" font-size="10.00">datatypes&#45;base.scad</text>
</g>
<!-- Node6 -->
<g id="node8" class="node"><title>Node6</title>
<g id="a_node8"><a xlink:href="group__datatypes__operate__scalar.html" target="_top" xlink:title="Scalar data type operations. ">
<polygon fill="white" stroke="black" points="192,-54.7796 192,-73.7796 242,-73.7796 242,-54.7796 192,-54.7796"/>
<text text-anchor="middle" x="217" y="-61.7796" font-family="Helvetica,sans-Serif" font-size="10.00">Scalars</text>
</a>
</g>
</g>
<!-- Node0&#45;&gt;Node6 -->
<g id="edge7" class="edge"><title>Node0&#45;&gt;Node6</title>
<path fill="none" stroke="darkgreen" stroke-dasharray="5,2" d="M34.2089,-130.678C41.7746,-119.807 55.5983,-102.423 72,-93.2796 110.201,-71.9844 161.845,-66.2064 191.776,-64.7121"/>
<text text-anchor="middle" x="117.5" y="-96.2796" font-family="Helvetica,sans-Serif" font-size="10.00">datatypes&#45;base.scad</text>
</g>
<!-- Node1 -->
<g id="node9" class="node"><title>Node1</title>
<g id="a_node9"><a xlink:href="group__datatypes__identify.html" target="_top" xlink:title="Compile&#45;time data type identification and tests. ">
<polygon fill="white" stroke="black" points="181,-5.77956 181,-24.7796 253,-24.7796 253,-5.77956 181,-5.77956"/>
<text text-anchor="middle" x="217" y="-12.7796" font-family="Helvetica,sans-Serif" font-size="10.00">Identification</text>
</a>
</g>
</g>
<!-- Node0&#45;&gt;Node1 -->
<g id="edge3" class="edge"><title>Node0&#45;&gt;Node1</title>
<path fill="none" stroke="darkgreen" stroke-dasharray="5,2" d="M29.9766,-130.555C34.2427,-112.139 46.0977,-72.1537 72,-51.2796 103.101,-26.2163 149.33,-18.3057 180.966,-15.965"/>
<text text-anchor="middle" x="117.5" y="-54.2796" font-family="Helvetica,sans-Serif" font-size="10.00">datatypes&#45;base.scad</text>
</g>
<!-- Node1&#45;&gt;Node0 -->
<g id="edge1" class="edge"><title>Node1&#45;&gt;Node0</title>
<path fill="none" stroke="black" d="M172.624,-3.77597C141.743,1.73421 100.783,3.2936 72,-17.2796 34.3606,-44.1832 28.7686,-106.315 28.0498,-130.447"/>
<polygon fill="black" stroke="black" points="172.189,-7.25768 182.678,-5.76984 173.55,-0.391391 172.189,-7.25768"/>
</g>
</g>
</svg>
