<?xml version="1.0" encoding="UTF-8" standalone="no"?>
<!DOCTYPE svg PUBLIC "-//W3C//DTD SVG 1.1//EN"
 "http://www.w3.org/Graphics/SVG/1.1/DTD/svg11.dtd">
<!-- Generated by graphviz version 2.38.0 (20140413.2041)
 -->
<!-- Title: resolution_info Pages: 1 -->
<svg width="222pt" height="104pt"
 viewBox="0.00 0.00 222.00 104.00" xmlns="http://www.w3.org/2000/svg" xmlns:xlink="http://www.w3.org/1999/xlink">
<g id="graph0" class="graph" transform="scale(1 1) rotate(0) translate(4 100)">
<title>resolution_info</title>
<polygon fill="white" stroke="none" points="-4,4 -4,-100 218,-100 218,4 -4,4"/>
<!-- Node1 -->
<g id="node1" class="node"><title>Node1</title>
<polygon fill="#bfbfbf" stroke="black" points="0,-38.5 0,-57.5 80,-57.5 80,-38.5 0,-38.5"/>
<text text-anchor="middle" x="40" y="-45.5" font-family="Helvetica,sans-Serif" font-size="10.00">resolution_info</text>
</g>
<!-- Node2 -->
<g id="node2" class="node"><title>Node2</title>
<g id="a_node2"><a xlink:href="group__utilities__console.html#ga2565219688decee9515f527f4553044a" target="_top" xlink:title="Output message to console. ">
<polygon fill="white" stroke="black" points="137,-76.5 137,-95.5 193,-95.5 193,-76.5 137,-76.5"/>
<text text-anchor="middle" x="165" y="-83.5" font-family="Helvetica,sans-Serif" font-size="10.00">log_echo</text>
</a>
</g>
</g>
<!-- Node1&#45;&gt;Node2 -->
<g id="edge1" class="edge"><title>Node1&#45;&gt;Node2</title>
<path fill="none" stroke="midnightblue" d="M72.0381,-57.589C88.6957,-62.7353 109.342,-69.1139 126.849,-74.5225"/>
<polygon fill="midnightblue" stroke="midnightblue" points="126.153,-77.9706 136.74,-77.5784 128.219,-71.2825 126.153,-77.9706"/>
</g>
<!-- Node3 -->
<g id="node3" class="node"><title>Node3</title>
<g id="a_node3"><a xlink:href="group__units__length.html#ga257cc6bfb6bfd85ef929d0daacc65f7c" target="_top" xlink:title="Return the name for a length unit identifier with dimension. ">
<polygon fill="white" stroke="black" points="118.5,-38.5 118.5,-57.5 211.5,-57.5 211.5,-38.5 118.5,-38.5"/>
<text text-anchor="middle" x="165" y="-45.5" font-family="Helvetica,sans-Serif" font-size="10.00">unit_length_name</text>
</a>
</g>
</g>
<!-- Node1&#45;&gt;Node3 -->
<g id="edge2" class="edge"><title>Node1&#45;&gt;Node3</title>
<path fill="none" stroke="midnightblue" d="M80.2561,-48C89.1367,-48 98.7324,-48 108.15,-48"/>
<polygon fill="midnightblue" stroke="midnightblue" points="108.257,-51.5001 118.257,-48 108.257,-44.5001 108.257,-51.5001"/>
</g>
<!-- Node4 -->
<g id="node4" class="node"><title>Node4</title>
<g id="a_node4"><a xlink:href="group__units__resolution.html#ga7a3c200f3ff52c3594328ed9447d4969" target="_top" xlink:title="Return the radius at which arc resolution will begin to degrade. ">
<polygon fill="white" stroke="black" points="116,-0.5 116,-19.5 214,-19.5 214,-0.5 116,-0.5"/>
<text text-anchor="middle" x="165" y="-7.5" font-family="Helvetica,sans-Serif" font-size="10.00">resolution_reduced</text>
</a>
</g>
</g>
<!-- Node1&#45;&gt;Node4 -->
<g id="edge3" class="edge"><title>Node1&#45;&gt;Node4</title>
<path fill="none" stroke="midnightblue" d="M72.0381,-38.411C87.4792,-33.6406 106.348,-27.8112 122.966,-22.6771"/>
<polygon fill="midnightblue" stroke="midnightblue" points="124.451,-25.8818 132.972,-19.5859 122.384,-19.1937 124.451,-25.8818"/>
</g>
</g>
</svg>
