<?xml version="1.0" encoding="UTF-8" standalone="no"?>
<!DOCTYPE svg PUBLIC "-//W3C//DTD SVG 1.1//EN"
 "http://www.w3.org/Graphics/SVG/1.1/DTD/svg11.dtd">
<!-- Generated by graphviz version 2.38.0 (20140413.2041)
 -->
<!-- Title: linear_extrude_uls Pages: 1 -->
<svg width="216pt" height="712pt"
 viewBox="0.00 0.00 216.00 712.00" xmlns="http://www.w3.org/2000/svg" xmlns:xlink="http://www.w3.org/1999/xlink">
<g id="graph0" class="graph" transform="scale(1 1) rotate(0) translate(4 708)">
<title>linear_extrude_uls</title>
<polygon fill="white" stroke="none" points="-4,4 -4,-708 212,-708 212,4 -4,4"/>
<!-- Node1 -->
<g id="node1" class="node"><title>Node1</title>
<polygon fill="#bfbfbf" stroke="black" points="0,-342.5 0,-361.5 95,-361.5 95,-342.5 0,-342.5"/>
<text text-anchor="middle" x="47.5" y="-349.5" font-family="Helvetica,sans-Serif" font-size="10.00">linear_extrude_uls</text>
</g>
<!-- Node2 -->
<g id="node2" class="node"><title>Node2</title>
<g id="a_node2"><a xlink:href="group__shapes__2de.html#ga5fd9b6fca4860ae7c54cbeb9024e74f0" target="_top" xlink:title="An extruded rectangle with edge, fillet, and/or chamfer corners. ">
<polygon fill="white" stroke="black" points="138.5,-684.5 138.5,-703.5 200.5,-703.5 200.5,-684.5 138.5,-684.5"/>
<text text-anchor="middle" x="169.5" y="-691.5" font-family="Helvetica,sans-Serif" font-size="10.00">erectangle</text>
</a>
</g>
</g>
<!-- Node1&#45;&gt;Node2 -->
<g id="edge1" class="edge"><title>Node1&#45;&gt;Node2</title>
<path fill="none" stroke="midnightblue" d="M48.1697,-371.753C48.2798,-426.268 55.6141,-581.001 131,-675 134.014,-678.758 137.966,-681.841 142.173,-684.347"/>
<polygon fill="midnightblue" stroke="midnightblue" points="51.6698,-371.721 48.2339,-361.699 44.67,-371.676 51.6698,-371.721"/>
</g>
<!-- Node3 -->
<g id="node3" class="node"><title>Node3</title>
<g id="a_node3"><a xlink:href="group__shapes__2de.html#gaa24ca5f53d00f33d356f40f740a1d7f7" target="_top" xlink:title="An extruded rectangle with a removed rectangular core. ">
<polygon fill="white" stroke="black" points="133.5,-646.5 133.5,-665.5 205.5,-665.5 205.5,-646.5 133.5,-646.5"/>
<text text-anchor="middle" x="169.5" y="-653.5" font-family="Helvetica,sans-Serif" font-size="10.00">erectangle_c</text>
</a>
</g>
</g>
<!-- Node1&#45;&gt;Node3 -->
<g id="edge2" class="edge"><title>Node1&#45;&gt;Node3</title>
<path fill="none" stroke="midnightblue" d="M48.9968,-371.723C51.2535,-421.804 63.6277,-555.669 131,-637 134.166,-640.822 138.296,-643.954 142.654,-646.493"/>
<polygon fill="midnightblue" stroke="midnightblue" points="52.4902,-371.476 48.6324,-361.609 45.4948,-371.729 52.4902,-371.476"/>
</g>
<!-- Node4 -->
<g id="node4" class="node"><title>Node4</title>
<g id="a_node4"><a xlink:href="group__shapes__2de.html#gadc20c762def9f625af7141e22229ff55" target="_top" xlink:title="An extruded rhombus. ">
<polygon fill="white" stroke="black" points="140,-608.5 140,-627.5 199,-627.5 199,-608.5 140,-608.5"/>
<text text-anchor="middle" x="169.5" y="-615.5" font-family="Helvetica,sans-Serif" font-size="10.00">erhombus</text>
</a>
</g>
</g>
<!-- Node1&#45;&gt;Node4 -->
<g id="edge3" class="edge"><title>Node1&#45;&gt;Node4</title>
<path fill="none" stroke="midnightblue" d="M50.0676,-371.8C54.6323,-417.208 71.6307,-530.22 131,-599 134.243,-602.757 138.409,-605.859 142.779,-608.388"/>
<polygon fill="midnightblue" stroke="midnightblue" points="53.5477,-371.422 49.1567,-361.78 46.5765,-372.055 53.5477,-371.422"/>
</g>
<!-- Node5 -->
<g id="node5" class="node"><title>Node5</title>
<g id="a_node5"><a xlink:href="group__shapes__2de.html#ga115ebc47b0630da820f163c0627c9b18" target="_top" xlink:title="An extruded general triangle specified by three vertices. ">
<polygon fill="white" stroke="black" points="132.5,-570.5 132.5,-589.5 206.5,-589.5 206.5,-570.5 132.5,-570.5"/>
<text text-anchor="middle" x="169.5" y="-577.5" font-family="Helvetica,sans-Serif" font-size="10.00">etriangle_ppp</text>
</a>
</g>
</g>
<!-- Node1&#45;&gt;Node5 -->
<g id="edge4" class="edge"><title>Node1&#45;&gt;Node5</title>
<path fill="none" stroke="midnightblue" d="M51.4745,-371.683C58.4807,-411.897 79.4803,-504.451 131,-561 134.441,-564.777 138.804,-567.908 143.327,-570.466"/>
<polygon fill="midnightblue" stroke="midnightblue" points="54.8928,-370.898 49.8241,-361.595 47.9846,-372.029 54.8928,-370.898"/>
</g>
<!-- Node6 -->
<g id="node6" class="node"><title>Node6</title>
<g id="a_node6"><a xlink:href="group__shapes__2de.html#ga919151e4d8f40c9218c63b867fb80b7b" target="_top" xlink:title="An extruded general triangle specified by a list of its three vertices. ">
<polygon fill="white" stroke="black" points="136.5,-532.5 136.5,-551.5 202.5,-551.5 202.5,-532.5 136.5,-532.5"/>
<text text-anchor="middle" x="169.5" y="-539.5" font-family="Helvetica,sans-Serif" font-size="10.00">etriangle_lp</text>
</a>
</g>
</g>
<!-- Node1&#45;&gt;Node6 -->
<g id="edge5" class="edge"><title>Node1&#45;&gt;Node6</title>
<path fill="none" stroke="midnightblue" d="M53.4561,-371.598C63.074,-406.138 87.2655,-478.406 131,-523 134.679,-526.752 139.255,-529.896 143.933,-532.478"/>
<polygon fill="midnightblue" stroke="midnightblue" points="56.7994,-370.552 50.8392,-361.792 50.0361,-372.357 56.7994,-370.552"/>
</g>
<!-- Node7 -->
<g id="node7" class="node"><title>Node7</title>
<g id="a_node7"><a xlink:href="group__shapes__2de.html#ga4940596130c3cd1e62fea77569459a52" target="_top" xlink:title="An extruded general triangle specified by its three side lengths. ">
<polygon fill="white" stroke="black" points="132.5,-494.5 132.5,-513.5 206.5,-513.5 206.5,-494.5 132.5,-494.5"/>
<text text-anchor="middle" x="169.5" y="-501.5" font-family="Helvetica,sans-Serif" font-size="10.00">etriangle_sss</text>
</a>
</g>
</g>
<!-- Node1&#45;&gt;Node7 -->
<g id="edge6" class="edge"><title>Node1&#45;&gt;Node7</title>
<path fill="none" stroke="midnightblue" d="M56.284,-371.048C68.5544,-399.099 94.7788,-451.775 131,-485 134.98,-488.651 139.792,-491.779 144.624,-494.381"/>
<polygon fill="midnightblue" stroke="midnightblue" points="59.401,-369.434 52.2727,-361.595 52.9572,-372.168 59.401,-369.434"/>
</g>
<!-- Node8 -->
<g id="node8" class="node"><title>Node8</title>
<g id="a_node8"><a xlink:href="group__shapes__2de.html#gace35f9581cef6d5c20c3fd1d922284d1" target="_top" xlink:title="An extruded general triangle specified by a list of its three side lengths. ">
<polygon fill="white" stroke="black" points="136.5,-456.5 136.5,-475.5 202.5,-475.5 202.5,-456.5 136.5,-456.5"/>
<text text-anchor="middle" x="169.5" y="-463.5" font-family="Helvetica,sans-Serif" font-size="10.00">etriangle_ls</text>
</a>
</g>
</g>
<!-- Node1&#45;&gt;Node8 -->
<g id="edge7" class="edge"><title>Node1&#45;&gt;Node8</title>
<path fill="none" stroke="midnightblue" d="M60.753,-369.914C75.5367,-390.523 102.041,-424.416 131,-447 135.604,-450.591 140.993,-453.793 146.226,-456.498"/>
<polygon fill="midnightblue" stroke="midnightblue" points="63.6048,-367.885 54.9898,-361.718 57.8786,-371.911 63.6048,-367.885"/>
</g>
<!-- Node9 -->
<g id="node9" class="node"><title>Node9</title>
<g id="a_node9"><a xlink:href="group__shapes__2de.html#ga0c99582ccf3d5b1425c99001b228c202" target="_top" xlink:title="A general triangle specified by its sides with a removed triangular core. ">
<polygon fill="white" stroke="black" points="131,-418.5 131,-437.5 208,-437.5 208,-418.5 131,-418.5"/>
<text text-anchor="middle" x="169.5" y="-425.5" font-family="Helvetica,sans-Serif" font-size="10.00">etriangle_ls_c</text>
</a>
</g>
</g>
<!-- Node1&#45;&gt;Node9 -->
<g id="edge8" class="edge"><title>Node1&#45;&gt;Node9</title>
<path fill="none" stroke="midnightblue" d="M69.5896,-367.753C85.9547,-379.683 109.415,-396.155 131,-409 136.519,-412.284 142.675,-415.556 148.378,-418.435"/>
<polygon fill="midnightblue" stroke="midnightblue" points="71.4141,-364.75 61.2848,-361.644 67.2662,-370.389 71.4141,-364.75"/>
</g>
<!-- Node10 -->
<g id="node10" class="node"><title>Node10</title>
<g id="a_node10"><a xlink:href="group__shapes__2de.html#gae4dc22fae0c22daa5d4844755cd268ac" target="_top" xlink:title="An extruded general triangle specified by two sides and the included angle. ">
<polygon fill="white" stroke="black" points="132.5,-380.5 132.5,-399.5 206.5,-399.5 206.5,-380.5 132.5,-380.5"/>
<text text-anchor="middle" x="169.5" y="-387.5" font-family="Helvetica,sans-Serif" font-size="10.00">etriangle_sas</text>
</a>
</g>
</g>
<!-- Node1&#45;&gt;Node10 -->
<g id="edge9" class="edge"><title>Node1&#45;&gt;Node10</title>
<path fill="none" stroke="midnightblue" d="M88.5435,-364.68C104.757,-369.815 123.166,-375.644 138.229,-380.414"/>
<polygon fill="midnightblue" stroke="midnightblue" points="89.3711,-361.271 78.7811,-361.589 87.2578,-367.945 89.3711,-361.271"/>
</g>
<!-- Node11 -->
<g id="node11" class="node"><title>Node11</title>
<g id="a_node11"><a xlink:href="group__shapes__2de.html#ga5b1240a97e34583d10011e5d0044ca28" target="_top" xlink:title="An extruded general triangle specified by a side and two adjacent angles. ">
<polygon fill="white" stroke="black" points="132.5,-342.5 132.5,-361.5 206.5,-361.5 206.5,-342.5 132.5,-342.5"/>
<text text-anchor="middle" x="169.5" y="-349.5" font-family="Helvetica,sans-Serif" font-size="10.00">etriangle_asa</text>
</a>
</g>
</g>
<!-- Node1&#45;&gt;Node11 -->
<g id="edge10" class="edge"><title>Node1&#45;&gt;Node11</title>
<path fill="none" stroke="midnightblue" d="M105.519,-352C114.701,-352 123.976,-352 132.481,-352"/>
<polygon fill="midnightblue" stroke="midnightblue" points="105.239,-348.5 95.2387,-352 105.239,-355.5 105.239,-348.5"/>
</g>
<!-- Node12 -->
<g id="node12" class="node"><title>Node12</title>
<g id="a_node12"><a xlink:href="group__shapes__2de.html#ga8a3300cf4ca82dad9002965960a76a9c" target="_top" xlink:title="An extruded general triangle specified by a side, one adjacent angle and the opposite angle...">
<polygon fill="white" stroke="black" points="132.5,-304.5 132.5,-323.5 206.5,-323.5 206.5,-304.5 132.5,-304.5"/>
<text text-anchor="middle" x="169.5" y="-311.5" font-family="Helvetica,sans-Serif" font-size="10.00">etriangle_aas</text>
</a>
</g>
</g>
<!-- Node1&#45;&gt;Node12 -->
<g id="edge11" class="edge"><title>Node1&#45;&gt;Node12</title>
<path fill="none" stroke="midnightblue" d="M88.5435,-339.32C104.757,-334.185 123.166,-328.356 138.229,-323.586"/>
<polygon fill="midnightblue" stroke="midnightblue" points="87.2578,-336.055 78.7811,-342.411 89.3711,-342.729 87.2578,-336.055"/>
</g>
<!-- Node13 -->
<g id="node13" class="node"><title>Node13</title>
<g id="a_node13"><a xlink:href="group__shapes__2de.html#gac86de6d90f92b19be2fda894d97dfad4" target="_top" xlink:title="An extruded right&#45;angled triangle specified by its opposite and adjacent side lengths. ">
<polygon fill="white" stroke="black" points="135,-266.5 135,-285.5 204,-285.5 204,-266.5 135,-266.5"/>
<text text-anchor="middle" x="169.5" y="-273.5" font-family="Helvetica,sans-Serif" font-size="10.00">etriangle_ss</text>
</a>
</g>
</g>
<!-- Node1&#45;&gt;Node13 -->
<g id="edge12" class="edge"><title>Node1&#45;&gt;Node13</title>
<path fill="none" stroke="midnightblue" d="M69.5896,-336.247C85.9547,-324.317 109.415,-307.845 131,-295 136.519,-291.716 142.675,-288.444 148.378,-285.565"/>
<polygon fill="midnightblue" stroke="midnightblue" points="67.2662,-333.611 61.2848,-342.356 71.4141,-339.25 67.2662,-333.611"/>
</g>
<!-- Node14 -->
<g id="node14" class="node"><title>Node14</title>
<g id="a_node14"><a xlink:href="group__shapes__2de.html#gaa80e1bde5ce902feba29d0d57169b8d5" target="_top" xlink:title="An extruded right&#45;angled triangle specified by a side length and an angle. ">
<polygon fill="white" stroke="black" points="135,-228.5 135,-247.5 204,-247.5 204,-228.5 135,-228.5"/>
<text text-anchor="middle" x="169.5" y="-235.5" font-family="Helvetica,sans-Serif" font-size="10.00">etriangle_sa</text>
</a>
</g>
</g>
<!-- Node1&#45;&gt;Node14 -->
<g id="edge13" class="edge"><title>Node1&#45;&gt;Node14</title>
<path fill="none" stroke="midnightblue" d="M60.753,-334.086C75.5367,-313.477 102.041,-279.584 131,-257 135.604,-253.409 140.993,-250.207 146.226,-247.502"/>
<polygon fill="midnightblue" stroke="midnightblue" points="57.8786,-332.089 54.9898,-342.282 63.6048,-336.115 57.8786,-332.089"/>
</g>
<!-- Node15 -->
<g id="node15" class="node"><title>Node15</title>
<g id="a_node15"><a xlink:href="group__shapes__2de.html#ga67e3b7f863de9d93ec949f5d39a6e04a" target="_top" xlink:title="An extruded n&#45;sided equiangular/equilateral regular polygon. ">
<polygon fill="white" stroke="black" points="148,-190.5 148,-209.5 191,-209.5 191,-190.5 148,-190.5"/>
<text text-anchor="middle" x="169.5" y="-197.5" font-family="Helvetica,sans-Serif" font-size="10.00">engon</text>
</a>
</g>
</g>
<!-- Node1&#45;&gt;Node15 -->
<g id="edge14" class="edge"><title>Node1&#45;&gt;Node15</title>
<path fill="none" stroke="midnightblue" d="M56.284,-332.952C68.5544,-304.901 94.7788,-252.225 131,-219 135.841,-214.56 141.912,-210.893 147.752,-208.005"/>
<polygon fill="midnightblue" stroke="midnightblue" points="52.9572,-331.832 52.2727,-342.405 59.401,-334.566 52.9572,-331.832"/>
</g>
<!-- Node16 -->
<g id="node16" class="node"><title>Node16</title>
<g id="a_node16"><a xlink:href="group__shapes__2de.html#ga8a0fdbbb045a70b7207fd84abeb7b18a" target="_top" xlink:title="An extruded ellipse. ">
<polygon fill="white" stroke="black" points="144.5,-152.5 144.5,-171.5 194.5,-171.5 194.5,-152.5 144.5,-152.5"/>
<text text-anchor="middle" x="169.5" y="-159.5" font-family="Helvetica,sans-Serif" font-size="10.00">eellipse</text>
</a>
</g>
</g>
<!-- Node1&#45;&gt;Node16 -->
<g id="edge15" class="edge"><title>Node1&#45;&gt;Node16</title>
<path fill="none" stroke="midnightblue" d="M53.4561,-332.402C63.074,-297.862 87.2655,-225.594 131,-181 134.782,-177.144 139.51,-173.93 144.323,-171.308"/>
<polygon fill="midnightblue" stroke="midnightblue" points="50.0361,-331.643 50.8392,-342.208 56.7994,-333.448 50.0361,-331.643"/>
</g>
<!-- Node17 -->
<g id="node17" class="node"><title>Node17</title>
<g id="a_node17"><a xlink:href="group__shapes__2de.html#ga3189db3471cd678cc0f8d88f325186eb" target="_top" xlink:title="An extruded ellipse with a removed elliptical core. ">
<polygon fill="white" stroke="black" points="139.5,-114.5 139.5,-133.5 199.5,-133.5 199.5,-114.5 139.5,-114.5"/>
<text text-anchor="middle" x="169.5" y="-121.5" font-family="Helvetica,sans-Serif" font-size="10.00">eellipse_c</text>
</a>
</g>
</g>
<!-- Node1&#45;&gt;Node17 -->
<g id="edge16" class="edge"><title>Node1&#45;&gt;Node17</title>
<path fill="none" stroke="midnightblue" d="M51.4745,-332.317C58.4807,-292.103 79.4803,-199.549 131,-143 134.441,-139.223 138.804,-136.092 143.327,-133.534"/>
<polygon fill="midnightblue" stroke="midnightblue" points="47.9846,-331.971 49.8241,-342.405 54.8928,-333.102 47.9846,-331.971"/>
</g>
<!-- Node18 -->
<g id="node18" class="node"><title>Node18</title>
<g id="a_node18"><a xlink:href="group__shapes__2de.html#gaea89a352b138d105073d0a401b94c024" target="_top" xlink:title="An extruded ellipse sector. ">
<polygon fill="white" stroke="black" points="139.5,-76.5 139.5,-95.5 199.5,-95.5 199.5,-76.5 139.5,-76.5"/>
<text text-anchor="middle" x="169.5" y="-83.5" font-family="Helvetica,sans-Serif" font-size="10.00">eellipse_s</text>
</a>
</g>
</g>
<!-- Node1&#45;&gt;Node18 -->
<g id="edge17" class="edge"><title>Node1&#45;&gt;Node18</title>
<path fill="none" stroke="midnightblue" d="M50.0676,-332.2C54.6323,-286.792 71.6307,-173.78 131,-105 134.243,-101.243 138.409,-98.1415 142.779,-95.6121"/>
<polygon fill="midnightblue" stroke="midnightblue" points="46.5765,-331.945 49.1567,-342.22 53.5477,-332.578 46.5765,-331.945"/>
</g>
<!-- Node19 -->
<g id="node19" class="node"><title>Node19</title>
<g id="a_node19"><a xlink:href="group__shapes__2de.html#gae015f9c06a0ad064212475dcd1c1eb5c" target="_top" xlink:title="An extruded sector of an ellipse with a removed elliptical core. ">
<polygon fill="white" stroke="black" points="137,-38.5 137,-57.5 202,-57.5 202,-38.5 137,-38.5"/>
<text text-anchor="middle" x="169.5" y="-45.5" font-family="Helvetica,sans-Serif" font-size="10.00">eellipse_cs</text>
</a>
</g>
</g>
<!-- Node1&#45;&gt;Node19 -->
<g id="edge18" class="edge"><title>Node1&#45;&gt;Node19</title>
<path fill="none" stroke="midnightblue" d="M48.9968,-332.277C51.2535,-282.196 63.6277,-148.331 131,-67 134.166,-63.1781 138.296,-60.046 142.654,-57.5069"/>
<polygon fill="midnightblue" stroke="midnightblue" points="45.4948,-332.271 48.6324,-342.391 52.4902,-332.524 45.4948,-332.271"/>
</g>
<!-- Node20 -->
<g id="node20" class="node"><title>Node20</title>
<g id="a_node20"><a xlink:href="group__shapes__2de.html#ga69ece32102ccb27e9985975fa4590251" target="_top" xlink:title="An extruded two&#45;dimensional star. ">
<polygon fill="white" stroke="black" points="145,-0.5 145,-19.5 194,-19.5 194,-0.5 145,-0.5"/>
<text text-anchor="middle" x="169.5" y="-7.5" font-family="Helvetica,sans-Serif" font-size="10.00">estar2d</text>
</a>
</g>
</g>
<!-- Node1&#45;&gt;Node20 -->
<g id="edge19" class="edge"><title>Node1&#45;&gt;Node20</title>
<path fill="none" stroke="midnightblue" d="M48.1697,-332.247C48.2798,-277.732 55.6141,-122.999 131,-29 134.653,-24.4452 139.685,-20.8816 144.877,-18.1346"/>
<polygon fill="midnightblue" stroke="midnightblue" points="44.67,-332.324 48.2339,-342.301 51.6698,-332.279 44.67,-332.324"/>
</g>
</g>
</svg>
