<?xml version="1.0" encoding="UTF-8" standalone="no"?>
<!DOCTYPE svg PUBLIC "-//W3C//DTD SVG 1.1//EN"
 "http://www.w3.org/Graphics/SVG/1.1/DTD/svg11.dtd">
<!-- Generated by graphviz version 2.38.0 (20140413.2041)
 -->
<!-- Title: rpolygon_lp Pages: 1 -->
<svg width="347pt" height="104pt"
 viewBox="0.00 0.00 347.00 104.00" xmlns="http://www.w3.org/2000/svg" xmlns:xlink="http://www.w3.org/1999/xlink">
<g id="graph0" class="graph" transform="scale(1 1) rotate(0) translate(4 100)">
<title>rpolygon_lp</title>
<polygon fill="white" stroke="none" points="-4,4 -4,-100 343,-100 343,4 -4,4"/>
<!-- Node1 -->
<g id="node1" class="node"><title>Node1</title>
<polygon fill="#bfbfbf" stroke="black" points="0,-57.5 0,-76.5 66,-76.5 66,-57.5 0,-57.5"/>
<text text-anchor="middle" x="33" y="-64.5" font-family="Helvetica,sans-Serif" font-size="10.00">rpolygon_lp</text>
</g>
<!-- Node2 -->
<g id="node2" class="node"><title>Node2</title>
<g id="a_node2"><a xlink:href="group__shapes__2d.html#ga523675020d361e525669de448e17cfd7" target="_top" xlink:title="An n&#45;sided equiangular/equilateral regular polygon. ">
<polygon fill="white" stroke="black" points="119,-76.5 119,-95.5 157,-95.5 157,-76.5 119,-76.5"/>
<text text-anchor="middle" x="138" y="-83.5" font-family="Helvetica,sans-Serif" font-size="10.00">ngon</text>
</a>
</g>
</g>
<!-- Node1&#45;&gt;Node2 -->
<g id="edge1" class="edge"><title>Node1&#45;&gt;Node2</title>
<path fill="none" stroke="midnightblue" d="M76.0927,-74.7647C90.9773,-77.5104 106.947,-80.4563 118.799,-82.6425"/>
<polygon fill="midnightblue" stroke="midnightblue" points="76.4943,-71.2798 66.0252,-72.9076 75.2244,-78.1636 76.4943,-71.2798"/>
</g>
<!-- Node4 -->
<g id="node4" class="node"><title>Node4</title>
<g id="a_node4"><a xlink:href="group__tools__repeat.html#gaa2529fb73f5660932dd812b457188e32" target="_top" xlink:title="Distribute copies of a 2d or 3d shape equally about a z&#45;axis radius. ">
<polygon fill="white" stroke="black" points="102,-38.5 102,-57.5 174,-57.5 174,-38.5 102,-38.5"/>
<text text-anchor="middle" x="138" y="-45.5" font-family="Helvetica,sans-Serif" font-size="10.00">radial_repeat</text>
</a>
</g>
</g>
<!-- Node1&#45;&gt;Node4 -->
<g id="edge3" class="edge"><title>Node1&#45;&gt;Node4</title>
<path fill="none" stroke="midnightblue" d="M75.8824,-59.2741C84.4755,-57.689 93.4389,-56.0355 101.769,-54.4989"/>
<polygon fill="midnightblue" stroke="midnightblue" points="75.2244,-55.8364 66.0252,-61.0924 76.4943,-62.7202 75.2244,-55.8364"/>
</g>
<!-- Node3 -->
<g id="node3" class="node"><title>Node3</title>
<g id="a_node3"><a xlink:href="group__shapes__2de.html#ga67e3b7f863de9d93ec949f5d39a6e04a" target="_top" xlink:title="An extruded n&#45;sided equiangular/equilateral regular polygon. ">
<polygon fill="white" stroke="black" points="210.5,-76.5 210.5,-95.5 253.5,-95.5 253.5,-76.5 210.5,-76.5"/>
<text text-anchor="middle" x="232" y="-83.5" font-family="Helvetica,sans-Serif" font-size="10.00">engon</text>
</a>
</g>
</g>
<!-- Node2&#45;&gt;Node3 -->
<g id="edge2" class="edge"><title>Node2&#45;&gt;Node3</title>
<path fill="none" stroke="midnightblue" d="M167.203,-86C181.105,-86 197.571,-86 210.292,-86"/>
<polygon fill="midnightblue" stroke="midnightblue" points="167.176,-82.5001 157.176,-86 167.176,-89.5001 167.176,-82.5001"/>
</g>
<!-- Node5 -->
<g id="node5" class="node"><title>Node5</title>
<g id="a_node5"><a xlink:href="group__shapes__2d.html#ga7452bf5414a3677ec806a31aed6b61dd" target="_top" xlink:title="A two&#45;dimensional star. ">
<polygon fill="white" stroke="black" points="210,-38.5 210,-57.5 254,-57.5 254,-38.5 210,-38.5"/>
<text text-anchor="middle" x="232" y="-45.5" font-family="Helvetica,sans-Serif" font-size="10.00">star2d</text>
</a>
</g>
</g>
<!-- Node4&#45;&gt;Node5 -->
<g id="edge4" class="edge"><title>Node4&#45;&gt;Node5</title>
<path fill="none" stroke="midnightblue" d="M184.124,-48C193.135,-48 202.19,-48 209.907,-48"/>
<polygon fill="midnightblue" stroke="midnightblue" points="184.044,-44.5001 174.044,-48 184.044,-51.5001 184.044,-44.5001"/>
</g>
<!-- Node7 -->
<g id="node7" class="node"><title>Node7</title>
<g id="a_node7"><a xlink:href="group__shapes__3d.html#gab99dacd3036b965579d68b1d3b7ee2d8" target="_top" xlink:title="A three&#45;dimensional star. ">
<polygon fill="white" stroke="black" points="210,-0.5 210,-19.5 254,-19.5 254,-0.5 210,-0.5"/>
<text text-anchor="middle" x="232" y="-7.5" font-family="Helvetica,sans-Serif" font-size="10.00">star3d</text>
</a>
</g>
</g>
<!-- Node4&#45;&gt;Node7 -->
<g id="edge6" class="edge"><title>Node4&#45;&gt;Node7</title>
<path fill="none" stroke="midnightblue" d="M171.608,-34.5313C184.372,-29.2596 198.641,-23.3655 209.994,-18.6763"/>
<polygon fill="midnightblue" stroke="midnightblue" points="170.122,-31.3584 162.215,-38.411 172.794,-37.8283 170.122,-31.3584"/>
</g>
<!-- Node6 -->
<g id="node6" class="node"><title>Node6</title>
<g id="a_node6"><a xlink:href="group__shapes__2de.html#ga69ece32102ccb27e9985975fa4590251" target="_top" xlink:title="An extruded two&#45;dimensional star. ">
<polygon fill="white" stroke="black" points="290,-38.5 290,-57.5 339,-57.5 339,-38.5 290,-38.5"/>
<text text-anchor="middle" x="314.5" y="-45.5" font-family="Helvetica,sans-Serif" font-size="10.00">estar2d</text>
</a>
</g>
</g>
<!-- Node5&#45;&gt;Node6 -->
<g id="edge5" class="edge"><title>Node5&#45;&gt;Node6</title>
<path fill="none" stroke="midnightblue" d="M264.193,-48C272.752,-48 281.887,-48 289.939,-48"/>
<polygon fill="midnightblue" stroke="midnightblue" points="264.15,-44.5001 254.15,-48 264.15,-51.5001 264.15,-44.5001"/>
</g>
</g>
</svg>
