<?xml version="1.0" encoding="UTF-8" standalone="no"?>
<!DOCTYPE svg PUBLIC "-//W3C//DTD SVG 1.1//EN"
 "http://www.w3.org/Graphics/SVG/1.1/DTD/svg11.dtd">
<!-- Generated by graphviz version 2.38.0 (20140413.2041)
 -->
<!-- Title: etriangle_ss Pages: 1 -->
<svg width="458pt" height="218pt"
 viewBox="0.00 0.00 458.00 218.00" xmlns="http://www.w3.org/2000/svg" xmlns:xlink="http://www.w3.org/1999/xlink">
<g id="graph0" class="graph" transform="scale(1 1) rotate(0) translate(4 214)">
<title>etriangle_ss</title>
<polygon fill="white" stroke="none" points="-4,4 -4,-214 454,-214 454,4 -4,4"/>
<!-- Node1 -->
<g id="node1" class="node"><title>Node1</title>
<polygon fill="#bfbfbf" stroke="black" points="0,-114.5 0,-133.5 69,-133.5 69,-114.5 0,-114.5"/>
<text text-anchor="middle" x="34.5" y="-121.5" font-family="Helvetica,sans-Serif" font-size="10.00">etriangle_ss</text>
</g>
<!-- Node2 -->
<g id="node2" class="node"><title>Node2</title>
<g id="a_node2"><a xlink:href="group__tools__extrude.html#ga2cb6eb6927858c6b5e1e2dfadb197bf9" target="_top" xlink:title="Linearly extrude 2d shape with extrusion upper and lower scaling. ">
<polygon fill="white" stroke="black" points="105,-133.5 105,-152.5 200,-152.5 200,-133.5 105,-133.5"/>
<text text-anchor="middle" x="152.5" y="-140.5" font-family="Helvetica,sans-Serif" font-size="10.00">linear_extrude_uls</text>
</a>
</g>
</g>
<!-- Node1&#45;&gt;Node2 -->
<g id="edge1" class="edge"><title>Node1&#45;&gt;Node2</title>
<path fill="none" stroke="midnightblue" d="M69.052,-129.496C77.1223,-130.817 85.9655,-132.266 94.7697,-133.708"/>
<polygon fill="midnightblue" stroke="midnightblue" points="94.2158,-137.164 104.65,-135.326 95.3474,-130.256 94.2158,-137.164"/>
</g>
<!-- Node5 -->
<g id="node5" class="node"><title>Node5</title>
<g id="a_node5"><a xlink:href="group__shapes__2d.html#ga0f93c98a50f652382cce6e2a9080a14d" target="_top" xlink:title="A right&#45;angled triangle specified by its opposite and adjacent side lengths. ">
<polygon fill="white" stroke="black" points="120.5,-95.5 120.5,-114.5 184.5,-114.5 184.5,-95.5 120.5,-95.5"/>
<text text-anchor="middle" x="152.5" y="-102.5" font-family="Helvetica,sans-Serif" font-size="10.00">triangle_ss</text>
</a>
</g>
</g>
<!-- Node1&#45;&gt;Node5 -->
<g id="edge4" class="edge"><title>Node1&#45;&gt;Node5</title>
<path fill="none" stroke="midnightblue" d="M69.052,-118.504C81.9557,-116.391 96.8354,-113.954 110.372,-111.736"/>
<polygon fill="midnightblue" stroke="midnightblue" points="111.104,-115.163 120.407,-110.093 109.973,-108.255 111.104,-115.163"/>
</g>
<!-- Node3 -->
<g id="node3" class="node"><title>Node3</title>
<g id="a_node3"><a xlink:href="group__datatypes__identify__scalar.html#ga62dbd35f498bfc2a090812b1cf8a37c4" target="_top" xlink:title="Test if a value is not defined. ">
<polygon fill="white" stroke="black" points="237,-171.5 237,-190.5 304,-190.5 304,-171.5 237,-171.5"/>
<text text-anchor="middle" x="270.5" y="-178.5" font-family="Helvetica,sans-Serif" font-size="10.00">not_defined</text>
</a>
</g>
</g>
<!-- Node2&#45;&gt;Node3 -->
<g id="edge2" class="edge"><title>Node2&#45;&gt;Node3</title>
<path fill="none" stroke="midnightblue" d="M182.772,-152.589C197.197,-157.314 214.793,-163.079 230.357,-168.177"/>
<polygon fill="midnightblue" stroke="midnightblue" points="229.645,-171.627 240.238,-171.414 231.824,-164.975 229.645,-171.627"/>
</g>
<!-- Node4 -->
<g id="node4" class="node"><title>Node4</title>
<g id="a_node4"><a xlink:href="group__datatypes__identify__scalar.html#ga258e8911375d30ff85a6e52df01dc1c5" target="_top" xlink:title="Test if a value is a single non&#45;iterable value. ">
<polygon fill="white" stroke="black" points="242.5,-133.5 242.5,-152.5 298.5,-152.5 298.5,-133.5 242.5,-133.5"/>
<text text-anchor="middle" x="270.5" y="-140.5" font-family="Helvetica,sans-Serif" font-size="10.00">is_scalar</text>
</a>
</g>
</g>
<!-- Node2&#45;&gt;Node4 -->
<g id="edge3" class="edge"><title>Node2&#45;&gt;Node4</title>
<path fill="none" stroke="midnightblue" d="M200.013,-143C210.679,-143 221.885,-143 232.109,-143"/>
<polygon fill="midnightblue" stroke="midnightblue" points="232.344,-146.5 242.344,-143 232.344,-139.5 232.344,-146.5"/>
</g>
<!-- Node6 -->
<g id="node6" class="node"><title>Node6</title>
<g id="a_node6"><a xlink:href="group__shapes__2d.html#ga33d2a7677306c346ad6be5a488885d86" target="_top" xlink:title="A general triangle specified by three vertices. ">
<polygon fill="white" stroke="black" points="236,-95.5 236,-114.5 305,-114.5 305,-95.5 236,-95.5"/>
<text text-anchor="middle" x="270.5" y="-102.5" font-family="Helvetica,sans-Serif" font-size="10.00">triangle_ppp</text>
</a>
</g>
</g>
<!-- Node5&#45;&gt;Node6 -->
<g id="edge5" class="edge"><title>Node5&#45;&gt;Node6</title>
<path fill="none" stroke="midnightblue" d="M184.586,-105C197.207,-105 212.013,-105 225.695,-105"/>
<polygon fill="midnightblue" stroke="midnightblue" points="225.885,-108.5 235.885,-105 225.885,-101.5 225.885,-108.5"/>
</g>
<!-- Node7 -->
<g id="node7" class="node"><title>Node7</title>
<g id="a_node7"><a xlink:href="group__datatypes__operate__scalar.html#gac119300e8c83de0037f2d0a4d9f0ab5c" target="_top" xlink:title="Return a value when it is defined or a default value when it is not. ">
<polygon fill="white" stroke="black" points="364.5,-190.5 364.5,-209.5 426.5,-209.5 426.5,-190.5 364.5,-190.5"/>
<text text-anchor="middle" x="395.5" y="-197.5" font-family="Helvetica,sans-Serif" font-size="10.00">defined_or</text>
</a>
</g>
</g>
<!-- Node6&#45;&gt;Node7 -->
<g id="edge6" class="edge"><title>Node6&#45;&gt;Node7</title>
<path fill="none" stroke="midnightblue" d="M292.091,-114.563C296.642,-117.231 301.226,-120.401 305,-124 326.683,-144.679 317.596,-162.291 341,-181 345.129,-184.3 349.875,-187.052 354.799,-189.339"/>
<polygon fill="midnightblue" stroke="midnightblue" points="353.789,-192.705 364.373,-193.189 356.401,-186.211 353.789,-192.705"/>
</g>
<!-- Node8 -->
<g id="node8" class="node"><title>Node8</title>
<g id="a_node8"><a xlink:href="group__math__triangle.html#ga6eb5bfb1ae077d0db22e41c142233be0" target="_top" xlink:title="Compute the coordinate for the triangle&#39;s incircle. ">
<polygon fill="white" stroke="black" points="341,-152.5 341,-171.5 450,-171.5 450,-152.5 341,-152.5"/>
<text text-anchor="middle" x="395.5" y="-159.5" font-family="Helvetica,sans-Serif" font-size="10.00">triangle_incenter_ppp</text>
</a>
</g>
</g>
<!-- Node6&#45;&gt;Node8 -->
<g id="edge7" class="edge"><title>Node6&#45;&gt;Node8</title>
<path fill="none" stroke="midnightblue" d="M288.302,-114.589C305.391,-124.268 330.77,-138.422 341,-143 345.66,-145.086 350.624,-147.105 355.579,-149"/>
<polygon fill="midnightblue" stroke="midnightblue" points="354.42,-152.302 365.014,-152.474 356.839,-145.734 354.42,-152.302"/>
</g>
<!-- Node9 -->
<g id="node9" class="node"><title>Node9</title>
<g id="a_node9"><a xlink:href="group__math__triangle.html#ga7c94003074f622d6421a665207cafbd7" target="_top" xlink:title="Compute the centroid (geometric center) of a triangle. ">
<polygon fill="white" stroke="black" points="341,-114.5 341,-133.5 450,-133.5 450,-114.5 341,-114.5"/>
<text text-anchor="middle" x="395.5" y="-121.5" font-family="Helvetica,sans-Serif" font-size="10.00">triangle_centroid_ppp</text>
</a>
</g>
</g>
<!-- Node6&#45;&gt;Node9 -->
<g id="edge8" class="edge"><title>Node6&#45;&gt;Node9</title>
<path fill="none" stroke="midnightblue" d="M305.11,-110.192C313.069,-111.421 321.818,-112.773 330.632,-114.134"/>
<polygon fill="midnightblue" stroke="midnightblue" points="330.156,-117.602 340.573,-115.67 331.224,-110.684 330.156,-117.602"/>
</g>
<!-- Node10 -->
<g id="node10" class="node"><title>Node10</title>
<g id="a_node10"><a xlink:href="group__datatypes__identify__iterable.html#ga6dc7861bf5a7777bfb33876493107d75" target="_top" xlink:title="Test if any element of a list of values is undefined. ">
<polygon fill="white" stroke="black" points="355.5,-76.5 355.5,-95.5 435.5,-95.5 435.5,-76.5 355.5,-76.5"/>
<text text-anchor="middle" x="395.5" y="-83.5" font-family="Helvetica,sans-Serif" font-size="10.00">any_undefined</text>
</a>
</g>
</g>
<!-- Node6&#45;&gt;Node10 -->
<g id="edge9" class="edge"><title>Node6&#45;&gt;Node10</title>
<path fill="none" stroke="midnightblue" d="M305.11,-99.8082C317.467,-97.8994 331.729,-95.6964 345.181,-93.6184"/>
<polygon fill="midnightblue" stroke="midnightblue" points="345.917,-97.0464 355.265,-92.0607 344.848,-90.1284 345.917,-97.0464"/>
</g>
<!-- Node11 -->
<g id="node11" class="node"><title>Node11</title>
<g id="a_node11"><a xlink:href="group__math__vector__algebra.html#ga3a0c4c75047b8003ab09286a77a58c86" target="_top" xlink:title="Compute the angle between two lines (or vectors) in a Euclidean 3d or 2d&#45;space. ">
<polygon fill="white" stroke="black" points="370.5,-38.5 370.5,-57.5 420.5,-57.5 420.5,-38.5 370.5,-38.5"/>
<text text-anchor="middle" x="395.5" y="-45.5" font-family="Helvetica,sans-Serif" font-size="10.00">angle_ll</text>
</a>
</g>
</g>
<!-- Node6&#45;&gt;Node11 -->
<g id="edge10" class="edge"><title>Node6&#45;&gt;Node11</title>
<path fill="none" stroke="midnightblue" d="M287.419,-95.3469C301.272,-87.179 322.046,-75.4824 341,-67 347.347,-64.1596 354.259,-61.4418 360.942,-58.9947"/>
<polygon fill="midnightblue" stroke="midnightblue" points="362.218,-62.2559 370.477,-55.6204 359.883,-55.6568 362.218,-62.2559"/>
</g>
<!-- Node12 -->
<g id="node12" class="node"><title>Node12</title>
<g id="a_node12"><a xlink:href="group__math__vector__algebra.html#gaa71caf02a1433e6c84d61d13d12aa581" target="_top" xlink:title="Compute the normalized unit vector of a Euclidean line (or vector). ">
<polygon fill="white" stroke="black" points="375.5,-0.5 375.5,-19.5 415.5,-19.5 415.5,-0.5 375.5,-0.5"/>
<text text-anchor="middle" x="395.5" y="-7.5" font-family="Helvetica,sans-Serif" font-size="10.00">unit_l</text>
</a>
</g>
</g>
<!-- Node6&#45;&gt;Node12 -->
<g id="edge11" class="edge"><title>Node6&#45;&gt;Node12</title>
<path fill="none" stroke="midnightblue" d="M277.853,-95.4404C288.896,-79.5147 313.137,-47.4807 341,-29 348.416,-24.081 357.256,-20.2683 365.593,-17.3935"/>
<polygon fill="midnightblue" stroke="midnightblue" points="366.878,-20.659 375.383,-14.3406 364.795,-13.9764 366.878,-20.659"/>
</g>
</g>
</svg>
