<?xml version="1.0" encoding="UTF-8" standalone="no"?>
<!DOCTYPE svg PUBLIC "-//W3C//DTD SVG 1.1//EN"
 "http://www.w3.org/Graphics/SVG/1.1/DTD/svg11.dtd">
<!-- Generated by graphviz version 2.38.0 (20140413.2041)
 -->
<!-- Title: erectangle_c Pages: 1 -->
<svg width="439pt" height="218pt"
 viewBox="0.00 0.00 439.00 218.00" xmlns="http://www.w3.org/2000/svg" xmlns:xlink="http://www.w3.org/1999/xlink">
<g id="graph0" class="graph" transform="scale(1 1) rotate(0) translate(4 214)">
<title>erectangle_c</title>
<polygon fill="white" stroke="none" points="-4,4 -4,-214 435,-214 435,4 -4,4"/>
<!-- Node1 -->
<g id="node1" class="node"><title>Node1</title>
<polygon fill="#bfbfbf" stroke="black" points="0,-133.5 0,-152.5 72,-152.5 72,-133.5 0,-133.5"/>
<text text-anchor="middle" x="36" y="-140.5" font-family="Helvetica,sans-Serif" font-size="10.00">erectangle_c</text>
</g>
<!-- Node2 -->
<g id="node2" class="node"><title>Node2</title>
<g id="a_node2"><a xlink:href="group__tools__extrude.html#ga2cb6eb6927858c6b5e1e2dfadb197bf9" target="_top" xlink:title="Linearly extrude 2d shape with extrusion upper and lower scaling. ">
<polygon fill="white" stroke="black" points="211,-190.5 211,-209.5 306,-209.5 306,-190.5 211,-190.5"/>
<text text-anchor="middle" x="258.5" y="-197.5" font-family="Helvetica,sans-Serif" font-size="10.00">linear_extrude_uls</text>
</a>
</g>
</g>
<!-- Node1&#45;&gt;Node2 -->
<g id="edge1" class="edge"><title>Node1&#45;&gt;Node2</title>
<path fill="none" stroke="midnightblue" d="M72.4271,-152.158C109.991,-161.868 169.495,-177.251 210.853,-187.942"/>
<polygon fill="midnightblue" stroke="midnightblue" points="210.133,-191.37 220.69,-190.485 211.885,-184.593 210.133,-191.37"/>
</g>
<!-- Node5 -->
<g id="node5" class="node"><title>Node5</title>
<g id="a_node5"><a xlink:href="group__shapes__2d.html#ga803b8196745be0e3a338def3c58e3b2b" target="_top" xlink:title="A rectangle with a removed rectangular core. ">
<polygon fill="white" stroke="black" points="108,-95.5 108,-114.5 175,-114.5 175,-95.5 108,-95.5"/>
<text text-anchor="middle" x="141.5" y="-102.5" font-family="Helvetica,sans-Serif" font-size="10.00">rectangle_c</text>
</a>
</g>
</g>
<!-- Node1&#45;&gt;Node5 -->
<g id="edge4" class="edge"><title>Node1&#45;&gt;Node5</title>
<path fill="none" stroke="midnightblue" d="M63.1174,-133.411C75.7428,-128.776 91.0914,-123.14 104.78,-118.115"/>
<polygon fill="midnightblue" stroke="midnightblue" points="106.21,-121.318 114.391,-114.586 103.797,-114.747 106.21,-121.318"/>
</g>
<!-- Node3 -->
<g id="node3" class="node"><title>Node3</title>
<g id="a_node3"><a xlink:href="group__datatypes__identify__scalar.html#ga62dbd35f498bfc2a090812b1cf8a37c4" target="_top" xlink:title="Test if a value is not defined. ">
<polygon fill="white" stroke="black" points="353,-171.5 353,-190.5 420,-190.5 420,-171.5 353,-171.5"/>
<text text-anchor="middle" x="386.5" y="-178.5" font-family="Helvetica,sans-Serif" font-size="10.00">not_defined</text>
</a>
</g>
</g>
<!-- Node2&#45;&gt;Node3 -->
<g id="edge2" class="edge"><title>Node2&#45;&gt;Node3</title>
<path fill="none" stroke="midnightblue" d="M306.06,-192.979C318.097,-191.164 330.994,-189.219 342.822,-187.436"/>
<polygon fill="midnightblue" stroke="midnightblue" points="343.526,-190.869 352.892,-185.917 342.482,-183.947 343.526,-190.869"/>
</g>
<!-- Node4 -->
<g id="node4" class="node"><title>Node4</title>
<g id="a_node4"><a xlink:href="group__datatypes__identify__scalar.html#ga258e8911375d30ff85a6e52df01dc1c5" target="_top" xlink:title="Test if a value is a single non&#45;iterable value. ">
<polygon fill="white" stroke="black" points="358.5,-114.5 358.5,-133.5 414.5,-133.5 414.5,-114.5 358.5,-114.5"/>
<text text-anchor="middle" x="386.5" y="-121.5" font-family="Helvetica,sans-Serif" font-size="10.00">is_scalar</text>
</a>
</g>
</g>
<!-- Node2&#45;&gt;Node4 -->
<g id="edge3" class="edge"><title>Node2&#45;&gt;Node4</title>
<path fill="none" stroke="midnightblue" d="M286.07,-190.394C292.721,-187.652 299.741,-184.46 306,-181 327.696,-169.007 350.497,-152.159 366.089,-139.892"/>
<polygon fill="midnightblue" stroke="midnightblue" points="368.328,-142.583 373.957,-133.608 363.959,-137.114 368.328,-142.583"/>
</g>
<!-- Node6 -->
<g id="node6" class="node"><title>Node6</title>
<g id="a_node6"><a xlink:href="group__datatypes__operate__iterable.html#ga3d679b4617986e31d5e2803971b37af8" target="_top" xlink:title="Return an iterable element when it exists or a default value when it does not. ">
<polygon fill="white" stroke="black" points="353,-0.5 353,-19.5 420,-19.5 420,-0.5 353,-0.5"/>
<text text-anchor="middle" x="386.5" y="-7.5" font-family="Helvetica,sans-Serif" font-size="10.00">edefined_or</text>
</a>
</g>
</g>
<!-- Node5&#45;&gt;Node6 -->
<g id="edge5" class="edge"><title>Node5&#45;&gt;Node6</title>
<path fill="none" stroke="midnightblue" d="M147.978,-95.2495C158.019,-78.4277 181.112,-44.2897 211,-29 252.114,-7.96784 305.699,-5.1781 342.584,-6.40327"/>
<polygon fill="midnightblue" stroke="midnightblue" points="342.845,-9.91835 352.991,-6.86977 343.158,-2.92538 342.845,-9.91835"/>
</g>
<!-- Node7 -->
<g id="node7" class="node"><title>Node7</title>
<g id="a_node7"><a xlink:href="group__datatypes__identify__iterable.html#ga3fa2b76e04a4c8bba633d9e5e08004e8" target="_top" xlink:title="Test if no element of a list of values is undefined. ">
<polygon fill="white" stroke="black" points="227,-152.5 227,-171.5 290,-171.5 290,-152.5 227,-152.5"/>
<text text-anchor="middle" x="258.5" y="-159.5" font-family="Helvetica,sans-Serif" font-size="10.00">all_defined</text>
</a>
</g>
</g>
<!-- Node5&#45;&gt;Node7 -->
<g id="edge6" class="edge"><title>Node5&#45;&gt;Node7</title>
<path fill="none" stroke="midnightblue" d="M158.546,-114.613C172.25,-122.648 192.606,-134.179 211,-143 214.892,-144.867 219.018,-146.722 223.141,-148.5"/>
<polygon fill="midnightblue" stroke="midnightblue" points="222.071,-151.846 232.647,-152.479 224.774,-145.389 222.071,-151.846"/>
</g>
<!-- Node8 -->
<g id="node8" class="node"><title>Node8</title>
<g id="a_node8"><a xlink:href="group__datatypes__operate__scalar.html#gac119300e8c83de0037f2d0a4d9f0ab5c" target="_top" xlink:title="Return a value when it is defined or a default value when it is not. ">
<polygon fill="white" stroke="black" points="227.5,-114.5 227.5,-133.5 289.5,-133.5 289.5,-114.5 227.5,-114.5"/>
<text text-anchor="middle" x="258.5" y="-121.5" font-family="Helvetica,sans-Serif" font-size="10.00">defined_or</text>
</a>
</g>
</g>
<!-- Node5&#45;&gt;Node8 -->
<g id="edge7" class="edge"><title>Node5&#45;&gt;Node8</title>
<path fill="none" stroke="midnightblue" d="M175.147,-110.394C188.164,-112.545 203.286,-115.043 216.992,-117.307"/>
<polygon fill="midnightblue" stroke="midnightblue" points="216.703,-120.807 227.139,-118.984 217.844,-113.901 216.703,-120.807"/>
</g>
<!-- Node9 -->
<g id="node9" class="node"><title>Node9</title>
<g id="a_node9"><a xlink:href="group__datatypes__identify__scalar.html#ga51d7fdb800c10f4b7479d23b89ab8d22" target="_top" xlink:title="Test if a value is defined. ">
<polygon fill="white" stroke="black" points="228,-76.5 228,-95.5 289,-95.5 289,-76.5 228,-76.5"/>
<text text-anchor="middle" x="258.5" y="-83.5" font-family="Helvetica,sans-Serif" font-size="10.00">is_defined</text>
</a>
</g>
</g>
<!-- Node5&#45;&gt;Node9 -->
<g id="edge8" class="edge"><title>Node5&#45;&gt;Node9</title>
<path fill="none" stroke="midnightblue" d="M175.147,-99.6062C188.376,-97.4205 203.778,-94.8758 217.66,-92.5823"/>
<polygon fill="midnightblue" stroke="midnightblue" points="218.622,-95.9709 227.917,-90.8876 217.481,-89.0645 218.622,-95.9709"/>
</g>
<!-- Node10 -->
<g id="node10" class="node"><title>Node10</title>
<g id="a_node10"><a xlink:href="group__shapes__2d.html#ga9f679c29426c44ee83b4a13b5dd47138" target="_top" xlink:title="A rectangle with edge, fillet, and/or chamfer corners. ">
<polygon fill="white" stroke="black" points="230.5,-38.5 230.5,-57.5 286.5,-57.5 286.5,-38.5 230.5,-38.5"/>
<text text-anchor="middle" x="258.5" y="-45.5" font-family="Helvetica,sans-Serif" font-size="10.00">rectangle</text>
</a>
</g>
</g>
<!-- Node5&#45;&gt;Node10 -->
<g id="edge9" class="edge"><title>Node5&#45;&gt;Node10</title>
<path fill="none" stroke="midnightblue" d="M158.546,-95.3874C172.25,-87.3515 192.606,-75.8214 211,-67 214.892,-65.1333 219.018,-63.2781 223.141,-61.4997"/>
<polygon fill="midnightblue" stroke="midnightblue" points="224.774,-64.6107 232.647,-57.5205 222.071,-58.1536 224.774,-64.6107"/>
</g>
<!-- Node10&#45;&gt;Node3 -->
<g id="edge11" class="edge"><title>Node10&#45;&gt;Node3</title>
<path fill="none" stroke="midnightblue" d="M286.578,-55.1858C293.52,-58.0068 300.554,-61.8432 306,-67 333.139,-92.699 319.453,-113.191 342,-143 348.131,-151.105 356.225,-158.748 363.766,-165.025"/>
<polygon fill="midnightblue" stroke="midnightblue" points="361.607,-167.779 371.615,-171.257 365.96,-162.297 361.607,-167.779"/>
</g>
<!-- Node10&#45;&gt;Node4 -->
<g id="edge12" class="edge"><title>Node10&#45;&gt;Node4</title>
<path fill="none" stroke="midnightblue" d="M286.07,-57.606C292.721,-60.3478 299.741,-63.5405 306,-67 327.696,-78.9928 350.497,-95.841 366.089,-108.108"/>
<polygon fill="midnightblue" stroke="midnightblue" points="363.959,-110.886 373.957,-114.392 368.328,-105.417 363.959,-110.886"/>
</g>
<!-- Node10&#45;&gt;Node6 -->
<g id="edge10" class="edge"><title>Node10&#45;&gt;Node6</title>
<path fill="none" stroke="midnightblue" d="M286.53,-39.848C303.279,-34.7968 325.129,-28.2072 344.037,-22.5048"/>
<polygon fill="midnightblue" stroke="midnightblue" points="345.05,-25.855 353.613,-19.6166 343.029,-19.1532 345.05,-25.855"/>
</g>
<!-- Node11 -->
<g id="node11" class="node"><title>Node11</title>
<g id="a_node11"><a xlink:href="group__math__bitwise.html#ga31b8c7bc875d9fadd86b49a1ba39d1a4" target="_top" xlink:title="Test if a base&#45;two bit position of an integer value equals a test bit. ">
<polygon fill="white" stroke="black" points="342,-38.5 342,-57.5 431,-57.5 431,-38.5 342,-38.5"/>
<text text-anchor="middle" x="386.5" y="-45.5" font-family="Helvetica,sans-Serif" font-size="10.00">bitwise_is_equal</text>
</a>
</g>
</g>
<!-- Node10&#45;&gt;Node11 -->
<g id="edge13" class="edge"><title>Node10&#45;&gt;Node11</title>
<path fill="none" stroke="midnightblue" d="M286.53,-48C299.699,-48 316.02,-48 331.586,-48"/>
<polygon fill="midnightblue" stroke="midnightblue" points="331.665,-51.5001 341.665,-48 331.665,-44.5001 331.665,-51.5001"/>
</g>
</g>
</svg>
