<?xml version="1.0" encoding="UTF-8" standalone="no"?>
<!DOCTYPE svg PUBLIC "-//W3C//DTD SVG 1.1//EN"
 "http://www.w3.org/Graphics/SVG/1.1/DTD/svg11.dtd">
<!-- Generated by graphviz version 2.38.0 (20140413.2041)
 -->
<!-- Title: ellipse_s Pages: 1 -->
<svg width="279pt" height="123pt"
 viewBox="0.00 0.00 279.00 123.00" xmlns="http://www.w3.org/2000/svg" xmlns:xlink="http://www.w3.org/1999/xlink">
<g id="graph0" class="graph" transform="scale(1 1) rotate(0) translate(4 119)">
<title>ellipse_s</title>
<polygon fill="white" stroke="none" points="-4,4 -4,-119 275,-119 275,4 -4,4"/>
<!-- Node1 -->
<g id="node1" class="node"><title>Node1</title>
<polygon fill="#bfbfbf" stroke="black" points="0,-38.5 0,-57.5 55,-57.5 55,-38.5 0,-38.5"/>
<text text-anchor="middle" x="27.5" y="-45.5" font-family="Helvetica,sans-Serif" font-size="10.00">ellipse_s</text>
</g>
<!-- Node2 -->
<g id="node2" class="node"><title>Node2</title>
<g id="a_node2"><a xlink:href="group__shapes__2d.html#ga3e186b32450bffe183da7422f0b19f95" target="_top" xlink:title="A sector of an ellipse with a removed elliptical core. ">
<polygon fill="white" stroke="black" points="99.5,-76.5 99.5,-95.5 159.5,-95.5 159.5,-76.5 99.5,-76.5"/>
<text text-anchor="middle" x="129.5" y="-83.5" font-family="Helvetica,sans-Serif" font-size="10.00">ellipse_cs</text>
</a>
</g>
</g>
<!-- Node1&#45;&gt;Node2 -->
<g id="edge1" class="edge"><title>Node1&#45;&gt;Node2</title>
<path fill="none" stroke="midnightblue" d="M63.4067,-61.2646C76.5349,-66.2533 91.195,-71.8241 103.274,-76.4141"/>
<polygon fill="midnightblue" stroke="midnightblue" points="64.3253,-57.8695 53.7342,-57.589 61.8388,-64.413 64.3253,-57.8695"/>
</g>
<!-- Node5 -->
<g id="node5" class="node"><title>Node5</title>
<g id="a_node5"><a xlink:href="group__shapes__2de.html#gaea89a352b138d105073d0a401b94c024" target="_top" xlink:title="An extruded ellipse sector. ">
<polygon fill="white" stroke="black" points="99.5,-38.5 99.5,-57.5 159.5,-57.5 159.5,-38.5 99.5,-38.5"/>
<text text-anchor="middle" x="129.5" y="-45.5" font-family="Helvetica,sans-Serif" font-size="10.00">eellipse_s</text>
</a>
</g>
</g>
<!-- Node1&#45;&gt;Node5 -->
<g id="edge4" class="edge"><title>Node1&#45;&gt;Node5</title>
<path fill="none" stroke="midnightblue" d="M65.0616,-48C76.3613,-48 88.65,-48 99.3764,-48"/>
<polygon fill="midnightblue" stroke="midnightblue" points="65.0357,-44.5001 55.0356,-48 65.0356,-51.5001 65.0357,-44.5001"/>
</g>
<!-- Node6 -->
<g id="node6" class="node"><title>Node6</title>
<g id="a_node6"><a xlink:href="group__tools__edge.html#ga59a75abff2be2d912fc1881eba650c97" target="_top" xlink:title="A 2d edge&#45;finish profile specified by intersection radius. ">
<polygon fill="white" stroke="black" points="91,-0.5 91,-19.5 168,-19.5 168,-0.5 91,-0.5"/>
<text text-anchor="middle" x="129.5" y="-7.5" font-family="Helvetica,sans-Serif" font-size="10.00">edge_profile_r</text>
</a>
</g>
</g>
<!-- Node1&#45;&gt;Node6 -->
<g id="edge5" class="edge"><title>Node1&#45;&gt;Node6</title>
<path fill="none" stroke="midnightblue" d="M63.4067,-34.7354C76.5349,-29.7467 91.195,-24.1759 103.274,-19.5859"/>
<polygon fill="midnightblue" stroke="midnightblue" points="61.8388,-31.587 53.7342,-38.411 64.3253,-38.1305 61.8388,-31.587"/>
</g>
<!-- Node3 -->
<g id="node3" class="node"><title>Node3</title>
<g id="a_node3"><a xlink:href="group__shapes__2de.html#gae015f9c06a0ad064212475dcd1c1eb5c" target="_top" xlink:title="An extruded sector of an ellipse with a removed elliptical core. ">
<polygon fill="white" stroke="black" points="205,-95.5 205,-114.5 270,-114.5 270,-95.5 205,-95.5"/>
<text text-anchor="middle" x="237.5" y="-102.5" font-family="Helvetica,sans-Serif" font-size="10.00">eellipse_cs</text>
</a>
</g>
</g>
<!-- Node2&#45;&gt;Node3 -->
<g id="edge2" class="edge"><title>Node2&#45;&gt;Node3</title>
<path fill="none" stroke="midnightblue" d="M169.609,-93.01C181.18,-95.0842 193.702,-97.3287 204.748,-99.3086"/>
<polygon fill="midnightblue" stroke="midnightblue" points="170.206,-89.5615 159.746,-91.2421 168.971,-96.4516 170.206,-89.5615"/>
</g>
<!-- Node4 -->
<g id="node4" class="node"><title>Node4</title>
<g id="a_node4"><a xlink:href="group__shapes__3d.html#gaf5589d4cfa40aefb7853b4eebc792312" target="_top" xlink:title="An elliptical cross&#45;sectional profile revolved about the z&#45;axis. ">
<polygon fill="white" stroke="black" points="210.5,-57.5 210.5,-76.5 264.5,-76.5 264.5,-57.5 210.5,-57.5"/>
<text text-anchor="middle" x="237.5" y="-64.5" font-family="Helvetica,sans-Serif" font-size="10.00">torus_ep</text>
</a>
</g>
</g>
<!-- Node2&#45;&gt;Node4 -->
<g id="edge3" class="edge"><title>Node2&#45;&gt;Node4</title>
<path fill="none" stroke="midnightblue" d="M169.756,-78.9635C183.256,-76.5436 198.035,-73.8948 210.246,-71.706"/>
<polygon fill="midnightblue" stroke="midnightblue" points="168.971,-75.5484 159.746,-80.7579 170.206,-82.4386 168.971,-75.5484"/>
</g>
<!-- Node7 -->
<g id="node7" class="node"><title>Node7</title>
<g id="a_node7"><a xlink:href="group__tools__edge.html#ga44c40aee1894824493e1a6b5b36e610f" target="_top" xlink:title="A 3d edge&#45;finish additive shape specified by intersection radius. ">
<polygon fill="white" stroke="black" points="204,-0.5 204,-19.5 271,-19.5 271,-0.5 204,-0.5"/>
<text text-anchor="middle" x="237.5" y="-7.5" font-family="Helvetica,sans-Serif" font-size="10.00">edge_add_r</text>
</a>
</g>
</g>
<!-- Node6&#45;&gt;Node7 -->
<g id="edge6" class="edge"><title>Node6&#45;&gt;Node7</title>
<path fill="none" stroke="midnightblue" d="M178.212,-10C186.889,-10 195.756,-10 203.872,-10"/>
<polygon fill="midnightblue" stroke="midnightblue" points="178.17,-6.5001 168.17,-10 178.17,-13.5001 178.17,-6.5001"/>
</g>
</g>
</svg>
