<?xml version="1.0" encoding="UTF-8" standalone="no"?>
<!DOCTYPE svg PUBLIC "-//W3C//DTD SVG 1.1//EN"
 "http://www.w3.org/Graphics/SVG/1.1/DTD/svg11.dtd">
<!-- Generated by graphviz version 2.38.0 (20140413.2041)
 -->
<!-- Title: etriangle_sa Pages: 1 -->
<svg width="458pt" height="294pt"
 viewBox="0.00 0.00 458.00 294.00" xmlns="http://www.w3.org/2000/svg" xmlns:xlink="http://www.w3.org/1999/xlink">
<g id="graph0" class="graph" transform="scale(1 1) rotate(0) translate(4 290)">
<title>etriangle_sa</title>
<polygon fill="white" stroke="none" points="-4,4 -4,-290 454,-290 454,4 -4,4"/>
<!-- Node1 -->
<g id="node1" class="node"><title>Node1</title>
<polygon fill="#bfbfbf" stroke="black" points="0,-209.5 0,-228.5 69,-228.5 69,-209.5 0,-209.5"/>
<text text-anchor="middle" x="34.5" y="-216.5" font-family="Helvetica,sans-Serif" font-size="10.00">etriangle_sa</text>
</g>
<!-- Node2 -->
<g id="node2" class="node"><title>Node2</title>
<g id="a_node2"><a xlink:href="group__tools__extrude.html#ga2cb6eb6927858c6b5e1e2dfadb197bf9" target="_top" xlink:title="Linearly extrude 2d shape with extrusion upper and lower scaling. ">
<polygon fill="white" stroke="black" points="105,-228.5 105,-247.5 200,-247.5 200,-228.5 105,-228.5"/>
<text text-anchor="middle" x="152.5" y="-235.5" font-family="Helvetica,sans-Serif" font-size="10.00">linear_extrude_uls</text>
</a>
</g>
</g>
<!-- Node1&#45;&gt;Node2 -->
<g id="edge1" class="edge"><title>Node1&#45;&gt;Node2</title>
<path fill="none" stroke="midnightblue" d="M69.052,-224.496C77.1223,-225.817 85.9655,-227.266 94.7697,-228.708"/>
<polygon fill="midnightblue" stroke="midnightblue" points="94.2158,-232.164 104.65,-230.326 95.3474,-225.256 94.2158,-232.164"/>
</g>
<!-- Node5 -->
<g id="node5" class="node"><title>Node5</title>
<g id="a_node5"><a xlink:href="group__shapes__2d.html#ga84e0a2811547e6c658909671d9e2bc0b" target="_top" xlink:title="A right&#45;angled triangle specified by a side length and an angle. ">
<polygon fill="white" stroke="black" points="120.5,-171.5 120.5,-190.5 184.5,-190.5 184.5,-171.5 120.5,-171.5"/>
<text text-anchor="middle" x="152.5" y="-178.5" font-family="Helvetica,sans-Serif" font-size="10.00">triangle_sa</text>
</a>
</g>
</g>
<!-- Node1&#45;&gt;Node5 -->
<g id="edge4" class="edge"><title>Node1&#45;&gt;Node5</title>
<path fill="none" stroke="midnightblue" d="M64.7717,-209.411C79.1967,-204.686 96.7934,-198.921 112.357,-193.823"/>
<polygon fill="midnightblue" stroke="midnightblue" points="113.824,-197.025 122.238,-190.586 111.645,-190.373 113.824,-197.025"/>
</g>
<!-- Node3 -->
<g id="node3" class="node"><title>Node3</title>
<g id="a_node3"><a xlink:href="group__datatypes__identify__scalar.html#ga62dbd35f498bfc2a090812b1cf8a37c4" target="_top" xlink:title="Test if a value is not defined. ">
<polygon fill="white" stroke="black" points="237,-266.5 237,-285.5 304,-285.5 304,-266.5 237,-266.5"/>
<text text-anchor="middle" x="270.5" y="-273.5" font-family="Helvetica,sans-Serif" font-size="10.00">not_defined</text>
</a>
</g>
</g>
<!-- Node2&#45;&gt;Node3 -->
<g id="edge2" class="edge"><title>Node2&#45;&gt;Node3</title>
<path fill="none" stroke="midnightblue" d="M182.772,-247.589C197.197,-252.314 214.793,-258.079 230.357,-263.177"/>
<polygon fill="midnightblue" stroke="midnightblue" points="229.645,-266.627 240.238,-266.414 231.824,-259.975 229.645,-266.627"/>
</g>
<!-- Node4 -->
<g id="node4" class="node"><title>Node4</title>
<g id="a_node4"><a xlink:href="group__datatypes__identify__scalar.html#ga258e8911375d30ff85a6e52df01dc1c5" target="_top" xlink:title="Test if a value is a single non&#45;iterable value. ">
<polygon fill="white" stroke="black" points="242.5,-228.5 242.5,-247.5 298.5,-247.5 298.5,-228.5 242.5,-228.5"/>
<text text-anchor="middle" x="270.5" y="-235.5" font-family="Helvetica,sans-Serif" font-size="10.00">is_scalar</text>
</a>
</g>
</g>
<!-- Node2&#45;&gt;Node4 -->
<g id="edge3" class="edge"><title>Node2&#45;&gt;Node4</title>
<path fill="none" stroke="midnightblue" d="M200.013,-238C210.679,-238 221.885,-238 232.109,-238"/>
<polygon fill="midnightblue" stroke="midnightblue" points="232.344,-241.5 242.344,-238 232.344,-234.5 232.344,-241.5"/>
</g>
<!-- Node6 -->
<g id="node6" class="node"><title>Node6</title>
<g id="a_node6"><a xlink:href="group__datatypes__operate__scalar.html#gac119300e8c83de0037f2d0a4d9f0ab5c" target="_top" xlink:title="Return a value when it is defined or a default value when it is not. ">
<polygon fill="white" stroke="black" points="364.5,-190.5 364.5,-209.5 426.5,-209.5 426.5,-190.5 364.5,-190.5"/>
<text text-anchor="middle" x="395.5" y="-197.5" font-family="Helvetica,sans-Serif" font-size="10.00">defined_or</text>
</a>
</g>
</g>
<!-- Node5&#45;&gt;Node6 -->
<g id="edge5" class="edge"><title>Node5&#45;&gt;Node6</title>
<path fill="none" stroke="midnightblue" d="M184.513,-183.445C227.862,-186.863 306.607,-193.071 354.375,-196.837"/>
<polygon fill="midnightblue" stroke="midnightblue" points="354.12,-200.327 364.364,-197.624 354.67,-193.349 354.12,-200.327"/>
</g>
<!-- Node7 -->
<g id="node7" class="node"><title>Node7</title>
<g id="a_node7"><a xlink:href="group__datatypes__identify__scalar.html#ga51d7fdb800c10f4b7479d23b89ab8d22" target="_top" xlink:title="Test if a value is defined. ">
<polygon fill="white" stroke="black" points="240,-152.5 240,-171.5 301,-171.5 301,-152.5 240,-152.5"/>
<text text-anchor="middle" x="270.5" y="-159.5" font-family="Helvetica,sans-Serif" font-size="10.00">is_defined</text>
</a>
</g>
</g>
<!-- Node5&#45;&gt;Node7 -->
<g id="edge6" class="edge"><title>Node5&#45;&gt;Node7</title>
<path fill="none" stroke="midnightblue" d="M184.586,-175.908C198.545,-173.622 215.176,-170.898 230.005,-168.469"/>
<polygon fill="midnightblue" stroke="midnightblue" points="230.625,-171.914 239.928,-166.844 229.494,-165.006 230.625,-171.914"/>
</g>
<!-- Node8 -->
<g id="node8" class="node"><title>Node8</title>
<g id="a_node8"><a xlink:href="group__shapes__2d.html#ga33d2a7677306c346ad6be5a488885d86" target="_top" xlink:title="A general triangle specified by three vertices. ">
<polygon fill="white" stroke="black" points="236,-114.5 236,-133.5 305,-133.5 305,-114.5 236,-114.5"/>
<text text-anchor="middle" x="270.5" y="-121.5" font-family="Helvetica,sans-Serif" font-size="10.00">triangle_ppp</text>
</a>
</g>
</g>
<!-- Node5&#45;&gt;Node8 -->
<g id="edge7" class="edge"><title>Node5&#45;&gt;Node8</title>
<path fill="none" stroke="midnightblue" d="M172.916,-171.459C191.485,-162.335 219.71,-148.466 240.861,-138.073"/>
<polygon fill="midnightblue" stroke="midnightblue" points="242.589,-141.123 250.021,-133.572 239.502,-134.841 242.589,-141.123"/>
</g>
<!-- Node8&#45;&gt;Node6 -->
<g id="edge8" class="edge"><title>Node8&#45;&gt;Node6</title>
<path fill="none" stroke="midnightblue" d="M290.557,-133.517C295.45,-136.302 300.577,-139.538 305,-143 323.319,-157.34 321.5,-168.312 341,-181 345.33,-183.817 350.129,-186.277 355.023,-188.408"/>
<polygon fill="midnightblue" stroke="midnightblue" points="353.869,-191.715 364.456,-192.108 356.425,-185.198 353.869,-191.715"/>
</g>
<!-- Node9 -->
<g id="node9" class="node"><title>Node9</title>
<g id="a_node9"><a xlink:href="group__math__triangle.html#ga6eb5bfb1ae077d0db22e41c142233be0" target="_top" xlink:title="Compute the coordinate for the triangle&#39;s incircle. ">
<polygon fill="white" stroke="black" points="341,-152.5 341,-171.5 450,-171.5 450,-152.5 341,-152.5"/>
<text text-anchor="middle" x="395.5" y="-159.5" font-family="Helvetica,sans-Serif" font-size="10.00">triangle_incenter_ppp</text>
</a>
</g>
</g>
<!-- Node8&#45;&gt;Node9 -->
<g id="edge9" class="edge"><title>Node8&#45;&gt;Node9</title>
<path fill="none" stroke="midnightblue" d="M302.538,-133.589C317.979,-138.359 336.848,-144.189 353.466,-149.323"/>
<polygon fill="midnightblue" stroke="midnightblue" points="352.884,-152.806 363.472,-152.414 354.951,-146.118 352.884,-152.806"/>
</g>
<!-- Node10 -->
<g id="node10" class="node"><title>Node10</title>
<g id="a_node10"><a xlink:href="group__math__triangle.html#ga7c94003074f622d6421a665207cafbd7" target="_top" xlink:title="Compute the centroid (geometric center) of a triangle. ">
<polygon fill="white" stroke="black" points="341,-114.5 341,-133.5 450,-133.5 450,-114.5 341,-114.5"/>
<text text-anchor="middle" x="395.5" y="-121.5" font-family="Helvetica,sans-Serif" font-size="10.00">triangle_centroid_ppp</text>
</a>
</g>
</g>
<!-- Node8&#45;&gt;Node10 -->
<g id="edge10" class="edge"><title>Node8&#45;&gt;Node10</title>
<path fill="none" stroke="midnightblue" d="M305.11,-124C312.983,-124 321.63,-124 330.348,-124"/>
<polygon fill="midnightblue" stroke="midnightblue" points="330.573,-127.5 340.573,-124 330.573,-120.5 330.573,-127.5"/>
</g>
<!-- Node11 -->
<g id="node11" class="node"><title>Node11</title>
<g id="a_node11"><a xlink:href="group__datatypes__identify__iterable.html#ga6dc7861bf5a7777bfb33876493107d75" target="_top" xlink:title="Test if any element of a list of values is undefined. ">
<polygon fill="white" stroke="black" points="355.5,-76.5 355.5,-95.5 435.5,-95.5 435.5,-76.5 355.5,-76.5"/>
<text text-anchor="middle" x="395.5" y="-83.5" font-family="Helvetica,sans-Serif" font-size="10.00">any_undefined</text>
</a>
</g>
</g>
<!-- Node8&#45;&gt;Node11 -->
<g id="edge11" class="edge"><title>Node8&#45;&gt;Node11</title>
<path fill="none" stroke="midnightblue" d="M302.538,-114.411C317.979,-109.641 336.848,-103.811 353.466,-98.6771"/>
<polygon fill="midnightblue" stroke="midnightblue" points="354.951,-101.882 363.472,-95.5859 352.884,-95.1937 354.951,-101.882"/>
</g>
<!-- Node12 -->
<g id="node12" class="node"><title>Node12</title>
<g id="a_node12"><a xlink:href="group__math__vector__algebra.html#ga3a0c4c75047b8003ab09286a77a58c86" target="_top" xlink:title="Compute the angle between two lines (or vectors) in a Euclidean 3d or 2d&#45;space. ">
<polygon fill="white" stroke="black" points="370.5,-38.5 370.5,-57.5 420.5,-57.5 420.5,-38.5 370.5,-38.5"/>
<text text-anchor="middle" x="395.5" y="-45.5" font-family="Helvetica,sans-Serif" font-size="10.00">angle_ll</text>
</a>
</g>
</g>
<!-- Node8&#45;&gt;Node12 -->
<g id="edge12" class="edge"><title>Node8&#45;&gt;Node12</title>
<path fill="none" stroke="midnightblue" d="M281.047,-114.312C293.746,-101.886 317.357,-80.3518 341,-67 347.112,-63.5482 353.964,-60.5465 360.672,-58.0116"/>
<polygon fill="midnightblue" stroke="midnightblue" points="362.016,-61.2491 370.292,-54.6336 359.697,-54.6444 362.016,-61.2491"/>
</g>
<!-- Node13 -->
<g id="node13" class="node"><title>Node13</title>
<g id="a_node13"><a xlink:href="group__math__vector__algebra.html#gaa71caf02a1433e6c84d61d13d12aa581" target="_top" xlink:title="Compute the normalized unit vector of a Euclidean line (or vector). ">
<polygon fill="white" stroke="black" points="375.5,-0.5 375.5,-19.5 415.5,-19.5 415.5,-0.5 375.5,-0.5"/>
<text text-anchor="middle" x="395.5" y="-7.5" font-family="Helvetica,sans-Serif" font-size="10.00">unit_l</text>
</a>
</g>
</g>
<!-- Node8&#45;&gt;Node13 -->
<g id="edge13" class="edge"><title>Node8&#45;&gt;Node13</title>
<path fill="none" stroke="midnightblue" d="M276.014,-114.444C285.445,-95.4649 309.042,-52.8047 341,-29 348.272,-23.583 357.227,-19.6057 365.716,-16.7328"/>
<polygon fill="midnightblue" stroke="midnightblue" points="366.765,-20.0722 375.338,-13.8475 364.754,-13.3672 366.765,-20.0722"/>
</g>
</g>
</svg>
