<?xml version="1.0" encoding="UTF-8" standalone="no"?>
<!DOCTYPE svg PUBLIC "-//W3C//DTD SVG 1.1//EN"
 "http://www.w3.org/Graphics/SVG/1.1/DTD/svg11.dtd">
<!-- Generated by graphviz version 2.38.0 (20140413.2041)
 -->
<!-- Title: is_nan Pages: 1 -->
<svg width="491pt" height="332pt"
 viewBox="0.00 0.00 491.00 332.00" xmlns="http://www.w3.org/2000/svg" xmlns:xlink="http://www.w3.org/1999/xlink">
<g id="graph0" class="graph" transform="scale(1 1) rotate(0) translate(4 328)">
<title>is_nan</title>
<polygon fill="white" stroke="none" points="-4,4 -4,-328 487,-328 487,4 -4,4"/>
<!-- Node1 -->
<g id="node1" class="node"><title>Node1</title>
<polygon fill="#bfbfbf" stroke="black" points="0,-95.5 0,-114.5 45,-114.5 45,-95.5 0,-95.5"/>
<text text-anchor="middle" x="22.5" y="-102.5" font-family="Helvetica,sans-Serif" font-size="10.00">is_nan</text>
</g>
<!-- Node2 -->
<g id="node2" class="node"><title>Node2</title>
<g id="a_node2"><a xlink:href="group__shapes__2d.html#gab40e6edfc3c5ab69a4db26301318cd86" target="_top" xlink:title="A general triangle specified by its three side lengths. ">
<polygon fill="white" stroke="black" points="81,-95.5 81,-114.5 150,-114.5 150,-95.5 81,-95.5"/>
<text text-anchor="middle" x="115.5" y="-102.5" font-family="Helvetica,sans-Serif" font-size="10.00">triangle_sss</text>
</a>
</g>
</g>
<!-- Node1&#45;&gt;Node2 -->
<g id="edge1" class="edge"><title>Node1&#45;&gt;Node2</title>
<path fill="none" stroke="midnightblue" d="M55.1741,-105C63.52,-105 72.5515,-105 80.9905,-105"/>
<polygon fill="midnightblue" stroke="midnightblue" points="55.0658,-101.5 45.0657,-105 55.0657,-108.5 55.0658,-101.5"/>
</g>
<!-- Node3 -->
<g id="node3" class="node"><title>Node3</title>
<g id="a_node3"><a xlink:href="group__shapes__2d.html#ga5321277acf52177e1c7928c13377dd00" target="_top" xlink:title="A general triangle specified by a list of its three side lengths. ">
<polygon fill="white" stroke="black" points="192.5,-209.5 192.5,-228.5 253.5,-228.5 253.5,-209.5 192.5,-209.5"/>
<text text-anchor="middle" x="223" y="-216.5" font-family="Helvetica,sans-Serif" font-size="10.00">triangle_ls</text>
</a>
</g>
</g>
<!-- Node2&#45;&gt;Node3 -->
<g id="edge2" class="edge"><title>Node2&#45;&gt;Node3</title>
<path fill="none" stroke="midnightblue" d="M132.458,-122.626C146.489,-138.082 167.499,-161.123 186,-181 195.04,-190.712 205.478,-201.706 212.779,-209.361"/>
<polygon fill="midnightblue" stroke="midnightblue" points="134.752,-119.946 125.442,-114.889 129.566,-124.648 134.752,-119.946"/>
</g>
<!-- Node10 -->
<g id="node10" class="node"><title>Node10</title>
<g id="a_node10"><a xlink:href="group__shapes__2d.html#gac6b0e8a6784a03e427d8b14eee7d90ca" target="_top" xlink:title="A general triangle specified by two sides and the included angle. ">
<polygon fill="white" stroke="black" points="188.5,-152.5 188.5,-171.5 257.5,-171.5 257.5,-152.5 188.5,-152.5"/>
<text text-anchor="middle" x="223" y="-159.5" font-family="Helvetica,sans-Serif" font-size="10.00">triangle_sas</text>
</a>
</g>
</g>
<!-- Node2&#45;&gt;Node10 -->
<g id="edge9" class="edge"><title>Node2&#45;&gt;Node10</title>
<path fill="none" stroke="midnightblue" d="M142.757,-119.475C155.744,-126.604 171.67,-135.302 186,-143 191.727,-146.077 197.988,-149.396 203.658,-152.386"/>
<polygon fill="midnightblue" stroke="midnightblue" points="144.334,-116.348 133.884,-114.597 140.961,-122.482 144.334,-116.348"/>
</g>
<!-- Node12 -->
<g id="node12" class="node"><title>Node12</title>
<g id="a_node12"><a xlink:href="group__shapes__2d.html#gaaefcea1b06acb7b1633e86f657341701" target="_top" xlink:title="A general triangle specified by a side and two adjacent angles. ">
<polygon fill="white" stroke="black" points="188.5,-114.5 188.5,-133.5 257.5,-133.5 257.5,-114.5 188.5,-114.5"/>
<text text-anchor="middle" x="223" y="-121.5" font-family="Helvetica,sans-Serif" font-size="10.00">triangle_asa</text>
</a>
</g>
</g>
<!-- Node2&#45;&gt;Node12 -->
<g id="edge11" class="edge"><title>Node2&#45;&gt;Node12</title>
<path fill="none" stroke="midnightblue" d="M160.151,-112.861C169.546,-114.553 179.339,-116.317 188.287,-117.928"/>
<polygon fill="midnightblue" stroke="midnightblue" points="160.633,-109.392 150.171,-111.064 159.392,-116.281 160.633,-109.392"/>
</g>
<!-- Node14 -->
<g id="node14" class="node"><title>Node14</title>
<g id="a_node14"><a xlink:href="group__shapes__2d.html#gad0730473c871f346877e8ef91e2bdfd4" target="_top" xlink:title="A general triangle specified by a side, one adjacent angle and the opposite angle. ">
<polygon fill="white" stroke="black" points="188.5,-76.5 188.5,-95.5 257.5,-95.5 257.5,-76.5 188.5,-76.5"/>
<text text-anchor="middle" x="223" y="-83.5" font-family="Helvetica,sans-Serif" font-size="10.00">triangle_aas</text>
</a>
</g>
</g>
<!-- Node2&#45;&gt;Node14 -->
<g id="edge13" class="edge"><title>Node2&#45;&gt;Node14</title>
<path fill="none" stroke="midnightblue" d="M160.151,-97.1386C169.546,-95.4466 179.339,-93.6831 188.287,-92.0715"/>
<polygon fill="midnightblue" stroke="midnightblue" points="159.392,-93.7189 150.171,-98.936 160.633,-100.608 159.392,-93.7189"/>
</g>
<!-- Node16 -->
<g id="node16" class="node"><title>Node16</title>
<g id="a_node16"><a xlink:href="group__shapes__2de.html#ga4940596130c3cd1e62fea77569459a52" target="_top" xlink:title="An extruded general triangle specified by its three side lengths. ">
<polygon fill="white" stroke="black" points="186,-38.5 186,-57.5 260,-57.5 260,-38.5 186,-38.5"/>
<text text-anchor="middle" x="223" y="-45.5" font-family="Helvetica,sans-Serif" font-size="10.00">etriangle_sss</text>
</a>
</g>
</g>
<!-- Node2&#45;&gt;Node16 -->
<g id="edge15" class="edge"><title>Node2&#45;&gt;Node16</title>
<path fill="none" stroke="midnightblue" d="M142.757,-90.5251C155.744,-83.3957 171.67,-74.6984 186,-67 191.727,-63.923 197.988,-60.6037 203.658,-57.6137"/>
<polygon fill="midnightblue" stroke="midnightblue" points="140.961,-87.5181 133.884,-95.4026 144.334,-93.6524 140.961,-87.5181"/>
</g>
<!-- Node17 -->
<g id="node17" class="node"><title>Node17</title>
<g id="a_node17"><a xlink:href="group__shapes__3d.html#ga66f0c4a748f33cc1fff3343655b17f45" target="_top" xlink:title="A cone. ">
<polygon fill="white" stroke="black" points="204,-0.5 204,-19.5 242,-19.5 242,-0.5 204,-0.5"/>
<text text-anchor="middle" x="223" y="-7.5" font-family="Helvetica,sans-Serif" font-size="10.00">cone</text>
</a>
</g>
</g>
<!-- Node2&#45;&gt;Node17 -->
<g id="edge16" class="edge"><title>Node2&#45;&gt;Node17</title>
<path fill="none" stroke="midnightblue" d="M130.114,-86.8373C143.15,-70.3093 164.034,-45.9714 186,-29 191.369,-24.852 197.773,-21.1431 203.682,-18.1274"/>
<polygon fill="midnightblue" stroke="midnightblue" points="127.061,-85.0646 123.722,-95.1196 132.603,-89.3414 127.061,-85.0646"/>
</g>
<!-- Node4 -->
<g id="node4" class="node"><title>Node4</title>
<g id="a_node4"><a xlink:href="group__shapes__2d.html#ga7eefb280ad124a8d35eb4218e5f0bdad" target="_top" xlink:title="A general triangle specified by its sides with a removed triangular core. ">
<polygon fill="white" stroke="black" points="297.5,-266.5 297.5,-285.5 368.5,-285.5 368.5,-266.5 297.5,-266.5"/>
<text text-anchor="middle" x="333" y="-273.5" font-family="Helvetica,sans-Serif" font-size="10.00">triangle_ls_c</text>
</a>
</g>
</g>
<!-- Node3&#45;&gt;Node4 -->
<g id="edge3" class="edge"><title>Node3&#45;&gt;Node4</title>
<path fill="none" stroke="midnightblue" d="M251.384,-233.453C271.003,-243.807 296.872,-257.46 313.95,-266.474"/>
<polygon fill="midnightblue" stroke="midnightblue" points="252.798,-230.242 242.321,-228.669 249.531,-236.432 252.798,-230.242"/>
</g>
<!-- Node7 -->
<g id="node7" class="node"><title>Node7</title>
<g id="a_node7"><a xlink:href="group__shapes__2d.html#ga7452bf5414a3677ec806a31aed6b61dd" target="_top" xlink:title="A two&#45;dimensional star. ">
<polygon fill="white" stroke="black" points="311,-228.5 311,-247.5 355,-247.5 355,-228.5 311,-228.5"/>
<text text-anchor="middle" x="333" y="-235.5" font-family="Helvetica,sans-Serif" font-size="10.00">star2d</text>
</a>
</g>
</g>
<!-- Node3&#45;&gt;Node7 -->
<g id="edge6" class="edge"><title>Node3&#45;&gt;Node7</title>
<path fill="none" stroke="midnightblue" d="M263.662,-225.978C279.6,-228.782 297.335,-231.902 310.743,-234.26"/>
<polygon fill="midnightblue" stroke="midnightblue" points="263.967,-222.478 253.511,-224.192 262.754,-229.372 263.967,-222.478"/>
</g>
<!-- Node9 -->
<g id="node9" class="node"><title>Node9</title>
<g id="a_node9"><a xlink:href="group__shapes__2de.html#gace35f9581cef6d5c20c3fd1d922284d1" target="_top" xlink:title="An extruded general triangle specified by a list of its three side lengths. ">
<polygon fill="white" stroke="black" points="300,-190.5 300,-209.5 366,-209.5 366,-190.5 300,-190.5"/>
<text text-anchor="middle" x="333" y="-197.5" font-family="Helvetica,sans-Serif" font-size="10.00">etriangle_ls</text>
</a>
</g>
</g>
<!-- Node3&#45;&gt;Node9 -->
<g id="edge8" class="edge"><title>Node3&#45;&gt;Node9</title>
<path fill="none" stroke="midnightblue" d="M263.662,-212.022C275.581,-209.926 288.504,-207.652 299.871,-205.652"/>
<polygon fill="midnightblue" stroke="midnightblue" points="262.754,-208.628 253.511,-213.808 263.967,-215.522 262.754,-208.628"/>
</g>
<!-- Node5 -->
<g id="node5" class="node"><title>Node5</title>
<g id="a_node5"><a xlink:href="group__shapes__2de.html#ga0c99582ccf3d5b1425c99001b228c202" target="_top" xlink:title="A general triangle specified by its sides with a removed triangular core. ">
<polygon fill="white" stroke="black" points="406,-304.5 406,-323.5 483,-323.5 483,-304.5 406,-304.5"/>
<text text-anchor="middle" x="444.5" y="-311.5" font-family="Helvetica,sans-Serif" font-size="10.00">etriangle_ls_c</text>
</a>
</g>
</g>
<!-- Node4&#45;&gt;Node5 -->
<g id="edge4" class="edge"><title>Node4&#45;&gt;Node5</title>
<path fill="none" stroke="midnightblue" d="M371.379,-288.972C385.968,-294.034 402.392,-299.734 415.877,-304.414"/>
<polygon fill="midnightblue" stroke="midnightblue" points="372.226,-285.561 361.631,-285.589 369.931,-292.174 372.226,-285.561"/>
</g>
<!-- Node6 -->
<g id="node6" class="node"><title>Node6</title>
<g id="a_node6"><a xlink:href="group__shapes__3d.html#gaa3137155089f4d50c13ebea05402edd0" target="_top" xlink:title="A triangular cross&#45;sectional profile revolved about the z&#45;axis. ">
<polygon fill="white" stroke="black" points="418.5,-266.5 418.5,-285.5 470.5,-285.5 470.5,-266.5 418.5,-266.5"/>
<text text-anchor="middle" x="444.5" y="-273.5" font-family="Helvetica,sans-Serif" font-size="10.00">torus_tp</text>
</a>
</g>
</g>
<!-- Node4&#45;&gt;Node6 -->
<g id="edge5" class="edge"><title>Node4&#45;&gt;Node6</title>
<path fill="none" stroke="midnightblue" d="M378.776,-276C392.312,-276 406.69,-276 418.447,-276"/>
<polygon fill="midnightblue" stroke="midnightblue" points="378.647,-272.5 368.646,-276 378.646,-279.5 378.647,-272.5"/>
</g>
<!-- Node8 -->
<g id="node8" class="node"><title>Node8</title>
<g id="a_node8"><a xlink:href="group__shapes__2de.html#ga69ece32102ccb27e9985975fa4590251" target="_top" xlink:title="An extruded two&#45;dimensional star. ">
<polygon fill="white" stroke="black" points="420,-228.5 420,-247.5 469,-247.5 469,-228.5 420,-228.5"/>
<text text-anchor="middle" x="444.5" y="-235.5" font-family="Helvetica,sans-Serif" font-size="10.00">estar2d</text>
</a>
</g>
</g>
<!-- Node7&#45;&gt;Node8 -->
<g id="edge7" class="edge"><title>Node7&#45;&gt;Node8</title>
<path fill="none" stroke="midnightblue" d="M365.324,-238C382.655,-238 403.846,-238 419.791,-238"/>
<polygon fill="midnightblue" stroke="midnightblue" points="365.113,-234.5 355.113,-238 365.113,-241.5 365.113,-234.5"/>
</g>
<!-- Node11 -->
<g id="node11" class="node"><title>Node11</title>
<g id="a_node11"><a xlink:href="group__shapes__2de.html#gae4dc22fae0c22daa5d4844755cd268ac" target="_top" xlink:title="An extruded general triangle specified by two sides and the included angle. ">
<polygon fill="white" stroke="black" points="296,-152.5 296,-171.5 370,-171.5 370,-152.5 296,-152.5"/>
<text text-anchor="middle" x="333" y="-159.5" font-family="Helvetica,sans-Serif" font-size="10.00">etriangle_sas</text>
</a>
</g>
</g>
<!-- Node10&#45;&gt;Node11 -->
<g id="edge10" class="edge"><title>Node10&#45;&gt;Node11</title>
<path fill="none" stroke="midnightblue" d="M267.836,-162C277.131,-162 286.844,-162 295.817,-162"/>
<polygon fill="midnightblue" stroke="midnightblue" points="267.58,-158.5 257.58,-162 267.58,-165.5 267.58,-158.5"/>
</g>
<!-- Node13 -->
<g id="node13" class="node"><title>Node13</title>
<g id="a_node13"><a xlink:href="group__shapes__2de.html#ga5b1240a97e34583d10011e5d0044ca28" target="_top" xlink:title="An extruded general triangle specified by a side and two adjacent angles. ">
<polygon fill="white" stroke="black" points="296,-114.5 296,-133.5 370,-133.5 370,-114.5 296,-114.5"/>
<text text-anchor="middle" x="333" y="-121.5" font-family="Helvetica,sans-Serif" font-size="10.00">etriangle_asa</text>
</a>
</g>
</g>
<!-- Node12&#45;&gt;Node13 -->
<g id="edge12" class="edge"><title>Node12&#45;&gt;Node13</title>
<path fill="none" stroke="midnightblue" d="M267.836,-124C277.131,-124 286.844,-124 295.817,-124"/>
<polygon fill="midnightblue" stroke="midnightblue" points="267.58,-120.5 257.58,-124 267.58,-127.5 267.58,-120.5"/>
</g>
<!-- Node15 -->
<g id="node15" class="node"><title>Node15</title>
<g id="a_node15"><a xlink:href="group__shapes__2de.html#ga8a3300cf4ca82dad9002965960a76a9c" target="_top" xlink:title="An extruded general triangle specified by a side, one adjacent angle and the opposite angle...">
<polygon fill="white" stroke="black" points="296,-76.5 296,-95.5 370,-95.5 370,-76.5 296,-76.5"/>
<text text-anchor="middle" x="333" y="-83.5" font-family="Helvetica,sans-Serif" font-size="10.00">etriangle_aas</text>
</a>
</g>
</g>
<!-- Node14&#45;&gt;Node15 -->
<g id="edge14" class="edge"><title>Node14&#45;&gt;Node15</title>
<path fill="none" stroke="midnightblue" d="M267.836,-86C277.131,-86 286.844,-86 295.817,-86"/>
<polygon fill="midnightblue" stroke="midnightblue" points="267.58,-82.5001 257.58,-86 267.58,-89.5001 267.58,-82.5001"/>
</g>
</g>
</svg>
