<?xml version="1.0" encoding="UTF-8" standalone="no"?>
<!DOCTYPE svg PUBLIC "-//W3C//DTD SVG 1.1//EN"
 "http://www.w3.org/Graphics/SVG/1.1/DTD/svg11.dtd">
<!-- Generated by graphviz version 2.38.0 (20140413.2041)
 -->
<!-- Title: rotate_extrude_tr Pages: 1 -->
<svg width="319pt" height="104pt"
 viewBox="0.00 0.00 319.00 104.00" xmlns="http://www.w3.org/2000/svg" xmlns:xlink="http://www.w3.org/1999/xlink">
<g id="graph0" class="graph" transform="scale(1 1) rotate(0) translate(4 100)">
<title>rotate_extrude_tr</title>
<polygon fill="white" stroke="none" points="-4,4 -4,-100 315,-100 315,4 -4,4"/>
<!-- Node1 -->
<g id="node1" class="node"><title>Node1</title>
<polygon fill="#bfbfbf" stroke="black" points="0,-38.5 0,-57.5 90,-57.5 90,-38.5 0,-38.5"/>
<text text-anchor="middle" x="45" y="-45.5" font-family="Helvetica,sans-Serif" font-size="10.00">rotate_extrude_tr</text>
</g>
<!-- Node2 -->
<g id="node2" class="node"><title>Node2</title>
<g id="a_node2"><a xlink:href="group__tools__extrude.html#gaf0e13f98be7287f0157f2026db5e52d3" target="_top" xlink:title="Translate, rotate, and revolve the 2d shape about the z&#45;axis with linear elongation. ">
<polygon fill="white" stroke="black" points="126,-38.5 126,-57.5 221,-57.5 221,-38.5 126,-38.5"/>
<text text-anchor="middle" x="173.5" y="-45.5" font-family="Helvetica,sans-Serif" font-size="10.00">rotate_extrude_tre</text>
</a>
</g>
</g>
<!-- Node1&#45;&gt;Node2 -->
<g id="edge1" class="edge"><title>Node1&#45;&gt;Node2</title>
<path fill="none" stroke="midnightblue" d="M100.444,-48C108.929,-48 117.629,-48 125.918,-48"/>
<polygon fill="midnightblue" stroke="midnightblue" points="100.244,-44.5001 90.2436,-48 100.244,-51.5001 100.244,-44.5001"/>
</g>
<!-- Node3 -->
<g id="node3" class="node"><title>Node3</title>
<g id="a_node3"><a xlink:href="group__shapes__3d.html#gac521ba184d6ac7693df4db67df2499b8" target="_top" xlink:title="A rectangular cross&#45;sectional profile revolved about the z&#45;axis. ">
<polygon fill="white" stroke="black" points="258,-76.5 258,-95.5 310,-95.5 310,-76.5 258,-76.5"/>
<text text-anchor="middle" x="284" y="-83.5" font-family="Helvetica,sans-Serif" font-size="10.00">torus_rp</text>
</a>
</g>
</g>
<!-- Node2&#45;&gt;Node3 -->
<g id="edge2" class="edge"><title>Node2&#45;&gt;Node3</title>
<path fill="none" stroke="midnightblue" d="M211.56,-60.9796C226.825,-66.3257 244.114,-72.3811 257.861,-77.1955"/>
<polygon fill="midnightblue" stroke="midnightblue" points="212.474,-57.5912 201.879,-57.589 210.16,-64.1978 212.474,-57.5912"/>
</g>
<!-- Node4 -->
<g id="node4" class="node"><title>Node4</title>
<g id="a_node4"><a xlink:href="group__shapes__3d.html#gaa3137155089f4d50c13ebea05402edd0" target="_top" xlink:title="A triangular cross&#45;sectional profile revolved about the z&#45;axis. ">
<polygon fill="white" stroke="black" points="258,-38.5 258,-57.5 310,-57.5 310,-38.5 258,-38.5"/>
<text text-anchor="middle" x="284" y="-45.5" font-family="Helvetica,sans-Serif" font-size="10.00">torus_tp</text>
</a>
</g>
</g>
<!-- Node2&#45;&gt;Node4 -->
<g id="edge3" class="edge"><title>Node2&#45;&gt;Node4</title>
<path fill="none" stroke="midnightblue" d="M231.279,-48C240.632,-48 249.884,-48 257.921,-48"/>
<polygon fill="midnightblue" stroke="midnightblue" points="231.143,-44.5001 221.143,-48 231.143,-51.5001 231.143,-44.5001"/>
</g>
<!-- Node5 -->
<g id="node5" class="node"><title>Node5</title>
<g id="a_node5"><a xlink:href="group__shapes__3d.html#gaf5589d4cfa40aefb7853b4eebc792312" target="_top" xlink:title="An elliptical cross&#45;sectional profile revolved about the z&#45;axis. ">
<polygon fill="white" stroke="black" points="257,-0.5 257,-19.5 311,-19.5 311,-0.5 257,-0.5"/>
<text text-anchor="middle" x="284" y="-7.5" font-family="Helvetica,sans-Serif" font-size="10.00">torus_ep</text>
</a>
</g>
</g>
<!-- Node2&#45;&gt;Node5 -->
<g id="edge4" class="edge"><title>Node2&#45;&gt;Node5</title>
<path fill="none" stroke="midnightblue" d="M211.341,-35.0973C226.252,-29.8749 243.126,-23.9651 256.752,-19.1927"/>
<polygon fill="midnightblue" stroke="midnightblue" points="210.16,-31.8022 201.879,-38.411 212.474,-38.4088 210.16,-31.8022"/>
</g>
</g>
</svg>
