<?xml version="1.0" encoding="UTF-8" standalone="no"?>
<!DOCTYPE svg PUBLIC "-//W3C//DTD SVG 1.1//EN"
 "http://www.w3.org/Graphics/SVG/1.1/DTD/svg11.dtd">
<!-- Generated by graphviz version 2.38.0 (20140413.2041)
 -->
<!-- Title: Linear Algebra Pages: 1 -->
<svg width="418pt" height="37pt"
 viewBox="0.00 0.00 418.00 36.81" xmlns="http://www.w3.org/2000/svg" xmlns:xlink="http://www.w3.org/1999/xlink">
<g id="graph0" class="graph" transform="scale(1 1) rotate(0) translate(4 32.8105)">
<title>Linear Algebra</title>
<polygon fill="white" stroke="none" points="-4,4 -4,-32.8105 414,-32.8105 414,4 -4,4"/>
<!-- Node1 -->
<g id="node1" class="node"><title>Node1</title>
<g id="a_node1"><a xlink:href="group__math.html" target="_top" xlink:title="Mathematical functions. ">
<polygon fill="white" stroke="black" points="0,-8.31048 0,-27.3105 38,-27.3105 38,-8.31048 0,-8.31048"/>
<text text-anchor="middle" x="19" y="-15.3105" font-family="Helvetica,sans-Serif" font-size="10.00">Math</text>
</a>
</g>
</g>
<!-- Node0 -->
<g id="node2" class="node"><title>Node0</title>
<polygon fill="#bfbfbf" stroke="black" points="144,-8.31048 144,-27.3105 223,-27.3105 223,-8.31048 144,-8.31048"/>
<text text-anchor="middle" x="183.5" y="-15.3105" font-family="Helvetica,sans-Serif" font-size="10.00">Linear Algebra</text>
</g>
<!-- Node1&#45;&gt;Node0 -->
<g id="edge1" class="edge"><title>Node1&#45;&gt;Node0</title>
<path fill="none" stroke="black" d="M48.1121,-17.8105C74.5406,-17.8105 114.329,-17.8105 143.759,-17.8105"/>
<polygon fill="black" stroke="black" points="48.0113,-14.3106 38.0112,-17.8105 48.0112,-21.3106 48.0113,-14.3106"/>
</g>
<!-- Node0&#45;&gt;Node1 -->
<g id="edge2" class="edge"><title>Node0&#45;&gt;Node1</title>
<path fill="none" stroke="darkgreen" stroke-dasharray="5,2" d="M149.887,-8.30257C142.126,-6.43814 133.824,-4.76543 126,-3.81048 95.118,-0.0413863 86.5777,1.92593 56,-3.81048 50.0681,-4.92331 43.8576,-6.98403 38.2976,-9.18861"/>
<text text-anchor="middle" x="91" y="-6.81048" font-family="Helvetica,sans-Serif" font-size="10.00">math&#45;base.scad</text>
</g>
<!-- Node2 -->
<g id="node3" class="node"><title>Node2</title>
<g id="a_node3"><a xlink:href="group__math__vector__algebra.html" target="_top" xlink:title="Algebraic operations on Euclidean vectors. ">
<polygon fill="white" stroke="black" points="329,-8.31048 329,-27.3105 410,-27.3105 410,-8.31048 329,-8.31048"/>
<text text-anchor="middle" x="369.5" y="-15.3105" font-family="Helvetica,sans-Serif" font-size="10.00">Vector Algebra</text>
</a>
</g>
</g>
<!-- Node0&#45;&gt;Node2 -->
<g id="edge3" class="edge"><title>Node0&#45;&gt;Node2</title>
<path fill="none" stroke="darkgreen" stroke-dasharray="5,2" d="M223.072,-17.8105C254.054,-17.8105 297.407,-17.8105 328.708,-17.8105"/>
<text text-anchor="middle" x="276" y="-20.8105" font-family="Helvetica,sans-Serif" font-size="10.00">math&#45;base.scad</text>
</g>
</g>
</svg>
