<?xml version="1.0" encoding="UTF-8" standalone="no"?>
<!DOCTYPE svg PUBLIC "-//W3C//DTD SVG 1.1//EN"
 "http://www.w3.org/Graphics/SVG/1.1/DTD/svg11.dtd">
<!-- Generated by graphviz version 2.38.0 (20140413.2041)
 -->
<!-- Title: Scalars Pages: 1 -->
<svg width="448pt" height="258pt"
 viewBox="0.00 0.00 448.00 258.00" xmlns="http://www.w3.org/2000/svg" xmlns:xlink="http://www.w3.org/1999/xlink">
<g id="graph0" class="graph" transform="scale(1 1) rotate(0) translate(4 254)">
<title>Scalars</title>
<polygon fill="white" stroke="none" points="-4,4 -4,-254 444,-254 444,4 -4,4"/>
<!-- Node1 -->
<g id="node1" class="node"><title>Node1</title>
<g id="a_node1"><a xlink:href="group__datatypes__operate.html" target="_top" xlink:title="Data type operation. ">
<polygon fill="white" stroke="black" points="0,-114.5 0,-133.5 64,-133.5 64,-114.5 0,-114.5"/>
<text text-anchor="middle" x="32" y="-121.5" font-family="Helvetica,sans-Serif" font-size="10.00">Operations</text>
</a>
</g>
</g>
<!-- Node0 -->
<g id="node8" class="node"><title>Node0</title>
<polygon fill="#bfbfbf" stroke="black" points="191,-114.5 191,-133.5 241,-133.5 241,-114.5 191,-114.5"/>
<text text-anchor="middle" x="216" y="-121.5" font-family="Helvetica,sans-Serif" font-size="10.00">Scalars</text>
</g>
<!-- Node1&#45;&gt;Node0 -->
<g id="edge1" class="edge"><title>Node1&#45;&gt;Node0</title>
<path fill="none" stroke="black" d="M74.4591,-124C110.388,-124 161.139,-124 190.803,-124"/>
<polygon fill="black" stroke="black" points="74.2869,-120.5 64.2869,-124 74.2869,-127.5 74.2869,-120.5"/>
</g>
<!-- Node4 -->
<g id="node2" class="node"><title>Node4</title>
<g id="a_node2"><a xlink:href="group__datatypes__identify__scalar.html" target="_top" xlink:title="Scalar data type identification. ">
<polygon fill="white" stroke="black" points="379,-228.5 379,-247.5 429,-247.5 429,-228.5 379,-228.5"/>
<text text-anchor="middle" x="404" y="-235.5" font-family="Helvetica,sans-Serif" font-size="10.00">Scalars</text>
</a>
</g>
</g>
<!-- Node2 -->
<g id="node3" class="node"><title>Node2</title>
<g id="a_node3"><a xlink:href="group__datatypes.html" target="_top" xlink:title="Data type definitions and operators. ">
<polygon fill="white" stroke="black" points="373,-190.5 373,-209.5 435,-209.5 435,-190.5 373,-190.5"/>
<text text-anchor="middle" x="404" y="-197.5" font-family="Helvetica,sans-Serif" font-size="10.00">Datatypes</text>
</a>
</g>
</g>
<!-- Node8 -->
<g id="node4" class="node"><title>Node8</title>
<g id="a_node4"><a xlink:href="group__datatypes__operate__list.html" target="_top" xlink:title="List data type operations. ">
<polygon fill="white" stroke="black" points="385,-152.5 385,-171.5 423,-171.5 423,-152.5 385,-152.5"/>
<text text-anchor="middle" x="404" y="-159.5" font-family="Helvetica,sans-Serif" font-size="10.00">Lists</text>
</a>
</g>
</g>
<!-- Node7 -->
<g id="node5" class="node"><title>Node7</title>
<g id="a_node5"><a xlink:href="group__datatypes__operate__iterable.html" target="_top" xlink:title="Iterable data type operations. ">
<polygon fill="white" stroke="black" points="377,-114.5 377,-133.5 431,-133.5 431,-114.5 377,-114.5"/>
<text text-anchor="middle" x="404" y="-121.5" font-family="Helvetica,sans-Serif" font-size="10.00">Iterables</text>
</a>
</g>
</g>
<!-- Node6 -->
<g id="node6" class="node"><title>Node6</title>
<g id="a_node6"><a xlink:href="group__datatypes__identify__list.html" target="_top" xlink:title="List data type identification. ">
<polygon fill="white" stroke="black" points="385,-76.5 385,-95.5 423,-95.5 423,-76.5 385,-76.5"/>
<text text-anchor="middle" x="404" y="-83.5" font-family="Helvetica,sans-Serif" font-size="10.00">Lists</text>
</a>
</g>
</g>
<!-- Node5 -->
<g id="node7" class="node"><title>Node5</title>
<g id="a_node7"><a xlink:href="group__datatypes__identify__iterable.html" target="_top" xlink:title="Iterable data type identification. ">
<polygon fill="white" stroke="black" points="377,-38.5 377,-57.5 431,-57.5 431,-38.5 377,-38.5"/>
<text text-anchor="middle" x="404" y="-45.5" font-family="Helvetica,sans-Serif" font-size="10.00">Iterables</text>
</a>
</g>
</g>
<!-- Node0&#45;&gt;Node1 -->
<g id="edge7" class="edge"><title>Node0&#45;&gt;Node1</title>
<path fill="none" stroke="darkgreen" stroke-dasharray="5,2" d="M190.904,-114.5C185.128,-112.635 178.918,-110.96 173,-110 133.078,-103.522 122.054,-104.39 82,-110 75.1658,-110.957 67.9473,-112.631 61.2131,-114.495"/>
<text text-anchor="middle" x="127.5" y="-113" font-family="Helvetica,sans-Serif" font-size="10.00">datatypes&#45;base.scad</text>
</g>
<!-- Node0&#45;&gt;Node4 -->
<g id="edge4" class="edge"><title>Node0&#45;&gt;Node4</title>
<path fill="none" stroke="darkgreen" stroke-dasharray="5,2" d="M218.708,-133.639C222.476,-151.869 233.293,-191.328 259,-211 294.147,-237.897 348.041,-240.704 378.96,-239.743"/>
<text text-anchor="middle" x="304.5" y="-242" font-family="Helvetica,sans-Serif" font-size="10.00">datatypes&#45;base.scad</text>
</g>
<!-- Node0&#45;&gt;Node2 -->
<g id="edge2" class="edge"><title>Node0&#45;&gt;Node2</title>
<path fill="none" stroke="darkgreen" stroke-dasharray="5,2" d="M223.141,-133.762C230.375,-144.407 243.404,-161.11 259,-170 294.718,-190.361 342.465,-196.978 372.983,-199.084"/>
<text text-anchor="middle" x="304.5" y="-199" font-family="Helvetica,sans-Serif" font-size="10.00">datatypes&#45;base.scad</text>
</g>
<!-- Node0&#45;&gt;Node8 -->
<g id="edge9" class="edge"><title>Node0&#45;&gt;Node8</title>
<path fill="none" stroke="darkgreen" stroke-dasharray="5,2" d="M241.193,-133.498C246.965,-135.524 253.149,-137.502 259,-139 303.391,-150.368 356.995,-157.159 384.593,-160.162"/>
<text text-anchor="middle" x="304.5" y="-158" font-family="Helvetica,sans-Serif" font-size="10.00">datatypes&#45;base.scad</text>
</g>
<!-- Node0&#45;&gt;Node7 -->
<g id="edge8" class="edge"><title>Node0&#45;&gt;Node7</title>
<path fill="none" stroke="darkgreen" stroke-dasharray="5,2" d="M241.316,-124C276.372,-124 340.846,-124 376.88,-124"/>
<text text-anchor="middle" x="304.5" y="-127" font-family="Helvetica,sans-Serif" font-size="10.00">datatypes&#45;base.scad</text>
</g>
<!-- Node0&#45;&gt;Node6 -->
<g id="edge6" class="edge"><title>Node0&#45;&gt;Node6</title>
<path fill="none" stroke="darkgreen" stroke-dasharray="5,2" d="M241.193,-114.502C246.965,-112.476 253.149,-110.498 259,-109 303.391,-97.6318 356.995,-90.8414 384.593,-87.8384"/>
<text text-anchor="middle" x="304.5" y="-112" font-family="Helvetica,sans-Serif" font-size="10.00">datatypes&#45;base.scad</text>
</g>
<!-- Node0&#45;&gt;Node5 -->
<g id="edge5" class="edge"><title>Node0&#45;&gt;Node5</title>
<path fill="none" stroke="darkgreen" stroke-dasharray="5,2" d="M223.141,-114.238C230.375,-103.593 243.404,-86.8903 259,-78 296.271,-56.7534 346.64,-50.4731 376.864,-48.6659"/>
<text text-anchor="middle" x="304.5" y="-81" font-family="Helvetica,sans-Serif" font-size="10.00">datatypes&#45;base.scad</text>
</g>
<!-- Node3 -->
<g id="node9" class="node"><title>Node3</title>
<g id="a_node9"><a xlink:href="group__datatypes__identify.html" target="_top" xlink:title="Compile&#45;time data type identification and tests. ">
<polygon fill="white" stroke="black" points="368,-0.5 368,-19.5 440,-19.5 440,-0.5 368,-0.5"/>
<text text-anchor="middle" x="404" y="-7.5" font-family="Helvetica,sans-Serif" font-size="10.00">Identification</text>
</a>
</g>
</g>
<!-- Node0&#45;&gt;Node3 -->
<g id="edge3" class="edge"><title>Node0&#45;&gt;Node3</title>
<path fill="none" stroke="darkgreen" stroke-dasharray="5,2" d="M218.708,-114.361C222.476,-96.131 233.293,-56.6722 259,-37 290.208,-13.1176 336.197,-8.22775 367.758,-8.10458"/>
<text text-anchor="middle" x="304.5" y="-40" font-family="Helvetica,sans-Serif" font-size="10.00">datatypes&#45;base.scad</text>
</g>
</g>
</svg>
