<?xml version="1.0" encoding="UTF-8" standalone="no"?>
<!DOCTYPE svg PUBLIC "-//W3C//DTD SVG 1.1//EN"
 "http://www.w3.org/Graphics/SVG/1.1/DTD/svg11.dtd">
<!-- Generated by graphviz version 2.38.0 (20140413.2041)
 -->
<!-- Title: radial_repeat Pages: 1 -->
<svg width="182pt" height="66pt"
 viewBox="0.00 0.00 182.00 66.00" xmlns="http://www.w3.org/2000/svg" xmlns:xlink="http://www.w3.org/1999/xlink">
<g id="graph0" class="graph" transform="scale(1 1) rotate(0) translate(4 62)">
<title>radial_repeat</title>
<polygon fill="white" stroke="none" points="-4,4 -4,-62 178,-62 178,4 -4,4"/>
<!-- Node1 -->
<g id="node1" class="node"><title>Node1</title>
<polygon fill="#bfbfbf" stroke="black" points="0,-19.5 0,-38.5 72,-38.5 72,-19.5 0,-19.5"/>
<text text-anchor="middle" x="36" y="-26.5" font-family="Helvetica,sans-Serif" font-size="10.00">radial_repeat</text>
</g>
<!-- Node2 -->
<g id="node2" class="node"><title>Node2</title>
<g id="a_node2"><a xlink:href="group__math__oshapes.html#ga0e1975ceeaf1701764e7041470e3db71" target="_top" xlink:title="Compute the coordinates for an n&#45;sided regular polygon. ">
<polygon fill="white" stroke="black" points="108,-38.5 108,-57.5 174,-57.5 174,-38.5 108,-38.5"/>
<text text-anchor="middle" x="141" y="-45.5" font-family="Helvetica,sans-Serif" font-size="10.00">rpolygon_lp</text>
</a>
</g>
</g>
<!-- Node1&#45;&gt;Node2 -->
<g id="edge1" class="edge"><title>Node1&#45;&gt;Node2</title>
<path fill="none" stroke="midnightblue" d="M72.1587,-35.4856C80.3622,-36.9989 89.1829,-38.626 97.6613,-40.1899"/>
<polygon fill="midnightblue" stroke="midnightblue" points="97.2998,-43.6822 107.769,-42.0544 98.5697,-36.7984 97.2998,-43.6822"/>
</g>
<!-- Node3 -->
<g id="node3" class="node"><title>Node3</title>
<g id="a_node3"><a xlink:href="group__math__vector__algebra.html#ga3a0c4c75047b8003ab09286a77a58c86" target="_top" xlink:title="Compute the angle between two lines (or vectors) in a Euclidean 3d or 2d&#45;space. ">
<polygon fill="white" stroke="black" points="116,-0.5 116,-19.5 166,-19.5 166,-0.5 116,-0.5"/>
<text text-anchor="middle" x="141" y="-7.5" font-family="Helvetica,sans-Serif" font-size="10.00">angle_ll</text>
</a>
</g>
</g>
<!-- Node1&#45;&gt;Node3 -->
<g id="edge2" class="edge"><title>Node1&#45;&gt;Node3</title>
<path fill="none" stroke="midnightblue" d="M72.1587,-22.5144C83.023,-20.5103 94.9697,-18.3066 105.77,-16.3142"/>
<polygon fill="midnightblue" stroke="midnightblue" points="106.502,-19.7383 115.702,-14.4822 105.232,-12.8544 106.502,-19.7383"/>
</g>
</g>
</svg>
