<?xml version="1.0" encoding="UTF-8" standalone="no"?>
<!DOCTYPE svg PUBLIC "-//W3C//DTD SVG 1.1//EN"
 "http://www.w3.org/Graphics/SVG/1.1/DTD/svg11.dtd">
<!-- Generated by graphviz version 2.38.0 (20140413.2041)
 -->
<!-- Title: triangle_ls_c Pages: 1 -->
<svg width="571pt" height="294pt"
 viewBox="0.00 0.00 571.00 294.00" xmlns="http://www.w3.org/2000/svg" xmlns:xlink="http://www.w3.org/1999/xlink">
<g id="graph0" class="graph" transform="scale(1 1) rotate(0) translate(4 290)">
<title>triangle_ls_c</title>
<polygon fill="white" stroke="none" points="-4,4 -4,-290 567,-290 567,4 -4,4"/>
<!-- Node1 -->
<g id="node1" class="node"><title>Node1</title>
<polygon fill="#bfbfbf" stroke="black" points="0,-152.5 0,-171.5 71,-171.5 71,-152.5 0,-152.5"/>
<text text-anchor="middle" x="35.5" y="-159.5" font-family="Helvetica,sans-Serif" font-size="10.00">triangle_ls_c</text>
</g>
<!-- Node2 -->
<g id="node2" class="node"><title>Node2</title>
<g id="a_node2"><a xlink:href="group__datatypes__operate__iterable.html#ga3d679b4617986e31d5e2803971b37af8" target="_top" xlink:title="Return an iterable element when it exists or a default value when it does not. ">
<polygon fill="white" stroke="black" points="124,-266.5 124,-285.5 191,-285.5 191,-266.5 124,-266.5"/>
<text text-anchor="middle" x="157.5" y="-273.5" font-family="Helvetica,sans-Serif" font-size="10.00">edefined_or</text>
</a>
</g>
</g>
<!-- Node1&#45;&gt;Node2 -->
<g id="edge1" class="edge"><title>Node1&#45;&gt;Node2</title>
<path fill="none" stroke="midnightblue" d="M41.9546,-171.576C52.5143,-189.41 77.3411,-228.071 107,-252 111.619,-255.727 116.912,-259.058 122.28,-261.967"/>
<polygon fill="midnightblue" stroke="midnightblue" points="120.768,-265.124 131.279,-266.458 123.894,-258.861 120.768,-265.124"/>
</g>
<!-- Node3 -->
<g id="node3" class="node"><title>Node3</title>
<g id="a_node3"><a xlink:href="group__datatypes__operate__scalar.html#gac119300e8c83de0037f2d0a4d9f0ab5c" target="_top" xlink:title="Return a value when it is defined or a default value when it is not. ">
<polygon fill="white" stroke="black" points="477.5,-228.5 477.5,-247.5 539.5,-247.5 539.5,-228.5 477.5,-228.5"/>
<text text-anchor="middle" x="508.5" y="-235.5" font-family="Helvetica,sans-Serif" font-size="10.00">defined_or</text>
</a>
</g>
</g>
<!-- Node1&#45;&gt;Node3 -->
<g id="edge2" class="edge"><title>Node1&#45;&gt;Node3</title>
<path fill="none" stroke="midnightblue" d="M44.8538,-171.875C56.9601,-185.37 80.8157,-209.035 107,-219 231.17,-266.257 392.809,-253.61 467.026,-244.114"/>
<polygon fill="midnightblue" stroke="midnightblue" points="467.876,-247.532 477.326,-242.743 466.952,-240.593 467.876,-247.532"/>
</g>
<!-- Node4 -->
<g id="node4" class="node"><title>Node4</title>
<g id="a_node4"><a xlink:href="group__datatypes__identify__scalar.html#ga51d7fdb800c10f4b7479d23b89ab8d22" target="_top" xlink:title="Test if a value is defined. ">
<polygon fill="white" stroke="black" points="127,-190.5 127,-209.5 188,-209.5 188,-190.5 127,-190.5"/>
<text text-anchor="middle" x="157.5" y="-197.5" font-family="Helvetica,sans-Serif" font-size="10.00">is_defined</text>
</a>
</g>
</g>
<!-- Node1&#45;&gt;Node4 -->
<g id="edge3" class="edge"><title>Node1&#45;&gt;Node4</title>
<path fill="none" stroke="midnightblue" d="M66.7811,-171.589C81.9606,-176.396 100.535,-182.278 116.838,-187.44"/>
<polygon fill="midnightblue" stroke="midnightblue" points="116.054,-190.863 126.644,-190.546 118.168,-184.19 116.054,-190.863"/>
</g>
<!-- Node5 -->
<g id="node5" class="node"><title>Node5</title>
<g id="a_node5"><a xlink:href="group__math__triangle.html#ga1433110052f71d329117e2d5784821de" target="_top" xlink:title="Compute the coordinate for the triangle&#39;s incircle. ">
<polygon fill="white" stroke="black" points="107,-152.5 107,-171.5 208,-171.5 208,-152.5 107,-152.5"/>
<text text-anchor="middle" x="157.5" y="-159.5" font-family="Helvetica,sans-Serif" font-size="10.00">triangle_incenter_lp</text>
</a>
</g>
</g>
<!-- Node1&#45;&gt;Node5 -->
<g id="edge4" class="edge"><title>Node1&#45;&gt;Node5</title>
<path fill="none" stroke="midnightblue" d="M71.209,-162C79.1693,-162 87.8565,-162 96.5426,-162"/>
<polygon fill="midnightblue" stroke="midnightblue" points="96.6951,-165.5 106.695,-162 96.695,-158.5 96.6951,-165.5"/>
</g>
<!-- Node6 -->
<g id="node6" class="node"><title>Node6</title>
<g id="a_node6"><a xlink:href="group__math__triangle.html#ga1a2331a359734cc77fe5d38901874258" target="_top" xlink:title="Compute the vertex coordinates of a triangle given its side lengths. ">
<polygon fill="white" stroke="black" points="116.5,-114.5 116.5,-133.5 198.5,-133.5 198.5,-114.5 116.5,-114.5"/>
<text text-anchor="middle" x="157.5" y="-121.5" font-family="Helvetica,sans-Serif" font-size="10.00">triangle_sss2lp</text>
</a>
</g>
</g>
<!-- Node1&#45;&gt;Node6 -->
<g id="edge5" class="edge"><title>Node1&#45;&gt;Node6</title>
<path fill="none" stroke="midnightblue" d="M66.7811,-152.411C81.8456,-147.641 100.254,-141.811 116.467,-136.677"/>
<polygon fill="midnightblue" stroke="midnightblue" points="117.752,-139.942 126.229,-133.586 115.639,-133.268 117.752,-139.942"/>
</g>
<!-- Node7 -->
<g id="node7" class="node"><title>Node7</title>
<g id="a_node7"><a xlink:href="group__math__triangle.html#ga2b01ebe02b212dcab1349519a76b5731" target="_top" xlink:title="Compute the centroid (geometric center) of a triangle. ">
<polygon fill="white" stroke="black" points="107,-76.5 107,-95.5 208,-95.5 208,-76.5 107,-76.5"/>
<text text-anchor="middle" x="157.5" y="-83.5" font-family="Helvetica,sans-Serif" font-size="10.00">triangle_centroid_lp</text>
</a>
</g>
</g>
<!-- Node1&#45;&gt;Node7 -->
<g id="edge6" class="edge"><title>Node1&#45;&gt;Node7</title>
<path fill="none" stroke="midnightblue" d="M46.2641,-152.414C59.2331,-140.099 83.2768,-118.684 107,-105 110.401,-103.038 114.043,-101.202 117.752,-99.5055"/>
<polygon fill="midnightblue" stroke="midnightblue" points="119.167,-102.707 127.006,-95.58 116.433,-96.2629 119.167,-102.707"/>
</g>
<!-- Node8 -->
<g id="node8" class="node"><title>Node8</title>
<g id="a_node8"><a xlink:href="group__shapes__2d.html#ga5321277acf52177e1c7928c13377dd00" target="_top" xlink:title="A general triangle specified by a list of its three side lengths. ">
<polygon fill="white" stroke="black" points="127,-38.5 127,-57.5 188,-57.5 188,-38.5 127,-38.5"/>
<text text-anchor="middle" x="157.5" y="-45.5" font-family="Helvetica,sans-Serif" font-size="10.00">triangle_ls</text>
</a>
</g>
</g>
<!-- Node1&#45;&gt;Node8 -->
<g id="edge7" class="edge"><title>Node1&#45;&gt;Node8</title>
<path fill="none" stroke="midnightblue" d="M41.3186,-152.222C51.1424,-133.228 75.2667,-91.0954 107,-67 110.207,-64.5646 113.764,-62.4067 117.457,-60.5026"/>
<polygon fill="midnightblue" stroke="midnightblue" points="119.128,-63.5885 126.797,-56.2786 116.243,-57.2104 119.128,-63.5885"/>
</g>
<!-- Node9 -->
<g id="node9" class="node"><title>Node9</title>
<g id="a_node9"><a xlink:href="group__datatypes__identify__scalar.html#ga258e8911375d30ff85a6e52df01dc1c5" target="_top" xlink:title="Test if a value is a single non&#45;iterable value. ">
<polygon fill="white" stroke="black" points="250.5,-19.5 250.5,-38.5 306.5,-38.5 306.5,-19.5 250.5,-19.5"/>
<text text-anchor="middle" x="278.5" y="-26.5" font-family="Helvetica,sans-Serif" font-size="10.00">is_scalar</text>
</a>
</g>
</g>
<!-- Node8&#45;&gt;Node9 -->
<g id="edge8" class="edge"><title>Node8&#45;&gt;Node9</title>
<path fill="none" stroke="midnightblue" d="M188.222,-43.2545C203.956,-40.7423 223.434,-37.6323 240.178,-34.959"/>
<polygon fill="midnightblue" stroke="midnightblue" points="240.869,-38.3931 250.192,-33.3601 239.765,-31.4806 240.869,-38.3931"/>
</g>
<!-- Node10 -->
<g id="node10" class="node"><title>Node10</title>
<g id="a_node10"><a xlink:href="group__shapes__2d.html#gab40e6edfc3c5ab69a4db26301318cd86" target="_top" xlink:title="A general triangle specified by its three side lengths. ">
<polygon fill="white" stroke="black" points="244,-57.5 244,-76.5 313,-76.5 313,-57.5 244,-57.5"/>
<text text-anchor="middle" x="278.5" y="-64.5" font-family="Helvetica,sans-Serif" font-size="10.00">triangle_sss</text>
</a>
</g>
</g>
<!-- Node8&#45;&gt;Node10 -->
<g id="edge9" class="edge"><title>Node8&#45;&gt;Node10</title>
<path fill="none" stroke="midnightblue" d="M188.222,-52.7455C201.981,-54.9424 218.604,-57.5964 233.757,-60.0158"/>
<polygon fill="midnightblue" stroke="midnightblue" points="233.533,-63.5243 243.96,-61.6448 234.637,-56.6118 233.533,-63.5243"/>
</g>
<!-- Node11 -->
<g id="node11" class="node"><title>Node11</title>
<g id="a_node11"><a xlink:href="group__datatypes__identify__scalar.html#ga068402d4bbb2bbd22b955ad1e14f104b" target="_top" xlink:title="Test if a numerical value is invalid. ">
<polygon fill="white" stroke="black" points="361,-57.5 361,-76.5 406,-76.5 406,-57.5 361,-57.5"/>
<text text-anchor="middle" x="383.5" y="-64.5" font-family="Helvetica,sans-Serif" font-size="10.00">is_nan</text>
</a>
</g>
</g>
<!-- Node10&#45;&gt;Node11 -->
<g id="edge10" class="edge"><title>Node10&#45;&gt;Node11</title>
<path fill="none" stroke="midnightblue" d="M313.226,-67C325.175,-67 338.578,-67 350.389,-67"/>
<polygon fill="midnightblue" stroke="midnightblue" points="350.7,-70.5001 360.7,-67 350.7,-63.5001 350.7,-70.5001"/>
</g>
<!-- Node12 -->
<g id="node12" class="node"><title>Node12</title>
<g id="a_node12"><a xlink:href="group__utilities__console.html#ga1ece4e2cff9ae45c85429c226eb8362c" target="_top" xlink:title="Output warning message to console. ">
<polygon fill="white" stroke="black" points="355.5,-9.5 355.5,-28.5 411.5,-28.5 411.5,-9.5 355.5,-9.5"/>
<text text-anchor="middle" x="383.5" y="-16.5" font-family="Helvetica,sans-Serif" font-size="10.00">log_warn</text>
</a>
</g>
</g>
<!-- Node10&#45;&gt;Node12 -->
<g id="edge11" class="edge"><title>Node10&#45;&gt;Node12</title>
<path fill="none" stroke="midnightblue" d="M300.344,-57.2865C315.38,-50.2792 335.899,-40.7172 352.668,-32.9022"/>
<polygon fill="midnightblue" stroke="midnightblue" points="354.453,-35.9318 362.039,-28.5353 351.496,-29.5869 354.453,-35.9318"/>
</g>
<!-- Node14 -->
<g id="node14" class="node"><title>Node14</title>
<g id="a_node14"><a xlink:href="group__shapes__2d.html#ga33d2a7677306c346ad6be5a488885d86" target="_top" xlink:title="A general triangle specified by three vertices. ">
<polygon fill="white" stroke="black" points="349,-114.5 349,-133.5 418,-133.5 418,-114.5 349,-114.5"/>
<text text-anchor="middle" x="383.5" y="-121.5" font-family="Helvetica,sans-Serif" font-size="10.00">triangle_ppp</text>
</a>
</g>
</g>
<!-- Node10&#45;&gt;Node14 -->
<g id="edge13" class="edge"><title>Node10&#45;&gt;Node14</title>
<path fill="none" stroke="midnightblue" d="M296.973,-76.6693C313.274,-85.6903 337.808,-99.2673 356.424,-109.57"/>
<polygon fill="midnightblue" stroke="midnightblue" points="354.841,-112.694 365.285,-114.474 358.231,-106.569 354.841,-112.694"/>
</g>
<!-- Node13 -->
<g id="node13" class="node"><title>Node13</title>
<g id="a_node13"><a xlink:href="group__utilities__console.html#ga4fb6c985031c9b551777b2e9ebd2fc34" target="_top" xlink:title="Format the function call stack as a string. ">
<polygon fill="white" stroke="black" points="488,-0.5 488,-19.5 529,-19.5 529,-0.5 488,-0.5"/>
<text text-anchor="middle" x="508.5" y="-7.5" font-family="Helvetica,sans-Serif" font-size="10.00">stack</text>
</a>
</g>
</g>
<!-- Node12&#45;&gt;Node13 -->
<g id="edge12" class="edge"><title>Node12&#45;&gt;Node13</title>
<path fill="none" stroke="midnightblue" d="M411.798,-17.0026C431.355,-15.5716 457.679,-13.6454 477.769,-12.1754"/>
<polygon fill="midnightblue" stroke="midnightblue" points="478.203,-15.6531 487.921,-11.4326 477.692,-8.67178 478.203,-15.6531"/>
</g>
<!-- Node14&#45;&gt;Node3 -->
<g id="edge14" class="edge"><title>Node14&#45;&gt;Node3</title>
<path fill="none" stroke="midnightblue" d="M389.014,-133.556C398.445,-152.535 422.042,-195.195 454,-219 458.191,-222.122 462.94,-224.765 467.837,-226.995"/>
<polygon fill="midnightblue" stroke="midnightblue" points="466.743,-230.327 477.328,-230.789 469.342,-223.827 466.743,-230.327"/>
</g>
<!-- Node15 -->
<g id="node15" class="node"><title>Node15</title>
<g id="a_node15"><a xlink:href="group__math__triangle.html#ga6eb5bfb1ae077d0db22e41c142233be0" target="_top" xlink:title="Compute the coordinate for the triangle&#39;s incircle. ">
<polygon fill="white" stroke="black" points="454,-114.5 454,-133.5 563,-133.5 563,-114.5 454,-114.5"/>
<text text-anchor="middle" x="508.5" y="-121.5" font-family="Helvetica,sans-Serif" font-size="10.00">triangle_incenter_ppp</text>
</a>
</g>
</g>
<!-- Node14&#45;&gt;Node15 -->
<g id="edge15" class="edge"><title>Node14&#45;&gt;Node15</title>
<path fill="none" stroke="midnightblue" d="M418.11,-124C425.983,-124 434.63,-124 443.348,-124"/>
<polygon fill="midnightblue" stroke="midnightblue" points="443.573,-127.5 453.573,-124 443.573,-120.5 443.573,-127.5"/>
</g>
<!-- Node16 -->
<g id="node16" class="node"><title>Node16</title>
<g id="a_node16"><a xlink:href="group__math__triangle.html#ga7c94003074f622d6421a665207cafbd7" target="_top" xlink:title="Compute the centroid (geometric center) of a triangle. ">
<polygon fill="white" stroke="black" points="454,-76.5 454,-95.5 563,-95.5 563,-76.5 454,-76.5"/>
<text text-anchor="middle" x="508.5" y="-83.5" font-family="Helvetica,sans-Serif" font-size="10.00">triangle_centroid_ppp</text>
</a>
</g>
</g>
<!-- Node14&#45;&gt;Node16 -->
<g id="edge16" class="edge"><title>Node14&#45;&gt;Node16</title>
<path fill="none" stroke="midnightblue" d="M415.538,-114.411C430.979,-109.641 449.848,-103.811 466.466,-98.6771"/>
<polygon fill="midnightblue" stroke="midnightblue" points="467.951,-101.882 476.472,-95.5859 465.884,-95.1937 467.951,-101.882"/>
</g>
<!-- Node17 -->
<g id="node17" class="node"><title>Node17</title>
<g id="a_node17"><a xlink:href="group__datatypes__identify__iterable.html#ga6dc7861bf5a7777bfb33876493107d75" target="_top" xlink:title="Test if any element of a list of values is undefined. ">
<polygon fill="white" stroke="black" points="468.5,-38.5 468.5,-57.5 548.5,-57.5 548.5,-38.5 468.5,-38.5"/>
<text text-anchor="middle" x="508.5" y="-45.5" font-family="Helvetica,sans-Serif" font-size="10.00">any_undefined</text>
</a>
</g>
</g>
<!-- Node14&#45;&gt;Node17 -->
<g id="edge17" class="edge"><title>Node14&#45;&gt;Node17</title>
<path fill="none" stroke="midnightblue" d="M394.047,-114.312C406.746,-101.886 430.357,-80.3518 454,-67 457.669,-64.928 461.605,-63.0182 465.615,-61.2742"/>
<polygon fill="midnightblue" stroke="midnightblue" points="467.038,-64.4746 475.02,-57.5073 464.436,-57.9764 467.038,-64.4746"/>
</g>
<!-- Node18 -->
<g id="node18" class="node"><title>Node18</title>
<g id="a_node18"><a xlink:href="group__math__vector__algebra.html#ga3a0c4c75047b8003ab09286a77a58c86" target="_top" xlink:title="Compute the angle between two lines (or vectors) in a Euclidean 3d or 2d&#45;space. ">
<polygon fill="white" stroke="black" points="483.5,-190.5 483.5,-209.5 533.5,-209.5 533.5,-190.5 483.5,-190.5"/>
<text text-anchor="middle" x="508.5" y="-197.5" font-family="Helvetica,sans-Serif" font-size="10.00">angle_ll</text>
</a>
</g>
</g>
<!-- Node14&#45;&gt;Node18 -->
<g id="edge18" class="edge"><title>Node14&#45;&gt;Node18</title>
<path fill="none" stroke="midnightblue" d="M394.047,-133.688C406.746,-146.114 430.357,-167.648 454,-181 460.112,-184.452 466.964,-187.454 473.672,-189.988"/>
<polygon fill="midnightblue" stroke="midnightblue" points="472.697,-193.356 483.292,-193.366 475.016,-186.751 472.697,-193.356"/>
</g>
<!-- Node19 -->
<g id="node19" class="node"><title>Node19</title>
<g id="a_node19"><a xlink:href="group__math__vector__algebra.html#gaa71caf02a1433e6c84d61d13d12aa581" target="_top" xlink:title="Compute the normalized unit vector of a Euclidean line (or vector). ">
<polygon fill="white" stroke="black" points="488.5,-152.5 488.5,-171.5 528.5,-171.5 528.5,-152.5 488.5,-152.5"/>
<text text-anchor="middle" x="508.5" y="-159.5" font-family="Helvetica,sans-Serif" font-size="10.00">unit_l</text>
</a>
</g>
</g>
<!-- Node14&#45;&gt;Node19 -->
<g id="edge19" class="edge"><title>Node14&#45;&gt;Node19</title>
<path fill="none" stroke="midnightblue" d="M415.538,-133.589C434.963,-139.59 459.812,-147.267 478.782,-153.128"/>
<polygon fill="midnightblue" stroke="midnightblue" points="477.786,-156.483 488.374,-156.091 479.853,-149.795 477.786,-156.483"/>
</g>
</g>
</svg>
