<?xml version="1.0" encoding="UTF-8" standalone="no"?>
<!DOCTYPE svg PUBLIC "-//W3C//DTD SVG 1.1//EN"
 "http://www.w3.org/Graphics/SVG/1.1/DTD/svg11.dtd">
<!-- Generated by graphviz version 2.38.0 (20140413.2041)
 -->
<!-- Title: log_warn Pages: 1 -->
<svg width="502pt" height="237pt"
 viewBox="0.00 0.00 502.00 237.00" xmlns="http://www.w3.org/2000/svg" xmlns:xlink="http://www.w3.org/1999/xlink">
<g id="graph0" class="graph" transform="scale(1 1) rotate(0) translate(4 233)">
<title>log_warn</title>
<polygon fill="white" stroke="none" points="-4,4 -4,-233 498,-233 498,4 -4,4"/>
<!-- Node1 -->
<g id="node1" class="node"><title>Node1</title>
<polygon fill="#bfbfbf" stroke="black" points="0,-114.5 0,-133.5 56,-133.5 56,-114.5 0,-114.5"/>
<text text-anchor="middle" x="28" y="-121.5" font-family="Helvetica,sans-Serif" font-size="10.00">log_warn</text>
</g>
<!-- Node2 -->
<g id="node2" class="node"><title>Node2</title>
<g id="a_node2"><a xlink:href="group__datatypes__map.html#ga4a3d0704d80be0d9e8bae1fcb3ab7958" target="_top" xlink:title="Perform some basic validation/checks on a map. ">
<polygon fill="white" stroke="black" points="93,-209.5 93,-228.5 160,-228.5 160,-209.5 93,-209.5"/>
<text text-anchor="middle" x="126.5" y="-216.5" font-family="Helvetica,sans-Serif" font-size="10.00">map_check</text>
</a>
</g>
</g>
<!-- Node1&#45;&gt;Node2 -->
<g id="edge1" class="edge"><title>Node1&#45;&gt;Node2</title>
<path fill="none" stroke="midnightblue" d="M41.1154,-142.11C52.7756,-158.601 71.6033,-182.914 92,-200 96.203,-203.521 101.151,-206.735 105.934,-209.479"/>
<polygon fill="midnightblue" stroke="midnightblue" points="43.9729,-140.088 35.4104,-133.848 38.2128,-144.066 43.9729,-140.088"/>
</g>
<!-- Node3 -->
<g id="node3" class="node"><title>Node3</title>
<g id="a_node3"><a xlink:href="group__datatypes__table.html#ga8a4429649e8b06d9f492e1a0d2653656" target="_top" xlink:title="Perform some basic validation/checks on a table. ">
<polygon fill="white" stroke="black" points="92,-171.5 92,-190.5 161,-190.5 161,-171.5 92,-171.5"/>
<text text-anchor="middle" x="126.5" y="-178.5" font-family="Helvetica,sans-Serif" font-size="10.00">table_check</text>
</a>
</g>
</g>
<!-- Node1&#45;&gt;Node3 -->
<g id="edge2" class="edge"><title>Node1&#45;&gt;Node3</title>
<path fill="none" stroke="midnightblue" d="M54.4295,-139.021C71.8356,-149.302 94.3895,-162.624 109.372,-171.474"/>
<polygon fill="midnightblue" stroke="midnightblue" points="55.7601,-135.742 45.3699,-133.669 52.2,-141.769 55.7601,-135.742"/>
</g>
<!-- Node4 -->
<g id="node4" class="node"><title>Node4</title>
<g id="a_node4"><a xlink:href="group__shapes__2d.html#gab40e6edfc3c5ab69a4db26301318cd86" target="_top" xlink:title="A general triangle specified by its three side lengths. ">
<polygon fill="white" stroke="black" points="92,-95.5 92,-114.5 161,-114.5 161,-95.5 92,-95.5"/>
<text text-anchor="middle" x="126.5" y="-102.5" font-family="Helvetica,sans-Serif" font-size="10.00">triangle_sss</text>
</a>
</g>
</g>
<!-- Node1&#45;&gt;Node4 -->
<g id="edge3" class="edge"><title>Node1&#45;&gt;Node4</title>
<path fill="none" stroke="midnightblue" d="M66.0954,-116.696C74.5149,-115.039 83.4138,-113.286 91.6886,-111.657"/>
<polygon fill="midnightblue" stroke="midnightblue" points="65.2729,-113.291 56.1374,-118.657 66.6252,-120.159 65.2729,-113.291"/>
</g>
<!-- Node14 -->
<g id="node14" class="node"><title>Node14</title>
<g id="a_node14"><a xlink:href="group__shapes__2d.html#gaaefcea1b06acb7b1633e86f657341701" target="_top" xlink:title="A general triangle specified by a side and two adjacent angles. ">
<polygon fill="white" stroke="black" points="199.5,-190.5 199.5,-209.5 268.5,-209.5 268.5,-190.5 199.5,-190.5"/>
<text text-anchor="middle" x="234" y="-197.5" font-family="Helvetica,sans-Serif" font-size="10.00">triangle_asa</text>
</a>
</g>
</g>
<!-- Node1&#45;&gt;Node14 -->
<g id="edge19" class="edge"><title>Node1&#45;&gt;Node14</title>
<path fill="none" stroke="midnightblue" d="M65.8521,-132.448C92.7092,-139.121 129.715,-149.397 161,-162 161.176,-162.071 193.618,-179.2 214.888,-190.434"/>
<polygon fill="midnightblue" stroke="midnightblue" points="66.6331,-129.036 56.0888,-130.069 64.9761,-135.837 66.6331,-129.036"/>
</g>
<!-- Node16 -->
<g id="node16" class="node"><title>Node16</title>
<g id="a_node16"><a xlink:href="group__shapes__2d.html#gad0730473c871f346877e8ef91e2bdfd4" target="_top" xlink:title="A general triangle specified by a side, one adjacent angle and the opposite angle. ">
<polygon fill="white" stroke="black" points="199.5,-0.5 199.5,-19.5 268.5,-19.5 268.5,-0.5 199.5,-0.5"/>
<text text-anchor="middle" x="234" y="-7.5" font-family="Helvetica,sans-Serif" font-size="10.00">triangle_aas</text>
</a>
</g>
</g>
<!-- Node1&#45;&gt;Node16 -->
<g id="edge20" class="edge"><title>Node1&#45;&gt;Node16</title>
<path fill="none" stroke="midnightblue" d="M53.1459,-109.085C64.8108,-101.97 79.0554,-93.4124 92,-86 138.08,-59.6138 150.186,-54.0594 197,-29 202.732,-25.9316 208.994,-22.6148 214.664,-19.6244"/>
<polygon fill="midnightblue" stroke="midnightblue" points="51.1162,-106.224 44.4181,-114.433 54.7734,-112.192 51.1162,-106.224"/>
</g>
<!-- Node20 -->
<g id="node20" class="node"><title>Node20</title>
<g id="a_node20"><a xlink:href="group__tools__repeat.html#ga1bdfb742c5c03621128336c662faee75" target="_top" xlink:title="Distribute copies of 2d or 3d shapes about Cartesian grid. ">
<polygon fill="white" stroke="black" points="94,-19.5 94,-38.5 159,-38.5 159,-19.5 94,-19.5"/>
<text text-anchor="middle" x="126.5" y="-26.5" font-family="Helvetica,sans-Serif" font-size="10.00">grid_repeat</text>
</a>
</g>
</g>
<!-- Node1&#45;&gt;Node20 -->
<g id="edge21" class="edge"><title>Node1&#45;&gt;Node20</title>
<path fill="none" stroke="midnightblue" d="M42.8994,-106.213C55.0469,-91.2126 73.5779,-69.5976 92,-53 97.7406,-47.828 104.6,-42.7484 110.612,-38.6037"/>
<polygon fill="midnightblue" stroke="midnightblue" points="40.0339,-104.192 36.5338,-114.192 45.506,-108.558 40.0339,-104.192"/>
</g>
<!-- Node5 -->
<g id="node5" class="node"><title>Node5</title>
<g id="a_node5"><a xlink:href="group__shapes__2d.html#ga5321277acf52177e1c7928c13377dd00" target="_top" xlink:title="A general triangle specified by a list of its three side lengths. ">
<polygon fill="white" stroke="black" points="203.5,-114.5 203.5,-133.5 264.5,-133.5 264.5,-114.5 203.5,-114.5"/>
<text text-anchor="middle" x="234" y="-121.5" font-family="Helvetica,sans-Serif" font-size="10.00">triangle_ls</text>
</a>
</g>
</g>
<!-- Node4&#45;&gt;Node5 -->
<g id="edge4" class="edge"><title>Node4&#45;&gt;Node5</title>
<path fill="none" stroke="midnightblue" d="M171.264,-112.882C182.019,-114.819 193.287,-116.848 203.209,-118.635"/>
<polygon fill="midnightblue" stroke="midnightblue" points="171.633,-109.392 161.171,-111.064 170.392,-116.281 171.633,-109.392"/>
</g>
<!-- Node12 -->
<g id="node12" class="node"><title>Node12</title>
<g id="a_node12"><a xlink:href="group__shapes__2d.html#gac6b0e8a6784a03e427d8b14eee7d90ca" target="_top" xlink:title="A general triangle specified by two sides and the included angle. ">
<polygon fill="white" stroke="black" points="199.5,-76.5 199.5,-95.5 268.5,-95.5 268.5,-76.5 199.5,-76.5"/>
<text text-anchor="middle" x="234" y="-83.5" font-family="Helvetica,sans-Serif" font-size="10.00">triangle_sas</text>
</a>
</g>
</g>
<!-- Node4&#45;&gt;Node12 -->
<g id="edge11" class="edge"><title>Node4&#45;&gt;Node12</title>
<path fill="none" stroke="midnightblue" d="M171.151,-97.1386C180.546,-95.4466 190.339,-93.6831 199.287,-92.0715"/>
<polygon fill="midnightblue" stroke="midnightblue" points="170.392,-93.7189 161.171,-98.936 171.633,-100.608 170.392,-93.7189"/>
</g>
<!-- Node4&#45;&gt;Node14 -->
<g id="edge13" class="edge"><title>Node4&#45;&gt;Node14</title>
<path fill="none" stroke="midnightblue" d="M151.594,-120.708C154.907,-123.303 158.146,-126.1 161,-129 180.715,-149.036 175.968,-162.351 197,-181 201.019,-184.563 205.824,-187.686 210.595,-190.315"/>
<polygon fill="midnightblue" stroke="midnightblue" points="153.529,-117.788 143.386,-114.726 149.406,-123.445 153.529,-117.788"/>
</g>
<!-- Node4&#45;&gt;Node16 -->
<g id="edge15" class="edge"><title>Node4&#45;&gt;Node16</title>
<path fill="none" stroke="midnightblue" d="M151.594,-89.2919C154.907,-86.6966 158.146,-83.9004 161,-81 180.715,-60.9643 175.968,-47.6494 197,-29 201.019,-25.4366 205.824,-22.3144 210.595,-19.6855"/>
<polygon fill="midnightblue" stroke="midnightblue" points="149.406,-86.5553 143.386,-95.2737 153.529,-92.2123 149.406,-86.5553"/>
</g>
<!-- Node18 -->
<g id="node18" class="node"><title>Node18</title>
<g id="a_node18"><a xlink:href="group__shapes__2de.html#ga4940596130c3cd1e62fea77569459a52" target="_top" xlink:title="An extruded general triangle specified by its three side lengths. ">
<polygon fill="white" stroke="black" points="197,-152.5 197,-171.5 271,-171.5 271,-152.5 197,-152.5"/>
<text text-anchor="middle" x="234" y="-159.5" font-family="Helvetica,sans-Serif" font-size="10.00">etriangle_sss</text>
</a>
</g>
</g>
<!-- Node4&#45;&gt;Node18 -->
<g id="edge17" class="edge"><title>Node4&#45;&gt;Node18</title>
<path fill="none" stroke="midnightblue" d="M153.757,-119.475C166.744,-126.604 182.67,-135.302 197,-143 202.727,-146.077 208.988,-149.396 214.658,-152.386"/>
<polygon fill="midnightblue" stroke="midnightblue" points="155.334,-116.348 144.884,-114.597 151.961,-122.482 155.334,-116.348"/>
</g>
<!-- Node19 -->
<g id="node19" class="node"><title>Node19</title>
<g id="a_node19"><a xlink:href="group__shapes__3d.html#ga66f0c4a748f33cc1fff3343655b17f45" target="_top" xlink:title="A cone. ">
<polygon fill="white" stroke="black" points="215,-38.5 215,-57.5 253,-57.5 253,-38.5 215,-38.5"/>
<text text-anchor="middle" x="234" y="-45.5" font-family="Helvetica,sans-Serif" font-size="10.00">cone</text>
</a>
</g>
</g>
<!-- Node4&#45;&gt;Node19 -->
<g id="edge18" class="edge"><title>Node4&#45;&gt;Node19</title>
<path fill="none" stroke="midnightblue" d="M153.757,-90.5251C166.744,-83.3957 182.67,-74.6984 197,-67 202.727,-63.923 208.988,-60.6037 214.658,-57.6137"/>
<polygon fill="midnightblue" stroke="midnightblue" points="151.961,-87.5181 144.884,-95.4026 155.334,-93.6524 151.961,-87.5181"/>
</g>
<!-- Node6 -->
<g id="node6" class="node"><title>Node6</title>
<g id="a_node6"><a xlink:href="group__shapes__2d.html#ga7eefb280ad124a8d35eb4218e5f0bdad" target="_top" xlink:title="A general triangle specified by its sides with a removed triangular core. ">
<polygon fill="white" stroke="black" points="308.5,-76.5 308.5,-95.5 379.5,-95.5 379.5,-76.5 308.5,-76.5"/>
<text text-anchor="middle" x="344" y="-83.5" font-family="Helvetica,sans-Serif" font-size="10.00">triangle_ls_c</text>
</a>
</g>
</g>
<!-- Node5&#45;&gt;Node6 -->
<g id="edge5" class="edge"><title>Node5&#45;&gt;Node6</title>
<path fill="none" stroke="midnightblue" d="M271.867,-111.028C286.256,-105.966 302.455,-100.266 315.756,-95.5859"/>
<polygon fill="midnightblue" stroke="midnightblue" points="270.524,-107.79 262.253,-114.411 272.848,-114.393 270.524,-107.79"/>
</g>
<!-- Node9 -->
<g id="node9" class="node"><title>Node9</title>
<g id="a_node9"><a xlink:href="group__shapes__2d.html#ga7452bf5414a3677ec806a31aed6b61dd" target="_top" xlink:title="A two&#45;dimensional star. ">
<polygon fill="white" stroke="black" points="322,-152.5 322,-171.5 366,-171.5 366,-152.5 322,-152.5"/>
<text text-anchor="middle" x="344" y="-159.5" font-family="Helvetica,sans-Serif" font-size="10.00">star2d</text>
</a>
</g>
</g>
<!-- Node5&#45;&gt;Node9 -->
<g id="edge8" class="edge"><title>Node5&#45;&gt;Node9</title>
<path fill="none" stroke="midnightblue" d="M271.753,-136.932C288.467,-142.812 307.643,-149.56 321.888,-154.572"/>
<polygon fill="midnightblue" stroke="midnightblue" points="272.848,-133.607 262.253,-133.589 270.524,-140.21 272.848,-133.607"/>
</g>
<!-- Node11 -->
<g id="node11" class="node"><title>Node11</title>
<g id="a_node11"><a xlink:href="group__shapes__2de.html#gace35f9581cef6d5c20c3fd1d922284d1" target="_top" xlink:title="An extruded general triangle specified by a list of its three side lengths. ">
<polygon fill="white" stroke="black" points="311,-114.5 311,-133.5 377,-133.5 377,-114.5 311,-114.5"/>
<text text-anchor="middle" x="344" y="-121.5" font-family="Helvetica,sans-Serif" font-size="10.00">etriangle_ls</text>
</a>
</g>
</g>
<!-- Node5&#45;&gt;Node11 -->
<g id="edge10" class="edge"><title>Node5&#45;&gt;Node11</title>
<path fill="none" stroke="midnightblue" d="M274.662,-124C286.581,-124 299.504,-124 310.871,-124"/>
<polygon fill="midnightblue" stroke="midnightblue" points="274.512,-120.5 264.511,-124 274.511,-127.5 274.512,-120.5"/>
</g>
<!-- Node7 -->
<g id="node7" class="node"><title>Node7</title>
<g id="a_node7"><a xlink:href="group__shapes__2de.html#ga0c99582ccf3d5b1425c99001b228c202" target="_top" xlink:title="A general triangle specified by its sides with a removed triangular core. ">
<polygon fill="white" stroke="black" points="417,-95.5 417,-114.5 494,-114.5 494,-95.5 417,-95.5"/>
<text text-anchor="middle" x="455.5" y="-102.5" font-family="Helvetica,sans-Serif" font-size="10.00">etriangle_ls_c</text>
</a>
</g>
</g>
<!-- Node6&#45;&gt;Node7 -->
<g id="edge6" class="edge"><title>Node6&#45;&gt;Node7</title>
<path fill="none" stroke="midnightblue" d="M389.579,-93.7351C398.566,-95.2946 407.933,-96.9198 416.663,-98.4347"/>
<polygon fill="midnightblue" stroke="midnightblue" points="390.098,-90.2729 379.646,-92.0117 388.901,-97.1699 390.098,-90.2729"/>
</g>
<!-- Node8 -->
<g id="node8" class="node"><title>Node8</title>
<g id="a_node8"><a xlink:href="group__shapes__3d.html#gaa3137155089f4d50c13ebea05402edd0" target="_top" xlink:title="A triangular cross&#45;sectional profile revolved about the z&#45;axis. ">
<polygon fill="white" stroke="black" points="429.5,-57.5 429.5,-76.5 481.5,-76.5 481.5,-57.5 429.5,-57.5"/>
<text text-anchor="middle" x="455.5" y="-64.5" font-family="Helvetica,sans-Serif" font-size="10.00">torus_tp</text>
</a>
</g>
</g>
<!-- Node6&#45;&gt;Node8 -->
<g id="edge7" class="edge"><title>Node6&#45;&gt;Node8</title>
<path fill="none" stroke="midnightblue" d="M389.776,-78.2306C403.312,-75.882 417.69,-73.3872 429.447,-71.3471"/>
<polygon fill="midnightblue" stroke="midnightblue" points="388.901,-74.8301 379.646,-79.9883 390.098,-81.7271 388.901,-74.8301"/>
</g>
<!-- Node10 -->
<g id="node10" class="node"><title>Node10</title>
<g id="a_node10"><a xlink:href="group__shapes__2de.html#ga69ece32102ccb27e9985975fa4590251" target="_top" xlink:title="An extruded two&#45;dimensional star. ">
<polygon fill="white" stroke="black" points="431,-152.5 431,-171.5 480,-171.5 480,-152.5 431,-152.5"/>
<text text-anchor="middle" x="455.5" y="-159.5" font-family="Helvetica,sans-Serif" font-size="10.00">estar2d</text>
</a>
</g>
</g>
<!-- Node9&#45;&gt;Node10 -->
<g id="edge9" class="edge"><title>Node9&#45;&gt;Node10</title>
<path fill="none" stroke="midnightblue" d="M376.324,-162C393.655,-162 414.846,-162 430.791,-162"/>
<polygon fill="midnightblue" stroke="midnightblue" points="376.113,-158.5 366.113,-162 376.113,-165.5 376.113,-158.5"/>
</g>
<!-- Node13 -->
<g id="node13" class="node"><title>Node13</title>
<g id="a_node13"><a xlink:href="group__shapes__2de.html#gae4dc22fae0c22daa5d4844755cd268ac" target="_top" xlink:title="An extruded general triangle specified by two sides and the included angle. ">
<polygon fill="white" stroke="black" points="307,-38.5 307,-57.5 381,-57.5 381,-38.5 307,-38.5"/>
<text text-anchor="middle" x="344" y="-45.5" font-family="Helvetica,sans-Serif" font-size="10.00">etriangle_sas</text>
</a>
</g>
</g>
<!-- Node12&#45;&gt;Node13 -->
<g id="edge12" class="edge"><title>Node12&#45;&gt;Node13</title>
<path fill="none" stroke="midnightblue" d="M271.867,-73.0282C286.256,-67.9656 302.455,-62.2659 315.756,-57.5859"/>
<polygon fill="midnightblue" stroke="midnightblue" points="270.524,-69.7903 262.253,-76.411 272.848,-76.3935 270.524,-69.7903"/>
</g>
<!-- Node15 -->
<g id="node15" class="node"><title>Node15</title>
<g id="a_node15"><a xlink:href="group__shapes__2de.html#ga5b1240a97e34583d10011e5d0044ca28" target="_top" xlink:title="An extruded general triangle specified by a side and two adjacent angles. ">
<polygon fill="white" stroke="black" points="307,-190.5 307,-209.5 381,-209.5 381,-190.5 307,-190.5"/>
<text text-anchor="middle" x="344" y="-197.5" font-family="Helvetica,sans-Serif" font-size="10.00">etriangle_asa</text>
</a>
</g>
</g>
<!-- Node14&#45;&gt;Node15 -->
<g id="edge14" class="edge"><title>Node14&#45;&gt;Node15</title>
<path fill="none" stroke="midnightblue" d="M278.836,-200C288.131,-200 297.844,-200 306.817,-200"/>
<polygon fill="midnightblue" stroke="midnightblue" points="278.58,-196.5 268.58,-200 278.58,-203.5 278.58,-196.5"/>
</g>
<!-- Node17 -->
<g id="node17" class="node"><title>Node17</title>
<g id="a_node17"><a xlink:href="group__shapes__2de.html#ga8a3300cf4ca82dad9002965960a76a9c" target="_top" xlink:title="An extruded general triangle specified by a side, one adjacent angle and the opposite angle...">
<polygon fill="white" stroke="black" points="307,-0.5 307,-19.5 381,-19.5 381,-0.5 307,-0.5"/>
<text text-anchor="middle" x="344" y="-7.5" font-family="Helvetica,sans-Serif" font-size="10.00">etriangle_aas</text>
</a>
</g>
</g>
<!-- Node16&#45;&gt;Node17 -->
<g id="edge16" class="edge"><title>Node16&#45;&gt;Node17</title>
<path fill="none" stroke="midnightblue" d="M278.836,-10C288.131,-10 297.844,-10 306.817,-10"/>
<polygon fill="midnightblue" stroke="midnightblue" points="278.58,-6.5001 268.58,-10 278.58,-13.5001 278.58,-6.5001"/>
</g>
</g>
</svg>
