<?xml version="1.0" encoding="UTF-8" standalone="no"?>
<!DOCTYPE svg PUBLIC "-//W3C//DTD SVG 1.1//EN"
 "http://www.w3.org/Graphics/SVG/1.1/DTD/svg11.dtd">
<!-- Generated by graphviz version 2.38.0 (20140413.2041)
 -->
<!-- Title: torus_rp Pages: 1 -->
<svg width="420pt" height="217pt"
 viewBox="0.00 0.00 420.00 216.79" xmlns="http://www.w3.org/2000/svg" xmlns:xlink="http://www.w3.org/1999/xlink">
<g id="graph0" class="graph" transform="scale(1 1) rotate(0) translate(4 212.793)">
<title>torus_rp</title>
<polygon fill="white" stroke="none" points="-4,4 -4,-212.793 416,-212.793 416,4 -4,4"/>
<!-- Node1 -->
<g id="node1" class="node"><title>Node1</title>
<polygon fill="#bfbfbf" stroke="black" points="0,-108.293 0,-127.293 52,-127.293 52,-108.293 0,-108.293"/>
<text text-anchor="middle" x="26" y="-115.293" font-family="Helvetica,sans-Serif" font-size="10.00">torus_rp</text>
</g>
<!-- Node2 -->
<g id="node2" class="node"><title>Node2</title>
<g id="a_node2"><a xlink:href="group__tools__extrude.html#gaf0e13f98be7287f0157f2026db5e52d3" target="_top" xlink:title="Translate, rotate, and revolve the 2d shape about the z&#45;axis with linear elongation. ">
<polygon fill="white" stroke="black" points="191,-170.293 191,-189.293 286,-189.293 286,-170.293 191,-170.293"/>
<text text-anchor="middle" x="238.5" y="-177.293" font-family="Helvetica,sans-Serif" font-size="10.00">rotate_extrude_tre</text>
</a>
</g>
</g>
<!-- Node1&#45;&gt;Node2 -->
<g id="edge1" class="edge"><title>Node1&#45;&gt;Node2</title>
<path fill="none" stroke="midnightblue" d="M52.3912,-125.271C87.8228,-135.707 152.546,-154.771 195.295,-167.362"/>
<polygon fill="midnightblue" stroke="midnightblue" points="194.545,-170.789 205.126,-170.257 196.523,-164.075 194.545,-170.789"/>
</g>
<!-- Node8 -->
<g id="node8" class="node"><title>Node8</title>
<g id="a_node8"><a xlink:href="group__shapes__2d.html#ga803b8196745be0e3a338def3c58e3b2b" target="_top" xlink:title="A rectangle with a removed rectangular core. ">
<polygon fill="white" stroke="black" points="88,-75.2927 88,-94.2927 155,-94.2927 155,-75.2927 88,-75.2927"/>
<text text-anchor="middle" x="121.5" y="-82.2927" font-family="Helvetica,sans-Serif" font-size="10.00">rectangle_c</text>
</a>
</g>
</g>
<!-- Node1&#45;&gt;Node8 -->
<g id="edge7" class="edge"><title>Node1&#45;&gt;Node8</title>
<path fill="none" stroke="midnightblue" d="M52.0563,-108.949C61.8303,-105.5 73.2298,-101.476 83.8903,-97.7138"/>
<polygon fill="midnightblue" stroke="midnightblue" points="85.1399,-100.984 93.4049,-94.3556 82.8101,-94.3834 85.1399,-100.984"/>
</g>
<!-- Node3 -->
<g id="node3" class="node"><title>Node3</title>
<g id="a_node3"><a xlink:href="group__datatypes__identify__scalar.html#ga62dbd35f498bfc2a090812b1cf8a37c4" target="_top" xlink:title="Test if a value is not defined. ">
<polygon fill="white" stroke="black" points="333.5,-75.2927 333.5,-94.2927 400.5,-94.2927 400.5,-75.2927 333.5,-75.2927"/>
<text text-anchor="middle" x="367" y="-82.2927" font-family="Helvetica,sans-Serif" font-size="10.00">not_defined</text>
</a>
</g>
</g>
<!-- Node2&#45;&gt;Node3 -->
<g id="edge2" class="edge"><title>Node2&#45;&gt;Node3</title>
<path fill="none" stroke="midnightblue" d="M270.548,-170.266C276.044,-167.729 281.456,-164.603 286,-160.793 308.961,-141.543 299.23,-123.268 322,-103.793 323.937,-102.136 326.039,-100.604 328.241,-99.1909"/>
<polygon fill="midnightblue" stroke="midnightblue" points="330.016,-102.209 337.08,-94.3123 326.634,-96.0803 330.016,-102.209"/>
</g>
<!-- Node4 -->
<g id="node4" class="node"><title>Node4</title>
<g id="a_node4"><a xlink:href="group__tools__extrude.html#ga485bf7d4456a1599bd170a40d6123d79" target="_top" xlink:title="Translate, rotate, and revolve the 2d shape about the z&#45;axis. ">
<polygon fill="white" stroke="black" points="322,-189.293 322,-208.293 412,-208.293 412,-189.293 322,-189.293"/>
<text text-anchor="middle" x="367" y="-196.293" font-family="Helvetica,sans-Serif" font-size="10.00">rotate_extrude_tr</text>
</a>
</g>
</g>
<!-- Node2&#45;&gt;Node4 -->
<g id="edge3" class="edge"><title>Node2&#45;&gt;Node4</title>
<path fill="none" stroke="midnightblue" d="M286.245,-186.814C294.642,-188.075 303.457,-189.399 312.038,-190.688"/>
<polygon fill="midnightblue" stroke="midnightblue" points="311.557,-194.155 321.966,-192.179 312.597,-187.232 311.557,-194.155"/>
</g>
<!-- Node5 -->
<g id="node5" class="node"><title>Node5</title>
<g id="a_node5"><a xlink:href="group__datatypes__identify__scalar.html#ga258e8911375d30ff85a6e52df01dc1c5" target="_top" xlink:title="Test if a value is a single non&#45;iterable value. ">
<polygon fill="white" stroke="black" points="339,-151.293 339,-170.293 395,-170.293 395,-151.293 339,-151.293"/>
<text text-anchor="middle" x="367" y="-158.293" font-family="Helvetica,sans-Serif" font-size="10.00">is_scalar</text>
</a>
</g>
</g>
<!-- Node2&#45;&gt;Node5 -->
<g id="edge4" class="edge"><title>Node2&#45;&gt;Node5</title>
<path fill="none" stroke="midnightblue" d="M286.245,-172.772C300.239,-170.67 315.393,-168.394 328.695,-166.396"/>
<polygon fill="midnightblue" stroke="midnightblue" points="329.539,-169.808 338.909,-164.862 328.5,-162.886 329.539,-169.808"/>
</g>
<!-- Node6 -->
<g id="node6" class="node"><title>Node6</title>
<g id="a_node6"><a xlink:href="group__datatypes__operate__iterable.html#ga3d679b4617986e31d5e2803971b37af8" target="_top" xlink:title="Return an iterable element when it exists or a default value when it does not. ">
<polygon fill="white" stroke="black" points="333.5,-37.2927 333.5,-56.2927 400.5,-56.2927 400.5,-37.2927 333.5,-37.2927"/>
<text text-anchor="middle" x="367" y="-44.2927" font-family="Helvetica,sans-Serif" font-size="10.00">edefined_or</text>
</a>
</g>
</g>
<!-- Node2&#45;&gt;Node6 -->
<g id="edge5" class="edge"><title>Node2&#45;&gt;Node6</title>
<path fill="none" stroke="midnightblue" d="M272.637,-170.267C277.553,-167.776 282.226,-164.665 286,-160.793 317.515,-128.458 290.806,-98.4366 322,-65.7927 323.38,-64.3489 324.887,-63.0089 326.487,-61.7658"/>
<polygon fill="midnightblue" stroke="midnightblue" points="328.504,-64.6314 335.083,-56.327 324.761,-58.7159 328.504,-64.6314"/>
</g>
<!-- Node7 -->
<g id="node7" class="node"><title>Node7</title>
<g id="a_node7"><a xlink:href="group__math__bitwise.html#ga31b8c7bc875d9fadd86b49a1ba39d1a4" target="_top" xlink:title="Test if a base&#45;two bit position of an integer value equals a test bit. ">
<polygon fill="white" stroke="black" points="322.5,-113.293 322.5,-132.293 411.5,-132.293 411.5,-113.293 322.5,-113.293"/>
<text text-anchor="middle" x="367" y="-120.293" font-family="Helvetica,sans-Serif" font-size="10.00">bitwise_is_equal</text>
</a>
</g>
</g>
<!-- Node2&#45;&gt;Node7 -->
<g id="edge6" class="edge"><title>Node2&#45;&gt;Node7</title>
<path fill="none" stroke="midnightblue" d="M264.309,-170.179C271.378,-167.299 279.046,-164.039 286,-160.793 302.393,-153.14 305.683,-149.607 322,-141.793 325.799,-139.973 329.816,-138.13 333.817,-136.345"/>
<polygon fill="midnightblue" stroke="midnightblue" points="335.254,-139.536 343.011,-132.319 332.446,-133.124 335.254,-139.536"/>
</g>
<!-- Node8&#45;&gt;Node6 -->
<g id="edge8" class="edge"><title>Node8&#45;&gt;Node6</title>
<path fill="none" stroke="midnightblue" d="M127.511,-75.2493C137.128,-58.1021 160.002,-22.5843 191,-8.79268 241.63,13.7341 306.593,-13.5296 341.385,-32.17"/>
<polygon fill="midnightblue" stroke="midnightblue" points="339.919,-35.3592 350.362,-37.1504 343.315,-29.2382 339.919,-35.3592"/>
</g>
<!-- Node9 -->
<g id="node9" class="node"><title>Node9</title>
<g id="a_node9"><a xlink:href="group__datatypes__identify__iterable.html#ga3fa2b76e04a4c8bba633d9e5e08004e8" target="_top" xlink:title="Test if no element of a list of values is undefined. ">
<polygon fill="white" stroke="black" points="207,-132.293 207,-151.293 270,-151.293 270,-132.293 207,-132.293"/>
<text text-anchor="middle" x="238.5" y="-139.293" font-family="Helvetica,sans-Serif" font-size="10.00">all_defined</text>
</a>
</g>
</g>
<!-- Node8&#45;&gt;Node9 -->
<g id="edge9" class="edge"><title>Node8&#45;&gt;Node9</title>
<path fill="none" stroke="midnightblue" d="M138.546,-94.4052C152.25,-102.441 172.606,-113.971 191,-122.793 194.892,-124.659 199.018,-126.515 203.141,-128.293"/>
<polygon fill="midnightblue" stroke="midnightblue" points="202.071,-131.639 212.647,-132.272 204.774,-125.182 202.071,-131.639"/>
</g>
<!-- Node10 -->
<g id="node10" class="node"><title>Node10</title>
<g id="a_node10"><a xlink:href="group__datatypes__operate__scalar.html#gac119300e8c83de0037f2d0a4d9f0ab5c" target="_top" xlink:title="Return a value when it is defined or a default value when it is not. ">
<polygon fill="white" stroke="black" points="207.5,-94.2927 207.5,-113.293 269.5,-113.293 269.5,-94.2927 207.5,-94.2927"/>
<text text-anchor="middle" x="238.5" y="-101.293" font-family="Helvetica,sans-Serif" font-size="10.00">defined_or</text>
</a>
</g>
</g>
<!-- Node8&#45;&gt;Node10 -->
<g id="edge10" class="edge"><title>Node8&#45;&gt;Node10</title>
<path fill="none" stroke="midnightblue" d="M155.147,-90.1865C168.164,-92.3372 183.286,-94.8355 196.992,-97.1001"/>
<polygon fill="midnightblue" stroke="midnightblue" points="196.703,-100.6 207.139,-98.7766 197.844,-93.6932 196.703,-100.6"/>
</g>
<!-- Node11 -->
<g id="node11" class="node"><title>Node11</title>
<g id="a_node11"><a xlink:href="group__datatypes__identify__scalar.html#ga51d7fdb800c10f4b7479d23b89ab8d22" target="_top" xlink:title="Test if a value is defined. ">
<polygon fill="white" stroke="black" points="208,-18.2927 208,-37.2927 269,-37.2927 269,-18.2927 208,-18.2927"/>
<text text-anchor="middle" x="238.5" y="-25.2927" font-family="Helvetica,sans-Serif" font-size="10.00">is_defined</text>
</a>
</g>
</g>
<!-- Node8&#45;&gt;Node11 -->
<g id="edge11" class="edge"><title>Node8&#45;&gt;Node11</title>
<path fill="none" stroke="midnightblue" d="M138.546,-75.1801C152.25,-67.1442 172.606,-55.6141 191,-46.7927 194.892,-44.9259 199.018,-43.0707 203.141,-41.2924"/>
<polygon fill="midnightblue" stroke="midnightblue" points="204.774,-44.4033 212.647,-37.3132 202.071,-37.9463 204.774,-44.4033"/>
</g>
<!-- Node12 -->
<g id="node12" class="node"><title>Node12</title>
<g id="a_node12"><a xlink:href="group__shapes__2d.html#ga9f679c29426c44ee83b4a13b5dd47138" target="_top" xlink:title="A rectangle with edge, fillet, and/or chamfer corners. ">
<polygon fill="white" stroke="black" points="210.5,-56.2927 210.5,-75.2927 266.5,-75.2927 266.5,-56.2927 210.5,-56.2927"/>
<text text-anchor="middle" x="238.5" y="-63.2927" font-family="Helvetica,sans-Serif" font-size="10.00">rectangle</text>
</a>
</g>
</g>
<!-- Node8&#45;&gt;Node12 -->
<g id="edge12" class="edge"><title>Node8&#45;&gt;Node12</title>
<path fill="none" stroke="midnightblue" d="M155.147,-79.3989C169.147,-77.0858 185.581,-74.3707 200.07,-71.9767"/>
<polygon fill="midnightblue" stroke="midnightblue" points="200.919,-75.384 210.215,-70.3007 199.778,-68.4777 200.919,-75.384"/>
</g>
<!-- Node12&#45;&gt;Node3 -->
<g id="edge14" class="edge"><title>Node12&#45;&gt;Node3</title>
<path fill="none" stroke="midnightblue" d="M266.637,-69.8687C283.054,-72.3343 304.35,-75.5331 323.015,-78.3364"/>
<polygon fill="midnightblue" stroke="midnightblue" points="322.657,-81.8218 333.065,-79.846 323.696,-74.8994 322.657,-81.8218"/>
</g>
<!-- Node12&#45;&gt;Node5 -->
<g id="edge15" class="edge"><title>Node12&#45;&gt;Node5</title>
<path fill="none" stroke="midnightblue" d="M266.664,-73.6247C273.45,-76.423 280.386,-80.0864 286,-84.7927 308.961,-104.042 299.23,-122.317 322,-141.793 324.389,-143.836 327.031,-145.69 329.8,-147.366"/>
<polygon fill="midnightblue" stroke="midnightblue" points="328.434,-150.601 338.919,-152.128 331.674,-144.396 328.434,-150.601"/>
</g>
<!-- Node12&#45;&gt;Node6 -->
<g id="edge13" class="edge"><title>Node12&#45;&gt;Node6</title>
<path fill="none" stroke="midnightblue" d="M266.637,-61.7167C283.054,-59.251 304.35,-56.0523 323.015,-53.2489"/>
<polygon fill="midnightblue" stroke="midnightblue" points="323.696,-56.6859 333.065,-51.7394 322.657,-49.7636 323.696,-56.6859"/>
</g>
<!-- Node12&#45;&gt;Node7 -->
<g id="edge16" class="edge"><title>Node12&#45;&gt;Node7</title>
<path fill="none" stroke="midnightblue" d="M264.309,-75.4067C271.378,-78.2868 279.046,-81.5464 286,-84.7927 302.393,-92.4456 305.683,-95.9784 322,-103.793 325.799,-105.612 329.816,-107.455 333.817,-109.241"/>
<polygon fill="midnightblue" stroke="midnightblue" points="332.446,-112.461 343.011,-113.267 335.254,-106.049 332.446,-112.461"/>
</g>
</g>
</svg>
