<?xml version="1.0" encoding="UTF-8" standalone="no"?>
<!DOCTYPE svg PUBLIC "-//W3C//DTD SVG 1.1//EN"
 "http://www.w3.org/Graphics/SVG/1.1/DTD/svg11.dtd">
<!-- Generated by graphviz version 2.38.0 (20140413.2041)
 -->
<!-- Title: torus_ep Pages: 1 -->
<svg width="502pt" height="313pt"
 viewBox="0.00 0.00 502.00 313.00" xmlns="http://www.w3.org/2000/svg" xmlns:xlink="http://www.w3.org/1999/xlink">
<g id="graph0" class="graph" transform="scale(1 1) rotate(0) translate(4 309)">
<title>torus_ep</title>
<polygon fill="white" stroke="none" points="-4,4 -4,-309 498,-309 498,4 -4,4"/>
<!-- Node1 -->
<g id="node1" class="node"><title>Node1</title>
<polygon fill="#bfbfbf" stroke="black" points="0,-123.5 0,-142.5 54,-142.5 54,-123.5 0,-123.5"/>
<text text-anchor="middle" x="27" y="-130.5" font-family="Helvetica,sans-Serif" font-size="10.00">torus_ep</text>
</g>
<!-- Node2 -->
<g id="node2" class="node"><title>Node2</title>
<g id="a_node2"><a xlink:href="group__tools__extrude.html#gaf0e13f98be7287f0157f2026db5e52d3" target="_top" xlink:title="Translate, rotate, and revolve the 2d shape about the z&#45;axis with linear elongation. ">
<polygon fill="white" stroke="black" points="90,-190.5 90,-209.5 185,-209.5 185,-190.5 90,-190.5"/>
<text text-anchor="middle" x="137.5" y="-197.5" font-family="Helvetica,sans-Serif" font-size="10.00">rotate_extrude_tre</text>
</a>
</g>
</g>
<!-- Node1&#45;&gt;Node2 -->
<g id="edge1" class="edge"><title>Node1&#45;&gt;Node2</title>
<path fill="none" stroke="midnightblue" d="M43.5454,-142.599C61.5124,-153.694 91.2979,-172.087 112.302,-185.058"/>
<polygon fill="midnightblue" stroke="midnightblue" points="110.636,-188.142 120.983,-190.418 114.314,-182.186 110.636,-188.142"/>
</g>
<!-- Node8 -->
<g id="node8" class="node"><title>Node8</title>
<g id="a_node8"><a xlink:href="group__shapes__2d.html#ga3e186b32450bffe183da7422f0b19f95" target="_top" xlink:title="A sector of an ellipse with a removed elliptical core. ">
<polygon fill="white" stroke="black" points="107.5,-57.5 107.5,-76.5 167.5,-76.5 167.5,-57.5 107.5,-57.5"/>
<text text-anchor="middle" x="137.5" y="-64.5" font-family="Helvetica,sans-Serif" font-size="10.00">ellipse_cs</text>
</a>
</g>
</g>
<!-- Node1&#45;&gt;Node8 -->
<g id="edge7" class="edge"><title>Node1&#45;&gt;Node8</title>
<path fill="none" stroke="midnightblue" d="M44.0095,-123.261C61.9816,-112.329 91.346,-94.4669 112.162,-81.8045"/>
<polygon fill="midnightblue" stroke="midnightblue" points="114.053,-84.7512 120.778,-76.5639 110.415,-78.7707 114.053,-84.7512"/>
</g>
<!-- Node3 -->
<g id="node3" class="node"><title>Node3</title>
<g id="a_node3"><a xlink:href="group__datatypes__identify__scalar.html#ga62dbd35f498bfc2a090812b1cf8a37c4" target="_top" xlink:title="Test if a value is not defined. ">
<polygon fill="white" stroke="black" points="232.5,-285.5 232.5,-304.5 299.5,-304.5 299.5,-285.5 232.5,-285.5"/>
<text text-anchor="middle" x="266" y="-292.5" font-family="Helvetica,sans-Serif" font-size="10.00">not_defined</text>
</a>
</g>
</g>
<!-- Node2&#45;&gt;Node3 -->
<g id="edge2" class="edge"><title>Node2&#45;&gt;Node3</title>
<path fill="none" stroke="midnightblue" d="M146.818,-209.514C160.836,-225.09 190.623,-256.27 221,-276 223.721,-277.768 226.635,-279.438 229.619,-280.999"/>
<polygon fill="midnightblue" stroke="midnightblue" points="228.13,-284.166 238.659,-285.344 231.162,-277.857 228.13,-284.166"/>
</g>
<!-- Node4 -->
<g id="node4" class="node"><title>Node4</title>
<g id="a_node4"><a xlink:href="group__tools__extrude.html#ga485bf7d4456a1599bd170a40d6123d79" target="_top" xlink:title="Translate, rotate, and revolve the 2d shape about the z&#45;axis. ">
<polygon fill="white" stroke="black" points="221,-247.5 221,-266.5 311,-266.5 311,-247.5 221,-247.5"/>
<text text-anchor="middle" x="266" y="-254.5" font-family="Helvetica,sans-Serif" font-size="10.00">rotate_extrude_tr</text>
</a>
</g>
</g>
<!-- Node2&#45;&gt;Node4 -->
<g id="edge3" class="edge"><title>Node2&#45;&gt;Node4</title>
<path fill="none" stroke="midnightblue" d="M158.781,-209.506C175.443,-217.276 199.686,-228.491 221,-238 224.932,-239.754 229.073,-241.576 233.177,-243.366"/>
<polygon fill="midnightblue" stroke="midnightblue" points="232.003,-246.672 242.571,-247.438 234.788,-240.249 232.003,-246.672"/>
</g>
<!-- Node5 -->
<g id="node5" class="node"><title>Node5</title>
<g id="a_node5"><a xlink:href="group__datatypes__identify__scalar.html#ga258e8911375d30ff85a6e52df01dc1c5" target="_top" xlink:title="Test if a value is a single non&#45;iterable value. ">
<polygon fill="white" stroke="black" points="238,-209.5 238,-228.5 294,-228.5 294,-209.5 238,-209.5"/>
<text text-anchor="middle" x="266" y="-216.5" font-family="Helvetica,sans-Serif" font-size="10.00">is_scalar</text>
</a>
</g>
</g>
<!-- Node2&#45;&gt;Node5 -->
<g id="edge4" class="edge"><title>Node2&#45;&gt;Node5</title>
<path fill="none" stroke="midnightblue" d="M185.245,-207.021C199.239,-209.123 214.393,-211.399 227.695,-213.397"/>
<polygon fill="midnightblue" stroke="midnightblue" points="227.5,-216.907 237.909,-214.931 228.539,-209.984 227.5,-216.907"/>
</g>
<!-- Node6 -->
<g id="node6" class="node"><title>Node6</title>
<g id="a_node6"><a xlink:href="group__datatypes__operate__iterable.html#ga3d679b4617986e31d5e2803971b37af8" target="_top" xlink:title="Return an iterable element when it exists or a default value when it does not. ">
<polygon fill="white" stroke="black" points="427,-38.5 427,-57.5 494,-57.5 494,-38.5 427,-38.5"/>
<text text-anchor="middle" x="460.5" y="-45.5" font-family="Helvetica,sans-Serif" font-size="10.00">edefined_or</text>
</a>
</g>
</g>
<!-- Node2&#45;&gt;Node6 -->
<g id="edge5" class="edge"><title>Node2&#45;&gt;Node6</title>
<path fill="none" stroke="midnightblue" d="M185.304,-195.298C221.047,-190.401 270.829,-180.705 311,-162 364.671,-137.009 417.149,-89.8644 442.958,-64.7458"/>
<polygon fill="midnightblue" stroke="midnightblue" points="445.429,-67.2244 450.083,-57.7064 440.509,-62.2447 445.429,-67.2244"/>
</g>
<!-- Node7 -->
<g id="node7" class="node"><title>Node7</title>
<g id="a_node7"><a xlink:href="group__math__bitwise.html#ga31b8c7bc875d9fadd86b49a1ba39d1a4" target="_top" xlink:title="Test if a base&#45;two bit position of an integer value equals a test bit. ">
<polygon fill="white" stroke="black" points="221.5,-133.5 221.5,-152.5 310.5,-152.5 310.5,-133.5 221.5,-133.5"/>
<text text-anchor="middle" x="266" y="-140.5" font-family="Helvetica,sans-Serif" font-size="10.00">bitwise_is_equal</text>
</a>
</g>
</g>
<!-- Node2&#45;&gt;Node7 -->
<g id="edge6" class="edge"><title>Node2&#45;&gt;Node7</title>
<path fill="none" stroke="midnightblue" d="M159.673,-190.459C180.106,-181.253 211.259,-167.215 234.39,-156.793"/>
<polygon fill="midnightblue" stroke="midnightblue" points="236.078,-159.871 243.758,-152.572 233.203,-153.489 236.078,-159.871"/>
</g>
<!-- Node9 -->
<g id="node9" class="node"><title>Node9</title>
<g id="a_node9"><a xlink:href="group__datatypes__identify__iterable.html#ga3fa2b76e04a4c8bba633d9e5e08004e8" target="_top" xlink:title="Test if no element of a list of values is undefined. ">
<polygon fill="white" stroke="black" points="234.5,-95.5 234.5,-114.5 297.5,-114.5 297.5,-95.5 234.5,-95.5"/>
<text text-anchor="middle" x="266" y="-102.5" font-family="Helvetica,sans-Serif" font-size="10.00">all_defined</text>
</a>
</g>
</g>
<!-- Node8&#45;&gt;Node9 -->
<g id="edge8" class="edge"><title>Node8&#45;&gt;Node9</title>
<path fill="none" stroke="midnightblue" d="M167.522,-75.718C184.463,-80.8072 206.094,-87.3048 224.672,-92.8858"/>
<polygon fill="midnightblue" stroke="midnightblue" points="223.765,-96.2676 234.349,-95.7925 225.779,-89.5635 223.765,-96.2676"/>
</g>
<!-- Node10 -->
<g id="node10" class="node"><title>Node10</title>
<g id="a_node10"><a xlink:href="group__datatypes__identify__scalar.html#ga51d7fdb800c10f4b7479d23b89ab8d22" target="_top" xlink:title="Test if a value is defined. ">
<polygon fill="white" stroke="black" points="235.5,-57.5 235.5,-76.5 296.5,-76.5 296.5,-57.5 235.5,-57.5"/>
<text text-anchor="middle" x="266" y="-64.5" font-family="Helvetica,sans-Serif" font-size="10.00">is_defined</text>
</a>
</g>
</g>
<!-- Node8&#45;&gt;Node10 -->
<g id="edge9" class="edge"><title>Node8&#45;&gt;Node10</title>
<path fill="none" stroke="midnightblue" d="M167.522,-67C184.631,-67 206.523,-67 225.225,-67"/>
<polygon fill="midnightblue" stroke="midnightblue" points="225.235,-70.5001 235.235,-67 225.235,-63.5001 225.235,-70.5001"/>
</g>
<!-- Node11 -->
<g id="node11" class="node"><title>Node11</title>
<g id="a_node11"><a xlink:href="group__shapes__2d.html#ga8925cd75276266667fbc1f0896482a7a" target="_top" xlink:title="An ellipse sector. ">
<polygon fill="white" stroke="black" points="238.5,-19.5 238.5,-38.5 293.5,-38.5 293.5,-19.5 238.5,-19.5"/>
<text text-anchor="middle" x="266" y="-26.5" font-family="Helvetica,sans-Serif" font-size="10.00">ellipse_s</text>
</a>
</g>
</g>
<!-- Node8&#45;&gt;Node11 -->
<g id="edge10" class="edge"><title>Node8&#45;&gt;Node11</title>
<path fill="none" stroke="midnightblue" d="M167.522,-58.282C185.66,-52.8335 209.171,-45.7707 228.559,-39.9466"/>
<polygon fill="midnightblue" stroke="midnightblue" points="229.701,-43.2581 238.272,-37.0291 227.687,-36.5541 229.701,-43.2581"/>
</g>
<!-- Node12 -->
<g id="node12" class="node"><title>Node12</title>
<g id="a_node12"><a xlink:href="group__shapes__2d.html#ga7d62c56f88b839dc7e879ff16f968ea2" target="_top" xlink:title="An ellipse. ">
<polygon fill="white" stroke="black" points="347,-0.5 347,-19.5 391,-19.5 391,-0.5 347,-0.5"/>
<text text-anchor="middle" x="369" y="-7.5" font-family="Helvetica,sans-Serif" font-size="10.00">ellipse</text>
</a>
</g>
</g>
<!-- Node8&#45;&gt;Node12 -->
<g id="edge14" class="edge"><title>Node8&#45;&gt;Node12</title>
<path fill="none" stroke="midnightblue" d="M148.086,-57.3785C162.451,-43.7192 191.085,-19.3293 221,-10 259.575,2.03001 306.665,-0.820732 336.981,-4.74695"/>
<polygon fill="midnightblue" stroke="midnightblue" points="336.572,-8.22381 346.963,-6.15793 337.552,-1.29271 336.572,-8.22381"/>
</g>
<!-- Node11&#45;&gt;Node6 -->
<g id="edge11" class="edge"><title>Node11&#45;&gt;Node6</title>
<path fill="none" stroke="midnightblue" d="M293.766,-31.6419C325.589,-34.7828 379.111,-40.0655 416.703,-43.7758"/>
<polygon fill="midnightblue" stroke="midnightblue" points="416.556,-47.2783 426.852,-44.7776 417.244,-40.3122 416.556,-47.2783"/>
</g>
<!-- Node11&#45;&gt;Node12 -->
<g id="edge12" class="edge"><title>Node11&#45;&gt;Node12</title>
<path fill="none" stroke="midnightblue" d="M293.537,-24.008C306.764,-21.5197 322.846,-18.4943 336.675,-15.8927"/>
<polygon fill="midnightblue" stroke="midnightblue" points="337.546,-19.2904 346.727,-14.0018 336.252,-12.411 337.546,-19.2904"/>
</g>
<!-- Node12&#45;&gt;Node6 -->
<g id="edge13" class="edge"><title>Node12&#45;&gt;Node6</title>
<path fill="none" stroke="midnightblue" d="M391.21,-19.0055C402.06,-23.612 415.49,-29.3144 427.562,-34.4399"/>
<polygon fill="midnightblue" stroke="midnightblue" points="426.305,-37.7083 436.877,-38.3949 429.041,-31.265 426.305,-37.7083"/>
</g>
</g>
</svg>
