<?xml version="1.0" encoding="UTF-8" standalone="no"?>
<!DOCTYPE svg PUBLIC "-//W3C//DTD SVG 1.1//EN"
 "http://www.w3.org/Graphics/SVG/1.1/DTD/svg11.dtd">
<!-- Generated by graphviz version 2.38.0 (20140413.2041)
 -->
<!-- Title: bitwise_is_equal Pages: 1 -->
<svg width="439pt" height="180pt"
 viewBox="0.00 0.00 439.00 180.00" xmlns="http://www.w3.org/2000/svg" xmlns:xlink="http://www.w3.org/1999/xlink">
<g id="graph0" class="graph" transform="scale(1 1) rotate(0) translate(4 176)">
<title>bitwise_is_equal</title>
<polygon fill="white" stroke="none" points="-4,4 -4,-176 435,-176 435,4 -4,4"/>
<!-- Node1 -->
<g id="node1" class="node"><title>Node1</title>
<polygon fill="#bfbfbf" stroke="black" points="0,-95.5 0,-114.5 89,-114.5 89,-95.5 0,-95.5"/>
<text text-anchor="middle" x="44.5" y="-102.5" font-family="Helvetica,sans-Serif" font-size="10.00">bitwise_is_equal</text>
</g>
<!-- Node2 -->
<g id="node2" class="node"><title>Node2</title>
<g id="a_node2"><a xlink:href="group__shapes__2d.html#ga9f679c29426c44ee83b4a13b5dd47138" target="_top" xlink:title="A rectangle with edge, fillet, and/or chamfer corners. ">
<polygon fill="white" stroke="black" points="144.5,-152.5 144.5,-171.5 200.5,-171.5 200.5,-152.5 144.5,-152.5"/>
<text text-anchor="middle" x="172.5" y="-159.5" font-family="Helvetica,sans-Serif" font-size="10.00">rectangle</text>
</a>
</g>
</g>
<!-- Node1&#45;&gt;Node2 -->
<g id="edge1" class="edge"><title>Node1&#45;&gt;Node2</title>
<path fill="none" stroke="midnightblue" d="M73.9324,-119.082C89.0099,-126.425 107.904,-135.429 125,-143 132.177,-146.178 140.054,-149.47 147.253,-152.403"/>
<polygon fill="midnightblue" stroke="midnightblue" points="75.153,-115.783 64.6327,-114.529 72.0748,-122.07 75.153,-115.783"/>
</g>
<!-- Node7 -->
<g id="node7" class="node"><title>Node7</title>
<g id="a_node7"><a xlink:href="group__shapes__3d.html#gaf1d71183e9f3fb9a5e48b8c9a67085d6" target="_top" xlink:title="A cuboid with edge, fillet, or chamfer corners. ">
<polygon fill="white" stroke="black" points="150,-114.5 150,-133.5 195,-133.5 195,-114.5 150,-114.5"/>
<text text-anchor="middle" x="172.5" y="-121.5" font-family="Helvetica,sans-Serif" font-size="10.00">cuboid</text>
</a>
</g>
</g>
<!-- Node1&#45;&gt;Node7 -->
<g id="edge6" class="edge"><title>Node1&#45;&gt;Node7</title>
<path fill="none" stroke="midnightblue" d="M99.4896,-113.141C117.204,-115.813 135.889,-118.63 149.786,-120.726"/>
<polygon fill="midnightblue" stroke="midnightblue" points="99.6252,-109.622 89.2151,-111.592 98.5814,-116.544 99.6252,-109.622"/>
</g>
<!-- Node8 -->
<g id="node8" class="node"><title>Node8</title>
<g id="a_node8"><a xlink:href="group__tools__edge.html#ga44c40aee1894824493e1a6b5b36e610f" target="_top" xlink:title="A 3d edge&#45;finish additive shape specified by intersection radius. ">
<polygon fill="white" stroke="black" points="139,-76.5 139,-95.5 206,-95.5 206,-76.5 139,-76.5"/>
<text text-anchor="middle" x="172.5" y="-83.5" font-family="Helvetica,sans-Serif" font-size="10.00">edge_add_r</text>
</a>
</g>
</g>
<!-- Node1&#45;&gt;Node8 -->
<g id="edge7" class="edge"><title>Node1&#45;&gt;Node8</title>
<path fill="none" stroke="midnightblue" d="M99.3723,-96.8764C112.855,-94.8433 126.908,-92.7242 138.989,-90.9024"/>
<polygon fill="midnightblue" stroke="midnightblue" points="98.5814,-93.456 89.2151,-98.408 99.6252,-100.378 98.5814,-93.456"/>
</g>
<!-- Node9 -->
<g id="node9" class="node"><title>Node9</title>
<g id="a_node9"><a xlink:href="group__tools__extrude.html#gaf0e13f98be7287f0157f2026db5e52d3" target="_top" xlink:title="Translate, rotate, and revolve the 2d shape about the z&#45;axis with linear elongation. ">
<polygon fill="white" stroke="black" points="125,-38.5 125,-57.5 220,-57.5 220,-38.5 125,-38.5"/>
<text text-anchor="middle" x="172.5" y="-45.5" font-family="Helvetica,sans-Serif" font-size="10.00">rotate_extrude_tre</text>
</a>
</g>
</g>
<!-- Node1&#45;&gt;Node9 -->
<g id="edge8" class="edge"><title>Node1&#45;&gt;Node9</title>
<path fill="none" stroke="midnightblue" d="M73.9324,-90.9175C89.0099,-83.575 107.904,-74.5712 125,-67 132.177,-63.8219 140.054,-60.5301 147.253,-57.5973"/>
<polygon fill="midnightblue" stroke="midnightblue" points="72.0748,-87.93 64.6327,-95.471 75.153,-94.2169 72.0748,-87.93"/>
</g>
<!-- Node3 -->
<g id="node3" class="node"><title>Node3</title>
<g id="a_node3"><a xlink:href="group__shapes__2d.html#ga803b8196745be0e3a338def3c58e3b2b" target="_top" xlink:title="A rectangle with a removed rectangular core. ">
<polygon fill="white" stroke="black" points="256,-152.5 256,-171.5 323,-171.5 323,-152.5 256,-152.5"/>
<text text-anchor="middle" x="289.5" y="-159.5" font-family="Helvetica,sans-Serif" font-size="10.00">rectangle_c</text>
</a>
</g>
</g>
<!-- Node2&#45;&gt;Node3 -->
<g id="edge2" class="edge"><title>Node2&#45;&gt;Node3</title>
<path fill="none" stroke="midnightblue" d="M210.873,-162C225.327,-162 241.722,-162 255.709,-162"/>
<polygon fill="midnightblue" stroke="midnightblue" points="210.753,-158.5 200.753,-162 210.753,-165.5 210.753,-158.5"/>
</g>
<!-- Node6 -->
<g id="node6" class="node"><title>Node6</title>
<g id="a_node6"><a xlink:href="group__shapes__2de.html#ga5fd9b6fca4860ae7c54cbeb9024e74f0" target="_top" xlink:title="An extruded rectangle with edge, fillet, and/or chamfer corners. ">
<polygon fill="white" stroke="black" points="258.5,-114.5 258.5,-133.5 320.5,-133.5 320.5,-114.5 258.5,-114.5"/>
<text text-anchor="middle" x="289.5" y="-121.5" font-family="Helvetica,sans-Serif" font-size="10.00">erectangle</text>
</a>
</g>
</g>
<!-- Node2&#45;&gt;Node6 -->
<g id="edge5" class="edge"><title>Node2&#45;&gt;Node6</title>
<path fill="none" stroke="midnightblue" d="M210.283,-149.846C226.178,-144.593 244.512,-138.535 259.432,-133.605"/>
<polygon fill="midnightblue" stroke="midnightblue" points="209.15,-146.534 200.753,-152.995 211.347,-153.18 209.15,-146.534"/>
</g>
<!-- Node4 -->
<g id="node4" class="node"><title>Node4</title>
<g id="a_node4"><a xlink:href="group__shapes__2de.html#gaa24ca5f53d00f33d356f40f740a1d7f7" target="_top" xlink:title="An extruded rectangle with a removed rectangular core. ">
<polygon fill="white" stroke="black" points="359,-152.5 359,-171.5 431,-171.5 431,-152.5 359,-152.5"/>
<text text-anchor="middle" x="395" y="-159.5" font-family="Helvetica,sans-Serif" font-size="10.00">erectangle_c</text>
</a>
</g>
</g>
<!-- Node3&#45;&gt;Node4 -->
<g id="edge3" class="edge"><title>Node3&#45;&gt;Node4</title>
<path fill="none" stroke="midnightblue" d="M333.401,-162C341.91,-162 350.749,-162 358.96,-162"/>
<polygon fill="midnightblue" stroke="midnightblue" points="333.248,-158.5 323.248,-162 333.248,-165.5 333.248,-158.5"/>
</g>
<!-- Node5 -->
<g id="node5" class="node"><title>Node5</title>
<g id="a_node5"><a xlink:href="group__shapes__3d.html#gac521ba184d6ac7693df4db67df2499b8" target="_top" xlink:title="A rectangular cross&#45;sectional profile revolved about the z&#45;axis. ">
<polygon fill="white" stroke="black" points="369,-95.5 369,-114.5 421,-114.5 421,-95.5 369,-95.5"/>
<text text-anchor="middle" x="395" y="-102.5" font-family="Helvetica,sans-Serif" font-size="10.00">torus_rp</text>
</a>
</g>
</g>
<!-- Node3&#45;&gt;Node5 -->
<g id="edge4" class="edge"><title>Node3&#45;&gt;Node5</title>
<path fill="none" stroke="midnightblue" d="M317,-147.406C335.769,-137.069 360.41,-123.499 376.702,-114.526"/>
<polygon fill="midnightblue" stroke="midnightblue" points="315.128,-144.441 308.057,-152.331 318.505,-150.572 315.128,-144.441"/>
</g>
<!-- Node9&#45;&gt;Node5 -->
<g id="edge9" class="edge"><title>Node9&#45;&gt;Node5</title>
<path fill="none" stroke="midnightblue" d="M220.317,-60.1024C265.744,-71.8454 332.947,-89.2177 368.992,-98.5353"/>
<polygon fill="midnightblue" stroke="midnightblue" points="220.964,-56.6547 210.407,-57.5405 219.212,-63.432 220.964,-56.6547"/>
</g>
<!-- Node10 -->
<g id="node10" class="node"><title>Node10</title>
<g id="a_node10"><a xlink:href="group__shapes__3d.html#gaa3137155089f4d50c13ebea05402edd0" target="_top" xlink:title="A triangular cross&#45;sectional profile revolved about the z&#45;axis. ">
<polygon fill="white" stroke="black" points="263.5,-38.5 263.5,-57.5 315.5,-57.5 315.5,-38.5 263.5,-38.5"/>
<text text-anchor="middle" x="289.5" y="-45.5" font-family="Helvetica,sans-Serif" font-size="10.00">torus_tp</text>
</a>
</g>
</g>
<!-- Node9&#45;&gt;Node10 -->
<g id="edge10" class="edge"><title>Node9&#45;&gt;Node10</title>
<path fill="none" stroke="midnightblue" d="M230.352,-48C241.882,-48 253.447,-48 263.192,-48"/>
<polygon fill="midnightblue" stroke="midnightblue" points="230.275,-44.5001 220.275,-48 230.275,-51.5001 230.275,-44.5001"/>
</g>
<!-- Node11 -->
<g id="node11" class="node"><title>Node11</title>
<g id="a_node11"><a xlink:href="group__shapes__3d.html#gaf5589d4cfa40aefb7853b4eebc792312" target="_top" xlink:title="An elliptical cross&#45;sectional profile revolved about the z&#45;axis. ">
<polygon fill="white" stroke="black" points="262.5,-0.5 262.5,-19.5 316.5,-19.5 316.5,-0.5 262.5,-0.5"/>
<text text-anchor="middle" x="289.5" y="-7.5" font-family="Helvetica,sans-Serif" font-size="10.00">torus_ep</text>
</a>
</g>
</g>
<!-- Node9&#45;&gt;Node11 -->
<g id="edge11" class="edge"><title>Node9&#45;&gt;Node11</title>
<path fill="none" stroke="midnightblue" d="M212.393,-35.1485C228.81,-29.7237 247.495,-23.5494 262.243,-18.6763"/>
<polygon fill="midnightblue" stroke="midnightblue" points="210.916,-31.9502 202.519,-38.411 213.113,-38.5967 210.916,-31.9502"/>
</g>
</g>
</svg>
