<?xml version="1.0" encoding="UTF-8" standalone="no"?>
<!DOCTYPE svg PUBLIC "-//W3C//DTD SVG 1.1//EN"
 "http://www.w3.org/Graphics/SVG/1.1/DTD/svg11.dtd">
<!-- Generated by graphviz version 2.38.0 (20140413.2041)
 -->
<!-- Title: eellipse Pages: 1 -->
<svg width="292pt" height="104pt"
 viewBox="0.00 0.00 292.00 104.00" xmlns="http://www.w3.org/2000/svg" xmlns:xlink="http://www.w3.org/1999/xlink">
<g id="graph0" class="graph" transform="scale(1 1) rotate(0) translate(4 100)">
<title>eellipse</title>
<polygon fill="white" stroke="none" points="-4,4 -4,-100 288,-100 288,4 -4,4"/>
<!-- Node1 -->
<g id="node1" class="node"><title>Node1</title>
<polygon fill="#bfbfbf" stroke="black" points="0,-19.5 0,-38.5 50,-38.5 50,-19.5 0,-19.5"/>
<text text-anchor="middle" x="25" y="-26.5" font-family="Helvetica,sans-Serif" font-size="10.00">eellipse</text>
</g>
<!-- Node2 -->
<g id="node2" class="node"><title>Node2</title>
<g id="a_node2"><a xlink:href="group__tools__extrude.html#ga2cb6eb6927858c6b5e1e2dfadb197bf9" target="_top" xlink:title="Linearly extrude 2d shape with extrusion upper and lower scaling. ">
<polygon fill="white" stroke="black" points="86,-38.5 86,-57.5 181,-57.5 181,-38.5 86,-38.5"/>
<text text-anchor="middle" x="133.5" y="-45.5" font-family="Helvetica,sans-Serif" font-size="10.00">linear_extrude_uls</text>
</a>
</g>
</g>
<!-- Node1&#45;&gt;Node2 -->
<g id="edge1" class="edge"><title>Node1&#45;&gt;Node2</title>
<path fill="none" stroke="midnightblue" d="M50.1665,-33.3114C57.836,-34.6797 66.6665,-36.2551 75.6344,-37.855"/>
<polygon fill="midnightblue" stroke="midnightblue" points="75.304,-41.3512 85.7633,-39.662 76.5335,-34.46 75.304,-41.3512"/>
</g>
<!-- Node5 -->
<g id="node5" class="node"><title>Node5</title>
<g id="a_node5"><a xlink:href="group__shapes__2d.html#ga7d62c56f88b839dc7e879ff16f968ea2" target="_top" xlink:title="An ellipse. ">
<polygon fill="white" stroke="black" points="111.5,-0.5 111.5,-19.5 155.5,-19.5 155.5,-0.5 111.5,-0.5"/>
<text text-anchor="middle" x="133.5" y="-7.5" font-family="Helvetica,sans-Serif" font-size="10.00">ellipse</text>
</a>
</g>
</g>
<!-- Node1&#45;&gt;Node5 -->
<g id="edge4" class="edge"><title>Node1&#45;&gt;Node5</title>
<path fill="none" stroke="midnightblue" d="M50.1665,-24.6886C65.2695,-21.9942 84.8752,-18.4965 101.166,-15.5901"/>
<polygon fill="midnightblue" stroke="midnightblue" points="102.082,-18.982 111.312,-13.7801 100.852,-12.0908 102.082,-18.982"/>
</g>
<!-- Node3 -->
<g id="node3" class="node"><title>Node3</title>
<g id="a_node3"><a xlink:href="group__datatypes__identify__scalar.html#ga62dbd35f498bfc2a090812b1cf8a37c4" target="_top" xlink:title="Test if a value is not defined. ">
<polygon fill="white" stroke="black" points="217,-76.5 217,-95.5 284,-95.5 284,-76.5 217,-76.5"/>
<text text-anchor="middle" x="250.5" y="-83.5" font-family="Helvetica,sans-Serif" font-size="10.00">not_defined</text>
</a>
</g>
</g>
<!-- Node2&#45;&gt;Node3 -->
<g id="edge2" class="edge"><title>Node2&#45;&gt;Node3</title>
<path fill="none" stroke="midnightblue" d="M163.519,-57.589C177.82,-62.3144 195.265,-68.0789 210.695,-73.1774"/>
<polygon fill="midnightblue" stroke="midnightblue" points="209.897,-76.5998 220.49,-76.4141 212.093,-69.9532 209.897,-76.5998"/>
</g>
<!-- Node4 -->
<g id="node4" class="node"><title>Node4</title>
<g id="a_node4"><a xlink:href="group__datatypes__identify__scalar.html#ga258e8911375d30ff85a6e52df01dc1c5" target="_top" xlink:title="Test if a value is a single non&#45;iterable value. ">
<polygon fill="white" stroke="black" points="222.5,-38.5 222.5,-57.5 278.5,-57.5 278.5,-38.5 222.5,-38.5"/>
<text text-anchor="middle" x="250.5" y="-45.5" font-family="Helvetica,sans-Serif" font-size="10.00">is_scalar</text>
</a>
</g>
</g>
<!-- Node2&#45;&gt;Node4 -->
<g id="edge3" class="edge"><title>Node2&#45;&gt;Node4</title>
<path fill="none" stroke="midnightblue" d="M181.275,-48C191.504,-48 202.203,-48 212.014,-48"/>
<polygon fill="midnightblue" stroke="midnightblue" points="212.247,-51.5001 222.247,-48 212.247,-44.5001 212.247,-51.5001"/>
</g>
<!-- Node6 -->
<g id="node6" class="node"><title>Node6</title>
<g id="a_node6"><a xlink:href="group__datatypes__operate__iterable.html#ga3d679b4617986e31d5e2803971b37af8" target="_top" xlink:title="Return an iterable element when it exists or a default value when it does not. ">
<polygon fill="white" stroke="black" points="217,-0.5 217,-19.5 284,-19.5 284,-0.5 217,-0.5"/>
<text text-anchor="middle" x="250.5" y="-7.5" font-family="Helvetica,sans-Serif" font-size="10.00">edefined_or</text>
</a>
</g>
</g>
<!-- Node5&#45;&gt;Node6 -->
<g id="edge5" class="edge"><title>Node5&#45;&gt;Node6</title>
<path fill="none" stroke="midnightblue" d="M155.593,-10C169.903,-10 189.323,-10 206.79,-10"/>
<polygon fill="midnightblue" stroke="midnightblue" points="206.796,-13.5001 216.796,-10 206.796,-6.5001 206.796,-13.5001"/>
</g>
</g>
</svg>
