<?xml version="1.0" encoding="UTF-8" standalone="no"?>
<!DOCTYPE svg PUBLIC "-//W3C//DTD SVG 1.1//EN"
 "http://www.w3.org/Graphics/SVG/1.1/DTD/svg11.dtd">
<!-- Generated by graphviz version 2.38.0 (20140413.2041)
 -->
<!-- Title: dimension_2to3_v Pages: 1 -->
<svg width="302pt" height="66pt"
 viewBox="0.00 0.00 302.00 66.00" xmlns="http://www.w3.org/2000/svg" xmlns:xlink="http://www.w3.org/1999/xlink">
<g id="graph0" class="graph" transform="scale(1 1) rotate(0) translate(4 62)">
<title>dimension_2to3_v</title>
<polygon fill="white" stroke="none" points="-4,4 -4,-62 298,-62 298,4 -4,4"/>
<!-- Node1 -->
<g id="node1" class="node"><title>Node1</title>
<polygon fill="#bfbfbf" stroke="black" points="0,-19.5 0,-38.5 95,-38.5 95,-19.5 0,-19.5"/>
<text text-anchor="middle" x="47.5" y="-26.5" font-family="Helvetica,sans-Serif" font-size="10.00">dimension_2to3_v</text>
</g>
<!-- Node2 -->
<g id="node2" class="node"><title>Node2</title>
<g id="a_node2"><a xlink:href="group__tools__align.html#ga8572146edee6a1b5b4b87392c2cd1928" target="_top" xlink:title="Align a line or vector to a reference line or vector. ">
<polygon fill="white" stroke="black" points="149,-38.5 149,-57.5 196,-57.5 196,-38.5 149,-38.5"/>
<text text-anchor="middle" x="172.5" y="-45.5" font-family="Helvetica,sans-Serif" font-size="10.00">align_ll</text>
</a>
</g>
</g>
<!-- Node1&#45;&gt;Node2 -->
<g id="edge1" class="edge"><title>Node1&#45;&gt;Node2</title>
<path fill="none" stroke="midnightblue" d="M105.045,-37.7347C120.485,-40.1197 136.344,-42.5694 148.696,-44.4774"/>
<polygon fill="midnightblue" stroke="midnightblue" points="105.418,-34.2508 95.001,-36.1831 104.349,-41.1688 105.418,-34.2508"/>
</g>
<!-- Node4 -->
<g id="node4" class="node"><title>Node4</title>
<g id="a_node4"><a xlink:href="group__tools__polytope.html#ga530c86f9c90ce074aa7adc29834f0539" target="_top" xlink:title="Assemble a polytope skeletal frame using child objects. ">
<polygon fill="white" stroke="black" points="131,-0.5 131,-19.5 214,-19.5 214,-0.5 131,-0.5"/>
<text text-anchor="middle" x="172.5" y="-7.5" font-family="Helvetica,sans-Serif" font-size="10.00">polytope_frame</text>
</a>
</g>
</g>
<!-- Node1&#45;&gt;Node4 -->
<g id="edge3" class="edge"><title>Node1&#45;&gt;Node4</title>
<path fill="none" stroke="midnightblue" d="M105.134,-20.2517C113.853,-18.9049 122.703,-17.5378 130.978,-16.2596"/>
<polygon fill="midnightblue" stroke="midnightblue" points="104.349,-16.8312 95.001,-21.8169 105.418,-23.7492 104.349,-16.8312"/>
</g>
<!-- Node3 -->
<g id="node3" class="node"><title>Node3</title>
<g id="a_node3"><a xlink:href="group__tools__align.html#gac0c4c3356fb23ec1ddd12e24f958ef6a" target="_top" xlink:title="Align a shapes&#39; x, y, or z Cartesian axis to reference line or vector. ">
<polygon fill="white" stroke="black" points="250,-38.5 250,-57.5 294,-57.5 294,-38.5 250,-38.5"/>
<text text-anchor="middle" x="272" y="-45.5" font-family="Helvetica,sans-Serif" font-size="10.00">align_l</text>
</a>
</g>
</g>
<!-- Node2&#45;&gt;Node3 -->
<g id="edge2" class="edge"><title>Node2&#45;&gt;Node3</title>
<path fill="none" stroke="midnightblue" d="M206.148,-48C220.558,-48 237.082,-48 249.844,-48"/>
<polygon fill="midnightblue" stroke="midnightblue" points="206.114,-44.5001 196.114,-48 206.113,-51.5001 206.114,-44.5001"/>
</g>
</g>
</svg>
