<?xml version="1.0" encoding="UTF-8" standalone="no"?>
<!DOCTYPE svg PUBLIC "-//W3C//DTD SVG 1.1//EN"
 "http://www.w3.org/Graphics/SVG/1.1/DTD/svg11.dtd">
<!-- Generated by graphviz version 2.38.0 (20140413.2041)
 -->
<!-- Title: eellipse_s Pages: 1 -->
<svg width="405pt" height="142pt"
 viewBox="0.00 0.00 405.00 142.00" xmlns="http://www.w3.org/2000/svg" xmlns:xlink="http://www.w3.org/1999/xlink">
<g id="graph0" class="graph" transform="scale(1 1) rotate(0) translate(4 138)">
<title>eellipse_s</title>
<polygon fill="white" stroke="none" points="-4,4 -4,-138 401,-138 401,4 -4,4"/>
<!-- Node1 -->
<g id="node1" class="node"><title>Node1</title>
<polygon fill="#bfbfbf" stroke="black" points="0,-57.5 0,-76.5 60,-76.5 60,-57.5 0,-57.5"/>
<text text-anchor="middle" x="30" y="-64.5" font-family="Helvetica,sans-Serif" font-size="10.00">eellipse_s</text>
</g>
<!-- Node2 -->
<g id="node2" class="node"><title>Node2</title>
<g id="a_node2"><a xlink:href="group__tools__extrude.html#ga2cb6eb6927858c6b5e1e2dfadb197bf9" target="_top" xlink:title="Linearly extrude 2d shape with extrusion upper and lower scaling. ">
<polygon fill="white" stroke="black" points="96,-76.5 96,-95.5 191,-95.5 191,-76.5 96,-76.5"/>
<text text-anchor="middle" x="143.5" y="-83.5" font-family="Helvetica,sans-Serif" font-size="10.00">linear_extrude_uls</text>
</a>
</g>
</g>
<!-- Node1&#45;&gt;Node2 -->
<g id="edge1" class="edge"><title>Node1&#45;&gt;Node2</title>
<path fill="none" stroke="midnightblue" d="M60.0042,-71.9424C67.9741,-73.3005 76.8997,-74.8215 85.8561,-76.3477"/>
<polygon fill="midnightblue" stroke="midnightblue" points="85.486,-79.835 95.9319,-78.0646 86.6619,-72.9345 85.486,-79.835"/>
</g>
<!-- Node5 -->
<g id="node5" class="node"><title>Node5</title>
<g id="a_node5"><a xlink:href="group__shapes__2d.html#ga8925cd75276266667fbc1f0896482a7a" target="_top" xlink:title="An ellipse sector. ">
<polygon fill="white" stroke="black" points="116,-38.5 116,-57.5 171,-57.5 171,-38.5 116,-38.5"/>
<text text-anchor="middle" x="143.5" y="-45.5" font-family="Helvetica,sans-Serif" font-size="10.00">ellipse_s</text>
</a>
</g>
</g>
<!-- Node1&#45;&gt;Node5 -->
<g id="edge4" class="edge"><title>Node1&#45;&gt;Node5</title>
<path fill="none" stroke="midnightblue" d="M60.0042,-62.0576C74.0546,-59.6633 91.0753,-56.763 105.998,-54.22"/>
<polygon fill="midnightblue" stroke="midnightblue" points="106.662,-57.6574 115.932,-52.5272 105.487,-50.7568 106.662,-57.6574"/>
</g>
<!-- Node3 -->
<g id="node3" class="node"><title>Node3</title>
<g id="a_node3"><a xlink:href="group__datatypes__identify__scalar.html#ga62dbd35f498bfc2a090812b1cf8a37c4" target="_top" xlink:title="Test if a value is not defined. ">
<polygon fill="white" stroke="black" points="227,-114.5 227,-133.5 294,-133.5 294,-114.5 227,-114.5"/>
<text text-anchor="middle" x="260.5" y="-121.5" font-family="Helvetica,sans-Serif" font-size="10.00">not_defined</text>
</a>
</g>
</g>
<!-- Node2&#45;&gt;Node3 -->
<g id="edge2" class="edge"><title>Node2&#45;&gt;Node3</title>
<path fill="none" stroke="midnightblue" d="M173.519,-95.589C187.82,-100.314 205.265,-106.079 220.695,-111.177"/>
<polygon fill="midnightblue" stroke="midnightblue" points="219.897,-114.6 230.49,-114.414 222.093,-107.953 219.897,-114.6"/>
</g>
<!-- Node4 -->
<g id="node4" class="node"><title>Node4</title>
<g id="a_node4"><a xlink:href="group__datatypes__identify__scalar.html#ga258e8911375d30ff85a6e52df01dc1c5" target="_top" xlink:title="Test if a value is a single non&#45;iterable value. ">
<polygon fill="white" stroke="black" points="232.5,-76.5 232.5,-95.5 288.5,-95.5 288.5,-76.5 232.5,-76.5"/>
<text text-anchor="middle" x="260.5" y="-83.5" font-family="Helvetica,sans-Serif" font-size="10.00">is_scalar</text>
</a>
</g>
</g>
<!-- Node2&#45;&gt;Node4 -->
<g id="edge3" class="edge"><title>Node2&#45;&gt;Node4</title>
<path fill="none" stroke="midnightblue" d="M191.275,-86C201.504,-86 212.203,-86 222.014,-86"/>
<polygon fill="midnightblue" stroke="midnightblue" points="222.247,-89.5001 232.247,-86 222.247,-82.5001 222.247,-89.5001"/>
</g>
<!-- Node6 -->
<g id="node6" class="node"><title>Node6</title>
<g id="a_node6"><a xlink:href="group__datatypes__operate__iterable.html#ga3d679b4617986e31d5e2803971b37af8" target="_top" xlink:title="Return an iterable element when it exists or a default value when it does not. ">
<polygon fill="white" stroke="black" points="330,-19.5 330,-38.5 397,-38.5 397,-19.5 330,-19.5"/>
<text text-anchor="middle" x="363.5" y="-26.5" font-family="Helvetica,sans-Serif" font-size="10.00">edefined_or</text>
</a>
</g>
</g>
<!-- Node5&#45;&gt;Node6 -->
<g id="edge5" class="edge"><title>Node5&#45;&gt;Node6</title>
<path fill="none" stroke="midnightblue" d="M171.231,-45.6702C208.282,-42.441 275.652,-36.5693 319.737,-32.7271"/>
<polygon fill="midnightblue" stroke="midnightblue" points="320.205,-36.1996 329.863,-31.8445 319.597,-29.2261 320.205,-36.1996"/>
</g>
<!-- Node7 -->
<g id="node7" class="node"><title>Node7</title>
<g id="a_node7"><a xlink:href="group__shapes__2d.html#ga7d62c56f88b839dc7e879ff16f968ea2" target="_top" xlink:title="An ellipse. ">
<polygon fill="white" stroke="black" points="238.5,-0.5 238.5,-19.5 282.5,-19.5 282.5,-0.5 238.5,-0.5"/>
<text text-anchor="middle" x="260.5" y="-7.5" font-family="Helvetica,sans-Serif" font-size="10.00">ellipse</text>
</a>
</g>
</g>
<!-- Node5&#45;&gt;Node7 -->
<g id="edge6" class="edge"><title>Node5&#45;&gt;Node7</title>
<path fill="none" stroke="midnightblue" d="M171.172,-39.1865C188.336,-33.5151 210.702,-26.1246 228.633,-20.1996"/>
<polygon fill="midnightblue" stroke="midnightblue" points="229.943,-23.4528 238.34,-16.9919 227.747,-16.8062 229.943,-23.4528"/>
</g>
<!-- Node7&#45;&gt;Node6 -->
<g id="edge7" class="edge"><title>Node7&#45;&gt;Node6</title>
<path fill="none" stroke="midnightblue" d="M282.92,-14.0294C293.703,-16.0579 307.169,-18.5912 319.941,-20.9938"/>
<polygon fill="midnightblue" stroke="midnightblue" points="319.495,-24.4712 329.97,-22.8804 320.789,-17.5919 319.495,-24.4712"/>
</g>
</g>
</svg>
