<?xml version="1.0" encoding="UTF-8" standalone="no"?>
<!DOCTYPE svg PUBLIC "-//W3C//DTD SVG 1.1//EN"
 "http://www.w3.org/Graphics/SVG/1.1/DTD/svg11.dtd">
<!-- Generated by graphviz version 2.38.0 (20140413.2041)
 -->
<!-- Title: cone Pages: 1 -->
<svg width="401pt" height="256pt"
 viewBox="0.00 0.00 401.00 256.00" xmlns="http://www.w3.org/2000/svg" xmlns:xlink="http://www.w3.org/1999/xlink">
<g id="graph0" class="graph" transform="scale(1 1) rotate(0) translate(4 252)">
<title>cone</title>
<polygon fill="white" stroke="none" points="-4,4 -4,-252 397,-252 397,4 -4,4"/>
<!-- Node1 -->
<g id="node1" class="node"><title>Node1</title>
<polygon fill="#bfbfbf" stroke="black" points="0,-114.5 0,-133.5 38,-133.5 38,-114.5 0,-114.5"/>
<text text-anchor="middle" x="19" y="-121.5" font-family="Helvetica,sans-Serif" font-size="10.00">cone</text>
</g>
<!-- Node2 -->
<g id="node2" class="node"><title>Node2</title>
<g id="a_node2"><a xlink:href="group__datatypes__operate__scalar.html#gac119300e8c83de0037f2d0a4d9f0ab5c" target="_top" xlink:title="Return a value when it is defined or a default value when it is not. ">
<polygon fill="white" stroke="black" points="307.5,-228.5 307.5,-247.5 369.5,-247.5 369.5,-228.5 307.5,-228.5"/>
<text text-anchor="middle" x="338.5" y="-235.5" font-family="Helvetica,sans-Serif" font-size="10.00">defined_or</text>
</a>
</g>
</g>
<!-- Node1&#45;&gt;Node2 -->
<g id="edge1" class="edge"><title>Node1&#45;&gt;Node2</title>
<path fill="none" stroke="midnightblue" d="M38.2343,-130.591C81.089,-146.075 191.577,-185.959 284,-219 289.53,-220.977 295.383,-223.063 301.11,-225.1"/>
<polygon fill="midnightblue" stroke="midnightblue" points="299.955,-228.403 310.55,-228.454 302.299,-221.807 299.955,-228.403"/>
</g>
<!-- Node3 -->
<g id="node3" class="node"><title>Node3</title>
<g id="a_node3"><a xlink:href="group__datatypes__identify__iterable.html#ga6dc7861bf5a7777bfb33876493107d75" target="_top" xlink:title="Test if any element of a list of values is undefined. ">
<polygon fill="white" stroke="black" points="298.5,-0.5 298.5,-19.5 378.5,-19.5 378.5,-0.5 298.5,-0.5"/>
<text text-anchor="middle" x="338.5" y="-7.5" font-family="Helvetica,sans-Serif" font-size="10.00">any_undefined</text>
</a>
</g>
</g>
<!-- Node1&#45;&gt;Node3 -->
<g id="edge2" class="edge"><title>Node1&#45;&gt;Node3</title>
<path fill="none" stroke="midnightblue" d="M37.1317,-114.324C65.7314,-98.5159 125.361,-67.0098 179,-48 214.86,-35.2911 256.772,-25.45 288.487,-18.9699"/>
<polygon fill="midnightblue" stroke="midnightblue" points="289.287,-22.3793 298.406,-16.9846 287.913,-15.5154 289.287,-22.3793"/>
</g>
<!-- Node4 -->
<g id="node4" class="node"><title>Node4</title>
<g id="a_node4"><a xlink:href="group__shapes__2d.html#gab40e6edfc3c5ab69a4db26301318cd86" target="_top" xlink:title="A general triangle specified by its three side lengths. ">
<polygon fill="white" stroke="black" points="74,-114.5 74,-133.5 143,-133.5 143,-114.5 74,-114.5"/>
<text text-anchor="middle" x="108.5" y="-121.5" font-family="Helvetica,sans-Serif" font-size="10.00">triangle_sss</text>
</a>
</g>
</g>
<!-- Node1&#45;&gt;Node4 -->
<g id="edge3" class="edge"><title>Node1&#45;&gt;Node4</title>
<path fill="none" stroke="midnightblue" d="M38.1301,-124C45.6222,-124 54.6621,-124 63.7045,-124"/>
<polygon fill="midnightblue" stroke="midnightblue" points="63.8326,-127.5 73.8325,-124 63.8325,-120.5 63.8326,-127.5"/>
</g>
<!-- Node5 -->
<g id="node5" class="node"><title>Node5</title>
<g id="a_node5"><a xlink:href="group__datatypes__identify__scalar.html#ga068402d4bbb2bbd22b955ad1e14f104b" target="_top" xlink:title="Test if a numerical value is invalid. ">
<polygon fill="white" stroke="black" points="191,-152.5 191,-171.5 236,-171.5 236,-152.5 191,-152.5"/>
<text text-anchor="middle" x="213.5" y="-159.5" font-family="Helvetica,sans-Serif" font-size="10.00">is_nan</text>
</a>
</g>
</g>
<!-- Node4&#45;&gt;Node5 -->
<g id="edge4" class="edge"><title>Node4&#45;&gt;Node5</title>
<path fill="none" stroke="midnightblue" d="M135.491,-133.589C149.34,-138.698 166.481,-145.022 181.073,-150.405"/>
<polygon fill="midnightblue" stroke="midnightblue" points="180.102,-153.778 190.696,-153.956 182.525,-147.211 180.102,-153.778"/>
</g>
<!-- Node6 -->
<g id="node6" class="node"><title>Node6</title>
<g id="a_node6"><a xlink:href="group__utilities__console.html#ga1ece4e2cff9ae45c85429c226eb8362c" target="_top" xlink:title="Output warning message to console. ">
<polygon fill="white" stroke="black" points="185.5,-57.5 185.5,-76.5 241.5,-76.5 241.5,-57.5 185.5,-57.5"/>
<text text-anchor="middle" x="213.5" y="-64.5" font-family="Helvetica,sans-Serif" font-size="10.00">log_warn</text>
</a>
</g>
</g>
<!-- Node4&#45;&gt;Node6 -->
<g id="edge5" class="edge"><title>Node4&#45;&gt;Node6</title>
<path fill="none" stroke="midnightblue" d="M126.973,-114.331C143.274,-105.31 167.808,-91.7327 186.424,-81.4302"/>
<polygon fill="midnightblue" stroke="midnightblue" points="188.231,-84.4309 195.285,-76.5265 184.841,-78.3062 188.231,-84.4309"/>
</g>
<!-- Node8 -->
<g id="node8" class="node"><title>Node8</title>
<g id="a_node8"><a xlink:href="group__shapes__2d.html#ga33d2a7677306c346ad6be5a488885d86" target="_top" xlink:title="A general triangle specified by three vertices. ">
<polygon fill="white" stroke="black" points="179,-114.5 179,-133.5 248,-133.5 248,-114.5 179,-114.5"/>
<text text-anchor="middle" x="213.5" y="-121.5" font-family="Helvetica,sans-Serif" font-size="10.00">triangle_ppp</text>
</a>
</g>
</g>
<!-- Node4&#45;&gt;Node8 -->
<g id="edge7" class="edge"><title>Node4&#45;&gt;Node8</title>
<path fill="none" stroke="midnightblue" d="M143.226,-124C151.318,-124 160.077,-124 168.557,-124"/>
<polygon fill="midnightblue" stroke="midnightblue" points="168.698,-127.5 178.698,-124 168.698,-120.5 168.698,-127.5"/>
</g>
<!-- Node7 -->
<g id="node7" class="node"><title>Node7</title>
<g id="a_node7"><a xlink:href="group__utilities__console.html#ga4fb6c985031c9b551777b2e9ebd2fc34" target="_top" xlink:title="Format the function call stack as a string. ">
<polygon fill="white" stroke="black" points="318,-38.5 318,-57.5 359,-57.5 359,-38.5 318,-38.5"/>
<text text-anchor="middle" x="338.5" y="-45.5" font-family="Helvetica,sans-Serif" font-size="10.00">stack</text>
</a>
</g>
</g>
<!-- Node6&#45;&gt;Node7 -->
<g id="edge6" class="edge"><title>Node6&#45;&gt;Node7</title>
<path fill="none" stroke="midnightblue" d="M241.798,-62.7833C261.355,-59.7622 287.679,-55.6959 307.769,-52.5926"/>
<polygon fill="midnightblue" stroke="midnightblue" points="308.573,-56.0101 317.921,-51.0244 307.504,-49.0921 308.573,-56.0101"/>
</g>
<!-- Node8&#45;&gt;Node2 -->
<g id="edge8" class="edge"><title>Node8&#45;&gt;Node2</title>
<path fill="none" stroke="midnightblue" d="M236.114,-133.659C240.412,-136.258 244.632,-139.375 248,-143 273.439,-170.382 256.269,-193.941 284,-219 288.114,-222.717 293.002,-225.718 298.127,-228.138"/>
<polygon fill="midnightblue" stroke="midnightblue" points="296.906,-231.42 307.49,-231.896 299.513,-224.923 296.906,-231.42"/>
</g>
<!-- Node8&#45;&gt;Node3 -->
<g id="edge11" class="edge"><title>Node8&#45;&gt;Node3</title>
<path fill="none" stroke="midnightblue" d="M223.766,-114.364C230.757,-106.892 240.407,-96.136 248,-86 265.964,-62.0194 260.596,-47.7089 284,-29 286.274,-27.1825 288.735,-25.5315 291.309,-24.0328"/>
<polygon fill="midnightblue" stroke="midnightblue" points="293.008,-27.0969 300.396,-19.5031 289.885,-20.8322 293.008,-27.0969"/>
</g>
<!-- Node9 -->
<g id="node9" class="node"><title>Node9</title>
<g id="a_node9"><a xlink:href="group__math__triangle.html#ga6eb5bfb1ae077d0db22e41c142233be0" target="_top" xlink:title="Compute the coordinate for the triangle&#39;s incircle. ">
<polygon fill="white" stroke="black" points="284,-152.5 284,-171.5 393,-171.5 393,-152.5 284,-152.5"/>
<text text-anchor="middle" x="338.5" y="-159.5" font-family="Helvetica,sans-Serif" font-size="10.00">triangle_incenter_ppp</text>
</a>
</g>
</g>
<!-- Node8&#45;&gt;Node9 -->
<g id="edge9" class="edge"><title>Node8&#45;&gt;Node9</title>
<path fill="none" stroke="midnightblue" d="M245.538,-133.589C260.979,-138.359 279.848,-144.189 296.466,-149.323"/>
<polygon fill="midnightblue" stroke="midnightblue" points="295.884,-152.806 306.472,-152.414 297.951,-146.118 295.884,-152.806"/>
</g>
<!-- Node10 -->
<g id="node10" class="node"><title>Node10</title>
<g id="a_node10"><a xlink:href="group__math__triangle.html#ga7c94003074f622d6421a665207cafbd7" target="_top" xlink:title="Compute the centroid (geometric center) of a triangle. ">
<polygon fill="white" stroke="black" points="284,-114.5 284,-133.5 393,-133.5 393,-114.5 284,-114.5"/>
<text text-anchor="middle" x="338.5" y="-121.5" font-family="Helvetica,sans-Serif" font-size="10.00">triangle_centroid_ppp</text>
</a>
</g>
</g>
<!-- Node8&#45;&gt;Node10 -->
<g id="edge10" class="edge"><title>Node8&#45;&gt;Node10</title>
<path fill="none" stroke="midnightblue" d="M248.11,-124C255.983,-124 264.63,-124 273.348,-124"/>
<polygon fill="midnightblue" stroke="midnightblue" points="273.573,-127.5 283.573,-124 273.573,-120.5 273.573,-127.5"/>
</g>
<!-- Node11 -->
<g id="node11" class="node"><title>Node11</title>
<g id="a_node11"><a xlink:href="group__math__vector__algebra.html#ga3a0c4c75047b8003ab09286a77a58c86" target="_top" xlink:title="Compute the angle between two lines (or vectors) in a Euclidean 3d or 2d&#45;space. ">
<polygon fill="white" stroke="black" points="313.5,-76.5 313.5,-95.5 363.5,-95.5 363.5,-76.5 313.5,-76.5"/>
<text text-anchor="middle" x="338.5" y="-83.5" font-family="Helvetica,sans-Serif" font-size="10.00">angle_ll</text>
</a>
</g>
</g>
<!-- Node8&#45;&gt;Node11 -->
<g id="edge12" class="edge"><title>Node8&#45;&gt;Node11</title>
<path fill="none" stroke="midnightblue" d="M245.538,-114.411C263.312,-108.92 285.628,-102.026 303.825,-96.4037"/>
<polygon fill="midnightblue" stroke="midnightblue" points="304.935,-99.7242 313.456,-93.4283 302.868,-93.0361 304.935,-99.7242"/>
</g>
<!-- Node12 -->
<g id="node12" class="node"><title>Node12</title>
<g id="a_node12"><a xlink:href="group__math__vector__algebra.html#gaa71caf02a1433e6c84d61d13d12aa581" target="_top" xlink:title="Compute the normalized unit vector of a Euclidean line (or vector). ">
<polygon fill="white" stroke="black" points="318.5,-190.5 318.5,-209.5 358.5,-209.5 358.5,-190.5 318.5,-190.5"/>
<text text-anchor="middle" x="338.5" y="-197.5" font-family="Helvetica,sans-Serif" font-size="10.00">unit_l</text>
</a>
</g>
</g>
<!-- Node8&#45;&gt;Node12 -->
<g id="edge13" class="edge"><title>Node8&#45;&gt;Node12</title>
<path fill="none" stroke="midnightblue" d="M233.557,-133.517C238.45,-136.302 243.577,-139.538 248,-143 266.319,-157.34 264.5,-168.312 284,-181 291.459,-185.853 300.312,-189.647 308.647,-192.524"/>
<polygon fill="midnightblue" stroke="midnightblue" points="307.84,-195.939 318.429,-195.589 309.933,-189.259 307.84,-195.939"/>
</g>
</g>
</svg>
