<?xml version="1.0" encoding="UTF-8" standalone="no"?>
<!DOCTYPE svg PUBLIC "-//W3C//DTD SVG 1.1//EN"
 "http://www.w3.org/Graphics/SVG/1.1/DTD/svg11.dtd">
<!-- Generated by graphviz version 2.38.0 (20140413.2041)
 -->
<!-- Title: etriangle_sss Pages: 1 -->
<svg width="463pt" height="332pt"
 viewBox="0.00 0.00 463.00 332.00" xmlns="http://www.w3.org/2000/svg" xmlns:xlink="http://www.w3.org/1999/xlink">
<g id="graph0" class="graph" transform="scale(1 1) rotate(0) translate(4 328)">
<title>etriangle_sss</title>
<polygon fill="white" stroke="none" points="-4,4 -4,-328 459,-328 459,4 -4,4"/>
<!-- Node1 -->
<g id="node1" class="node"><title>Node1</title>
<polygon fill="#bfbfbf" stroke="black" points="0,-247.5 0,-266.5 74,-266.5 74,-247.5 0,-247.5"/>
<text text-anchor="middle" x="37" y="-254.5" font-family="Helvetica,sans-Serif" font-size="10.00">etriangle_sss</text>
</g>
<!-- Node2 -->
<g id="node2" class="node"><title>Node2</title>
<g id="a_node2"><a xlink:href="group__tools__extrude.html#ga2cb6eb6927858c6b5e1e2dfadb197bf9" target="_top" xlink:title="Linearly extrude 2d shape with extrusion upper and lower scaling. ">
<polygon fill="white" stroke="black" points="110,-266.5 110,-285.5 205,-285.5 205,-266.5 110,-266.5"/>
<text text-anchor="middle" x="157.5" y="-273.5" font-family="Helvetica,sans-Serif" font-size="10.00">linear_extrude_uls</text>
</a>
</g>
</g>
<!-- Node1&#45;&gt;Node2 -->
<g id="edge1" class="edge"><title>Node1&#45;&gt;Node2</title>
<path fill="none" stroke="midnightblue" d="M74.1978,-262.804C82.2208,-264.09 90.9119,-265.484 99.5383,-266.867"/>
<polygon fill="midnightblue" stroke="midnightblue" points="99.1632,-270.351 109.591,-268.479 100.271,-263.44 99.1632,-270.351"/>
</g>
<!-- Node5 -->
<g id="node5" class="node"><title>Node5</title>
<g id="a_node5"><a xlink:href="group__shapes__2d.html#gab40e6edfc3c5ab69a4db26301318cd86" target="_top" xlink:title="A general triangle specified by its three side lengths. ">
<polygon fill="white" stroke="black" points="123,-209.5 123,-228.5 192,-228.5 192,-209.5 123,-209.5"/>
<text text-anchor="middle" x="157.5" y="-216.5" font-family="Helvetica,sans-Serif" font-size="10.00">triangle_sss</text>
</a>
</g>
</g>
<!-- Node1&#45;&gt;Node5 -->
<g id="edge4" class="edge"><title>Node1&#45;&gt;Node5</title>
<path fill="none" stroke="midnightblue" d="M67.9026,-247.411C82.7787,-242.641 100.957,-236.811 116.967,-231.677"/>
<polygon fill="midnightblue" stroke="midnightblue" points="118.153,-234.972 126.607,-228.586 116.016,-228.307 118.153,-234.972"/>
</g>
<!-- Node3 -->
<g id="node3" class="node"><title>Node3</title>
<g id="a_node3"><a xlink:href="group__datatypes__identify__scalar.html#ga62dbd35f498bfc2a090812b1cf8a37c4" target="_top" xlink:title="Test if a value is not defined. ">
<polygon fill="white" stroke="black" points="242,-304.5 242,-323.5 309,-323.5 309,-304.5 242,-304.5"/>
<text text-anchor="middle" x="275.5" y="-311.5" font-family="Helvetica,sans-Serif" font-size="10.00">not_defined</text>
</a>
</g>
</g>
<!-- Node2&#45;&gt;Node3 -->
<g id="edge2" class="edge"><title>Node2&#45;&gt;Node3</title>
<path fill="none" stroke="midnightblue" d="M187.772,-285.589C202.197,-290.314 219.793,-296.079 235.357,-301.177"/>
<polygon fill="midnightblue" stroke="midnightblue" points="234.645,-304.627 245.238,-304.414 236.824,-297.975 234.645,-304.627"/>
</g>
<!-- Node4 -->
<g id="node4" class="node"><title>Node4</title>
<g id="a_node4"><a xlink:href="group__datatypes__identify__scalar.html#ga258e8911375d30ff85a6e52df01dc1c5" target="_top" xlink:title="Test if a value is a single non&#45;iterable value. ">
<polygon fill="white" stroke="black" points="247.5,-266.5 247.5,-285.5 303.5,-285.5 303.5,-266.5 247.5,-266.5"/>
<text text-anchor="middle" x="275.5" y="-273.5" font-family="Helvetica,sans-Serif" font-size="10.00">is_scalar</text>
</a>
</g>
</g>
<!-- Node2&#45;&gt;Node4 -->
<g id="edge3" class="edge"><title>Node2&#45;&gt;Node4</title>
<path fill="none" stroke="midnightblue" d="M205.013,-276C215.679,-276 226.885,-276 237.109,-276"/>
<polygon fill="midnightblue" stroke="midnightblue" points="237.344,-279.5 247.344,-276 237.344,-272.5 237.344,-279.5"/>
</g>
<!-- Node6 -->
<g id="node6" class="node"><title>Node6</title>
<g id="a_node6"><a xlink:href="group__datatypes__identify__scalar.html#ga068402d4bbb2bbd22b955ad1e14f104b" target="_top" xlink:title="Test if a numerical value is invalid. ">
<polygon fill="white" stroke="black" points="253,-228.5 253,-247.5 298,-247.5 298,-228.5 253,-228.5"/>
<text text-anchor="middle" x="275.5" y="-235.5" font-family="Helvetica,sans-Serif" font-size="10.00">is_nan</text>
</a>
</g>
</g>
<!-- Node5&#45;&gt;Node6 -->
<g id="edge5" class="edge"><title>Node5&#45;&gt;Node6</title>
<path fill="none" stroke="midnightblue" d="M192.052,-224.496C207.927,-227.096 226.793,-230.186 242.469,-232.754"/>
<polygon fill="midnightblue" stroke="midnightblue" points="242.302,-236.273 252.737,-234.435 243.434,-229.365 242.302,-236.273"/>
</g>
<!-- Node7 -->
<g id="node7" class="node"><title>Node7</title>
<g id="a_node7"><a xlink:href="group__utilities__console.html#ga1ece4e2cff9ae45c85429c226eb8362c" target="_top" xlink:title="Output warning message to console. ">
<polygon fill="white" stroke="black" points="247.5,-190.5 247.5,-209.5 303.5,-209.5 303.5,-190.5 247.5,-190.5"/>
<text text-anchor="middle" x="275.5" y="-197.5" font-family="Helvetica,sans-Serif" font-size="10.00">log_warn</text>
</a>
</g>
</g>
<!-- Node5&#45;&gt;Node7 -->
<g id="edge6" class="edge"><title>Node5&#45;&gt;Node7</title>
<path fill="none" stroke="midnightblue" d="M192.052,-213.504C206.159,-211.194 222.628,-208.496 237.122,-206.122"/>
<polygon fill="midnightblue" stroke="midnightblue" points="237.961,-209.531 247.264,-204.461 236.83,-202.624 237.961,-209.531"/>
</g>
<!-- Node9 -->
<g id="node9" class="node"><title>Node9</title>
<g id="a_node9"><a xlink:href="group__shapes__2d.html#ga33d2a7677306c346ad6be5a488885d86" target="_top" xlink:title="A general triangle specified by three vertices. ">
<polygon fill="white" stroke="black" points="241,-114.5 241,-133.5 310,-133.5 310,-114.5 241,-114.5"/>
<text text-anchor="middle" x="275.5" y="-121.5" font-family="Helvetica,sans-Serif" font-size="10.00">triangle_ppp</text>
</a>
</g>
</g>
<!-- Node5&#45;&gt;Node9 -->
<g id="edge8" class="edge"><title>Node5&#45;&gt;Node9</title>
<path fill="none" stroke="midnightblue" d="M170.477,-209.191C190.465,-192.822 230.803,-159.786 254.954,-140.008"/>
<polygon fill="midnightblue" stroke="midnightblue" points="257.242,-142.658 262.761,-133.614 252.807,-137.242 257.242,-142.658"/>
</g>
<!-- Node8 -->
<g id="node8" class="node"><title>Node8</title>
<g id="a_node8"><a xlink:href="group__utilities__console.html#ga4fb6c985031c9b551777b2e9ebd2fc34" target="_top" xlink:title="Format the function call stack as a string. ">
<polygon fill="white" stroke="black" points="380,-228.5 380,-247.5 421,-247.5 421,-228.5 380,-228.5"/>
<text text-anchor="middle" x="400.5" y="-235.5" font-family="Helvetica,sans-Serif" font-size="10.00">stack</text>
</a>
</g>
</g>
<!-- Node7&#45;&gt;Node8 -->
<g id="edge7" class="edge"><title>Node7&#45;&gt;Node8</title>
<path fill="none" stroke="midnightblue" d="M303.798,-208.433C323.536,-214.531 350.165,-222.758 370.323,-228.986"/>
<polygon fill="midnightblue" stroke="midnightblue" points="369.333,-232.343 379.921,-231.951 371.4,-225.655 369.333,-232.343"/>
</g>
<!-- Node10 -->
<g id="node10" class="node"><title>Node10</title>
<g id="a_node10"><a xlink:href="group__datatypes__operate__scalar.html#gac119300e8c83de0037f2d0a4d9f0ab5c" target="_top" xlink:title="Return a value when it is defined or a default value when it is not. ">
<polygon fill="white" stroke="black" points="369.5,-190.5 369.5,-209.5 431.5,-209.5 431.5,-190.5 369.5,-190.5"/>
<text text-anchor="middle" x="400.5" y="-197.5" font-family="Helvetica,sans-Serif" font-size="10.00">defined_or</text>
</a>
</g>
</g>
<!-- Node9&#45;&gt;Node10 -->
<g id="edge9" class="edge"><title>Node9&#45;&gt;Node10</title>
<path fill="none" stroke="midnightblue" d="M286.047,-133.688C298.746,-146.114 322.357,-167.648 346,-181 350.281,-183.417 354.924,-185.614 359.626,-187.584"/>
<polygon fill="midnightblue" stroke="midnightblue" points="358.674,-190.968 369.264,-191.308 361.197,-184.439 358.674,-190.968"/>
</g>
<!-- Node11 -->
<g id="node11" class="node"><title>Node11</title>
<g id="a_node11"><a xlink:href="group__math__triangle.html#ga6eb5bfb1ae077d0db22e41c142233be0" target="_top" xlink:title="Compute the coordinate for the triangle&#39;s incircle. ">
<polygon fill="white" stroke="black" points="346,-152.5 346,-171.5 455,-171.5 455,-152.5 346,-152.5"/>
<text text-anchor="middle" x="400.5" y="-159.5" font-family="Helvetica,sans-Serif" font-size="10.00">triangle_incenter_ppp</text>
</a>
</g>
</g>
<!-- Node9&#45;&gt;Node11 -->
<g id="edge10" class="edge"><title>Node9&#45;&gt;Node11</title>
<path fill="none" stroke="midnightblue" d="M307.538,-133.589C322.979,-138.359 341.848,-144.189 358.466,-149.323"/>
<polygon fill="midnightblue" stroke="midnightblue" points="357.884,-152.806 368.472,-152.414 359.951,-146.118 357.884,-152.806"/>
</g>
<!-- Node12 -->
<g id="node12" class="node"><title>Node12</title>
<g id="a_node12"><a xlink:href="group__math__triangle.html#ga7c94003074f622d6421a665207cafbd7" target="_top" xlink:title="Compute the centroid (geometric center) of a triangle. ">
<polygon fill="white" stroke="black" points="346,-114.5 346,-133.5 455,-133.5 455,-114.5 346,-114.5"/>
<text text-anchor="middle" x="400.5" y="-121.5" font-family="Helvetica,sans-Serif" font-size="10.00">triangle_centroid_ppp</text>
</a>
</g>
</g>
<!-- Node9&#45;&gt;Node12 -->
<g id="edge11" class="edge"><title>Node9&#45;&gt;Node12</title>
<path fill="none" stroke="midnightblue" d="M310.11,-124C317.983,-124 326.63,-124 335.348,-124"/>
<polygon fill="midnightblue" stroke="midnightblue" points="335.573,-127.5 345.573,-124 335.573,-120.5 335.573,-127.5"/>
</g>
<!-- Node13 -->
<g id="node13" class="node"><title>Node13</title>
<g id="a_node13"><a xlink:href="group__datatypes__identify__iterable.html#ga6dc7861bf5a7777bfb33876493107d75" target="_top" xlink:title="Test if any element of a list of values is undefined. ">
<polygon fill="white" stroke="black" points="360.5,-76.5 360.5,-95.5 440.5,-95.5 440.5,-76.5 360.5,-76.5"/>
<text text-anchor="middle" x="400.5" y="-83.5" font-family="Helvetica,sans-Serif" font-size="10.00">any_undefined</text>
</a>
</g>
</g>
<!-- Node9&#45;&gt;Node13 -->
<g id="edge12" class="edge"><title>Node9&#45;&gt;Node13</title>
<path fill="none" stroke="midnightblue" d="M307.538,-114.411C322.979,-109.641 341.848,-103.811 358.466,-98.6771"/>
<polygon fill="midnightblue" stroke="midnightblue" points="359.951,-101.882 368.472,-95.5859 357.884,-95.1937 359.951,-101.882"/>
</g>
<!-- Node14 -->
<g id="node14" class="node"><title>Node14</title>
<g id="a_node14"><a xlink:href="group__math__vector__algebra.html#ga3a0c4c75047b8003ab09286a77a58c86" target="_top" xlink:title="Compute the angle between two lines (or vectors) in a Euclidean 3d or 2d&#45;space. ">
<polygon fill="white" stroke="black" points="375.5,-38.5 375.5,-57.5 425.5,-57.5 425.5,-38.5 375.5,-38.5"/>
<text text-anchor="middle" x="400.5" y="-45.5" font-family="Helvetica,sans-Serif" font-size="10.00">angle_ll</text>
</a>
</g>
</g>
<!-- Node9&#45;&gt;Node14 -->
<g id="edge13" class="edge"><title>Node9&#45;&gt;Node14</title>
<path fill="none" stroke="midnightblue" d="M286.047,-114.312C298.746,-101.886 322.357,-80.3518 346,-67 352.112,-63.5482 358.964,-60.5465 365.672,-58.0116"/>
<polygon fill="midnightblue" stroke="midnightblue" points="367.016,-61.2491 375.292,-54.6336 364.697,-54.6444 367.016,-61.2491"/>
</g>
<!-- Node15 -->
<g id="node15" class="node"><title>Node15</title>
<g id="a_node15"><a xlink:href="group__math__vector__algebra.html#gaa71caf02a1433e6c84d61d13d12aa581" target="_top" xlink:title="Compute the normalized unit vector of a Euclidean line (or vector). ">
<polygon fill="white" stroke="black" points="380.5,-0.5 380.5,-19.5 420.5,-19.5 420.5,-0.5 380.5,-0.5"/>
<text text-anchor="middle" x="400.5" y="-7.5" font-family="Helvetica,sans-Serif" font-size="10.00">unit_l</text>
</a>
</g>
</g>
<!-- Node9&#45;&gt;Node15 -->
<g id="edge14" class="edge"><title>Node9&#45;&gt;Node15</title>
<path fill="none" stroke="midnightblue" d="M281.014,-114.444C290.445,-95.4649 314.042,-52.8047 346,-29 353.272,-23.583 362.227,-19.6057 370.716,-16.7328"/>
<polygon fill="midnightblue" stroke="midnightblue" points="371.765,-20.0722 380.338,-13.8475 369.754,-13.3672 371.765,-20.0722"/>
</g>
</g>
</svg>
