<?xml version="1.0" encoding="UTF-8" standalone="no"?>
<!DOCTYPE svg PUBLIC "-//W3C//DTD SVG 1.1//EN"
 "http://www.w3.org/Graphics/SVG/1.1/DTD/svg11.dtd">
<!-- Generated by graphviz version 2.38.0 (20140413.2041)
 -->
<!-- Title: consts Pages: 1 -->
<svg width="181pt" height="142pt"
 viewBox="0.00 0.00 181.00 142.00" xmlns="http://www.w3.org/2000/svg" xmlns:xlink="http://www.w3.org/1999/xlink">
<g id="graph0" class="graph" transform="scale(1 1) rotate(0) translate(4 138)">
<title>consts</title>
<polygon fill="white" stroke="none" points="-4,4 -4,-138 177,-138 177,4 -4,4"/>
<!-- Node1 -->
<g id="node1" class="node"><title>Node1</title>
<polygon fill="#bfbfbf" stroke="black" points="0,-57.5 0,-76.5 46,-76.5 46,-57.5 0,-57.5"/>
<text text-anchor="middle" x="23" y="-64.5" font-family="Helvetica,sans-Serif" font-size="10.00">consts</text>
</g>
<!-- Node2 -->
<g id="node2" class="node"><title>Node2</title>
<g id="a_node2"><a xlink:href="group__datatypes__map.html#gab86352ba6da2d2072f747e95b04d0435" target="_top" xlink:title="Dump each map entry to the console. ">
<polygon fill="white" stroke="black" points="95,-114.5 95,-133.5 160,-133.5 160,-114.5 95,-114.5"/>
<text text-anchor="middle" x="127.5" y="-121.5" font-family="Helvetica,sans-Serif" font-size="10.00">map_dump</text>
</a>
</g>
</g>
<!-- Node1&#45;&gt;Node2 -->
<g id="edge1" class="edge"><title>Node1&#45;&gt;Node2</title>
<path fill="none" stroke="midnightblue" d="M45.697,-82.5261C56.3603,-89.8133 69.5645,-98.3388 82,-105 88.2202,-108.332 95.1495,-111.523 101.653,-114.307"/>
<polygon fill="midnightblue" stroke="midnightblue" points="47.6185,-79.5993 37.41,-76.7643 43.6225,-85.3467 47.6185,-79.5993"/>
</g>
<!-- Node3 -->
<g id="node3" class="node"><title>Node3</title>
<g id="a_node3"><a xlink:href="group__datatypes__table.html#ga717ca569831188092358ee04f7211700" target="_top" xlink:title="Dump a table to the console. ">
<polygon fill="white" stroke="black" points="94,-76.5 94,-95.5 161,-95.5 161,-76.5 94,-76.5"/>
<text text-anchor="middle" x="127.5" y="-83.5" font-family="Helvetica,sans-Serif" font-size="10.00">table_dump</text>
</a>
</g>
</g>
<!-- Node1&#45;&gt;Node3 -->
<g id="edge2" class="edge"><title>Node1&#45;&gt;Node3</title>
<path fill="none" stroke="midnightblue" d="M56.259,-72.9797C68.2205,-75.197 81.7896,-77.7122 93.791,-79.9369"/>
<polygon fill="midnightblue" stroke="midnightblue" points="56.7114,-69.504 46.241,-71.1227 55.4355,-76.3868 56.7114,-69.504"/>
</g>
<!-- Node4 -->
<g id="node4" class="node"><title>Node4</title>
<g id="a_node4"><a xlink:href="group__tools__polytope.html#ga00b574079f19251be7281151d11db8fa" target="_top" xlink:title="Label the vertices, paths, and edges of a polytope. ">
<polygon fill="white" stroke="black" points="82,-38.5 82,-57.5 173,-57.5 173,-38.5 82,-38.5"/>
<text text-anchor="middle" x="127.5" y="-45.5" font-family="Helvetica,sans-Serif" font-size="10.00">polytope_number</text>
</a>
</g>
</g>
<!-- Node1&#45;&gt;Node4 -->
<g id="edge3" class="edge"><title>Node1&#45;&gt;Node4</title>
<path fill="none" stroke="midnightblue" d="M56.1362,-61.043C64.3303,-59.5241 73.2853,-57.8642 81.9776,-56.2529"/>
<polygon fill="midnightblue" stroke="midnightblue" points="55.4355,-57.6132 46.241,-62.8773 56.7114,-64.496 55.4355,-57.6132"/>
</g>
<!-- Node5 -->
<g id="node5" class="node"><title>Node5</title>
<g id="a_node5"><a xlink:href="group__tools__polytope.html#ga530c86f9c90ce074aa7adc29834f0539" target="_top" xlink:title="Assemble a polytope skeletal frame using child objects. ">
<polygon fill="white" stroke="black" points="86,-0.5 86,-19.5 169,-19.5 169,-0.5 86,-0.5"/>
<text text-anchor="middle" x="127.5" y="-7.5" font-family="Helvetica,sans-Serif" font-size="10.00">polytope_frame</text>
</a>
</g>
</g>
<!-- Node1&#45;&gt;Node5 -->
<g id="edge4" class="edge"><title>Node1&#45;&gt;Node5</title>
<path fill="none" stroke="midnightblue" d="M45.697,-51.4739C56.3603,-44.1867 69.5645,-35.6612 82,-29 88.2202,-25.6681 95.1495,-22.4771 101.653,-19.6933"/>
<polygon fill="midnightblue" stroke="midnightblue" points="43.6225,-48.6533 37.41,-57.2357 47.6185,-54.4007 43.6225,-48.6533"/>
</g>
</g>
</svg>
