<?xml version="1.0" encoding="UTF-8" standalone="no"?>
<!DOCTYPE svg PUBLIC "-//W3C//DTD SVG 1.1//EN"
 "http://www.w3.org/Graphics/SVG/1.1/DTD/svg11.dtd">
<!-- Generated by graphviz version 2.38.0 (20140413.2041)
 -->
<!-- Title: torus_tp Pages: 1 -->
<svg width="683pt" height="475pt"
 viewBox="0.00 0.00 683.00 475.00" xmlns="http://www.w3.org/2000/svg" xmlns:xlink="http://www.w3.org/1999/xlink">
<g id="graph0" class="graph" transform="scale(1 1) rotate(0) translate(4 471)">
<title>torus_tp</title>
<polygon fill="white" stroke="none" points="-4,4 -4,-471 679,-471 679,4 -4,4"/>
<!-- Node1 -->
<g id="node1" class="node"><title>Node1</title>
<polygon fill="#bfbfbf" stroke="black" points="0,-285.5 0,-304.5 52,-304.5 52,-285.5 0,-285.5"/>
<text text-anchor="middle" x="26" y="-292.5" font-family="Helvetica,sans-Serif" font-size="10.00">torus_tp</text>
</g>
<!-- Node2 -->
<g id="node2" class="node"><title>Node2</title>
<g id="a_node2"><a xlink:href="group__tools__extrude.html#gaf0e13f98be7287f0157f2026db5e52d3" target="_top" xlink:title="Translate, rotate, and revolve the 2d shape about the z&#45;axis with linear elongation. ">
<polygon fill="white" stroke="black" points="88,-352.5 88,-371.5 183,-371.5 183,-352.5 88,-352.5"/>
<text text-anchor="middle" x="135.5" y="-359.5" font-family="Helvetica,sans-Serif" font-size="10.00">rotate_extrude_tre</text>
</a>
</g>
</g>
<!-- Node1&#45;&gt;Node2 -->
<g id="edge1" class="edge"><title>Node1&#45;&gt;Node2</title>
<path fill="none" stroke="midnightblue" d="M42.4021,-304.599C60.2036,-315.694 89.7145,-334.087 110.525,-347.058"/>
<polygon fill="midnightblue" stroke="midnightblue" points="108.789,-350.099 119.126,-352.418 112.491,-344.159 108.789,-350.099"/>
</g>
<!-- Node8 -->
<g id="node8" class="node"><title>Node8</title>
<g id="a_node8"><a xlink:href="group__shapes__2d.html#ga7eefb280ad124a8d35eb4218e5f0bdad" target="_top" xlink:title="A general triangle specified by its sides with a removed triangular core. ">
<polygon fill="white" stroke="black" points="100,-200.5 100,-219.5 171,-219.5 171,-200.5 100,-200.5"/>
<text text-anchor="middle" x="135.5" y="-207.5" font-family="Helvetica,sans-Serif" font-size="10.00">triangle_ls_c</text>
</a>
</g>
</g>
<!-- Node1&#45;&gt;Node8 -->
<g id="edge7" class="edge"><title>Node1&#45;&gt;Node8</title>
<path fill="none" stroke="midnightblue" d="M39.3316,-285.249C57.638,-270.775 92.2082,-243.44 114.26,-226.004"/>
<polygon fill="midnightblue" stroke="midnightblue" points="116.639,-228.585 122.312,-219.637 112.297,-223.094 116.639,-228.585"/>
</g>
<!-- Node3 -->
<g id="node3" class="node"><title>Node3</title>
<g id="a_node3"><a xlink:href="group__datatypes__identify__scalar.html#ga62dbd35f498bfc2a090812b1cf8a37c4" target="_top" xlink:title="Test if a value is not defined. ">
<polygon fill="white" stroke="black" points="236,-409.5 236,-428.5 303,-428.5 303,-409.5 236,-409.5"/>
<text text-anchor="middle" x="269.5" y="-416.5" font-family="Helvetica,sans-Serif" font-size="10.00">not_defined</text>
</a>
</g>
</g>
<!-- Node2&#45;&gt;Node3 -->
<g id="edge2" class="edge"><title>Node2&#45;&gt;Node3</title>
<path fill="none" stroke="midnightblue" d="M158.594,-371.541C180.01,-380.788 212.713,-394.91 236.882,-405.347"/>
<polygon fill="midnightblue" stroke="midnightblue" points="235.766,-408.677 246.334,-409.428 238.541,-402.251 235.766,-408.677"/>
</g>
<!-- Node4 -->
<g id="node4" class="node"><title>Node4</title>
<g id="a_node4"><a xlink:href="group__tools__extrude.html#ga485bf7d4456a1599bd170a40d6123d79" target="_top" xlink:title="Translate, rotate, and revolve the 2d shape about the z&#45;axis. ">
<polygon fill="white" stroke="black" points="224.5,-333.5 224.5,-352.5 314.5,-352.5 314.5,-333.5 224.5,-333.5"/>
<text text-anchor="middle" x="269.5" y="-340.5" font-family="Helvetica,sans-Serif" font-size="10.00">rotate_extrude_tr</text>
</a>
</g>
</g>
<!-- Node2&#45;&gt;Node4 -->
<g id="edge3" class="edge"><title>Node2&#45;&gt;Node4</title>
<path fill="none" stroke="midnightblue" d="M183.038,-355.301C193.059,-353.859 203.737,-352.322 214.028,-350.841"/>
<polygon fill="midnightblue" stroke="midnightblue" points="214.754,-354.272 224.153,-349.383 213.756,-347.344 214.754,-354.272"/>
</g>
<!-- Node5 -->
<g id="node5" class="node"><title>Node5</title>
<g id="a_node5"><a xlink:href="group__datatypes__identify__scalar.html#ga258e8911375d30ff85a6e52df01dc1c5" target="_top" xlink:title="Test if a value is a single non&#45;iterable value. ">
<polygon fill="white" stroke="black" points="362.5,-257.5 362.5,-276.5 418.5,-276.5 418.5,-257.5 362.5,-257.5"/>
<text text-anchor="middle" x="390.5" y="-264.5" font-family="Helvetica,sans-Serif" font-size="10.00">is_scalar</text>
</a>
</g>
</g>
<!-- Node2&#45;&gt;Node5 -->
<g id="edge4" class="edge"><title>Node2&#45;&gt;Node5</title>
<path fill="none" stroke="midnightblue" d="M174.298,-371.518C213.097,-379.189 274.119,-385.282 320,-362 351.29,-346.122 371.872,-308.806 382.034,-285.953"/>
<polygon fill="midnightblue" stroke="midnightblue" points="385.317,-287.175 385.97,-276.6 378.865,-284.459 385.317,-287.175"/>
</g>
<!-- Node6 -->
<g id="node6" class="node"><title>Node6</title>
<g id="a_node6"><a xlink:href="group__datatypes__operate__iterable.html#ga3d679b4617986e31d5e2803971b37af8" target="_top" xlink:title="Return an iterable element when it exists or a default value when it does not. ">
<polygon fill="white" stroke="black" points="236,-295.5 236,-314.5 303,-314.5 303,-295.5 236,-295.5"/>
<text text-anchor="middle" x="269.5" y="-302.5" font-family="Helvetica,sans-Serif" font-size="10.00">edefined_or</text>
</a>
</g>
</g>
<!-- Node2&#45;&gt;Node6 -->
<g id="edge5" class="edge"><title>Node2&#45;&gt;Node6</title>
<path fill="none" stroke="midnightblue" d="M156.343,-352.419C172.954,-344.505 197.35,-333.13 219,-324 223.532,-322.089 228.33,-320.147 233.083,-318.272"/>
<polygon fill="midnightblue" stroke="midnightblue" points="234.626,-321.428 242.681,-314.546 232.093,-314.902 234.626,-321.428"/>
</g>
<!-- Node7 -->
<g id="node7" class="node"><title>Node7</title>
<g id="a_node7"><a xlink:href="group__math__bitwise.html#ga31b8c7bc875d9fadd86b49a1ba39d1a4" target="_top" xlink:title="Test if a base&#45;two bit position of an integer value equals a test bit. ">
<polygon fill="white" stroke="black" points="225,-447.5 225,-466.5 314,-466.5 314,-447.5 225,-447.5"/>
<text text-anchor="middle" x="269.5" y="-454.5" font-family="Helvetica,sans-Serif" font-size="10.00">bitwise_is_equal</text>
</a>
</g>
</g>
<!-- Node2&#45;&gt;Node7 -->
<g id="edge6" class="edge"><title>Node2&#45;&gt;Node7</title>
<path fill="none" stroke="midnightblue" d="M144.729,-371.655C158.618,-387.434 188.224,-418.899 219,-438 222.116,-439.934 225.462,-441.726 228.889,-443.374"/>
<polygon fill="midnightblue" stroke="midnightblue" points="227.49,-446.582 238.053,-447.397 230.303,-440.172 227.49,-446.582"/>
</g>
<!-- Node8&#45;&gt;Node6 -->
<g id="edge8" class="edge"><title>Node8&#45;&gt;Node6</title>
<path fill="none" stroke="midnightblue" d="M144.729,-219.655C158.618,-235.434 188.224,-266.899 219,-286 222.116,-287.934 225.462,-289.726 228.889,-291.374"/>
<polygon fill="midnightblue" stroke="midnightblue" points="227.49,-294.582 238.053,-295.397 230.303,-288.172 227.49,-294.582"/>
</g>
<!-- Node9 -->
<g id="node9" class="node"><title>Node9</title>
<g id="a_node9"><a xlink:href="group__datatypes__operate__scalar.html#gac119300e8c83de0037f2d0a4d9f0ab5c" target="_top" xlink:title="Return a value when it is defined or a default value when it is not. ">
<polygon fill="white" stroke="black" points="589.5,-0.5 589.5,-19.5 651.5,-19.5 651.5,-0.5 589.5,-0.5"/>
<text text-anchor="middle" x="620.5" y="-7.5" font-family="Helvetica,sans-Serif" font-size="10.00">defined_or</text>
</a>
</g>
</g>
<!-- Node8&#45;&gt;Node9 -->
<g id="edge9" class="edge"><title>Node8&#45;&gt;Node9</title>
<path fill="none" stroke="midnightblue" d="M140.592,-200.19C150.468,-177.804 177.87,-122.826 219,-96 333.777,-21.1402 502.669,-10.2501 579.188,-9.4423"/>
<polygon fill="midnightblue" stroke="midnightblue" points="579.375,-12.9415 589.357,-9.38963 579.339,-5.94157 579.375,-12.9415"/>
</g>
<!-- Node10 -->
<g id="node10" class="node"><title>Node10</title>
<g id="a_node10"><a xlink:href="group__datatypes__identify__scalar.html#ga51d7fdb800c10f4b7479d23b89ab8d22" target="_top" xlink:title="Test if a value is defined. ">
<polygon fill="white" stroke="black" points="239,-257.5 239,-276.5 300,-276.5 300,-257.5 239,-257.5"/>
<text text-anchor="middle" x="269.5" y="-264.5" font-family="Helvetica,sans-Serif" font-size="10.00">is_defined</text>
</a>
</g>
</g>
<!-- Node8&#45;&gt;Node10 -->
<g id="edge10" class="edge"><title>Node8&#45;&gt;Node10</title>
<path fill="none" stroke="midnightblue" d="M156.343,-219.581C172.954,-227.495 197.35,-238.87 219,-248 223.532,-249.911 228.33,-251.853 233.083,-253.728"/>
<polygon fill="midnightblue" stroke="midnightblue" points="232.093,-257.098 242.681,-257.454 234.626,-250.572 232.093,-257.098"/>
</g>
<!-- Node11 -->
<g id="node11" class="node"><title>Node11</title>
<g id="a_node11"><a xlink:href="group__math__triangle.html#ga1433110052f71d329117e2d5784821de" target="_top" xlink:title="Compute the coordinate for the triangle&#39;s incircle. ">
<polygon fill="white" stroke="black" points="219,-219.5 219,-238.5 320,-238.5 320,-219.5 219,-219.5"/>
<text text-anchor="middle" x="269.5" y="-226.5" font-family="Helvetica,sans-Serif" font-size="10.00">triangle_incenter_lp</text>
</a>
</g>
</g>
<!-- Node8&#45;&gt;Node11 -->
<g id="edge11" class="edge"><title>Node8&#45;&gt;Node11</title>
<path fill="none" stroke="midnightblue" d="M171.181,-214.992C182.694,-216.649 195.861,-218.544 208.711,-220.394"/>
<polygon fill="midnightblue" stroke="midnightblue" points="208.514,-223.902 218.911,-221.862 209.512,-216.973 208.514,-223.902"/>
</g>
<!-- Node12 -->
<g id="node12" class="node"><title>Node12</title>
<g id="a_node12"><a xlink:href="group__math__triangle.html#ga1a2331a359734cc77fe5d38901874258" target="_top" xlink:title="Compute the vertex coordinates of a triangle given its side lengths. ">
<polygon fill="white" stroke="black" points="228.5,-181.5 228.5,-200.5 310.5,-200.5 310.5,-181.5 228.5,-181.5"/>
<text text-anchor="middle" x="269.5" y="-188.5" font-family="Helvetica,sans-Serif" font-size="10.00">triangle_sss2lp</text>
</a>
</g>
</g>
<!-- Node8&#45;&gt;Node12 -->
<g id="edge12" class="edge"><title>Node8&#45;&gt;Node12</title>
<path fill="none" stroke="midnightblue" d="M171.181,-205.008C185.593,-202.934 202.599,-200.486 218.329,-198.222"/>
<polygon fill="midnightblue" stroke="midnightblue" points="219.043,-201.655 228.442,-196.766 218.045,-194.726 219.043,-201.655"/>
</g>
<!-- Node13 -->
<g id="node13" class="node"><title>Node13</title>
<g id="a_node13"><a xlink:href="group__math__triangle.html#ga2b01ebe02b212dcab1349519a76b5731" target="_top" xlink:title="Compute the centroid (geometric center) of a triangle. ">
<polygon fill="white" stroke="black" points="219,-143.5 219,-162.5 320,-162.5 320,-143.5 219,-143.5"/>
<text text-anchor="middle" x="269.5" y="-150.5" font-family="Helvetica,sans-Serif" font-size="10.00">triangle_centroid_lp</text>
</a>
</g>
</g>
<!-- Node8&#45;&gt;Node13 -->
<g id="edge13" class="edge"><title>Node8&#45;&gt;Node13</title>
<path fill="none" stroke="midnightblue" d="M156.343,-200.419C172.954,-192.505 197.35,-181.13 219,-172 223.532,-170.089 228.33,-168.147 233.083,-166.272"/>
<polygon fill="midnightblue" stroke="midnightblue" points="234.626,-169.428 242.681,-162.546 232.093,-162.902 234.626,-169.428"/>
</g>
<!-- Node14 -->
<g id="node14" class="node"><title>Node14</title>
<g id="a_node14"><a xlink:href="group__shapes__2d.html#ga5321277acf52177e1c7928c13377dd00" target="_top" xlink:title="A general triangle specified by a list of its three side lengths. ">
<polygon fill="white" stroke="black" points="239,-105.5 239,-124.5 300,-124.5 300,-105.5 239,-105.5"/>
<text text-anchor="middle" x="269.5" y="-112.5" font-family="Helvetica,sans-Serif" font-size="10.00">triangle_ls</text>
</a>
</g>
</g>
<!-- Node8&#45;&gt;Node14 -->
<g id="edge14" class="edge"><title>Node8&#45;&gt;Node14</title>
<path fill="none" stroke="midnightblue" d="M144.729,-200.345C158.618,-184.566 188.224,-153.101 219,-134 222.336,-131.929 225.935,-130.021 229.616,-128.279"/>
<polygon fill="midnightblue" stroke="midnightblue" points="231.045,-131.474 238.834,-124.292 228.266,-125.05 231.045,-131.474"/>
</g>
<!-- Node14&#45;&gt;Node5 -->
<g id="edge15" class="edge"><title>Node14&#45;&gt;Node5</title>
<path fill="none" stroke="midnightblue" d="M300.207,-122.441C307.261,-125.224 314.365,-128.978 320,-134 355.357,-165.507 375.544,-219.328 384.277,-247.888"/>
<polygon fill="midnightblue" stroke="midnightblue" points="380.919,-248.873 387.072,-257.498 387.64,-246.919 380.919,-248.873"/>
</g>
<!-- Node15 -->
<g id="node15" class="node"><title>Node15</title>
<g id="a_node15"><a xlink:href="group__shapes__2d.html#gab40e6edfc3c5ab69a4db26301318cd86" target="_top" xlink:title="A general triangle specified by its three side lengths. ">
<polygon fill="white" stroke="black" points="356,-105.5 356,-124.5 425,-124.5 425,-105.5 356,-105.5"/>
<text text-anchor="middle" x="390.5" y="-112.5" font-family="Helvetica,sans-Serif" font-size="10.00">triangle_sss</text>
</a>
</g>
</g>
<!-- Node14&#45;&gt;Node15 -->
<g id="edge16" class="edge"><title>Node14&#45;&gt;Node15</title>
<path fill="none" stroke="midnightblue" d="M300.222,-115C313.981,-115 330.604,-115 345.757,-115"/>
<polygon fill="midnightblue" stroke="midnightblue" points="345.96,-118.5 355.96,-115 345.96,-111.5 345.96,-118.5"/>
</g>
<!-- Node16 -->
<g id="node16" class="node"><title>Node16</title>
<g id="a_node16"><a xlink:href="group__datatypes__identify__scalar.html#ga068402d4bbb2bbd22b955ad1e14f104b" target="_top" xlink:title="Test if a numerical value is invalid. ">
<polygon fill="white" stroke="black" points="473,-133.5 473,-152.5 518,-152.5 518,-133.5 473,-133.5"/>
<text text-anchor="middle" x="495.5" y="-140.5" font-family="Helvetica,sans-Serif" font-size="10.00">is_nan</text>
</a>
</g>
</g>
<!-- Node15&#45;&gt;Node16 -->
<g id="edge17" class="edge"><title>Node15&#45;&gt;Node16</title>
<path fill="none" stroke="midnightblue" d="M425.226,-124.168C437.297,-127.45 450.852,-131.134 462.75,-134.369"/>
<polygon fill="midnightblue" stroke="midnightblue" points="462.132,-137.828 472.7,-137.074 463.968,-131.073 462.132,-137.828"/>
</g>
<!-- Node17 -->
<g id="node17" class="node"><title>Node17</title>
<g id="a_node17"><a xlink:href="group__utilities__console.html#ga1ece4e2cff9ae45c85429c226eb8362c" target="_top" xlink:title="Output warning message to console. ">
<polygon fill="white" stroke="black" points="467.5,-209.5 467.5,-228.5 523.5,-228.5 523.5,-209.5 467.5,-209.5"/>
<text text-anchor="middle" x="495.5" y="-216.5" font-family="Helvetica,sans-Serif" font-size="10.00">log_warn</text>
</a>
</g>
</g>
<!-- Node15&#45;&gt;Node17 -->
<g id="edge18" class="edge"><title>Node15&#45;&gt;Node17</title>
<path fill="none" stroke="midnightblue" d="M401.005,-124.598C418.481,-142.243 455.919,-180.044 477.748,-202.085"/>
<polygon fill="midnightblue" stroke="midnightblue" points="475.494,-204.783 485.018,-209.426 480.468,-199.857 475.494,-204.783"/>
</g>
<!-- Node19 -->
<g id="node19" class="node"><title>Node19</title>
<g id="a_node19"><a xlink:href="group__shapes__2d.html#ga33d2a7677306c346ad6be5a488885d86" target="_top" xlink:title="A general triangle specified by three vertices. ">
<polygon fill="white" stroke="black" points="461,-95.5 461,-114.5 530,-114.5 530,-95.5 461,-95.5"/>
<text text-anchor="middle" x="495.5" y="-102.5" font-family="Helvetica,sans-Serif" font-size="10.00">triangle_ppp</text>
</a>
</g>
</g>
<!-- Node15&#45;&gt;Node19 -->
<g id="edge20" class="edge"><title>Node15&#45;&gt;Node19</title>
<path fill="none" stroke="midnightblue" d="M425.226,-111.726C433.318,-110.94 442.077,-110.09 450.557,-109.266"/>
<polygon fill="midnightblue" stroke="midnightblue" points="451.083,-112.732 460.698,-108.282 450.407,-105.765 451.083,-112.732"/>
</g>
<!-- Node18 -->
<g id="node18" class="node"><title>Node18</title>
<g id="a_node18"><a xlink:href="group__utilities__console.html#ga4fb6c985031c9b551777b2e9ebd2fc34" target="_top" xlink:title="Format the function call stack as a string. ">
<polygon fill="white" stroke="black" points="600,-228.5 600,-247.5 641,-247.5 641,-228.5 600,-228.5"/>
<text text-anchor="middle" x="620.5" y="-235.5" font-family="Helvetica,sans-Serif" font-size="10.00">stack</text>
</a>
</g>
</g>
<!-- Node17&#45;&gt;Node18 -->
<g id="edge19" class="edge"><title>Node17&#45;&gt;Node18</title>
<path fill="none" stroke="midnightblue" d="M523.798,-223.217C543.355,-226.238 569.679,-230.304 589.769,-233.407"/>
<polygon fill="midnightblue" stroke="midnightblue" points="589.504,-236.908 599.921,-234.976 590.573,-229.99 589.504,-236.908"/>
</g>
<!-- Node19&#45;&gt;Node9 -->
<g id="edge21" class="edge"><title>Node19&#45;&gt;Node9</title>
<path fill="none" stroke="midnightblue" d="M506.72,-95.425C513.489,-88.9652 522.473,-80.1618 530,-72 546.898,-53.6777 545.535,-43.2276 566,-29 570.241,-26.0514 574.988,-23.5138 579.856,-21.3425"/>
<polygon fill="midnightblue" stroke="midnightblue" points="581.262,-24.5502 589.264,-17.6067 578.678,-18.0443 581.262,-24.5502"/>
</g>
<!-- Node20 -->
<g id="node20" class="node"><title>Node20</title>
<g id="a_node20"><a xlink:href="group__math__triangle.html#ga6eb5bfb1ae077d0db22e41c142233be0" target="_top" xlink:title="Compute the coordinate for the triangle&#39;s incircle. ">
<polygon fill="white" stroke="black" points="566,-38.5 566,-57.5 675,-57.5 675,-38.5 566,-38.5"/>
<text text-anchor="middle" x="620.5" y="-45.5" font-family="Helvetica,sans-Serif" font-size="10.00">triangle_incenter_ppp</text>
</a>
</g>
</g>
<!-- Node19&#45;&gt;Node20 -->
<g id="edge22" class="edge"><title>Node19&#45;&gt;Node20</title>
<path fill="none" stroke="midnightblue" d="M512.419,-95.3469C526.272,-87.179 547.046,-75.4824 566,-67 570.66,-64.9145 575.624,-62.8951 580.579,-61.0004"/>
<polygon fill="midnightblue" stroke="midnightblue" points="581.839,-64.2663 590.014,-57.526 579.42,-57.6976 581.839,-64.2663"/>
</g>
<!-- Node21 -->
<g id="node21" class="node"><title>Node21</title>
<g id="a_node21"><a xlink:href="group__math__triangle.html#ga7c94003074f622d6421a665207cafbd7" target="_top" xlink:title="Compute the centroid (geometric center) of a triangle. ">
<polygon fill="white" stroke="black" points="566,-190.5 566,-209.5 675,-209.5 675,-190.5 566,-190.5"/>
<text text-anchor="middle" x="620.5" y="-197.5" font-family="Helvetica,sans-Serif" font-size="10.00">triangle_centroid_ppp</text>
</a>
</g>
</g>
<!-- Node19&#45;&gt;Node21 -->
<g id="edge23" class="edge"><title>Node19&#45;&gt;Node21</title>
<path fill="none" stroke="midnightblue" d="M517.091,-114.563C521.642,-117.231 526.226,-120.401 530,-124 551.683,-144.679 542.596,-162.291 566,-181 568.274,-182.817 570.735,-184.468 573.309,-185.967"/>
<polygon fill="midnightblue" stroke="midnightblue" points="571.885,-189.168 582.396,-190.497 575.008,-182.903 571.885,-189.168"/>
</g>
<!-- Node22 -->
<g id="node22" class="node"><title>Node22</title>
<g id="a_node22"><a xlink:href="group__datatypes__identify__iterable.html#ga6dc7861bf5a7777bfb33876493107d75" target="_top" xlink:title="Test if any element of a list of values is undefined. ">
<polygon fill="white" stroke="black" points="580.5,-152.5 580.5,-171.5 660.5,-171.5 660.5,-152.5 580.5,-152.5"/>
<text text-anchor="middle" x="620.5" y="-159.5" font-family="Helvetica,sans-Serif" font-size="10.00">any_undefined</text>
</a>
</g>
</g>
<!-- Node19&#45;&gt;Node22 -->
<g id="edge24" class="edge"><title>Node19&#45;&gt;Node22</title>
<path fill="none" stroke="midnightblue" d="M513.302,-114.589C530.391,-124.268 555.77,-138.422 566,-143 570.66,-145.086 575.624,-147.105 580.579,-149"/>
<polygon fill="midnightblue" stroke="midnightblue" points="579.42,-152.302 590.014,-152.474 581.839,-145.734 579.42,-152.302"/>
</g>
<!-- Node23 -->
<g id="node23" class="node"><title>Node23</title>
<g id="a_node23"><a xlink:href="group__math__vector__algebra.html#ga3a0c4c75047b8003ab09286a77a58c86" target="_top" xlink:title="Compute the angle between two lines (or vectors) in a Euclidean 3d or 2d&#45;space. ">
<polygon fill="white" stroke="black" points="595.5,-114.5 595.5,-133.5 645.5,-133.5 645.5,-114.5 595.5,-114.5"/>
<text text-anchor="middle" x="620.5" y="-121.5" font-family="Helvetica,sans-Serif" font-size="10.00">angle_ll</text>
</a>
</g>
</g>
<!-- Node19&#45;&gt;Node23 -->
<g id="edge25" class="edge"><title>Node19&#45;&gt;Node23</title>
<path fill="none" stroke="midnightblue" d="M530.11,-110.192C547.192,-112.831 567.916,-116.032 585.108,-118.687"/>
<polygon fill="midnightblue" stroke="midnightblue" points="584.874,-122.193 595.291,-120.26 585.942,-115.275 584.874,-122.193"/>
</g>
<!-- Node24 -->
<g id="node24" class="node"><title>Node24</title>
<g id="a_node24"><a xlink:href="group__math__vector__algebra.html#gaa71caf02a1433e6c84d61d13d12aa581" target="_top" xlink:title="Compute the normalized unit vector of a Euclidean line (or vector). ">
<polygon fill="white" stroke="black" points="600.5,-76.5 600.5,-95.5 640.5,-95.5 640.5,-76.5 600.5,-76.5"/>
<text text-anchor="middle" x="620.5" y="-83.5" font-family="Helvetica,sans-Serif" font-size="10.00">unit_l</text>
</a>
</g>
</g>
<!-- Node19&#45;&gt;Node24 -->
<g id="edge26" class="edge"><title>Node19&#45;&gt;Node24</title>
<path fill="none" stroke="midnightblue" d="M530.11,-99.8082C549.018,-96.8874 572.389,-93.2774 590.491,-90.4811"/>
<polygon fill="midnightblue" stroke="midnightblue" points="591.118,-93.9258 600.467,-88.9401 590.05,-87.0078 591.118,-93.9258"/>
</g>
</g>
</svg>
