<?xml version="1.0" encoding="UTF-8" standalone="no"?>
<!DOCTYPE svg PUBLIC "-//W3C//DTD SVG 1.1//EN"
 "http://www.w3.org/Graphics/SVG/1.1/DTD/svg11.dtd">
<!-- Generated by graphviz version 2.38.0 (20140413.2041)
 -->
<!-- Title: rotate_extrude_tre Pages: 1 -->
<svg width="229pt" height="180pt"
 viewBox="0.00 0.00 229.00 180.00" xmlns="http://www.w3.org/2000/svg" xmlns:xlink="http://www.w3.org/1999/xlink">
<g id="graph0" class="graph" transform="scale(1 1) rotate(0) translate(4 176)">
<title>rotate_extrude_tre</title>
<polygon fill="white" stroke="none" points="-4,4 -4,-176 225,-176 225,4 -4,4"/>
<!-- Node1 -->
<g id="node1" class="node"><title>Node1</title>
<polygon fill="#bfbfbf" stroke="black" points="0,-76.5 0,-95.5 95,-95.5 95,-76.5 0,-76.5"/>
<text text-anchor="middle" x="47.5" y="-83.5" font-family="Helvetica,sans-Serif" font-size="10.00">rotate_extrude_tre</text>
</g>
<!-- Node2 -->
<g id="node2" class="node"><title>Node2</title>
<g id="a_node2"><a xlink:href="group__datatypes__identify__scalar.html#ga62dbd35f498bfc2a090812b1cf8a37c4" target="_top" xlink:title="Test if a value is not defined. ">
<polygon fill="white" stroke="black" points="142.5,-152.5 142.5,-171.5 209.5,-171.5 209.5,-152.5 142.5,-152.5"/>
<text text-anchor="middle" x="176" y="-159.5" font-family="Helvetica,sans-Serif" font-size="10.00">not_defined</text>
</a>
</g>
</g>
<!-- Node1&#45;&gt;Node2 -->
<g id="edge1" class="edge"><title>Node1&#45;&gt;Node2</title>
<path fill="none" stroke="midnightblue" d="M60.859,-95.6948C76.5712,-107.743 104.81,-128.484 131,-143 134.248,-144.8 137.7,-146.55 141.187,-148.212"/>
<polygon fill="midnightblue" stroke="midnightblue" points="139.829,-151.439 150.382,-152.383 142.721,-145.065 139.829,-151.439"/>
</g>
<!-- Node3 -->
<g id="node3" class="node"><title>Node3</title>
<g id="a_node3"><a xlink:href="group__tools__extrude.html#ga485bf7d4456a1599bd170a40d6123d79" target="_top" xlink:title="Translate, rotate, and revolve the 2d shape about the z&#45;axis. ">
<polygon fill="white" stroke="black" points="131,-114.5 131,-133.5 221,-133.5 221,-114.5 131,-114.5"/>
<text text-anchor="middle" x="176" y="-121.5" font-family="Helvetica,sans-Serif" font-size="10.00">rotate_extrude_tr</text>
</a>
</g>
</g>
<!-- Node1&#45;&gt;Node3 -->
<g id="edge2" class="edge"><title>Node1&#45;&gt;Node3</title>
<path fill="none" stroke="midnightblue" d="M80.4213,-95.589C96.4516,-100.404 116.074,-106.299 133.282,-111.468"/>
<polygon fill="midnightblue" stroke="midnightblue" points="132.505,-114.889 143.089,-114.414 134.519,-108.185 132.505,-114.889"/>
</g>
<!-- Node4 -->
<g id="node4" class="node"><title>Node4</title>
<g id="a_node4"><a xlink:href="group__datatypes__identify__scalar.html#ga258e8911375d30ff85a6e52df01dc1c5" target="_top" xlink:title="Test if a value is a single non&#45;iterable value. ">
<polygon fill="white" stroke="black" points="148,-76.5 148,-95.5 204,-95.5 204,-76.5 148,-76.5"/>
<text text-anchor="middle" x="176" y="-83.5" font-family="Helvetica,sans-Serif" font-size="10.00">is_scalar</text>
</a>
</g>
</g>
<!-- Node1&#45;&gt;Node4 -->
<g id="edge3" class="edge"><title>Node1&#45;&gt;Node4</title>
<path fill="none" stroke="midnightblue" d="M95.2445,-86C109.239,-86 124.393,-86 137.695,-86"/>
<polygon fill="midnightblue" stroke="midnightblue" points="137.909,-89.5001 147.909,-86 137.909,-82.5001 137.909,-89.5001"/>
</g>
<!-- Node5 -->
<g id="node5" class="node"><title>Node5</title>
<g id="a_node5"><a xlink:href="group__datatypes__operate__iterable.html#ga3d679b4617986e31d5e2803971b37af8" target="_top" xlink:title="Return an iterable element when it exists or a default value when it does not. ">
<polygon fill="white" stroke="black" points="142.5,-38.5 142.5,-57.5 209.5,-57.5 209.5,-38.5 142.5,-38.5"/>
<text text-anchor="middle" x="176" y="-45.5" font-family="Helvetica,sans-Serif" font-size="10.00">edefined_or</text>
</a>
</g>
</g>
<!-- Node1&#45;&gt;Node5 -->
<g id="edge4" class="edge"><title>Node1&#45;&gt;Node5</title>
<path fill="none" stroke="midnightblue" d="M80.4213,-76.411C96.4516,-71.5956 116.074,-65.7012 133.282,-60.532"/>
<polygon fill="midnightblue" stroke="midnightblue" points="134.519,-63.815 143.089,-57.5859 132.505,-57.1109 134.519,-63.815"/>
</g>
<!-- Node6 -->
<g id="node6" class="node"><title>Node6</title>
<g id="a_node6"><a xlink:href="group__math__bitwise.html#ga31b8c7bc875d9fadd86b49a1ba39d1a4" target="_top" xlink:title="Test if a base&#45;two bit position of an integer value equals a test bit. ">
<polygon fill="white" stroke="black" points="131.5,-0.5 131.5,-19.5 220.5,-19.5 220.5,-0.5 131.5,-0.5"/>
<text text-anchor="middle" x="176" y="-7.5" font-family="Helvetica,sans-Serif" font-size="10.00">bitwise_is_equal</text>
</a>
</g>
</g>
<!-- Node1&#45;&gt;Node6 -->
<g id="edge5" class="edge"><title>Node1&#45;&gt;Node6</title>
<path fill="none" stroke="midnightblue" d="M60.859,-76.3052C76.5712,-64.2569 104.81,-43.5161 131,-29 134.248,-27.2 137.7,-25.4501 141.187,-23.7877"/>
<polygon fill="midnightblue" stroke="midnightblue" points="142.721,-26.9353 150.382,-19.6169 139.829,-20.5605 142.721,-26.9353"/>
</g>
</g>
</svg>
