<?xml version="1.0" encoding="UTF-8" standalone="no"?>
<!DOCTYPE svg PUBLIC "-//W3C//DTD SVG 1.1//EN"
 "http://www.w3.org/Graphics/SVG/1.1/DTD/svg11.dtd">
<!-- Generated by graphviz version 2.38.0 (20140413.2041)
 -->
<!-- Title: triangle_aas Pages: 1 -->
<svg width="432pt" height="256pt"
 viewBox="0.00 0.00 432.00 256.00" xmlns="http://www.w3.org/2000/svg" xmlns:xlink="http://www.w3.org/1999/xlink">
<g id="graph0" class="graph" transform="scale(1 1) rotate(0) translate(4 252)">
<title>triangle_aas</title>
<polygon fill="white" stroke="none" points="-4,4 -4,-252 428,-252 428,4 -4,4"/>
<!-- Node1 -->
<g id="node1" class="node"><title>Node1</title>
<polygon fill="#bfbfbf" stroke="black" points="0,-190.5 0,-209.5 69,-209.5 69,-190.5 0,-190.5"/>
<text text-anchor="middle" x="34.5" y="-197.5" font-family="Helvetica,sans-Serif" font-size="10.00">triangle_aas</text>
</g>
<!-- Node2 -->
<g id="node2" class="node"><title>Node2</title>
<g id="a_node2"><a xlink:href="group__utilities__console.html#ga1ece4e2cff9ae45c85429c226eb8362c" target="_top" xlink:title="Output warning message to console. ">
<polygon fill="white" stroke="black" points="216.5,-209.5 216.5,-228.5 272.5,-228.5 272.5,-209.5 216.5,-209.5"/>
<text text-anchor="middle" x="244.5" y="-216.5" font-family="Helvetica,sans-Serif" font-size="10.00">log_warn</text>
</a>
</g>
</g>
<!-- Node1&#45;&gt;Node2 -->
<g id="edge1" class="edge"><title>Node1&#45;&gt;Node2</title>
<path fill="none" stroke="midnightblue" d="M69.3817,-203.095C106.841,-206.517 167.018,-212.014 205.904,-215.566"/>
<polygon fill="midnightblue" stroke="midnightblue" points="205.994,-219.088 216.271,-216.513 206.631,-212.117 205.994,-219.088"/>
</g>
<!-- Node4 -->
<g id="node4" class="node"><title>Node4</title>
<g id="a_node4"><a xlink:href="group__shapes__2d.html#gab40e6edfc3c5ab69a4db26301318cd86" target="_top" xlink:title="A general triangle specified by its three side lengths. ">
<polygon fill="white" stroke="black" points="105,-171.5 105,-190.5 174,-190.5 174,-171.5 105,-171.5"/>
<text text-anchor="middle" x="139.5" y="-178.5" font-family="Helvetica,sans-Serif" font-size="10.00">triangle_sss</text>
</a>
</g>
</g>
<!-- Node1&#45;&gt;Node4 -->
<g id="edge3" class="edge"><title>Node1&#45;&gt;Node4</title>
<path fill="none" stroke="midnightblue" d="M69.2261,-193.779C77.4069,-192.27 86.2697,-190.635 94.8364,-189.054"/>
<polygon fill="midnightblue" stroke="midnightblue" points="95.499,-192.491 104.698,-187.235 94.2291,-185.607 95.499,-192.491"/>
</g>
<!-- Node3 -->
<g id="node3" class="node"><title>Node3</title>
<g id="a_node3"><a xlink:href="group__utilities__console.html#ga4fb6c985031c9b551777b2e9ebd2fc34" target="_top" xlink:title="Format the function call stack as a string. ">
<polygon fill="white" stroke="black" points="349,-228.5 349,-247.5 390,-247.5 390,-228.5 349,-228.5"/>
<text text-anchor="middle" x="369.5" y="-235.5" font-family="Helvetica,sans-Serif" font-size="10.00">stack</text>
</a>
</g>
</g>
<!-- Node2&#45;&gt;Node3 -->
<g id="edge2" class="edge"><title>Node2&#45;&gt;Node3</title>
<path fill="none" stroke="midnightblue" d="M272.798,-223.217C292.355,-226.238 318.679,-230.304 338.769,-233.407"/>
<polygon fill="midnightblue" stroke="midnightblue" points="338.504,-236.908 348.921,-234.976 339.573,-229.99 338.504,-236.908"/>
</g>
<!-- Node4&#45;&gt;Node2 -->
<g id="edge5" class="edge"><title>Node4&#45;&gt;Node2</title>
<path fill="none" stroke="midnightblue" d="M166.491,-190.589C179.056,-195.224 194.33,-200.86 207.952,-205.885"/>
<polygon fill="midnightblue" stroke="midnightblue" points="206.924,-209.236 217.517,-209.414 209.347,-202.669 206.924,-209.236"/>
</g>
<!-- Node5 -->
<g id="node5" class="node"><title>Node5</title>
<g id="a_node5"><a xlink:href="group__datatypes__identify__scalar.html#ga068402d4bbb2bbd22b955ad1e14f104b" target="_top" xlink:title="Test if a numerical value is invalid. ">
<polygon fill="white" stroke="black" points="222,-171.5 222,-190.5 267,-190.5 267,-171.5 222,-171.5"/>
<text text-anchor="middle" x="244.5" y="-178.5" font-family="Helvetica,sans-Serif" font-size="10.00">is_nan</text>
</a>
</g>
</g>
<!-- Node4&#45;&gt;Node5 -->
<g id="edge4" class="edge"><title>Node4&#45;&gt;Node5</title>
<path fill="none" stroke="midnightblue" d="M174.226,-181C186.175,-181 199.578,-181 211.389,-181"/>
<polygon fill="midnightblue" stroke="midnightblue" points="211.7,-184.5 221.7,-181 211.7,-177.5 211.7,-184.5"/>
</g>
<!-- Node6 -->
<g id="node6" class="node"><title>Node6</title>
<g id="a_node6"><a xlink:href="group__shapes__2d.html#ga33d2a7677306c346ad6be5a488885d86" target="_top" xlink:title="A general triangle specified by three vertices. ">
<polygon fill="white" stroke="black" points="210,-114.5 210,-133.5 279,-133.5 279,-114.5 210,-114.5"/>
<text text-anchor="middle" x="244.5" y="-121.5" font-family="Helvetica,sans-Serif" font-size="10.00">triangle_ppp</text>
</a>
</g>
</g>
<!-- Node4&#45;&gt;Node6 -->
<g id="edge6" class="edge"><title>Node4&#45;&gt;Node6</title>
<path fill="none" stroke="midnightblue" d="M157.973,-171.331C174.274,-162.31 198.808,-148.733 217.424,-138.43"/>
<polygon fill="midnightblue" stroke="midnightblue" points="219.231,-141.431 226.285,-133.526 215.841,-135.306 219.231,-141.431"/>
</g>
<!-- Node7 -->
<g id="node7" class="node"><title>Node7</title>
<g id="a_node7"><a xlink:href="group__datatypes__operate__scalar.html#gac119300e8c83de0037f2d0a4d9f0ab5c" target="_top" xlink:title="Return a value when it is defined or a default value when it is not. ">
<polygon fill="white" stroke="black" points="338.5,-190.5 338.5,-209.5 400.5,-209.5 400.5,-190.5 338.5,-190.5"/>
<text text-anchor="middle" x="369.5" y="-197.5" font-family="Helvetica,sans-Serif" font-size="10.00">defined_or</text>
</a>
</g>
</g>
<!-- Node6&#45;&gt;Node7 -->
<g id="edge7" class="edge"><title>Node6&#45;&gt;Node7</title>
<path fill="none" stroke="midnightblue" d="M255.047,-133.688C267.746,-146.114 291.357,-167.648 315,-181 319.281,-183.417 323.924,-185.614 328.626,-187.584"/>
<polygon fill="midnightblue" stroke="midnightblue" points="327.674,-190.968 338.264,-191.308 330.197,-184.439 327.674,-190.968"/>
</g>
<!-- Node8 -->
<g id="node8" class="node"><title>Node8</title>
<g id="a_node8"><a xlink:href="group__math__triangle.html#ga6eb5bfb1ae077d0db22e41c142233be0" target="_top" xlink:title="Compute the coordinate for the triangle&#39;s incircle. ">
<polygon fill="white" stroke="black" points="315,-152.5 315,-171.5 424,-171.5 424,-152.5 315,-152.5"/>
<text text-anchor="middle" x="369.5" y="-159.5" font-family="Helvetica,sans-Serif" font-size="10.00">triangle_incenter_ppp</text>
</a>
</g>
</g>
<!-- Node6&#45;&gt;Node8 -->
<g id="edge8" class="edge"><title>Node6&#45;&gt;Node8</title>
<path fill="none" stroke="midnightblue" d="M276.538,-133.589C291.979,-138.359 310.848,-144.189 327.466,-149.323"/>
<polygon fill="midnightblue" stroke="midnightblue" points="326.884,-152.806 337.472,-152.414 328.951,-146.118 326.884,-152.806"/>
</g>
<!-- Node9 -->
<g id="node9" class="node"><title>Node9</title>
<g id="a_node9"><a xlink:href="group__math__triangle.html#ga7c94003074f622d6421a665207cafbd7" target="_top" xlink:title="Compute the centroid (geometric center) of a triangle. ">
<polygon fill="white" stroke="black" points="315,-114.5 315,-133.5 424,-133.5 424,-114.5 315,-114.5"/>
<text text-anchor="middle" x="369.5" y="-121.5" font-family="Helvetica,sans-Serif" font-size="10.00">triangle_centroid_ppp</text>
</a>
</g>
</g>
<!-- Node6&#45;&gt;Node9 -->
<g id="edge9" class="edge"><title>Node6&#45;&gt;Node9</title>
<path fill="none" stroke="midnightblue" d="M279.11,-124C286.983,-124 295.63,-124 304.348,-124"/>
<polygon fill="midnightblue" stroke="midnightblue" points="304.573,-127.5 314.573,-124 304.573,-120.5 304.573,-127.5"/>
</g>
<!-- Node10 -->
<g id="node10" class="node"><title>Node10</title>
<g id="a_node10"><a xlink:href="group__datatypes__identify__iterable.html#ga6dc7861bf5a7777bfb33876493107d75" target="_top" xlink:title="Test if any element of a list of values is undefined. ">
<polygon fill="white" stroke="black" points="329.5,-76.5 329.5,-95.5 409.5,-95.5 409.5,-76.5 329.5,-76.5"/>
<text text-anchor="middle" x="369.5" y="-83.5" font-family="Helvetica,sans-Serif" font-size="10.00">any_undefined</text>
</a>
</g>
</g>
<!-- Node6&#45;&gt;Node10 -->
<g id="edge10" class="edge"><title>Node6&#45;&gt;Node10</title>
<path fill="none" stroke="midnightblue" d="M276.538,-114.411C291.979,-109.641 310.848,-103.811 327.466,-98.6771"/>
<polygon fill="midnightblue" stroke="midnightblue" points="328.951,-101.882 337.472,-95.5859 326.884,-95.1937 328.951,-101.882"/>
</g>
<!-- Node11 -->
<g id="node11" class="node"><title>Node11</title>
<g id="a_node11"><a xlink:href="group__math__vector__algebra.html#ga3a0c4c75047b8003ab09286a77a58c86" target="_top" xlink:title="Compute the angle between two lines (or vectors) in a Euclidean 3d or 2d&#45;space. ">
<polygon fill="white" stroke="black" points="344.5,-38.5 344.5,-57.5 394.5,-57.5 394.5,-38.5 344.5,-38.5"/>
<text text-anchor="middle" x="369.5" y="-45.5" font-family="Helvetica,sans-Serif" font-size="10.00">angle_ll</text>
</a>
</g>
</g>
<!-- Node6&#45;&gt;Node11 -->
<g id="edge11" class="edge"><title>Node6&#45;&gt;Node11</title>
<path fill="none" stroke="midnightblue" d="M255.047,-114.312C267.746,-101.886 291.357,-80.3518 315,-67 321.112,-63.5482 327.964,-60.5465 334.672,-58.0116"/>
<polygon fill="midnightblue" stroke="midnightblue" points="336.016,-61.2491 344.292,-54.6336 333.697,-54.6444 336.016,-61.2491"/>
</g>
<!-- Node12 -->
<g id="node12" class="node"><title>Node12</title>
<g id="a_node12"><a xlink:href="group__math__vector__algebra.html#gaa71caf02a1433e6c84d61d13d12aa581" target="_top" xlink:title="Compute the normalized unit vector of a Euclidean line (or vector). ">
<polygon fill="white" stroke="black" points="349.5,-0.5 349.5,-19.5 389.5,-19.5 389.5,-0.5 349.5,-0.5"/>
<text text-anchor="middle" x="369.5" y="-7.5" font-family="Helvetica,sans-Serif" font-size="10.00">unit_l</text>
</a>
</g>
</g>
<!-- Node6&#45;&gt;Node12 -->
<g id="edge12" class="edge"><title>Node6&#45;&gt;Node12</title>
<path fill="none" stroke="midnightblue" d="M250.014,-114.444C259.445,-95.4649 283.042,-52.8047 315,-29 322.272,-23.583 331.227,-19.6057 339.716,-16.7328"/>
<polygon fill="midnightblue" stroke="midnightblue" points="340.765,-20.0722 349.338,-13.8475 338.754,-13.3672 340.765,-20.0722"/>
</g>
</g>
</svg>
