<?xml version="1.0" encoding="UTF-8" standalone="no"?>
<!DOCTYPE svg PUBLIC "-//W3C//DTD SVG 1.1//EN"
 "http://www.w3.org/Graphics/SVG/1.1/DTD/svg11.dtd">
<!-- Generated by graphviz version 2.38.0 (20140413.2041)
 -->
<!-- Title: polytope_frame Pages: 1 -->
<svg width="356pt" height="522pt"
 viewBox="0.00 0.00 356.00 522.00" xmlns="http://www.w3.org/2000/svg" xmlns:xlink="http://www.w3.org/1999/xlink">
<g id="graph0" class="graph" transform="scale(1 1) rotate(0) translate(4 518)">
<title>polytope_frame</title>
<polygon fill="white" stroke="none" points="-4,4 -4,-518 352,-518 352,4 -4,4"/>
<!-- Node1 -->
<g id="node1" class="node"><title>Node1</title>
<polygon fill="#bfbfbf" stroke="black" points="0,-247.5 0,-266.5 83,-266.5 83,-247.5 0,-247.5"/>
<text text-anchor="middle" x="41.5" y="-254.5" font-family="Helvetica,sans-Serif" font-size="10.00">polytope_frame</text>
</g>
<!-- Node2 -->
<g id="node2" class="node"><title>Node2</title>
<g id="a_node2"><a xlink:href="group__datatypes__operate__scalar.html#gac119300e8c83de0037f2d0a4d9f0ab5c" target="_top" xlink:title="Return a value when it is defined or a default value when it is not. ">
<polygon fill="white" stroke="black" points="145,-494.5 145,-513.5 207,-513.5 207,-494.5 145,-494.5"/>
<text text-anchor="middle" x="176" y="-501.5" font-family="Helvetica,sans-Serif" font-size="10.00">defined_or</text>
</a>
</g>
</g>
<!-- Node1&#45;&gt;Node2 -->
<g id="edge1" class="edge"><title>Node1&#45;&gt;Node2</title>
<path fill="none" stroke="midnightblue" d="M42.8324,-266.794C44.5462,-301.624 55.043,-420.827 119,-485 123.566,-489.581 129.276,-493.058 135.29,-495.697"/>
<polygon fill="midnightblue" stroke="midnightblue" points="134.278,-499.053 144.872,-499.192 136.677,-492.477 134.278,-499.053"/>
</g>
<!-- Node3 -->
<g id="node3" class="node"><title>Node3</title>
<g id="a_node3"><a xlink:href="group__datatypes__operate__list.html#gab05ff3da4d68d30922daa197f505580d" target="_top" xlink:title="Create a sequence of constant or incrementing elements. ">
<polygon fill="white" stroke="black" points="153,-456.5 153,-475.5 199,-475.5 199,-456.5 153,-456.5"/>
<text text-anchor="middle" x="176" y="-463.5" font-family="Helvetica,sans-Serif" font-size="10.00">consts</text>
</a>
</g>
</g>
<!-- Node1&#45;&gt;Node3 -->
<g id="edge2" class="edge"><title>Node1&#45;&gt;Node3</title>
<path fill="none" stroke="midnightblue" d="M43.5924,-266.876C47.5551,-297.983 63.9726,-394.954 119,-447 125.594,-453.237 134.312,-457.432 142.901,-460.252"/>
<polygon fill="midnightblue" stroke="midnightblue" points="142.219,-463.694 152.789,-462.97 144.075,-456.944 142.219,-463.694"/>
</g>
<!-- Node4 -->
<g id="node4" class="node"><title>Node4</title>
<g id="a_node4"><a xlink:href="group__datatypes__identify__scalar.html#ga51d7fdb800c10f4b7479d23b89ab8d22" target="_top" xlink:title="Test if a value is defined. ">
<polygon fill="white" stroke="black" points="145.5,-418.5 145.5,-437.5 206.5,-437.5 206.5,-418.5 145.5,-418.5"/>
<text text-anchor="middle" x="176" y="-425.5" font-family="Helvetica,sans-Serif" font-size="10.00">is_defined</text>
</a>
</g>
</g>
<!-- Node1&#45;&gt;Node4 -->
<g id="edge3" class="edge"><title>Node1&#45;&gt;Node4</title>
<path fill="none" stroke="midnightblue" d="M44.6696,-266.774C51.1105,-293.535 72.6332,-368.676 119,-409 123.88,-413.244 129.75,-416.551 135.827,-419.123"/>
<polygon fill="midnightblue" stroke="midnightblue" points="134.84,-422.488 145.434,-422.591 137.216,-415.903 134.84,-422.488"/>
</g>
<!-- Node5 -->
<g id="node5" class="node"><title>Node5</title>
<g id="a_node5"><a xlink:href="group__math__polytope.html#ga3acbef4dac1e9b9c464566f80b52a4f6" target="_top" xlink:title="List the edge coordinate index pairs of a polytope. ">
<polygon fill="white" stroke="black" points="119,-380.5 119,-399.5 233,-399.5 233,-380.5 119,-380.5"/>
<text text-anchor="middle" x="176" y="-387.5" font-family="Helvetica,sans-Serif" font-size="10.00">polytope_faces2edges</text>
</a>
</g>
</g>
<!-- Node1&#45;&gt;Node5 -->
<g id="edge4" class="edge"><title>Node1&#45;&gt;Node5</title>
<path fill="none" stroke="midnightblue" d="M46.4469,-266.819C55.7488,-288.742 81.1501,-342.021 119,-371 121.448,-372.874 124.092,-374.57 126.853,-376.104"/>
<polygon fill="midnightblue" stroke="midnightblue" points="125.439,-379.308 135.97,-380.47 128.463,-372.994 125.439,-379.308"/>
</g>
<!-- Node6 -->
<g id="node6" class="node"><title>Node6</title>
<g id="a_node6"><a xlink:href="group__datatypes__identify__scalar.html#ga30fa967b5bef4eeaf6afc6a9ae94d428" target="_top" xlink:title="Test if a numerical value is between an upper and lower bounds. ">
<polygon fill="white" stroke="black" points="143,-342.5 143,-361.5 209,-361.5 209,-342.5 143,-342.5"/>
<text text-anchor="middle" x="176" y="-349.5" font-family="Helvetica,sans-Serif" font-size="10.00">is_between</text>
</a>
</g>
</g>
<!-- Node1&#45;&gt;Node6 -->
<g id="edge5" class="edge"><title>Node1&#45;&gt;Node6</title>
<path fill="none" stroke="midnightblue" d="M49.6905,-266.569C62.1377,-282.509 89.2389,-314.564 119,-333 123.414,-335.734 128.27,-338.13 133.221,-340.214"/>
<polygon fill="midnightblue" stroke="midnightblue" points="132.176,-343.561 142.767,-343.845 134.664,-337.018 132.176,-343.561"/>
</g>
<!-- Node7 -->
<g id="node7" class="node"><title>Node7</title>
<g id="a_node7"><a xlink:href="group__datatypes__operate__list.html#ga654f1ba0630af9523b13ba9fe8f4287b" target="_top" xlink:title="Create a sequence for a list index sequence specification. ">
<polygon fill="white" stroke="black" points="146.5,-304.5 146.5,-323.5 205.5,-323.5 205.5,-304.5 146.5,-304.5"/>
<text text-anchor="middle" x="176" y="-311.5" font-family="Helvetica,sans-Serif" font-size="10.00">get_index</text>
</a>
</g>
</g>
<!-- Node1&#45;&gt;Node7 -->
<g id="edge6" class="edge"><title>Node1&#45;&gt;Node7</title>
<path fill="none" stroke="midnightblue" d="M60.1164,-266.595C75.4234,-274.727 98.3237,-286.402 119,-295 124.587,-297.323 130.57,-299.584 136.47,-301.687"/>
<polygon fill="midnightblue" stroke="midnightblue" points="135.642,-305.104 146.237,-305.063 137.928,-298.488 135.642,-305.104"/>
</g>
<!-- Node8 -->
<g id="node8" class="node"><title>Node8</title>
<g id="a_node8"><a xlink:href="group__math__polytope.html#gab8edcfe729fd861145090608ed5863d1" target="_top" xlink:title="Get a normal vector for a polytope vertex. ">
<polygon fill="white" stroke="black" points="128,-266.5 128,-285.5 224,-285.5 224,-266.5 128,-266.5"/>
<text text-anchor="middle" x="176" y="-273.5" font-family="Helvetica,sans-Serif" font-size="10.00">polytope_vertex_n</text>
</a>
</g>
</g>
<!-- Node1&#45;&gt;Node8 -->
<g id="edge7" class="edge"><title>Node1&#45;&gt;Node8</title>
<path fill="none" stroke="midnightblue" d="M83.3355,-262.856C94.1567,-264.407 106.044,-266.112 117.569,-267.765"/>
<polygon fill="midnightblue" stroke="midnightblue" points="117.172,-271.243 127.568,-269.198 118.166,-264.314 117.172,-271.243"/>
</g>
<!-- Node9 -->
<g id="node9" class="node"><title>Node9</title>
<g id="a_node9"><a xlink:href="group__tools__align.html#ga6feefab7f1d6951a75a8d7bb74ecf78e" target="_top" xlink:title="Orient a line or vector to a reference line or vector. ">
<polygon fill="white" stroke="black" points="151,-228.5 151,-247.5 201,-247.5 201,-228.5 151,-228.5"/>
<text text-anchor="middle" x="176" y="-235.5" font-family="Helvetica,sans-Serif" font-size="10.00">orient_ll</text>
</a>
</g>
</g>
<!-- Node1&#45;&gt;Node9 -->
<g id="edge8" class="edge"><title>Node1&#45;&gt;Node9</title>
<path fill="none" stroke="midnightblue" d="M83.3355,-251.144C101.597,-248.526 122.894,-245.472 140.362,-242.967"/>
<polygon fill="midnightblue" stroke="midnightblue" points="141.28,-246.371 150.682,-241.487 140.286,-239.442 141.28,-246.371"/>
</g>
<!-- Node12 -->
<g id="node12" class="node"><title>Node12</title>
<g id="a_node12"><a xlink:href="group__math__polytope.html#gaef7e9dfdd7a8ae873faa7b26a572ffaa" target="_top" xlink:title="Get the mean coordinate of all vertices of a polytope face. ">
<polygon fill="white" stroke="black" points="130.5,-190.5 130.5,-209.5 221.5,-209.5 221.5,-190.5 130.5,-190.5"/>
<text text-anchor="middle" x="176" y="-197.5" font-family="Helvetica,sans-Serif" font-size="10.00">polytope_face_m</text>
</a>
</g>
</g>
<!-- Node1&#45;&gt;Node12 -->
<g id="edge11" class="edge"><title>Node1&#45;&gt;Node12</title>
<path fill="none" stroke="midnightblue" d="M60.1164,-247.405C75.4234,-239.273 98.3237,-227.598 119,-219 124.095,-216.881 129.52,-214.815 134.91,-212.872"/>
<polygon fill="midnightblue" stroke="midnightblue" points="136.212,-216.125 144.499,-209.523 133.904,-209.516 136.212,-216.125"/>
</g>
<!-- Node13 -->
<g id="node13" class="node"><title>Node13</title>
<g id="a_node13"><a xlink:href="group__math__polytope.html#ga34b3d2bc74bc2d42f4cbc94499ec4637" target="_top" xlink:title="Get the normal vector of a polytope face. ">
<polygon fill="white" stroke="black" points="132,-152.5 132,-171.5 220,-171.5 220,-152.5 132,-152.5"/>
<text text-anchor="middle" x="176" y="-159.5" font-family="Helvetica,sans-Serif" font-size="10.00">polytope_face_n</text>
</a>
</g>
</g>
<!-- Node1&#45;&gt;Node13 -->
<g id="edge12" class="edge"><title>Node1&#45;&gt;Node13</title>
<path fill="none" stroke="midnightblue" d="M49.6905,-247.431C62.1377,-231.491 89.2389,-199.436 119,-181 122.341,-178.93 125.935,-177.055 129.632,-175.362"/>
<polygon fill="midnightblue" stroke="midnightblue" points="131.035,-178.569 138.947,-171.522 128.367,-172.097 131.035,-178.569"/>
</g>
<!-- Node14 -->
<g id="node14" class="node"><title>Node14</title>
<g id="a_node14"><a xlink:href="group__math__vector__algebra.html#gae2ec73dee799d38b3aa67e2119809eec" target="_top" xlink:title="Return 3d vector unchanged or add a zeroed third dimension to 2d vector. ">
<polygon fill="white" stroke="black" points="128.5,-114.5 128.5,-133.5 223.5,-133.5 223.5,-114.5 128.5,-114.5"/>
<text text-anchor="middle" x="176" y="-121.5" font-family="Helvetica,sans-Serif" font-size="10.00">dimension_2to3_v</text>
</a>
</g>
</g>
<!-- Node1&#45;&gt;Node14 -->
<g id="edge13" class="edge"><title>Node1&#45;&gt;Node14</title>
<path fill="none" stroke="midnightblue" d="M46.4469,-247.181C55.7488,-225.258 81.1501,-171.979 119,-143 121.448,-141.126 124.092,-139.43 126.853,-137.896"/>
<polygon fill="midnightblue" stroke="midnightblue" points="128.463,-141.006 135.97,-133.53 125.439,-134.692 128.463,-141.006"/>
</g>
<!-- Node15 -->
<g id="node15" class="node"><title>Node15</title>
<g id="a_node15"><a xlink:href="group__datatypes__operate__iterable.html#gaccab3e37e43cb1d882713b3f3d6d9e1b" target="_top" xlink:title="Return the first element of an iterable value. ">
<polygon fill="white" stroke="black" points="159.5,-76.5 159.5,-95.5 192.5,-95.5 192.5,-76.5 159.5,-76.5"/>
<text text-anchor="middle" x="176" y="-83.5" font-family="Helvetica,sans-Serif" font-size="10.00">first</text>
</a>
</g>
</g>
<!-- Node1&#45;&gt;Node15 -->
<g id="edge14" class="edge"><title>Node1&#45;&gt;Node15</title>
<path fill="none" stroke="midnightblue" d="M44.6696,-247.226C51.1105,-220.465 72.6332,-145.324 119,-105 127.483,-97.6228 138.954,-93.0803 149.306,-90.2973"/>
<polygon fill="midnightblue" stroke="midnightblue" points="150.158,-93.693 159.132,-88.061 148.605,-86.8675 150.158,-93.693"/>
</g>
<!-- Node16 -->
<g id="node16" class="node"><title>Node16</title>
<g id="a_node16"><a xlink:href="group__datatypes__operate__iterable.html#ga894d4bec62cc9cf38d5e099de3028c54" target="_top" xlink:title="Return the second element of an iterable value. ">
<polygon fill="white" stroke="black" points="152,-38.5 152,-57.5 200,-57.5 200,-38.5 152,-38.5"/>
<text text-anchor="middle" x="176" y="-45.5" font-family="Helvetica,sans-Serif" font-size="10.00">second</text>
</a>
</g>
</g>
<!-- Node1&#45;&gt;Node16 -->
<g id="edge15" class="edge"><title>Node1&#45;&gt;Node16</title>
<path fill="none" stroke="midnightblue" d="M43.5924,-247.124C47.5551,-216.017 63.9726,-119.046 119,-67 125.433,-60.9153 133.888,-56.774 142.272,-53.9571"/>
<polygon fill="midnightblue" stroke="midnightblue" points="143.285,-57.3083 151.957,-51.2218 141.382,-50.5718 143.285,-57.3083"/>
</g>
<!-- Node17 -->
<g id="node17" class="node"><title>Node17</title>
<g id="a_node17"><a xlink:href="group__math__vector__algebra.html#gaef5b930729755b4420098776467ac210" target="_top" xlink:title="Compute the distance between two Euclidean points. ">
<polygon fill="white" stroke="black" points="141.5,-0.5 141.5,-19.5 210.5,-19.5 210.5,-0.5 141.5,-0.5"/>
<text text-anchor="middle" x="176" y="-7.5" font-family="Helvetica,sans-Serif" font-size="10.00">distance_pp</text>
</a>
</g>
</g>
<!-- Node1&#45;&gt;Node17 -->
<g id="edge16" class="edge"><title>Node1&#45;&gt;Node17</title>
<path fill="none" stroke="midnightblue" d="M42.8324,-247.206C44.5462,-212.376 55.043,-93.1732 119,-29 122.71,-25.2777 127.175,-22.2844 131.945,-19.8773"/>
<polygon fill="midnightblue" stroke="midnightblue" points="133.5,-23.0207 141.375,-15.9333 130.799,-16.5627 133.5,-23.0207"/>
</g>
<!-- Node10 -->
<g id="node10" class="node"><title>Node10</title>
<g id="a_node10"><a xlink:href="group__math__vector__algebra.html#gaf05cb2c5d4cb98e331ecf79fd85e0dc6" target="_top" xlink:title="Shift a Euclidean line (or vector) to the origin. ">
<polygon fill="white" stroke="black" points="269,-247.5 269,-266.5 348,-266.5 348,-247.5 269,-247.5"/>
<text text-anchor="middle" x="308.5" y="-254.5" font-family="Helvetica,sans-Serif" font-size="10.00">get_line2origin</text>
</a>
</g>
</g>
<!-- Node9&#45;&gt;Node10 -->
<g id="edge9" class="edge"><title>Node9&#45;&gt;Node10</title>
<path fill="none" stroke="midnightblue" d="M201.24,-241.529C217.372,-243.878 239.127,-247.045 258.751,-249.903"/>
<polygon fill="midnightblue" stroke="midnightblue" points="258.378,-253.385 268.778,-251.362 259.387,-246.458 258.378,-253.385"/>
</g>
<!-- Node11 -->
<g id="node11" class="node"><title>Node11</title>
<g id="a_node11"><a xlink:href="group__math__vector__algebra.html#ga3a0c4c75047b8003ab09286a77a58c86" target="_top" xlink:title="Compute the angle between two lines (or vectors) in a Euclidean 3d or 2d&#45;space. ">
<polygon fill="white" stroke="black" points="283.5,-209.5 283.5,-228.5 333.5,-228.5 333.5,-209.5 283.5,-209.5"/>
<text text-anchor="middle" x="308.5" y="-216.5" font-family="Helvetica,sans-Serif" font-size="10.00">angle_ll</text>
</a>
</g>
</g>
<!-- Node9&#45;&gt;Node11 -->
<g id="edge10" class="edge"><title>Node9&#45;&gt;Node11</title>
<path fill="none" stroke="midnightblue" d="M201.24,-234.471C221.567,-231.511 250.823,-227.252 273.493,-223.951"/>
<polygon fill="midnightblue" stroke="midnightblue" points="273.998,-227.415 283.39,-222.51 272.99,-220.488 273.998,-227.415"/>
</g>
</g>
</svg>
