<?xml version="1.0" encoding="UTF-8" standalone="no"?>
<!DOCTYPE svg PUBLIC "-//W3C//DTD SVG 1.1//EN"
 "http://www.w3.org/Graphics/SVG/1.1/DTD/svg11.dtd">
<!-- Generated by graphviz version 2.38.0 (20140413.2041)
 -->
<!-- Title: polytope_faces2edges Pages: 1 -->
<svg width="249pt" height="66pt"
 viewBox="0.00 0.00 249.00 66.00" xmlns="http://www.w3.org/2000/svg" xmlns:xlink="http://www.w3.org/1999/xlink">
<g id="graph0" class="graph" transform="scale(1 1) rotate(0) translate(4 62)">
<title>polytope_faces2edges</title>
<polygon fill="white" stroke="none" points="-4,4 -4,-62 245,-62 245,4 -4,4"/>
<!-- Node1 -->
<g id="node1" class="node"><title>Node1</title>
<polygon fill="#bfbfbf" stroke="black" points="0,-19.5 0,-38.5 114,-38.5 114,-19.5 0,-19.5"/>
<text text-anchor="middle" x="57" y="-26.5" font-family="Helvetica,sans-Serif" font-size="10.00">polytope_faces2edges</text>
</g>
<!-- Node2 -->
<g id="node2" class="node"><title>Node2</title>
<g id="a_node2"><a xlink:href="group__tools__polytope.html#ga00b574079f19251be7281151d11db8fa" target="_top" xlink:title="Label the vertices, paths, and edges of a polytope. ">
<polygon fill="white" stroke="black" points="150,-38.5 150,-57.5 241,-57.5 241,-38.5 150,-38.5"/>
<text text-anchor="middle" x="195.5" y="-45.5" font-family="Helvetica,sans-Serif" font-size="10.00">polytope_number</text>
</a>
</g>
</g>
<!-- Node1&#45;&gt;Node2 -->
<g id="edge1" class="edge"><title>Node1&#45;&gt;Node2</title>
<path fill="none" stroke="midnightblue" d="M124.431,-38.2468C133.098,-39.4532 141.805,-40.6651 149.991,-41.8046"/>
<polygon fill="midnightblue" stroke="midnightblue" points="124.695,-34.7499 114.308,-36.8377 123.73,-41.683 124.695,-34.7499"/>
</g>
<!-- Node3 -->
<g id="node3" class="node"><title>Node3</title>
<g id="a_node3"><a xlink:href="group__tools__polytope.html#ga530c86f9c90ce074aa7adc29834f0539" target="_top" xlink:title="Assemble a polytope skeletal frame using child objects. ">
<polygon fill="white" stroke="black" points="154,-0.5 154,-19.5 237,-19.5 237,-0.5 154,-0.5"/>
<text text-anchor="middle" x="195.5" y="-7.5" font-family="Helvetica,sans-Serif" font-size="10.00">polytope_frame</text>
</a>
</g>
</g>
<!-- Node1&#45;&gt;Node3 -->
<g id="edge2" class="edge"><title>Node1&#45;&gt;Node3</title>
<path fill="none" stroke="midnightblue" d="M124.305,-19.7707C134.354,-18.372 144.459,-16.9654 153.748,-15.6725"/>
<polygon fill="midnightblue" stroke="midnightblue" points="123.73,-16.317 114.308,-21.1623 124.695,-23.2501 123.73,-16.317"/>
</g>
</g>
</svg>
