<?xml version="1.0" encoding="UTF-8" standalone="no"?>
<!DOCTYPE svg PUBLIC "-//W3C//DTD SVG 1.1//EN"
 "http://www.w3.org/Graphics/SVG/1.1/DTD/svg11.dtd">
<!-- Generated by graphviz version 2.38.0 (20140413.2041)
 -->
<!-- Title: Polytopes Pages: 1 -->
<svg width="230pt" height="37pt"
 viewBox="0.00 0.00 230.00 37.02" xmlns="http://www.w3.org/2000/svg" xmlns:xlink="http://www.w3.org/1999/xlink">
<g id="graph0" class="graph" transform="scale(1 1) rotate(0) translate(4 33.0162)">
<title>Polytopes</title>
<polygon fill="white" stroke="none" points="-4,4 -4,-33.0162 226,-33.0162 226,4 -4,4"/>
<!-- Node1 -->
<g id="node1" class="node"><title>Node1</title>
<g id="a_node1"><a xlink:href="group__math.html" target="_top" xlink:title="Mathematical functions. ">
<polygon fill="white" stroke="black" points="0,-9.51616 0,-28.5162 38,-28.5162 38,-9.51616 0,-9.51616"/>
<text text-anchor="middle" x="19" y="-16.5162" font-family="Helvetica,sans-Serif" font-size="10.00">Math</text>
</a>
</g>
</g>
<!-- Node0 -->
<g id="node2" class="node"><title>Node0</title>
<polygon fill="#bfbfbf" stroke="black" points="162,-9.51616 162,-28.5162 222,-28.5162 222,-9.51616 162,-9.51616"/>
<text text-anchor="middle" x="192" y="-16.5162" font-family="Helvetica,sans-Serif" font-size="10.00">Polytopes</text>
</g>
<!-- Node1&#45;&gt;Node0 -->
<g id="edge1" class="edge"><title>Node1&#45;&gt;Node0</title>
<path fill="none" stroke="black" d="M48.5551,-19.0162C79.9328,-19.0162 130.073,-19.0162 161.732,-19.0162"/>
<polygon fill="black" stroke="black" points="48.3,-15.5163 38.3,-19.0162 48.3,-22.5163 48.3,-15.5163"/>
</g>
<!-- Node0&#45;&gt;Node1 -->
<g id="edge2" class="edge"><title>Node0&#45;&gt;Node1</title>
<path fill="none" stroke="darkgreen" stroke-dasharray="5,2" d="M163.962,-9.51258C157.502,-7.64797 150.571,-5.97409 144,-5.01616 105.298,0.625499 94.4405,2.19533 56,-5.01616 50.0681,-6.12899 43.8576,-8.1897 38.2976,-10.3943"/>
<text text-anchor="middle" x="100" y="-8.01616" font-family="Helvetica,sans-Serif" font-size="10.00">math_polytope.scad</text>
</g>
</g>
</svg>
