<?xml version="1.0" encoding="UTF-8" standalone="no"?>
<!DOCTYPE svg PUBLIC "-//W3C//DTD SVG 1.1//EN"
 "http://www.w3.org/Graphics/SVG/1.1/DTD/svg11.dtd">
<!-- Generated by graphviz version 2.38.0 (20140413.2041)
 -->
<!-- Title: eellipse_c Pages: 1 -->
<svg width="405pt" height="180pt"
 viewBox="0.00 0.00 405.00 180.00" xmlns="http://www.w3.org/2000/svg" xmlns:xlink="http://www.w3.org/1999/xlink">
<g id="graph0" class="graph" transform="scale(1 1) rotate(0) translate(4 176)">
<title>eellipse_c</title>
<polygon fill="white" stroke="none" points="-4,4 -4,-176 401,-176 401,4 -4,4"/>
<!-- Node1 -->
<g id="node1" class="node"><title>Node1</title>
<polygon fill="#bfbfbf" stroke="black" points="0,-95.5 0,-114.5 60,-114.5 60,-95.5 0,-95.5"/>
<text text-anchor="middle" x="30" y="-102.5" font-family="Helvetica,sans-Serif" font-size="10.00">eellipse_c</text>
</g>
<!-- Node2 -->
<g id="node2" class="node"><title>Node2</title>
<g id="a_node2"><a xlink:href="group__tools__extrude.html#ga2cb6eb6927858c6b5e1e2dfadb197bf9" target="_top" xlink:title="Linearly extrude 2d shape with extrusion upper and lower scaling. ">
<polygon fill="white" stroke="black" points="96,-114.5 96,-133.5 191,-133.5 191,-114.5 96,-114.5"/>
<text text-anchor="middle" x="143.5" y="-121.5" font-family="Helvetica,sans-Serif" font-size="10.00">linear_extrude_uls</text>
</a>
</g>
</g>
<!-- Node1&#45;&gt;Node2 -->
<g id="edge1" class="edge"><title>Node1&#45;&gt;Node2</title>
<path fill="none" stroke="midnightblue" d="M60.0042,-109.942C67.9741,-111.301 76.8997,-112.821 85.8561,-114.348"/>
<polygon fill="midnightblue" stroke="midnightblue" points="85.486,-117.835 95.9319,-116.065 86.6619,-110.934 85.486,-117.835"/>
</g>
<!-- Node5 -->
<g id="node5" class="node"><title>Node5</title>
<g id="a_node5"><a xlink:href="group__shapes__2d.html#ga9f2b6ba2562760853dd998b0086736a3" target="_top" xlink:title="An ellipse with a removed elliptical core. ">
<polygon fill="white" stroke="black" points="116,-57.5 116,-76.5 171,-76.5 171,-57.5 116,-57.5"/>
<text text-anchor="middle" x="143.5" y="-64.5" font-family="Helvetica,sans-Serif" font-size="10.00">ellipse_c</text>
</a>
</g>
</g>
<!-- Node1&#45;&gt;Node5 -->
<g id="edge4" class="edge"><title>Node1&#45;&gt;Node5</title>
<path fill="none" stroke="midnightblue" d="M59.1362,-95.411C73.4249,-90.5413 90.9514,-84.5681 106.241,-79.3575"/>
<polygon fill="midnightblue" stroke="midnightblue" points="107.572,-82.6015 115.908,-76.0627 105.314,-75.9758 107.572,-82.6015"/>
</g>
<!-- Node3 -->
<g id="node3" class="node"><title>Node3</title>
<g id="a_node3"><a xlink:href="group__datatypes__identify__scalar.html#ga62dbd35f498bfc2a090812b1cf8a37c4" target="_top" xlink:title="Test if a value is not defined. ">
<polygon fill="white" stroke="black" points="227,-152.5 227,-171.5 294,-171.5 294,-152.5 227,-152.5"/>
<text text-anchor="middle" x="260.5" y="-159.5" font-family="Helvetica,sans-Serif" font-size="10.00">not_defined</text>
</a>
</g>
</g>
<!-- Node2&#45;&gt;Node3 -->
<g id="edge2" class="edge"><title>Node2&#45;&gt;Node3</title>
<path fill="none" stroke="midnightblue" d="M173.519,-133.589C187.82,-138.314 205.265,-144.079 220.695,-149.177"/>
<polygon fill="midnightblue" stroke="midnightblue" points="219.897,-152.6 230.49,-152.414 222.093,-145.953 219.897,-152.6"/>
</g>
<!-- Node4 -->
<g id="node4" class="node"><title>Node4</title>
<g id="a_node4"><a xlink:href="group__datatypes__identify__scalar.html#ga258e8911375d30ff85a6e52df01dc1c5" target="_top" xlink:title="Test if a value is a single non&#45;iterable value. ">
<polygon fill="white" stroke="black" points="232.5,-114.5 232.5,-133.5 288.5,-133.5 288.5,-114.5 232.5,-114.5"/>
<text text-anchor="middle" x="260.5" y="-121.5" font-family="Helvetica,sans-Serif" font-size="10.00">is_scalar</text>
</a>
</g>
</g>
<!-- Node2&#45;&gt;Node4 -->
<g id="edge3" class="edge"><title>Node2&#45;&gt;Node4</title>
<path fill="none" stroke="midnightblue" d="M191.275,-124C201.504,-124 212.203,-124 222.014,-124"/>
<polygon fill="midnightblue" stroke="midnightblue" points="222.247,-127.5 232.247,-124 222.247,-120.5 222.247,-127.5"/>
</g>
<!-- Node6 -->
<g id="node6" class="node"><title>Node6</title>
<g id="a_node6"><a xlink:href="group__datatypes__identify__iterable.html#ga3fa2b76e04a4c8bba633d9e5e08004e8" target="_top" xlink:title="Test if no element of a list of values is undefined. ">
<polygon fill="white" stroke="black" points="229,-76.5 229,-95.5 292,-95.5 292,-76.5 229,-76.5"/>
<text text-anchor="middle" x="260.5" y="-83.5" font-family="Helvetica,sans-Serif" font-size="10.00">all_defined</text>
</a>
</g>
</g>
<!-- Node5&#45;&gt;Node6 -->
<g id="edge5" class="edge"><title>Node5&#45;&gt;Node6</title>
<path fill="none" stroke="midnightblue" d="M171.172,-71.4067C185.324,-73.7448 203.013,-76.6673 218.836,-79.2816"/>
<polygon fill="midnightblue" stroke="midnightblue" points="218.472,-82.7688 228.909,-80.9458 219.613,-75.8624 218.472,-82.7688"/>
</g>
<!-- Node7 -->
<g id="node7" class="node"><title>Node7</title>
<g id="a_node7"><a xlink:href="group__datatypes__identify__scalar.html#ga51d7fdb800c10f4b7479d23b89ab8d22" target="_top" xlink:title="Test if a value is defined. ">
<polygon fill="white" stroke="black" points="230,-38.5 230,-57.5 291,-57.5 291,-38.5 230,-38.5"/>
<text text-anchor="middle" x="260.5" y="-45.5" font-family="Helvetica,sans-Serif" font-size="10.00">is_defined</text>
</a>
</g>
</g>
<!-- Node5&#45;&gt;Node7 -->
<g id="edge6" class="edge"><title>Node5&#45;&gt;Node7</title>
<path fill="none" stroke="midnightblue" d="M171.172,-62.5933C185.542,-60.2192 203.558,-57.2426 219.565,-54.598"/>
<polygon fill="midnightblue" stroke="midnightblue" points="220.439,-58.001 229.735,-52.9177 219.298,-51.0947 220.439,-58.001"/>
</g>
<!-- Node8 -->
<g id="node8" class="node"><title>Node8</title>
<g id="a_node8"><a xlink:href="group__shapes__2d.html#ga7d62c56f88b839dc7e879ff16f968ea2" target="_top" xlink:title="An ellipse. ">
<polygon fill="white" stroke="black" points="238.5,-0.5 238.5,-19.5 282.5,-19.5 282.5,-0.5 238.5,-0.5"/>
<text text-anchor="middle" x="260.5" y="-7.5" font-family="Helvetica,sans-Serif" font-size="10.00">ellipse</text>
</a>
</g>
</g>
<!-- Node5&#45;&gt;Node8 -->
<g id="edge7" class="edge"><title>Node5&#45;&gt;Node8</title>
<path fill="none" stroke="midnightblue" d="M163.748,-57.4595C182.157,-48.335 210.14,-34.4656 231.108,-24.0726"/>
<polygon fill="midnightblue" stroke="midnightblue" points="232.783,-27.1486 240.189,-19.5716 229.675,-20.8767 232.783,-27.1486"/>
</g>
<!-- Node9 -->
<g id="node9" class="node"><title>Node9</title>
<g id="a_node9"><a xlink:href="group__datatypes__operate__iterable.html#ga3d679b4617986e31d5e2803971b37af8" target="_top" xlink:title="Return an iterable element when it exists or a default value when it does not. ">
<polygon fill="white" stroke="black" points="330,-0.5 330,-19.5 397,-19.5 397,-0.5 330,-0.5"/>
<text text-anchor="middle" x="363.5" y="-7.5" font-family="Helvetica,sans-Serif" font-size="10.00">edefined_or</text>
</a>
</g>
</g>
<!-- Node8&#45;&gt;Node9 -->
<g id="edge8" class="edge"><title>Node8&#45;&gt;Node9</title>
<path fill="none" stroke="midnightblue" d="M282.92,-10C293.703,-10 307.169,-10 319.941,-10"/>
<polygon fill="midnightblue" stroke="midnightblue" points="319.97,-13.5001 329.97,-10 319.97,-6.5001 319.97,-13.5001"/>
</g>
</g>
</svg>
