<?xml version="1.0" encoding="UTF-8" standalone="no"?>
<!DOCTYPE svg PUBLIC "-//W3C//DTD SVG 1.1//EN"
 "http://www.w3.org/Graphics/SVG/1.1/DTD/svg11.dtd">
<!-- Generated by graphviz version 2.38.0 (20140413.2041)
 -->
<!-- Title: log_info Pages: 1 -->
<svg width="163pt" height="104pt"
 viewBox="0.00 0.00 163.00 104.00" xmlns="http://www.w3.org/2000/svg" xmlns:xlink="http://www.w3.org/1999/xlink">
<g id="graph0" class="graph" transform="scale(1 1) rotate(0) translate(4 100)">
<title>log_info</title>
<polygon fill="white" stroke="none" points="-4,4 -4,-100 159,-100 159,4 -4,4"/>
<!-- Node1 -->
<g id="node1" class="node"><title>Node1</title>
<polygon fill="#bfbfbf" stroke="black" points="0,-38.5 0,-57.5 50,-57.5 50,-38.5 0,-38.5"/>
<text text-anchor="middle" x="25" y="-45.5" font-family="Helvetica,sans-Serif" font-size="10.00">log_info</text>
</g>
<!-- Node2 -->
<g id="node2" class="node"><title>Node2</title>
<g id="a_node2"><a xlink:href="group__datatypes__map.html#ga4a3d0704d80be0d9e8bae1fcb3ab7958" target="_top" xlink:title="Perform some basic validation/checks on a map. ">
<polygon fill="white" stroke="black" points="87,-76.5 87,-95.5 154,-95.5 154,-76.5 87,-76.5"/>
<text text-anchor="middle" x="120.5" y="-83.5" font-family="Helvetica,sans-Serif" font-size="10.00">map_check</text>
</a>
</g>
</g>
<!-- Node1&#45;&gt;Node2 -->
<g id="edge1" class="edge"><title>Node1&#45;&gt;Node2</title>
<path fill="none" stroke="midnightblue" d="M58.9992,-61.4114C71.1812,-66.3624 84.7305,-71.8691 95.9136,-76.4141"/>
<polygon fill="midnightblue" stroke="midnightblue" points="60.1759,-58.1117 49.594,-57.589 57.5403,-64.5966 60.1759,-58.1117"/>
</g>
<!-- Node3 -->
<g id="node3" class="node"><title>Node3</title>
<g id="a_node3"><a xlink:href="group__datatypes__table.html#ga8a4429649e8b06d9f492e1a0d2653656" target="_top" xlink:title="Perform some basic validation/checks on a table. ">
<polygon fill="white" stroke="black" points="86,-38.5 86,-57.5 155,-57.5 155,-38.5 86,-38.5"/>
<text text-anchor="middle" x="120.5" y="-45.5" font-family="Helvetica,sans-Serif" font-size="10.00">table_check</text>
</a>
</g>
</g>
<!-- Node1&#45;&gt;Node3 -->
<g id="edge2" class="edge"><title>Node1&#45;&gt;Node3</title>
<path fill="none" stroke="midnightblue" d="M60.3002,-48C68.6839,-48 77.6437,-48 85.9899,-48"/>
<polygon fill="midnightblue" stroke="midnightblue" points="60.0786,-44.5001 50.0786,-48 60.0785,-51.5001 60.0786,-44.5001"/>
</g>
<!-- Node4 -->
<g id="node4" class="node"><title>Node4</title>
<g id="a_node4"><a xlink:href="group__tools__repeat.html#ga1bdfb742c5c03621128336c662faee75" target="_top" xlink:title="Distribute copies of 2d or 3d shapes about Cartesian grid. ">
<polygon fill="white" stroke="black" points="88,-0.5 88,-19.5 153,-19.5 153,-0.5 88,-0.5"/>
<text text-anchor="middle" x="120.5" y="-7.5" font-family="Helvetica,sans-Serif" font-size="10.00">grid_repeat</text>
</a>
</g>
</g>
<!-- Node1&#45;&gt;Node4 -->
<g id="edge3" class="edge"><title>Node1&#45;&gt;Node4</title>
<path fill="none" stroke="midnightblue" d="M58.9992,-34.5886C71.1812,-29.6376 84.7305,-24.1309 95.9136,-19.5859"/>
<polygon fill="midnightblue" stroke="midnightblue" points="57.5403,-31.4034 49.594,-38.411 60.1759,-37.8883 57.5403,-31.4034"/>
</g>
</g>
</svg>
