<?xml version="1.0" encoding="UTF-8" standalone="no"?>
<!DOCTYPE svg PUBLIC "-//W3C//DTD SVG 1.1//EN"
 "http://www.w3.org/Graphics/SVG/1.1/DTD/svg11.dtd">
<!-- Generated by graphviz version 2.38.0 (20140413.2041)
 -->
<!-- Title: triangle_sa Pages: 1 -->
<svg width="322pt" height="218pt"
 viewBox="0.00 0.00 322.00 218.00" xmlns="http://www.w3.org/2000/svg" xmlns:xlink="http://www.w3.org/1999/xlink">
<g id="graph0" class="graph" transform="scale(1 1) rotate(0) translate(4 214)">
<title>triangle_sa</title>
<polygon fill="white" stroke="none" points="-4,4 -4,-214 318,-214 318,4 -4,4"/>
<!-- Node1 -->
<g id="node1" class="node"><title>Node1</title>
<polygon fill="#bfbfbf" stroke="black" points="0,-152.5 0,-171.5 64,-171.5 64,-152.5 0,-152.5"/>
<text text-anchor="middle" x="32" y="-159.5" font-family="Helvetica,sans-Serif" font-size="10.00">triangle_sa</text>
</g>
<!-- Node2 -->
<g id="node2" class="node"><title>Node2</title>
<g id="a_node2"><a xlink:href="group__datatypes__operate__scalar.html#gac119300e8c83de0037f2d0a4d9f0ab5c" target="_top" xlink:title="Return a value when it is defined or a default value when it is not. ">
<polygon fill="white" stroke="black" points="228.5,-190.5 228.5,-209.5 290.5,-209.5 290.5,-190.5 228.5,-190.5"/>
<text text-anchor="middle" x="259.5" y="-197.5" font-family="Helvetica,sans-Serif" font-size="10.00">defined_or</text>
</a>
</g>
</g>
<!-- Node1&#45;&gt;Node2 -->
<g id="edge1" class="edge"><title>Node1&#45;&gt;Node2</title>
<path fill="none" stroke="midnightblue" d="M62.7721,-171.527C74.3017,-174.93 87.671,-178.529 100,-181 139.795,-188.976 185.928,-194.045 218.126,-196.922"/>
<polygon fill="midnightblue" stroke="midnightblue" points="218.218,-200.442 228.481,-197.814 218.819,-193.468 218.218,-200.442"/>
</g>
<!-- Node3 -->
<g id="node3" class="node"><title>Node3</title>
<g id="a_node3"><a xlink:href="group__datatypes__identify__scalar.html#ga51d7fdb800c10f4b7479d23b89ab8d22" target="_top" xlink:title="Test if a value is defined. ">
<polygon fill="white" stroke="black" points="104,-152.5 104,-171.5 165,-171.5 165,-152.5 104,-152.5"/>
<text text-anchor="middle" x="134.5" y="-159.5" font-family="Helvetica,sans-Serif" font-size="10.00">is_defined</text>
</a>
</g>
</g>
<!-- Node1&#45;&gt;Node3 -->
<g id="edge2" class="edge"><title>Node1&#45;&gt;Node3</title>
<path fill="none" stroke="midnightblue" d="M64.2479,-162C73.6564,-162 84.1071,-162 93.9784,-162"/>
<polygon fill="midnightblue" stroke="midnightblue" points="93.9877,-165.5 103.988,-162 93.9876,-158.5 93.9877,-165.5"/>
</g>
<!-- Node4 -->
<g id="node4" class="node"><title>Node4</title>
<g id="a_node4"><a xlink:href="group__shapes__2d.html#ga33d2a7677306c346ad6be5a488885d86" target="_top" xlink:title="A general triangle specified by three vertices. ">
<polygon fill="white" stroke="black" points="100,-114.5 100,-133.5 169,-133.5 169,-114.5 100,-114.5"/>
<text text-anchor="middle" x="134.5" y="-121.5" font-family="Helvetica,sans-Serif" font-size="10.00">triangle_ppp</text>
</a>
</g>
</g>
<!-- Node1&#45;&gt;Node4 -->
<g id="edge3" class="edge"><title>Node1&#45;&gt;Node4</title>
<path fill="none" stroke="midnightblue" d="M58.3604,-152.411C70.5008,-147.821 85.2344,-142.25 98.4276,-137.261"/>
<polygon fill="midnightblue" stroke="midnightblue" points="100.032,-140.397 108.148,-133.586 97.5561,-133.849 100.032,-140.397"/>
</g>
<!-- Node4&#45;&gt;Node2 -->
<g id="edge4" class="edge"><title>Node4&#45;&gt;Node2</title>
<path fill="none" stroke="midnightblue" d="M154.557,-133.517C159.45,-136.302 164.577,-139.538 169,-143 187.319,-157.34 185.5,-168.312 205,-181 209.33,-183.817 214.129,-186.277 219.023,-188.408"/>
<polygon fill="midnightblue" stroke="midnightblue" points="217.869,-191.715 228.456,-192.108 220.425,-185.198 217.869,-191.715"/>
</g>
<!-- Node5 -->
<g id="node5" class="node"><title>Node5</title>
<g id="a_node5"><a xlink:href="group__math__triangle.html#ga6eb5bfb1ae077d0db22e41c142233be0" target="_top" xlink:title="Compute the coordinate for the triangle&#39;s incircle. ">
<polygon fill="white" stroke="black" points="205,-152.5 205,-171.5 314,-171.5 314,-152.5 205,-152.5"/>
<text text-anchor="middle" x="259.5" y="-159.5" font-family="Helvetica,sans-Serif" font-size="10.00">triangle_incenter_ppp</text>
</a>
</g>
</g>
<!-- Node4&#45;&gt;Node5 -->
<g id="edge5" class="edge"><title>Node4&#45;&gt;Node5</title>
<path fill="none" stroke="midnightblue" d="M166.538,-133.589C181.979,-138.359 200.848,-144.189 217.466,-149.323"/>
<polygon fill="midnightblue" stroke="midnightblue" points="216.884,-152.806 227.472,-152.414 218.951,-146.118 216.884,-152.806"/>
</g>
<!-- Node6 -->
<g id="node6" class="node"><title>Node6</title>
<g id="a_node6"><a xlink:href="group__math__triangle.html#ga7c94003074f622d6421a665207cafbd7" target="_top" xlink:title="Compute the centroid (geometric center) of a triangle. ">
<polygon fill="white" stroke="black" points="205,-114.5 205,-133.5 314,-133.5 314,-114.5 205,-114.5"/>
<text text-anchor="middle" x="259.5" y="-121.5" font-family="Helvetica,sans-Serif" font-size="10.00">triangle_centroid_ppp</text>
</a>
</g>
</g>
<!-- Node4&#45;&gt;Node6 -->
<g id="edge6" class="edge"><title>Node4&#45;&gt;Node6</title>
<path fill="none" stroke="midnightblue" d="M169.11,-124C176.983,-124 185.63,-124 194.348,-124"/>
<polygon fill="midnightblue" stroke="midnightblue" points="194.573,-127.5 204.573,-124 194.573,-120.5 194.573,-127.5"/>
</g>
<!-- Node7 -->
<g id="node7" class="node"><title>Node7</title>
<g id="a_node7"><a xlink:href="group__datatypes__identify__iterable.html#ga6dc7861bf5a7777bfb33876493107d75" target="_top" xlink:title="Test if any element of a list of values is undefined. ">
<polygon fill="white" stroke="black" points="219.5,-76.5 219.5,-95.5 299.5,-95.5 299.5,-76.5 219.5,-76.5"/>
<text text-anchor="middle" x="259.5" y="-83.5" font-family="Helvetica,sans-Serif" font-size="10.00">any_undefined</text>
</a>
</g>
</g>
<!-- Node4&#45;&gt;Node7 -->
<g id="edge7" class="edge"><title>Node4&#45;&gt;Node7</title>
<path fill="none" stroke="midnightblue" d="M166.538,-114.411C181.979,-109.641 200.848,-103.811 217.466,-98.6771"/>
<polygon fill="midnightblue" stroke="midnightblue" points="218.951,-101.882 227.472,-95.5859 216.884,-95.1937 218.951,-101.882"/>
</g>
<!-- Node8 -->
<g id="node8" class="node"><title>Node8</title>
<g id="a_node8"><a xlink:href="group__math__vector__algebra.html#ga3a0c4c75047b8003ab09286a77a58c86" target="_top" xlink:title="Compute the angle between two lines (or vectors) in a Euclidean 3d or 2d&#45;space. ">
<polygon fill="white" stroke="black" points="234.5,-38.5 234.5,-57.5 284.5,-57.5 284.5,-38.5 234.5,-38.5"/>
<text text-anchor="middle" x="259.5" y="-45.5" font-family="Helvetica,sans-Serif" font-size="10.00">angle_ll</text>
</a>
</g>
</g>
<!-- Node4&#45;&gt;Node8 -->
<g id="edge8" class="edge"><title>Node4&#45;&gt;Node8</title>
<path fill="none" stroke="midnightblue" d="M145.047,-114.312C157.746,-101.886 181.357,-80.3518 205,-67 211.112,-63.5482 217.964,-60.5465 224.672,-58.0116"/>
<polygon fill="midnightblue" stroke="midnightblue" points="226.016,-61.2491 234.292,-54.6336 223.697,-54.6444 226.016,-61.2491"/>
</g>
<!-- Node9 -->
<g id="node9" class="node"><title>Node9</title>
<g id="a_node9"><a xlink:href="group__math__vector__algebra.html#gaa71caf02a1433e6c84d61d13d12aa581" target="_top" xlink:title="Compute the normalized unit vector of a Euclidean line (or vector). ">
<polygon fill="white" stroke="black" points="239.5,-0.5 239.5,-19.5 279.5,-19.5 279.5,-0.5 239.5,-0.5"/>
<text text-anchor="middle" x="259.5" y="-7.5" font-family="Helvetica,sans-Serif" font-size="10.00">unit_l</text>
</a>
</g>
</g>
<!-- Node4&#45;&gt;Node9 -->
<g id="edge9" class="edge"><title>Node4&#45;&gt;Node9</title>
<path fill="none" stroke="midnightblue" d="M140.014,-114.444C149.445,-95.4649 173.042,-52.8047 205,-29 212.272,-23.583 221.227,-19.6057 229.716,-16.7328"/>
<polygon fill="midnightblue" stroke="midnightblue" points="230.765,-20.0722 239.338,-13.8475 228.754,-13.3672 230.765,-20.0722"/>
</g>
</g>
</svg>
