<?xml version="1.0" encoding="UTF-8" standalone="no"?>
<!DOCTYPE svg PUBLIC "-//W3C//DTD SVG 1.1//EN"
 "http://www.w3.org/Graphics/SVG/1.1/DTD/svg11.dtd">
<!-- Generated by graphviz version 2.38.0 (20140413.2041)
 -->
<!-- Title: edefined_or Pages: 1 -->
<svg width="535pt" height="598pt"
 viewBox="0.00 0.00 535.00 598.00" xmlns="http://www.w3.org/2000/svg" xmlns:xlink="http://www.w3.org/1999/xlink">
<g id="graph0" class="graph" transform="scale(1 1) rotate(0) translate(4 594)">
<title>edefined_or</title>
<polygon fill="white" stroke="none" points="-4,4 -4,-594 531,-594 531,4 -4,4"/>
<!-- Node1 -->
<g id="node1" class="node"><title>Node1</title>
<polygon fill="#bfbfbf" stroke="black" points="0,-247.5 0,-266.5 67,-266.5 67,-247.5 0,-247.5"/>
<text text-anchor="middle" x="33.5" y="-254.5" font-family="Helvetica,sans-Serif" font-size="10.00">edefined_or</text>
</g>
<!-- Node2 -->
<g id="node2" class="node"><title>Node2</title>
<g id="a_node2"><a xlink:href="group__shapes__2d.html#ga9f679c29426c44ee83b4a13b5dd47138" target="_top" xlink:title="A rectangle with edge, fillet, and/or chamfer corners. ">
<polygon fill="white" stroke="black" points="122.5,-532.5 122.5,-551.5 178.5,-551.5 178.5,-532.5 122.5,-532.5"/>
<text text-anchor="middle" x="150.5" y="-539.5" font-family="Helvetica,sans-Serif" font-size="10.00">rectangle</text>
</a>
</g>
</g>
<!-- Node1&#45;&gt;Node2 -->
<g id="edge1" class="edge"><title>Node1&#45;&gt;Node2</title>
<path fill="none" stroke="midnightblue" d="M39.2937,-276.616C48.8615,-314.325 72.0921,-399.119 103,-466 114.55,-490.994 132.519,-517.973 142.397,-532.094"/>
<polygon fill="midnightblue" stroke="midnightblue" points="42.6832,-275.742 36.8655,-266.888 35.8915,-277.438 42.6832,-275.742"/>
</g>
<!-- Node3 -->
<g id="node3" class="node"><title>Node3</title>
<g id="a_node3"><a xlink:href="group__shapes__2d.html#ga803b8196745be0e3a338def3c58e3b2b" target="_top" xlink:title="A rectangle with a removed rectangular core. ">
<polygon fill="white" stroke="black" points="239,-570.5 239,-589.5 306,-589.5 306,-570.5 239,-570.5"/>
<text text-anchor="middle" x="272.5" y="-577.5" font-family="Helvetica,sans-Serif" font-size="10.00">rectangle_c</text>
</a>
</g>
</g>
<!-- Node1&#45;&gt;Node3 -->
<g id="edge6" class="edge"><title>Node1&#45;&gt;Node3</title>
<path fill="none" stroke="midnightblue" d="M36.0325,-276.779C41.203,-338.001 60.1359,-522.584 103,-561 139.94,-594.107 201.251,-591.863 238.848,-586.461"/>
<polygon fill="midnightblue" stroke="midnightblue" points="39.4999,-276.235 35.2016,-266.551 32.5229,-276.802 39.4999,-276.235"/>
</g>
<!-- Node7 -->
<g id="node7" class="node"><title>Node7</title>
<g id="a_node7"><a xlink:href="group__shapes__2d.html#ga89c8cb6f39cf9b045091f8b0434b25d0" target="_top" xlink:title="A rhombus. ">
<polygon fill="white" stroke="black" points="123.5,-266.5 123.5,-285.5 177.5,-285.5 177.5,-266.5 123.5,-266.5"/>
<text text-anchor="middle" x="150.5" y="-273.5" font-family="Helvetica,sans-Serif" font-size="10.00">rhombus</text>
</a>
</g>
</g>
<!-- Node1&#45;&gt;Node7 -->
<g id="edge7" class="edge"><title>Node1&#45;&gt;Node7</title>
<path fill="none" stroke="midnightblue" d="M77.0689,-264.033C92.5888,-266.597 109.668,-269.419 123.342,-271.678"/>
<polygon fill="midnightblue" stroke="midnightblue" points="77.5836,-260.571 67.1468,-262.394 76.4425,-267.477 77.5836,-260.571"/>
</g>
<!-- Node9 -->
<g id="node9" class="node"><title>Node9</title>
<g id="a_node9"><a xlink:href="group__shapes__2d.html#ga7eefb280ad124a8d35eb4218e5f0bdad" target="_top" xlink:title="A general triangle specified by its sides with a removed triangular core. ">
<polygon fill="white" stroke="black" points="115,-380.5 115,-399.5 186,-399.5 186,-380.5 115,-380.5"/>
<text text-anchor="middle" x="150.5" y="-387.5" font-family="Helvetica,sans-Serif" font-size="10.00">triangle_ls_c</text>
</a>
</g>
</g>
<!-- Node1&#45;&gt;Node9 -->
<g id="edge9" class="edge"><title>Node1&#45;&gt;Node9</title>
<path fill="none" stroke="midnightblue" d="M42.552,-275.908C53.3835,-299.504 74.6135,-339.919 103,-366 109.288,-371.778 117.228,-376.548 124.759,-380.272"/>
<polygon fill="midnightblue" stroke="midnightblue" points="45.6935,-274.359 38.437,-266.639 39.2956,-277.199 45.6935,-274.359"/>
</g>
<!-- Node12 -->
<g id="node12" class="node"><title>Node12</title>
<g id="a_node12"><a xlink:href="group__shapes__2d.html#ga7d62c56f88b839dc7e879ff16f968ea2" target="_top" xlink:title="An ellipse. ">
<polygon fill="white" stroke="black" points="128.5,-304.5 128.5,-323.5 172.5,-323.5 172.5,-304.5 128.5,-304.5"/>
<text text-anchor="middle" x="150.5" y="-311.5" font-family="Helvetica,sans-Serif" font-size="10.00">ellipse</text>
</a>
</g>
</g>
<!-- Node1&#45;&gt;Node12 -->
<g id="edge12" class="edge"><title>Node1&#45;&gt;Node12</title>
<path fill="none" stroke="midnightblue" d="M59.273,-271.675C72.127,-279.049 88.1989,-287.902 103,-295 111.178,-298.922 120.385,-302.793 128.437,-306.007"/>
<polygon fill="midnightblue" stroke="midnightblue" points="60.9525,-268.603 50.5463,-266.613 57.4401,-274.658 60.9525,-268.603"/>
</g>
<!-- Node15 -->
<g id="node15" class="node"><title>Node15</title>
<g id="a_node15"><a xlink:href="group__shapes__2d.html#ga8925cd75276266667fbc1f0896482a7a" target="_top" xlink:title="An ellipse sector. ">
<polygon fill="white" stroke="black" points="245,-342.5 245,-361.5 300,-361.5 300,-342.5 245,-342.5"/>
<text text-anchor="middle" x="272.5" y="-349.5" font-family="Helvetica,sans-Serif" font-size="10.00">ellipse_s</text>
</a>
</g>
</g>
<!-- Node1&#45;&gt;Node15 -->
<g id="edge24" class="edge"><title>Node1&#45;&gt;Node15</title>
<path fill="none" stroke="midnightblue" d="M45.3022,-275.248C57.0429,-293.256 77.5734,-319.931 103,-333 148.558,-356.416 210.029,-356.778 244.734,-354.608"/>
<polygon fill="midnightblue" stroke="midnightblue" points="48.2523,-273.364 39.9844,-266.739 42.3162,-277.074 48.2523,-273.364"/>
</g>
<!-- Node23 -->
<g id="node23" class="node"><title>Node23</title>
<g id="a_node23"><a xlink:href="group__shapes__2d.html#ga7452bf5414a3677ec806a31aed6b61dd" target="_top" xlink:title="A two&#45;dimensional star. ">
<polygon fill="white" stroke="black" points="128.5,-228.5 128.5,-247.5 172.5,-247.5 172.5,-228.5 128.5,-228.5"/>
<text text-anchor="middle" x="150.5" y="-235.5" font-family="Helvetica,sans-Serif" font-size="10.00">star2d</text>
</a>
</g>
</g>
<!-- Node1&#45;&gt;Node23 -->
<g id="edge25" class="edge"><title>Node1&#45;&gt;Node23</title>
<path fill="none" stroke="midnightblue" d="M77.155,-249.953C94.6293,-247.066 114.067,-243.854 128.39,-241.488"/>
<polygon fill="midnightblue" stroke="midnightblue" points="76.4425,-246.523 67.1468,-251.606 77.5836,-253.429 76.4425,-246.523"/>
</g>
<!-- Node25 -->
<g id="node25" class="node"><title>Node25</title>
<g id="a_node25"><a xlink:href="group__shapes__3d.html#gaf1d71183e9f3fb9a5e48b8c9a67085d6" target="_top" xlink:title="A cuboid with edge, fillet, or chamfer corners. ">
<polygon fill="white" stroke="black" points="128,-190.5 128,-209.5 173,-209.5 173,-190.5 128,-190.5"/>
<text text-anchor="middle" x="150.5" y="-197.5" font-family="Helvetica,sans-Serif" font-size="10.00">cuboid</text>
</a>
</g>
</g>
<!-- Node1&#45;&gt;Node25 -->
<g id="edge27" class="edge"><title>Node1&#45;&gt;Node25</title>
<path fill="none" stroke="midnightblue" d="M59.273,-242.325C72.127,-234.951 88.1989,-226.098 103,-219 111.021,-215.153 120.032,-211.356 127.971,-208.179"/>
<polygon fill="midnightblue" stroke="midnightblue" points="57.4401,-239.342 50.5463,-247.387 60.9525,-245.397 57.4401,-239.342"/>
</g>
<!-- Node26 -->
<g id="node26" class="node"><title>Node26</title>
<g id="a_node26"><a xlink:href="group__shapes__3d.html#gae55c3490ba068ba5713b3de4302315de" target="_top" xlink:title="An ellipsoid. ">
<polygon fill="white" stroke="black" points="124.5,-114.5 124.5,-133.5 176.5,-133.5 176.5,-114.5 124.5,-114.5"/>
<text text-anchor="middle" x="150.5" y="-121.5" font-family="Helvetica,sans-Serif" font-size="10.00">ellipsoid</text>
</a>
</g>
</g>
<!-- Node1&#45;&gt;Node26 -->
<g id="edge28" class="edge"><title>Node1&#45;&gt;Node26</title>
<path fill="none" stroke="midnightblue" d="M42.552,-238.092C53.3835,-214.496 74.6135,-174.081 103,-148 109.288,-142.222 117.228,-137.452 124.759,-133.728"/>
<polygon fill="midnightblue" stroke="midnightblue" points="39.2956,-236.801 38.437,-247.361 45.6935,-239.641 39.2956,-236.801"/>
</g>
<!-- Node27 -->
<g id="node27" class="node"><title>Node27</title>
<g id="a_node27"><a xlink:href="group__shapes__3d.html#ga842bd62179b57e3d01ea32b64614f543" target="_top" xlink:title="A sector of an ellipsoid. ">
<polygon fill="white" stroke="black" points="241.5,-114.5 241.5,-133.5 303.5,-133.5 303.5,-114.5 241.5,-114.5"/>
<text text-anchor="middle" x="272.5" y="-121.5" font-family="Helvetica,sans-Serif" font-size="10.00">ellipsoid_s</text>
</a>
</g>
</g>
<!-- Node1&#45;&gt;Node27 -->
<g id="edge30" class="edge"><title>Node1&#45;&gt;Node27</title>
<path fill="none" stroke="midnightblue" d="M46.6717,-238.823C59.0108,-221.687 79.5833,-196.4 103,-181 126.093,-165.813 199.273,-143.996 241.206,-132.246"/>
<polygon fill="midnightblue" stroke="midnightblue" points="43.5466,-237.186 40.6979,-247.39 49.2885,-241.19 43.5466,-237.186"/>
</g>
<!-- Node28 -->
<g id="node28" class="node"><title>Node28</title>
<g id="a_node28"><a xlink:href="group__shapes__3d.html#gaaf63049f5c83cbb3b1f349b0a7a350e9" target="_top" xlink:title="A pyramid with quadrilateral base. ">
<polygon fill="white" stroke="black" points="119.5,-38.5 119.5,-57.5 181.5,-57.5 181.5,-38.5 119.5,-38.5"/>
<text text-anchor="middle" x="150.5" y="-45.5" font-family="Helvetica,sans-Serif" font-size="10.00">pyramid_q</text>
</a>
</g>
</g>
<!-- Node1&#45;&gt;Node28 -->
<g id="edge31" class="edge"><title>Node1&#45;&gt;Node28</title>
<path fill="none" stroke="midnightblue" d="M37.0207,-237.398C42.6566,-200.787 59.391,-121.275 103,-72 108.298,-66.0133 115.449,-61.3065 122.552,-57.7071"/>
<polygon fill="midnightblue" stroke="midnightblue" points="33.5553,-236.908 35.6105,-247.302 40.4854,-237.895 33.5553,-236.908"/>
</g>
<!-- Node29 -->
<g id="node29" class="node"><title>Node29</title>
<g id="a_node29"><a xlink:href="group__shapes__3d.html#gab99dacd3036b965579d68b1d3b7ee2d8" target="_top" xlink:title="A three&#45;dimensional star. ">
<polygon fill="white" stroke="black" points="250.5,-57.5 250.5,-76.5 294.5,-76.5 294.5,-57.5 250.5,-57.5"/>
<text text-anchor="middle" x="272.5" y="-64.5" font-family="Helvetica,sans-Serif" font-size="10.00">star3d</text>
</a>
</g>
</g>
<!-- Node1&#45;&gt;Node29 -->
<g id="edge33" class="edge"><title>Node1&#45;&gt;Node29</title>
<path fill="none" stroke="midnightblue" d="M37.6124,-237.263C43.8542,-204.526 61.0792,-139.22 103,-105 146.21,-69.728 215.58,-65.6507 250.287,-66.0581"/>
<polygon fill="midnightblue" stroke="midnightblue" points="34.1182,-236.925 35.8401,-247.379 41.0132,-238.133 34.1182,-236.925"/>
</g>
<!-- Node30 -->
<g id="node30" class="node"><title>Node30</title>
<g id="a_node30"><a xlink:href="group__tools__extrude.html#gaf0e13f98be7287f0157f2026db5e52d3" target="_top" xlink:title="Translate, rotate, and revolve the 2d shape about the z&#45;axis with linear elongation. ">
<polygon fill="white" stroke="black" points="103,-437.5 103,-456.5 198,-456.5 198,-437.5 103,-437.5"/>
<text text-anchor="middle" x="150.5" y="-444.5" font-family="Helvetica,sans-Serif" font-size="10.00">rotate_extrude_tre</text>
</a>
</g>
</g>
<!-- Node1&#45;&gt;Node30 -->
<g id="edge34" class="edge"><title>Node1&#45;&gt;Node30</title>
<path fill="none" stroke="midnightblue" d="M40.0948,-276.545C49.4974,-307.056 70.6707,-366.87 103,-409 111.759,-420.414 124.587,-430.565 134.552,-437.497"/>
<polygon fill="midnightblue" stroke="midnightblue" points="43.3758,-275.3 37.1643,-266.717 36.6676,-277.3 43.3758,-275.3"/>
</g>
<!-- Node31 -->
<g id="node31" class="node"><title>Node31</title>
<g id="a_node31"><a xlink:href="group__tools__repeat.html#ga1bdfb742c5c03621128336c662faee75" target="_top" xlink:title="Distribute copies of 2d or 3d shapes about Cartesian grid. ">
<polygon fill="white" stroke="black" points="118,-0.5 118,-19.5 183,-19.5 183,-0.5 118,-0.5"/>
<text text-anchor="middle" x="150.5" y="-7.5" font-family="Helvetica,sans-Serif" font-size="10.00">grid_repeat</text>
</a>
</g>
</g>
<!-- Node1&#45;&gt;Node31 -->
<g id="edge38" class="edge"><title>Node1&#45;&gt;Node31</title>
<path fill="none" stroke="midnightblue" d="M34.9449,-237.309C36.9607,-194.093 47.6445,-89.9445 103,-29 106.987,-24.6103 112.137,-21.212 117.551,-18.5883"/>
<polygon fill="midnightblue" stroke="midnightblue" points="31.4451,-237.242 34.5864,-247.36 38.4407,-237.491 31.4451,-237.242"/>
</g>
<!-- Node2&#45;&gt;Node3 -->
<g id="edge2" class="edge"><title>Node2&#45;&gt;Node3</title>
<path fill="none" stroke="midnightblue" d="M188.361,-553.673C205.382,-559.063 225.336,-565.382 241.429,-570.478"/>
<polygon fill="midnightblue" stroke="midnightblue" points="189.32,-550.305 178.73,-550.623 187.207,-556.978 189.32,-550.305"/>
</g>
<!-- Node6 -->
<g id="node6" class="node"><title>Node6</title>
<g id="a_node6"><a xlink:href="group__shapes__2de.html#ga5fd9b6fca4860ae7c54cbeb9024e74f0" target="_top" xlink:title="An extruded rectangle with edge, fillet, and/or chamfer corners. ">
<polygon fill="white" stroke="black" points="241.5,-532.5 241.5,-551.5 303.5,-551.5 303.5,-532.5 241.5,-532.5"/>
<text text-anchor="middle" x="272.5" y="-539.5" font-family="Helvetica,sans-Serif" font-size="10.00">erectangle</text>
</a>
</g>
</g>
<!-- Node2&#45;&gt;Node6 -->
<g id="edge5" class="edge"><title>Node2&#45;&gt;Node6</title>
<path fill="none" stroke="midnightblue" d="M188.839,-542C205.755,-542 225.487,-542 241.429,-542"/>
<polygon fill="midnightblue" stroke="midnightblue" points="188.73,-538.5 178.73,-542 188.73,-545.5 188.73,-538.5"/>
</g>
<!-- Node4 -->
<g id="node4" class="node"><title>Node4</title>
<g id="a_node4"><a xlink:href="group__shapes__2de.html#gaa24ca5f53d00f33d356f40f740a1d7f7" target="_top" xlink:title="An extruded rectangle with a removed rectangular core. ">
<polygon fill="white" stroke="black" points="349.5,-570.5 349.5,-589.5 421.5,-589.5 421.5,-570.5 349.5,-570.5"/>
<text text-anchor="middle" x="385.5" y="-577.5" font-family="Helvetica,sans-Serif" font-size="10.00">erectangle_c</text>
</a>
</g>
</g>
<!-- Node3&#45;&gt;Node4 -->
<g id="edge3" class="edge"><title>Node3&#45;&gt;Node4</title>
<path fill="none" stroke="midnightblue" d="M316.381,-580C327.277,-580 338.859,-580 349.322,-580"/>
<polygon fill="midnightblue" stroke="midnightblue" points="316.203,-576.5 306.203,-580 316.203,-583.5 316.203,-576.5"/>
</g>
<!-- Node5 -->
<g id="node5" class="node"><title>Node5</title>
<g id="a_node5"><a xlink:href="group__shapes__3d.html#gac521ba184d6ac7693df4db67df2499b8" target="_top" xlink:title="A rectangular cross&#45;sectional profile revolved about the z&#45;axis. ">
<polygon fill="white" stroke="black" points="359.5,-513.5 359.5,-532.5 411.5,-532.5 411.5,-513.5 359.5,-513.5"/>
<text text-anchor="middle" x="385.5" y="-520.5" font-family="Helvetica,sans-Serif" font-size="10.00">torus_rp</text>
</a>
</g>
</g>
<!-- Node3&#45;&gt;Node5 -->
<g id="edge4" class="edge"><title>Node3&#45;&gt;Node5</title>
<path fill="none" stroke="midnightblue" d="M301.77,-565.708C304.886,-564.123 308.011,-562.53 311,-561 329.797,-551.379 351.242,-540.277 366.096,-532.568"/>
<polygon fill="midnightblue" stroke="midnightblue" points="299.927,-562.718 292.593,-570.364 303.094,-568.961 299.927,-562.718"/>
</g>
<!-- Node8 -->
<g id="node8" class="node"><title>Node8</title>
<g id="a_node8"><a xlink:href="group__shapes__2de.html#gadc20c762def9f625af7141e22229ff55" target="_top" xlink:title="An extruded rhombus. ">
<polygon fill="white" stroke="black" points="243,-190.5 243,-209.5 302,-209.5 302,-190.5 243,-190.5"/>
<text text-anchor="middle" x="272.5" y="-197.5" font-family="Helvetica,sans-Serif" font-size="10.00">erhombus</text>
</a>
</g>
</g>
<!-- Node7&#45;&gt;Node8 -->
<g id="edge8" class="edge"><title>Node7&#45;&gt;Node8</title>
<path fill="none" stroke="midnightblue" d="M186.776,-263.481C190.692,-261.543 194.519,-259.383 198,-257 217.199,-243.861 215.349,-232.906 234,-219 238.681,-215.51 244.098,-212.346 249.335,-209.644"/>
<polygon fill="midnightblue" stroke="midnightblue" points="185.289,-260.312 177.595,-267.596 188.152,-266.7 185.289,-260.312"/>
</g>
<!-- Node10 -->
<g id="node10" class="node"><title>Node10</title>
<g id="a_node10"><a xlink:href="group__shapes__2de.html#ga0c99582ccf3d5b1425c99001b228c202" target="_top" xlink:title="A general triangle specified by its sides with a removed triangular core. ">
<polygon fill="white" stroke="black" points="234,-380.5 234,-399.5 311,-399.5 311,-380.5 234,-380.5"/>
<text text-anchor="middle" x="272.5" y="-387.5" font-family="Helvetica,sans-Serif" font-size="10.00">etriangle_ls_c</text>
</a>
</g>
</g>
<!-- Node9&#45;&gt;Node10 -->
<g id="edge10" class="edge"><title>Node9&#45;&gt;Node10</title>
<path fill="none" stroke="midnightblue" d="M196.339,-390C208.716,-390 222.014,-390 233.932,-390"/>
<polygon fill="midnightblue" stroke="midnightblue" points="196.209,-386.5 186.209,-390 196.209,-393.5 196.209,-386.5"/>
</g>
<!-- Node11 -->
<g id="node11" class="node"><title>Node11</title>
<g id="a_node11"><a xlink:href="group__shapes__3d.html#gaa3137155089f4d50c13ebea05402edd0" target="_top" xlink:title="A triangular cross&#45;sectional profile revolved about the z&#45;axis. ">
<polygon fill="white" stroke="black" points="246.5,-418.5 246.5,-437.5 298.5,-437.5 298.5,-418.5 246.5,-418.5"/>
<text text-anchor="middle" x="272.5" y="-425.5" font-family="Helvetica,sans-Serif" font-size="10.00">torus_tp</text>
</a>
</g>
</g>
<!-- Node9&#45;&gt;Node11 -->
<g id="edge11" class="edge"><title>Node9&#45;&gt;Node11</title>
<path fill="none" stroke="midnightblue" d="M191.536,-402.678C209.695,-408.428 230.607,-415.05 246.49,-420.08"/>
<polygon fill="midnightblue" stroke="midnightblue" points="192.371,-399.271 181.781,-399.589 190.258,-405.945 192.371,-399.271"/>
</g>
<!-- Node13 -->
<g id="node13" class="node"><title>Node13</title>
<g id="a_node13"><a xlink:href="group__shapes__2d.html#ga9f2b6ba2562760853dd998b0086736a3" target="_top" xlink:title="An ellipse with a removed elliptical core. ">
<polygon fill="white" stroke="black" points="245,-228.5 245,-247.5 300,-247.5 300,-228.5 245,-228.5"/>
<text text-anchor="middle" x="272.5" y="-235.5" font-family="Helvetica,sans-Serif" font-size="10.00">ellipse_c</text>
</a>
</g>
</g>
<!-- Node12&#45;&gt;Node13 -->
<g id="edge13" class="edge"><title>Node12&#45;&gt;Node13</title>
<path fill="none" stroke="midnightblue" d="M182.226,-303.257C187.652,-300.858 193.12,-298.093 198,-295 216.333,-283.38 216.795,-275.233 234,-262 240.617,-256.911 248.325,-251.844 255.026,-247.687"/>
<polygon fill="midnightblue" stroke="midnightblue" points="180.577,-300.15 172.643,-307.172 183.224,-306.63 180.577,-300.15"/>
</g>
<!-- Node12&#45;&gt;Node15 -->
<g id="edge15" class="edge"><title>Node12&#45;&gt;Node15</title>
<path fill="none" stroke="midnightblue" d="M182.215,-323.727C201.504,-329.835 226.142,-337.637 244.648,-343.497"/>
<polygon fill="midnightblue" stroke="midnightblue" points="183.267,-320.388 172.677,-320.706 181.154,-327.062 183.267,-320.388"/>
</g>
<!-- Node16 -->
<g id="node16" class="node"><title>Node16</title>
<g id="a_node16"><a xlink:href="group__shapes__2d.html#ga3e186b32450bffe183da7422f0b19f95" target="_top" xlink:title="A sector of an ellipse with a removed elliptical core. ">
<polygon fill="white" stroke="black" points="355.5,-285.5 355.5,-304.5 415.5,-304.5 415.5,-285.5 355.5,-285.5"/>
<text text-anchor="middle" x="385.5" y="-292.5" font-family="Helvetica,sans-Serif" font-size="10.00">ellipse_cs</text>
</a>
</g>
</g>
<!-- Node12&#45;&gt;Node16 -->
<g id="edge22" class="edge"><title>Node12&#45;&gt;Node16</title>
<path fill="none" stroke="midnightblue" d="M182.625,-305.078C197.953,-301.135 216.795,-296.956 234,-295 275.928,-290.234 324.851,-291.482 355.257,-293.052"/>
<polygon fill="midnightblue" stroke="midnightblue" points="181.399,-301.782 172.637,-307.739 183.201,-308.546 181.399,-301.782"/>
</g>
<!-- Node22 -->
<g id="node22" class="node"><title>Node22</title>
<g id="a_node22"><a xlink:href="group__shapes__2de.html#ga8a0fdbbb045a70b7207fd84abeb7b18a" target="_top" xlink:title="An extruded ellipse. ">
<polygon fill="white" stroke="black" points="247.5,-304.5 247.5,-323.5 297.5,-323.5 297.5,-304.5 247.5,-304.5"/>
<text text-anchor="middle" x="272.5" y="-311.5" font-family="Helvetica,sans-Serif" font-size="10.00">eellipse</text>
</a>
</g>
</g>
<!-- Node12&#45;&gt;Node22 -->
<g id="edge23" class="edge"><title>Node12&#45;&gt;Node22</title>
<path fill="none" stroke="midnightblue" d="M182.9,-314C203.002,-314 228.695,-314 247.231,-314"/>
<polygon fill="midnightblue" stroke="midnightblue" points="182.677,-310.5 172.677,-314 182.677,-317.5 182.677,-310.5"/>
</g>
<!-- Node14 -->
<g id="node14" class="node"><title>Node14</title>
<g id="a_node14"><a xlink:href="group__shapes__2de.html#ga3189db3471cd678cc0f8d88f325186eb" target="_top" xlink:title="An extruded ellipse with a removed elliptical core. ">
<polygon fill="white" stroke="black" points="355.5,-228.5 355.5,-247.5 415.5,-247.5 415.5,-228.5 355.5,-228.5"/>
<text text-anchor="middle" x="385.5" y="-235.5" font-family="Helvetica,sans-Serif" font-size="10.00">eellipse_c</text>
</a>
</g>
</g>
<!-- Node13&#45;&gt;Node14 -->
<g id="edge14" class="edge"><title>Node13&#45;&gt;Node14</title>
<path fill="none" stroke="midnightblue" d="M310.343,-238C324.997,-238 341.616,-238 355.402,-238"/>
<polygon fill="midnightblue" stroke="midnightblue" points="310.087,-234.5 300.087,-238 310.087,-241.5 310.087,-234.5"/>
</g>
<!-- Node15&#45;&gt;Node16 -->
<g id="edge16" class="edge"><title>Node15&#45;&gt;Node16</title>
<path fill="none" stroke="midnightblue" d="M301.77,-337.708C304.886,-336.123 308.011,-334.53 311,-333 329.797,-323.379 351.242,-312.277 366.096,-304.568"/>
<polygon fill="midnightblue" stroke="midnightblue" points="299.927,-334.718 292.593,-342.364 303.094,-340.961 299.927,-334.718"/>
</g>
<!-- Node19 -->
<g id="node19" class="node"><title>Node19</title>
<g id="a_node19"><a xlink:href="group__shapes__2de.html#gaea89a352b138d105073d0a401b94c024" target="_top" xlink:title="An extruded ellipse sector. ">
<polygon fill="white" stroke="black" points="355.5,-380.5 355.5,-399.5 415.5,-399.5 415.5,-380.5 355.5,-380.5"/>
<text text-anchor="middle" x="385.5" y="-387.5" font-family="Helvetica,sans-Serif" font-size="10.00">eellipse_s</text>
</a>
</g>
</g>
<!-- Node15&#45;&gt;Node19 -->
<g id="edge19" class="edge"><title>Node15&#45;&gt;Node19</title>
<path fill="none" stroke="midnightblue" d="M309.717,-364.398C324.941,-369.611 342.377,-375.579 356.581,-380.442"/>
<polygon fill="midnightblue" stroke="midnightblue" points="310.682,-361.03 300.087,-361.102 308.415,-367.652 310.682,-361.03"/>
</g>
<!-- Node20 -->
<g id="node20" class="node"><title>Node20</title>
<g id="a_node20"><a xlink:href="group__tools__edge.html#ga59a75abff2be2d912fc1881eba650c97" target="_top" xlink:title="A 2d edge&#45;finish profile specified by intersection radius. ">
<polygon fill="white" stroke="black" points="347,-342.5 347,-361.5 424,-361.5 424,-342.5 347,-342.5"/>
<text text-anchor="middle" x="385.5" y="-349.5" font-family="Helvetica,sans-Serif" font-size="10.00">edge_profile_r</text>
</a>
</g>
</g>
<!-- Node15&#45;&gt;Node20 -->
<g id="edge20" class="edge"><title>Node15&#45;&gt;Node20</title>
<path fill="none" stroke="midnightblue" d="M310.408,-352C322.104,-352 335.045,-352 346.796,-352"/>
<polygon fill="midnightblue" stroke="midnightblue" points="310.087,-348.5 300.087,-352 310.087,-355.5 310.087,-348.5"/>
</g>
<!-- Node17 -->
<g id="node17" class="node"><title>Node17</title>
<g id="a_node17"><a xlink:href="group__shapes__2de.html#gae015f9c06a0ad064212475dcd1c1eb5c" target="_top" xlink:title="An extruded sector of an ellipse with a removed elliptical core. ">
<polygon fill="white" stroke="black" points="461,-275.5 461,-294.5 526,-294.5 526,-275.5 461,-275.5"/>
<text text-anchor="middle" x="493.5" y="-282.5" font-family="Helvetica,sans-Serif" font-size="10.00">eellipse_cs</text>
</a>
</g>
</g>
<!-- Node16&#45;&gt;Node17 -->
<g id="edge17" class="edge"><title>Node16&#45;&gt;Node17</title>
<path fill="none" stroke="midnightblue" d="M425.96,-291.277C437.433,-290.195 449.814,-289.027 460.748,-287.995"/>
<polygon fill="midnightblue" stroke="midnightblue" points="425.373,-287.817 415.746,-292.241 426.03,-294.786 425.373,-287.817"/>
</g>
<!-- Node18 -->
<g id="node18" class="node"><title>Node18</title>
<g id="a_node18"><a xlink:href="group__shapes__3d.html#gaf5589d4cfa40aefb7853b4eebc792312" target="_top" xlink:title="An elliptical cross&#45;sectional profile revolved about the z&#45;axis. ">
<polygon fill="white" stroke="black" points="466.5,-313.5 466.5,-332.5 520.5,-332.5 520.5,-313.5 466.5,-313.5"/>
<text text-anchor="middle" x="493.5" y="-320.5" font-family="Helvetica,sans-Serif" font-size="10.00">torus_ep</text>
</a>
</g>
</g>
<!-- Node16&#45;&gt;Node18 -->
<g id="edge18" class="edge"><title>Node16&#45;&gt;Node18</title>
<path fill="none" stroke="midnightblue" d="M425.756,-305.37C439.256,-308.936 454.035,-312.839 466.246,-316.065"/>
<polygon fill="midnightblue" stroke="midnightblue" points="426.308,-301.895 415.746,-302.725 424.52,-308.663 426.308,-301.895"/>
</g>
<!-- Node21 -->
<g id="node21" class="node"><title>Node21</title>
<g id="a_node21"><a xlink:href="group__tools__edge.html#ga44c40aee1894824493e1a6b5b36e610f" target="_top" xlink:title="A 3d edge&#45;finish additive shape specified by intersection radius. ">
<polygon fill="white" stroke="black" points="460,-351.5 460,-370.5 527,-370.5 527,-351.5 460,-351.5"/>
<text text-anchor="middle" x="493.5" y="-358.5" font-family="Helvetica,sans-Serif" font-size="10.00">edge_add_r</text>
</a>
</g>
</g>
<!-- Node20&#45;&gt;Node21 -->
<g id="edge21" class="edge"><title>Node20&#45;&gt;Node21</title>
<path fill="none" stroke="midnightblue" d="M434.212,-356.051C442.889,-356.788 451.756,-357.541 459.872,-358.23"/>
<polygon fill="midnightblue" stroke="midnightblue" points="434.43,-352.557 424.17,-355.198 433.838,-359.532 434.43,-352.557"/>
</g>
<!-- Node24 -->
<g id="node24" class="node"><title>Node24</title>
<g id="a_node24"><a xlink:href="group__shapes__2de.html#ga69ece32102ccb27e9985975fa4590251" target="_top" xlink:title="An extruded two&#45;dimensional star. ">
<polygon fill="white" stroke="black" points="248,-152.5 248,-171.5 297,-171.5 297,-152.5 248,-152.5"/>
<text text-anchor="middle" x="272.5" y="-159.5" font-family="Helvetica,sans-Serif" font-size="10.00">estar2d</text>
</a>
</g>
</g>
<!-- Node23&#45;&gt;Node24 -->
<g id="edge26" class="edge"><title>Node23&#45;&gt;Node24</title>
<path fill="none" stroke="midnightblue" d="M182.411,-227.537C187.818,-225.11 193.232,-222.263 198,-219 217.199,-205.861 215.349,-194.906 234,-181 238.681,-177.51 244.098,-174.346 249.335,-171.644"/>
<polygon fill="midnightblue" stroke="midnightblue" points="180.761,-224.43 172.828,-231.452 183.409,-230.91 180.761,-224.43"/>
</g>
<!-- Node26&#45;&gt;Node27 -->
<g id="edge29" class="edge"><title>Node26&#45;&gt;Node27</title>
<path fill="none" stroke="midnightblue" d="M186.921,-124C204.195,-124 224.755,-124 241.278,-124"/>
<polygon fill="midnightblue" stroke="midnightblue" points="186.656,-120.5 176.656,-124 186.656,-127.5 186.656,-120.5"/>
</g>
<!-- Node28&#45;&gt;Node29 -->
<g id="edge32" class="edge"><title>Node28&#45;&gt;Node29</title>
<path fill="none" stroke="midnightblue" d="M191.698,-54.3646C211.314,-57.4706 234.112,-61.0803 250.305,-63.6442"/>
<polygon fill="midnightblue" stroke="midnightblue" points="192.205,-50.9015 181.781,-52.7945 191.111,-57.8154 192.205,-50.9015"/>
</g>
<!-- Node30&#45;&gt;Node5 -->
<g id="edge35" class="edge"><title>Node30&#45;&gt;Node5</title>
<path fill="none" stroke="midnightblue" d="M183.152,-460.541C198.386,-466.832 216.997,-474.187 234,-480 277.584,-494.899 329.43,-508.919 359.492,-516.693"/>
<polygon fill="midnightblue" stroke="midnightblue" points="184.255,-457.209 173.678,-456.588 181.559,-463.67 184.255,-457.209"/>
</g>
<!-- Node30&#45;&gt;Node11 -->
<g id="edge36" class="edge"><title>Node30&#45;&gt;Node11</title>
<path fill="none" stroke="midnightblue" d="M208.311,-438.005C221.593,-435.902 235.084,-433.766 246.17,-432.011"/>
<polygon fill="midnightblue" stroke="midnightblue" points="207.568,-434.579 198.239,-439.6 208.663,-441.493 207.568,-434.579"/>
</g>
<!-- Node30&#45;&gt;Node18 -->
<g id="edge37" class="edge"><title>Node30&#45;&gt;Node18</title>
<path fill="none" stroke="midnightblue" d="M208.317,-455.357C268.853,-460.918 364.048,-459.607 424,-409 449.831,-387.195 436.531,-366.329 460,-342 463.449,-338.425 467.714,-335.298 472.007,-332.668"/>
<polygon fill="midnightblue" stroke="midnightblue" points="208.474,-451.855 198.172,-454.331 207.77,-458.82 208.474,-451.855"/>
</g>
</g>
</svg>
