<?xml version="1.0" encoding="UTF-8" standalone="no"?>
<!DOCTYPE svg PUBLIC "-//W3C//DTD SVG 1.1//EN"
 "http://www.w3.org/Graphics/SVG/1.1/DTD/svg11.dtd">
<!-- Generated by graphviz version 2.38.0 (20140413.2041)
 -->
<!-- Title: map_check Pages: 1 -->
<svg width="265pt" height="218pt"
 viewBox="0.00 0.00 265.00 218.00" xmlns="http://www.w3.org/2000/svg" xmlns:xlink="http://www.w3.org/1999/xlink">
<g id="graph0" class="graph" transform="scale(1 1) rotate(0) translate(4 214)">
<title>map_check</title>
<polygon fill="white" stroke="none" points="-4,4 -4,-214 261,-214 261,4 -4,4"/>
<!-- Node1 -->
<g id="node1" class="node"><title>Node1</title>
<polygon fill="#bfbfbf" stroke="black" points="0,-95.5 0,-114.5 67,-114.5 67,-95.5 0,-95.5"/>
<text text-anchor="middle" x="33.5" y="-102.5" font-family="Helvetica,sans-Serif" font-size="10.00">map_check</text>
</g>
<!-- Node2 -->
<g id="node2" class="node"><title>Node2</title>
<g id="a_node2"><a xlink:href="group__utilities__console.html#gacb9540a228d2c15623784ff0b0653722" target="_top" xlink:title="Output information message to console. ">
<polygon fill="white" stroke="black" points="116.5,-190.5 116.5,-209.5 166.5,-209.5 166.5,-190.5 116.5,-190.5"/>
<text text-anchor="middle" x="141.5" y="-197.5" font-family="Helvetica,sans-Serif" font-size="10.00">log_info</text>
</a>
</g>
</g>
<!-- Node1&#45;&gt;Node2 -->
<g id="edge1" class="edge"><title>Node1&#45;&gt;Node2</title>
<path fill="none" stroke="midnightblue" d="M41.5477,-114.941C53.0118,-130.567 77.0426,-161.139 103,-181 105.029,-182.552 107.204,-184.035 109.447,-185.439"/>
<polygon fill="midnightblue" stroke="midnightblue" points="107.847,-188.555 118.273,-190.438 111.296,-182.464 107.847,-188.555"/>
</g>
<!-- Node4 -->
<g id="node4" class="node"><title>Node4</title>
<g id="a_node4"><a xlink:href="group__datatypes__map.html#ga7824c51b145d28c8cec66c778e34028a" target="_top" xlink:title="Get the number of map entries. ">
<polygon fill="white" stroke="black" points="103,-152.5 103,-171.5 180,-171.5 180,-152.5 103,-152.5"/>
<text text-anchor="middle" x="141.5" y="-159.5" font-family="Helvetica,sans-Serif" font-size="10.00">get_map_size</text>
</a>
</g>
</g>
<!-- Node1&#45;&gt;Node4 -->
<g id="edge3" class="edge"><title>Node1&#45;&gt;Node4</title>
<path fill="none" stroke="midnightblue" d="M51.2942,-114.547C65.1029,-122.341 85.2193,-133.568 103,-143 105.966,-144.573 109.077,-146.195 112.184,-147.796"/>
<polygon fill="midnightblue" stroke="midnightblue" points="110.853,-151.046 121.351,-152.472 114.034,-144.81 110.853,-151.046"/>
</g>
<!-- Node5 -->
<g id="node5" class="node"><title>Node5</title>
<g id="a_node5"><a xlink:href="group__datatypes__operate__iterable.html#gaccab3e37e43cb1d882713b3f3d6d9e1b" target="_top" xlink:title="Return the first element of an iterable value. ">
<polygon fill="white" stroke="black" points="125,-114.5 125,-133.5 158,-133.5 158,-114.5 125,-114.5"/>
<text text-anchor="middle" x="141.5" y="-121.5" font-family="Helvetica,sans-Serif" font-size="10.00">first</text>
</a>
</g>
</g>
<!-- Node1&#45;&gt;Node5 -->
<g id="edge4" class="edge"><title>Node1&#45;&gt;Node5</title>
<path fill="none" stroke="midnightblue" d="M67.1684,-110.856C82.4864,-113.601 100.475,-116.826 114.802,-119.394"/>
<polygon fill="midnightblue" stroke="midnightblue" points="114.479,-122.892 124.939,-121.211 115.714,-116.001 114.479,-122.892"/>
</g>
<!-- Node6 -->
<g id="node6" class="node"><title>Node6</title>
<g id="a_node6"><a xlink:href="group__utilities__console.html#ga22d6e9c8a9f751cc5716e4a69188408a" target="_top" xlink:title="Output error message to console. ">
<polygon fill="white" stroke="black" points="114.5,-76.5 114.5,-95.5 168.5,-95.5 168.5,-76.5 114.5,-76.5"/>
<text text-anchor="middle" x="141.5" y="-83.5" font-family="Helvetica,sans-Serif" font-size="10.00">log_error</text>
</a>
</g>
</g>
<!-- Node1&#45;&gt;Node6 -->
<g id="edge5" class="edge"><title>Node1&#45;&gt;Node6</title>
<path fill="none" stroke="midnightblue" d="M67.1684,-99.1443C78.9306,-97.036 92.2675,-94.6454 104.312,-92.4865"/>
<polygon fill="midnightblue" stroke="midnightblue" points="105.267,-95.8713 114.492,-90.6618 104.031,-88.9811 105.267,-95.8713"/>
</g>
<!-- Node7 -->
<g id="node7" class="node"><title>Node7</title>
<g id="a_node7"><a xlink:href="group__datatypes__identify__scalar.html#ga11e38865eb0e8f26b163886b255cb766" target="_top" xlink:title="Test if a value is a string. ">
<polygon fill="white" stroke="black" points="115,-38.5 115,-57.5 168,-57.5 168,-38.5 115,-38.5"/>
<text text-anchor="middle" x="141.5" y="-45.5" font-family="Helvetica,sans-Serif" font-size="10.00">is_string</text>
</a>
</g>
</g>
<!-- Node1&#45;&gt;Node7 -->
<g id="edge7" class="edge"><title>Node1&#45;&gt;Node7</title>
<path fill="none" stroke="midnightblue" d="M51.2942,-95.453C65.1029,-87.659 85.2193,-76.4321 103,-67 105.966,-65.4267 109.077,-63.8054 112.184,-62.2041"/>
<polygon fill="midnightblue" stroke="midnightblue" points="114.034,-65.1899 121.351,-57.5281 110.853,-58.9542 114.034,-65.1899"/>
</g>
<!-- Node8 -->
<g id="node8" class="node"><title>Node8</title>
<g id="a_node8"><a xlink:href="group__utilities__console.html#ga1ece4e2cff9ae45c85429c226eb8362c" target="_top" xlink:title="Output warning message to console. ">
<polygon fill="white" stroke="black" points="113.5,-0.5 113.5,-19.5 169.5,-19.5 169.5,-0.5 113.5,-0.5"/>
<text text-anchor="middle" x="141.5" y="-7.5" font-family="Helvetica,sans-Serif" font-size="10.00">log_warn</text>
</a>
</g>
</g>
<!-- Node1&#45;&gt;Node8 -->
<g id="edge8" class="edge"><title>Node1&#45;&gt;Node8</title>
<path fill="none" stroke="midnightblue" d="M41.5477,-95.0595C53.0118,-79.4333 77.0426,-48.8606 103,-29 105.029,-27.4478 107.204,-25.9648 109.447,-24.5613"/>
<polygon fill="midnightblue" stroke="midnightblue" points="111.296,-27.5362 118.273,-19.5624 107.847,-21.4453 111.296,-27.5362"/>
</g>
<!-- Node3 -->
<g id="node3" class="node"><title>Node3</title>
<g id="a_node3"><a xlink:href="group__utilities__console.html#ga4fb6c985031c9b551777b2e9ebd2fc34" target="_top" xlink:title="Format the function call stack as a string. ">
<polygon fill="white" stroke="black" points="216,-76.5 216,-95.5 257,-95.5 257,-76.5 216,-76.5"/>
<text text-anchor="middle" x="236.5" y="-83.5" font-family="Helvetica,sans-Serif" font-size="10.00">stack</text>
</a>
</g>
</g>
<!-- Node2&#45;&gt;Node3 -->
<g id="edge2" class="edge"><title>Node2&#45;&gt;Node3</title>
<path fill="none" stroke="midnightblue" d="M166.45,-190.46C171.277,-187.853 176.069,-184.703 180,-181 203.076,-159.264 219.557,-125.784 228.296,-104.922"/>
<polygon fill="midnightblue" stroke="midnightblue" points="231.583,-106.131 232.057,-95.5466 225.086,-103.525 231.583,-106.131"/>
</g>
<!-- Node6&#45;&gt;Node3 -->
<g id="edge6" class="edge"><title>Node6&#45;&gt;Node3</title>
<path fill="none" stroke="midnightblue" d="M168.901,-86C180.331,-86 193.767,-86 205.566,-86"/>
<polygon fill="midnightblue" stroke="midnightblue" points="205.838,-89.5001 215.837,-86 205.837,-82.5001 205.838,-89.5001"/>
</g>
<!-- Node8&#45;&gt;Node3 -->
<g id="edge9" class="edge"><title>Node8&#45;&gt;Node3</title>
<path fill="none" stroke="midnightblue" d="M164.632,-19.69C169.869,-22.3898 175.295,-25.542 180,-29 195.553,-40.4317 210.664,-56.3686 221.182,-68.4852"/>
<polygon fill="midnightblue" stroke="midnightblue" points="218.546,-70.7888 227.678,-76.161 223.889,-66.2667 218.546,-70.7888"/>
</g>
</g>
</svg>
