<?xml version="1.0" encoding="UTF-8" standalone="no"?>
<!DOCTYPE svg PUBLIC "-//W3C//DTD SVG 1.1//EN"
 "http://www.w3.org/Graphics/SVG/1.1/DTD/svg11.dtd">
<!-- Generated by graphviz version 2.38.0 (20140413.2041)
 -->
<!-- Title: Other Shapes Pages: 1 -->
<svg width="247pt" height="37pt"
 viewBox="0.00 0.00 247.00 36.81" xmlns="http://www.w3.org/2000/svg" xmlns:xlink="http://www.w3.org/1999/xlink">
<g id="graph0" class="graph" transform="scale(1 1) rotate(0) translate(4 32.8107)">
<title>Other Shapes</title>
<polygon fill="white" stroke="none" points="-4,4 -4,-32.8107 243,-32.8107 243,4 -4,4"/>
<!-- Node1 -->
<g id="node1" class="node"><title>Node1</title>
<g id="a_node1"><a xlink:href="group__math.html" target="_top" xlink:title="Mathematical functions. ">
<polygon fill="white" stroke="black" points="0,-9.3107 0,-28.3107 38,-28.3107 38,-9.3107 0,-9.3107"/>
<text text-anchor="middle" x="19" y="-16.3107" font-family="Helvetica,sans-Serif" font-size="10.00">Math</text>
</a>
</g>
</g>
<!-- Node0 -->
<g id="node2" class="node"><title>Node0</title>
<polygon fill="#bfbfbf" stroke="black" points="162,-9.3107 162,-28.3107 239,-28.3107 239,-9.3107 162,-9.3107"/>
<text text-anchor="middle" x="200.5" y="-16.3107" font-family="Helvetica,sans-Serif" font-size="10.00">Other Shapes</text>
</g>
<!-- Node1&#45;&gt;Node0 -->
<g id="edge1" class="edge"><title>Node1&#45;&gt;Node0</title>
<path fill="none" stroke="black" d="M48.217,-18.8107C78.8727,-18.8107 127.998,-18.8107 161.909,-18.8107"/>
<polygon fill="black" stroke="black" points="48.1993,-15.3108 38.1992,-18.8107 48.1992,-22.3108 48.1993,-15.3108"/>
</g>
<!-- Node0&#45;&gt;Node1 -->
<g id="edge2" class="edge"><title>Node0&#45;&gt;Node1</title>
<path fill="none" stroke="darkgreen" stroke-dasharray="5,2" d="M167.474,-9.30315C159.849,-7.43871 151.692,-5.7659 144,-4.8107 105.187,0.00913855 94.4405,2.40078 56,-4.8107 50.0681,-5.92353 43.8576,-7.98425 38.2976,-10.1888"/>
<text text-anchor="middle" x="100" y="-7.8107" font-family="Helvetica,sans-Serif" font-size="10.00">math_oshapes.scad</text>
</g>
</g>
</svg>
