<?xml version="1.0" encoding="UTF-8" standalone="no"?>
<!DOCTYPE svg PUBLIC "-//W3C//DTD SVG 1.1//EN"
 "http://www.w3.org/Graphics/SVG/1.1/DTD/svg11.dtd">
<!-- Generated by graphviz version 2.38.0 (20140413.2041)
 -->
<!-- Title: radial_repeat Pages: 1 -->
<svg width="245pt" height="66pt"
 viewBox="0.00 0.00 245.00 66.00" xmlns="http://www.w3.org/2000/svg" xmlns:xlink="http://www.w3.org/1999/xlink">
<g id="graph0" class="graph" transform="scale(1 1) rotate(0) translate(4 62)">
<title>radial_repeat</title>
<polygon fill="white" stroke="none" points="-4,4 -4,-62 241,-62 241,4 -4,4"/>
<!-- Node1 -->
<g id="node1" class="node"><title>Node1</title>
<polygon fill="#bfbfbf" stroke="black" points="0,-19.5 0,-38.5 72,-38.5 72,-19.5 0,-19.5"/>
<text text-anchor="middle" x="36" y="-26.5" font-family="Helvetica,sans-Serif" font-size="10.00">radial_repeat</text>
</g>
<!-- Node2 -->
<g id="node2" class="node"><title>Node2</title>
<g id="a_node2"><a xlink:href="group__shapes__2d.html#ga7452bf5414a3677ec806a31aed6b61dd" target="_top" xlink:title="A two&#45;dimensional star. ">
<polygon fill="white" stroke="black" points="108,-38.5 108,-57.5 152,-57.5 152,-38.5 108,-38.5"/>
<text text-anchor="middle" x="130" y="-45.5" font-family="Helvetica,sans-Serif" font-size="10.00">star2d</text>
</a>
</g>
</g>
<!-- Node1&#45;&gt;Node2 -->
<g id="edge1" class="edge"><title>Node1&#45;&gt;Node2</title>
<path fill="none" stroke="midnightblue" d="M82.1242,-38.3191C91.1348,-40.18 100.19,-42.0502 107.907,-43.6438"/>
<polygon fill="midnightblue" stroke="midnightblue" points="82.545,-34.8322 72.0437,-36.2373 81.1291,-41.6876 82.545,-34.8322"/>
</g>
<!-- Node4 -->
<g id="node4" class="node"><title>Node4</title>
<g id="a_node4"><a xlink:href="group__shapes__3d.html#gab99dacd3036b965579d68b1d3b7ee2d8" target="_top" xlink:title="A three&#45;dimensional star. ">
<polygon fill="white" stroke="black" points="108,-0.5 108,-19.5 152,-19.5 152,-0.5 108,-0.5"/>
<text text-anchor="middle" x="130" y="-7.5" font-family="Helvetica,sans-Serif" font-size="10.00">star3d</text>
</a>
</g>
</g>
<!-- Node1&#45;&gt;Node4 -->
<g id="edge3" class="edge"><title>Node1&#45;&gt;Node4</title>
<path fill="none" stroke="midnightblue" d="M82.1242,-19.6809C91.1348,-17.82 100.19,-15.9498 107.907,-14.3562"/>
<polygon fill="midnightblue" stroke="midnightblue" points="81.1291,-16.3124 72.0437,-21.7627 82.545,-23.1678 81.1291,-16.3124"/>
</g>
<!-- Node3 -->
<g id="node3" class="node"><title>Node3</title>
<g id="a_node3"><a xlink:href="group__shapes__2de.html#ga69ece32102ccb27e9985975fa4590251" target="_top" xlink:title="An extruded two&#45;dimensional star. ">
<polygon fill="white" stroke="black" points="188,-38.5 188,-57.5 237,-57.5 237,-38.5 188,-38.5"/>
<text text-anchor="middle" x="212.5" y="-45.5" font-family="Helvetica,sans-Serif" font-size="10.00">estar2d</text>
</a>
</g>
</g>
<!-- Node2&#45;&gt;Node3 -->
<g id="edge2" class="edge"><title>Node2&#45;&gt;Node3</title>
<path fill="none" stroke="midnightblue" d="M162.193,-48C170.752,-48 179.887,-48 187.939,-48"/>
<polygon fill="midnightblue" stroke="midnightblue" points="162.15,-44.5001 152.15,-48 162.15,-51.5001 162.15,-44.5001"/>
</g>
</g>
</svg>
