<?xml version="1.0" encoding="UTF-8" standalone="no"?>
<!DOCTYPE svg PUBLIC "-//W3C//DTD SVG 1.1//EN"
 "http://www.w3.org/Graphics/SVG/1.1/DTD/svg11.dtd">
<!-- Generated by graphviz version 2.38.0 (20140413.2041)
 -->
<!-- Title: is_scalar Pages: 1 -->
<svg width="439pt" height="864pt"
 viewBox="0.00 0.00 439.00 864.00" xmlns="http://www.w3.org/2000/svg" xmlns:xlink="http://www.w3.org/1999/xlink">
<g id="graph0" class="graph" transform="scale(1 1) rotate(0) translate(4 860)">
<title>is_scalar</title>
<polygon fill="white" stroke="none" points="-4,4 -4,-860 435,-860 435,4 -4,4"/>
<!-- Node1 -->
<g id="node1" class="node"><title>Node1</title>
<polygon fill="#bfbfbf" stroke="black" points="0,-608.5 0,-627.5 56,-627.5 56,-608.5 0,-608.5"/>
<text text-anchor="middle" x="28" y="-615.5" font-family="Helvetica,sans-Serif" font-size="10.00">is_scalar</text>
</g>
<!-- Node2 -->
<g id="node2" class="node"><title>Node2</title>
<g id="a_node2"><a xlink:href="group__shapes__2d.html#ga9f679c29426c44ee83b4a13b5dd47138" target="_top" xlink:title="A rectangle with edge, fillet, and/or chamfer corners. ">
<polygon fill="white" stroke="black" points="111.5,-684.5 111.5,-703.5 167.5,-703.5 167.5,-684.5 111.5,-684.5"/>
<text text-anchor="middle" x="139.5" y="-691.5" font-family="Helvetica,sans-Serif" font-size="10.00">rectangle</text>
</a>
</g>
</g>
<!-- Node1&#45;&gt;Node2 -->
<g id="edge1" class="edge"><title>Node1&#45;&gt;Node2</title>
<path fill="none" stroke="midnightblue" d="M44.6207,-635.016C56.6478,-647.358 74.1814,-663.787 92,-675 97.9048,-678.716 104.66,-681.965 111.158,-684.676"/>
<polygon fill="midnightblue" stroke="midnightblue" points="46.9904,-632.429 37.5646,-627.591 41.9162,-637.251 46.9904,-632.429"/>
</g>
<!-- Node7 -->
<g id="node7" class="node"><title>Node7</title>
<g id="a_node7"><a xlink:href="group__shapes__2d.html#ga89c8cb6f39cf9b045091f8b0434b25d0" target="_top" xlink:title="A rhombus. ">
<polygon fill="white" stroke="black" points="112.5,-608.5 112.5,-627.5 166.5,-627.5 166.5,-608.5 112.5,-608.5"/>
<text text-anchor="middle" x="139.5" y="-615.5" font-family="Helvetica,sans-Serif" font-size="10.00">rhombus</text>
</a>
</g>
</g>
<!-- Node1&#45;&gt;Node7 -->
<g id="edge6" class="edge"><title>Node1&#45;&gt;Node7</title>
<path fill="none" stroke="midnightblue" d="M66.2138,-618C81.4325,-618 98.6723,-618 112.498,-618"/>
<polygon fill="midnightblue" stroke="midnightblue" points="66.0675,-614.5 56.0674,-618 66.0674,-621.5 66.0675,-614.5"/>
</g>
<!-- Node9 -->
<g id="node9" class="node"><title>Node9</title>
<g id="a_node9"><a xlink:href="group__shapes__2d.html#ga9fe8dcb93cf5fca81671a04f1ccb562c" target="_top" xlink:title="A general triangle specified by a list of its three vertices. ">
<polygon fill="white" stroke="black" points="109,-570.5 109,-589.5 170,-589.5 170,-570.5 109,-570.5"/>
<text text-anchor="middle" x="139.5" y="-577.5" font-family="Helvetica,sans-Serif" font-size="10.00">triangle_lp</text>
</a>
</g>
</g>
<!-- Node1&#45;&gt;Node9 -->
<g id="edge8" class="edge"><title>Node1&#45;&gt;Node9</title>
<path fill="none" stroke="midnightblue" d="M65.9041,-605.193C80.6484,-600.076 97.3314,-594.287 110.983,-589.549"/>
<polygon fill="midnightblue" stroke="midnightblue" points="64.3672,-602.022 56.0674,-608.607 66.6622,-608.635 64.3672,-602.022"/>
</g>
<!-- Node11 -->
<g id="node11" class="node"><title>Node11</title>
<g id="a_node11"><a xlink:href="group__shapes__2d.html#ga5321277acf52177e1c7928c13377dd00" target="_top" xlink:title="A general triangle specified by a list of its three side lengths. ">
<polygon fill="white" stroke="black" points="109,-646.5 109,-665.5 170,-665.5 170,-646.5 109,-646.5"/>
<text text-anchor="middle" x="139.5" y="-653.5" font-family="Helvetica,sans-Serif" font-size="10.00">triangle_ls</text>
</a>
</g>
</g>
<!-- Node1&#45;&gt;Node11 -->
<g id="edge10" class="edge"><title>Node1&#45;&gt;Node11</title>
<path fill="none" stroke="midnightblue" d="M65.9041,-630.807C80.6484,-635.924 97.3314,-641.713 110.983,-646.451"/>
<polygon fill="midnightblue" stroke="midnightblue" points="66.6622,-627.365 56.0674,-627.393 64.3672,-633.978 66.6622,-627.365"/>
</g>
<!-- Node18 -->
<g id="node18" class="node"><title>Node18</title>
<g id="a_node18"><a xlink:href="group__tools__extrude.html#gaf0e13f98be7287f0157f2026db5e52d3" target="_top" xlink:title="Translate, rotate, and revolve the 2d shape about the z&#45;axis with linear elongation. ">
<polygon fill="white" stroke="black" points="223,-836.5 223,-855.5 318,-855.5 318,-836.5 223,-836.5"/>
<text text-anchor="middle" x="270.5" y="-843.5" font-family="Helvetica,sans-Serif" font-size="10.00">rotate_extrude_tre</text>
</a>
</g>
</g>
<!-- Node1&#45;&gt;Node18 -->
<g id="edge17" class="edge"><title>Node1&#45;&gt;Node18</title>
<path fill="none" stroke="midnightblue" d="M39.2388,-636.485C50.7267,-656.421 70.5778,-688.581 92,-713 142.899,-771.019 157.282,-786.526 223,-827 228.792,-830.567 235.371,-833.724 241.72,-836.39"/>
<polygon fill="midnightblue" stroke="midnightblue" points="42.2751,-634.744 34.3009,-627.768 36.1844,-638.194 42.2751,-634.744"/>
</g>
<!-- Node20 -->
<g id="node20" class="node"><title>Node20</title>
<g id="a_node20"><a xlink:href="group__tools__extrude.html#ga2cb6eb6927858c6b5e1e2dfadb197bf9" target="_top" xlink:title="Linearly extrude 2d shape with extrusion upper and lower scaling. ">
<polygon fill="white" stroke="black" points="92,-380.5 92,-399.5 187,-399.5 187,-380.5 92,-380.5"/>
<text text-anchor="middle" x="139.5" y="-387.5" font-family="Helvetica,sans-Serif" font-size="10.00">linear_extrude_uls</text>
</a>
</g>
</g>
<!-- Node1&#45;&gt;Node20 -->
<g id="edge21" class="edge"><title>Node1&#45;&gt;Node20</title>
<path fill="none" stroke="midnightblue" d="M37.9852,-599.291C60.2414,-552.949 117.326,-434.089 133.915,-399.547"/>
<polygon fill="midnightblue" stroke="midnightblue" points="34.74,-597.964 33.5657,-608.493 41.05,-600.994 34.74,-597.964"/>
</g>
<!-- Node33 -->
<g id="node33" class="node"><title>Node33</title>
<g id="a_node33"><a xlink:href="group__tools__repeat.html#ga1bdfb742c5c03621128336c662faee75" target="_top" xlink:title="Distribute copies of 2d or 3d shapes about Cartesian grid. ">
<polygon fill="white" stroke="black" points="107,-342.5 107,-361.5 172,-361.5 172,-342.5 107,-342.5"/>
<text text-anchor="middle" x="139.5" y="-349.5" font-family="Helvetica,sans-Serif" font-size="10.00">grid_repeat</text>
</a>
</g>
</g>
<!-- Node1&#45;&gt;Node33 -->
<g id="edge41" class="edge"><title>Node1&#45;&gt;Node33</title>
<path fill="none" stroke="midnightblue" d="M28.3864,-597.965C28.0673,-552.061 33.6021,-438.08 92,-371 96.0083,-366.396 101.301,-362.889 106.877,-360.223"/>
<polygon fill="midnightblue" stroke="midnightblue" points="24.8892,-598.162 28.565,-608.099 31.8881,-598.038 24.8892,-598.162"/>
</g>
<!-- Node3 -->
<g id="node3" class="node"><title>Node3</title>
<g id="a_node3"><a xlink:href="group__shapes__2d.html#ga803b8196745be0e3a338def3c58e3b2b" target="_top" xlink:title="A rectangle with a removed rectangular core. ">
<polygon fill="white" stroke="black" points="237,-798.5 237,-817.5 304,-817.5 304,-798.5 237,-798.5"/>
<text text-anchor="middle" x="270.5" y="-805.5" font-family="Helvetica,sans-Serif" font-size="10.00">rectangle_c</text>
</a>
</g>
</g>
<!-- Node2&#45;&gt;Node3 -->
<g id="edge2" class="edge"><title>Node2&#45;&gt;Node3</title>
<path fill="none" stroke="midnightblue" d="M152.214,-712.01C166.653,-732.986 192.994,-767.497 223,-789 228.104,-792.658 234.015,-795.761 239.875,-798.332"/>
<polygon fill="midnightblue" stroke="midnightblue" points="155.094,-710.022 146.612,-703.674 149.284,-713.926 155.094,-710.022"/>
</g>
<!-- Node6 -->
<g id="node6" class="node"><title>Node6</title>
<g id="a_node6"><a xlink:href="group__shapes__2de.html#ga5fd9b6fca4860ae7c54cbeb9024e74f0" target="_top" xlink:title="An extruded rectangle with edge, fillet, and/or chamfer corners. ">
<polygon fill="white" stroke="black" points="239.5,-684.5 239.5,-703.5 301.5,-703.5 301.5,-684.5 239.5,-684.5"/>
<text text-anchor="middle" x="270.5" y="-691.5" font-family="Helvetica,sans-Serif" font-size="10.00">erectangle</text>
</a>
</g>
</g>
<!-- Node2&#45;&gt;Node6 -->
<g id="edge5" class="edge"><title>Node2&#45;&gt;Node6</title>
<path fill="none" stroke="midnightblue" d="M177.641,-694C197.213,-694 220.911,-694 239.334,-694"/>
<polygon fill="midnightblue" stroke="midnightblue" points="177.543,-690.5 167.543,-694 177.543,-697.5 177.543,-690.5"/>
</g>
<!-- Node4 -->
<g id="node4" class="node"><title>Node4</title>
<g id="a_node4"><a xlink:href="group__shapes__2de.html#gaa24ca5f53d00f33d356f40f740a1d7f7" target="_top" xlink:title="An extruded rectangle with a removed rectangular core. ">
<polygon fill="white" stroke="black" points="356.5,-627.5 356.5,-646.5 428.5,-646.5 428.5,-627.5 356.5,-627.5"/>
<text text-anchor="middle" x="392.5" y="-634.5" font-family="Helvetica,sans-Serif" font-size="10.00">erectangle_c</text>
</a>
</g>
</g>
<!-- Node3&#45;&gt;Node4 -->
<g id="edge3" class="edge"><title>Node3&#45;&gt;Node4</title>
<path fill="none" stroke="midnightblue" d="M312.657,-793.307C314.551,-791.985 316.347,-790.552 318,-789 362.438,-747.256 383.186,-673.002 389.404,-646.625"/>
<polygon fill="midnightblue" stroke="midnightblue" points="310.755,-790.365 303.87,-798.417 314.274,-796.416 310.755,-790.365"/>
</g>
<!-- Node5 -->
<g id="node5" class="node"><title>Node5</title>
<g id="a_node5"><a xlink:href="group__shapes__3d.html#gac521ba184d6ac7693df4db67df2499b8" target="_top" xlink:title="A rectangular cross&#45;sectional profile revolved about the z&#45;axis. ">
<polygon fill="white" stroke="black" points="366.5,-798.5 366.5,-817.5 418.5,-817.5 418.5,-798.5 366.5,-798.5"/>
<text text-anchor="middle" x="392.5" y="-805.5" font-family="Helvetica,sans-Serif" font-size="10.00">torus_rp</text>
</a>
</g>
</g>
<!-- Node3&#45;&gt;Node5 -->
<g id="edge4" class="edge"><title>Node3&#45;&gt;Node5</title>
<path fill="none" stroke="midnightblue" d="M314.758,-808C332.081,-808 351.428,-808 366.362,-808"/>
<polygon fill="midnightblue" stroke="midnightblue" points="314.291,-804.5 304.291,-808 314.29,-811.5 314.291,-804.5"/>
</g>
<!-- Node8 -->
<g id="node8" class="node"><title>Node8</title>
<g id="a_node8"><a xlink:href="group__shapes__2de.html#gadc20c762def9f625af7141e22229ff55" target="_top" xlink:title="An extruded rhombus. ">
<polygon fill="white" stroke="black" points="241,-608.5 241,-627.5 300,-627.5 300,-608.5 241,-608.5"/>
<text text-anchor="middle" x="270.5" y="-615.5" font-family="Helvetica,sans-Serif" font-size="10.00">erhombus</text>
</a>
</g>
</g>
<!-- Node7&#45;&gt;Node8 -->
<g id="edge7" class="edge"><title>Node7&#45;&gt;Node8</title>
<path fill="none" stroke="midnightblue" d="M176.713,-618C196.959,-618 221.841,-618 240.741,-618"/>
<polygon fill="midnightblue" stroke="midnightblue" points="176.605,-614.5 166.605,-618 176.605,-621.5 176.605,-614.5"/>
</g>
<!-- Node10 -->
<g id="node10" class="node"><title>Node10</title>
<g id="a_node10"><a xlink:href="group__shapes__2de.html#ga919151e4d8f40c9218c63b867fb80b7b" target="_top" xlink:title="An extruded general triangle specified by a list of its three vertices. ">
<polygon fill="white" stroke="black" points="237.5,-570.5 237.5,-589.5 303.5,-589.5 303.5,-570.5 237.5,-570.5"/>
<text text-anchor="middle" x="270.5" y="-577.5" font-family="Helvetica,sans-Serif" font-size="10.00">etriangle_lp</text>
</a>
</g>
</g>
<!-- Node9&#45;&gt;Node10 -->
<g id="edge9" class="edge"><title>Node9&#45;&gt;Node10</title>
<path fill="none" stroke="midnightblue" d="M180.191,-580C198.53,-580 220.025,-580 237.331,-580"/>
<polygon fill="midnightblue" stroke="midnightblue" points="180.095,-576.5 170.095,-580 180.095,-583.5 180.095,-576.5"/>
</g>
<!-- Node12 -->
<g id="node12" class="node"><title>Node12</title>
<g id="a_node12"><a xlink:href="group__shapes__2d.html#ga7eefb280ad124a8d35eb4218e5f0bdad" target="_top" xlink:title="A general triangle specified by its sides with a removed triangular core. ">
<polygon fill="white" stroke="black" points="235,-760.5 235,-779.5 306,-779.5 306,-760.5 235,-760.5"/>
<text text-anchor="middle" x="270.5" y="-767.5" font-family="Helvetica,sans-Serif" font-size="10.00">triangle_ls_c</text>
</a>
</g>
</g>
<!-- Node11&#45;&gt;Node12 -->
<g id="edge11" class="edge"><title>Node11&#45;&gt;Node12</title>
<path fill="none" stroke="midnightblue" d="M178.996,-668.911C181.877,-670.701 184.594,-672.721 187,-675 214.139,-700.699 195.861,-725.301 223,-751 227.053,-754.838 231.985,-757.944 237.104,-760.445"/>
<polygon fill="midnightblue" stroke="midnightblue" points="180.485,-665.74 170.001,-664.212 177.243,-671.945 180.485,-665.74"/>
</g>
<!-- Node15 -->
<g id="node15" class="node"><title>Node15</title>
<g id="a_node15"><a xlink:href="group__shapes__2d.html#ga7452bf5414a3677ec806a31aed6b61dd" target="_top" xlink:title="A two&#45;dimensional star. ">
<polygon fill="white" stroke="black" points="248.5,-722.5 248.5,-741.5 292.5,-741.5 292.5,-722.5 248.5,-722.5"/>
<text text-anchor="middle" x="270.5" y="-729.5" font-family="Helvetica,sans-Serif" font-size="10.00">star2d</text>
</a>
</g>
</g>
<!-- Node11&#45;&gt;Node15 -->
<g id="edge14" class="edge"><title>Node11&#45;&gt;Node15</title>
<path fill="none" stroke="midnightblue" d="M178.797,-670.07C181.652,-671.591 184.42,-673.235 187,-675 206.199,-688.139 203.801,-699.861 223,-713 230.629,-718.221 239.912,-722.376 248.172,-725.452"/>
<polygon fill="midnightblue" stroke="midnightblue" points="180.046,-666.788 169.515,-665.629 177.025,-673.102 180.046,-666.788"/>
</g>
<!-- Node17 -->
<g id="node17" class="node"><title>Node17</title>
<g id="a_node17"><a xlink:href="group__shapes__2de.html#gace35f9581cef6d5c20c3fd1d922284d1" target="_top" xlink:title="An extruded general triangle specified by a list of its three side lengths. ">
<polygon fill="white" stroke="black" points="237.5,-646.5 237.5,-665.5 303.5,-665.5 303.5,-646.5 237.5,-646.5"/>
<text text-anchor="middle" x="270.5" y="-653.5" font-family="Helvetica,sans-Serif" font-size="10.00">etriangle_ls</text>
</a>
</g>
</g>
<!-- Node11&#45;&gt;Node17 -->
<g id="edge16" class="edge"><title>Node11&#45;&gt;Node17</title>
<path fill="none" stroke="midnightblue" d="M180.191,-656C198.53,-656 220.025,-656 237.331,-656"/>
<polygon fill="midnightblue" stroke="midnightblue" points="180.095,-652.5 170.095,-656 180.095,-659.5 180.095,-652.5"/>
</g>
<!-- Node13 -->
<g id="node13" class="node"><title>Node13</title>
<g id="a_node13"><a xlink:href="group__shapes__2de.html#ga0c99582ccf3d5b1425c99001b228c202" target="_top" xlink:title="A general triangle specified by its sides with a removed triangular core. ">
<polygon fill="white" stroke="black" points="354,-541.5 354,-560.5 431,-560.5 431,-541.5 354,-541.5"/>
<text text-anchor="middle" x="392.5" y="-548.5" font-family="Helvetica,sans-Serif" font-size="10.00">etriangle_ls_c</text>
</a>
</g>
</g>
<!-- Node12&#45;&gt;Node13 -->
<g id="edge12" class="edge"><title>Node12&#45;&gt;Node13</title>
<path fill="none" stroke="midnightblue" d="M314.261,-754.652C315.595,-753.518 316.849,-752.303 318,-751 358.546,-705.107 330.871,-674.702 354,-618 362.76,-596.524 376.936,-573.289 385.119,-560.608"/>
<polygon fill="midnightblue" stroke="midnightblue" points="312.242,-751.792 305.911,-760.287 316.158,-757.594 312.242,-751.792"/>
</g>
<!-- Node14 -->
<g id="node14" class="node"><title>Node14</title>
<g id="a_node14"><a xlink:href="group__shapes__3d.html#gaa3137155089f4d50c13ebea05402edd0" target="_top" xlink:title="A triangular cross&#45;sectional profile revolved about the z&#45;axis. ">
<polygon fill="white" stroke="black" points="366.5,-760.5 366.5,-779.5 418.5,-779.5 418.5,-760.5 366.5,-760.5"/>
<text text-anchor="middle" x="392.5" y="-767.5" font-family="Helvetica,sans-Serif" font-size="10.00">torus_tp</text>
</a>
</g>
</g>
<!-- Node12&#45;&gt;Node14 -->
<g id="edge13" class="edge"><title>Node12&#45;&gt;Node14</title>
<path fill="none" stroke="midnightblue" d="M316.455,-770C333.349,-770 351.943,-770 366.397,-770"/>
<polygon fill="midnightblue" stroke="midnightblue" points="316.209,-766.5 306.209,-770 316.209,-773.5 316.209,-766.5"/>
</g>
<!-- Node16 -->
<g id="node16" class="node"><title>Node16</title>
<g id="a_node16"><a xlink:href="group__shapes__2de.html#ga69ece32102ccb27e9985975fa4590251" target="_top" xlink:title="An extruded two&#45;dimensional star. ">
<polygon fill="white" stroke="black" points="368,-351.5 368,-370.5 417,-370.5 417,-351.5 368,-351.5"/>
<text text-anchor="middle" x="392.5" y="-358.5" font-family="Helvetica,sans-Serif" font-size="10.00">estar2d</text>
</a>
</g>
</g>
<!-- Node15&#45;&gt;Node16 -->
<g id="edge15" class="edge"><title>Node15&#45;&gt;Node16</title>
<path fill="none" stroke="midnightblue" d="M302.169,-724.484C308.153,-721.748 313.849,-718.033 318,-713 370.185,-649.722 337.215,-612.284 354,-532 366.875,-470.418 383.447,-396.622 389.319,-370.628"/>
<polygon fill="midnightblue" stroke="midnightblue" points="300.847,-721.241 292.711,-728.027 303.303,-727.796 300.847,-721.241"/>
</g>
<!-- Node18&#45;&gt;Node5 -->
<g id="edge18" class="edge"><title>Node18&#45;&gt;Node5</title>
<path fill="none" stroke="midnightblue" d="M311.536,-833.322C329.695,-827.572 350.607,-820.95 366.49,-815.92"/>
<polygon fill="midnightblue" stroke="midnightblue" points="310.258,-830.055 301.781,-836.411 312.371,-836.729 310.258,-830.055"/>
</g>
<!-- Node18&#45;&gt;Node14 -->
<g id="edge19" class="edge"><title>Node18&#45;&gt;Node14</title>
<path fill="none" stroke="midnightblue" d="M309.797,-831.93C312.652,-830.409 315.42,-828.765 318,-827 337.199,-813.861 335.349,-802.906 354,-789 358.681,-785.51 364.098,-782.346 369.335,-779.644"/>
<polygon fill="midnightblue" stroke="midnightblue" points="308.025,-828.898 300.515,-836.371 311.046,-835.212 308.025,-828.898"/>
</g>
<!-- Node19 -->
<g id="node19" class="node"><title>Node19</title>
<g id="a_node19"><a xlink:href="group__shapes__3d.html#gaf5589d4cfa40aefb7853b4eebc792312" target="_top" xlink:title="An elliptical cross&#45;sectional profile revolved about the z&#45;axis. ">
<polygon fill="white" stroke="black" points="365.5,-836.5 365.5,-855.5 419.5,-855.5 419.5,-836.5 365.5,-836.5"/>
<text text-anchor="middle" x="392.5" y="-843.5" font-family="Helvetica,sans-Serif" font-size="10.00">torus_ep</text>
</a>
</g>
</g>
<!-- Node18&#45;&gt;Node19 -->
<g id="edge20" class="edge"><title>Node18&#45;&gt;Node19</title>
<path fill="none" stroke="midnightblue" d="M328.532,-846C341.473,-846 354.6,-846 365.494,-846"/>
<polygon fill="midnightblue" stroke="midnightblue" points="328.239,-842.5 318.239,-846 328.239,-849.5 328.239,-842.5"/>
</g>
<!-- Node20&#45;&gt;Node4 -->
<g id="edge23" class="edge"><title>Node20&#45;&gt;Node4</title>
<path fill="none" stroke="midnightblue" d="M148.393,-409.118C160.648,-436.723 186.681,-487.843 223,-519 258.038,-549.058 280.14,-534.584 318,-561 345.999,-580.536 372.112,-611.803 384.299,-627.442"/>
<polygon fill="midnightblue" stroke="midnightblue" points="151.543,-407.584 144.377,-399.78 145.112,-410.349 151.543,-407.584"/>
</g>
<!-- Node20&#45;&gt;Node6 -->
<g id="edge22" class="edge"><title>Node20&#45;&gt;Node6</title>
<path fill="none" stroke="midnightblue" d="M145.909,-409.534C163.525,-473.038 218.38,-669.862 223,-675 227.431,-679.929 233.33,-683.605 239.434,-686.339"/>
<polygon fill="midnightblue" stroke="midnightblue" points="149.202,-408.31 143.158,-399.608 142.456,-410.179 149.202,-408.31"/>
</g>
<!-- Node20&#45;&gt;Node8 -->
<g id="edge24" class="edge"><title>Node20&#45;&gt;Node8</title>
<path fill="none" stroke="midnightblue" d="M143.065,-409.772C149.344,-450.494 169.116,-544.469 223,-599 227.904,-603.963 234.284,-607.679 240.738,-610.444"/>
<polygon fill="midnightblue" stroke="midnightblue" points="146.515,-409.178 141.634,-399.775 139.586,-410.17 146.515,-409.178"/>
</g>
<!-- Node20&#45;&gt;Node10 -->
<g id="edge26" class="edge"><title>Node20&#45;&gt;Node10</title>
<path fill="none" stroke="midnightblue" d="M145.92,-409.913C156.012,-443.742 180.596,-512.945 223,-556 228.865,-561.955 236.52,-566.729 243.921,-570.403"/>
<polygon fill="midnightblue" stroke="midnightblue" points="149.167,-408.535 143.049,-399.886 142.437,-410.463 149.167,-408.535"/>
</g>
<!-- Node20&#45;&gt;Node13 -->
<g id="edge29" class="edge"><title>Node20&#45;&gt;Node13</title>
<path fill="none" stroke="midnightblue" d="M152.16,-408.086C166.547,-429.135 192.839,-463.716 223,-485 246.167,-501.348 320.432,-527.454 362.222,-541.43"/>
<polygon fill="midnightblue" stroke="midnightblue" points="155.04,-406.097 146.58,-399.718 149.216,-409.98 155.04,-406.097"/>
</g>
<!-- Node20&#45;&gt;Node16 -->
<g id="edge40" class="edge"><title>Node20&#45;&gt;Node16</title>
<path fill="none" stroke="midnightblue" d="M183.863,-374.331C184.983,-373.291 186.034,-372.182 187,-371 241.381,-304.445 156.811,-235.826 223,-181 255.516,-154.066 282.953,-157.454 318,-181 377.96,-221.283 389.036,-320 391.056,-351.308"/>
<polygon fill="midnightblue" stroke="midnightblue" points="181.709,-371.57 175.64,-380.254 185.8,-377.25 181.709,-371.57"/>
</g>
<!-- Node20&#45;&gt;Node17 -->
<g id="edge28" class="edge"><title>Node20&#45;&gt;Node17</title>
<path fill="none" stroke="midnightblue" d="M145.962,-409.381C161.654,-464.565 206.775,-619.675 223,-637 226.934,-641.201 231.931,-644.499 237.18,-647.08"/>
<polygon fill="midnightblue" stroke="midnightblue" points="149.326,-408.415 143.234,-399.747 142.591,-410.322 149.326,-408.415"/>
</g>
<!-- Node21 -->
<g id="node21" class="node"><title>Node21</title>
<g id="a_node21"><a xlink:href="group__shapes__2de.html#ga115ebc47b0630da820f163c0627c9b18" target="_top" xlink:title="An extruded general triangle specified by three vertices. ">
<polygon fill="white" stroke="black" points="233.5,-304.5 233.5,-323.5 307.5,-323.5 307.5,-304.5 233.5,-304.5"/>
<text text-anchor="middle" x="270.5" y="-311.5" font-family="Helvetica,sans-Serif" font-size="10.00">etriangle_ppp</text>
</a>
</g>
</g>
<!-- Node20&#45;&gt;Node21 -->
<g id="edge25" class="edge"><title>Node20&#45;&gt;Node21</title>
<path fill="none" stroke="midnightblue" d="M178.797,-375.93C181.652,-374.409 184.42,-372.765 187,-371 206.199,-357.861 203.801,-346.139 223,-333 228.326,-329.355 234.458,-326.23 240.485,-323.629"/>
<polygon fill="midnightblue" stroke="midnightblue" points="177.025,-372.898 169.515,-380.371 180.046,-379.212 177.025,-372.898"/>
</g>
<!-- Node22 -->
<g id="node22" class="node"><title>Node22</title>
<g id="a_node22"><a xlink:href="group__shapes__2de.html#ga4940596130c3cd1e62fea77569459a52" target="_top" xlink:title="An extruded general triangle specified by its three side lengths. ">
<polygon fill="white" stroke="black" points="233.5,-266.5 233.5,-285.5 307.5,-285.5 307.5,-266.5 233.5,-266.5"/>
<text text-anchor="middle" x="270.5" y="-273.5" font-family="Helvetica,sans-Serif" font-size="10.00">etriangle_sss</text>
</a>
</g>
</g>
<!-- Node20&#45;&gt;Node22 -->
<g id="edge27" class="edge"><title>Node20&#45;&gt;Node22</title>
<path fill="none" stroke="midnightblue" d="M181.672,-375.323C183.562,-373.997 185.354,-372.559 187,-371 214.139,-345.301 195.861,-320.699 223,-295 227.053,-291.162 231.985,-288.056 237.104,-285.555"/>
<polygon fill="midnightblue" stroke="midnightblue" points="179.769,-372.382 172.896,-380.445 183.297,-378.428 179.769,-372.382"/>
</g>
<!-- Node23 -->
<g id="node23" class="node"><title>Node23</title>
<g id="a_node23"><a xlink:href="group__shapes__2de.html#gae4dc22fae0c22daa5d4844755cd268ac" target="_top" xlink:title="An extruded general triangle specified by two sides and the included angle. ">
<polygon fill="white" stroke="black" points="233.5,-228.5 233.5,-247.5 307.5,-247.5 307.5,-228.5 233.5,-228.5"/>
<text text-anchor="middle" x="270.5" y="-235.5" font-family="Helvetica,sans-Serif" font-size="10.00">etriangle_sas</text>
</a>
</g>
</g>
<!-- Node20&#45;&gt;Node23 -->
<g id="edge30" class="edge"><title>Node20&#45;&gt;Node23</title>
<path fill="none" stroke="midnightblue" d="M183.053,-374.705C184.457,-373.556 185.781,-372.323 187,-371 222.999,-331.921 187.001,-296.079 223,-257 226.545,-253.151 230.983,-250.063 235.7,-247.59"/>
<polygon fill="midnightblue" stroke="midnightblue" points="180.767,-372.017 174.3,-380.41 184.589,-377.882 180.767,-372.017"/>
</g>
<!-- Node24 -->
<g id="node24" class="node"><title>Node24</title>
<g id="a_node24"><a xlink:href="group__shapes__2de.html#ga5b1240a97e34583d10011e5d0044ca28" target="_top" xlink:title="An extruded general triangle specified by a side and two adjacent angles. ">
<polygon fill="white" stroke="black" points="233.5,-190.5 233.5,-209.5 307.5,-209.5 307.5,-190.5 233.5,-190.5"/>
<text text-anchor="middle" x="270.5" y="-197.5" font-family="Helvetica,sans-Serif" font-size="10.00">etriangle_asa</text>
</a>
</g>
</g>
<!-- Node20&#45;&gt;Node24 -->
<g id="edge31" class="edge"><title>Node20&#45;&gt;Node24</title>
<path fill="none" stroke="midnightblue" d="M183.314,-374.698C184.633,-373.552 185.87,-372.321 187,-371 232.133,-318.248 177.867,-271.752 223,-219 226.288,-215.157 230.473,-212.08 234.98,-209.619"/>
<polygon fill="midnightblue" stroke="midnightblue" points="181.291,-371.842 175.02,-380.381 185.247,-377.616 181.291,-371.842"/>
</g>
<!-- Node25 -->
<g id="node25" class="node"><title>Node25</title>
<g id="a_node25"><a xlink:href="group__shapes__2de.html#ga8a3300cf4ca82dad9002965960a76a9c" target="_top" xlink:title="An extruded general triangle specified by a side, one adjacent angle and the opposite angle...">
<polygon fill="white" stroke="black" points="233.5,-114.5 233.5,-133.5 307.5,-133.5 307.5,-114.5 233.5,-114.5"/>
<text text-anchor="middle" x="270.5" y="-121.5" font-family="Helvetica,sans-Serif" font-size="10.00">etriangle_aas</text>
</a>
</g>
</g>
<!-- Node20&#45;&gt;Node25 -->
<g id="edge32" class="edge"><title>Node20&#45;&gt;Node25</title>
<path fill="none" stroke="midnightblue" d="M183.906,-374.365C185.014,-373.315 186.051,-372.195 187,-371 249.459,-292.401 164.081,-229.287 223,-148 227.479,-141.821 234.025,-137.113 240.799,-133.576"/>
<polygon fill="midnightblue" stroke="midnightblue" points="181.748,-371.607 175.735,-380.331 185.875,-377.261 181.748,-371.607"/>
</g>
<!-- Node26 -->
<g id="node26" class="node"><title>Node26</title>
<g id="a_node26"><a xlink:href="group__shapes__2de.html#gac86de6d90f92b19be2fda894d97dfad4" target="_top" xlink:title="An extruded right&#45;angled triangle specified by its opposite and adjacent side lengths. ">
<polygon fill="white" stroke="black" points="236,-76.5 236,-95.5 305,-95.5 305,-76.5 236,-76.5"/>
<text text-anchor="middle" x="270.5" y="-83.5" font-family="Helvetica,sans-Serif" font-size="10.00">etriangle_ss</text>
</a>
</g>
</g>
<!-- Node20&#45;&gt;Node26 -->
<g id="edge33" class="edge"><title>Node20&#45;&gt;Node26</title>
<path fill="none" stroke="midnightblue" d="M183.945,-374.397C185.042,-373.337 186.066,-372.207 187,-371 260.023,-276.66 149.977,-199.34 223,-105 226.31,-100.724 230.743,-97.4052 235.563,-94.8301"/>
<polygon fill="midnightblue" stroke="midnightblue" points="181.785,-371.642 175.825,-380.401 185.946,-377.27 181.785,-371.642"/>
</g>
<!-- Node27 -->
<g id="node27" class="node"><title>Node27</title>
<g id="a_node27"><a xlink:href="group__shapes__2de.html#gaa80e1bde5ce902feba29d0d57169b8d5" target="_top" xlink:title="An extruded right&#45;angled triangle specified by a side length and an angle. ">
<polygon fill="white" stroke="black" points="236,-38.5 236,-57.5 305,-57.5 305,-38.5 236,-38.5"/>
<text text-anchor="middle" x="270.5" y="-45.5" font-family="Helvetica,sans-Serif" font-size="10.00">etriangle_sa</text>
</a>
</g>
</g>
<!-- Node20&#45;&gt;Node27 -->
<g id="edge34" class="edge"><title>Node20&#45;&gt;Node27</title>
<path fill="none" stroke="midnightblue" d="M183.972,-374.417C185.061,-373.352 186.076,-372.215 187,-371 269.38,-262.72 140.62,-175.28 223,-67 226.379,-62.5581 230.975,-59.1496 235.968,-56.5355"/>
<polygon fill="midnightblue" stroke="midnightblue" points="181.809,-371.663 175.884,-380.446 185.993,-377.276 181.809,-371.663"/>
</g>
<!-- Node28 -->
<g id="node28" class="node"><title>Node28</title>
<g id="a_node28"><a xlink:href="group__shapes__2de.html#ga67e3b7f863de9d93ec949f5d39a6e04a" target="_top" xlink:title="An extruded n&#45;sided equiangular/equilateral regular polygon. ">
<polygon fill="white" stroke="black" points="249,-0.5 249,-19.5 292,-19.5 292,-0.5 249,-0.5"/>
<text text-anchor="middle" x="270.5" y="-7.5" font-family="Helvetica,sans-Serif" font-size="10.00">engon</text>
</a>
</g>
</g>
<!-- Node20&#45;&gt;Node28 -->
<g id="edge35" class="edge"><title>Node20&#45;&gt;Node28</title>
<path fill="none" stroke="midnightblue" d="M183.992,-374.432C185.076,-373.363 186.084,-372.221 187,-371 278.751,-248.764 131.249,-151.236 223,-29 229.178,-20.7699 239.54,-16.0901 248.916,-13.4363"/>
<polygon fill="midnightblue" stroke="midnightblue" points="181.828,-371.68 175.93,-380.482 186.029,-377.28 181.828,-371.68"/>
</g>
<!-- Node29 -->
<g id="node29" class="node"><title>Node29</title>
<g id="a_node29"><a xlink:href="group__shapes__2de.html#ga8a0fdbbb045a70b7207fd84abeb7b18a" target="_top" xlink:title="An extruded ellipse. ">
<polygon fill="white" stroke="black" points="245.5,-456.5 245.5,-475.5 295.5,-475.5 295.5,-456.5 245.5,-456.5"/>
<text text-anchor="middle" x="270.5" y="-463.5" font-family="Helvetica,sans-Serif" font-size="10.00">eellipse</text>
</a>
</g>
</g>
<!-- Node20&#45;&gt;Node29 -->
<g id="edge36" class="edge"><title>Node20&#45;&gt;Node29</title>
<path fill="none" stroke="midnightblue" d="M160.736,-405.833C176.968,-418.068 200.654,-434.901 223,-447 230.055,-450.82 238.045,-454.348 245.387,-457.301"/>
<polygon fill="midnightblue" stroke="midnightblue" points="162.611,-402.86 152.541,-399.568 158.36,-408.422 162.611,-402.86"/>
</g>
<!-- Node30 -->
<g id="node30" class="node"><title>Node30</title>
<g id="a_node30"><a xlink:href="group__shapes__2de.html#ga3189db3471cd678cc0f8d88f325186eb" target="_top" xlink:title="An extruded ellipse with a removed elliptical core. ">
<polygon fill="white" stroke="black" points="240.5,-418.5 240.5,-437.5 300.5,-437.5 300.5,-418.5 240.5,-418.5"/>
<text text-anchor="middle" x="270.5" y="-425.5" font-family="Helvetica,sans-Serif" font-size="10.00">eellipse_c</text>
</a>
</g>
</g>
<!-- Node20&#45;&gt;Node30 -->
<g id="edge37" class="edge"><title>Node20&#45;&gt;Node30</title>
<path fill="none" stroke="midnightblue" d="M182.902,-402.491C201.768,-408.048 223.504,-414.451 240.48,-419.451"/>
<polygon fill="midnightblue" stroke="midnightblue" points="183.634,-399.057 173.052,-399.589 181.656,-405.772 183.634,-399.057"/>
</g>
<!-- Node31 -->
<g id="node31" class="node"><title>Node31</title>
<g id="a_node31"><a xlink:href="group__shapes__2de.html#gaea89a352b138d105073d0a401b94c024" target="_top" xlink:title="An extruded ellipse sector. ">
<polygon fill="white" stroke="black" points="240.5,-380.5 240.5,-399.5 300.5,-399.5 300.5,-380.5 240.5,-380.5"/>
<text text-anchor="middle" x="270.5" y="-387.5" font-family="Helvetica,sans-Serif" font-size="10.00">eellipse_s</text>
</a>
</g>
</g>
<!-- Node20&#45;&gt;Node31 -->
<g id="edge38" class="edge"><title>Node20&#45;&gt;Node31</title>
<path fill="none" stroke="midnightblue" d="M197.226,-390C212.08,-390 227.491,-390 240.248,-390"/>
<polygon fill="midnightblue" stroke="midnightblue" points="197.072,-386.5 187.072,-390 197.072,-393.5 197.072,-386.5"/>
</g>
<!-- Node32 -->
<g id="node32" class="node"><title>Node32</title>
<g id="a_node32"><a xlink:href="group__shapes__2de.html#gae015f9c06a0ad064212475dcd1c1eb5c" target="_top" xlink:title="An extruded sector of an ellipse with a removed elliptical core. ">
<polygon fill="white" stroke="black" points="238,-342.5 238,-361.5 303,-361.5 303,-342.5 238,-342.5"/>
<text text-anchor="middle" x="270.5" y="-349.5" font-family="Helvetica,sans-Serif" font-size="10.00">eellipse_cs</text>
</a>
</g>
</g>
<!-- Node20&#45;&gt;Node32 -->
<g id="edge39" class="edge"><title>Node20&#45;&gt;Node32</title>
<path fill="none" stroke="midnightblue" d="M182.713,-377.565C200.663,-372.278 221.239,-366.216 237.85,-361.323"/>
<polygon fill="midnightblue" stroke="midnightblue" points="181.656,-374.228 173.052,-380.411 183.634,-380.943 181.656,-374.228"/>
</g>
</g>
</svg>
