<?xml version="1.0" encoding="UTF-8" standalone="no"?>
<!DOCTYPE svg PUBLIC "-//W3C//DTD SVG 1.1//EN"
 "http://www.w3.org/Graphics/SVG/1.1/DTD/svg11.dtd">
<!-- Generated by graphviz version 2.38.0 (20140413.2041)
 -->
<!-- Title: erectangle Pages: 1 -->
<svg width="326pt" height="142pt"
 viewBox="0.00 0.00 326.00 142.00" xmlns="http://www.w3.org/2000/svg" xmlns:xlink="http://www.w3.org/1999/xlink">
<g id="graph0" class="graph" transform="scale(1 1) rotate(0) translate(4 138)">
<title>erectangle</title>
<polygon fill="white" stroke="none" points="-4,4 -4,-138 322,-138 322,4 -4,4"/>
<!-- Node1 -->
<g id="node1" class="node"><title>Node1</title>
<polygon fill="#bfbfbf" stroke="black" points="0,-76.5 0,-95.5 62,-95.5 62,-76.5 0,-76.5"/>
<text text-anchor="middle" x="31" y="-83.5" font-family="Helvetica,sans-Serif" font-size="10.00">erectangle</text>
</g>
<!-- Node2 -->
<g id="node2" class="node"><title>Node2</title>
<g id="a_node2"><a xlink:href="group__tools__extrude.html#ga2cb6eb6927858c6b5e1e2dfadb197bf9" target="_top" xlink:title="Linearly extrude 2d shape with extrusion upper and lower scaling. ">
<polygon fill="white" stroke="black" points="98,-95.5 98,-114.5 193,-114.5 193,-95.5 98,-95.5"/>
<text text-anchor="middle" x="145.5" y="-102.5" font-family="Helvetica,sans-Serif" font-size="10.00">linear_extrude_uls</text>
</a>
</g>
</g>
<!-- Node1&#45;&gt;Node2 -->
<g id="edge1" class="edge"><title>Node1&#45;&gt;Node2</title>
<path fill="none" stroke="midnightblue" d="M62.1479,-91.0917C70.0925,-92.4334 78.9295,-93.9259 87.7821,-95.421"/>
<polygon fill="midnightblue" stroke="midnightblue" points="87.2935,-98.8879 97.7367,-97.1022 88.4592,-91.9857 87.2935,-98.8879"/>
</g>
<!-- Node5 -->
<g id="node5" class="node"><title>Node5</title>
<g id="a_node5"><a xlink:href="group__shapes__2d.html#ga9f679c29426c44ee83b4a13b5dd47138" target="_top" xlink:title="A rectangle with edge, fillet, and/or chamfer corners. ">
<polygon fill="white" stroke="black" points="117.5,-57.5 117.5,-76.5 173.5,-76.5 173.5,-57.5 117.5,-57.5"/>
<text text-anchor="middle" x="145.5" y="-64.5" font-family="Helvetica,sans-Serif" font-size="10.00">rectangle</text>
</a>
</g>
</g>
<!-- Node1&#45;&gt;Node5 -->
<g id="edge4" class="edge"><title>Node1&#45;&gt;Node5</title>
<path fill="none" stroke="midnightblue" d="M62.1479,-80.9083C75.9746,-78.5732 92.5048,-75.7814 107.115,-73.314"/>
<polygon fill="midnightblue" stroke="midnightblue" points="108.07,-76.7023 117.348,-71.5857 106.904,-69.8 108.07,-76.7023"/>
</g>
<!-- Node3 -->
<g id="node3" class="node"><title>Node3</title>
<g id="a_node3"><a xlink:href="group__datatypes__identify__scalar.html#ga62dbd35f498bfc2a090812b1cf8a37c4" target="_top" xlink:title="Test if a value is not defined. ">
<polygon fill="white" stroke="black" points="240,-114.5 240,-133.5 307,-133.5 307,-114.5 240,-114.5"/>
<text text-anchor="middle" x="273.5" y="-121.5" font-family="Helvetica,sans-Serif" font-size="10.00">not_defined</text>
</a>
</g>
</g>
<!-- Node2&#45;&gt;Node3 -->
<g id="edge2" class="edge"><title>Node2&#45;&gt;Node3</title>
<path fill="none" stroke="midnightblue" d="M193.06,-112.021C205.097,-113.836 217.994,-115.781 229.822,-117.564"/>
<polygon fill="midnightblue" stroke="midnightblue" points="229.482,-121.053 239.892,-119.083 230.526,-114.131 229.482,-121.053"/>
</g>
<!-- Node4 -->
<g id="node4" class="node"><title>Node4</title>
<g id="a_node4"><a xlink:href="group__datatypes__identify__scalar.html#ga258e8911375d30ff85a6e52df01dc1c5" target="_top" xlink:title="Test if a value is a single non&#45;iterable value. ">
<polygon fill="white" stroke="black" points="245.5,-76.5 245.5,-95.5 301.5,-95.5 301.5,-76.5 245.5,-76.5"/>
<text text-anchor="middle" x="273.5" y="-83.5" font-family="Helvetica,sans-Serif" font-size="10.00">is_scalar</text>
</a>
</g>
</g>
<!-- Node2&#45;&gt;Node4 -->
<g id="edge3" class="edge"><title>Node2&#45;&gt;Node4</title>
<path fill="none" stroke="midnightblue" d="M193.06,-97.9791C206.889,-95.8938 221.854,-93.6371 235.027,-91.6507"/>
<polygon fill="midnightblue" stroke="midnightblue" points="235.785,-95.076 245.151,-90.124 234.741,-88.1543 235.785,-95.076"/>
</g>
<!-- Node5&#45;&gt;Node3 -->
<g id="edge6" class="edge"><title>Node5&#45;&gt;Node3</title>
<path fill="none" stroke="midnightblue" d="M171.309,-76.614C178.378,-79.4941 186.046,-82.7537 193,-86 209.393,-93.6529 212.699,-97.1517 229,-105 232.655,-106.76 236.512,-108.545 240.359,-110.281"/>
<polygon fill="midnightblue" stroke="midnightblue" points="239.218,-113.604 249.779,-114.452 242.052,-107.203 239.218,-113.604"/>
</g>
<!-- Node5&#45;&gt;Node4 -->
<g id="edge7" class="edge"><title>Node5&#45;&gt;Node4</title>
<path fill="none" stroke="midnightblue" d="M173.53,-71.076C191.511,-73.7873 215.37,-77.3851 235.156,-80.3688"/>
<polygon fill="midnightblue" stroke="midnightblue" points="234.67,-83.8349 245.08,-81.8652 235.713,-76.9132 234.67,-83.8349"/>
</g>
<!-- Node6 -->
<g id="node6" class="node"><title>Node6</title>
<g id="a_node6"><a xlink:href="group__datatypes__operate__iterable.html#ga3d679b4617986e31d5e2803971b37af8" target="_top" xlink:title="Return an iterable element when it exists or a default value when it does not. ">
<polygon fill="white" stroke="black" points="240,-38.5 240,-57.5 307,-57.5 307,-38.5 240,-38.5"/>
<text text-anchor="middle" x="273.5" y="-45.5" font-family="Helvetica,sans-Serif" font-size="10.00">edefined_or</text>
</a>
</g>
</g>
<!-- Node5&#45;&gt;Node6 -->
<g id="edge5" class="edge"><title>Node5&#45;&gt;Node6</title>
<path fill="none" stroke="midnightblue" d="M173.53,-62.924C189.881,-60.4584 211.094,-57.2596 229.685,-54.4563"/>
<polygon fill="midnightblue" stroke="midnightblue" points="230.329,-57.8987 239.696,-52.9467 229.286,-50.977 230.329,-57.8987"/>
</g>
<!-- Node7 -->
<g id="node7" class="node"><title>Node7</title>
<g id="a_node7"><a xlink:href="group__math__bitwise.html#ga31b8c7bc875d9fadd86b49a1ba39d1a4" target="_top" xlink:title="Test if a base&#45;two bit position of an integer value equals a test bit. ">
<polygon fill="white" stroke="black" points="229,-0.5 229,-19.5 318,-19.5 318,-0.5 229,-0.5"/>
<text text-anchor="middle" x="273.5" y="-7.5" font-family="Helvetica,sans-Serif" font-size="10.00">bitwise_is_equal</text>
</a>
</g>
</g>
<!-- Node5&#45;&gt;Node7 -->
<g id="edge8" class="edge"><title>Node5&#45;&gt;Node7</title>
<path fill="none" stroke="midnightblue" d="M167.13,-57.36C183.787,-49.6098 207.85,-38.4887 229,-29 232.891,-27.2543 236.987,-25.438 241.045,-23.6509"/>
<polygon fill="midnightblue" stroke="midnightblue" points="242.578,-26.8003 250.333,-19.5811 239.769,-20.3888 242.578,-26.8003"/>
</g>
</g>
</svg>
