<?xml version="1.0" encoding="UTF-8" standalone="no"?>
<!DOCTYPE svg PUBLIC "-//W3C//DTD SVG 1.1//EN"
 "http://www.w3.org/Graphics/SVG/1.1/DTD/svg11.dtd">
<!-- Generated by graphviz version 2.38.0 (20140413.2041)
 -->
<!-- Title: triangle_ppp Pages: 1 -->
<svg width="520pt" height="408pt"
 viewBox="0.00 0.00 520.00 408.00" xmlns="http://www.w3.org/2000/svg" xmlns:xlink="http://www.w3.org/1999/xlink">
<g id="graph0" class="graph" transform="scale(1 1) rotate(0) translate(4 404)">
<title>triangle_ppp</title>
<polygon fill="white" stroke="none" points="-4,4 -4,-404 516,-404 516,4 -4,4"/>
<!-- Node1 -->
<g id="node1" class="node"><title>Node1</title>
<polygon fill="#bfbfbf" stroke="black" points="0,-76.5 0,-95.5 69,-95.5 69,-76.5 0,-76.5"/>
<text text-anchor="middle" x="34.5" y="-83.5" font-family="Helvetica,sans-Serif" font-size="10.00">triangle_ppp</text>
</g>
<!-- Node2 -->
<g id="node2" class="node"><title>Node2</title>
<g id="a_node2"><a xlink:href="group__shapes__2d.html#ga9fe8dcb93cf5fca81671a04f1ccb562c" target="_top" xlink:title="A general triangle specified by a list of its three vertices. ">
<polygon fill="white" stroke="black" points="111.5,-247.5 111.5,-266.5 172.5,-266.5 172.5,-247.5 111.5,-247.5"/>
<text text-anchor="middle" x="142" y="-254.5" font-family="Helvetica,sans-Serif" font-size="10.00">triangle_lp</text>
</a>
</g>
</g>
<!-- Node1&#45;&gt;Node2 -->
<g id="edge1" class="edge"><title>Node1&#45;&gt;Node2</title>
<path fill="none" stroke="midnightblue" d="M46.7693,-104.266C69.068,-140.409 118.128,-219.927 135.091,-247.423"/>
<polygon fill="midnightblue" stroke="midnightblue" points="49.7039,-102.357 41.4744,-95.6837 43.7464,-106.032 49.7039,-102.357"/>
</g>
<!-- Node4 -->
<g id="node4" class="node"><title>Node4</title>
<g id="a_node4"><a xlink:href="group__shapes__2d.html#gab40e6edfc3c5ab69a4db26301318cd86" target="_top" xlink:title="A general triangle specified by its three side lengths. ">
<polygon fill="white" stroke="black" points="107.5,-152.5 107.5,-171.5 176.5,-171.5 176.5,-152.5 107.5,-152.5"/>
<text text-anchor="middle" x="142" y="-159.5" font-family="Helvetica,sans-Serif" font-size="10.00">triangle_sss</text>
</a>
</g>
</g>
<!-- Node1&#45;&gt;Node4 -->
<g id="edge3" class="edge"><title>Node1&#45;&gt;Node4</title>
<path fill="none" stroke="midnightblue" d="M57.248,-101.667C78.4625,-116.949 110.047,-139.702 127.747,-152.453"/>
<polygon fill="midnightblue" stroke="midnightblue" points="59.0213,-98.6307 48.8616,-95.6255 54.9298,-104.31 59.0213,-98.6307"/>
</g>
<!-- Node20 -->
<g id="node20" class="node"><title>Node20</title>
<g id="a_node20"><a xlink:href="group__shapes__2d.html#ga0f93c98a50f652382cce6e2a9080a14d" target="_top" xlink:title="A right&#45;angled triangle specified by its opposite and adjacent side lengths. ">
<polygon fill="white" stroke="black" points="110,-76.5 110,-95.5 174,-95.5 174,-76.5 110,-76.5"/>
<text text-anchor="middle" x="142" y="-83.5" font-family="Helvetica,sans-Serif" font-size="10.00">triangle_ss</text>
</a>
</g>
</g>
<!-- Node1&#45;&gt;Node20 -->
<g id="edge19" class="edge"><title>Node1&#45;&gt;Node20</title>
<path fill="none" stroke="midnightblue" d="M79.2165,-86C89.4787,-86 100.211,-86 109.797,-86"/>
<polygon fill="midnightblue" stroke="midnightblue" points="79.171,-82.5001 69.1709,-86 79.1709,-89.5001 79.171,-82.5001"/>
</g>
<!-- Node22 -->
<g id="node22" class="node"><title>Node22</title>
<g id="a_node22"><a xlink:href="group__shapes__2d.html#ga84e0a2811547e6c658909671d9e2bc0b" target="_top" xlink:title="A right&#45;angled triangle specified by a side length and an angle. ">
<polygon fill="white" stroke="black" points="110,-38.5 110,-57.5 174,-57.5 174,-38.5 110,-38.5"/>
<text text-anchor="middle" x="142" y="-45.5" font-family="Helvetica,sans-Serif" font-size="10.00">triangle_sa</text>
</a>
</g>
</g>
<!-- Node1&#45;&gt;Node22 -->
<g id="edge21" class="edge"><title>Node1&#45;&gt;Node22</title>
<path fill="none" stroke="midnightblue" d="M71.9197,-72.882C85.8733,-67.8561 101.518,-62.2209 114.386,-57.5859"/>
<polygon fill="midnightblue" stroke="midnightblue" points="70.3443,-69.7292 62.1221,-76.411 72.7165,-76.3151 70.3443,-69.7292"/>
</g>
<!-- Node24 -->
<g id="node24" class="node"><title>Node24</title>
<g id="a_node24"><a xlink:href="group__shapes__2de.html#ga115ebc47b0630da820f163c0627c9b18" target="_top" xlink:title="An extruded general triangle specified by three vertices. ">
<polygon fill="white" stroke="black" points="105,-0.5 105,-19.5 179,-19.5 179,-0.5 105,-0.5"/>
<text text-anchor="middle" x="142" y="-7.5" font-family="Helvetica,sans-Serif" font-size="10.00">etriangle_ppp</text>
</a>
</g>
</g>
<!-- Node1&#45;&gt;Node24 -->
<g id="edge23" class="edge"><title>Node1&#45;&gt;Node24</title>
<path fill="none" stroke="midnightblue" d="M53.4648,-69.5612C67.0572,-57.5562 86.4843,-41.2973 105,-29 110.063,-25.6375 115.787,-22.39 121.156,-19.5596"/>
<polygon fill="midnightblue" stroke="midnightblue" points="50.9293,-67.1336 45.816,-76.4129 55.5999,-72.3476 50.9293,-67.1336"/>
</g>
<!-- Node3 -->
<g id="node3" class="node"><title>Node3</title>
<g id="a_node3"><a xlink:href="group__shapes__2de.html#ga919151e4d8f40c9218c63b867fb80b7b" target="_top" xlink:title="An extruded general triangle specified by a list of its three vertices. ">
<polygon fill="white" stroke="black" points="219,-304.5 219,-323.5 285,-323.5 285,-304.5 219,-304.5"/>
<text text-anchor="middle" x="252" y="-311.5" font-family="Helvetica,sans-Serif" font-size="10.00">etriangle_lp</text>
</a>
</g>
</g>
<!-- Node2&#45;&gt;Node3 -->
<g id="edge2" class="edge"><title>Node2&#45;&gt;Node3</title>
<path fill="none" stroke="midnightblue" d="M170.384,-271.453C190.003,-281.807 215.872,-295.46 232.95,-304.474"/>
<polygon fill="midnightblue" stroke="midnightblue" points="171.798,-268.242 161.321,-266.669 168.531,-274.432 171.798,-268.242"/>
</g>
<!-- Node5 -->
<g id="node5" class="node"><title>Node5</title>
<g id="a_node5"><a xlink:href="group__shapes__2d.html#ga5321277acf52177e1c7928c13377dd00" target="_top" xlink:title="A general triangle specified by a list of its three side lengths. ">
<polygon fill="white" stroke="black" points="221.5,-266.5 221.5,-285.5 282.5,-285.5 282.5,-266.5 221.5,-266.5"/>
<text text-anchor="middle" x="252" y="-273.5" font-family="Helvetica,sans-Serif" font-size="10.00">triangle_ls</text>
</a>
</g>
</g>
<!-- Node4&#45;&gt;Node5 -->
<g id="edge4" class="edge"><title>Node4&#45;&gt;Node5</title>
<path fill="none" stroke="midnightblue" d="M153.591,-180.496C166.147,-201.175 188.716,-234.684 215,-257 219.202,-260.568 224.185,-263.725 229.084,-266.391"/>
<polygon fill="midnightblue" stroke="midnightblue" points="156.509,-178.555 148.403,-171.732 150.485,-182.12 156.509,-178.555"/>
</g>
<!-- Node12 -->
<g id="node12" class="node"><title>Node12</title>
<g id="a_node12"><a xlink:href="group__shapes__2d.html#gac6b0e8a6784a03e427d8b14eee7d90ca" target="_top" xlink:title="A general triangle specified by two sides and the included angle. ">
<polygon fill="white" stroke="black" points="217.5,-228.5 217.5,-247.5 286.5,-247.5 286.5,-228.5 217.5,-228.5"/>
<text text-anchor="middle" x="252" y="-235.5" font-family="Helvetica,sans-Serif" font-size="10.00">triangle_sas</text>
</a>
</g>
</g>
<!-- Node4&#45;&gt;Node12 -->
<g id="edge11" class="edge"><title>Node4&#45;&gt;Node12</title>
<path fill="none" stroke="midnightblue" d="M161.704,-178.378C175.832,-190.353 195.976,-206.6 215,-219 220.092,-222.319 225.825,-225.552 231.194,-228.382"/>
<polygon fill="midnightblue" stroke="midnightblue" points="163.615,-175.406 153.748,-171.547 159.055,-180.717 163.615,-175.406"/>
</g>
<!-- Node14 -->
<g id="node14" class="node"><title>Node14</title>
<g id="a_node14"><a xlink:href="group__shapes__2d.html#gaaefcea1b06acb7b1633e86f657341701" target="_top" xlink:title="A general triangle specified by a side and two adjacent angles. ">
<polygon fill="white" stroke="black" points="217.5,-190.5 217.5,-209.5 286.5,-209.5 286.5,-190.5 217.5,-190.5"/>
<text text-anchor="middle" x="252" y="-197.5" font-family="Helvetica,sans-Serif" font-size="10.00">triangle_asa</text>
</a>
</g>
</g>
<!-- Node4&#45;&gt;Node14 -->
<g id="edge13" class="edge"><title>Node4&#45;&gt;Node14</title>
<path fill="none" stroke="midnightblue" d="M179.867,-174.972C194.256,-180.034 210.455,-185.734 223.756,-190.414"/>
<polygon fill="midnightblue" stroke="midnightblue" points="180.848,-171.607 170.253,-171.589 178.524,-178.21 180.848,-171.607"/>
</g>
<!-- Node16 -->
<g id="node16" class="node"><title>Node16</title>
<g id="a_node16"><a xlink:href="group__shapes__2d.html#gad0730473c871f346877e8ef91e2bdfd4" target="_top" xlink:title="A general triangle specified by a side, one adjacent angle and the opposite angle. ">
<polygon fill="white" stroke="black" points="217.5,-152.5 217.5,-171.5 286.5,-171.5 286.5,-152.5 217.5,-152.5"/>
<text text-anchor="middle" x="252" y="-159.5" font-family="Helvetica,sans-Serif" font-size="10.00">triangle_aas</text>
</a>
</g>
</g>
<!-- Node4&#45;&gt;Node16 -->
<g id="edge15" class="edge"><title>Node4&#45;&gt;Node16</title>
<path fill="none" stroke="midnightblue" d="M186.622,-162C196.895,-162 207.69,-162 217.441,-162"/>
<polygon fill="midnightblue" stroke="midnightblue" points="186.58,-158.5 176.58,-162 186.58,-165.5 186.58,-158.5"/>
</g>
<!-- Node18 -->
<g id="node18" class="node"><title>Node18</title>
<g id="a_node18"><a xlink:href="group__shapes__2de.html#ga4940596130c3cd1e62fea77569459a52" target="_top" xlink:title="An extruded general triangle specified by its three side lengths. ">
<polygon fill="white" stroke="black" points="215,-114.5 215,-133.5 289,-133.5 289,-114.5 215,-114.5"/>
<text text-anchor="middle" x="252" y="-121.5" font-family="Helvetica,sans-Serif" font-size="10.00">etriangle_sss</text>
</a>
</g>
</g>
<!-- Node4&#45;&gt;Node18 -->
<g id="edge17" class="edge"><title>Node4&#45;&gt;Node18</title>
<path fill="none" stroke="midnightblue" d="M179.867,-149.028C194.256,-143.966 210.455,-138.266 223.756,-133.586"/>
<polygon fill="midnightblue" stroke="midnightblue" points="178.524,-145.79 170.253,-152.411 180.848,-152.393 178.524,-145.79"/>
</g>
<!-- Node19 -->
<g id="node19" class="node"><title>Node19</title>
<g id="a_node19"><a xlink:href="group__shapes__3d.html#ga66f0c4a748f33cc1fff3343655b17f45" target="_top" xlink:title="A cone. ">
<polygon fill="white" stroke="black" points="233,-76.5 233,-95.5 271,-95.5 271,-76.5 233,-76.5"/>
<text text-anchor="middle" x="252" y="-83.5" font-family="Helvetica,sans-Serif" font-size="10.00">cone</text>
</a>
</g>
</g>
<!-- Node4&#45;&gt;Node19 -->
<g id="edge18" class="edge"><title>Node4&#45;&gt;Node19</title>
<path fill="none" stroke="midnightblue" d="M161.704,-145.622C175.832,-133.647 195.976,-117.4 215,-105 220.565,-101.373 226.897,-97.8474 232.683,-94.8384"/>
<polygon fill="midnightblue" stroke="midnightblue" points="159.055,-143.283 153.748,-152.453 163.615,-148.594 159.055,-143.283"/>
</g>
<!-- Node6 -->
<g id="node6" class="node"><title>Node6</title>
<g id="a_node6"><a xlink:href="group__shapes__2d.html#ga7eefb280ad124a8d35eb4218e5f0bdad" target="_top" xlink:title="A general triangle specified by its sides with a removed triangular core. ">
<polygon fill="white" stroke="black" points="326.5,-342.5 326.5,-361.5 397.5,-361.5 397.5,-342.5 326.5,-342.5"/>
<text text-anchor="middle" x="362" y="-349.5" font-family="Helvetica,sans-Serif" font-size="10.00">triangle_ls_c</text>
</a>
</g>
</g>
<!-- Node5&#45;&gt;Node6 -->
<g id="edge5" class="edge"><title>Node5&#45;&gt;Node6</title>
<path fill="none" stroke="midnightblue" d="M282.597,-290.586C284.819,-291.992 286.98,-293.468 289,-295 307.534,-309.061 306.466,-318.939 325,-333 329.617,-336.503 334.969,-339.711 340.113,-342.454"/>
<polygon fill="midnightblue" stroke="midnightblue" points="284.295,-287.525 273.887,-285.546 280.79,-293.584 284.295,-287.525"/>
</g>
<!-- Node9 -->
<g id="node9" class="node"><title>Node9</title>
<g id="a_node9"><a xlink:href="group__shapes__2d.html#ga7452bf5414a3677ec806a31aed6b61dd" target="_top" xlink:title="A two&#45;dimensional star. ">
<polygon fill="white" stroke="black" points="340,-304.5 340,-323.5 384,-323.5 384,-304.5 340,-304.5"/>
<text text-anchor="middle" x="362" y="-311.5" font-family="Helvetica,sans-Serif" font-size="10.00">star2d</text>
</a>
</g>
</g>
<!-- Node5&#45;&gt;Node9 -->
<g id="edge8" class="edge"><title>Node5&#45;&gt;Node9</title>
<path fill="none" stroke="midnightblue" d="M289.753,-288.932C306.467,-294.812 325.643,-301.56 339.888,-306.572"/>
<polygon fill="midnightblue" stroke="midnightblue" points="290.848,-285.607 280.253,-285.589 288.524,-292.21 290.848,-285.607"/>
</g>
<!-- Node11 -->
<g id="node11" class="node"><title>Node11</title>
<g id="a_node11"><a xlink:href="group__shapes__2de.html#gace35f9581cef6d5c20c3fd1d922284d1" target="_top" xlink:title="An extruded general triangle specified by a list of its three side lengths. ">
<polygon fill="white" stroke="black" points="329,-266.5 329,-285.5 395,-285.5 395,-266.5 329,-266.5"/>
<text text-anchor="middle" x="362" y="-273.5" font-family="Helvetica,sans-Serif" font-size="10.00">etriangle_ls</text>
</a>
</g>
</g>
<!-- Node5&#45;&gt;Node11 -->
<g id="edge10" class="edge"><title>Node5&#45;&gt;Node11</title>
<path fill="none" stroke="midnightblue" d="M292.662,-276C304.581,-276 317.504,-276 328.871,-276"/>
<polygon fill="midnightblue" stroke="midnightblue" points="292.512,-272.5 282.511,-276 292.511,-279.5 292.512,-272.5"/>
</g>
<!-- Node7 -->
<g id="node7" class="node"><title>Node7</title>
<g id="a_node7"><a xlink:href="group__shapes__2de.html#ga0c99582ccf3d5b1425c99001b228c202" target="_top" xlink:title="A general triangle specified by its sides with a removed triangular core. ">
<polygon fill="white" stroke="black" points="435,-380.5 435,-399.5 512,-399.5 512,-380.5 435,-380.5"/>
<text text-anchor="middle" x="473.5" y="-387.5" font-family="Helvetica,sans-Serif" font-size="10.00">etriangle_ls_c</text>
</a>
</g>
</g>
<!-- Node6&#45;&gt;Node7 -->
<g id="edge6" class="edge"><title>Node6&#45;&gt;Node7</title>
<path fill="none" stroke="midnightblue" d="M400.379,-364.972C414.968,-370.034 431.392,-375.734 444.877,-380.414"/>
<polygon fill="midnightblue" stroke="midnightblue" points="401.226,-361.561 390.631,-361.589 398.931,-368.174 401.226,-361.561"/>
</g>
<!-- Node8 -->
<g id="node8" class="node"><title>Node8</title>
<g id="a_node8"><a xlink:href="group__shapes__3d.html#gaa3137155089f4d50c13ebea05402edd0" target="_top" xlink:title="A triangular cross&#45;sectional profile revolved about the z&#45;axis. ">
<polygon fill="white" stroke="black" points="447.5,-342.5 447.5,-361.5 499.5,-361.5 499.5,-342.5 447.5,-342.5"/>
<text text-anchor="middle" x="473.5" y="-349.5" font-family="Helvetica,sans-Serif" font-size="10.00">torus_tp</text>
</a>
</g>
</g>
<!-- Node6&#45;&gt;Node8 -->
<g id="edge7" class="edge"><title>Node6&#45;&gt;Node8</title>
<path fill="none" stroke="midnightblue" d="M407.776,-352C421.312,-352 435.69,-352 447.447,-352"/>
<polygon fill="midnightblue" stroke="midnightblue" points="407.647,-348.5 397.646,-352 407.646,-355.5 407.647,-348.5"/>
</g>
<!-- Node10 -->
<g id="node10" class="node"><title>Node10</title>
<g id="a_node10"><a xlink:href="group__shapes__2de.html#ga69ece32102ccb27e9985975fa4590251" target="_top" xlink:title="An extruded two&#45;dimensional star. ">
<polygon fill="white" stroke="black" points="449,-304.5 449,-323.5 498,-323.5 498,-304.5 449,-304.5"/>
<text text-anchor="middle" x="473.5" y="-311.5" font-family="Helvetica,sans-Serif" font-size="10.00">estar2d</text>
</a>
</g>
</g>
<!-- Node9&#45;&gt;Node10 -->
<g id="edge9" class="edge"><title>Node9&#45;&gt;Node10</title>
<path fill="none" stroke="midnightblue" d="M394.324,-314C411.655,-314 432.846,-314 448.791,-314"/>
<polygon fill="midnightblue" stroke="midnightblue" points="394.113,-310.5 384.113,-314 394.113,-317.5 394.113,-310.5"/>
</g>
<!-- Node13 -->
<g id="node13" class="node"><title>Node13</title>
<g id="a_node13"><a xlink:href="group__shapes__2de.html#gae4dc22fae0c22daa5d4844755cd268ac" target="_top" xlink:title="An extruded general triangle specified by two sides and the included angle. ">
<polygon fill="white" stroke="black" points="325,-228.5 325,-247.5 399,-247.5 399,-228.5 325,-228.5"/>
<text text-anchor="middle" x="362" y="-235.5" font-family="Helvetica,sans-Serif" font-size="10.00">etriangle_sas</text>
</a>
</g>
</g>
<!-- Node12&#45;&gt;Node13 -->
<g id="edge12" class="edge"><title>Node12&#45;&gt;Node13</title>
<path fill="none" stroke="midnightblue" d="M296.836,-238C306.131,-238 315.844,-238 324.817,-238"/>
<polygon fill="midnightblue" stroke="midnightblue" points="296.58,-234.5 286.58,-238 296.58,-241.5 296.58,-234.5"/>
</g>
<!-- Node15 -->
<g id="node15" class="node"><title>Node15</title>
<g id="a_node15"><a xlink:href="group__shapes__2de.html#ga5b1240a97e34583d10011e5d0044ca28" target="_top" xlink:title="An extruded general triangle specified by a side and two adjacent angles. ">
<polygon fill="white" stroke="black" points="325,-190.5 325,-209.5 399,-209.5 399,-190.5 325,-190.5"/>
<text text-anchor="middle" x="362" y="-197.5" font-family="Helvetica,sans-Serif" font-size="10.00">etriangle_asa</text>
</a>
</g>
</g>
<!-- Node14&#45;&gt;Node15 -->
<g id="edge14" class="edge"><title>Node14&#45;&gt;Node15</title>
<path fill="none" stroke="midnightblue" d="M296.836,-200C306.131,-200 315.844,-200 324.817,-200"/>
<polygon fill="midnightblue" stroke="midnightblue" points="296.58,-196.5 286.58,-200 296.58,-203.5 296.58,-196.5"/>
</g>
<!-- Node17 -->
<g id="node17" class="node"><title>Node17</title>
<g id="a_node17"><a xlink:href="group__shapes__2de.html#ga8a3300cf4ca82dad9002965960a76a9c" target="_top" xlink:title="An extruded general triangle specified by a side, one adjacent angle and the opposite angle...">
<polygon fill="white" stroke="black" points="325,-152.5 325,-171.5 399,-171.5 399,-152.5 325,-152.5"/>
<text text-anchor="middle" x="362" y="-159.5" font-family="Helvetica,sans-Serif" font-size="10.00">etriangle_aas</text>
</a>
</g>
</g>
<!-- Node16&#45;&gt;Node17 -->
<g id="edge16" class="edge"><title>Node16&#45;&gt;Node17</title>
<path fill="none" stroke="midnightblue" d="M296.836,-162C306.131,-162 315.844,-162 324.817,-162"/>
<polygon fill="midnightblue" stroke="midnightblue" points="296.58,-158.5 286.58,-162 296.58,-165.5 296.58,-158.5"/>
</g>
<!-- Node21 -->
<g id="node21" class="node"><title>Node21</title>
<g id="a_node21"><a xlink:href="group__shapes__2de.html#gac86de6d90f92b19be2fda894d97dfad4" target="_top" xlink:title="An extruded right&#45;angled triangle specified by its opposite and adjacent side lengths. ">
<polygon fill="white" stroke="black" points="217.5,-38.5 217.5,-57.5 286.5,-57.5 286.5,-38.5 217.5,-38.5"/>
<text text-anchor="middle" x="252" y="-45.5" font-family="Helvetica,sans-Serif" font-size="10.00">etriangle_ss</text>
</a>
</g>
</g>
<!-- Node20&#45;&gt;Node21 -->
<g id="edge20" class="edge"><title>Node20&#45;&gt;Node21</title>
<path fill="none" stroke="midnightblue" d="M179.867,-73.0282C194.256,-67.9656 210.455,-62.2659 223.756,-57.5859"/>
<polygon fill="midnightblue" stroke="midnightblue" points="178.524,-69.7903 170.253,-76.411 180.848,-76.3935 178.524,-69.7903"/>
</g>
<!-- Node23 -->
<g id="node23" class="node"><title>Node23</title>
<g id="a_node23"><a xlink:href="group__shapes__2de.html#gaa80e1bde5ce902feba29d0d57169b8d5" target="_top" xlink:title="An extruded right&#45;angled triangle specified by a side length and an angle. ">
<polygon fill="white" stroke="black" points="217.5,-0.5 217.5,-19.5 286.5,-19.5 286.5,-0.5 217.5,-0.5"/>
<text text-anchor="middle" x="252" y="-7.5" font-family="Helvetica,sans-Serif" font-size="10.00">etriangle_sa</text>
</a>
</g>
</g>
<!-- Node22&#45;&gt;Node23 -->
<g id="edge22" class="edge"><title>Node22&#45;&gt;Node23</title>
<path fill="none" stroke="midnightblue" d="M179.867,-35.0282C194.256,-29.9656 210.455,-24.2659 223.756,-19.5859"/>
<polygon fill="midnightblue" stroke="midnightblue" points="178.524,-31.7903 170.253,-38.411 180.848,-38.3935 178.524,-31.7903"/>
</g>
</g>
</svg>
