<?xml version="1.0" encoding="UTF-8" standalone="no"?>
<!DOCTYPE svg PUBLIC "-//W3C//DTD SVG 1.1//EN"
 "http://www.w3.org/Graphics/SVG/1.1/DTD/svg11.dtd">
<!-- Generated by graphviz version 2.38.0 (20140413.2041)
 -->
<!-- Title: Polytope Pages: 1 -->
<svg width="228pt" height="29pt"
 viewBox="0.00 0.00 228.00 29.00" xmlns="http://www.w3.org/2000/svg" xmlns:xlink="http://www.w3.org/1999/xlink">
<g id="graph0" class="graph" transform="scale(1 1) rotate(0) translate(4 25)">
<title>Polytope</title>
<polygon fill="white" stroke="none" points="-4,4 -4,-25 224,-25 224,4 -4,4"/>
<!-- Node0 -->
<g id="node1" class="node"><title>Node0</title>
<polygon fill="#bfbfbf" stroke="black" points="0,-0.5 0,-19.5 55,-19.5 55,-0.5 0,-0.5"/>
<text text-anchor="middle" x="27.5" y="-7.5" font-family="Helvetica,sans-Serif" font-size="10.00">Polytope</text>
</g>
<!-- Node1 -->
<g id="node2" class="node"><title>Node1</title>
<g id="a_node2"><a xlink:href="group__tools.html" target="_top" xlink:title="Design tools and techniques. ">
<polygon fill="white" stroke="black" points="179,-0.5 179,-19.5 220,-19.5 220,-0.5 179,-0.5"/>
<text text-anchor="middle" x="199.5" y="-7.5" font-family="Helvetica,sans-Serif" font-size="10.00">Tools</text>
</a>
</g>
</g>
<!-- Node0&#45;&gt;Node1 -->
<g id="edge2" class="edge"><title>Node0&#45;&gt;Node1</title>
<path fill="none" stroke="darkgreen" stroke-dasharray="5,2" d="M55.0625,-10C89.4277,-10 148.493,-10 178.999,-10"/>
<text text-anchor="middle" x="117" y="-13" font-family="Helvetica,sans-Serif" font-size="10.00">tools_polytope.scad</text>
</g>
<!-- Node1&#45;&gt;Node0 -->
<g id="edge1" class="edge"><title>Node1&#45;&gt;Node0</title>
<path fill="none" stroke="black" d="M168.443,-8.25538C165.926,-8.15231 163.42,-8.06448 161,-8 121.903,-6.95815 112.101,-7.12176 73,-8 67.2787,-8.1285 61.1467,-8.34983 55.3195,-8.59958"/>
<polygon fill="black" stroke="black" points="168.501,-11.7621 178.657,-8.74397 168.836,-4.77005 168.501,-11.7621"/>
</g>
</g>
</svg>
