<?xml version="1.0" encoding="UTF-8" standalone="no"?>
<!DOCTYPE svg PUBLIC "-//W3C//DTD SVG 1.1//EN"
 "http://www.w3.org/Graphics/SVG/1.1/DTD/svg11.dtd">
<!-- Generated by graphviz version 2.38.0 (20140413.2041)
 -->
<!-- Title: star3d Pages: 1 -->
<svg width="263pt" height="113pt"
 viewBox="0.00 0.00 263.00 113.00" xmlns="http://www.w3.org/2000/svg" xmlns:xlink="http://www.w3.org/1999/xlink">
<g id="graph0" class="graph" transform="scale(1 1) rotate(0) translate(4 109)">
<title>star3d</title>
<polygon fill="white" stroke="none" points="-4,4 -4,-109 259,-109 259,4 -4,4"/>
<!-- Node1 -->
<g id="node1" class="node"><title>Node1</title>
<polygon fill="#bfbfbf" stroke="black" points="0,-57.5 0,-76.5 44,-76.5 44,-57.5 0,-57.5"/>
<text text-anchor="middle" x="22" y="-64.5" font-family="Helvetica,sans-Serif" font-size="10.00">star3d</text>
</g>
<!-- Node2 -->
<g id="node2" class="node"><title>Node2</title>
<g id="a_node2"><a xlink:href="group__datatypes__operate__iterable.html#ga3d679b4617986e31d5e2803971b37af8" target="_top" xlink:title="Return an iterable element when it exists or a default value when it does not. ">
<polygon fill="white" stroke="black" points="188,-85.5 188,-104.5 255,-104.5 255,-85.5 188,-85.5"/>
<text text-anchor="middle" x="221.5" y="-92.5" font-family="Helvetica,sans-Serif" font-size="10.00">edefined_or</text>
</a>
</g>
</g>
<!-- Node1&#45;&gt;Node2 -->
<g id="edge1" class="edge"><title>Node1&#45;&gt;Node2</title>
<path fill="none" stroke="midnightblue" d="M44.0336,-75.4562C54.6439,-79.348 67.8171,-83.6208 80,-86 112.333,-92.3142 149.565,-94.4744 177.576,-95.1044"/>
<polygon fill="midnightblue" stroke="midnightblue" points="177.773,-98.6081 187.83,-95.2765 177.89,-91.6091 177.773,-98.6081"/>
</g>
<!-- Node3 -->
<g id="node3" class="node"><title>Node3</title>
<g id="a_node3"><a xlink:href="group__tools__repeat.html#gaa2529fb73f5660932dd812b457188e32" target="_top" xlink:title="Distribute copies of a 2d or 3d shape equally about a z&#45;axis radius. ">
<polygon fill="white" stroke="black" points="80,-19.5 80,-38.5 152,-38.5 152,-19.5 80,-19.5"/>
<text text-anchor="middle" x="116" y="-26.5" font-family="Helvetica,sans-Serif" font-size="10.00">radial_repeat</text>
</a>
</g>
</g>
<!-- Node1&#45;&gt;Node3 -->
<g id="edge2" class="edge"><title>Node1&#45;&gt;Node3</title>
<path fill="none" stroke="midnightblue" d="M44.3379,-58.1865C55.6741,-53.5042 69.8474,-47.65 82.5187,-42.4162"/>
<polygon fill="midnightblue" stroke="midnightblue" points="83.9375,-45.6171 91.8439,-38.5645 81.2651,-39.1472 83.9375,-45.6171"/>
</g>
<!-- Node6 -->
<g id="node6" class="node"><title>Node6</title>
<g id="a_node6"><a xlink:href="group__shapes__3d.html#gaaf63049f5c83cbb3b1f349b0a7a350e9" target="_top" xlink:title="A pyramid with quadrilateral base. ">
<polygon fill="white" stroke="black" points="85,-57.5 85,-76.5 147,-76.5 147,-57.5 85,-57.5"/>
<text text-anchor="middle" x="116" y="-64.5" font-family="Helvetica,sans-Serif" font-size="10.00">pyramid_q</text>
</a>
</g>
</g>
<!-- Node1&#45;&gt;Node6 -->
<g id="edge5" class="edge"><title>Node1&#45;&gt;Node6</title>
<path fill="none" stroke="midnightblue" d="M44.3379,-67C53.3352,-67 64.1197,-67 74.5219,-67"/>
<polygon fill="midnightblue" stroke="midnightblue" points="74.7165,-70.5001 84.7165,-67 74.7164,-63.5001 74.7165,-70.5001"/>
</g>
<!-- Node4 -->
<g id="node4" class="node"><title>Node4</title>
<g id="a_node4"><a xlink:href="group__math__oshapes.html#ga0e1975ceeaf1701764e7041470e3db71" target="_top" xlink:title="Compute the coordinates for an n&#45;sided regular polygon. ">
<polygon fill="white" stroke="black" points="188.5,-38.5 188.5,-57.5 254.5,-57.5 254.5,-38.5 188.5,-38.5"/>
<text text-anchor="middle" x="221.5" y="-45.5" font-family="Helvetica,sans-Serif" font-size="10.00">rpolygon_lp</text>
</a>
</g>
</g>
<!-- Node3&#45;&gt;Node4 -->
<g id="edge3" class="edge"><title>Node3&#45;&gt;Node4</title>
<path fill="none" stroke="midnightblue" d="M152.04,-35.4325C160.471,-36.9801 169.563,-38.6493 178.282,-40.2499"/>
<polygon fill="midnightblue" stroke="midnightblue" points="177.816,-43.7228 188.284,-42.0859 179.08,-36.8378 177.816,-43.7228"/>
</g>
<!-- Node5 -->
<g id="node5" class="node"><title>Node5</title>
<g id="a_node5"><a xlink:href="group__math__vector__algebra.html#ga3a0c4c75047b8003ab09286a77a58c86" target="_top" xlink:title="Compute the angle between two lines (or vectors) in a Euclidean 3d or 2d&#45;space. ">
<polygon fill="white" stroke="black" points="196.5,-0.5 196.5,-19.5 246.5,-19.5 246.5,-0.5 196.5,-0.5"/>
<text text-anchor="middle" x="221.5" y="-7.5" font-family="Helvetica,sans-Serif" font-size="10.00">angle_ll</text>
</a>
</g>
</g>
<!-- Node3&#45;&gt;Node5 -->
<g id="edge4" class="edge"><title>Node3&#45;&gt;Node5</title>
<path fill="none" stroke="midnightblue" d="M152.04,-22.5675C163.062,-20.5442 175.216,-18.313 186.187,-16.299"/>
<polygon fill="midnightblue" stroke="midnightblue" points="187.063,-19.6968 196.267,-14.4487 185.799,-12.8118 187.063,-19.6968"/>
</g>
<!-- Node6&#45;&gt;Node2 -->
<g id="edge6" class="edge"><title>Node6&#45;&gt;Node2</title>
<path fill="none" stroke="midnightblue" d="M147.215,-75.174C156.891,-77.7918 167.79,-80.7403 178.166,-83.5474"/>
<polygon fill="midnightblue" stroke="midnightblue" points="177.33,-86.947 187.897,-86.18 179.158,-80.1899 177.33,-86.947"/>
</g>
</g>
</svg>
