<?xml version="1.0" encoding="UTF-8" standalone="no"?>
<!DOCTYPE svg PUBLIC "-//W3C//DTD SVG 1.1//EN"
 "http://www.w3.org/Graphics/SVG/1.1/DTD/svg11.dtd">
<!-- Generated by graphviz version 2.38.0 (20140413.2041)
 -->
<!-- Title: etriangle_lp Pages: 1 -->
<svg width="455pt" height="218pt"
 viewBox="0.00 0.00 455.00 218.00" xmlns="http://www.w3.org/2000/svg" xmlns:xlink="http://www.w3.org/1999/xlink">
<g id="graph0" class="graph" transform="scale(1 1) rotate(0) translate(4 214)">
<title>etriangle_lp</title>
<polygon fill="white" stroke="none" points="-4,4 -4,-214 451,-214 451,4 -4,4"/>
<!-- Node1 -->
<g id="node1" class="node"><title>Node1</title>
<polygon fill="#bfbfbf" stroke="black" points="0,-133.5 0,-152.5 66,-152.5 66,-133.5 0,-133.5"/>
<text text-anchor="middle" x="33" y="-140.5" font-family="Helvetica,sans-Serif" font-size="10.00">etriangle_lp</text>
</g>
<!-- Node2 -->
<g id="node2" class="node"><title>Node2</title>
<g id="a_node2"><a xlink:href="group__tools__extrude.html#ga2cb6eb6927858c6b5e1e2dfadb197bf9" target="_top" xlink:title="Linearly extrude 2d shape with extrusion upper and lower scaling. ">
<polygon fill="white" stroke="black" points="102,-152.5 102,-171.5 197,-171.5 197,-152.5 102,-152.5"/>
<text text-anchor="middle" x="149.5" y="-159.5" font-family="Helvetica,sans-Serif" font-size="10.00">linear_extrude_uls</text>
</a>
</g>
</g>
<!-- Node1&#45;&gt;Node2 -->
<g id="edge1" class="edge"><title>Node1&#45;&gt;Node2</title>
<path fill="none" stroke="midnightblue" d="M66.1993,-148.343C74.0913,-149.653 82.7743,-151.094 91.4512,-152.533"/>
<polygon fill="midnightblue" stroke="midnightblue" points="91.1484,-156.031 101.586,-154.215 92.2944,-149.125 91.1484,-156.031"/>
</g>
<!-- Node5 -->
<g id="node5" class="node"><title>Node5</title>
<g id="a_node5"><a xlink:href="group__shapes__2d.html#ga9fe8dcb93cf5fca81671a04f1ccb562c" target="_top" xlink:title="A general triangle specified by a list of its three vertices. ">
<polygon fill="white" stroke="black" points="119,-114.5 119,-133.5 180,-133.5 180,-114.5 119,-114.5"/>
<text text-anchor="middle" x="149.5" y="-121.5" font-family="Helvetica,sans-Serif" font-size="10.00">triangle_lp</text>
</a>
</g>
</g>
<!-- Node1&#45;&gt;Node5 -->
<g id="edge4" class="edge"><title>Node1&#45;&gt;Node5</title>
<path fill="none" stroke="midnightblue" d="M66.1993,-137.657C79.3767,-135.47 94.7596,-132.918 108.637,-130.615"/>
<polygon fill="midnightblue" stroke="midnightblue" points="109.601,-134.003 118.894,-128.913 108.456,-127.097 109.601,-134.003"/>
</g>
<!-- Node3 -->
<g id="node3" class="node"><title>Node3</title>
<g id="a_node3"><a xlink:href="group__datatypes__identify__scalar.html#ga62dbd35f498bfc2a090812b1cf8a37c4" target="_top" xlink:title="Test if a value is not defined. ">
<polygon fill="white" stroke="black" points="234,-171.5 234,-190.5 301,-190.5 301,-171.5 234,-171.5"/>
<text text-anchor="middle" x="267.5" y="-178.5" font-family="Helvetica,sans-Serif" font-size="10.00">not_defined</text>
</a>
</g>
</g>
<!-- Node2&#45;&gt;Node3 -->
<g id="edge2" class="edge"><title>Node2&#45;&gt;Node3</title>
<path fill="none" stroke="midnightblue" d="M197.013,-169.619C205.893,-171.073 215.147,-172.589 223.896,-174.022"/>
<polygon fill="midnightblue" stroke="midnightblue" points="223.449,-177.495 233.884,-175.658 224.581,-170.587 223.449,-177.495"/>
</g>
<!-- Node4 -->
<g id="node4" class="node"><title>Node4</title>
<g id="a_node4"><a xlink:href="group__datatypes__identify__scalar.html#ga258e8911375d30ff85a6e52df01dc1c5" target="_top" xlink:title="Test if a value is a single non&#45;iterable value. ">
<polygon fill="white" stroke="black" points="239.5,-133.5 239.5,-152.5 295.5,-152.5 295.5,-133.5 239.5,-133.5"/>
<text text-anchor="middle" x="267.5" y="-140.5" font-family="Helvetica,sans-Serif" font-size="10.00">is_scalar</text>
</a>
</g>
</g>
<!-- Node2&#45;&gt;Node4 -->
<g id="edge3" class="edge"><title>Node2&#45;&gt;Node4</title>
<path fill="none" stroke="midnightblue" d="M197.013,-154.381C207.792,-152.616 219.121,-150.76 229.432,-149.072"/>
<polygon fill="midnightblue" stroke="midnightblue" points="230.042,-152.518 239.344,-147.448 228.91,-145.61 230.042,-152.518"/>
</g>
<!-- Node5&#45;&gt;Node4 -->
<g id="edge5" class="edge"><title>Node5&#45;&gt;Node4</title>
<path fill="none" stroke="midnightblue" d="M180.072,-128.844C195.049,-131.297 213.386,-134.3 229.311,-136.909"/>
<polygon fill="midnightblue" stroke="midnightblue" points="228.933,-140.393 239.367,-138.556 230.064,-133.485 228.933,-140.393"/>
</g>
<!-- Node6 -->
<g id="node6" class="node"><title>Node6</title>
<g id="a_node6"><a xlink:href="group__shapes__2d.html#ga33d2a7677306c346ad6be5a488885d86" target="_top" xlink:title="A general triangle specified by three vertices. ">
<polygon fill="white" stroke="black" points="233,-95.5 233,-114.5 302,-114.5 302,-95.5 233,-95.5"/>
<text text-anchor="middle" x="267.5" y="-102.5" font-family="Helvetica,sans-Serif" font-size="10.00">triangle_ppp</text>
</a>
</g>
</g>
<!-- Node5&#45;&gt;Node6 -->
<g id="edge6" class="edge"><title>Node5&#45;&gt;Node6</title>
<path fill="none" stroke="midnightblue" d="M180.072,-119.156C193.035,-117.033 208.516,-114.497 222.771,-112.163"/>
<polygon fill="midnightblue" stroke="midnightblue" points="223.577,-115.577 232.88,-110.507 222.446,-108.669 223.577,-115.577"/>
</g>
<!-- Node7 -->
<g id="node7" class="node"><title>Node7</title>
<g id="a_node7"><a xlink:href="group__datatypes__operate__scalar.html#gac119300e8c83de0037f2d0a4d9f0ab5c" target="_top" xlink:title="Return a value when it is defined or a default value when it is not. ">
<polygon fill="white" stroke="black" points="361.5,-190.5 361.5,-209.5 423.5,-209.5 423.5,-190.5 361.5,-190.5"/>
<text text-anchor="middle" x="392.5" y="-197.5" font-family="Helvetica,sans-Serif" font-size="10.00">defined_or</text>
</a>
</g>
</g>
<!-- Node6&#45;&gt;Node7 -->
<g id="edge7" class="edge"><title>Node6&#45;&gt;Node7</title>
<path fill="none" stroke="midnightblue" d="M289.091,-114.563C293.642,-117.231 298.226,-120.401 302,-124 323.683,-144.679 314.596,-162.291 338,-181 342.129,-184.3 346.875,-187.052 351.799,-189.339"/>
<polygon fill="midnightblue" stroke="midnightblue" points="350.789,-192.705 361.373,-193.189 353.401,-186.211 350.789,-192.705"/>
</g>
<!-- Node8 -->
<g id="node8" class="node"><title>Node8</title>
<g id="a_node8"><a xlink:href="group__math__triangle.html#ga6eb5bfb1ae077d0db22e41c142233be0" target="_top" xlink:title="Compute the coordinate for the triangle&#39;s incircle. ">
<polygon fill="white" stroke="black" points="338,-152.5 338,-171.5 447,-171.5 447,-152.5 338,-152.5"/>
<text text-anchor="middle" x="392.5" y="-159.5" font-family="Helvetica,sans-Serif" font-size="10.00">triangle_incenter_ppp</text>
</a>
</g>
</g>
<!-- Node6&#45;&gt;Node8 -->
<g id="edge8" class="edge"><title>Node6&#45;&gt;Node8</title>
<path fill="none" stroke="midnightblue" d="M285.302,-114.589C302.391,-124.268 327.77,-138.422 338,-143 342.66,-145.086 347.624,-147.105 352.579,-149"/>
<polygon fill="midnightblue" stroke="midnightblue" points="351.42,-152.302 362.014,-152.474 353.839,-145.734 351.42,-152.302"/>
</g>
<!-- Node9 -->
<g id="node9" class="node"><title>Node9</title>
<g id="a_node9"><a xlink:href="group__math__triangle.html#ga7c94003074f622d6421a665207cafbd7" target="_top" xlink:title="Compute the centroid (geometric center) of a triangle. ">
<polygon fill="white" stroke="black" points="338,-114.5 338,-133.5 447,-133.5 447,-114.5 338,-114.5"/>
<text text-anchor="middle" x="392.5" y="-121.5" font-family="Helvetica,sans-Serif" font-size="10.00">triangle_centroid_ppp</text>
</a>
</g>
</g>
<!-- Node6&#45;&gt;Node9 -->
<g id="edge9" class="edge"><title>Node6&#45;&gt;Node9</title>
<path fill="none" stroke="midnightblue" d="M302.11,-110.192C310.069,-111.421 318.818,-112.773 327.632,-114.134"/>
<polygon fill="midnightblue" stroke="midnightblue" points="327.156,-117.602 337.573,-115.67 328.224,-110.684 327.156,-117.602"/>
</g>
<!-- Node10 -->
<g id="node10" class="node"><title>Node10</title>
<g id="a_node10"><a xlink:href="group__datatypes__identify__iterable.html#ga6dc7861bf5a7777bfb33876493107d75" target="_top" xlink:title="Test if any element of a list of values is undefined. ">
<polygon fill="white" stroke="black" points="352.5,-76.5 352.5,-95.5 432.5,-95.5 432.5,-76.5 352.5,-76.5"/>
<text text-anchor="middle" x="392.5" y="-83.5" font-family="Helvetica,sans-Serif" font-size="10.00">any_undefined</text>
</a>
</g>
</g>
<!-- Node6&#45;&gt;Node10 -->
<g id="edge10" class="edge"><title>Node6&#45;&gt;Node10</title>
<path fill="none" stroke="midnightblue" d="M302.11,-99.8082C314.467,-97.8994 328.729,-95.6964 342.181,-93.6184"/>
<polygon fill="midnightblue" stroke="midnightblue" points="342.917,-97.0464 352.265,-92.0607 341.848,-90.1284 342.917,-97.0464"/>
</g>
<!-- Node11 -->
<g id="node11" class="node"><title>Node11</title>
<g id="a_node11"><a xlink:href="group__math__vector__algebra.html#ga3a0c4c75047b8003ab09286a77a58c86" target="_top" xlink:title="Compute the angle between two lines (or vectors) in a Euclidean 3d or 2d&#45;space. ">
<polygon fill="white" stroke="black" points="367.5,-38.5 367.5,-57.5 417.5,-57.5 417.5,-38.5 367.5,-38.5"/>
<text text-anchor="middle" x="392.5" y="-45.5" font-family="Helvetica,sans-Serif" font-size="10.00">angle_ll</text>
</a>
</g>
</g>
<!-- Node6&#45;&gt;Node11 -->
<g id="edge11" class="edge"><title>Node6&#45;&gt;Node11</title>
<path fill="none" stroke="midnightblue" d="M284.419,-95.3469C298.272,-87.179 319.046,-75.4824 338,-67 344.347,-64.1596 351.259,-61.4418 357.942,-58.9947"/>
<polygon fill="midnightblue" stroke="midnightblue" points="359.218,-62.2559 367.477,-55.6204 356.883,-55.6568 359.218,-62.2559"/>
</g>
<!-- Node12 -->
<g id="node12" class="node"><title>Node12</title>
<g id="a_node12"><a xlink:href="group__math__vector__algebra.html#gaa71caf02a1433e6c84d61d13d12aa581" target="_top" xlink:title="Compute the normalized unit vector of a Euclidean line (or vector). ">
<polygon fill="white" stroke="black" points="372.5,-0.5 372.5,-19.5 412.5,-19.5 412.5,-0.5 372.5,-0.5"/>
<text text-anchor="middle" x="392.5" y="-7.5" font-family="Helvetica,sans-Serif" font-size="10.00">unit_l</text>
</a>
</g>
</g>
<!-- Node6&#45;&gt;Node12 -->
<g id="edge12" class="edge"><title>Node6&#45;&gt;Node12</title>
<path fill="none" stroke="midnightblue" d="M274.853,-95.4404C285.896,-79.5147 310.137,-47.4807 338,-29 345.416,-24.081 354.256,-20.2683 362.593,-17.3935"/>
<polygon fill="midnightblue" stroke="midnightblue" points="363.878,-20.659 372.383,-14.3406 361.795,-13.9764 363.878,-20.659"/>
</g>
</g>
</svg>
