<?xml version="1.0" encoding="UTF-8" standalone="no"?>
<!DOCTYPE svg PUBLIC "-//W3C//DTD SVG 1.1//EN"
 "http://www.w3.org/Graphics/SVG/1.1/DTD/svg11.dtd">
<!-- Generated by graphviz version 2.38.0 (20140413.2041)
 -->
<!-- Title: estar2d Pages: 1 -->
<svg width="651pt" height="294pt"
 viewBox="0.00 0.00 651.00 294.00" xmlns="http://www.w3.org/2000/svg" xmlns:xlink="http://www.w3.org/1999/xlink">
<g id="graph0" class="graph" transform="scale(1 1) rotate(0) translate(4 290)">
<title>estar2d</title>
<polygon fill="white" stroke="none" points="-4,4 -4,-290 647,-290 647,4 -4,4"/>
<!-- Node1 -->
<g id="node1" class="node"><title>Node1</title>
<polygon fill="#bfbfbf" stroke="black" points="0,-142.5 0,-161.5 49,-161.5 49,-142.5 0,-142.5"/>
<text text-anchor="middle" x="24.5" y="-149.5" font-family="Helvetica,sans-Serif" font-size="10.00">estar2d</text>
</g>
<!-- Node2 -->
<g id="node2" class="node"><title>Node2</title>
<g id="a_node2"><a xlink:href="group__tools__extrude.html#ga2cb6eb6927858c6b5e1e2dfadb197bf9" target="_top" xlink:title="Linearly extrude 2d shape with extrusion upper and lower scaling. ">
<polygon fill="white" stroke="black" points="85,-171.5 85,-190.5 180,-190.5 180,-171.5 85,-171.5"/>
<text text-anchor="middle" x="132.5" y="-178.5" font-family="Helvetica,sans-Serif" font-size="10.00">linear_extrude_uls</text>
</a>
</g>
</g>
<!-- Node1&#45;&gt;Node2 -->
<g id="edge1" class="edge"><title>Node1&#45;&gt;Node2</title>
<path fill="none" stroke="midnightblue" d="M49.0248,-158.436C60.2037,-161.494 73.9478,-165.255 86.9881,-168.822"/>
<polygon fill="midnightblue" stroke="midnightblue" points="86.1995,-172.235 96.7687,-171.498 88.0468,-165.483 86.1995,-172.235"/>
</g>
<!-- Node5 -->
<g id="node5" class="node"><title>Node5</title>
<g id="a_node5"><a xlink:href="group__shapes__2d.html#ga7452bf5414a3677ec806a31aed6b61dd" target="_top" xlink:title="A two&#45;dimensional star. ">
<polygon fill="white" stroke="black" points="110.5,-114.5 110.5,-133.5 154.5,-133.5 154.5,-114.5 110.5,-114.5"/>
<text text-anchor="middle" x="132.5" y="-121.5" font-family="Helvetica,sans-Serif" font-size="10.00">star2d</text>
</a>
</g>
</g>
<!-- Node1&#45;&gt;Node5 -->
<g id="edge4" class="edge"><title>Node1&#45;&gt;Node5</title>
<path fill="none" stroke="midnightblue" d="M49.0248,-145.786C64.1778,-141.783 84.044,-136.536 100.482,-132.194"/>
<polygon fill="midnightblue" stroke="midnightblue" points="101.426,-135.564 110.201,-129.626 99.6384,-128.796 101.426,-135.564"/>
</g>
<!-- Node3 -->
<g id="node3" class="node"><title>Node3</title>
<g id="a_node3"><a xlink:href="group__datatypes__identify__scalar.html#ga62dbd35f498bfc2a090812b1cf8a37c4" target="_top" xlink:title="Test if a value is not defined. ">
<polygon fill="white" stroke="black" points="218.5,-171.5 218.5,-190.5 285.5,-190.5 285.5,-171.5 218.5,-171.5"/>
<text text-anchor="middle" x="252" y="-178.5" font-family="Helvetica,sans-Serif" font-size="10.00">not_defined</text>
</a>
</g>
</g>
<!-- Node2&#45;&gt;Node3 -->
<g id="edge2" class="edge"><title>Node2&#45;&gt;Node3</title>
<path fill="none" stroke="midnightblue" d="M180.277,-181C189.576,-181 199.294,-181 208.443,-181"/>
<polygon fill="midnightblue" stroke="midnightblue" points="208.479,-184.5 218.479,-181 208.479,-177.5 208.479,-184.5"/>
</g>
<!-- Node4 -->
<g id="node4" class="node"><title>Node4</title>
<g id="a_node4"><a xlink:href="group__datatypes__identify__scalar.html#ga258e8911375d30ff85a6e52df01dc1c5" target="_top" xlink:title="Test if a value is a single non&#45;iterable value. ">
<polygon fill="white" stroke="black" points="330.5,-171.5 330.5,-190.5 386.5,-190.5 386.5,-171.5 330.5,-171.5"/>
<text text-anchor="middle" x="358.5" y="-178.5" font-family="Helvetica,sans-Serif" font-size="10.00">is_scalar</text>
</a>
</g>
</g>
<!-- Node2&#45;&gt;Node4 -->
<g id="edge3" class="edge"><title>Node2&#45;&gt;Node4</title>
<path fill="none" stroke="midnightblue" d="M166.918,-190.507C181.808,-194.272 199.644,-198.141 216,-200 247.795,-203.614 256.284,-204.257 288,-200 298.804,-198.55 310.307,-195.885 320.78,-193.001"/>
<polygon fill="midnightblue" stroke="midnightblue" points="321.818,-196.344 330.449,-190.201 319.871,-189.62 321.818,-196.344"/>
</g>
<!-- Node6 -->
<g id="node6" class="node"><title>Node6</title>
<g id="a_node6"><a xlink:href="group__datatypes__operate__iterable.html#ga3d679b4617986e31d5e2803971b37af8" target="_top" xlink:title="Return an iterable element when it exists or a default value when it does not. ">
<polygon fill="white" stroke="black" points="218.5,-133.5 218.5,-152.5 285.5,-152.5 285.5,-133.5 218.5,-133.5"/>
<text text-anchor="middle" x="252" y="-140.5" font-family="Helvetica,sans-Serif" font-size="10.00">edefined_or</text>
</a>
</g>
</g>
<!-- Node5&#45;&gt;Node6 -->
<g id="edge5" class="edge"><title>Node5&#45;&gt;Node6</title>
<path fill="none" stroke="midnightblue" d="M154.507,-127.397C169.433,-129.81 189.997,-133.136 208.306,-136.096"/>
<polygon fill="midnightblue" stroke="midnightblue" points="207.766,-139.554 218.196,-137.696 208.883,-132.644 207.766,-139.554"/>
</g>
<!-- Node7 -->
<g id="node7" class="node"><title>Node7</title>
<g id="a_node7"><a xlink:href="group__tools__repeat.html#gaa2529fb73f5660932dd812b457188e32" target="_top" xlink:title="Distribute copies of a 2d or 3d shape equally about a z&#45;axis radius. ">
<polygon fill="white" stroke="black" points="216,-38.5 216,-57.5 288,-57.5 288,-38.5 216,-38.5"/>
<text text-anchor="middle" x="252" y="-45.5" font-family="Helvetica,sans-Serif" font-size="10.00">radial_repeat</text>
</a>
</g>
</g>
<!-- Node5&#45;&gt;Node7 -->
<g id="edge6" class="edge"><title>Node5&#45;&gt;Node7</title>
<path fill="none" stroke="midnightblue" d="M148.381,-114.375C168.334,-101.469 203.972,-78.4181 227.552,-63.1666"/>
<polygon fill="midnightblue" stroke="midnightblue" points="229.744,-65.9172 236.239,-57.5473 225.942,-60.0395 229.744,-65.9172"/>
</g>
<!-- Node10 -->
<g id="node10" class="node"><title>Node10</title>
<g id="a_node10"><a xlink:href="group__shapes__2d.html#ga5321277acf52177e1c7928c13377dd00" target="_top" xlink:title="A general triangle specified by a list of its three side lengths. ">
<polygon fill="white" stroke="black" points="221.5,-95.5 221.5,-114.5 282.5,-114.5 282.5,-95.5 221.5,-95.5"/>
<text text-anchor="middle" x="252" y="-102.5" font-family="Helvetica,sans-Serif" font-size="10.00">triangle_ls</text>
</a>
</g>
</g>
<!-- Node5&#45;&gt;Node10 -->
<g id="edge9" class="edge"><title>Node5&#45;&gt;Node10</title>
<path fill="none" stroke="midnightblue" d="M154.507,-120.603C170.286,-118.052 192.364,-114.482 211.42,-111.4"/>
<polygon fill="midnightblue" stroke="midnightblue" points="212.034,-114.846 221.347,-109.795 210.917,-107.936 212.034,-114.846"/>
</g>
<!-- Node8 -->
<g id="node8" class="node"><title>Node8</title>
<g id="a_node8"><a xlink:href="group__math__oshapes.html#ga0e1975ceeaf1701764e7041470e3db71" target="_top" xlink:title="Compute the coordinates for an n&#45;sided regular polygon. ">
<polygon fill="white" stroke="black" points="325.5,-0.5 325.5,-19.5 391.5,-19.5 391.5,-0.5 325.5,-0.5"/>
<text text-anchor="middle" x="358.5" y="-7.5" font-family="Helvetica,sans-Serif" font-size="10.00">rpolygon_lp</text>
</a>
</g>
</g>
<!-- Node7&#45;&gt;Node8 -->
<g id="edge7" class="edge"><title>Node7&#45;&gt;Node8</title>
<path fill="none" stroke="midnightblue" d="M279.37,-38.411C292.117,-33.7756 307.614,-28.1404 321.435,-23.1147"/>
<polygon fill="midnightblue" stroke="midnightblue" points="322.937,-26.2927 331.139,-19.5859 320.545,-19.7142 322.937,-26.2927"/>
</g>
<!-- Node9 -->
<g id="node9" class="node"><title>Node9</title>
<g id="a_node9"><a xlink:href="group__math__vector__algebra.html#ga3a0c4c75047b8003ab09286a77a58c86" target="_top" xlink:title="Compute the angle between two lines (or vectors) in a Euclidean 3d or 2d&#45;space. ">
<polygon fill="white" stroke="black" points="563.5,-38.5 563.5,-57.5 613.5,-57.5 613.5,-38.5 563.5,-38.5"/>
<text text-anchor="middle" x="588.5" y="-45.5" font-family="Helvetica,sans-Serif" font-size="10.00">angle_ll</text>
</a>
</g>
</g>
<!-- Node7&#45;&gt;Node9 -->
<g id="edge8" class="edge"><title>Node7&#45;&gt;Node9</title>
<path fill="none" stroke="midnightblue" d="M288.165,-48C352.542,-48 488.603,-48 552.704,-48"/>
<polygon fill="midnightblue" stroke="midnightblue" points="553.079,-51.5001 563.079,-48 553.079,-44.5001 553.079,-51.5001"/>
</g>
<!-- Node10&#45;&gt;Node4 -->
<g id="edge10" class="edge"><title>Node10&#45;&gt;Node4</title>
<path fill="none" stroke="midnightblue" d="M272.277,-114.618C277.497,-117.448 283.066,-120.681 288,-124 306.443,-136.406 325.879,-152.652 339.492,-164.625"/>
<polygon fill="midnightblue" stroke="midnightblue" points="337.362,-167.414 347.156,-171.455 342.019,-162.189 337.362,-167.414"/>
</g>
<!-- Node11 -->
<g id="node11" class="node"><title>Node11</title>
<g id="a_node11"><a xlink:href="group__shapes__2d.html#gab40e6edfc3c5ab69a4db26301318cd86" target="_top" xlink:title="A general triangle specified by its three side lengths. ">
<polygon fill="white" stroke="black" points="324,-105.5 324,-124.5 393,-124.5 393,-105.5 324,-105.5"/>
<text text-anchor="middle" x="358.5" y="-112.5" font-family="Helvetica,sans-Serif" font-size="10.00">triangle_sss</text>
</a>
</g>
</g>
<!-- Node10&#45;&gt;Node11 -->
<g id="edge11" class="edge"><title>Node10&#45;&gt;Node11</title>
<path fill="none" stroke="midnightblue" d="M282.666,-107.839C292.26,-108.757 303.113,-109.795 313.516,-110.791"/>
<polygon fill="midnightblue" stroke="midnightblue" points="313.419,-114.298 323.707,-111.766 314.086,-107.329 313.419,-114.298"/>
</g>
<!-- Node12 -->
<g id="node12" class="node"><title>Node12</title>
<g id="a_node12"><a xlink:href="group__datatypes__identify__scalar.html#ga068402d4bbb2bbd22b955ad1e14f104b" target="_top" xlink:title="Test if a numerical value is invalid. ">
<polygon fill="white" stroke="black" points="441,-114.5 441,-133.5 486,-133.5 486,-114.5 441,-114.5"/>
<text text-anchor="middle" x="463.5" y="-121.5" font-family="Helvetica,sans-Serif" font-size="10.00">is_nan</text>
</a>
</g>
</g>
<!-- Node11&#45;&gt;Node12 -->
<g id="edge12" class="edge"><title>Node11&#45;&gt;Node12</title>
<path fill="none" stroke="midnightblue" d="M393.226,-117.947C405.175,-118.991 418.578,-120.162 430.389,-121.194"/>
<polygon fill="midnightblue" stroke="midnightblue" points="430.433,-124.711 440.7,-122.095 431.042,-117.738 430.433,-124.711"/>
</g>
<!-- Node13 -->
<g id="node13" class="node"><title>Node13</title>
<g id="a_node13"><a xlink:href="group__utilities__console.html#ga1ece4e2cff9ae45c85429c226eb8362c" target="_top" xlink:title="Output warning message to console. ">
<polygon fill="white" stroke="black" points="435.5,-76.5 435.5,-95.5 491.5,-95.5 491.5,-76.5 435.5,-76.5"/>
<text text-anchor="middle" x="463.5" y="-83.5" font-family="Helvetica,sans-Serif" font-size="10.00">log_warn</text>
</a>
</g>
</g>
<!-- Node11&#45;&gt;Node13 -->
<g id="edge13" class="edge"><title>Node11&#45;&gt;Node13</title>
<path fill="none" stroke="midnightblue" d="M393.226,-105.504C403.541,-102.6 414.94,-99.3906 425.463,-96.4279"/>
<polygon fill="midnightblue" stroke="midnightblue" points="426.542,-99.7603 435.219,-93.6811 424.645,-93.0223 426.542,-99.7603"/>
</g>
<!-- Node15 -->
<g id="node15" class="node"><title>Node15</title>
<g id="a_node15"><a xlink:href="group__shapes__2d.html#ga33d2a7677306c346ad6be5a488885d86" target="_top" xlink:title="A general triangle specified by three vertices. ">
<polygon fill="white" stroke="black" points="429,-152.5 429,-171.5 498,-171.5 498,-152.5 429,-152.5"/>
<text text-anchor="middle" x="463.5" y="-159.5" font-family="Helvetica,sans-Serif" font-size="10.00">triangle_ppp</text>
</a>
</g>
</g>
<!-- Node11&#45;&gt;Node15 -->
<g id="edge15" class="edge"><title>Node11&#45;&gt;Node15</title>
<path fill="none" stroke="midnightblue" d="M380.344,-124.511C395.184,-131.283 415.363,-140.491 432.009,-148.086"/>
<polygon fill="midnightblue" stroke="midnightblue" points="430.783,-151.374 441.334,-152.342 433.689,-145.006 430.783,-151.374"/>
</g>
<!-- Node14 -->
<g id="node14" class="node"><title>Node14</title>
<g id="a_node14"><a xlink:href="group__utilities__console.html#ga4fb6c985031c9b551777b2e9ebd2fc34" target="_top" xlink:title="Format the function call stack as a string. ">
<polygon fill="white" stroke="black" points="568,-76.5 568,-95.5 609,-95.5 609,-76.5 568,-76.5"/>
<text text-anchor="middle" x="588.5" y="-83.5" font-family="Helvetica,sans-Serif" font-size="10.00">stack</text>
</a>
</g>
</g>
<!-- Node13&#45;&gt;Node14 -->
<g id="edge14" class="edge"><title>Node13&#45;&gt;Node14</title>
<path fill="none" stroke="midnightblue" d="M491.798,-86C511.355,-86 537.679,-86 557.769,-86"/>
<polygon fill="midnightblue" stroke="midnightblue" points="557.921,-89.5001 567.921,-86 557.921,-82.5001 557.921,-89.5001"/>
</g>
<!-- Node15&#45;&gt;Node9 -->
<g id="edge20" class="edge"><title>Node15&#45;&gt;Node9</title>
<path fill="none" stroke="midnightblue" d="M486.114,-152.341C490.412,-149.742 494.632,-146.625 498,-143 523.439,-115.618 506.269,-92.059 534,-67 539.581,-61.9569 546.588,-58.2321 553.676,-55.4878"/>
<polygon fill="midnightblue" stroke="midnightblue" points="554.867,-58.7807 563.265,-52.3215 552.672,-52.1337 554.867,-58.7807"/>
</g>
<!-- Node16 -->
<g id="node16" class="node"><title>Node16</title>
<g id="a_node16"><a xlink:href="group__datatypes__operate__scalar.html#gac119300e8c83de0037f2d0a4d9f0ab5c" target="_top" xlink:title="Return a value when it is defined or a default value when it is not. ">
<polygon fill="white" stroke="black" points="557.5,-114.5 557.5,-133.5 619.5,-133.5 619.5,-114.5 557.5,-114.5"/>
<text text-anchor="middle" x="588.5" y="-121.5" font-family="Helvetica,sans-Serif" font-size="10.00">defined_or</text>
</a>
</g>
</g>
<!-- Node15&#45;&gt;Node16 -->
<g id="edge16" class="edge"><title>Node15&#45;&gt;Node16</title>
<path fill="none" stroke="midnightblue" d="M495.538,-152.411C511.363,-147.522 530.788,-141.521 547.701,-136.296"/>
<polygon fill="midnightblue" stroke="midnightblue" points="548.801,-139.619 557.322,-133.323 546.735,-132.931 548.801,-139.619"/>
</g>
<!-- Node17 -->
<g id="node17" class="node"><title>Node17</title>
<g id="a_node17"><a xlink:href="group__math__triangle.html#ga6eb5bfb1ae077d0db22e41c142233be0" target="_top" xlink:title="Compute the coordinate for the triangle&#39;s incircle. ">
<polygon fill="white" stroke="black" points="534,-266.5 534,-285.5 643,-285.5 643,-266.5 534,-266.5"/>
<text text-anchor="middle" x="588.5" y="-273.5" font-family="Helvetica,sans-Serif" font-size="10.00">triangle_incenter_ppp</text>
</a>
</g>
</g>
<!-- Node15&#45;&gt;Node17 -->
<g id="edge17" class="edge"><title>Node15&#45;&gt;Node17</title>
<path fill="none" stroke="midnightblue" d="M469.014,-171.556C478.445,-190.535 502.042,-233.195 534,-257 536.489,-258.854 539.174,-260.539 541.971,-262.069"/>
<polygon fill="midnightblue" stroke="midnightblue" points="540.642,-265.312 551.176,-266.444 543.647,-258.99 540.642,-265.312"/>
</g>
<!-- Node18 -->
<g id="node18" class="node"><title>Node18</title>
<g id="a_node18"><a xlink:href="group__math__triangle.html#ga7c94003074f622d6421a665207cafbd7" target="_top" xlink:title="Compute the centroid (geometric center) of a triangle. ">
<polygon fill="white" stroke="black" points="534,-228.5 534,-247.5 643,-247.5 643,-228.5 534,-228.5"/>
<text text-anchor="middle" x="588.5" y="-235.5" font-family="Helvetica,sans-Serif" font-size="10.00">triangle_centroid_ppp</text>
</a>
</g>
</g>
<!-- Node15&#45;&gt;Node18 -->
<g id="edge18" class="edge"><title>Node15&#45;&gt;Node18</title>
<path fill="none" stroke="midnightblue" d="M474.047,-171.688C486.746,-184.114 510.357,-205.648 534,-219 537.669,-221.072 541.605,-222.982 545.615,-224.726"/>
<polygon fill="midnightblue" stroke="midnightblue" points="544.436,-228.024 555.02,-228.493 547.038,-221.525 544.436,-228.024"/>
</g>
<!-- Node19 -->
<g id="node19" class="node"><title>Node19</title>
<g id="a_node19"><a xlink:href="group__datatypes__identify__iterable.html#ga6dc7861bf5a7777bfb33876493107d75" target="_top" xlink:title="Test if any element of a list of values is undefined. ">
<polygon fill="white" stroke="black" points="548.5,-190.5 548.5,-209.5 628.5,-209.5 628.5,-190.5 548.5,-190.5"/>
<text text-anchor="middle" x="588.5" y="-197.5" font-family="Helvetica,sans-Serif" font-size="10.00">any_undefined</text>
</a>
</g>
</g>
<!-- Node15&#45;&gt;Node19 -->
<g id="edge19" class="edge"><title>Node15&#45;&gt;Node19</title>
<path fill="none" stroke="midnightblue" d="M495.538,-171.589C510.979,-176.359 529.848,-182.189 546.466,-187.323"/>
<polygon fill="midnightblue" stroke="midnightblue" points="545.884,-190.806 556.472,-190.414 547.951,-184.118 545.884,-190.806"/>
</g>
<!-- Node20 -->
<g id="node20" class="node"><title>Node20</title>
<g id="a_node20"><a xlink:href="group__math__vector__algebra.html#gaa71caf02a1433e6c84d61d13d12aa581" target="_top" xlink:title="Compute the normalized unit vector of a Euclidean line (or vector). ">
<polygon fill="white" stroke="black" points="568.5,-152.5 568.5,-171.5 608.5,-171.5 608.5,-152.5 568.5,-152.5"/>
<text text-anchor="middle" x="588.5" y="-159.5" font-family="Helvetica,sans-Serif" font-size="10.00">unit_l</text>
</a>
</g>
</g>
<!-- Node15&#45;&gt;Node20 -->
<g id="edge21" class="edge"><title>Node15&#45;&gt;Node20</title>
<path fill="none" stroke="midnightblue" d="M498.11,-162C516.93,-162 540.17,-162 558.237,-162"/>
<polygon fill="midnightblue" stroke="midnightblue" points="558.467,-165.5 568.467,-162 558.467,-158.5 558.467,-165.5"/>
</g>
</g>
</svg>
