<?xml version="1.0" encoding="UTF-8" standalone="no"?>
<!DOCTYPE svg PUBLIC "-//W3C//DTD SVG 1.1//EN"
 "http://www.w3.org/Graphics/SVG/1.1/DTD/svg11.dtd">
<!-- Generated by graphviz version 2.38.0 (20140413.2041)
 -->
<!-- Title: etriangle_ls Pages: 1 -->
<svg width="560pt" height="294pt"
 viewBox="0.00 0.00 560.00 294.00" xmlns="http://www.w3.org/2000/svg" xmlns:xlink="http://www.w3.org/1999/xlink">
<g id="graph0" class="graph" transform="scale(1 1) rotate(0) translate(4 290)">
<title>etriangle_ls</title>
<polygon fill="white" stroke="none" points="-4,4 -4,-290 556,-290 556,4 -4,4"/>
<!-- Node1 -->
<g id="node1" class="node"><title>Node1</title>
<polygon fill="#bfbfbf" stroke="black" points="0,-228.5 0,-247.5 66,-247.5 66,-228.5 0,-228.5"/>
<text text-anchor="middle" x="33" y="-235.5" font-family="Helvetica,sans-Serif" font-size="10.00">etriangle_ls</text>
</g>
<!-- Node2 -->
<g id="node2" class="node"><title>Node2</title>
<g id="a_node2"><a xlink:href="group__tools__extrude.html#ga2cb6eb6927858c6b5e1e2dfadb197bf9" target="_top" xlink:title="Linearly extrude 2d shape with extrusion upper and lower scaling. ">
<polygon fill="white" stroke="black" points="102,-247.5 102,-266.5 197,-266.5 197,-247.5 102,-247.5"/>
<text text-anchor="middle" x="149.5" y="-254.5" font-family="Helvetica,sans-Serif" font-size="10.00">linear_extrude_uls</text>
</a>
</g>
</g>
<!-- Node1&#45;&gt;Node2 -->
<g id="edge1" class="edge"><title>Node1&#45;&gt;Node2</title>
<path fill="none" stroke="midnightblue" d="M66.1993,-243.343C74.0913,-244.653 82.7743,-246.094 91.4512,-247.533"/>
<polygon fill="midnightblue" stroke="midnightblue" points="91.1484,-251.031 101.586,-249.215 92.2944,-244.125 91.1484,-251.031"/>
</g>
<!-- Node5 -->
<g id="node5" class="node"><title>Node5</title>
<g id="a_node5"><a xlink:href="group__shapes__2d.html#ga5321277acf52177e1c7928c13377dd00" target="_top" xlink:title="A general triangle specified by a list of its three side lengths. ">
<polygon fill="white" stroke="black" points="119,-209.5 119,-228.5 180,-228.5 180,-209.5 119,-209.5"/>
<text text-anchor="middle" x="149.5" y="-216.5" font-family="Helvetica,sans-Serif" font-size="10.00">triangle_ls</text>
</a>
</g>
</g>
<!-- Node1&#45;&gt;Node5 -->
<g id="edge4" class="edge"><title>Node1&#45;&gt;Node5</title>
<path fill="none" stroke="midnightblue" d="M66.1993,-232.657C79.3767,-230.47 94.7596,-227.918 108.637,-225.615"/>
<polygon fill="midnightblue" stroke="midnightblue" points="109.601,-229.003 118.894,-223.913 108.456,-222.097 109.601,-229.003"/>
</g>
<!-- Node3 -->
<g id="node3" class="node"><title>Node3</title>
<g id="a_node3"><a xlink:href="group__datatypes__identify__scalar.html#ga62dbd35f498bfc2a090812b1cf8a37c4" target="_top" xlink:title="Test if a value is not defined. ">
<polygon fill="white" stroke="black" points="234,-266.5 234,-285.5 301,-285.5 301,-266.5 234,-266.5"/>
<text text-anchor="middle" x="267.5" y="-273.5" font-family="Helvetica,sans-Serif" font-size="10.00">not_defined</text>
</a>
</g>
</g>
<!-- Node2&#45;&gt;Node3 -->
<g id="edge2" class="edge"><title>Node2&#45;&gt;Node3</title>
<path fill="none" stroke="midnightblue" d="M197.013,-264.619C205.893,-266.073 215.147,-267.589 223.896,-269.022"/>
<polygon fill="midnightblue" stroke="midnightblue" points="223.449,-272.495 233.884,-270.658 224.581,-265.587 223.449,-272.495"/>
</g>
<!-- Node4 -->
<g id="node4" class="node"><title>Node4</title>
<g id="a_node4"><a xlink:href="group__datatypes__identify__scalar.html#ga258e8911375d30ff85a6e52df01dc1c5" target="_top" xlink:title="Test if a value is a single non&#45;iterable value. ">
<polygon fill="white" stroke="black" points="239.5,-228.5 239.5,-247.5 295.5,-247.5 295.5,-228.5 239.5,-228.5"/>
<text text-anchor="middle" x="267.5" y="-235.5" font-family="Helvetica,sans-Serif" font-size="10.00">is_scalar</text>
</a>
</g>
</g>
<!-- Node2&#45;&gt;Node4 -->
<g id="edge3" class="edge"><title>Node2&#45;&gt;Node4</title>
<path fill="none" stroke="midnightblue" d="M197.013,-249.381C207.792,-247.616 219.121,-245.76 229.432,-244.072"/>
<polygon fill="midnightblue" stroke="midnightblue" points="230.042,-247.518 239.344,-242.448 228.91,-240.61 230.042,-247.518"/>
</g>
<!-- Node5&#45;&gt;Node4 -->
<g id="edge5" class="edge"><title>Node5&#45;&gt;Node4</title>
<path fill="none" stroke="midnightblue" d="M180.072,-223.844C195.049,-226.297 213.386,-229.3 229.311,-231.909"/>
<polygon fill="midnightblue" stroke="midnightblue" points="228.933,-235.393 239.367,-233.556 230.064,-228.485 228.933,-235.393"/>
</g>
<!-- Node6 -->
<g id="node6" class="node"><title>Node6</title>
<g id="a_node6"><a xlink:href="group__shapes__2d.html#gab40e6edfc3c5ab69a4db26301318cd86" target="_top" xlink:title="A general triangle specified by its three side lengths. ">
<polygon fill="white" stroke="black" points="233,-190.5 233,-209.5 302,-209.5 302,-190.5 233,-190.5"/>
<text text-anchor="middle" x="267.5" y="-197.5" font-family="Helvetica,sans-Serif" font-size="10.00">triangle_sss</text>
</a>
</g>
</g>
<!-- Node5&#45;&gt;Node6 -->
<g id="edge6" class="edge"><title>Node5&#45;&gt;Node6</title>
<path fill="none" stroke="midnightblue" d="M180.072,-214.156C193.035,-212.033 208.516,-209.497 222.771,-207.163"/>
<polygon fill="midnightblue" stroke="midnightblue" points="223.577,-210.577 232.88,-205.507 222.446,-203.669 223.577,-210.577"/>
</g>
<!-- Node7 -->
<g id="node7" class="node"><title>Node7</title>
<g id="a_node7"><a xlink:href="group__datatypes__identify__scalar.html#ga068402d4bbb2bbd22b955ad1e14f104b" target="_top" xlink:title="Test if a numerical value is invalid. ">
<polygon fill="white" stroke="black" points="350,-228.5 350,-247.5 395,-247.5 395,-228.5 350,-228.5"/>
<text text-anchor="middle" x="372.5" y="-235.5" font-family="Helvetica,sans-Serif" font-size="10.00">is_nan</text>
</a>
</g>
</g>
<!-- Node6&#45;&gt;Node7 -->
<g id="edge7" class="edge"><title>Node6&#45;&gt;Node7</title>
<path fill="none" stroke="midnightblue" d="M294.491,-209.589C308.34,-214.698 325.481,-221.022 340.073,-226.405"/>
<polygon fill="midnightblue" stroke="midnightblue" points="339.102,-229.778 349.696,-229.956 341.525,-223.211 339.102,-229.778"/>
</g>
<!-- Node8 -->
<g id="node8" class="node"><title>Node8</title>
<g id="a_node8"><a xlink:href="group__utilities__console.html#ga1ece4e2cff9ae45c85429c226eb8362c" target="_top" xlink:title="Output warning message to console. ">
<polygon fill="white" stroke="black" points="344.5,-190.5 344.5,-209.5 400.5,-209.5 400.5,-190.5 344.5,-190.5"/>
<text text-anchor="middle" x="372.5" y="-197.5" font-family="Helvetica,sans-Serif" font-size="10.00">log_warn</text>
</a>
</g>
</g>
<!-- Node6&#45;&gt;Node8 -->
<g id="edge8" class="edge"><title>Node6&#45;&gt;Node8</title>
<path fill="none" stroke="midnightblue" d="M302.226,-200C312.435,-200 323.705,-200 334.137,-200"/>
<polygon fill="midnightblue" stroke="midnightblue" points="334.219,-203.5 344.219,-200 334.219,-196.5 334.219,-203.5"/>
</g>
<!-- Node10 -->
<g id="node10" class="node"><title>Node10</title>
<g id="a_node10"><a xlink:href="group__shapes__2d.html#ga33d2a7677306c346ad6be5a488885d86" target="_top" xlink:title="A general triangle specified by three vertices. ">
<polygon fill="white" stroke="black" points="338,-114.5 338,-133.5 407,-133.5 407,-114.5 338,-114.5"/>
<text text-anchor="middle" x="372.5" y="-121.5" font-family="Helvetica,sans-Serif" font-size="10.00">triangle_ppp</text>
</a>
</g>
</g>
<!-- Node6&#45;&gt;Node10 -->
<g id="edge10" class="edge"><title>Node6&#45;&gt;Node10</title>
<path fill="none" stroke="midnightblue" d="M281.545,-190.375C298.881,-177.583 329.724,-154.825 350.394,-139.573"/>
<polygon fill="midnightblue" stroke="midnightblue" points="352.592,-142.301 358.561,-133.547 348.436,-136.668 352.592,-142.301"/>
</g>
<!-- Node9 -->
<g id="node9" class="node"><title>Node9</title>
<g id="a_node9"><a xlink:href="group__utilities__console.html#ga4fb6c985031c9b551777b2e9ebd2fc34" target="_top" xlink:title="Format the function call stack as a string. ">
<polygon fill="white" stroke="black" points="477,-228.5 477,-247.5 518,-247.5 518,-228.5 477,-228.5"/>
<text text-anchor="middle" x="497.5" y="-235.5" font-family="Helvetica,sans-Serif" font-size="10.00">stack</text>
</a>
</g>
</g>
<!-- Node8&#45;&gt;Node9 -->
<g id="edge9" class="edge"><title>Node8&#45;&gt;Node9</title>
<path fill="none" stroke="midnightblue" d="M400.798,-208.433C420.536,-214.531 447.165,-222.758 467.323,-228.986"/>
<polygon fill="midnightblue" stroke="midnightblue" points="466.333,-232.343 476.921,-231.951 468.4,-225.655 466.333,-232.343"/>
</g>
<!-- Node11 -->
<g id="node11" class="node"><title>Node11</title>
<g id="a_node11"><a xlink:href="group__datatypes__operate__scalar.html#gac119300e8c83de0037f2d0a4d9f0ab5c" target="_top" xlink:title="Return a value when it is defined or a default value when it is not. ">
<polygon fill="white" stroke="black" points="466.5,-190.5 466.5,-209.5 528.5,-209.5 528.5,-190.5 466.5,-190.5"/>
<text text-anchor="middle" x="497.5" y="-197.5" font-family="Helvetica,sans-Serif" font-size="10.00">defined_or</text>
</a>
</g>
</g>
<!-- Node10&#45;&gt;Node11 -->
<g id="edge11" class="edge"><title>Node10&#45;&gt;Node11</title>
<path fill="none" stroke="midnightblue" d="M383.047,-133.688C395.746,-146.114 419.357,-167.648 443,-181 447.281,-183.417 451.924,-185.614 456.626,-187.584"/>
<polygon fill="midnightblue" stroke="midnightblue" points="455.674,-190.968 466.264,-191.308 458.197,-184.439 455.674,-190.968"/>
</g>
<!-- Node12 -->
<g id="node12" class="node"><title>Node12</title>
<g id="a_node12"><a xlink:href="group__math__triangle.html#ga6eb5bfb1ae077d0db22e41c142233be0" target="_top" xlink:title="Compute the coordinate for the triangle&#39;s incircle. ">
<polygon fill="white" stroke="black" points="443,-152.5 443,-171.5 552,-171.5 552,-152.5 443,-152.5"/>
<text text-anchor="middle" x="497.5" y="-159.5" font-family="Helvetica,sans-Serif" font-size="10.00">triangle_incenter_ppp</text>
</a>
</g>
</g>
<!-- Node10&#45;&gt;Node12 -->
<g id="edge12" class="edge"><title>Node10&#45;&gt;Node12</title>
<path fill="none" stroke="midnightblue" d="M404.538,-133.589C419.979,-138.359 438.848,-144.189 455.466,-149.323"/>
<polygon fill="midnightblue" stroke="midnightblue" points="454.884,-152.806 465.472,-152.414 456.951,-146.118 454.884,-152.806"/>
</g>
<!-- Node13 -->
<g id="node13" class="node"><title>Node13</title>
<g id="a_node13"><a xlink:href="group__math__triangle.html#ga7c94003074f622d6421a665207cafbd7" target="_top" xlink:title="Compute the centroid (geometric center) of a triangle. ">
<polygon fill="white" stroke="black" points="443,-114.5 443,-133.5 552,-133.5 552,-114.5 443,-114.5"/>
<text text-anchor="middle" x="497.5" y="-121.5" font-family="Helvetica,sans-Serif" font-size="10.00">triangle_centroid_ppp</text>
</a>
</g>
</g>
<!-- Node10&#45;&gt;Node13 -->
<g id="edge13" class="edge"><title>Node10&#45;&gt;Node13</title>
<path fill="none" stroke="midnightblue" d="M407.11,-124C414.983,-124 423.63,-124 432.348,-124"/>
<polygon fill="midnightblue" stroke="midnightblue" points="432.573,-127.5 442.573,-124 432.573,-120.5 432.573,-127.5"/>
</g>
<!-- Node14 -->
<g id="node14" class="node"><title>Node14</title>
<g id="a_node14"><a xlink:href="group__datatypes__identify__iterable.html#ga6dc7861bf5a7777bfb33876493107d75" target="_top" xlink:title="Test if any element of a list of values is undefined. ">
<polygon fill="white" stroke="black" points="457.5,-76.5 457.5,-95.5 537.5,-95.5 537.5,-76.5 457.5,-76.5"/>
<text text-anchor="middle" x="497.5" y="-83.5" font-family="Helvetica,sans-Serif" font-size="10.00">any_undefined</text>
</a>
</g>
</g>
<!-- Node10&#45;&gt;Node14 -->
<g id="edge14" class="edge"><title>Node10&#45;&gt;Node14</title>
<path fill="none" stroke="midnightblue" d="M404.538,-114.411C419.979,-109.641 438.848,-103.811 455.466,-98.6771"/>
<polygon fill="midnightblue" stroke="midnightblue" points="456.951,-101.882 465.472,-95.5859 454.884,-95.1937 456.951,-101.882"/>
</g>
<!-- Node15 -->
<g id="node15" class="node"><title>Node15</title>
<g id="a_node15"><a xlink:href="group__math__vector__algebra.html#ga3a0c4c75047b8003ab09286a77a58c86" target="_top" xlink:title="Compute the angle between two lines (or vectors) in a Euclidean 3d or 2d&#45;space. ">
<polygon fill="white" stroke="black" points="472.5,-38.5 472.5,-57.5 522.5,-57.5 522.5,-38.5 472.5,-38.5"/>
<text text-anchor="middle" x="497.5" y="-45.5" font-family="Helvetica,sans-Serif" font-size="10.00">angle_ll</text>
</a>
</g>
</g>
<!-- Node10&#45;&gt;Node15 -->
<g id="edge15" class="edge"><title>Node10&#45;&gt;Node15</title>
<path fill="none" stroke="midnightblue" d="M383.047,-114.312C395.746,-101.886 419.357,-80.3518 443,-67 449.112,-63.5482 455.964,-60.5465 462.672,-58.0116"/>
<polygon fill="midnightblue" stroke="midnightblue" points="464.016,-61.2491 472.292,-54.6336 461.697,-54.6444 464.016,-61.2491"/>
</g>
<!-- Node16 -->
<g id="node16" class="node"><title>Node16</title>
<g id="a_node16"><a xlink:href="group__math__vector__algebra.html#gaa71caf02a1433e6c84d61d13d12aa581" target="_top" xlink:title="Compute the normalized unit vector of a Euclidean line (or vector). ">
<polygon fill="white" stroke="black" points="477.5,-0.5 477.5,-19.5 517.5,-19.5 517.5,-0.5 477.5,-0.5"/>
<text text-anchor="middle" x="497.5" y="-7.5" font-family="Helvetica,sans-Serif" font-size="10.00">unit_l</text>
</a>
</g>
</g>
<!-- Node10&#45;&gt;Node16 -->
<g id="edge16" class="edge"><title>Node10&#45;&gt;Node16</title>
<path fill="none" stroke="midnightblue" d="M378.014,-114.444C387.445,-95.4649 411.042,-52.8047 443,-29 450.272,-23.583 459.227,-19.6057 467.716,-16.7328"/>
<polygon fill="midnightblue" stroke="midnightblue" points="468.765,-20.0722 477.338,-13.8475 466.754,-13.3672 468.765,-20.0722"/>
</g>
</g>
</svg>
