<?xml version="1.0" encoding="UTF-8" standalone="no"?>
<!DOCTYPE svg PUBLIC "-//W3C//DTD SVG 1.1//EN"
 "http://www.w3.org/Graphics/SVG/1.1/DTD/svg11.dtd">
<!-- Generated by graphviz version 2.38.0 (20140413.2041)
 -->
<!-- Title: triangle_lp Pages: 1 -->
<svg width="319pt" height="218pt"
 viewBox="0.00 0.00 319.00 218.00" xmlns="http://www.w3.org/2000/svg" xmlns:xlink="http://www.w3.org/1999/xlink">
<g id="graph0" class="graph" transform="scale(1 1) rotate(0) translate(4 214)">
<title>triangle_lp</title>
<polygon fill="white" stroke="none" points="-4,4 -4,-214 315,-214 315,4 -4,4"/>
<!-- Node1 -->
<g id="node1" class="node"><title>Node1</title>
<polygon fill="#bfbfbf" stroke="black" points="0,-114.5 0,-133.5 61,-133.5 61,-114.5 0,-114.5"/>
<text text-anchor="middle" x="30.5" y="-121.5" font-family="Helvetica,sans-Serif" font-size="10.00">triangle_lp</text>
</g>
<!-- Node2 -->
<g id="node2" class="node"><title>Node2</title>
<g id="a_node2"><a xlink:href="group__datatypes__identify__scalar.html#ga258e8911375d30ff85a6e52df01dc1c5" target="_top" xlink:title="Test if a value is a single non&#45;iterable value. ">
<polygon fill="white" stroke="black" points="103.5,-133.5 103.5,-152.5 159.5,-152.5 159.5,-133.5 103.5,-133.5"/>
<text text-anchor="middle" x="131.5" y="-140.5" font-family="Helvetica,sans-Serif" font-size="10.00">is_scalar</text>
</a>
</g>
</g>
<!-- Node1&#45;&gt;Node2 -->
<g id="edge1" class="edge"><title>Node1&#45;&gt;Node2</title>
<path fill="none" stroke="midnightblue" d="M61.2033,-129.701C71.303,-131.639 82.7192,-133.83 93.3285,-135.866"/>
<polygon fill="midnightblue" stroke="midnightblue" points="92.7032,-139.31 103.184,-137.757 94.0226,-132.435 92.7032,-139.31"/>
</g>
<!-- Node3 -->
<g id="node3" class="node"><title>Node3</title>
<g id="a_node3"><a xlink:href="group__shapes__2d.html#ga33d2a7677306c346ad6be5a488885d86" target="_top" xlink:title="A general triangle specified by three vertices. ">
<polygon fill="white" stroke="black" points="97,-95.5 97,-114.5 166,-114.5 166,-95.5 97,-95.5"/>
<text text-anchor="middle" x="131.5" y="-102.5" font-family="Helvetica,sans-Serif" font-size="10.00">triangle_ppp</text>
</a>
</g>
</g>
<!-- Node1&#45;&gt;Node3 -->
<g id="edge2" class="edge"><title>Node1&#45;&gt;Node3</title>
<path fill="none" stroke="midnightblue" d="M61.2033,-118.299C69.2268,-116.759 78.0812,-115.06 86.7018,-113.406"/>
<polygon fill="midnightblue" stroke="midnightblue" points="87.4894,-116.819 96.6505,-111.496 86.17,-109.944 87.4894,-116.819"/>
</g>
<!-- Node4 -->
<g id="node4" class="node"><title>Node4</title>
<g id="a_node4"><a xlink:href="group__datatypes__operate__scalar.html#gac119300e8c83de0037f2d0a4d9f0ab5c" target="_top" xlink:title="Return a value when it is defined or a default value when it is not. ">
<polygon fill="white" stroke="black" points="225.5,-190.5 225.5,-209.5 287.5,-209.5 287.5,-190.5 225.5,-190.5"/>
<text text-anchor="middle" x="256.5" y="-197.5" font-family="Helvetica,sans-Serif" font-size="10.00">defined_or</text>
</a>
</g>
</g>
<!-- Node3&#45;&gt;Node4 -->
<g id="edge3" class="edge"><title>Node3&#45;&gt;Node4</title>
<path fill="none" stroke="midnightblue" d="M153.091,-114.563C157.642,-117.231 162.226,-120.401 166,-124 187.683,-144.679 178.596,-162.291 202,-181 206.129,-184.3 210.875,-187.052 215.799,-189.339"/>
<polygon fill="midnightblue" stroke="midnightblue" points="214.789,-192.705 225.373,-193.189 217.401,-186.211 214.789,-192.705"/>
</g>
<!-- Node5 -->
<g id="node5" class="node"><title>Node5</title>
<g id="a_node5"><a xlink:href="group__math__triangle.html#ga6eb5bfb1ae077d0db22e41c142233be0" target="_top" xlink:title="Compute the coordinate for the triangle&#39;s incircle. ">
<polygon fill="white" stroke="black" points="202,-152.5 202,-171.5 311,-171.5 311,-152.5 202,-152.5"/>
<text text-anchor="middle" x="256.5" y="-159.5" font-family="Helvetica,sans-Serif" font-size="10.00">triangle_incenter_ppp</text>
</a>
</g>
</g>
<!-- Node3&#45;&gt;Node5 -->
<g id="edge4" class="edge"><title>Node3&#45;&gt;Node5</title>
<path fill="none" stroke="midnightblue" d="M149.302,-114.589C166.391,-124.268 191.77,-138.422 202,-143 206.66,-145.086 211.624,-147.105 216.579,-149"/>
<polygon fill="midnightblue" stroke="midnightblue" points="215.42,-152.302 226.014,-152.474 217.839,-145.734 215.42,-152.302"/>
</g>
<!-- Node6 -->
<g id="node6" class="node"><title>Node6</title>
<g id="a_node6"><a xlink:href="group__math__triangle.html#ga7c94003074f622d6421a665207cafbd7" target="_top" xlink:title="Compute the centroid (geometric center) of a triangle. ">
<polygon fill="white" stroke="black" points="202,-114.5 202,-133.5 311,-133.5 311,-114.5 202,-114.5"/>
<text text-anchor="middle" x="256.5" y="-121.5" font-family="Helvetica,sans-Serif" font-size="10.00">triangle_centroid_ppp</text>
</a>
</g>
</g>
<!-- Node3&#45;&gt;Node6 -->
<g id="edge5" class="edge"><title>Node3&#45;&gt;Node6</title>
<path fill="none" stroke="midnightblue" d="M166.11,-110.192C174.069,-111.421 182.818,-112.773 191.632,-114.134"/>
<polygon fill="midnightblue" stroke="midnightblue" points="191.156,-117.602 201.573,-115.67 192.224,-110.684 191.156,-117.602"/>
</g>
<!-- Node7 -->
<g id="node7" class="node"><title>Node7</title>
<g id="a_node7"><a xlink:href="group__datatypes__identify__iterable.html#ga6dc7861bf5a7777bfb33876493107d75" target="_top" xlink:title="Test if any element of a list of values is undefined. ">
<polygon fill="white" stroke="black" points="216.5,-76.5 216.5,-95.5 296.5,-95.5 296.5,-76.5 216.5,-76.5"/>
<text text-anchor="middle" x="256.5" y="-83.5" font-family="Helvetica,sans-Serif" font-size="10.00">any_undefined</text>
</a>
</g>
</g>
<!-- Node3&#45;&gt;Node7 -->
<g id="edge6" class="edge"><title>Node3&#45;&gt;Node7</title>
<path fill="none" stroke="midnightblue" d="M166.11,-99.8082C178.467,-97.8994 192.729,-95.6964 206.181,-93.6184"/>
<polygon fill="midnightblue" stroke="midnightblue" points="206.917,-97.0464 216.265,-92.0607 205.848,-90.1284 206.917,-97.0464"/>
</g>
<!-- Node8 -->
<g id="node8" class="node"><title>Node8</title>
<g id="a_node8"><a xlink:href="group__math__vector__algebra.html#ga3a0c4c75047b8003ab09286a77a58c86" target="_top" xlink:title="Compute the angle between two lines (or vectors) in a Euclidean 3d or 2d&#45;space. ">
<polygon fill="white" stroke="black" points="231.5,-38.5 231.5,-57.5 281.5,-57.5 281.5,-38.5 231.5,-38.5"/>
<text text-anchor="middle" x="256.5" y="-45.5" font-family="Helvetica,sans-Serif" font-size="10.00">angle_ll</text>
</a>
</g>
</g>
<!-- Node3&#45;&gt;Node8 -->
<g id="edge7" class="edge"><title>Node3&#45;&gt;Node8</title>
<path fill="none" stroke="midnightblue" d="M148.419,-95.3469C162.272,-87.179 183.046,-75.4824 202,-67 208.347,-64.1596 215.259,-61.4418 221.942,-58.9947"/>
<polygon fill="midnightblue" stroke="midnightblue" points="223.218,-62.2559 231.477,-55.6204 220.883,-55.6568 223.218,-62.2559"/>
</g>
<!-- Node9 -->
<g id="node9" class="node"><title>Node9</title>
<g id="a_node9"><a xlink:href="group__math__vector__algebra.html#gaa71caf02a1433e6c84d61d13d12aa581" target="_top" xlink:title="Compute the normalized unit vector of a Euclidean line (or vector). ">
<polygon fill="white" stroke="black" points="236.5,-0.5 236.5,-19.5 276.5,-19.5 276.5,-0.5 236.5,-0.5"/>
<text text-anchor="middle" x="256.5" y="-7.5" font-family="Helvetica,sans-Serif" font-size="10.00">unit_l</text>
</a>
</g>
</g>
<!-- Node3&#45;&gt;Node9 -->
<g id="edge8" class="edge"><title>Node3&#45;&gt;Node9</title>
<path fill="none" stroke="midnightblue" d="M138.853,-95.4404C149.896,-79.5147 174.137,-47.4807 202,-29 209.416,-24.081 218.256,-20.2683 226.593,-17.3935"/>
<polygon fill="midnightblue" stroke="midnightblue" points="227.878,-20.659 236.383,-14.3406 225.795,-13.9764 227.878,-20.659"/>
</g>
</g>
</svg>
