<?xml version="1.0" encoding="UTF-8" standalone="no"?>
<!DOCTYPE svg PUBLIC "-//W3C//DTD SVG 1.1//EN"
 "http://www.w3.org/Graphics/SVG/1.1/DTD/svg11.dtd">
<!-- Generated by graphviz version 2.38.0 (20140413.2041)
 -->
<!-- Title: etriangle_asa Pages: 1 -->
<svg width="568pt" height="313pt"
 viewBox="0.00 0.00 568.00 313.00" xmlns="http://www.w3.org/2000/svg" xmlns:xlink="http://www.w3.org/1999/xlink">
<g id="graph0" class="graph" transform="scale(1 1) rotate(0) translate(4 309)">
<title>etriangle_asa</title>
<polygon fill="white" stroke="none" points="-4,4 -4,-309 564,-309 564,4 -4,4"/>
<!-- Node1 -->
<g id="node1" class="node"><title>Node1</title>
<polygon fill="#bfbfbf" stroke="black" points="0,-228.5 0,-247.5 74,-247.5 74,-228.5 0,-228.5"/>
<text text-anchor="middle" x="37" y="-235.5" font-family="Helvetica,sans-Serif" font-size="10.00">etriangle_asa</text>
</g>
<!-- Node2 -->
<g id="node2" class="node"><title>Node2</title>
<g id="a_node2"><a xlink:href="group__tools__extrude.html#ga2cb6eb6927858c6b5e1e2dfadb197bf9" target="_top" xlink:title="Linearly extrude 2d shape with extrusion upper and lower scaling. ">
<polygon fill="white" stroke="black" points="110,-247.5 110,-266.5 205,-266.5 205,-247.5 110,-247.5"/>
<text text-anchor="middle" x="157.5" y="-254.5" font-family="Helvetica,sans-Serif" font-size="10.00">linear_extrude_uls</text>
</a>
</g>
</g>
<!-- Node1&#45;&gt;Node2 -->
<g id="edge1" class="edge"><title>Node1&#45;&gt;Node2</title>
<path fill="none" stroke="midnightblue" d="M74.1978,-243.804C82.2208,-245.09 90.9119,-246.484 99.5383,-247.867"/>
<polygon fill="midnightblue" stroke="midnightblue" points="99.1632,-251.351 109.591,-249.479 100.271,-244.44 99.1632,-251.351"/>
</g>
<!-- Node5 -->
<g id="node5" class="node"><title>Node5</title>
<g id="a_node5"><a xlink:href="group__shapes__2d.html#gaaefcea1b06acb7b1633e86f657341701" target="_top" xlink:title="A general triangle specified by a side and two adjacent angles. ">
<polygon fill="white" stroke="black" points="123,-209.5 123,-228.5 192,-228.5 192,-209.5 123,-209.5"/>
<text text-anchor="middle" x="157.5" y="-216.5" font-family="Helvetica,sans-Serif" font-size="10.00">triangle_asa</text>
</a>
</g>
</g>
<!-- Node1&#45;&gt;Node5 -->
<g id="edge4" class="edge"><title>Node1&#45;&gt;Node5</title>
<path fill="none" stroke="midnightblue" d="M74.1978,-232.196C86.4429,-230.233 100.244,-228.02 112.996,-225.975"/>
<polygon fill="midnightblue" stroke="midnightblue" points="113.629,-229.419 122.949,-224.38 112.521,-222.507 113.629,-229.419"/>
</g>
<!-- Node3 -->
<g id="node3" class="node"><title>Node3</title>
<g id="a_node3"><a xlink:href="group__datatypes__identify__scalar.html#ga62dbd35f498bfc2a090812b1cf8a37c4" target="_top" xlink:title="Test if a value is not defined. ">
<polygon fill="white" stroke="black" points="242,-285.5 242,-304.5 309,-304.5 309,-285.5 242,-285.5"/>
<text text-anchor="middle" x="275.5" y="-292.5" font-family="Helvetica,sans-Serif" font-size="10.00">not_defined</text>
</a>
</g>
</g>
<!-- Node2&#45;&gt;Node3 -->
<g id="edge2" class="edge"><title>Node2&#45;&gt;Node3</title>
<path fill="none" stroke="midnightblue" d="M187.772,-266.589C202.197,-271.314 219.793,-277.079 235.357,-282.177"/>
<polygon fill="midnightblue" stroke="midnightblue" points="234.645,-285.627 245.238,-285.414 236.824,-278.975 234.645,-285.627"/>
</g>
<!-- Node4 -->
<g id="node4" class="node"><title>Node4</title>
<g id="a_node4"><a xlink:href="group__datatypes__identify__scalar.html#ga258e8911375d30ff85a6e52df01dc1c5" target="_top" xlink:title="Test if a value is a single non&#45;iterable value. ">
<polygon fill="white" stroke="black" points="247.5,-247.5 247.5,-266.5 303.5,-266.5 303.5,-247.5 247.5,-247.5"/>
<text text-anchor="middle" x="275.5" y="-254.5" font-family="Helvetica,sans-Serif" font-size="10.00">is_scalar</text>
</a>
</g>
</g>
<!-- Node2&#45;&gt;Node4 -->
<g id="edge3" class="edge"><title>Node2&#45;&gt;Node4</title>
<path fill="none" stroke="midnightblue" d="M205.013,-257C215.679,-257 226.885,-257 237.109,-257"/>
<polygon fill="midnightblue" stroke="midnightblue" points="237.344,-260.5 247.344,-257 237.344,-253.5 237.344,-260.5"/>
</g>
<!-- Node6 -->
<g id="node6" class="node"><title>Node6</title>
<g id="a_node6"><a xlink:href="group__utilities__console.html#ga1ece4e2cff9ae45c85429c226eb8362c" target="_top" xlink:title="Output warning message to console. ">
<polygon fill="white" stroke="black" points="352.5,-209.5 352.5,-228.5 408.5,-228.5 408.5,-209.5 352.5,-209.5"/>
<text text-anchor="middle" x="380.5" y="-216.5" font-family="Helvetica,sans-Serif" font-size="10.00">log_warn</text>
</a>
</g>
</g>
<!-- Node5&#45;&gt;Node6 -->
<g id="edge5" class="edge"><title>Node5&#45;&gt;Node6</title>
<path fill="none" stroke="midnightblue" d="M192.065,-219C232.473,-219 300.13,-219 342.154,-219"/>
<polygon fill="midnightblue" stroke="midnightblue" points="342.254,-222.5 352.254,-219 342.254,-215.5 342.254,-222.5"/>
</g>
<!-- Node8 -->
<g id="node8" class="node"><title>Node8</title>
<g id="a_node8"><a xlink:href="group__shapes__2d.html#gab40e6edfc3c5ab69a4db26301318cd86" target="_top" xlink:title="A general triangle specified by its three side lengths. ">
<polygon fill="white" stroke="black" points="241,-171.5 241,-190.5 310,-190.5 310,-171.5 241,-171.5"/>
<text text-anchor="middle" x="275.5" y="-178.5" font-family="Helvetica,sans-Serif" font-size="10.00">triangle_sss</text>
</a>
</g>
</g>
<!-- Node5&#45;&gt;Node8 -->
<g id="edge7" class="edge"><title>Node5&#45;&gt;Node8</title>
<path fill="none" stroke="midnightblue" d="M187.772,-209.411C202.197,-204.686 219.793,-198.921 235.357,-193.823"/>
<polygon fill="midnightblue" stroke="midnightblue" points="236.824,-197.025 245.238,-190.586 234.645,-190.373 236.824,-197.025"/>
</g>
<!-- Node7 -->
<g id="node7" class="node"><title>Node7</title>
<g id="a_node7"><a xlink:href="group__utilities__console.html#ga4fb6c985031c9b551777b2e9ebd2fc34" target="_top" xlink:title="Format the function call stack as a string. ">
<polygon fill="white" stroke="black" points="485,-228.5 485,-247.5 526,-247.5 526,-228.5 485,-228.5"/>
<text text-anchor="middle" x="505.5" y="-235.5" font-family="Helvetica,sans-Serif" font-size="10.00">stack</text>
</a>
</g>
</g>
<!-- Node6&#45;&gt;Node7 -->
<g id="edge6" class="edge"><title>Node6&#45;&gt;Node7</title>
<path fill="none" stroke="midnightblue" d="M408.798,-223.217C428.355,-226.238 454.679,-230.304 474.769,-233.407"/>
<polygon fill="midnightblue" stroke="midnightblue" points="474.504,-236.908 484.921,-234.976 475.573,-229.99 474.504,-236.908"/>
</g>
<!-- Node8&#45;&gt;Node6 -->
<g id="edge9" class="edge"><title>Node8&#45;&gt;Node6</title>
<path fill="none" stroke="midnightblue" d="M302.491,-190.589C315.056,-195.224 330.33,-200.86 343.952,-205.885"/>
<polygon fill="midnightblue" stroke="midnightblue" points="342.924,-209.236 353.517,-209.414 345.347,-202.669 342.924,-209.236"/>
</g>
<!-- Node9 -->
<g id="node9" class="node"><title>Node9</title>
<g id="a_node9"><a xlink:href="group__datatypes__identify__scalar.html#ga068402d4bbb2bbd22b955ad1e14f104b" target="_top" xlink:title="Test if a numerical value is invalid. ">
<polygon fill="white" stroke="black" points="358,-171.5 358,-190.5 403,-190.5 403,-171.5 358,-171.5"/>
<text text-anchor="middle" x="380.5" y="-178.5" font-family="Helvetica,sans-Serif" font-size="10.00">is_nan</text>
</a>
</g>
</g>
<!-- Node8&#45;&gt;Node9 -->
<g id="edge8" class="edge"><title>Node8&#45;&gt;Node9</title>
<path fill="none" stroke="midnightblue" d="M310.226,-181C322.175,-181 335.578,-181 347.389,-181"/>
<polygon fill="midnightblue" stroke="midnightblue" points="347.7,-184.5 357.7,-181 347.7,-177.5 347.7,-184.5"/>
</g>
<!-- Node10 -->
<g id="node10" class="node"><title>Node10</title>
<g id="a_node10"><a xlink:href="group__shapes__2d.html#ga33d2a7677306c346ad6be5a488885d86" target="_top" xlink:title="A general triangle specified by three vertices. ">
<polygon fill="white" stroke="black" points="346,-114.5 346,-133.5 415,-133.5 415,-114.5 346,-114.5"/>
<text text-anchor="middle" x="380.5" y="-121.5" font-family="Helvetica,sans-Serif" font-size="10.00">triangle_ppp</text>
</a>
</g>
</g>
<!-- Node8&#45;&gt;Node10 -->
<g id="edge10" class="edge"><title>Node8&#45;&gt;Node10</title>
<path fill="none" stroke="midnightblue" d="M293.973,-171.331C310.274,-162.31 334.808,-148.733 353.424,-138.43"/>
<polygon fill="midnightblue" stroke="midnightblue" points="355.231,-141.431 362.285,-133.526 351.841,-135.306 355.231,-141.431"/>
</g>
<!-- Node11 -->
<g id="node11" class="node"><title>Node11</title>
<g id="a_node11"><a xlink:href="group__datatypes__operate__scalar.html#gac119300e8c83de0037f2d0a4d9f0ab5c" target="_top" xlink:title="Return a value when it is defined or a default value when it is not. ">
<polygon fill="white" stroke="black" points="474.5,-190.5 474.5,-209.5 536.5,-209.5 536.5,-190.5 474.5,-190.5"/>
<text text-anchor="middle" x="505.5" y="-197.5" font-family="Helvetica,sans-Serif" font-size="10.00">defined_or</text>
</a>
</g>
</g>
<!-- Node10&#45;&gt;Node11 -->
<g id="edge11" class="edge"><title>Node10&#45;&gt;Node11</title>
<path fill="none" stroke="midnightblue" d="M391.047,-133.688C403.746,-146.114 427.357,-167.648 451,-181 455.281,-183.417 459.924,-185.614 464.626,-187.584"/>
<polygon fill="midnightblue" stroke="midnightblue" points="463.674,-190.968 474.264,-191.308 466.197,-184.439 463.674,-190.968"/>
</g>
<!-- Node12 -->
<g id="node12" class="node"><title>Node12</title>
<g id="a_node12"><a xlink:href="group__math__triangle.html#ga6eb5bfb1ae077d0db22e41c142233be0" target="_top" xlink:title="Compute the coordinate for the triangle&#39;s incircle. ">
<polygon fill="white" stroke="black" points="451,-152.5 451,-171.5 560,-171.5 560,-152.5 451,-152.5"/>
<text text-anchor="middle" x="505.5" y="-159.5" font-family="Helvetica,sans-Serif" font-size="10.00">triangle_incenter_ppp</text>
</a>
</g>
</g>
<!-- Node10&#45;&gt;Node12 -->
<g id="edge12" class="edge"><title>Node10&#45;&gt;Node12</title>
<path fill="none" stroke="midnightblue" d="M412.538,-133.589C427.979,-138.359 446.848,-144.189 463.466,-149.323"/>
<polygon fill="midnightblue" stroke="midnightblue" points="462.884,-152.806 473.472,-152.414 464.951,-146.118 462.884,-152.806"/>
</g>
<!-- Node13 -->
<g id="node13" class="node"><title>Node13</title>
<g id="a_node13"><a xlink:href="group__math__triangle.html#ga7c94003074f622d6421a665207cafbd7" target="_top" xlink:title="Compute the centroid (geometric center) of a triangle. ">
<polygon fill="white" stroke="black" points="451,-114.5 451,-133.5 560,-133.5 560,-114.5 451,-114.5"/>
<text text-anchor="middle" x="505.5" y="-121.5" font-family="Helvetica,sans-Serif" font-size="10.00">triangle_centroid_ppp</text>
</a>
</g>
</g>
<!-- Node10&#45;&gt;Node13 -->
<g id="edge13" class="edge"><title>Node10&#45;&gt;Node13</title>
<path fill="none" stroke="midnightblue" d="M415.11,-124C422.983,-124 431.63,-124 440.348,-124"/>
<polygon fill="midnightblue" stroke="midnightblue" points="440.573,-127.5 450.573,-124 440.573,-120.5 440.573,-127.5"/>
</g>
<!-- Node14 -->
<g id="node14" class="node"><title>Node14</title>
<g id="a_node14"><a xlink:href="group__datatypes__identify__iterable.html#ga6dc7861bf5a7777bfb33876493107d75" target="_top" xlink:title="Test if any element of a list of values is undefined. ">
<polygon fill="white" stroke="black" points="465.5,-76.5 465.5,-95.5 545.5,-95.5 545.5,-76.5 465.5,-76.5"/>
<text text-anchor="middle" x="505.5" y="-83.5" font-family="Helvetica,sans-Serif" font-size="10.00">any_undefined</text>
</a>
</g>
</g>
<!-- Node10&#45;&gt;Node14 -->
<g id="edge14" class="edge"><title>Node10&#45;&gt;Node14</title>
<path fill="none" stroke="midnightblue" d="M412.538,-114.411C427.979,-109.641 446.848,-103.811 463.466,-98.6771"/>
<polygon fill="midnightblue" stroke="midnightblue" points="464.951,-101.882 473.472,-95.5859 462.884,-95.1937 464.951,-101.882"/>
</g>
<!-- Node15 -->
<g id="node15" class="node"><title>Node15</title>
<g id="a_node15"><a xlink:href="group__math__vector__algebra.html#ga3a0c4c75047b8003ab09286a77a58c86" target="_top" xlink:title="Compute the angle between two lines (or vectors) in a Euclidean 3d or 2d&#45;space. ">
<polygon fill="white" stroke="black" points="480.5,-38.5 480.5,-57.5 530.5,-57.5 530.5,-38.5 480.5,-38.5"/>
<text text-anchor="middle" x="505.5" y="-45.5" font-family="Helvetica,sans-Serif" font-size="10.00">angle_ll</text>
</a>
</g>
</g>
<!-- Node10&#45;&gt;Node15 -->
<g id="edge15" class="edge"><title>Node10&#45;&gt;Node15</title>
<path fill="none" stroke="midnightblue" d="M391.047,-114.312C403.746,-101.886 427.357,-80.3518 451,-67 457.112,-63.5482 463.964,-60.5465 470.672,-58.0116"/>
<polygon fill="midnightblue" stroke="midnightblue" points="472.016,-61.2491 480.292,-54.6336 469.697,-54.6444 472.016,-61.2491"/>
</g>
<!-- Node16 -->
<g id="node16" class="node"><title>Node16</title>
<g id="a_node16"><a xlink:href="group__math__vector__algebra.html#gaa71caf02a1433e6c84d61d13d12aa581" target="_top" xlink:title="Compute the normalized unit vector of a Euclidean line (or vector). ">
<polygon fill="white" stroke="black" points="485.5,-0.5 485.5,-19.5 525.5,-19.5 525.5,-0.5 485.5,-0.5"/>
<text text-anchor="middle" x="505.5" y="-7.5" font-family="Helvetica,sans-Serif" font-size="10.00">unit_l</text>
</a>
</g>
</g>
<!-- Node10&#45;&gt;Node16 -->
<g id="edge16" class="edge"><title>Node10&#45;&gt;Node16</title>
<path fill="none" stroke="midnightblue" d="M386.014,-114.444C395.445,-95.4649 419.042,-52.8047 451,-29 458.272,-23.583 467.227,-19.6057 475.716,-16.7328"/>
<polygon fill="midnightblue" stroke="midnightblue" points="476.765,-20.0722 485.338,-13.8475 474.754,-13.3672 476.765,-20.0722"/>
</g>
</g>
</svg>
