<?xml version="1.0" encoding="UTF-8" standalone="no"?>
<!DOCTYPE svg PUBLIC "-//W3C//DTD SVG 1.1//EN"
 "http://www.w3.org/Graphics/SVG/1.1/DTD/svg11.dtd">
<!-- Generated by graphviz version 2.38.0 (20140413.2041)
 -->
<!-- Title: erhombus Pages: 1 -->
<svg width="301pt" height="142pt"
 viewBox="0.00 0.00 301.00 142.00" xmlns="http://www.w3.org/2000/svg" xmlns:xlink="http://www.w3.org/1999/xlink">
<g id="graph0" class="graph" transform="scale(1 1) rotate(0) translate(4 138)">
<title>erhombus</title>
<polygon fill="white" stroke="none" points="-4,4 -4,-138 297,-138 297,4 -4,4"/>
<!-- Node1 -->
<g id="node1" class="node"><title>Node1</title>
<polygon fill="#bfbfbf" stroke="black" points="0,-76.5 0,-95.5 59,-95.5 59,-76.5 0,-76.5"/>
<text text-anchor="middle" x="29.5" y="-83.5" font-family="Helvetica,sans-Serif" font-size="10.00">erhombus</text>
</g>
<!-- Node2 -->
<g id="node2" class="node"><title>Node2</title>
<g id="a_node2"><a xlink:href="group__tools__extrude.html#ga2cb6eb6927858c6b5e1e2dfadb197bf9" target="_top" xlink:title="Linearly extrude 2d shape with extrusion upper and lower scaling. ">
<polygon fill="white" stroke="black" points="95,-95.5 95,-114.5 190,-114.5 190,-95.5 95,-95.5"/>
<text text-anchor="middle" x="142.5" y="-102.5" font-family="Helvetica,sans-Serif" font-size="10.00">linear_extrude_uls</text>
</a>
</g>
</g>
<!-- Node1&#45;&gt;Node2 -->
<g id="edge1" class="edge"><title>Node1&#45;&gt;Node2</title>
<path fill="none" stroke="midnightblue" d="M59.0853,-90.893C67.0193,-92.2511 75.9217,-93.7749 84.8634,-95.3054"/>
<polygon fill="midnightblue" stroke="midnightblue" points="84.4789,-98.7905 94.9261,-97.0279 85.6599,-91.8908 84.4789,-98.7905"/>
</g>
<!-- Node5 -->
<g id="node5" class="node"><title>Node5</title>
<g id="a_node5"><a xlink:href="group__shapes__2d.html#ga89c8cb6f39cf9b045091f8b0434b25d0" target="_top" xlink:title="A rhombus. ">
<polygon fill="white" stroke="black" points="115.5,-57.5 115.5,-76.5 169.5,-76.5 169.5,-57.5 115.5,-57.5"/>
<text text-anchor="middle" x="142.5" y="-64.5" font-family="Helvetica,sans-Serif" font-size="10.00">rhombus</text>
</a>
</g>
</g>
<!-- Node1&#45;&gt;Node5 -->
<g id="edge4" class="edge"><title>Node1&#45;&gt;Node5</title>
<path fill="none" stroke="midnightblue" d="M59.0853,-81.107C73.1769,-78.6949 90.3229,-75.76 105.319,-73.1931"/>
<polygon fill="midnightblue" stroke="midnightblue" points="106.027,-76.6229 115.293,-71.4858 104.846,-69.7232 106.027,-76.6229"/>
</g>
<!-- Node3 -->
<g id="node3" class="node"><title>Node3</title>
<g id="a_node3"><a xlink:href="group__datatypes__identify__scalar.html#ga62dbd35f498bfc2a090812b1cf8a37c4" target="_top" xlink:title="Test if a value is not defined. ">
<polygon fill="white" stroke="black" points="226,-114.5 226,-133.5 293,-133.5 293,-114.5 226,-114.5"/>
<text text-anchor="middle" x="259.5" y="-121.5" font-family="Helvetica,sans-Serif" font-size="10.00">not_defined</text>
</a>
</g>
</g>
<!-- Node2&#45;&gt;Node3 -->
<g id="edge2" class="edge"><title>Node2&#45;&gt;Node3</title>
<path fill="none" stroke="midnightblue" d="M190.275,-112.728C198.763,-114.13 207.575,-115.586 215.934,-116.967"/>
<polygon fill="midnightblue" stroke="midnightblue" points="215.416,-120.429 225.853,-118.606 216.558,-113.523 215.416,-120.429"/>
</g>
<!-- Node4 -->
<g id="node4" class="node"><title>Node4</title>
<g id="a_node4"><a xlink:href="group__datatypes__identify__scalar.html#ga258e8911375d30ff85a6e52df01dc1c5" target="_top" xlink:title="Test if a value is a single non&#45;iterable value. ">
<polygon fill="white" stroke="black" points="231.5,-76.5 231.5,-95.5 287.5,-95.5 287.5,-76.5 231.5,-76.5"/>
<text text-anchor="middle" x="259.5" y="-83.5" font-family="Helvetica,sans-Serif" font-size="10.00">is_scalar</text>
</a>
</g>
</g>
<!-- Node2&#45;&gt;Node4 -->
<g id="edge3" class="edge"><title>Node2&#45;&gt;Node4</title>
<path fill="none" stroke="midnightblue" d="M190.275,-97.272C200.613,-95.5639 211.431,-93.7767 221.327,-92.1417"/>
<polygon fill="midnightblue" stroke="midnightblue" points="221.951,-95.5861 231.247,-90.5027 220.81,-88.6797 221.951,-95.5861"/>
</g>
<!-- Node5&#45;&gt;Node3 -->
<g id="edge6" class="edge"><title>Node5&#45;&gt;Node3</title>
<path fill="none" stroke="midnightblue" d="M168.353,-76.5205C175.423,-79.3992 183.08,-82.6814 190,-86 198.354,-90.0066 217.221,-100.513 233.043,-109.466"/>
<polygon fill="midnightblue" stroke="midnightblue" points="231.48,-112.603 241.905,-114.496 234.936,-106.516 231.48,-112.603"/>
</g>
<!-- Node5&#45;&gt;Node4 -->
<g id="edge7" class="edge"><title>Node5&#45;&gt;Node4</title>
<path fill="none" stroke="midnightblue" d="M169.595,-71.3114C184.852,-73.832 204.363,-77.0556 221.218,-79.8404"/>
<polygon fill="midnightblue" stroke="midnightblue" points="220.871,-83.3304 231.308,-81.5074 222.012,-76.4241 220.871,-83.3304"/>
</g>
<!-- Node6 -->
<g id="node6" class="node"><title>Node6</title>
<g id="a_node6"><a xlink:href="group__datatypes__operate__iterable.html#ga3d679b4617986e31d5e2803971b37af8" target="_top" xlink:title="Return an iterable element when it exists or a default value when it does not. ">
<polygon fill="white" stroke="black" points="226,-38.5 226,-57.5 293,-57.5 293,-38.5 226,-38.5"/>
<text text-anchor="middle" x="259.5" y="-45.5" font-family="Helvetica,sans-Serif" font-size="10.00">edefined_or</text>
</a>
</g>
</g>
<!-- Node5&#45;&gt;Node6 -->
<g id="edge5" class="edge"><title>Node5&#45;&gt;Node6</title>
<path fill="none" stroke="midnightblue" d="M169.595,-62.6886C183.294,-60.4253 200.424,-57.5952 215.981,-55.0249"/>
<polygon fill="midnightblue" stroke="midnightblue" points="216.63,-58.4653 225.925,-53.3819 215.488,-51.5589 216.63,-58.4653"/>
</g>
<!-- Node7 -->
<g id="node7" class="node"><title>Node7</title>
<g id="a_node7"><a xlink:href="group__math__vector__algebra.html#ga3a0c4c75047b8003ab09286a77a58c86" target="_top" xlink:title="Compute the angle between two lines (or vectors) in a Euclidean 3d or 2d&#45;space. ">
<polygon fill="white" stroke="black" points="234.5,-0.5 234.5,-19.5 284.5,-19.5 284.5,-0.5 234.5,-0.5"/>
<text text-anchor="middle" x="259.5" y="-7.5" font-family="Helvetica,sans-Serif" font-size="10.00">angle_ll</text>
</a>
</g>
</g>
<!-- Node5&#45;&gt;Node7 -->
<g id="edge8" class="edge"><title>Node5&#45;&gt;Node7</title>
<path fill="none" stroke="midnightblue" d="M162.748,-57.4595C181.157,-48.335 209.14,-34.4656 230.108,-24.0726"/>
<polygon fill="midnightblue" stroke="midnightblue" points="231.783,-27.1486 239.189,-19.5716 228.675,-20.8767 231.783,-27.1486"/>
</g>
</g>
</svg>
