<?xml version="1.0" encoding="UTF-8" standalone="no"?>
<!DOCTYPE svg PUBLIC "-//W3C//DTD SVG 1.1//EN"
 "http://www.w3.org/Graphics/SVG/1.1/DTD/svg11.dtd">
<!-- Generated by graphviz version 2.38.0 (20140413.2041)
 -->
<!-- Title: Scalars Pages: 1 -->
<svg width="257pt" height="315pt"
 viewBox="0.00 0.00 257.00 315.46" xmlns="http://www.w3.org/2000/svg" xmlns:xlink="http://www.w3.org/1999/xlink">
<g id="graph0" class="graph" transform="scale(1 1) rotate(0) translate(4 311.455)">
<title>Scalars</title>
<polygon fill="white" stroke="none" points="-4,4 -4,-311.455 253,-311.455 253,4 -4,4"/>
<!-- Node5 -->
<g id="node1" class="node"><title>Node5</title>
<g id="a_node1"><a xlink:href="group__datatypes__operate.html" target="_top" xlink:title="Data type operation. ">
<polygon fill="white" stroke="black" points="181,-282.955 181,-301.955 245,-301.955 245,-282.955 181,-282.955"/>
<text text-anchor="middle" x="213" y="-289.955" font-family="Helvetica,sans-Serif" font-size="10.00">Operations</text>
</a>
</g>
</g>
<!-- Node0 -->
<g id="node2" class="node"><title>Node0</title>
<polygon fill="#bfbfbf" stroke="black" points="0,-130.955 0,-149.955 50,-149.955 50,-130.955 0,-130.955"/>
<text text-anchor="middle" x="25" y="-137.955" font-family="Helvetica,sans-Serif" font-size="10.00">Scalars</text>
</g>
<!-- Node0&#45;&gt;Node5 -->
<g id="edge6" class="edge"><title>Node0&#45;&gt;Node5</title>
<path fill="none" stroke="darkgreen" stroke-dasharray="5,2" d="M25.9273,-150.127C26.3123,-174.539 30.9674,-238.948 68,-270.455 99.3007,-297.086 148.886,-298.773 180.931,-296.452"/>
<text text-anchor="middle" x="113.5" y="-299.455" font-family="Helvetica,sans-Serif" font-size="10.00">datatypes&#45;base.scad</text>
</g>
<!-- Node2 -->
<g id="node3" class="node"><title>Node2</title>
<g id="a_node3"><a xlink:href="group__datatypes.html" target="_top" xlink:title="Data type definitions and operators. ">
<polygon fill="white" stroke="black" points="182,-244.955 182,-263.955 244,-263.955 244,-244.955 182,-244.955"/>
<text text-anchor="middle" x="213" y="-251.955" font-family="Helvetica,sans-Serif" font-size="10.00">Datatypes</text>
</a>
</g>
</g>
<!-- Node0&#45;&gt;Node2 -->
<g id="edge2" class="edge"><title>Node0&#45;&gt;Node2</title>
<path fill="none" stroke="darkgreen" stroke-dasharray="5,2" d="M27.7083,-150.095C31.4757,-168.325 42.2933,-207.783 68,-227.455 100.925,-252.652 150.302,-256.708 181.831,-256.33"/>
<text text-anchor="middle" x="113.5" y="-258.455" font-family="Helvetica,sans-Serif" font-size="10.00">datatypes&#45;base.scad</text>
</g>
<!-- Node8 -->
<g id="node4" class="node"><title>Node8</title>
<g id="a_node4"><a xlink:href="group__datatypes__operate__list.html" target="_top" xlink:title="List data type operations. ">
<polygon fill="white" stroke="black" points="194,-206.955 194,-225.955 232,-225.955 232,-206.955 194,-206.955"/>
<text text-anchor="middle" x="213" y="-213.955" font-family="Helvetica,sans-Serif" font-size="10.00">Lists</text>
</a>
</g>
</g>
<!-- Node0&#45;&gt;Node8 -->
<g id="edge9" class="edge"><title>Node0&#45;&gt;Node8</title>
<path fill="none" stroke="darkgreen" stroke-dasharray="5,2" d="M32.1405,-150.218C39.3746,-160.863 52.4045,-177.565 68,-186.455 108.821,-209.726 165.352,-215.043 193.922,-216.193"/>
<text text-anchor="middle" x="113.5" y="-215.455" font-family="Helvetica,sans-Serif" font-size="10.00">datatypes&#45;base.scad</text>
</g>
<!-- Node7 -->
<g id="node5" class="node"><title>Node7</title>
<g id="a_node5"><a xlink:href="group__datatypes__operate__iterable.html" target="_top" xlink:title="Iterable data type operations. ">
<polygon fill="white" stroke="black" points="186,-168.955 186,-187.955 240,-187.955 240,-168.955 186,-168.955"/>
<text text-anchor="middle" x="213" y="-175.955" font-family="Helvetica,sans-Serif" font-size="10.00">Iterables</text>
</a>
</g>
</g>
<!-- Node0&#45;&gt;Node7 -->
<g id="edge8" class="edge"><title>Node0&#45;&gt;Node7</title>
<path fill="none" stroke="darkgreen" stroke-dasharray="5,2" d="M50.1933,-149.953C55.965,-151.979 62.1495,-153.957 68,-155.455 108.59,-165.85 156.882,-172.418 185.953,-175.762"/>
<text text-anchor="middle" x="113.5" y="-174.455" font-family="Helvetica,sans-Serif" font-size="10.00">datatypes&#45;base.scad</text>
</g>
<!-- Node4 -->
<g id="node6" class="node"><title>Node4</title>
<g id="a_node6"><a xlink:href="group__datatypes__identify__list.html" target="_top" xlink:title="List data type identification. ">
<polygon fill="white" stroke="black" points="194,-130.955 194,-149.955 232,-149.955 232,-130.955 194,-130.955"/>
<text text-anchor="middle" x="213" y="-137.955" font-family="Helvetica,sans-Serif" font-size="10.00">Lists</text>
</a>
</g>
</g>
<!-- Node0&#45;&gt;Node4 -->
<g id="edge5" class="edge"><title>Node0&#45;&gt;Node4</title>
<path fill="none" stroke="darkgreen" stroke-dasharray="5,2" d="M50.3163,-140.455C88.1294,-140.455 160.17,-140.455 193.827,-140.455"/>
<text text-anchor="middle" x="113.5" y="-143.455" font-family="Helvetica,sans-Serif" font-size="10.00">datatypes&#45;base.scad</text>
</g>
<!-- Node3 -->
<g id="node7" class="node"><title>Node3</title>
<g id="a_node7"><a xlink:href="group__datatypes__identify__iterable.html" target="_top" xlink:title="Iterable data type identification. ">
<polygon fill="white" stroke="black" points="186,-92.9555 186,-111.955 240,-111.955 240,-92.9555 186,-92.9555"/>
<text text-anchor="middle" x="213" y="-99.9555" font-family="Helvetica,sans-Serif" font-size="10.00">Iterables</text>
</a>
</g>
</g>
<!-- Node0&#45;&gt;Node3 -->
<g id="edge4" class="edge"><title>Node0&#45;&gt;Node3</title>
<path fill="none" stroke="darkgreen" stroke-dasharray="5,2" d="M50.1933,-130.958C55.965,-128.932 62.1495,-126.954 68,-125.455 108.59,-115.061 156.882,-108.493 185.953,-105.149"/>
<text text-anchor="middle" x="113.5" y="-128.455" font-family="Helvetica,sans-Serif" font-size="10.00">datatypes&#45;base.scad</text>
</g>
<!-- Node6 -->
<g id="node8" class="node"><title>Node6</title>
<g id="a_node8"><a xlink:href="group__datatypes__operate__scalar.html" target="_top" xlink:title="Scalar data type operations. ">
<polygon fill="white" stroke="black" points="188,-54.9555 188,-73.9555 238,-73.9555 238,-54.9555 188,-54.9555"/>
<text text-anchor="middle" x="213" y="-61.9555" font-family="Helvetica,sans-Serif" font-size="10.00">Scalars</text>
</a>
</g>
</g>
<!-- Node0&#45;&gt;Node6 -->
<g id="edge7" class="edge"><title>Node0&#45;&gt;Node6</title>
<path fill="none" stroke="darkgreen" stroke-dasharray="5,2" d="M31.8214,-130.851C38.9444,-119.978 52.0469,-102.592 68,-93.4555 106.063,-71.6559 157.983,-66.0585 187.957,-64.7322"/>
<text text-anchor="middle" x="113.5" y="-96.4555" font-family="Helvetica,sans-Serif" font-size="10.00">datatypes&#45;base.scad</text>
</g>
<!-- Node1 -->
<g id="node9" class="node"><title>Node1</title>
<g id="a_node9"><a xlink:href="group__datatypes__identify.html" target="_top" xlink:title="Compile&#45;time data type identification and tests. ">
<polygon fill="white" stroke="black" points="177,-5.9555 177,-24.9555 249,-24.9555 249,-5.9555 177,-5.9555"/>
<text text-anchor="middle" x="213" y="-12.9555" font-family="Helvetica,sans-Serif" font-size="10.00">Identification</text>
</a>
</g>
</g>
<!-- Node0&#45;&gt;Node1 -->
<g id="edge3" class="edge"><title>Node0&#45;&gt;Node1</title>
<path fill="none" stroke="darkgreen" stroke-dasharray="5,2" d="M27.7485,-130.74C31.5845,-112.339 42.5142,-72.3798 68,-51.4555 98.8709,-26.11 145.148,-18.259 176.859,-16.0092"/>
<text text-anchor="middle" x="113.5" y="-54.4555" font-family="Helvetica,sans-Serif" font-size="10.00">datatypes&#45;base.scad</text>
</g>
<!-- Node1&#45;&gt;Node0 -->
<g id="edge1" class="edge"><title>Node1&#45;&gt;Node0</title>
<path fill="none" stroke="black" d="M168.828,-3.88028C137.869,1.73404 96.7238,3.39161 68,-17.4555 30.7457,-44.4938 26.195,-106.546 25.8834,-130.639"/>
<polygon fill="black" stroke="black" points="168.41,-7.36629 178.905,-5.90917 169.792,-0.504014 168.41,-7.36629"/>
</g>
</g>
</svg>
