<?xml version="1.0" encoding="UTF-8" standalone="no"?>
<!DOCTYPE svg PUBLIC "-//W3C//DTD SVG 1.1//EN"
 "http://www.w3.org/Graphics/SVG/1.1/DTD/svg11.dtd">
<!-- Generated by graphviz version 2.38.0 (20140413.2041)
 -->
<!-- Title: defined_or Pages: 1 -->
<svg width="640pt" height="446pt"
 viewBox="0.00 0.00 640.00 446.00" xmlns="http://www.w3.org/2000/svg" xmlns:xlink="http://www.w3.org/1999/xlink">
<g id="graph0" class="graph" transform="scale(1 1) rotate(0) translate(4 442)">
<title>defined_or</title>
<polygon fill="white" stroke="none" points="-4,4 -4,-442 636,-442 636,4 -4,4"/>
<!-- Node1 -->
<g id="node1" class="node"><title>Node1</title>
<polygon fill="#bfbfbf" stroke="black" points="0,-228.5 0,-247.5 62,-247.5 62,-228.5 0,-228.5"/>
<text text-anchor="middle" x="31" y="-235.5" font-family="Helvetica,sans-Serif" font-size="10.00">defined_or</text>
</g>
<!-- Node2 -->
<g id="node2" class="node"><title>Node2</title>
<g id="a_node2"><a xlink:href="group__shapes__2d.html#ga803b8196745be0e3a338def3c58e3b2b" target="_top" xlink:title="A rectangle with a removed rectangular core. ">
<polygon fill="white" stroke="black" points="110,-380.5 110,-399.5 177,-399.5 177,-380.5 110,-380.5"/>
<text text-anchor="middle" x="143.5" y="-387.5" font-family="Helvetica,sans-Serif" font-size="10.00">rectangle_c</text>
</a>
</g>
</g>
<!-- Node1&#45;&gt;Node2 -->
<g id="edge1" class="edge"><title>Node1&#45;&gt;Node2</title>
<path fill="none" stroke="midnightblue" d="M37.9007,-257.371C47.0011,-284.531 66.7506,-334.166 98,-366 103.78,-371.888 111.315,-376.688 118.537,-380.405"/>
<polygon fill="midnightblue" stroke="midnightblue" points="41.1311,-255.983 34.7435,-247.53 34.4657,-258.121 41.1311,-255.983"/>
</g>
<!-- Node5 -->
<g id="node5" class="node"><title>Node5</title>
<g id="a_node5"><a xlink:href="group__shapes__2d.html#ga33d2a7677306c346ad6be5a488885d86" target="_top" xlink:title="A general triangle specified by three vertices. ">
<polygon fill="white" stroke="black" points="109,-228.5 109,-247.5 178,-247.5 178,-228.5 109,-228.5"/>
<text text-anchor="middle" x="143.5" y="-235.5" font-family="Helvetica,sans-Serif" font-size="10.00">triangle_ppp</text>
</a>
</g>
</g>
<!-- Node1&#45;&gt;Node5 -->
<g id="edge4" class="edge"><title>Node1&#45;&gt;Node5</title>
<path fill="none" stroke="midnightblue" d="M72.394,-238C84.3658,-238 97.3429,-238 108.84,-238"/>
<polygon fill="midnightblue" stroke="midnightblue" points="72.1946,-234.5 62.1946,-238 72.1946,-241.5 72.1946,-234.5"/>
</g>
<!-- Node10 -->
<g id="node10" class="node"><title>Node10</title>
<g id="a_node10"><a xlink:href="group__shapes__2d.html#ga7eefb280ad124a8d35eb4218e5f0bdad" target="_top" xlink:title="A general triangle specified by its sides with a removed triangular core. ">
<polygon fill="white" stroke="black" points="446.5,-190.5 446.5,-209.5 517.5,-209.5 517.5,-190.5 446.5,-190.5"/>
<text text-anchor="middle" x="482" y="-197.5" font-family="Helvetica,sans-Serif" font-size="10.00">triangle_ls_c</text>
</a>
</g>
</g>
<!-- Node1&#45;&gt;Node10 -->
<g id="edge28" class="edge"><title>Node1&#45;&gt;Node10</title>
<path fill="none" stroke="midnightblue" d="M52.4744,-253.778C113.048,-298.416 294.299,-417.063 409,-333 451.856,-301.592 410.953,-259.791 445,-219 448.17,-215.202 452.298,-212.061 456.623,-209.501"/>
<polygon fill="midnightblue" stroke="midnightblue" points="54.2277,-250.719 44.1252,-247.526 50.0319,-256.322 54.2277,-250.719"/>
</g>
<!-- Node23 -->
<g id="node23" class="node"><title>Node23</title>
<g id="a_node23"><a xlink:href="group__shapes__3d.html#ga66f0c4a748f33cc1fff3343655b17f45" target="_top" xlink:title="A cone. ">
<polygon fill="white" stroke="black" points="353,-228.5 353,-247.5 391,-247.5 391,-228.5 353,-228.5"/>
<text text-anchor="middle" x="372" y="-235.5" font-family="Helvetica,sans-Serif" font-size="10.00">cone</text>
</a>
</g>
</g>
<!-- Node1&#45;&gt;Node23 -->
<g id="edge30" class="edge"><title>Node1&#45;&gt;Node23</title>
<path fill="none" stroke="midnightblue" d="M68.2163,-250.397C77.7861,-253.127 88.1856,-255.615 98,-257 186.457,-269.479 210.409,-268.492 299,-257 317.718,-254.572 338.504,-248.733 352.911,-244.164"/>
<polygon fill="midnightblue" stroke="midnightblue" points="69.1877,-247.034 58.6032,-247.501 67.1687,-253.737 69.1877,-247.034"/>
</g>
<!-- Node26 -->
<g id="node26" class="node"><title>Node26</title>
<g id="a_node26"><a xlink:href="group__shapes__2d.html#ga84e0a2811547e6c658909671d9e2bc0b" target="_top" xlink:title="A right&#45;angled triangle specified by a side length and an angle. ">
<polygon fill="white" stroke="black" points="230,-114.5 230,-133.5 294,-133.5 294,-114.5 230,-114.5"/>
<text text-anchor="middle" x="262" y="-121.5" font-family="Helvetica,sans-Serif" font-size="10.00">triangle_sa</text>
</a>
</g>
</g>
<!-- Node1&#45;&gt;Node26 -->
<g id="edge29" class="edge"><title>Node1&#45;&gt;Node26</title>
<path fill="none" stroke="midnightblue" d="M71.8296,-225.855C111.526,-213.343 169.327,-193.899 189,-181 208.456,-168.244 206.466,-157.061 225,-143 229.617,-139.497 234.969,-136.289 240.113,-133.546"/>
<polygon fill="midnightblue" stroke="midnightblue" points="70.6611,-222.554 62.1616,-228.879 72.7505,-229.235 70.6611,-222.554"/>
</g>
<!-- Node29 -->
<g id="node29" class="node"><title>Node29</title>
<g id="a_node29"><a xlink:href="group__tools__polytope.html#ga00b574079f19251be7281151d11db8fa" target="_top" xlink:title="Label the vertices, paths, and edges of a polytope. ">
<polygon fill="white" stroke="black" points="98,-152.5 98,-171.5 189,-171.5 189,-152.5 98,-152.5"/>
<text text-anchor="middle" x="143.5" y="-159.5" font-family="Helvetica,sans-Serif" font-size="10.00">polytope_number</text>
</a>
</g>
</g>
<!-- Node1&#45;&gt;Node29 -->
<g id="edge31" class="edge"><title>Node1&#45;&gt;Node29</title>
<path fill="none" stroke="midnightblue" d="M50.9297,-221.652C63.781,-210.919 81.3949,-196.902 98,-186 105.925,-180.797 115.083,-175.713 123.023,-171.573"/>
<polygon fill="midnightblue" stroke="midnightblue" points="48.6045,-219.035 43.2308,-228.166 53.1257,-224.379 48.6045,-219.035"/>
</g>
<!-- Node30 -->
<g id="node30" class="node"><title>Node30</title>
<g id="a_node30"><a xlink:href="group__tools__polytope.html#ga530c86f9c90ce074aa7adc29834f0539" target="_top" xlink:title="Assemble a polytope skeletal frame using child objects. ">
<polygon fill="white" stroke="black" points="102,-114.5 102,-133.5 185,-133.5 185,-114.5 102,-114.5"/>
<text text-anchor="middle" x="143.5" y="-121.5" font-family="Helvetica,sans-Serif" font-size="10.00">polytope_frame</text>
</a>
</g>
</g>
<!-- Node1&#45;&gt;Node30 -->
<g id="edge32" class="edge"><title>Node1&#45;&gt;Node30</title>
<path fill="none" stroke="midnightblue" d="M41.0112,-219.111C51.9014,-198.041 72.041,-164.146 98,-143 102.559,-139.286 107.952,-136.183 113.382,-133.634"/>
<polygon fill="midnightblue" stroke="midnightblue" points="37.7534,-217.801 36.4232,-228.312 44.0178,-220.925 37.7534,-217.801"/>
</g>
<!-- Node3 -->
<g id="node3" class="node"><title>Node3</title>
<g id="a_node3"><a xlink:href="group__shapes__2de.html#gaa24ca5f53d00f33d356f40f740a1d7f7" target="_top" xlink:title="An extruded rectangle with a removed rectangular core. ">
<polygon fill="white" stroke="black" points="226,-380.5 226,-399.5 298,-399.5 298,-380.5 226,-380.5"/>
<text text-anchor="middle" x="262" y="-387.5" font-family="Helvetica,sans-Serif" font-size="10.00">erectangle_c</text>
</a>
</g>
</g>
<!-- Node2&#45;&gt;Node3 -->
<g id="edge2" class="edge"><title>Node2&#45;&gt;Node3</title>
<path fill="none" stroke="midnightblue" d="M187.506,-390C200.053,-390 213.614,-390 225.631,-390"/>
<polygon fill="midnightblue" stroke="midnightblue" points="187.262,-386.5 177.262,-390 187.262,-393.5 187.262,-386.5"/>
</g>
<!-- Node4 -->
<g id="node4" class="node"><title>Node4</title>
<g id="a_node4"><a xlink:href="group__shapes__3d.html#gac521ba184d6ac7693df4db67df2499b8" target="_top" xlink:title="A rectangular cross&#45;sectional profile revolved about the z&#45;axis. ">
<polygon fill="white" stroke="black" points="236,-418.5 236,-437.5 288,-437.5 288,-418.5 236,-418.5"/>
<text text-anchor="middle" x="262" y="-425.5" font-family="Helvetica,sans-Serif" font-size="10.00">torus_rp</text>
</a>
</g>
</g>
<!-- Node2&#45;&gt;Node4 -->
<g id="edge3" class="edge"><title>Node2&#45;&gt;Node4</title>
<path fill="none" stroke="midnightblue" d="M183.716,-402.791C200.973,-408.42 220.734,-414.866 235.954,-419.831"/>
<polygon fill="midnightblue" stroke="midnightblue" points="184.49,-399.363 173.898,-399.589 182.32,-406.018 184.49,-399.363"/>
</g>
<!-- Node6 -->
<g id="node6" class="node"><title>Node6</title>
<g id="a_node6"><a xlink:href="group__shapes__2d.html#ga9fe8dcb93cf5fca81671a04f1ccb562c" target="_top" xlink:title="A general triangle specified by a list of its three vertices. ">
<polygon fill="white" stroke="black" points="231.5,-304.5 231.5,-323.5 292.5,-323.5 292.5,-304.5 231.5,-304.5"/>
<text text-anchor="middle" x="262" y="-311.5" font-family="Helvetica,sans-Serif" font-size="10.00">triangle_lp</text>
</a>
</g>
</g>
<!-- Node5&#45;&gt;Node6 -->
<g id="edge5" class="edge"><title>Node5&#45;&gt;Node6</title>
<path fill="none" stroke="midnightblue" d="M167.891,-253.259C191.318,-268.542 226.645,-291.588 246.365,-304.453"/>
<polygon fill="midnightblue" stroke="midnightblue" points="169.543,-250.158 159.255,-247.625 165.718,-256.021 169.543,-250.158"/>
</g>
<!-- Node8 -->
<g id="node8" class="node"><title>Node8</title>
<g id="a_node8"><a xlink:href="group__shapes__2d.html#gab40e6edfc3c5ab69a4db26301318cd86" target="_top" xlink:title="A general triangle specified by its three side lengths. ">
<polygon fill="white" stroke="black" points="227.5,-152.5 227.5,-171.5 296.5,-171.5 296.5,-152.5 227.5,-152.5"/>
<text text-anchor="middle" x="262" y="-159.5" font-family="Helvetica,sans-Serif" font-size="10.00">triangle_sss</text>
</a>
</g>
</g>
<!-- Node5&#45;&gt;Node8 -->
<g id="edge7" class="edge"><title>Node5&#45;&gt;Node8</title>
<path fill="none" stroke="midnightblue" d="M173.792,-223.546C178.995,-220.604 184.261,-217.371 189,-214 206.687,-201.419 207.257,-193.501 225,-181 229.853,-177.581 235.397,-174.36 240.656,-171.575"/>
<polygon fill="midnightblue" stroke="midnightblue" points="171.761,-220.664 164.621,-228.491 175.084,-226.825 171.761,-220.664"/>
</g>
<!-- Node24 -->
<g id="node24" class="node"><title>Node24</title>
<g id="a_node24"><a xlink:href="group__shapes__2d.html#ga0f93c98a50f652382cce6e2a9080a14d" target="_top" xlink:title="A right&#45;angled triangle specified by its opposite and adjacent side lengths. ">
<polygon fill="white" stroke="black" points="230,-190.5 230,-209.5 294,-209.5 294,-190.5 230,-190.5"/>
<text text-anchor="middle" x="262" y="-197.5" font-family="Helvetica,sans-Serif" font-size="10.00">triangle_ss</text>
</a>
</g>
</g>
<!-- Node5&#45;&gt;Node24 -->
<g id="edge23" class="edge"><title>Node5&#45;&gt;Node24</title>
<path fill="none" stroke="midnightblue" d="M183.822,-225.174C199.453,-220.075 217.126,-214.311 231.612,-209.586"/>
<polygon fill="midnightblue" stroke="midnightblue" points="182.32,-221.982 173.898,-228.411 184.49,-228.637 182.32,-221.982"/>
</g>
<!-- Node5&#45;&gt;Node26 -->
<g id="edge25" class="edge"><title>Node5&#45;&gt;Node26</title>
<path fill="none" stroke="midnightblue" d="M177.303,-223.36C181.536,-220.627 185.58,-217.508 189,-214 213.698,-188.667 200.188,-168.221 225,-143 228.668,-139.272 233.223,-136.112 237.846,-133.502"/>
<polygon fill="midnightblue" stroke="midnightblue" points="175.412,-220.41 168.487,-228.429 178.901,-226.478 175.412,-220.41"/>
</g>
<!-- Node28 -->
<g id="node28" class="node"><title>Node28</title>
<g id="a_node28"><a xlink:href="group__shapes__2de.html#ga115ebc47b0630da820f163c0627c9b18" target="_top" xlink:title="An extruded general triangle specified by three vertices. ">
<polygon fill="white" stroke="black" points="225,-228.5 225,-247.5 299,-247.5 299,-228.5 225,-228.5"/>
<text text-anchor="middle" x="262" y="-235.5" font-family="Helvetica,sans-Serif" font-size="10.00">etriangle_ppp</text>
</a>
</g>
</g>
<!-- Node5&#45;&gt;Node28 -->
<g id="edge27" class="edge"><title>Node5&#45;&gt;Node28</title>
<path fill="none" stroke="midnightblue" d="M188.488,-238C200.517,-238 213.41,-238 224.939,-238"/>
<polygon fill="midnightblue" stroke="midnightblue" points="188.197,-234.5 178.197,-238 188.197,-241.5 188.197,-234.5"/>
</g>
<!-- Node7 -->
<g id="node7" class="node"><title>Node7</title>
<g id="a_node7"><a xlink:href="group__shapes__2de.html#ga919151e4d8f40c9218c63b867fb80b7b" target="_top" xlink:title="An extruded general triangle specified by a list of its three vertices. ">
<polygon fill="white" stroke="black" points="339,-304.5 339,-323.5 405,-323.5 405,-304.5 339,-304.5"/>
<text text-anchor="middle" x="372" y="-311.5" font-family="Helvetica,sans-Serif" font-size="10.00">etriangle_lp</text>
</a>
</g>
</g>
<!-- Node6&#45;&gt;Node7 -->
<g id="edge6" class="edge"><title>Node6&#45;&gt;Node7</title>
<path fill="none" stroke="midnightblue" d="M302.662,-314C314.581,-314 327.504,-314 338.871,-314"/>
<polygon fill="midnightblue" stroke="midnightblue" points="302.512,-310.5 292.511,-314 302.511,-317.5 302.512,-310.5"/>
</g>
<!-- Node9 -->
<g id="node9" class="node"><title>Node9</title>
<g id="a_node9"><a xlink:href="group__shapes__2d.html#ga5321277acf52177e1c7928c13377dd00" target="_top" xlink:title="A general triangle specified by a list of its three side lengths. ">
<polygon fill="white" stroke="black" points="341.5,-114.5 341.5,-133.5 402.5,-133.5 402.5,-114.5 341.5,-114.5"/>
<text text-anchor="middle" x="372" y="-121.5" font-family="Helvetica,sans-Serif" font-size="10.00">triangle_ls</text>
</a>
</g>
</g>
<!-- Node8&#45;&gt;Node9 -->
<g id="edge8" class="edge"><title>Node8&#45;&gt;Node9</title>
<path fill="none" stroke="midnightblue" d="M299.867,-149.028C314.256,-143.966 330.455,-138.266 343.756,-133.586"/>
<polygon fill="midnightblue" stroke="midnightblue" points="298.524,-145.79 290.253,-152.411 300.848,-152.393 298.524,-145.79"/>
</g>
<!-- Node16 -->
<g id="node16" class="node"><title>Node16</title>
<g id="a_node16"><a xlink:href="group__shapes__2d.html#gac6b0e8a6784a03e427d8b14eee7d90ca" target="_top" xlink:title="A general triangle specified by two sides and the included angle. ">
<polygon fill="white" stroke="black" points="337.5,-76.5 337.5,-95.5 406.5,-95.5 406.5,-76.5 337.5,-76.5"/>
<text text-anchor="middle" x="372" y="-83.5" font-family="Helvetica,sans-Serif" font-size="10.00">triangle_sas</text>
</a>
</g>
</g>
<!-- Node8&#45;&gt;Node16 -->
<g id="edge15" class="edge"><title>Node8&#45;&gt;Node16</title>
<path fill="none" stroke="midnightblue" d="M292.597,-147.414C294.819,-146.008 296.98,-144.532 299,-143 317.534,-128.939 316.466,-119.061 335,-105 339.617,-101.497 344.969,-98.2893 350.113,-95.5464"/>
<polygon fill="midnightblue" stroke="midnightblue" points="290.79,-144.416 283.887,-152.454 294.295,-150.475 290.79,-144.416"/>
</g>
<!-- Node18 -->
<g id="node18" class="node"><title>Node18</title>
<g id="a_node18"><a xlink:href="group__shapes__2d.html#gaaefcea1b06acb7b1633e86f657341701" target="_top" xlink:title="A general triangle specified by a side and two adjacent angles. ">
<polygon fill="white" stroke="black" points="337.5,-38.5 337.5,-57.5 406.5,-57.5 406.5,-38.5 337.5,-38.5"/>
<text text-anchor="middle" x="372" y="-45.5" font-family="Helvetica,sans-Serif" font-size="10.00">triangle_asa</text>
</a>
</g>
</g>
<!-- Node8&#45;&gt;Node18 -->
<g id="edge17" class="edge"><title>Node8&#45;&gt;Node18</title>
<path fill="none" stroke="midnightblue" d="M295.094,-146.591C296.478,-145.46 297.79,-144.263 299,-143 324.851,-116.006 309.149,-93.9938 335,-67 338.519,-63.3251 342.907,-60.2144 347.395,-57.6412"/>
<polygon fill="midnightblue" stroke="midnightblue" points="292.909,-143.844 286.605,-152.359 296.843,-149.634 292.909,-143.844"/>
</g>
<!-- Node20 -->
<g id="node20" class="node"><title>Node20</title>
<g id="a_node20"><a xlink:href="group__shapes__2d.html#gad0730473c871f346877e8ef91e2bdfd4" target="_top" xlink:title="A general triangle specified by a side, one adjacent angle and the opposite angle. ">
<polygon fill="white" stroke="black" points="337.5,-190.5 337.5,-209.5 406.5,-209.5 406.5,-190.5 337.5,-190.5"/>
<text text-anchor="middle" x="372" y="-197.5" font-family="Helvetica,sans-Serif" font-size="10.00">triangle_aas</text>
</a>
</g>
</g>
<!-- Node8&#45;&gt;Node20 -->
<g id="edge19" class="edge"><title>Node8&#45;&gt;Node20</title>
<path fill="none" stroke="midnightblue" d="M299.867,-174.972C314.256,-180.034 330.455,-185.734 343.756,-190.414"/>
<polygon fill="midnightblue" stroke="midnightblue" points="300.848,-171.607 290.253,-171.589 298.524,-178.21 300.848,-171.607"/>
</g>
<!-- Node22 -->
<g id="node22" class="node"><title>Node22</title>
<g id="a_node22"><a xlink:href="group__shapes__2de.html#ga4940596130c3cd1e62fea77569459a52" target="_top" xlink:title="An extruded general triangle specified by its three side lengths. ">
<polygon fill="white" stroke="black" points="335,-152.5 335,-171.5 409,-171.5 409,-152.5 335,-152.5"/>
<text text-anchor="middle" x="372" y="-159.5" font-family="Helvetica,sans-Serif" font-size="10.00">etriangle_sss</text>
</a>
</g>
</g>
<!-- Node8&#45;&gt;Node22 -->
<g id="edge21" class="edge"><title>Node8&#45;&gt;Node22</title>
<path fill="none" stroke="midnightblue" d="M306.836,-162C316.131,-162 325.844,-162 334.817,-162"/>
<polygon fill="midnightblue" stroke="midnightblue" points="306.58,-158.5 296.58,-162 306.58,-165.5 306.58,-158.5"/>
</g>
<!-- Node8&#45;&gt;Node23 -->
<g id="edge22" class="edge"><title>Node8&#45;&gt;Node23</title>
<path fill="none" stroke="midnightblue" d="M292.597,-176.586C294.819,-177.992 296.98,-179.468 299,-181 317.534,-195.061 316.466,-204.939 335,-219 340.405,-223.101 346.819,-226.798 352.725,-229.817"/>
<polygon fill="midnightblue" stroke="midnightblue" points="294.295,-173.525 283.887,-171.546 290.79,-179.584 294.295,-173.525"/>
</g>
<!-- Node9&#45;&gt;Node10 -->
<g id="edge9" class="edge"><title>Node9&#45;&gt;Node10</title>
<path fill="none" stroke="midnightblue" d="M402.597,-138.586C404.819,-139.992 406.98,-141.468 409,-143 427.534,-157.061 426.466,-166.939 445,-181 449.617,-184.503 454.969,-187.711 460.113,-190.454"/>
<polygon fill="midnightblue" stroke="midnightblue" points="404.295,-135.525 393.887,-133.546 400.79,-141.584 404.295,-135.525"/>
</g>
<!-- Node13 -->
<g id="node13" class="node"><title>Node13</title>
<g id="a_node13"><a xlink:href="group__shapes__2d.html#ga7452bf5414a3677ec806a31aed6b61dd" target="_top" xlink:title="A two&#45;dimensional star. ">
<polygon fill="white" stroke="black" points="460,-152.5 460,-171.5 504,-171.5 504,-152.5 460,-152.5"/>
<text text-anchor="middle" x="482" y="-159.5" font-family="Helvetica,sans-Serif" font-size="10.00">star2d</text>
</a>
</g>
</g>
<!-- Node9&#45;&gt;Node13 -->
<g id="edge12" class="edge"><title>Node9&#45;&gt;Node13</title>
<path fill="none" stroke="midnightblue" d="M409.753,-136.932C426.467,-142.812 445.643,-149.56 459.888,-154.572"/>
<polygon fill="midnightblue" stroke="midnightblue" points="410.848,-133.607 400.253,-133.589 408.524,-140.21 410.848,-133.607"/>
</g>
<!-- Node15 -->
<g id="node15" class="node"><title>Node15</title>
<g id="a_node15"><a xlink:href="group__shapes__2de.html#gace35f9581cef6d5c20c3fd1d922284d1" target="_top" xlink:title="An extruded general triangle specified by a list of its three side lengths. ">
<polygon fill="white" stroke="black" points="449,-114.5 449,-133.5 515,-133.5 515,-114.5 449,-114.5"/>
<text text-anchor="middle" x="482" y="-121.5" font-family="Helvetica,sans-Serif" font-size="10.00">etriangle_ls</text>
</a>
</g>
</g>
<!-- Node9&#45;&gt;Node15 -->
<g id="edge14" class="edge"><title>Node9&#45;&gt;Node15</title>
<path fill="none" stroke="midnightblue" d="M412.662,-124C424.581,-124 437.504,-124 448.871,-124"/>
<polygon fill="midnightblue" stroke="midnightblue" points="412.512,-120.5 402.511,-124 412.511,-127.5 412.512,-120.5"/>
</g>
<!-- Node11 -->
<g id="node11" class="node"><title>Node11</title>
<g id="a_node11"><a xlink:href="group__shapes__2de.html#ga0c99582ccf3d5b1425c99001b228c202" target="_top" xlink:title="A general triangle specified by its sides with a removed triangular core. ">
<polygon fill="white" stroke="black" points="555,-190.5 555,-209.5 632,-209.5 632,-190.5 555,-190.5"/>
<text text-anchor="middle" x="593.5" y="-197.5" font-family="Helvetica,sans-Serif" font-size="10.00">etriangle_ls_c</text>
</a>
</g>
</g>
<!-- Node10&#45;&gt;Node11 -->
<g id="edge10" class="edge"><title>Node10&#45;&gt;Node11</title>
<path fill="none" stroke="midnightblue" d="M527.869,-200C536.767,-200 546.027,-200 554.663,-200"/>
<polygon fill="midnightblue" stroke="midnightblue" points="527.647,-196.5 517.646,-200 527.646,-203.5 527.647,-196.5"/>
</g>
<!-- Node12 -->
<g id="node12" class="node"><title>Node12</title>
<g id="a_node12"><a xlink:href="group__shapes__3d.html#gaa3137155089f4d50c13ebea05402edd0" target="_top" xlink:title="A triangular cross&#45;sectional profile revolved about the z&#45;axis. ">
<polygon fill="white" stroke="black" points="567.5,-228.5 567.5,-247.5 619.5,-247.5 619.5,-228.5 567.5,-228.5"/>
<text text-anchor="middle" x="593.5" y="-235.5" font-family="Helvetica,sans-Serif" font-size="10.00">torus_tp</text>
</a>
</g>
</g>
<!-- Node10&#45;&gt;Node12 -->
<g id="edge11" class="edge"><title>Node10&#45;&gt;Node12</title>
<path fill="none" stroke="midnightblue" d="M520.476,-213.005C536,-218.393 553.589,-224.497 567.499,-229.324"/>
<polygon fill="midnightblue" stroke="midnightblue" points="521.226,-209.561 510.631,-209.589 518.931,-216.174 521.226,-209.561"/>
</g>
<!-- Node14 -->
<g id="node14" class="node"><title>Node14</title>
<g id="a_node14"><a xlink:href="group__shapes__2de.html#ga69ece32102ccb27e9985975fa4590251" target="_top" xlink:title="An extruded two&#45;dimensional star. ">
<polygon fill="white" stroke="black" points="569,-152.5 569,-171.5 618,-171.5 618,-152.5 569,-152.5"/>
<text text-anchor="middle" x="593.5" y="-159.5" font-family="Helvetica,sans-Serif" font-size="10.00">estar2d</text>
</a>
</g>
</g>
<!-- Node13&#45;&gt;Node14 -->
<g id="edge13" class="edge"><title>Node13&#45;&gt;Node14</title>
<path fill="none" stroke="midnightblue" d="M514.324,-162C531.655,-162 552.846,-162 568.791,-162"/>
<polygon fill="midnightblue" stroke="midnightblue" points="514.113,-158.5 504.113,-162 514.113,-165.5 514.113,-158.5"/>
</g>
<!-- Node17 -->
<g id="node17" class="node"><title>Node17</title>
<g id="a_node17"><a xlink:href="group__shapes__2de.html#gae4dc22fae0c22daa5d4844755cd268ac" target="_top" xlink:title="An extruded general triangle specified by two sides and the included angle. ">
<polygon fill="white" stroke="black" points="445,-76.5 445,-95.5 519,-95.5 519,-76.5 445,-76.5"/>
<text text-anchor="middle" x="482" y="-83.5" font-family="Helvetica,sans-Serif" font-size="10.00">etriangle_sas</text>
</a>
</g>
</g>
<!-- Node16&#45;&gt;Node17 -->
<g id="edge16" class="edge"><title>Node16&#45;&gt;Node17</title>
<path fill="none" stroke="midnightblue" d="M416.836,-86C426.131,-86 435.844,-86 444.817,-86"/>
<polygon fill="midnightblue" stroke="midnightblue" points="416.58,-82.5001 406.58,-86 416.58,-89.5001 416.58,-82.5001"/>
</g>
<!-- Node19 -->
<g id="node19" class="node"><title>Node19</title>
<g id="a_node19"><a xlink:href="group__shapes__2de.html#ga5b1240a97e34583d10011e5d0044ca28" target="_top" xlink:title="An extruded general triangle specified by a side and two adjacent angles. ">
<polygon fill="white" stroke="black" points="445,-38.5 445,-57.5 519,-57.5 519,-38.5 445,-38.5"/>
<text text-anchor="middle" x="482" y="-45.5" font-family="Helvetica,sans-Serif" font-size="10.00">etriangle_asa</text>
</a>
</g>
</g>
<!-- Node18&#45;&gt;Node19 -->
<g id="edge18" class="edge"><title>Node18&#45;&gt;Node19</title>
<path fill="none" stroke="midnightblue" d="M416.836,-48C426.131,-48 435.844,-48 444.817,-48"/>
<polygon fill="midnightblue" stroke="midnightblue" points="416.58,-44.5001 406.58,-48 416.58,-51.5001 416.58,-44.5001"/>
</g>
<!-- Node21 -->
<g id="node21" class="node"><title>Node21</title>
<g id="a_node21"><a xlink:href="group__shapes__2de.html#ga8a3300cf4ca82dad9002965960a76a9c" target="_top" xlink:title="An extruded general triangle specified by a side, one adjacent angle and the opposite angle...">
<polygon fill="white" stroke="black" points="445,-228.5 445,-247.5 519,-247.5 519,-228.5 445,-228.5"/>
<text text-anchor="middle" x="482" y="-235.5" font-family="Helvetica,sans-Serif" font-size="10.00">etriangle_aas</text>
</a>
</g>
</g>
<!-- Node20&#45;&gt;Node21 -->
<g id="edge20" class="edge"><title>Node20&#45;&gt;Node21</title>
<path fill="none" stroke="midnightblue" d="M409.867,-212.972C424.256,-218.034 440.455,-223.734 453.756,-228.414"/>
<polygon fill="midnightblue" stroke="midnightblue" points="410.848,-209.607 400.253,-209.589 408.524,-216.21 410.848,-209.607"/>
</g>
<!-- Node25 -->
<g id="node25" class="node"><title>Node25</title>
<g id="a_node25"><a xlink:href="group__shapes__2de.html#gac86de6d90f92b19be2fda894d97dfad4" target="_top" xlink:title="An extruded right&#45;angled triangle specified by its opposite and adjacent side lengths. ">
<polygon fill="white" stroke="black" points="337.5,-266.5 337.5,-285.5 406.5,-285.5 406.5,-266.5 337.5,-266.5"/>
<text text-anchor="middle" x="372" y="-273.5" font-family="Helvetica,sans-Serif" font-size="10.00">etriangle_ss</text>
</a>
</g>
</g>
<!-- Node24&#45;&gt;Node25 -->
<g id="edge24" class="edge"><title>Node24&#45;&gt;Node25</title>
<path fill="none" stroke="midnightblue" d="M292.597,-214.586C294.819,-215.992 296.98,-217.468 299,-219 317.534,-233.061 316.466,-242.939 335,-257 339.617,-260.503 344.969,-263.711 350.113,-266.454"/>
<polygon fill="midnightblue" stroke="midnightblue" points="294.295,-211.525 283.887,-209.546 290.79,-217.584 294.295,-211.525"/>
</g>
<!-- Node27 -->
<g id="node27" class="node"><title>Node27</title>
<g id="a_node27"><a xlink:href="group__shapes__2de.html#gaa80e1bde5ce902feba29d0d57169b8d5" target="_top" xlink:title="An extruded right&#45;angled triangle specified by a side length and an angle. ">
<polygon fill="white" stroke="black" points="337.5,-0.5 337.5,-19.5 406.5,-19.5 406.5,-0.5 337.5,-0.5"/>
<text text-anchor="middle" x="372" y="-7.5" font-family="Helvetica,sans-Serif" font-size="10.00">etriangle_sa</text>
</a>
</g>
</g>
<!-- Node26&#45;&gt;Node27 -->
<g id="edge26" class="edge"><title>Node26&#45;&gt;Node27</title>
<path fill="none" stroke="midnightblue" d="M273.591,-105.504C286.147,-84.8248 308.716,-51.3165 335,-29 339.202,-25.4323 344.185,-22.2748 349.084,-19.6087"/>
<polygon fill="midnightblue" stroke="midnightblue" points="270.485,-103.88 268.403,-114.268 276.509,-107.445 270.485,-103.88"/>
</g>
</g>
</svg>
