<?xml version="1.0" encoding="UTF-8" standalone="no"?>
<!DOCTYPE svg PUBLIC "-//W3C//DTD SVG 1.1//EN"
 "http://www.w3.org/Graphics/SVG/1.1/DTD/svg11.dtd">
<!-- Generated by graphviz version 2.38.0 (20140413.2041)
 -->
<!-- Title: Angles Pages: 1 -->
<svg width="205pt" height="36pt"
 viewBox="0.00 0.00 205.00 36.32" xmlns="http://www.w3.org/2000/svg" xmlns:xlink="http://www.w3.org/1999/xlink">
<g id="graph0" class="graph" transform="scale(1 1) rotate(0) translate(4 32.32)">
<title>Angles</title>
<polygon fill="white" stroke="none" points="-4,4 -4,-32.32 201,-32.32 201,4 -4,4"/>
<!-- Node1 -->
<g id="node1" class="node"><title>Node1</title>
<g id="a_node1"><a xlink:href="group__units.html" target="_top" xlink:title="Units and unit conversions. ">
<polygon fill="white" stroke="black" points="0,-8.81998 0,-27.82 40,-27.82 40,-8.81998 0,-8.81998"/>
<text text-anchor="middle" x="20" y="-15.82" font-family="Helvetica,sans-Serif" font-size="10.00">Units</text>
</a>
</g>
</g>
<!-- Node0 -->
<g id="node2" class="node"><title>Node0</title>
<polygon fill="#bfbfbf" stroke="black" points="150,-8.81998 150,-27.82 197,-27.82 197,-8.81998 150,-8.81998"/>
<text text-anchor="middle" x="173.5" y="-15.82" font-family="Helvetica,sans-Serif" font-size="10.00">Angles</text>
</g>
<!-- Node1&#45;&gt;Node0 -->
<g id="edge1" class="edge"><title>Node1&#45;&gt;Node0</title>
<path fill="none" stroke="black" d="M50.5374,-18.32C79.5915,-18.32 123.326,-18.32 149.769,-18.32"/>
<polygon fill="black" stroke="black" points="50.1876,-14.8201 40.1876,-18.32 50.1875,-21.8201 50.1876,-14.8201"/>
</g>
<!-- Node0&#45;&gt;Node1 -->
<g id="edge2" class="edge"><title>Node0&#45;&gt;Node1</title>
<path fill="none" stroke="darkgreen" stroke-dasharray="5,2" d="M149.716,-8.96495C144.025,-7.0427 137.869,-5.30582 132,-4.31998 99.5654,1.12783 90.3524,1.59607 58,-4.31998 52.0547,-5.40716 45.8247,-7.4012 40.2083,-9.55017"/>
<text text-anchor="middle" x="95" y="-7.31998" font-family="Helvetica,sans-Serif" font-size="10.00">units_angle.scad</text>
</g>
</g>
</svg>
