<?xml version="1.0" encoding="UTF-8" standalone="no"?>
<!DOCTYPE svg PUBLIC "-//W3C//DTD SVG 1.1//EN"
 "http://www.w3.org/Graphics/SVG/1.1/DTD/svg11.dtd">
<!-- Generated by graphviz version 2.38.0 (20140413.2041)
 -->
<!-- Title: star2d Pages: 1 -->
<svg width="515pt" height="289pt"
 viewBox="0.00 0.00 515.00 289.00" xmlns="http://www.w3.org/2000/svg" xmlns:xlink="http://www.w3.org/1999/xlink">
<g id="graph0" class="graph" transform="scale(1 1) rotate(0) translate(4 285)">
<title>star2d</title>
<polygon fill="white" stroke="none" points="-4,4 -4,-285 511,-285 511,4 -4,4"/>
<!-- Node1 -->
<g id="node1" class="node"><title>Node1</title>
<polygon fill="#bfbfbf" stroke="black" points="0,-223.5 0,-242.5 44,-242.5 44,-223.5 0,-223.5"/>
<text text-anchor="middle" x="22" y="-230.5" font-family="Helvetica,sans-Serif" font-size="10.00">star2d</text>
</g>
<!-- Node2 -->
<g id="node2" class="node"><title>Node2</title>
<g id="a_node2"><a xlink:href="group__datatypes__operate__iterable.html#ga3d679b4617986e31d5e2803971b37af8" target="_top" xlink:title="Return an iterable element when it exists or a default value when it does not. ">
<polygon fill="white" stroke="black" points="82.5,-261.5 82.5,-280.5 149.5,-280.5 149.5,-261.5 82.5,-261.5"/>
<text text-anchor="middle" x="116" y="-268.5" font-family="Helvetica,sans-Serif" font-size="10.00">edefined_or</text>
</a>
</g>
</g>
<!-- Node1&#45;&gt;Node2 -->
<g id="edge1" class="edge"><title>Node1&#45;&gt;Node2</title>
<path fill="none" stroke="midnightblue" d="M44.3379,-241.813C55.6741,-246.496 69.8474,-252.35 82.5187,-257.584"/>
<polygon fill="midnightblue" stroke="midnightblue" points="81.2651,-260.853 91.8439,-261.436 83.9375,-254.383 81.2651,-260.853"/>
</g>
<!-- Node3 -->
<g id="node3" class="node"><title>Node3</title>
<g id="a_node3"><a xlink:href="group__tools__repeat.html#gaa2529fb73f5660932dd812b457188e32" target="_top" xlink:title="Distribute copies of a 2d or 3d shape equally about a z&#45;axis radius. ">
<polygon fill="white" stroke="black" points="80,-223.5 80,-242.5 152,-242.5 152,-223.5 80,-223.5"/>
<text text-anchor="middle" x="116" y="-230.5" font-family="Helvetica,sans-Serif" font-size="10.00">radial_repeat</text>
</a>
</g>
</g>
<!-- Node1&#45;&gt;Node3 -->
<g id="edge2" class="edge"><title>Node1&#45;&gt;Node3</title>
<path fill="none" stroke="midnightblue" d="M44.3379,-233C51.8921,-233 60.706,-233 69.4959,-233"/>
<polygon fill="midnightblue" stroke="midnightblue" points="69.7264,-236.5 79.7264,-233 69.7263,-229.5 69.7264,-236.5"/>
</g>
<!-- Node6 -->
<g id="node6" class="node"><title>Node6</title>
<g id="a_node6"><a xlink:href="group__shapes__2d.html#ga5321277acf52177e1c7928c13377dd00" target="_top" xlink:title="A general triangle specified by a list of its three side lengths. ">
<polygon fill="white" stroke="black" points="85.5,-147.5 85.5,-166.5 146.5,-166.5 146.5,-147.5 85.5,-147.5"/>
<text text-anchor="middle" x="116" y="-154.5" font-family="Helvetica,sans-Serif" font-size="10.00">triangle_ls</text>
</a>
</g>
</g>
<!-- Node1&#45;&gt;Node6 -->
<g id="edge5" class="edge"><title>Node1&#45;&gt;Node6</title>
<path fill="none" stroke="midnightblue" d="M34.6519,-223.375C49.9981,-210.697 77.1942,-188.231 95.6513,-172.984"/>
<polygon fill="midnightblue" stroke="midnightblue" points="97.9622,-175.615 103.443,-166.547 93.504,-170.218 97.9622,-175.615"/>
</g>
<!-- Node4 -->
<g id="node4" class="node"><title>Node4</title>
<g id="a_node4"><a xlink:href="group__math__oshapes.html#ga0e1975ceeaf1701764e7041470e3db71" target="_top" xlink:title="Compute the coordinates for an n&#45;sided regular polygon. ">
<polygon fill="white" stroke="black" points="189.5,-261.5 189.5,-280.5 255.5,-280.5 255.5,-261.5 189.5,-261.5"/>
<text text-anchor="middle" x="222.5" y="-268.5" font-family="Helvetica,sans-Serif" font-size="10.00">rpolygon_lp</text>
</a>
</g>
</g>
<!-- Node3&#45;&gt;Node4 -->
<g id="edge3" class="edge"><title>Node3&#45;&gt;Node4</title>
<path fill="none" stroke="midnightblue" d="M143.37,-242.589C156.117,-247.224 171.614,-252.86 185.435,-257.885"/>
<polygon fill="midnightblue" stroke="midnightblue" points="184.545,-261.286 195.139,-261.414 186.937,-254.707 184.545,-261.286"/>
</g>
<!-- Node5 -->
<g id="node5" class="node"><title>Node5</title>
<g id="a_node5"><a xlink:href="group__math__vector__algebra.html#ga3a0c4c75047b8003ab09286a77a58c86" target="_top" xlink:title="Compute the angle between two lines (or vectors) in a Euclidean 3d or 2d&#45;space. ">
<polygon fill="white" stroke="black" points="427.5,-228.5 427.5,-247.5 477.5,-247.5 477.5,-228.5 427.5,-228.5"/>
<text text-anchor="middle" x="452.5" y="-235.5" font-family="Helvetica,sans-Serif" font-size="10.00">angle_ll</text>
</a>
</g>
</g>
<!-- Node3&#45;&gt;Node5 -->
<g id="edge4" class="edge"><title>Node3&#45;&gt;Node5</title>
<path fill="none" stroke="midnightblue" d="M152.165,-233.526C216.542,-234.488 352.603,-236.522 416.704,-237.48"/>
<polygon fill="midnightblue" stroke="midnightblue" points="417.028,-240.985 427.079,-237.635 417.133,-233.986 417.028,-240.985"/>
</g>
<!-- Node7 -->
<g id="node7" class="node"><title>Node7</title>
<g id="a_node7"><a xlink:href="group__datatypes__identify__scalar.html#ga258e8911375d30ff85a6e52df01dc1c5" target="_top" xlink:title="Test if a value is a single non&#45;iterable value. ">
<polygon fill="white" stroke="black" points="194.5,-147.5 194.5,-166.5 250.5,-166.5 250.5,-147.5 194.5,-147.5"/>
<text text-anchor="middle" x="222.5" y="-154.5" font-family="Helvetica,sans-Serif" font-size="10.00">is_scalar</text>
</a>
</g>
</g>
<!-- Node6&#45;&gt;Node7 -->
<g id="edge6" class="edge"><title>Node6&#45;&gt;Node7</title>
<path fill="none" stroke="midnightblue" d="M146.666,-157C158.357,-157 171.916,-157 184.255,-157"/>
<polygon fill="midnightblue" stroke="midnightblue" points="184.266,-160.5 194.266,-157 184.266,-153.5 184.266,-160.5"/>
</g>
<!-- Node8 -->
<g id="node8" class="node"><title>Node8</title>
<g id="a_node8"><a xlink:href="group__shapes__2d.html#gab40e6edfc3c5ab69a4db26301318cd86" target="_top" xlink:title="A general triangle specified by its three side lengths. ">
<polygon fill="white" stroke="black" points="188,-90.5 188,-109.5 257,-109.5 257,-90.5 188,-90.5"/>
<text text-anchor="middle" x="222.5" y="-97.5" font-family="Helvetica,sans-Serif" font-size="10.00">triangle_sss</text>
</a>
</g>
</g>
<!-- Node6&#45;&gt;Node8 -->
<g id="edge7" class="edge"><title>Node6&#45;&gt;Node8</title>
<path fill="none" stroke="midnightblue" d="M134.727,-147.331C151.266,-138.31 176.157,-124.733 195.045,-114.43"/>
<polygon fill="midnightblue" stroke="midnightblue" points="196.932,-117.388 204.035,-109.526 193.58,-111.242 196.932,-117.388"/>
</g>
<!-- Node9 -->
<g id="node9" class="node"><title>Node9</title>
<g id="a_node9"><a xlink:href="group__datatypes__identify__scalar.html#ga068402d4bbb2bbd22b955ad1e14f104b" target="_top" xlink:title="Test if a numerical value is invalid. ">
<polygon fill="white" stroke="black" points="305,-81.5 305,-100.5 350,-100.5 350,-81.5 305,-81.5"/>
<text text-anchor="middle" x="327.5" y="-88.5" font-family="Helvetica,sans-Serif" font-size="10.00">is_nan</text>
</a>
</g>
</g>
<!-- Node8&#45;&gt;Node9 -->
<g id="edge8" class="edge"><title>Node8&#45;&gt;Node9</title>
<path fill="none" stroke="midnightblue" d="M257.226,-97.0531C269.175,-96.009 282.578,-94.8378 294.389,-93.8059"/>
<polygon fill="midnightblue" stroke="midnightblue" points="295.042,-97.2622 304.7,-92.9049 294.433,-90.2887 295.042,-97.2622"/>
</g>
<!-- Node10 -->
<g id="node10" class="node"><title>Node10</title>
<g id="a_node10"><a xlink:href="group__utilities__console.html#ga1ece4e2cff9ae45c85429c226eb8362c" target="_top" xlink:title="Output warning message to console. ">
<polygon fill="white" stroke="black" points="299.5,-24.5 299.5,-43.5 355.5,-43.5 355.5,-24.5 299.5,-24.5"/>
<text text-anchor="middle" x="327.5" y="-31.5" font-family="Helvetica,sans-Serif" font-size="10.00">log_warn</text>
</a>
</g>
</g>
<!-- Node8&#45;&gt;Node10 -->
<g id="edge9" class="edge"><title>Node8&#45;&gt;Node10</title>
<path fill="none" stroke="midnightblue" d="M238.698,-90.2615C255.683,-79.3782 283.385,-61.627 303.13,-48.9751"/>
<polygon fill="midnightblue" stroke="midnightblue" points="305.043,-51.906 311.575,-43.5639 301.266,-46.0122 305.043,-51.906"/>
</g>
<!-- Node12 -->
<g id="node12" class="node"><title>Node12</title>
<g id="a_node12"><a xlink:href="group__shapes__2d.html#ga33d2a7677306c346ad6be5a488885d86" target="_top" xlink:title="A general triangle specified by three vertices. ">
<polygon fill="white" stroke="black" points="293,-119.5 293,-138.5 362,-138.5 362,-119.5 293,-119.5"/>
<text text-anchor="middle" x="327.5" y="-126.5" font-family="Helvetica,sans-Serif" font-size="10.00">triangle_ppp</text>
</a>
</g>
</g>
<!-- Node8&#45;&gt;Node12 -->
<g id="edge11" class="edge"><title>Node8&#45;&gt;Node12</title>
<path fill="none" stroke="midnightblue" d="M257.226,-109.496C265.407,-111.799 274.27,-114.294 282.836,-116.706"/>
<polygon fill="midnightblue" stroke="midnightblue" points="282.124,-120.142 292.698,-119.483 284.021,-113.404 282.124,-120.142"/>
</g>
<!-- Node11 -->
<g id="node11" class="node"><title>Node11</title>
<g id="a_node11"><a xlink:href="group__utilities__console.html#ga4fb6c985031c9b551777b2e9ebd2fc34" target="_top" xlink:title="Format the function call stack as a string. ">
<polygon fill="white" stroke="black" points="432,-0.5 432,-19.5 473,-19.5 473,-0.5 432,-0.5"/>
<text text-anchor="middle" x="452.5" y="-7.5" font-family="Helvetica,sans-Serif" font-size="10.00">stack</text>
</a>
</g>
</g>
<!-- Node10&#45;&gt;Node11 -->
<g id="edge10" class="edge"><title>Node10&#45;&gt;Node11</title>
<path fill="none" stroke="midnightblue" d="M355.798,-28.6736C375.445,-24.8399 401.922,-19.6737 422.046,-15.7471"/>
<polygon fill="midnightblue" stroke="midnightblue" points="422.776,-19.1707 431.921,-13.8203 421.436,-12.3002 422.776,-19.1707"/>
</g>
<!-- Node12&#45;&gt;Node5 -->
<g id="edge16" class="edge"><title>Node12&#45;&gt;Node5</title>
<path fill="none" stroke="midnightblue" d="M333.451,-138.606C343.315,-156.84 367.151,-196.638 398,-219 403.844,-223.237 410.723,-226.604 417.566,-229.253"/>
<polygon fill="midnightblue" stroke="midnightblue" points="416.848,-232.707 427.442,-232.638 419.117,-226.085 416.848,-232.707"/>
</g>
<!-- Node13 -->
<g id="node13" class="node"><title>Node13</title>
<g id="a_node13"><a xlink:href="group__datatypes__operate__scalar.html#gac119300e8c83de0037f2d0a4d9f0ab5c" target="_top" xlink:title="Return a value when it is defined or a default value when it is not. ">
<polygon fill="white" stroke="black" points="421.5,-114.5 421.5,-133.5 483.5,-133.5 483.5,-114.5 421.5,-114.5"/>
<text text-anchor="middle" x="452.5" y="-121.5" font-family="Helvetica,sans-Serif" font-size="10.00">defined_or</text>
</a>
</g>
</g>
<!-- Node12&#45;&gt;Node13 -->
<g id="edge12" class="edge"><title>Node12&#45;&gt;Node13</title>
<path fill="none" stroke="midnightblue" d="M362.11,-127.634C377.281,-127.017 395.324,-126.284 411.214,-125.638"/>
<polygon fill="midnightblue" stroke="midnightblue" points="411.443,-129.131 421.293,-125.228 411.159,-122.137 411.443,-129.131"/>
</g>
<!-- Node14 -->
<g id="node14" class="node"><title>Node14</title>
<g id="a_node14"><a xlink:href="group__math__triangle.html#ga6eb5bfb1ae077d0db22e41c142233be0" target="_top" xlink:title="Compute the coordinate for the triangle&#39;s incircle. ">
<polygon fill="white" stroke="black" points="398,-76.5 398,-95.5 507,-95.5 507,-76.5 398,-76.5"/>
<text text-anchor="middle" x="452.5" y="-83.5" font-family="Helvetica,sans-Serif" font-size="10.00">triangle_incenter_ppp</text>
</a>
</g>
</g>
<!-- Node12&#45;&gt;Node14 -->
<g id="edge13" class="edge"><title>Node12&#45;&gt;Node14</title>
<path fill="none" stroke="midnightblue" d="M355.798,-119.457C373.155,-113.389 395.843,-105.457 414.771,-98.8402"/>
<polygon fill="midnightblue" stroke="midnightblue" points="415.994,-102.12 424.279,-95.5164 413.684,-95.5126 415.994,-102.12"/>
</g>
<!-- Node15 -->
<g id="node15" class="node"><title>Node15</title>
<g id="a_node15"><a xlink:href="group__math__triangle.html#ga7c94003074f622d6421a665207cafbd7" target="_top" xlink:title="Compute the centroid (geometric center) of a triangle. ">
<polygon fill="white" stroke="black" points="398,-38.5 398,-57.5 507,-57.5 507,-38.5 398,-38.5"/>
<text text-anchor="middle" x="452.5" y="-45.5" font-family="Helvetica,sans-Serif" font-size="10.00">triangle_centroid_ppp</text>
</a>
</g>
</g>
<!-- Node12&#45;&gt;Node15 -->
<g id="edge14" class="edge"><title>Node12&#45;&gt;Node15</title>
<path fill="none" stroke="midnightblue" d="M348.054,-119.465C352.838,-116.721 357.788,-113.51 362,-110 381.146,-94.0415 377.535,-81.2276 398,-67 400.838,-65.0273 403.901,-63.2385 407.076,-61.6203"/>
<polygon fill="midnightblue" stroke="midnightblue" points="408.542,-64.7987 416.223,-57.5004 405.668,-58.4163 408.542,-64.7987"/>
</g>
<!-- Node16 -->
<g id="node16" class="node"><title>Node16</title>
<g id="a_node16"><a xlink:href="group__datatypes__identify__iterable.html#ga6dc7861bf5a7777bfb33876493107d75" target="_top" xlink:title="Test if any element of a list of values is undefined. ">
<polygon fill="white" stroke="black" points="412.5,-190.5 412.5,-209.5 492.5,-209.5 492.5,-190.5 412.5,-190.5"/>
<text text-anchor="middle" x="452.5" y="-197.5" font-family="Helvetica,sans-Serif" font-size="10.00">any_undefined</text>
</a>
</g>
</g>
<!-- Node12&#45;&gt;Node16 -->
<g id="edge15" class="edge"><title>Node12&#45;&gt;Node16</title>
<path fill="none" stroke="midnightblue" d="M339.115,-138.567C352.18,-149.941 375.418,-168.903 398,-181 401.918,-183.099 406.116,-185.048 410.373,-186.835"/>
<polygon fill="midnightblue" stroke="midnightblue" points="409.115,-190.101 419.703,-190.482 411.664,-183.581 409.115,-190.101"/>
</g>
<!-- Node17 -->
<g id="node17" class="node"><title>Node17</title>
<g id="a_node17"><a xlink:href="group__math__vector__algebra.html#gaa71caf02a1433e6c84d61d13d12aa581" target="_top" xlink:title="Compute the normalized unit vector of a Euclidean line (or vector). ">
<polygon fill="white" stroke="black" points="432.5,-152.5 432.5,-171.5 472.5,-171.5 472.5,-152.5 432.5,-152.5"/>
<text text-anchor="middle" x="452.5" y="-159.5" font-family="Helvetica,sans-Serif" font-size="10.00">unit_l</text>
</a>
</g>
</g>
<!-- Node12&#45;&gt;Node17 -->
<g id="edge17" class="edge"><title>Node12&#45;&gt;Node17</title>
<path fill="none" stroke="midnightblue" d="M362.11,-138.017C381.107,-143.114 404.607,-149.419 422.744,-154.285"/>
<polygon fill="midnightblue" stroke="midnightblue" points="421.901,-157.683 432.467,-156.894 423.715,-150.922 421.901,-157.683"/>
</g>
</g>
</svg>
