<?xml version="1.0" encoding="UTF-8" standalone="no"?>
<!DOCTYPE svg PUBLIC "-//W3C//DTD SVG 1.1//EN"
 "http://www.w3.org/Graphics/SVG/1.1/DTD/svg11.dtd">
<!-- Generated by graphviz version 2.38.0 (20140413.2041)
 -->
<!-- Title: Bitwise Pages: 1 -->
<svg width="213pt" height="37pt"
 viewBox="0.00 0.00 213.00 36.84" xmlns="http://www.w3.org/2000/svg" xmlns:xlink="http://www.w3.org/1999/xlink">
<g id="graph0" class="graph" transform="scale(1 1) rotate(0) translate(4 32.8356)">
<title>Bitwise</title>
<polygon fill="white" stroke="none" points="-4,4 -4,-32.8356 209,-32.8356 209,4 -4,4"/>
<!-- Node1 -->
<g id="node1" class="node"><title>Node1</title>
<g id="a_node1"><a xlink:href="group__math.html" target="_top" xlink:title="Mathematical functions. ">
<polygon fill="white" stroke="black" points="0,-9.33557 0,-28.3356 38,-28.3356 38,-9.33557 0,-9.33557"/>
<text text-anchor="middle" x="19" y="-16.3356" font-family="Helvetica,sans-Serif" font-size="10.00">Math</text>
</a>
</g>
</g>
<!-- Node0 -->
<g id="node2" class="node"><title>Node0</title>
<polygon fill="#bfbfbf" stroke="black" points="156,-9.33557 156,-28.3356 205,-28.3356 205,-9.33557 156,-9.33557"/>
<text text-anchor="middle" x="180.5" y="-16.3356" font-family="Helvetica,sans-Serif" font-size="10.00">Bitwise</text>
</g>
<!-- Node1&#45;&gt;Node0 -->
<g id="edge1" class="edge"><title>Node1&#45;&gt;Node0</title>
<path fill="none" stroke="black" d="M48.3171,-18.8356C78.8921,-18.8356 127.057,-18.8356 155.734,-18.8356"/>
<polygon fill="black" stroke="black" points="48.2967,-15.3357 38.2967,-18.8356 48.2966,-22.3357 48.2967,-15.3357"/>
</g>
<!-- Node0&#45;&gt;Node1 -->
<g id="edge2" class="edge"><title>Node0&#45;&gt;Node1</title>
<path fill="none" stroke="darkgreen" stroke-dasharray="5,2" d="M155.699,-9.33585C149.991,-7.47108 143.853,-5.79617 138,-4.83557 102.037,1.06711 91.8196,1.88423 56,-4.83557 50.0681,-5.9484 43.8576,-8.00911 38.2976,-10.2137"/>
<text text-anchor="middle" x="97" y="-7.83557" font-family="Helvetica,sans-Serif" font-size="10.00">math_bitwise.scad</text>
</g>
</g>
</svg>
