<?xml version="1.0" encoding="UTF-8" standalone="no"?>
<!DOCTYPE svg PUBLIC "-//W3C//DTD SVG 1.1//EN"
 "http://www.w3.org/Graphics/SVG/1.1/DTD/svg11.dtd">
<!-- Generated by graphviz version 2.38.0 (20140413.2041)
 -->
<!-- Title: second Pages: 1 -->
<svg width="183pt" height="66pt"
 viewBox="0.00 0.00 183.00 66.00" xmlns="http://www.w3.org/2000/svg" xmlns:xlink="http://www.w3.org/1999/xlink">
<g id="graph0" class="graph" transform="scale(1 1) rotate(0) translate(4 62)">
<title>second</title>
<polygon fill="white" stroke="none" points="-4,4 -4,-62 179,-62 179,4 -4,4"/>
<!-- Node1 -->
<g id="node1" class="node"><title>Node1</title>
<polygon fill="#bfbfbf" stroke="black" points="0,-19.5 0,-38.5 48,-38.5 48,-19.5 0,-19.5"/>
<text text-anchor="middle" x="24" y="-26.5" font-family="Helvetica,sans-Serif" font-size="10.00">second</text>
</g>
<!-- Node2 -->
<g id="node2" class="node"><title>Node2</title>
<g id="a_node2"><a xlink:href="group__tools__polytope.html#ga00b574079f19251be7281151d11db8fa" target="_top" xlink:title="Label the vertices, paths, and edges of a polytope. ">
<polygon fill="white" stroke="black" points="84,-38.5 84,-57.5 175,-57.5 175,-38.5 84,-38.5"/>
<text text-anchor="middle" x="129.5" y="-45.5" font-family="Helvetica,sans-Serif" font-size="10.00">polytope_number</text>
</a>
</g>
</g>
<!-- Node1&#45;&gt;Node2 -->
<g id="edge1" class="edge"><title>Node1&#45;&gt;Node2</title>
<path fill="none" stroke="midnightblue" d="M58.0976,-35.0759C66.2486,-36.5722 75.1125,-38.1994 83.7148,-39.7786"/>
<polygon fill="midnightblue" stroke="midnightblue" points="58.695,-31.6272 48.2274,-33.264 57.4311,-38.5121 58.695,-31.6272"/>
</g>
<!-- Node3 -->
<g id="node3" class="node"><title>Node3</title>
<g id="a_node3"><a xlink:href="group__tools__polytope.html#ga530c86f9c90ce074aa7adc29834f0539" target="_top" xlink:title="Assemble a polytope skeletal frame using child objects. ">
<polygon fill="white" stroke="black" points="88,-0.5 88,-19.5 171,-19.5 171,-0.5 88,-0.5"/>
<text text-anchor="middle" x="129.5" y="-7.5" font-family="Helvetica,sans-Serif" font-size="10.00">polytope_frame</text>
</a>
</g>
</g>
<!-- Node1&#45;&gt;Node3 -->
<g id="edge2" class="edge"><title>Node1&#45;&gt;Node3</title>
<path fill="none" stroke="midnightblue" d="M58.3634,-22.8753C67.7609,-21.1502 78.0884,-19.2543 87.861,-17.4603"/>
<polygon fill="midnightblue" stroke="midnightblue" points="57.4311,-19.4879 48.2274,-24.736 58.695,-26.3728 57.4311,-19.4879"/>
</g>
</g>
</svg>
