<?xml version="1.0" encoding="UTF-8" standalone="no"?>
<!DOCTYPE svg PUBLIC "-//W3C//DTD SVG 1.1//EN"
 "http://www.w3.org/Graphics/SVG/1.1/DTD/svg11.dtd">
<!-- Generated by graphviz version 2.38.0 (20140413.2041)
 -->
<!-- Title: rectangle Pages: 1 -->
<svg width="189pt" height="142pt"
 viewBox="0.00 0.00 189.00 142.00" xmlns="http://www.w3.org/2000/svg" xmlns:xlink="http://www.w3.org/1999/xlink">
<g id="graph0" class="graph" transform="scale(1 1) rotate(0) translate(4 138)">
<title>rectangle</title>
<polygon fill="white" stroke="none" points="-4,4 -4,-138 185,-138 185,4 -4,4"/>
<!-- Node1 -->
<g id="node1" class="node"><title>Node1</title>
<polygon fill="#bfbfbf" stroke="black" points="0,-57.5 0,-76.5 56,-76.5 56,-57.5 0,-57.5"/>
<text text-anchor="middle" x="28" y="-64.5" font-family="Helvetica,sans-Serif" font-size="10.00">rectangle</text>
</g>
<!-- Node2 -->
<g id="node2" class="node"><title>Node2</title>
<g id="a_node2"><a xlink:href="group__datatypes__operate__iterable.html#ga3d679b4617986e31d5e2803971b37af8" target="_top" xlink:title="Return an iterable element when it exists or a default value when it does not. ">
<polygon fill="white" stroke="black" points="103,-114.5 103,-133.5 170,-133.5 170,-114.5 103,-114.5"/>
<text text-anchor="middle" x="136.5" y="-121.5" font-family="Helvetica,sans-Serif" font-size="10.00">edefined_or</text>
</a>
</g>
</g>
<!-- Node1&#45;&gt;Node2 -->
<g id="edge1" class="edge"><title>Node1&#45;&gt;Node2</title>
<path fill="none" stroke="midnightblue" d="M43.7055,-76.6229C56.2772,-84.6652 74.9815,-96.1987 92,-105 95.5228,-106.822 99.2584,-108.63 103.002,-110.366"/>
<polygon fill="midnightblue" stroke="midnightblue" points="101.653,-113.596 112.209,-114.496 104.518,-107.209 101.653,-113.596"/>
</g>
<!-- Node3 -->
<g id="node3" class="node"><title>Node3</title>
<g id="a_node3"><a xlink:href="group__datatypes__identify__scalar.html#ga62dbd35f498bfc2a090812b1cf8a37c4" target="_top" xlink:title="Test if a value is not defined. ">
<polygon fill="white" stroke="black" points="103,-76.5 103,-95.5 170,-95.5 170,-76.5 103,-76.5"/>
<text text-anchor="middle" x="136.5" y="-83.5" font-family="Helvetica,sans-Serif" font-size="10.00">not_defined</text>
</a>
</g>
</g>
<!-- Node1&#45;&gt;Node3 -->
<g id="edge2" class="edge"><title>Node1&#45;&gt;Node3</title>
<path fill="none" stroke="midnightblue" d="M56.15,-71.8437C67.2237,-73.8193 80.2981,-76.1518 92.6049,-78.3473"/>
<polygon fill="midnightblue" stroke="midnightblue" points="92.242,-81.8378 102.701,-80.1486 93.4715,-74.9466 92.242,-81.8378"/>
</g>
<!-- Node4 -->
<g id="node4" class="node"><title>Node4</title>
<g id="a_node4"><a xlink:href="group__datatypes__identify__scalar.html#ga258e8911375d30ff85a6e52df01dc1c5" target="_top" xlink:title="Test if a value is a single non&#45;iterable value. ">
<polygon fill="white" stroke="black" points="108.5,-38.5 108.5,-57.5 164.5,-57.5 164.5,-38.5 108.5,-38.5"/>
<text text-anchor="middle" x="136.5" y="-45.5" font-family="Helvetica,sans-Serif" font-size="10.00">is_scalar</text>
</a>
</g>
</g>
<!-- Node1&#45;&gt;Node4 -->
<g id="edge3" class="edge"><title>Node1&#45;&gt;Node4</title>
<path fill="none" stroke="midnightblue" d="M56.15,-62.1563C68.9185,-59.8784 84.3468,-57.1259 98.1915,-54.656"/>
<polygon fill="midnightblue" stroke="midnightblue" points="99.1697,-58.0368 108.4,-52.8348 97.9403,-51.1456 99.1697,-58.0368"/>
</g>
<!-- Node5 -->
<g id="node5" class="node"><title>Node5</title>
<g id="a_node5"><a xlink:href="group__math__bitwise.html#ga31b8c7bc875d9fadd86b49a1ba39d1a4" target="_top" xlink:title="Test if a base&#45;two bit position of an integer value equals a test bit. ">
<polygon fill="white" stroke="black" points="92,-0.5 92,-19.5 181,-19.5 181,-0.5 92,-0.5"/>
<text text-anchor="middle" x="136.5" y="-7.5" font-family="Helvetica,sans-Serif" font-size="10.00">bitwise_is_equal</text>
</a>
</g>
</g>
<!-- Node1&#45;&gt;Node5 -->
<g id="edge4" class="edge"><title>Node1&#45;&gt;Node5</title>
<path fill="none" stroke="midnightblue" d="M43.7055,-57.3771C56.2772,-49.3348 74.9815,-37.8013 92,-29 95.5228,-27.1782 99.2584,-25.3698 103.002,-23.6343"/>
<polygon fill="midnightblue" stroke="midnightblue" points="104.518,-26.7906 112.209,-19.5041 101.653,-20.4038 104.518,-26.7906"/>
</g>
</g>
</svg>
