<?xml version="1.0" encoding="UTF-8" standalone="no"?>
<!DOCTYPE svg PUBLIC "-//W3C//DTD SVG 1.1//EN"
 "http://www.w3.org/Graphics/SVG/1.1/DTD/svg11.dtd">
<!-- Generated by graphviz version 2.38.0 (20140413.2041)
 -->
<!-- Title: 3d Shapes Pages: 1 -->
<svg width="224pt" height="29pt"
 viewBox="0.00 0.00 224.00 29.00" xmlns="http://www.w3.org/2000/svg" xmlns:xlink="http://www.w3.org/1999/xlink">
<g id="graph0" class="graph" transform="scale(1 1) rotate(0) translate(4 25)">
<title>3d Shapes</title>
<polygon fill="white" stroke="none" points="-4,4 -4,-25 220,-25 220,4 -4,4"/>
<!-- Node0 -->
<g id="node1" class="node"><title>Node0</title>
<polygon fill="#bfbfbf" stroke="black" points="0,-0.5 0,-19.5 63,-19.5 63,-0.5 0,-0.5"/>
<text text-anchor="middle" x="31.5" y="-7.5" font-family="Helvetica,sans-Serif" font-size="10.00">3d Shapes</text>
</g>
<!-- Node1 -->
<g id="node2" class="node"><title>Node1</title>
<g id="a_node2"><a xlink:href="group__shapes.html" target="_top" xlink:title="2d and 3d shapes. ">
<polygon fill="white" stroke="black" points="166,-0.5 166,-19.5 216,-19.5 216,-0.5 166,-0.5"/>
<text text-anchor="middle" x="191" y="-7.5" font-family="Helvetica,sans-Serif" font-size="10.00">Shapes</text>
</a>
</g>
</g>
<!-- Node0&#45;&gt;Node1 -->
<g id="edge2" class="edge"><title>Node0&#45;&gt;Node1</title>
<path fill="none" stroke="darkgreen" stroke-dasharray="5,2" d="M63.2415,-10C93.1419,-10 137.974,-10 165.532,-10"/>
<text text-anchor="middle" x="114.5" y="-13" font-family="Helvetica,sans-Serif" font-size="10.00">shapes3d.scad</text>
</g>
<!-- Node1&#45;&gt;Node0 -->
<g id="edge1" class="edge"><title>Node1&#45;&gt;Node0</title>
<path fill="none" stroke="black" d="M155.375,-8.22084C152.879,-8.13264 150.401,-8.05715 148,-8 118.231,-7.29161 110.771,-7.38642 81,-8 75.1864,-8.11982 68.9833,-8.32034 63.023,-8.54936"/>
<polygon fill="black" stroke="black" points="155.442,-11.7265 165.577,-8.64033 155.729,-4.73237 155.442,-11.7265"/>
</g>
</g>
</svg>
