<?xml version="1.0" encoding="UTF-8" standalone="no"?>
<!DOCTYPE svg PUBLIC "-//W3C//DTD SVG 1.1//EN"
 "http://www.w3.org/Graphics/SVG/1.1/DTD/svg11.dtd">
<!-- Generated by graphviz version 2.38.0 (20140413.2041)
 -->
<!-- Title: etriangle_ls_c Pages: 1 -->
<svg width="708pt" height="332pt"
 viewBox="0.00 0.00 708.00 332.00" xmlns="http://www.w3.org/2000/svg" xmlns:xlink="http://www.w3.org/1999/xlink">
<g id="graph0" class="graph" transform="scale(1 1) rotate(0) translate(4 328)">
<title>etriangle_ls_c</title>
<polygon fill="white" stroke="none" points="-4,4 -4,-328 704,-328 704,4 -4,4"/>
<!-- Node1 -->
<g id="node1" class="node"><title>Node1</title>
<polygon fill="#bfbfbf" stroke="black" points="0,-209.5 0,-228.5 77,-228.5 77,-209.5 0,-209.5"/>
<text text-anchor="middle" x="38.5" y="-216.5" font-family="Helvetica,sans-Serif" font-size="10.00">etriangle_ls_c</text>
</g>
<!-- Node2 -->
<g id="node2" class="node"><title>Node2</title>
<g id="a_node2"><a xlink:href="group__tools__extrude.html#ga2cb6eb6927858c6b5e1e2dfadb197bf9" target="_top" xlink:title="Linearly extrude 2d shape with extrusion upper and lower scaling. ">
<polygon fill="white" stroke="black" points="113,-266.5 113,-285.5 208,-285.5 208,-266.5 113,-266.5"/>
<text text-anchor="middle" x="160.5" y="-273.5" font-family="Helvetica,sans-Serif" font-size="10.00">linear_extrude_uls</text>
</a>
</g>
</g>
<!-- Node1&#45;&gt;Node2 -->
<g id="edge1" class="edge"><title>Node1&#45;&gt;Node2</title>
<path fill="none" stroke="midnightblue" d="M59.5853,-228.541C78.8812,-237.706 108.257,-251.659 130.169,-262.068"/>
<polygon fill="midnightblue" stroke="midnightblue" points="128.815,-265.299 139.349,-266.428 131.818,-258.976 128.815,-265.299"/>
</g>
<!-- Node5 -->
<g id="node5" class="node"><title>Node5</title>
<g id="a_node5"><a xlink:href="group__shapes__2d.html#ga7eefb280ad124a8d35eb4218e5f0bdad" target="_top" xlink:title="A general triangle specified by its sides with a removed triangular core. ">
<polygon fill="white" stroke="black" points="125,-133.5 125,-152.5 196,-152.5 196,-133.5 125,-133.5"/>
<text text-anchor="middle" x="160.5" y="-140.5" font-family="Helvetica,sans-Serif" font-size="10.00">triangle_ls_c</text>
</a>
</g>
</g>
<!-- Node1&#45;&gt;Node5 -->
<g id="edge4" class="edge"><title>Node1&#45;&gt;Node5</title>
<path fill="none" stroke="midnightblue" d="M54.6981,-209.375C75.1658,-196.412 111.794,-173.214 135.872,-157.965"/>
<polygon fill="midnightblue" stroke="midnightblue" points="137.85,-160.855 144.425,-152.547 134.104,-154.941 137.85,-160.855"/>
</g>
<!-- Node3 -->
<g id="node3" class="node"><title>Node3</title>
<g id="a_node3"><a xlink:href="group__datatypes__identify__scalar.html#ga62dbd35f498bfc2a090812b1cf8a37c4" target="_top" xlink:title="Test if a value is not defined. ">
<polygon fill="white" stroke="black" points="261,-304.5 261,-323.5 328,-323.5 328,-304.5 261,-304.5"/>
<text text-anchor="middle" x="294.5" y="-311.5" font-family="Helvetica,sans-Serif" font-size="10.00">not_defined</text>
</a>
</g>
</g>
<!-- Node2&#45;&gt;Node3 -->
<g id="edge2" class="edge"><title>Node2&#45;&gt;Node3</title>
<path fill="none" stroke="midnightblue" d="M194.809,-285.589C211.822,-290.487 232.711,-296.5 250.884,-301.732"/>
<polygon fill="midnightblue" stroke="midnightblue" points="250.081,-305.143 260.659,-304.546 252.017,-298.416 250.081,-305.143"/>
</g>
<!-- Node4 -->
<g id="node4" class="node"><title>Node4</title>
<g id="a_node4"><a xlink:href="group__datatypes__identify__scalar.html#ga258e8911375d30ff85a6e52df01dc1c5" target="_top" xlink:title="Test if a value is a single non&#45;iterable value. ">
<polygon fill="white" stroke="black" points="387.5,-209.5 387.5,-228.5 443.5,-228.5 443.5,-209.5 387.5,-209.5"/>
<text text-anchor="middle" x="415.5" y="-216.5" font-family="Helvetica,sans-Serif" font-size="10.00">is_scalar</text>
</a>
</g>
</g>
<!-- Node2&#45;&gt;Node4 -->
<g id="edge3" class="edge"><title>Node2&#45;&gt;Node4</title>
<path fill="none" stroke="midnightblue" d="M208.138,-276.22C245.848,-275.209 299.893,-271.04 345,-257 361.694,-251.804 378.949,-242.396 392.089,-234.242"/>
<polygon fill="midnightblue" stroke="midnightblue" points="394.343,-236.954 400.864,-228.604 390.559,-231.065 394.343,-236.954"/>
</g>
<!-- Node6 -->
<g id="node6" class="node"><title>Node6</title>
<g id="a_node6"><a xlink:href="group__datatypes__operate__iterable.html#ga3d679b4617986e31d5e2803971b37af8" target="_top" xlink:title="Return an iterable element when it exists or a default value when it does not. ">
<polygon fill="white" stroke="black" points="261,-0.5 261,-19.5 328,-19.5 328,-0.5 261,-0.5"/>
<text text-anchor="middle" x="294.5" y="-7.5" font-family="Helvetica,sans-Serif" font-size="10.00">edefined_or</text>
</a>
</g>
</g>
<!-- Node5&#45;&gt;Node6 -->
<g id="edge5" class="edge"><title>Node5&#45;&gt;Node6</title>
<path fill="none" stroke="midnightblue" d="M166.692,-133.341C178.188,-112.712 207.674,-63.8092 244,-34 248.43,-30.3649 253.502,-27.1154 258.673,-24.2704"/>
<polygon fill="midnightblue" stroke="midnightblue" points="260.61,-27.2136 267.968,-19.5904 257.462,-20.9614 260.61,-27.2136"/>
</g>
<!-- Node7 -->
<g id="node7" class="node"><title>Node7</title>
<g id="a_node7"><a xlink:href="group__datatypes__operate__scalar.html#gac119300e8c83de0037f2d0a4d9f0ab5c" target="_top" xlink:title="Return a value when it is defined or a default value when it is not. ">
<polygon fill="white" stroke="black" points="614.5,-19.5 614.5,-38.5 676.5,-38.5 676.5,-19.5 614.5,-19.5"/>
<text text-anchor="middle" x="645.5" y="-26.5" font-family="Helvetica,sans-Serif" font-size="10.00">defined_or</text>
</a>
</g>
</g>
<!-- Node5&#45;&gt;Node7 -->
<g id="edge6" class="edge"><title>Node5&#45;&gt;Node7</title>
<path fill="none" stroke="midnightblue" d="M168.385,-133.455C181.131,-116.635 210.208,-82.0707 244,-67 366.051,-12.5679 529.39,-18.275 604.115,-24.6305"/>
<polygon fill="midnightblue" stroke="midnightblue" points="604.208,-28.153 614.482,-25.5658 604.837,-21.1813 604.208,-28.153"/>
</g>
<!-- Node8 -->
<g id="node8" class="node"><title>Node8</title>
<g id="a_node8"><a xlink:href="group__datatypes__identify__scalar.html#ga51d7fdb800c10f4b7479d23b89ab8d22" target="_top" xlink:title="Test if a value is defined. ">
<polygon fill="white" stroke="black" points="264,-228.5 264,-247.5 325,-247.5 325,-228.5 264,-228.5"/>
<text text-anchor="middle" x="294.5" y="-235.5" font-family="Helvetica,sans-Serif" font-size="10.00">is_defined</text>
</a>
</g>
</g>
<!-- Node5&#45;&gt;Node8 -->
<g id="edge7" class="edge"><title>Node5&#45;&gt;Node8</title>
<path fill="none" stroke="midnightblue" d="M169.729,-152.655C183.618,-168.434 213.224,-199.899 244,-219 247.336,-221.071 250.935,-222.979 254.616,-224.721"/>
<polygon fill="midnightblue" stroke="midnightblue" points="253.266,-227.95 263.834,-228.708 256.045,-221.526 253.266,-227.95"/>
</g>
<!-- Node9 -->
<g id="node9" class="node"><title>Node9</title>
<g id="a_node9"><a xlink:href="group__math__triangle.html#ga1433110052f71d329117e2d5784821de" target="_top" xlink:title="Compute the coordinate for the triangle&#39;s incircle. ">
<polygon fill="white" stroke="black" points="244,-190.5 244,-209.5 345,-209.5 345,-190.5 244,-190.5"/>
<text text-anchor="middle" x="294.5" y="-197.5" font-family="Helvetica,sans-Serif" font-size="10.00">triangle_incenter_lp</text>
</a>
</g>
</g>
<!-- Node5&#45;&gt;Node9 -->
<g id="edge8" class="edge"><title>Node5&#45;&gt;Node9</title>
<path fill="none" stroke="midnightblue" d="M181.343,-152.581C197.954,-160.495 222.35,-171.87 244,-181 248.532,-182.911 253.33,-184.853 258.083,-186.728"/>
<polygon fill="midnightblue" stroke="midnightblue" points="257.093,-190.098 267.681,-190.454 259.626,-183.572 257.093,-190.098"/>
</g>
<!-- Node10 -->
<g id="node10" class="node"><title>Node10</title>
<g id="a_node10"><a xlink:href="group__math__triangle.html#ga1a2331a359734cc77fe5d38901874258" target="_top" xlink:title="Compute the vertex coordinates of a triangle given its side lengths. ">
<polygon fill="white" stroke="black" points="253.5,-152.5 253.5,-171.5 335.5,-171.5 335.5,-152.5 253.5,-152.5"/>
<text text-anchor="middle" x="294.5" y="-159.5" font-family="Helvetica,sans-Serif" font-size="10.00">triangle_sss2lp</text>
</a>
</g>
</g>
<!-- Node5&#45;&gt;Node10 -->
<g id="edge9" class="edge"><title>Node5&#45;&gt;Node10</title>
<path fill="none" stroke="midnightblue" d="M196.181,-147.992C210.593,-150.066 227.599,-152.514 243.329,-154.778"/>
<polygon fill="midnightblue" stroke="midnightblue" points="243.045,-158.274 253.442,-156.234 244.043,-151.345 243.045,-158.274"/>
</g>
<!-- Node11 -->
<g id="node11" class="node"><title>Node11</title>
<g id="a_node11"><a xlink:href="group__math__triangle.html#ga2b01ebe02b212dcab1349519a76b5731" target="_top" xlink:title="Compute the centroid (geometric center) of a triangle. ">
<polygon fill="white" stroke="black" points="244,-114.5 244,-133.5 345,-133.5 345,-114.5 244,-114.5"/>
<text text-anchor="middle" x="294.5" y="-121.5" font-family="Helvetica,sans-Serif" font-size="10.00">triangle_centroid_lp</text>
</a>
</g>
</g>
<!-- Node5&#45;&gt;Node11 -->
<g id="edge10" class="edge"><title>Node5&#45;&gt;Node11</title>
<path fill="none" stroke="midnightblue" d="M196.181,-138.008C207.694,-136.351 220.861,-134.456 233.711,-132.606"/>
<polygon fill="midnightblue" stroke="midnightblue" points="234.512,-136.027 243.911,-131.138 233.514,-129.098 234.512,-136.027"/>
</g>
<!-- Node12 -->
<g id="node12" class="node"><title>Node12</title>
<g id="a_node12"><a xlink:href="group__shapes__2d.html#ga5321277acf52177e1c7928c13377dd00" target="_top" xlink:title="A general triangle specified by a list of its three side lengths. ">
<polygon fill="white" stroke="black" points="264,-76.5 264,-95.5 325,-95.5 325,-76.5 264,-76.5"/>
<text text-anchor="middle" x="294.5" y="-83.5" font-family="Helvetica,sans-Serif" font-size="10.00">triangle_ls</text>
</a>
</g>
</g>
<!-- Node5&#45;&gt;Node12 -->
<g id="edge11" class="edge"><title>Node5&#45;&gt;Node12</title>
<path fill="none" stroke="midnightblue" d="M181.343,-133.419C197.954,-125.505 222.35,-114.13 244,-105 248.532,-103.089 253.33,-101.147 258.083,-99.272"/>
<polygon fill="midnightblue" stroke="midnightblue" points="259.626,-102.428 267.681,-95.5456 257.093,-95.9022 259.626,-102.428"/>
</g>
<!-- Node12&#45;&gt;Node4 -->
<g id="edge12" class="edge"><title>Node12&#45;&gt;Node4</title>
<path fill="none" stroke="midnightblue" d="M325.24,-93.8043C332.214,-96.5706 339.273,-100.226 345,-105 376.158,-130.974 397.195,-174.709 407.387,-199.785"/>
<polygon fill="midnightblue" stroke="midnightblue" points="404.197,-201.237 411.09,-209.283 410.719,-198.694 404.197,-201.237"/>
</g>
<!-- Node13 -->
<g id="node13" class="node"><title>Node13</title>
<g id="a_node13"><a xlink:href="group__shapes__2d.html#gab40e6edfc3c5ab69a4db26301318cd86" target="_top" xlink:title="A general triangle specified by its three side lengths. ">
<polygon fill="white" stroke="black" points="381,-95.5 381,-114.5 450,-114.5 450,-95.5 381,-95.5"/>
<text text-anchor="middle" x="415.5" y="-102.5" font-family="Helvetica,sans-Serif" font-size="10.00">triangle_sss</text>
</a>
</g>
</g>
<!-- Node12&#45;&gt;Node13 -->
<g id="edge13" class="edge"><title>Node12&#45;&gt;Node13</title>
<path fill="none" stroke="midnightblue" d="M325.222,-90.7455C338.981,-92.9424 355.604,-95.5964 370.757,-98.0158"/>
<polygon fill="midnightblue" stroke="midnightblue" points="370.533,-101.524 380.96,-99.6448 371.637,-94.6118 370.533,-101.524"/>
</g>
<!-- Node14 -->
<g id="node14" class="node"><title>Node14</title>
<g id="a_node14"><a xlink:href="group__datatypes__identify__scalar.html#ga068402d4bbb2bbd22b955ad1e14f104b" target="_top" xlink:title="Test if a numerical value is invalid. ">
<polygon fill="white" stroke="black" points="498,-76.5 498,-95.5 543,-95.5 543,-76.5 498,-76.5"/>
<text text-anchor="middle" x="520.5" y="-83.5" font-family="Helvetica,sans-Serif" font-size="10.00">is_nan</text>
</a>
</g>
</g>
<!-- Node13&#45;&gt;Node14 -->
<g id="edge14" class="edge"><title>Node13&#45;&gt;Node14</title>
<path fill="none" stroke="midnightblue" d="M450.226,-98.7787C462.297,-96.5521 475.852,-94.0516 487.75,-91.8569"/>
<polygon fill="midnightblue" stroke="midnightblue" points="488.501,-95.2775 497.7,-90.0214 487.231,-88.3936 488.501,-95.2775"/>
</g>
<!-- Node15 -->
<g id="node15" class="node"><title>Node15</title>
<g id="a_node15"><a xlink:href="group__utilities__console.html#ga1ece4e2cff9ae45c85429c226eb8362c" target="_top" xlink:title="Output warning message to console. ">
<polygon fill="white" stroke="black" points="492.5,-209.5 492.5,-228.5 548.5,-228.5 548.5,-209.5 492.5,-209.5"/>
<text text-anchor="middle" x="520.5" y="-216.5" font-family="Helvetica,sans-Serif" font-size="10.00">log_warn</text>
</a>
</g>
</g>
<!-- Node13&#45;&gt;Node15 -->
<g id="edge15" class="edge"><title>Node13&#45;&gt;Node15</title>
<path fill="none" stroke="midnightblue" d="M425.282,-114.72C442.765,-134.07 482.124,-177.632 504.035,-201.884"/>
<polygon fill="midnightblue" stroke="midnightblue" points="501.439,-204.231 510.741,-209.305 506.633,-199.539 501.439,-204.231"/>
</g>
<!-- Node17 -->
<g id="node17" class="node"><title>Node17</title>
<g id="a_node17"><a xlink:href="group__shapes__2d.html#ga33d2a7677306c346ad6be5a488885d86" target="_top" xlink:title="A general triangle specified by three vertices. ">
<polygon fill="white" stroke="black" points="486,-114.5 486,-133.5 555,-133.5 555,-114.5 486,-114.5"/>
<text text-anchor="middle" x="520.5" y="-121.5" font-family="Helvetica,sans-Serif" font-size="10.00">triangle_ppp</text>
</a>
</g>
</g>
<!-- Node13&#45;&gt;Node17 -->
<g id="edge17" class="edge"><title>Node13&#45;&gt;Node17</title>
<path fill="none" stroke="midnightblue" d="M450.226,-111.221C458.407,-112.73 467.27,-114.365 475.836,-115.946"/>
<polygon fill="midnightblue" stroke="midnightblue" points="475.229,-119.393 485.698,-117.765 476.499,-112.509 475.229,-119.393"/>
</g>
<!-- Node16 -->
<g id="node16" class="node"><title>Node16</title>
<g id="a_node16"><a xlink:href="group__utilities__console.html#ga4fb6c985031c9b551777b2e9ebd2fc34" target="_top" xlink:title="Format the function call stack as a string. ">
<polygon fill="white" stroke="black" points="625,-247.5 625,-266.5 666,-266.5 666,-247.5 625,-247.5"/>
<text text-anchor="middle" x="645.5" y="-254.5" font-family="Helvetica,sans-Serif" font-size="10.00">stack</text>
</a>
</g>
</g>
<!-- Node15&#45;&gt;Node16 -->
<g id="edge16" class="edge"><title>Node15&#45;&gt;Node16</title>
<path fill="none" stroke="midnightblue" d="M548.798,-227.433C568.536,-233.531 595.165,-241.758 615.323,-247.986"/>
<polygon fill="midnightblue" stroke="midnightblue" points="614.333,-251.343 624.921,-250.951 616.4,-244.655 614.333,-251.343"/>
</g>
<!-- Node17&#45;&gt;Node7 -->
<g id="edge18" class="edge"><title>Node17&#45;&gt;Node7</title>
<path fill="none" stroke="midnightblue" d="M542.091,-114.437C546.642,-111.769 551.226,-108.599 555,-105 576.683,-84.3209 567.596,-66.7089 591,-48 595.129,-44.6997 599.875,-41.9483 604.799,-39.6608"/>
<polygon fill="midnightblue" stroke="midnightblue" points="606.401,-42.7893 614.373,-35.8109 603.789,-36.2948 606.401,-42.7893"/>
</g>
<!-- Node18 -->
<g id="node18" class="node"><title>Node18</title>
<g id="a_node18"><a xlink:href="group__math__triangle.html#ga6eb5bfb1ae077d0db22e41c142233be0" target="_top" xlink:title="Compute the coordinate for the triangle&#39;s incircle. ">
<polygon fill="white" stroke="black" points="591,-95.5 591,-114.5 700,-114.5 700,-95.5 591,-95.5"/>
<text text-anchor="middle" x="645.5" y="-102.5" font-family="Helvetica,sans-Serif" font-size="10.00">triangle_incenter_ppp</text>
</a>
</g>
</g>
<!-- Node17&#45;&gt;Node18 -->
<g id="edge19" class="edge"><title>Node17&#45;&gt;Node18</title>
<path fill="none" stroke="midnightblue" d="M555.11,-118.808C563.069,-117.579 571.818,-116.227 580.632,-114.866"/>
<polygon fill="midnightblue" stroke="midnightblue" points="581.224,-118.316 590.573,-113.33 580.156,-111.398 581.224,-118.316"/>
</g>
<!-- Node19 -->
<g id="node19" class="node"><title>Node19</title>
<g id="a_node19"><a xlink:href="group__math__triangle.html#ga7c94003074f622d6421a665207cafbd7" target="_top" xlink:title="Compute the centroid (geometric center) of a triangle. ">
<polygon fill="white" stroke="black" points="591,-57.5 591,-76.5 700,-76.5 700,-57.5 591,-57.5"/>
<text text-anchor="middle" x="645.5" y="-64.5" font-family="Helvetica,sans-Serif" font-size="10.00">triangle_centroid_ppp</text>
</a>
</g>
</g>
<!-- Node17&#45;&gt;Node19 -->
<g id="edge20" class="edge"><title>Node17&#45;&gt;Node19</title>
<path fill="none" stroke="midnightblue" d="M538.302,-114.411C555.391,-104.732 580.77,-90.5782 591,-86 595.66,-83.9145 600.624,-81.8951 605.579,-80.0004"/>
<polygon fill="midnightblue" stroke="midnightblue" points="606.839,-83.2663 615.014,-76.526 604.42,-76.6976 606.839,-83.2663"/>
</g>
<!-- Node20 -->
<g id="node20" class="node"><title>Node20</title>
<g id="a_node20"><a xlink:href="group__datatypes__identify__iterable.html#ga6dc7861bf5a7777bfb33876493107d75" target="_top" xlink:title="Test if any element of a list of values is undefined. ">
<polygon fill="white" stroke="black" points="605.5,-209.5 605.5,-228.5 685.5,-228.5 685.5,-209.5 605.5,-209.5"/>
<text text-anchor="middle" x="645.5" y="-216.5" font-family="Helvetica,sans-Serif" font-size="10.00">any_undefined</text>
</a>
</g>
</g>
<!-- Node17&#45;&gt;Node20 -->
<g id="edge21" class="edge"><title>Node17&#45;&gt;Node20</title>
<path fill="none" stroke="midnightblue" d="M527.853,-133.56C538.896,-149.485 563.137,-181.519 591,-200 593.922,-201.938 597.066,-203.705 600.312,-205.31"/>
<polygon fill="midnightblue" stroke="midnightblue" points="599.075,-208.589 609.637,-209.414 601.895,-202.182 599.075,-208.589"/>
</g>
<!-- Node21 -->
<g id="node21" class="node"><title>Node21</title>
<g id="a_node21"><a xlink:href="group__math__vector__algebra.html#ga3a0c4c75047b8003ab09286a77a58c86" target="_top" xlink:title="Compute the angle between two lines (or vectors) in a Euclidean 3d or 2d&#45;space. ">
<polygon fill="white" stroke="black" points="620.5,-171.5 620.5,-190.5 670.5,-190.5 670.5,-171.5 620.5,-171.5"/>
<text text-anchor="middle" x="645.5" y="-178.5" font-family="Helvetica,sans-Serif" font-size="10.00">angle_ll</text>
</a>
</g>
</g>
<!-- Node17&#45;&gt;Node21 -->
<g id="edge22" class="edge"><title>Node17&#45;&gt;Node21</title>
<path fill="none" stroke="midnightblue" d="M537.419,-133.653C551.272,-141.821 572.046,-153.518 591,-162 597.347,-164.84 604.259,-167.558 610.942,-170.005"/>
<polygon fill="midnightblue" stroke="midnightblue" points="609.883,-173.343 620.477,-173.38 612.218,-166.744 609.883,-173.343"/>
</g>
<!-- Node22 -->
<g id="node22" class="node"><title>Node22</title>
<g id="a_node22"><a xlink:href="group__math__vector__algebra.html#gaa71caf02a1433e6c84d61d13d12aa581" target="_top" xlink:title="Compute the normalized unit vector of a Euclidean line (or vector). ">
<polygon fill="white" stroke="black" points="625.5,-133.5 625.5,-152.5 665.5,-152.5 665.5,-133.5 625.5,-133.5"/>
<text text-anchor="middle" x="645.5" y="-140.5" font-family="Helvetica,sans-Serif" font-size="10.00">unit_l</text>
</a>
</g>
</g>
<!-- Node17&#45;&gt;Node22 -->
<g id="edge23" class="edge"><title>Node17&#45;&gt;Node22</title>
<path fill="none" stroke="midnightblue" d="M555.11,-129.192C574.018,-132.113 597.389,-135.723 615.491,-138.519"/>
<polygon fill="midnightblue" stroke="midnightblue" points="615.05,-141.992 625.467,-140.06 616.118,-135.074 615.05,-141.992"/>
</g>
</g>
</svg>
