<?xml version="1.0" encoding="UTF-8" standalone="no"?>
<!DOCTYPE svg PUBLIC "-//W3C//DTD SVG 1.1//EN"
 "http://www.w3.org/Graphics/SVG/1.1/DTD/svg11.dtd">
<!-- Generated by graphviz version 2.38.0 (20140413.2041)
 -->
<!-- Title: unit_l Pages: 1 -->
<svg width="604pt" height="446pt"
 viewBox="0.00 0.00 604.00 446.00" xmlns="http://www.w3.org/2000/svg" xmlns:xlink="http://www.w3.org/1999/xlink">
<g id="graph0" class="graph" transform="scale(1 1) rotate(0) translate(4 442)">
<title>unit_l</title>
<polygon fill="white" stroke="none" points="-4,4 -4,-442 600,-442 600,4 -4,4"/>
<!-- Node1 -->
<g id="node1" class="node"><title>Node1</title>
<polygon fill="#bfbfbf" stroke="black" points="0,-66.5 0,-85.5 40,-85.5 40,-66.5 0,-66.5"/>
<text text-anchor="middle" x="20" y="-73.5" font-family="Helvetica,sans-Serif" font-size="10.00">unit_l</text>
</g>
<!-- Node2 -->
<g id="node2" class="node"><title>Node2</title>
<g id="a_node2"><a xlink:href="group__shapes__2d.html#ga33d2a7677306c346ad6be5a488885d86" target="_top" xlink:title="A general triangle specified by three vertices. ">
<polygon fill="white" stroke="black" points="80,-95.5 80,-114.5 149,-114.5 149,-95.5 80,-95.5"/>
<text text-anchor="middle" x="114.5" y="-102.5" font-family="Helvetica,sans-Serif" font-size="10.00">triangle_ppp</text>
</a>
</g>
</g>
<!-- Node1&#45;&gt;Node2 -->
<g id="edge1" class="edge"><title>Node1&#45;&gt;Node2</title>
<path fill="none" stroke="midnightblue" d="M49.7779,-85.0223C60.3522,-88.3375 72.3551,-92.1005 83.0699,-95.4598"/>
<polygon fill="midnightblue" stroke="midnightblue" points="50.7552,-81.6607 40.1661,-82.0088 48.661,-88.3402 50.7552,-81.6607"/>
</g>
<!-- Node26 -->
<g id="node26" class="node"><title>Node26</title>
<g id="a_node26"><a xlink:href="group__tools__edge.html#ga59a75abff2be2d912fc1881eba650c97" target="_top" xlink:title="A 2d edge&#45;finish profile specified by intersection radius. ">
<polygon fill="white" stroke="black" points="76,-38.5 76,-57.5 153,-57.5 153,-38.5 76,-38.5"/>
<text text-anchor="middle" x="114.5" y="-45.5" font-family="Helvetica,sans-Serif" font-size="10.00">edge_profile_r</text>
</a>
</g>
</g>
<!-- Node1&#45;&gt;Node26 -->
<g id="edge25" class="edge"><title>Node1&#45;&gt;Node26</title>
<path fill="none" stroke="midnightblue" d="M49.8366,-67.2711C60.0387,-64.1829 71.5644,-60.694 81.978,-57.5418"/>
<polygon fill="midnightblue" stroke="midnightblue" points="48.7231,-63.9512 40.1661,-70.1984 50.7512,-70.651 48.7231,-63.9512"/>
</g>
<!-- Node3 -->
<g id="node3" class="node"><title>Node3</title>
<g id="a_node3"><a xlink:href="group__shapes__2d.html#ga9fe8dcb93cf5fca81671a04f1ccb562c" target="_top" xlink:title="A general triangle specified by a list of its three vertices. ">
<polygon fill="white" stroke="black" points="195.5,-285.5 195.5,-304.5 256.5,-304.5 256.5,-285.5 195.5,-285.5"/>
<text text-anchor="middle" x="226" y="-292.5" font-family="Helvetica,sans-Serif" font-size="10.00">triangle_lp</text>
</a>
</g>
</g>
<!-- Node2&#45;&gt;Node3 -->
<g id="edge2" class="edge"><title>Node2&#45;&gt;Node3</title>
<path fill="none" stroke="midnightblue" d="M126.199,-123.564C149.029,-163.179 201.86,-254.848 219.299,-285.108"/>
<polygon fill="midnightblue" stroke="midnightblue" points="129.106,-121.6 121.081,-114.683 123.042,-125.095 129.106,-121.6"/>
</g>
<!-- Node5 -->
<g id="node5" class="node"><title>Node5</title>
<g id="a_node5"><a xlink:href="group__shapes__2d.html#gab40e6edfc3c5ab69a4db26301318cd86" target="_top" xlink:title="A general triangle specified by its three side lengths. ">
<polygon fill="white" stroke="black" points="191.5,-190.5 191.5,-209.5 260.5,-209.5 260.5,-190.5 191.5,-190.5"/>
<text text-anchor="middle" x="226" y="-197.5" font-family="Helvetica,sans-Serif" font-size="10.00">triangle_sss</text>
</a>
</g>
</g>
<!-- Node2&#45;&gt;Node5 -->
<g id="edge4" class="edge"><title>Node2&#45;&gt;Node5</title>
<path fill="none" stroke="midnightblue" d="M134.525,-121.506C157.474,-141.416 195.286,-174.221 213.919,-190.386"/>
<polygon fill="midnightblue" stroke="midnightblue" points="136.653,-118.718 126.806,-114.809 132.066,-124.006 136.653,-118.718"/>
</g>
<!-- Node21 -->
<g id="node21" class="node"><title>Node21</title>
<g id="a_node21"><a xlink:href="group__shapes__2d.html#ga0f93c98a50f652382cce6e2a9080a14d" target="_top" xlink:title="A right&#45;angled triangle specified by its opposite and adjacent side lengths. ">
<polygon fill="white" stroke="black" points="194,-114.5 194,-133.5 258,-133.5 258,-114.5 194,-114.5"/>
<text text-anchor="middle" x="226" y="-121.5" font-family="Helvetica,sans-Serif" font-size="10.00">triangle_ss</text>
</a>
</g>
</g>
<!-- Node2&#45;&gt;Node21 -->
<g id="edge20" class="edge"><title>Node2&#45;&gt;Node21</title>
<path fill="none" stroke="midnightblue" d="M159.187,-112.58C170.762,-114.589 183.026,-116.717 193.79,-118.585"/>
<polygon fill="midnightblue" stroke="midnightblue" points="159.698,-109.117 149.247,-110.856 158.501,-116.014 159.698,-109.117"/>
</g>
<!-- Node23 -->
<g id="node23" class="node"><title>Node23</title>
<g id="a_node23"><a xlink:href="group__shapes__2d.html#ga84e0a2811547e6c658909671d9e2bc0b" target="_top" xlink:title="A right&#45;angled triangle specified by a side length and an angle. ">
<polygon fill="white" stroke="black" points="194,-76.5 194,-95.5 258,-95.5 258,-76.5 194,-76.5"/>
<text text-anchor="middle" x="226" y="-83.5" font-family="Helvetica,sans-Serif" font-size="10.00">triangle_sa</text>
</a>
</g>
</g>
<!-- Node2&#45;&gt;Node23 -->
<g id="edge22" class="edge"><title>Node2&#45;&gt;Node23</title>
<path fill="none" stroke="midnightblue" d="M159.187,-97.4196C170.762,-95.4111 183.026,-93.2832 193.79,-91.4154"/>
<polygon fill="midnightblue" stroke="midnightblue" points="158.501,-93.9862 149.247,-99.1443 159.698,-100.883 158.501,-93.9862"/>
</g>
<!-- Node25 -->
<g id="node25" class="node"><title>Node25</title>
<g id="a_node25"><a xlink:href="group__shapes__2de.html#ga115ebc47b0630da820f163c0627c9b18" target="_top" xlink:title="An extruded general triangle specified by three vertices. ">
<polygon fill="white" stroke="black" points="189,-38.5 189,-57.5 263,-57.5 263,-38.5 189,-38.5"/>
<text text-anchor="middle" x="226" y="-45.5" font-family="Helvetica,sans-Serif" font-size="10.00">etriangle_ppp</text>
</a>
</g>
</g>
<!-- Node2&#45;&gt;Node25 -->
<g id="edge24" class="edge"><title>Node2&#45;&gt;Node25</title>
<path fill="none" stroke="midnightblue" d="M142.993,-90.6884C162.917,-80.3173 189.305,-66.581 206.699,-57.5265"/>
<polygon fill="midnightblue" stroke="midnightblue" points="141.329,-87.6088 134.075,-95.3307 144.561,-93.8179 141.329,-87.6088"/>
</g>
<!-- Node4 -->
<g id="node4" class="node"><title>Node4</title>
<g id="a_node4"><a xlink:href="group__shapes__2de.html#ga919151e4d8f40c9218c63b867fb80b7b" target="_top" xlink:title="An extruded general triangle specified by a list of its three vertices. ">
<polygon fill="white" stroke="black" points="303,-342.5 303,-361.5 369,-361.5 369,-342.5 303,-342.5"/>
<text text-anchor="middle" x="336" y="-349.5" font-family="Helvetica,sans-Serif" font-size="10.00">etriangle_lp</text>
</a>
</g>
</g>
<!-- Node3&#45;&gt;Node4 -->
<g id="edge3" class="edge"><title>Node3&#45;&gt;Node4</title>
<path fill="none" stroke="midnightblue" d="M254.384,-309.453C274.003,-319.807 299.872,-333.46 316.95,-342.474"/>
<polygon fill="midnightblue" stroke="midnightblue" points="255.798,-306.242 245.321,-304.669 252.531,-312.432 255.798,-306.242"/>
</g>
<!-- Node6 -->
<g id="node6" class="node"><title>Node6</title>
<g id="a_node6"><a xlink:href="group__shapes__2d.html#ga5321277acf52177e1c7928c13377dd00" target="_top" xlink:title="A general triangle specified by a list of its three side lengths. ">
<polygon fill="white" stroke="black" points="305.5,-304.5 305.5,-323.5 366.5,-323.5 366.5,-304.5 305.5,-304.5"/>
<text text-anchor="middle" x="336" y="-311.5" font-family="Helvetica,sans-Serif" font-size="10.00">triangle_ls</text>
</a>
</g>
</g>
<!-- Node5&#45;&gt;Node6 -->
<g id="edge5" class="edge"><title>Node5&#45;&gt;Node6</title>
<path fill="none" stroke="midnightblue" d="M237.591,-218.496C250.147,-239.175 272.716,-272.684 299,-295 303.202,-298.568 308.185,-301.725 313.084,-304.391"/>
<polygon fill="midnightblue" stroke="midnightblue" points="240.509,-216.555 232.403,-209.732 234.485,-220.12 240.509,-216.555"/>
</g>
<!-- Node13 -->
<g id="node13" class="node"><title>Node13</title>
<g id="a_node13"><a xlink:href="group__shapes__2d.html#gac6b0e8a6784a03e427d8b14eee7d90ca" target="_top" xlink:title="A general triangle specified by two sides and the included angle. ">
<polygon fill="white" stroke="black" points="301.5,-266.5 301.5,-285.5 370.5,-285.5 370.5,-266.5 301.5,-266.5"/>
<text text-anchor="middle" x="336" y="-273.5" font-family="Helvetica,sans-Serif" font-size="10.00">triangle_sas</text>
</a>
</g>
</g>
<!-- Node5&#45;&gt;Node13 -->
<g id="edge12" class="edge"><title>Node5&#45;&gt;Node13</title>
<path fill="none" stroke="midnightblue" d="M245.704,-216.378C259.832,-228.353 279.976,-244.6 299,-257 304.092,-260.319 309.825,-263.552 315.194,-266.382"/>
<polygon fill="midnightblue" stroke="midnightblue" points="247.615,-213.406 237.748,-209.547 243.055,-218.717 247.615,-213.406"/>
</g>
<!-- Node15 -->
<g id="node15" class="node"><title>Node15</title>
<g id="a_node15"><a xlink:href="group__shapes__2d.html#gaaefcea1b06acb7b1633e86f657341701" target="_top" xlink:title="A general triangle specified by a side and two adjacent angles. ">
<polygon fill="white" stroke="black" points="301.5,-228.5 301.5,-247.5 370.5,-247.5 370.5,-228.5 301.5,-228.5"/>
<text text-anchor="middle" x="336" y="-235.5" font-family="Helvetica,sans-Serif" font-size="10.00">triangle_asa</text>
</a>
</g>
</g>
<!-- Node5&#45;&gt;Node15 -->
<g id="edge14" class="edge"><title>Node5&#45;&gt;Node15</title>
<path fill="none" stroke="midnightblue" d="M263.867,-212.972C278.256,-218.034 294.455,-223.734 307.756,-228.414"/>
<polygon fill="midnightblue" stroke="midnightblue" points="264.848,-209.607 254.253,-209.589 262.524,-216.21 264.848,-209.607"/>
</g>
<!-- Node17 -->
<g id="node17" class="node"><title>Node17</title>
<g id="a_node17"><a xlink:href="group__shapes__2d.html#gad0730473c871f346877e8ef91e2bdfd4" target="_top" xlink:title="A general triangle specified by a side, one adjacent angle and the opposite angle. ">
<polygon fill="white" stroke="black" points="301.5,-190.5 301.5,-209.5 370.5,-209.5 370.5,-190.5 301.5,-190.5"/>
<text text-anchor="middle" x="336" y="-197.5" font-family="Helvetica,sans-Serif" font-size="10.00">triangle_aas</text>
</a>
</g>
</g>
<!-- Node5&#45;&gt;Node17 -->
<g id="edge16" class="edge"><title>Node5&#45;&gt;Node17</title>
<path fill="none" stroke="midnightblue" d="M270.622,-200C280.895,-200 291.69,-200 301.441,-200"/>
<polygon fill="midnightblue" stroke="midnightblue" points="270.58,-196.5 260.58,-200 270.58,-203.5 270.58,-196.5"/>
</g>
<!-- Node19 -->
<g id="node19" class="node"><title>Node19</title>
<g id="a_node19"><a xlink:href="group__shapes__2de.html#ga4940596130c3cd1e62fea77569459a52" target="_top" xlink:title="An extruded general triangle specified by its three side lengths. ">
<polygon fill="white" stroke="black" points="299,-152.5 299,-171.5 373,-171.5 373,-152.5 299,-152.5"/>
<text text-anchor="middle" x="336" y="-159.5" font-family="Helvetica,sans-Serif" font-size="10.00">etriangle_sss</text>
</a>
</g>
</g>
<!-- Node5&#45;&gt;Node19 -->
<g id="edge18" class="edge"><title>Node5&#45;&gt;Node19</title>
<path fill="none" stroke="midnightblue" d="M263.867,-187.028C278.256,-181.966 294.455,-176.266 307.756,-171.586"/>
<polygon fill="midnightblue" stroke="midnightblue" points="262.524,-183.79 254.253,-190.411 264.848,-190.393 262.524,-183.79"/>
</g>
<!-- Node20 -->
<g id="node20" class="node"><title>Node20</title>
<g id="a_node20"><a xlink:href="group__shapes__3d.html#ga66f0c4a748f33cc1fff3343655b17f45" target="_top" xlink:title="A cone. ">
<polygon fill="white" stroke="black" points="317,-114.5 317,-133.5 355,-133.5 355,-114.5 317,-114.5"/>
<text text-anchor="middle" x="336" y="-121.5" font-family="Helvetica,sans-Serif" font-size="10.00">cone</text>
</a>
</g>
</g>
<!-- Node5&#45;&gt;Node20 -->
<g id="edge19" class="edge"><title>Node5&#45;&gt;Node20</title>
<path fill="none" stroke="midnightblue" d="M245.704,-183.622C259.832,-171.647 279.976,-155.4 299,-143 304.565,-139.373 310.897,-135.847 316.683,-132.838"/>
<polygon fill="midnightblue" stroke="midnightblue" points="243.055,-181.283 237.748,-190.453 247.615,-186.594 243.055,-181.283"/>
</g>
<!-- Node7 -->
<g id="node7" class="node"><title>Node7</title>
<g id="a_node7"><a xlink:href="group__shapes__2d.html#ga7eefb280ad124a8d35eb4218e5f0bdad" target="_top" xlink:title="A general triangle specified by its sides with a removed triangular core. ">
<polygon fill="white" stroke="black" points="410.5,-380.5 410.5,-399.5 481.5,-399.5 481.5,-380.5 410.5,-380.5"/>
<text text-anchor="middle" x="446" y="-387.5" font-family="Helvetica,sans-Serif" font-size="10.00">triangle_ls_c</text>
</a>
</g>
</g>
<!-- Node6&#45;&gt;Node7 -->
<g id="edge6" class="edge"><title>Node6&#45;&gt;Node7</title>
<path fill="none" stroke="midnightblue" d="M366.597,-328.586C368.819,-329.992 370.98,-331.468 373,-333 391.534,-347.061 390.466,-356.939 409,-371 413.617,-374.503 418.969,-377.711 424.113,-380.454"/>
<polygon fill="midnightblue" stroke="midnightblue" points="368.295,-325.525 357.887,-323.546 364.79,-331.584 368.295,-325.525"/>
</g>
<!-- Node10 -->
<g id="node10" class="node"><title>Node10</title>
<g id="a_node10"><a xlink:href="group__shapes__2d.html#ga7452bf5414a3677ec806a31aed6b61dd" target="_top" xlink:title="A two&#45;dimensional star. ">
<polygon fill="white" stroke="black" points="424,-342.5 424,-361.5 468,-361.5 468,-342.5 424,-342.5"/>
<text text-anchor="middle" x="446" y="-349.5" font-family="Helvetica,sans-Serif" font-size="10.00">star2d</text>
</a>
</g>
</g>
<!-- Node6&#45;&gt;Node10 -->
<g id="edge9" class="edge"><title>Node6&#45;&gt;Node10</title>
<path fill="none" stroke="midnightblue" d="M373.753,-326.932C390.467,-332.812 409.643,-339.56 423.888,-344.572"/>
<polygon fill="midnightblue" stroke="midnightblue" points="374.848,-323.607 364.253,-323.589 372.524,-330.21 374.848,-323.607"/>
</g>
<!-- Node12 -->
<g id="node12" class="node"><title>Node12</title>
<g id="a_node12"><a xlink:href="group__shapes__2de.html#gace35f9581cef6d5c20c3fd1d922284d1" target="_top" xlink:title="An extruded general triangle specified by a list of its three side lengths. ">
<polygon fill="white" stroke="black" points="413,-304.5 413,-323.5 479,-323.5 479,-304.5 413,-304.5"/>
<text text-anchor="middle" x="446" y="-311.5" font-family="Helvetica,sans-Serif" font-size="10.00">etriangle_ls</text>
</a>
</g>
</g>
<!-- Node6&#45;&gt;Node12 -->
<g id="edge11" class="edge"><title>Node6&#45;&gt;Node12</title>
<path fill="none" stroke="midnightblue" d="M376.662,-314C388.581,-314 401.504,-314 412.871,-314"/>
<polygon fill="midnightblue" stroke="midnightblue" points="376.512,-310.5 366.511,-314 376.511,-317.5 376.512,-310.5"/>
</g>
<!-- Node8 -->
<g id="node8" class="node"><title>Node8</title>
<g id="a_node8"><a xlink:href="group__shapes__2de.html#ga0c99582ccf3d5b1425c99001b228c202" target="_top" xlink:title="A general triangle specified by its sides with a removed triangular core. ">
<polygon fill="white" stroke="black" points="519,-418.5 519,-437.5 596,-437.5 596,-418.5 519,-418.5"/>
<text text-anchor="middle" x="557.5" y="-425.5" font-family="Helvetica,sans-Serif" font-size="10.00">etriangle_ls_c</text>
</a>
</g>
</g>
<!-- Node7&#45;&gt;Node8 -->
<g id="edge7" class="edge"><title>Node7&#45;&gt;Node8</title>
<path fill="none" stroke="midnightblue" d="M484.379,-402.972C498.968,-408.034 515.392,-413.734 528.877,-418.414"/>
<polygon fill="midnightblue" stroke="midnightblue" points="485.226,-399.561 474.631,-399.589 482.931,-406.174 485.226,-399.561"/>
</g>
<!-- Node9 -->
<g id="node9" class="node"><title>Node9</title>
<g id="a_node9"><a xlink:href="group__shapes__3d.html#gaa3137155089f4d50c13ebea05402edd0" target="_top" xlink:title="A triangular cross&#45;sectional profile revolved about the z&#45;axis. ">
<polygon fill="white" stroke="black" points="531.5,-380.5 531.5,-399.5 583.5,-399.5 583.5,-380.5 531.5,-380.5"/>
<text text-anchor="middle" x="557.5" y="-387.5" font-family="Helvetica,sans-Serif" font-size="10.00">torus_tp</text>
</a>
</g>
</g>
<!-- Node7&#45;&gt;Node9 -->
<g id="edge8" class="edge"><title>Node7&#45;&gt;Node9</title>
<path fill="none" stroke="midnightblue" d="M491.776,-390C505.312,-390 519.69,-390 531.447,-390"/>
<polygon fill="midnightblue" stroke="midnightblue" points="491.647,-386.5 481.646,-390 491.646,-393.5 491.647,-386.5"/>
</g>
<!-- Node11 -->
<g id="node11" class="node"><title>Node11</title>
<g id="a_node11"><a xlink:href="group__shapes__2de.html#ga69ece32102ccb27e9985975fa4590251" target="_top" xlink:title="An extruded two&#45;dimensional star. ">
<polygon fill="white" stroke="black" points="533,-342.5 533,-361.5 582,-361.5 582,-342.5 533,-342.5"/>
<text text-anchor="middle" x="557.5" y="-349.5" font-family="Helvetica,sans-Serif" font-size="10.00">estar2d</text>
</a>
</g>
</g>
<!-- Node10&#45;&gt;Node11 -->
<g id="edge10" class="edge"><title>Node10&#45;&gt;Node11</title>
<path fill="none" stroke="midnightblue" d="M478.324,-352C495.655,-352 516.846,-352 532.791,-352"/>
<polygon fill="midnightblue" stroke="midnightblue" points="478.113,-348.5 468.113,-352 478.113,-355.5 478.113,-348.5"/>
</g>
<!-- Node14 -->
<g id="node14" class="node"><title>Node14</title>
<g id="a_node14"><a xlink:href="group__shapes__2de.html#gae4dc22fae0c22daa5d4844755cd268ac" target="_top" xlink:title="An extruded general triangle specified by two sides and the included angle. ">
<polygon fill="white" stroke="black" points="409,-266.5 409,-285.5 483,-285.5 483,-266.5 409,-266.5"/>
<text text-anchor="middle" x="446" y="-273.5" font-family="Helvetica,sans-Serif" font-size="10.00">etriangle_sas</text>
</a>
</g>
</g>
<!-- Node13&#45;&gt;Node14 -->
<g id="edge13" class="edge"><title>Node13&#45;&gt;Node14</title>
<path fill="none" stroke="midnightblue" d="M380.836,-276C390.131,-276 399.844,-276 408.817,-276"/>
<polygon fill="midnightblue" stroke="midnightblue" points="380.58,-272.5 370.58,-276 380.58,-279.5 380.58,-272.5"/>
</g>
<!-- Node16 -->
<g id="node16" class="node"><title>Node16</title>
<g id="a_node16"><a xlink:href="group__shapes__2de.html#ga5b1240a97e34583d10011e5d0044ca28" target="_top" xlink:title="An extruded general triangle specified by a side and two adjacent angles. ">
<polygon fill="white" stroke="black" points="409,-228.5 409,-247.5 483,-247.5 483,-228.5 409,-228.5"/>
<text text-anchor="middle" x="446" y="-235.5" font-family="Helvetica,sans-Serif" font-size="10.00">etriangle_asa</text>
</a>
</g>
</g>
<!-- Node15&#45;&gt;Node16 -->
<g id="edge15" class="edge"><title>Node15&#45;&gt;Node16</title>
<path fill="none" stroke="midnightblue" d="M380.836,-238C390.131,-238 399.844,-238 408.817,-238"/>
<polygon fill="midnightblue" stroke="midnightblue" points="380.58,-234.5 370.58,-238 380.58,-241.5 380.58,-234.5"/>
</g>
<!-- Node18 -->
<g id="node18" class="node"><title>Node18</title>
<g id="a_node18"><a xlink:href="group__shapes__2de.html#ga8a3300cf4ca82dad9002965960a76a9c" target="_top" xlink:title="An extruded general triangle specified by a side, one adjacent angle and the opposite angle...">
<polygon fill="white" stroke="black" points="409,-190.5 409,-209.5 483,-209.5 483,-190.5 409,-190.5"/>
<text text-anchor="middle" x="446" y="-197.5" font-family="Helvetica,sans-Serif" font-size="10.00">etriangle_aas</text>
</a>
</g>
</g>
<!-- Node17&#45;&gt;Node18 -->
<g id="edge17" class="edge"><title>Node17&#45;&gt;Node18</title>
<path fill="none" stroke="midnightblue" d="M380.836,-200C390.131,-200 399.844,-200 408.817,-200"/>
<polygon fill="midnightblue" stroke="midnightblue" points="380.58,-196.5 370.58,-200 380.58,-203.5 380.58,-196.5"/>
</g>
<!-- Node22 -->
<g id="node22" class="node"><title>Node22</title>
<g id="a_node22"><a xlink:href="group__shapes__2de.html#gac86de6d90f92b19be2fda894d97dfad4" target="_top" xlink:title="An extruded right&#45;angled triangle specified by its opposite and adjacent side lengths. ">
<polygon fill="white" stroke="black" points="301.5,-76.5 301.5,-95.5 370.5,-95.5 370.5,-76.5 301.5,-76.5"/>
<text text-anchor="middle" x="336" y="-83.5" font-family="Helvetica,sans-Serif" font-size="10.00">etriangle_ss</text>
</a>
</g>
</g>
<!-- Node21&#45;&gt;Node22 -->
<g id="edge21" class="edge"><title>Node21&#45;&gt;Node22</title>
<path fill="none" stroke="midnightblue" d="M263.867,-111.028C278.256,-105.966 294.455,-100.266 307.756,-95.5859"/>
<polygon fill="midnightblue" stroke="midnightblue" points="262.524,-107.79 254.253,-114.411 264.848,-114.393 262.524,-107.79"/>
</g>
<!-- Node24 -->
<g id="node24" class="node"><title>Node24</title>
<g id="a_node24"><a xlink:href="group__shapes__2de.html#gaa80e1bde5ce902feba29d0d57169b8d5" target="_top" xlink:title="An extruded right&#45;angled triangle specified by a side length and an angle. ">
<polygon fill="white" stroke="black" points="301.5,-38.5 301.5,-57.5 370.5,-57.5 370.5,-38.5 301.5,-38.5"/>
<text text-anchor="middle" x="336" y="-45.5" font-family="Helvetica,sans-Serif" font-size="10.00">etriangle_sa</text>
</a>
</g>
</g>
<!-- Node23&#45;&gt;Node24 -->
<g id="edge23" class="edge"><title>Node23&#45;&gt;Node24</title>
<path fill="none" stroke="midnightblue" d="M263.867,-73.0282C278.256,-67.9656 294.455,-62.2659 307.756,-57.5859"/>
<polygon fill="midnightblue" stroke="midnightblue" points="262.524,-69.7903 254.253,-76.411 264.848,-76.3935 262.524,-69.7903"/>
</g>
<!-- Node27 -->
<g id="node27" class="node"><title>Node27</title>
<g id="a_node27"><a xlink:href="group__tools__edge.html#ga44c40aee1894824493e1a6b5b36e610f" target="_top" xlink:title="A 3d edge&#45;finish additive shape specified by intersection radius. ">
<polygon fill="white" stroke="black" points="192.5,-0.5 192.5,-19.5 259.5,-19.5 259.5,-0.5 192.5,-0.5"/>
<text text-anchor="middle" x="226" y="-7.5" font-family="Helvetica,sans-Serif" font-size="10.00">edge_add_r</text>
</a>
</g>
</g>
<!-- Node26&#45;&gt;Node27 -->
<g id="edge26" class="edge"><title>Node26&#45;&gt;Node27</title>
<path fill="none" stroke="midnightblue" d="M152.879,-35.0282C167.468,-29.9656 183.892,-24.2659 197.377,-19.5859"/>
<polygon fill="midnightblue" stroke="midnightblue" points="151.431,-31.8259 143.131,-38.411 153.726,-38.439 151.431,-31.8259"/>
</g>
</g>
</svg>
