<?xml version="1.0" encoding="UTF-8" standalone="no"?>
<!DOCTYPE svg PUBLIC "-//W3C//DTD SVG 1.1//EN"
 "http://www.w3.org/Graphics/SVG/1.1/DTD/svg11.dtd">
<!-- Generated by graphviz version 2.38.0 (20140413.2041)
 -->
<!-- Title: rhombus Pages: 1 -->
<svg width="165pt" height="142pt"
 viewBox="0.00 0.00 165.00 142.00" xmlns="http://www.w3.org/2000/svg" xmlns:xlink="http://www.w3.org/1999/xlink">
<g id="graph0" class="graph" transform="scale(1 1) rotate(0) translate(4 138)">
<title>rhombus</title>
<polygon fill="white" stroke="none" points="-4,4 -4,-138 161,-138 161,4 -4,4"/>
<!-- Node1 -->
<g id="node1" class="node"><title>Node1</title>
<polygon fill="#bfbfbf" stroke="black" points="0,-57.5 0,-76.5 54,-76.5 54,-57.5 0,-57.5"/>
<text text-anchor="middle" x="27" y="-64.5" font-family="Helvetica,sans-Serif" font-size="10.00">rhombus</text>
</g>
<!-- Node2 -->
<g id="node2" class="node"><title>Node2</title>
<g id="a_node2"><a xlink:href="group__datatypes__operate__iterable.html#ga3d679b4617986e31d5e2803971b37af8" target="_top" xlink:title="Return an iterable element when it exists or a default value when it does not. ">
<polygon fill="white" stroke="black" points="90,-114.5 90,-133.5 157,-133.5 157,-114.5 90,-114.5"/>
<text text-anchor="middle" x="123.5" y="-121.5" font-family="Helvetica,sans-Serif" font-size="10.00">edefined_or</text>
</a>
</g>
</g>
<!-- Node1&#45;&gt;Node2 -->
<g id="edge1" class="edge"><title>Node1&#45;&gt;Node2</title>
<path fill="none" stroke="midnightblue" d="M43.4883,-76.6161C55.9975,-84.3527 74.077,-95.4673 90,-105 92.3377,-106.4 94.7759,-107.847 97.2198,-109.29"/>
<polygon fill="midnightblue" stroke="midnightblue" points="95.5313,-112.357 105.927,-114.401 99.0746,-106.32 95.5313,-112.357"/>
</g>
<!-- Node3 -->
<g id="node3" class="node"><title>Node3</title>
<g id="a_node3"><a xlink:href="group__datatypes__identify__scalar.html#ga62dbd35f498bfc2a090812b1cf8a37c4" target="_top" xlink:title="Test if a value is not defined. ">
<polygon fill="white" stroke="black" points="90,-76.5 90,-95.5 157,-95.5 157,-76.5 90,-76.5"/>
<text text-anchor="middle" x="123.5" y="-83.5" font-family="Helvetica,sans-Serif" font-size="10.00">not_defined</text>
</a>
</g>
</g>
<!-- Node1&#45;&gt;Node3 -->
<g id="edge2" class="edge"><title>Node1&#45;&gt;Node3</title>
<path fill="none" stroke="midnightblue" d="M54.0727,-72.2421C62.0045,-73.8369 70.9403,-75.6335 79.6727,-77.3892"/>
<polygon fill="midnightblue" stroke="midnightblue" points="79.2645,-80.8771 89.7582,-79.417 80.6443,-74.0144 79.2645,-80.8771"/>
</g>
<!-- Node4 -->
<g id="node4" class="node"><title>Node4</title>
<g id="a_node4"><a xlink:href="group__datatypes__identify__scalar.html#ga258e8911375d30ff85a6e52df01dc1c5" target="_top" xlink:title="Test if a value is a single non&#45;iterable value. ">
<polygon fill="white" stroke="black" points="95.5,-38.5 95.5,-57.5 151.5,-57.5 151.5,-38.5 95.5,-38.5"/>
<text text-anchor="middle" x="123.5" y="-45.5" font-family="Helvetica,sans-Serif" font-size="10.00">is_scalar</text>
</a>
</g>
</g>
<!-- Node1&#45;&gt;Node4 -->
<g id="edge3" class="edge"><title>Node1&#45;&gt;Node4</title>
<path fill="none" stroke="midnightblue" d="M54.0727,-61.7579C63.6606,-59.8302 74.7153,-57.6075 85.1047,-55.5186"/>
<polygon fill="midnightblue" stroke="midnightblue" points="86.0796,-58.8928 95.1934,-53.4902 84.6997,-52.0301 86.0796,-58.8928"/>
</g>
<!-- Node5 -->
<g id="node5" class="node"><title>Node5</title>
<g id="a_node5"><a xlink:href="group__math__vector__algebra.html#ga3a0c4c75047b8003ab09286a77a58c86" target="_top" xlink:title="Compute the angle between two lines (or vectors) in a Euclidean 3d or 2d&#45;space. ">
<polygon fill="white" stroke="black" points="98.5,-0.5 98.5,-19.5 148.5,-19.5 148.5,-0.5 98.5,-0.5"/>
<text text-anchor="middle" x="123.5" y="-7.5" font-family="Helvetica,sans-Serif" font-size="10.00">angle_ll</text>
</a>
</g>
</g>
<!-- Node1&#45;&gt;Node5 -->
<g id="edge4" class="edge"><title>Node1&#45;&gt;Node5</title>
<path fill="none" stroke="midnightblue" d="M43.4883,-57.3839C55.9975,-49.6473 74.077,-38.5327 90,-29 92.3377,-27.6005 94.7759,-26.1529 97.2198,-24.7101"/>
<polygon fill="midnightblue" stroke="midnightblue" points="99.0746,-27.6799 105.927,-19.5994 95.5313,-21.6429 99.0746,-27.6799"/>
</g>
</g>
</svg>
