<?xml version="1.0" encoding="UTF-8" standalone="no"?>
<!DOCTYPE svg PUBLIC "-//W3C//DTD SVG 1.1//EN"
 "http://www.w3.org/Graphics/SVG/1.1/DTD/svg11.dtd">
<!-- Generated by graphviz version 2.38.0 (20140413.2041)
 -->
<!-- Title: Shapes Pages: 1 -->
<svg width="243pt" height="147pt"
 viewBox="0.00 0.00 243.00 147.08" xmlns="http://www.w3.org/2000/svg" xmlns:xlink="http://www.w3.org/1999/xlink">
<g id="graph0" class="graph" transform="scale(1 1) rotate(0) translate(4 143.079)">
<title>Shapes</title>
<polygon fill="white" stroke="none" points="-4,4 -4,-143.079 239,-143.079 239,4 -4,4"/>
<!-- Node1 -->
<g id="node1" class="node"><title>Node1</title>
<g id="a_node1"><a xlink:href="group__shapes__2d.html" target="_top" xlink:title="Two&#45;dimensional geometric shapes. ">
<polygon fill="white" stroke="black" points="165,-118.232 165,-137.232 228,-137.232 228,-118.232 165,-118.232"/>
<text text-anchor="middle" x="196.5" y="-125.232" font-family="Helvetica,sans-Serif" font-size="10.00">2d Shapes</text>
</a>
</g>
</g>
<!-- Node3 -->
<g id="node2" class="node"><title>Node3</title>
<g id="a_node2"><a xlink:href="group__shapes__3d.html" target="_top" xlink:title="Three&#45;dimensional geometric shapes. ">
<polygon fill="white" stroke="black" points="165,-53.232 165,-72.232 228,-72.232 228,-53.232 165,-53.232"/>
<text text-anchor="middle" x="196.5" y="-60.232" font-family="Helvetica,sans-Serif" font-size="10.00">3d Shapes</text>
</a>
</g>
</g>
<!-- Node0 -->
<g id="node3" class="node"><title>Node0</title>
<polygon fill="#bfbfbf" stroke="black" points="0,-59.232 0,-78.232 50,-78.232 50,-59.232 0,-59.232"/>
<text text-anchor="middle" x="25" y="-66.232" font-family="Helvetica,sans-Serif" font-size="10.00">Shapes</text>
</g>
<!-- Node0&#45;&gt;Node1 -->
<g id="edge1" class="edge"><title>Node0&#45;&gt;Node1</title>
<path fill="none" stroke="black" d="M34.026,-87.7722C40.8756,-101.338 52.1494,-118.561 68,-126.732 98.1041,-142.25 137.766,-139.576 164.809,-134.913"/>
<polygon fill="black" stroke="black" points="37.0271,-85.9238 29.6479,-78.3213 30.6755,-88.8662 37.0271,-85.9238"/>
</g>
<!-- Node0&#45;&gt;Node1 -->
<g id="edge4" class="edge"><title>Node0&#45;&gt;Node1</title>
<path fill="none" stroke="darkgreen" stroke-dasharray="5,2" d="M50.2852,-77.1853C81.5002,-88.0507 135.55,-106.864 168.171,-118.219"/>
<text text-anchor="middle" x="104" y="-109.732" font-family="Helvetica,sans-Serif" font-size="10.00">shapes2d.scad</text>
</g>
<!-- Node0&#45;&gt;Node3 -->
<g id="edge3" class="edge"><title>Node0&#45;&gt;Node3</title>
<path fill="none" stroke="black" d="M60.174,-69.1544C82.8299,-69.2567 113.207,-69.0542 140,-67.732 148.117,-67.3314 156.882,-66.6554 164.997,-65.9278"/>
<polygon fill="black" stroke="black" points="60.0591,-65.6537 50.0358,-69.0862 60.0119,-72.6535 60.0591,-65.6537"/>
</g>
<!-- Node0&#45;&gt;Node3 -->
<g id="edge6" class="edge"><title>Node0&#45;&gt;Node3</title>
<path fill="none" stroke="darkgreen" stroke-dasharray="5,2" d="M50.0959,-59.2319C55.8716,-57.3671 62.0823,-55.6923 68,-54.732 100.839,-49.403 138.968,-53.0655 164.914,-57.0121"/>
<text text-anchor="middle" x="104" y="-57.732" font-family="Helvetica,sans-Serif" font-size="10.00">shapes3d.scad</text>
</g>
<!-- Node2 -->
<g id="node4" class="node"><title>Node2</title>
<g id="a_node4"><a xlink:href="group__shapes__2de.html" target="_top" xlink:title="Extruded two&#45;dimensional geometric shapes. ">
<polygon fill="white" stroke="black" points="158,-5.23199 158,-24.232 235,-24.232 235,-5.23199 158,-5.23199"/>
<text text-anchor="middle" x="196.5" y="-12.232" font-family="Helvetica,sans-Serif" font-size="10.00">2d Extrusions</text>
</a>
</g>
</g>
<!-- Node0&#45;&gt;Node2 -->
<g id="edge2" class="edge"><title>Node0&#45;&gt;Node2</title>
<path fill="none" stroke="black" d="M52.5044,-54.4312C57.5657,-52.0021 62.8827,-49.6491 68,-47.732 97.4408,-36.7022 132.038,-28.0008 157.759,-22.3085"/>
<polygon fill="black" stroke="black" points="50.5714,-51.4853 43.2064,-59.1016 53.7135,-57.7406 50.5714,-51.4853"/>
</g>
<!-- Node0&#45;&gt;Node2 -->
<g id="edge5" class="edge"><title>Node0&#45;&gt;Node2</title>
<path fill="none" stroke="darkgreen" stroke-dasharray="5,2" d="M29.6373,-59.122C35.4018,-45.4478 48.0689,-20.9072 68,-10.732 97.0938,4.1209 134.988,0.530254 161.884,-5.1814"/>
<text text-anchor="middle" x="104" y="-13.732" font-family="Helvetica,sans-Serif" font-size="10.00">shapes2de.scad</text>
</g>
</g>
</svg>
