<?xml version="1.0" encoding="UTF-8" standalone="no"?>
<!DOCTYPE svg PUBLIC "-//W3C//DTD SVG 1.1//EN"
 "http://www.w3.org/Graphics/SVG/1.1/DTD/svg11.dtd">
<!-- Generated by graphviz version 2.38.0 (20140413.2041)
 -->
<!-- Title: triangle_incenter_ppp Pages: 1 -->
<svg width="665pt" height="408pt"
 viewBox="0.00 0.00 665.00 408.00" xmlns="http://www.w3.org/2000/svg" xmlns:xlink="http://www.w3.org/1999/xlink">
<g id="graph0" class="graph" transform="scale(1 1) rotate(0) translate(4 404)">
<title>triangle_incenter_ppp</title>
<polygon fill="white" stroke="none" points="-4,4 -4,-404 661,-404 661,4 -4,4"/>
<!-- Node1 -->
<g id="node1" class="node"><title>Node1</title>
<polygon fill="#bfbfbf" stroke="black" points="0,-76.5 0,-95.5 109,-95.5 109,-76.5 0,-76.5"/>
<text text-anchor="middle" x="54.5" y="-83.5" font-family="Helvetica,sans-Serif" font-size="10.00">triangle_incenter_ppp</text>
</g>
<!-- Node2 -->
<g id="node2" class="node"><title>Node2</title>
<g id="a_node2"><a xlink:href="group__shapes__2d.html#ga33d2a7677306c346ad6be5a488885d86" target="_top" xlink:title="A general triangle specified by three vertices. ">
<polygon fill="white" stroke="black" points="145,-76.5 145,-95.5 214,-95.5 214,-76.5 145,-76.5"/>
<text text-anchor="middle" x="179.5" y="-83.5" font-family="Helvetica,sans-Serif" font-size="10.00">triangle_ppp</text>
</a>
</g>
</g>
<!-- Node1&#45;&gt;Node2 -->
<g id="edge1" class="edge"><title>Node1&#45;&gt;Node2</title>
<path fill="none" stroke="midnightblue" d="M119.13,-86C128.034,-86 136.878,-86 144.915,-86"/>
<polygon fill="midnightblue" stroke="midnightblue" points="119.092,-82.5001 109.092,-86 119.092,-89.5001 119.092,-82.5001"/>
</g>
<!-- Node3 -->
<g id="node3" class="node"><title>Node3</title>
<g id="a_node3"><a xlink:href="group__shapes__2d.html#ga9fe8dcb93cf5fca81671a04f1ccb562c" target="_top" xlink:title="A general triangle specified by a list of its three vertices. ">
<polygon fill="white" stroke="black" points="256.5,-247.5 256.5,-266.5 317.5,-266.5 317.5,-247.5 256.5,-247.5"/>
<text text-anchor="middle" x="287" y="-254.5" font-family="Helvetica,sans-Serif" font-size="10.00">triangle_lp</text>
</a>
</g>
</g>
<!-- Node2&#45;&gt;Node3 -->
<g id="edge2" class="edge"><title>Node2&#45;&gt;Node3</title>
<path fill="none" stroke="midnightblue" d="M191.769,-104.266C214.068,-140.409 263.128,-219.927 280.091,-247.423"/>
<polygon fill="midnightblue" stroke="midnightblue" points="194.704,-102.357 186.474,-95.6837 188.746,-106.032 194.704,-102.357"/>
</g>
<!-- Node5 -->
<g id="node5" class="node"><title>Node5</title>
<g id="a_node5"><a xlink:href="group__shapes__2d.html#gab40e6edfc3c5ab69a4db26301318cd86" target="_top" xlink:title="A general triangle specified by its three side lengths. ">
<polygon fill="white" stroke="black" points="252.5,-152.5 252.5,-171.5 321.5,-171.5 321.5,-152.5 252.5,-152.5"/>
<text text-anchor="middle" x="287" y="-159.5" font-family="Helvetica,sans-Serif" font-size="10.00">triangle_sss</text>
</a>
</g>
</g>
<!-- Node2&#45;&gt;Node5 -->
<g id="edge4" class="edge"><title>Node2&#45;&gt;Node5</title>
<path fill="none" stroke="midnightblue" d="M202.248,-101.667C223.462,-116.949 255.047,-139.702 272.747,-152.453"/>
<polygon fill="midnightblue" stroke="midnightblue" points="204.021,-98.6307 193.862,-95.6255 199.93,-104.31 204.021,-98.6307"/>
</g>
<!-- Node21 -->
<g id="node21" class="node"><title>Node21</title>
<g id="a_node21"><a xlink:href="group__shapes__2d.html#ga0f93c98a50f652382cce6e2a9080a14d" target="_top" xlink:title="A right&#45;angled triangle specified by its opposite and adjacent side lengths. ">
<polygon fill="white" stroke="black" points="255,-76.5 255,-95.5 319,-95.5 319,-76.5 255,-76.5"/>
<text text-anchor="middle" x="287" y="-83.5" font-family="Helvetica,sans-Serif" font-size="10.00">triangle_ss</text>
</a>
</g>
</g>
<!-- Node2&#45;&gt;Node21 -->
<g id="edge20" class="edge"><title>Node2&#45;&gt;Node21</title>
<path fill="none" stroke="midnightblue" d="M224.217,-86C234.479,-86 245.211,-86 254.797,-86"/>
<polygon fill="midnightblue" stroke="midnightblue" points="224.171,-82.5001 214.171,-86 224.171,-89.5001 224.171,-82.5001"/>
</g>
<!-- Node23 -->
<g id="node23" class="node"><title>Node23</title>
<g id="a_node23"><a xlink:href="group__shapes__2d.html#ga84e0a2811547e6c658909671d9e2bc0b" target="_top" xlink:title="A right&#45;angled triangle specified by a side length and an angle. ">
<polygon fill="white" stroke="black" points="255,-38.5 255,-57.5 319,-57.5 319,-38.5 255,-38.5"/>
<text text-anchor="middle" x="287" y="-45.5" font-family="Helvetica,sans-Serif" font-size="10.00">triangle_sa</text>
</a>
</g>
</g>
<!-- Node2&#45;&gt;Node23 -->
<g id="edge22" class="edge"><title>Node2&#45;&gt;Node23</title>
<path fill="none" stroke="midnightblue" d="M216.92,-72.882C230.873,-67.8561 246.518,-62.2209 259.386,-57.5859"/>
<polygon fill="midnightblue" stroke="midnightblue" points="215.344,-69.7292 207.122,-76.411 217.717,-76.3151 215.344,-69.7292"/>
</g>
<!-- Node25 -->
<g id="node25" class="node"><title>Node25</title>
<g id="a_node25"><a xlink:href="group__shapes__2de.html#ga115ebc47b0630da820f163c0627c9b18" target="_top" xlink:title="An extruded general triangle specified by three vertices. ">
<polygon fill="white" stroke="black" points="250,-0.5 250,-19.5 324,-19.5 324,-0.5 250,-0.5"/>
<text text-anchor="middle" x="287" y="-7.5" font-family="Helvetica,sans-Serif" font-size="10.00">etriangle_ppp</text>
</a>
</g>
</g>
<!-- Node2&#45;&gt;Node25 -->
<g id="edge24" class="edge"><title>Node2&#45;&gt;Node25</title>
<path fill="none" stroke="midnightblue" d="M198.465,-69.5612C212.057,-57.5562 231.484,-41.2973 250,-29 255.063,-25.6375 260.787,-22.39 266.156,-19.5596"/>
<polygon fill="midnightblue" stroke="midnightblue" points="195.929,-67.1336 190.816,-76.4129 200.6,-72.3476 195.929,-67.1336"/>
</g>
<!-- Node4 -->
<g id="node4" class="node"><title>Node4</title>
<g id="a_node4"><a xlink:href="group__shapes__2de.html#ga919151e4d8f40c9218c63b867fb80b7b" target="_top" xlink:title="An extruded general triangle specified by a list of its three vertices. ">
<polygon fill="white" stroke="black" points="364,-304.5 364,-323.5 430,-323.5 430,-304.5 364,-304.5"/>
<text text-anchor="middle" x="397" y="-311.5" font-family="Helvetica,sans-Serif" font-size="10.00">etriangle_lp</text>
</a>
</g>
</g>
<!-- Node3&#45;&gt;Node4 -->
<g id="edge3" class="edge"><title>Node3&#45;&gt;Node4</title>
<path fill="none" stroke="midnightblue" d="M315.384,-271.453C335.003,-281.807 360.872,-295.46 377.95,-304.474"/>
<polygon fill="midnightblue" stroke="midnightblue" points="316.798,-268.242 306.321,-266.669 313.531,-274.432 316.798,-268.242"/>
</g>
<!-- Node6 -->
<g id="node6" class="node"><title>Node6</title>
<g id="a_node6"><a xlink:href="group__shapes__2d.html#ga5321277acf52177e1c7928c13377dd00" target="_top" xlink:title="A general triangle specified by a list of its three side lengths. ">
<polygon fill="white" stroke="black" points="366.5,-266.5 366.5,-285.5 427.5,-285.5 427.5,-266.5 366.5,-266.5"/>
<text text-anchor="middle" x="397" y="-273.5" font-family="Helvetica,sans-Serif" font-size="10.00">triangle_ls</text>
</a>
</g>
</g>
<!-- Node5&#45;&gt;Node6 -->
<g id="edge5" class="edge"><title>Node5&#45;&gt;Node6</title>
<path fill="none" stroke="midnightblue" d="M298.591,-180.496C311.147,-201.175 333.716,-234.684 360,-257 364.202,-260.568 369.185,-263.725 374.084,-266.391"/>
<polygon fill="midnightblue" stroke="midnightblue" points="301.509,-178.555 293.403,-171.732 295.485,-182.12 301.509,-178.555"/>
</g>
<!-- Node13 -->
<g id="node13" class="node"><title>Node13</title>
<g id="a_node13"><a xlink:href="group__shapes__2d.html#gac6b0e8a6784a03e427d8b14eee7d90ca" target="_top" xlink:title="A general triangle specified by two sides and the included angle. ">
<polygon fill="white" stroke="black" points="362.5,-228.5 362.5,-247.5 431.5,-247.5 431.5,-228.5 362.5,-228.5"/>
<text text-anchor="middle" x="397" y="-235.5" font-family="Helvetica,sans-Serif" font-size="10.00">triangle_sas</text>
</a>
</g>
</g>
<!-- Node5&#45;&gt;Node13 -->
<g id="edge12" class="edge"><title>Node5&#45;&gt;Node13</title>
<path fill="none" stroke="midnightblue" d="M306.704,-178.378C320.832,-190.353 340.976,-206.6 360,-219 365.092,-222.319 370.825,-225.552 376.194,-228.382"/>
<polygon fill="midnightblue" stroke="midnightblue" points="308.615,-175.406 298.748,-171.547 304.055,-180.717 308.615,-175.406"/>
</g>
<!-- Node15 -->
<g id="node15" class="node"><title>Node15</title>
<g id="a_node15"><a xlink:href="group__shapes__2d.html#gaaefcea1b06acb7b1633e86f657341701" target="_top" xlink:title="A general triangle specified by a side and two adjacent angles. ">
<polygon fill="white" stroke="black" points="362.5,-190.5 362.5,-209.5 431.5,-209.5 431.5,-190.5 362.5,-190.5"/>
<text text-anchor="middle" x="397" y="-197.5" font-family="Helvetica,sans-Serif" font-size="10.00">triangle_asa</text>
</a>
</g>
</g>
<!-- Node5&#45;&gt;Node15 -->
<g id="edge14" class="edge"><title>Node5&#45;&gt;Node15</title>
<path fill="none" stroke="midnightblue" d="M324.867,-174.972C339.256,-180.034 355.455,-185.734 368.756,-190.414"/>
<polygon fill="midnightblue" stroke="midnightblue" points="325.848,-171.607 315.253,-171.589 323.524,-178.21 325.848,-171.607"/>
</g>
<!-- Node17 -->
<g id="node17" class="node"><title>Node17</title>
<g id="a_node17"><a xlink:href="group__shapes__2d.html#gad0730473c871f346877e8ef91e2bdfd4" target="_top" xlink:title="A general triangle specified by a side, one adjacent angle and the opposite angle. ">
<polygon fill="white" stroke="black" points="362.5,-152.5 362.5,-171.5 431.5,-171.5 431.5,-152.5 362.5,-152.5"/>
<text text-anchor="middle" x="397" y="-159.5" font-family="Helvetica,sans-Serif" font-size="10.00">triangle_aas</text>
</a>
</g>
</g>
<!-- Node5&#45;&gt;Node17 -->
<g id="edge16" class="edge"><title>Node5&#45;&gt;Node17</title>
<path fill="none" stroke="midnightblue" d="M331.622,-162C341.895,-162 352.69,-162 362.441,-162"/>
<polygon fill="midnightblue" stroke="midnightblue" points="331.58,-158.5 321.58,-162 331.58,-165.5 331.58,-158.5"/>
</g>
<!-- Node19 -->
<g id="node19" class="node"><title>Node19</title>
<g id="a_node19"><a xlink:href="group__shapes__2de.html#ga4940596130c3cd1e62fea77569459a52" target="_top" xlink:title="An extruded general triangle specified by its three side lengths. ">
<polygon fill="white" stroke="black" points="360,-114.5 360,-133.5 434,-133.5 434,-114.5 360,-114.5"/>
<text text-anchor="middle" x="397" y="-121.5" font-family="Helvetica,sans-Serif" font-size="10.00">etriangle_sss</text>
</a>
</g>
</g>
<!-- Node5&#45;&gt;Node19 -->
<g id="edge18" class="edge"><title>Node5&#45;&gt;Node19</title>
<path fill="none" stroke="midnightblue" d="M324.867,-149.028C339.256,-143.966 355.455,-138.266 368.756,-133.586"/>
<polygon fill="midnightblue" stroke="midnightblue" points="323.524,-145.79 315.253,-152.411 325.848,-152.393 323.524,-145.79"/>
</g>
<!-- Node20 -->
<g id="node20" class="node"><title>Node20</title>
<g id="a_node20"><a xlink:href="group__shapes__3d.html#ga66f0c4a748f33cc1fff3343655b17f45" target="_top" xlink:title="A cone. ">
<polygon fill="white" stroke="black" points="378,-76.5 378,-95.5 416,-95.5 416,-76.5 378,-76.5"/>
<text text-anchor="middle" x="397" y="-83.5" font-family="Helvetica,sans-Serif" font-size="10.00">cone</text>
</a>
</g>
</g>
<!-- Node5&#45;&gt;Node20 -->
<g id="edge19" class="edge"><title>Node5&#45;&gt;Node20</title>
<path fill="none" stroke="midnightblue" d="M306.704,-145.622C320.832,-133.647 340.976,-117.4 360,-105 365.565,-101.373 371.897,-97.8474 377.683,-94.8384"/>
<polygon fill="midnightblue" stroke="midnightblue" points="304.055,-143.283 298.748,-152.453 308.615,-148.594 304.055,-143.283"/>
</g>
<!-- Node7 -->
<g id="node7" class="node"><title>Node7</title>
<g id="a_node7"><a xlink:href="group__shapes__2d.html#ga7eefb280ad124a8d35eb4218e5f0bdad" target="_top" xlink:title="A general triangle specified by its sides with a removed triangular core. ">
<polygon fill="white" stroke="black" points="471.5,-342.5 471.5,-361.5 542.5,-361.5 542.5,-342.5 471.5,-342.5"/>
<text text-anchor="middle" x="507" y="-349.5" font-family="Helvetica,sans-Serif" font-size="10.00">triangle_ls_c</text>
</a>
</g>
</g>
<!-- Node6&#45;&gt;Node7 -->
<g id="edge6" class="edge"><title>Node6&#45;&gt;Node7</title>
<path fill="none" stroke="midnightblue" d="M427.597,-290.586C429.819,-291.992 431.98,-293.468 434,-295 452.534,-309.061 451.466,-318.939 470,-333 474.617,-336.503 479.969,-339.711 485.113,-342.454"/>
<polygon fill="midnightblue" stroke="midnightblue" points="429.295,-287.525 418.887,-285.546 425.79,-293.584 429.295,-287.525"/>
</g>
<!-- Node10 -->
<g id="node10" class="node"><title>Node10</title>
<g id="a_node10"><a xlink:href="group__shapes__2d.html#ga7452bf5414a3677ec806a31aed6b61dd" target="_top" xlink:title="A two&#45;dimensional star. ">
<polygon fill="white" stroke="black" points="485,-304.5 485,-323.5 529,-323.5 529,-304.5 485,-304.5"/>
<text text-anchor="middle" x="507" y="-311.5" font-family="Helvetica,sans-Serif" font-size="10.00">star2d</text>
</a>
</g>
</g>
<!-- Node6&#45;&gt;Node10 -->
<g id="edge9" class="edge"><title>Node6&#45;&gt;Node10</title>
<path fill="none" stroke="midnightblue" d="M434.753,-288.932C451.467,-294.812 470.643,-301.56 484.888,-306.572"/>
<polygon fill="midnightblue" stroke="midnightblue" points="435.848,-285.607 425.253,-285.589 433.524,-292.21 435.848,-285.607"/>
</g>
<!-- Node12 -->
<g id="node12" class="node"><title>Node12</title>
<g id="a_node12"><a xlink:href="group__shapes__2de.html#gace35f9581cef6d5c20c3fd1d922284d1" target="_top" xlink:title="An extruded general triangle specified by a list of its three side lengths. ">
<polygon fill="white" stroke="black" points="474,-266.5 474,-285.5 540,-285.5 540,-266.5 474,-266.5"/>
<text text-anchor="middle" x="507" y="-273.5" font-family="Helvetica,sans-Serif" font-size="10.00">etriangle_ls</text>
</a>
</g>
</g>
<!-- Node6&#45;&gt;Node12 -->
<g id="edge11" class="edge"><title>Node6&#45;&gt;Node12</title>
<path fill="none" stroke="midnightblue" d="M437.662,-276C449.581,-276 462.504,-276 473.871,-276"/>
<polygon fill="midnightblue" stroke="midnightblue" points="437.512,-272.5 427.511,-276 437.511,-279.5 437.512,-272.5"/>
</g>
<!-- Node8 -->
<g id="node8" class="node"><title>Node8</title>
<g id="a_node8"><a xlink:href="group__shapes__2de.html#ga0c99582ccf3d5b1425c99001b228c202" target="_top" xlink:title="A general triangle specified by its sides with a removed triangular core. ">
<polygon fill="white" stroke="black" points="580,-380.5 580,-399.5 657,-399.5 657,-380.5 580,-380.5"/>
<text text-anchor="middle" x="618.5" y="-387.5" font-family="Helvetica,sans-Serif" font-size="10.00">etriangle_ls_c</text>
</a>
</g>
</g>
<!-- Node7&#45;&gt;Node8 -->
<g id="edge7" class="edge"><title>Node7&#45;&gt;Node8</title>
<path fill="none" stroke="midnightblue" d="M545.379,-364.972C559.968,-370.034 576.392,-375.734 589.877,-380.414"/>
<polygon fill="midnightblue" stroke="midnightblue" points="546.226,-361.561 535.631,-361.589 543.931,-368.174 546.226,-361.561"/>
</g>
<!-- Node9 -->
<g id="node9" class="node"><title>Node9</title>
<g id="a_node9"><a xlink:href="group__shapes__3d.html#gaa3137155089f4d50c13ebea05402edd0" target="_top" xlink:title="A triangular cross&#45;sectional profile revolved about the z&#45;axis. ">
<polygon fill="white" stroke="black" points="592.5,-342.5 592.5,-361.5 644.5,-361.5 644.5,-342.5 592.5,-342.5"/>
<text text-anchor="middle" x="618.5" y="-349.5" font-family="Helvetica,sans-Serif" font-size="10.00">torus_tp</text>
</a>
</g>
</g>
<!-- Node7&#45;&gt;Node9 -->
<g id="edge8" class="edge"><title>Node7&#45;&gt;Node9</title>
<path fill="none" stroke="midnightblue" d="M552.776,-352C566.312,-352 580.69,-352 592.447,-352"/>
<polygon fill="midnightblue" stroke="midnightblue" points="552.647,-348.5 542.646,-352 552.646,-355.5 552.647,-348.5"/>
</g>
<!-- Node11 -->
<g id="node11" class="node"><title>Node11</title>
<g id="a_node11"><a xlink:href="group__shapes__2de.html#ga69ece32102ccb27e9985975fa4590251" target="_top" xlink:title="An extruded two&#45;dimensional star. ">
<polygon fill="white" stroke="black" points="594,-304.5 594,-323.5 643,-323.5 643,-304.5 594,-304.5"/>
<text text-anchor="middle" x="618.5" y="-311.5" font-family="Helvetica,sans-Serif" font-size="10.00">estar2d</text>
</a>
</g>
</g>
<!-- Node10&#45;&gt;Node11 -->
<g id="edge10" class="edge"><title>Node10&#45;&gt;Node11</title>
<path fill="none" stroke="midnightblue" d="M539.324,-314C556.655,-314 577.846,-314 593.791,-314"/>
<polygon fill="midnightblue" stroke="midnightblue" points="539.113,-310.5 529.113,-314 539.113,-317.5 539.113,-310.5"/>
</g>
<!-- Node14 -->
<g id="node14" class="node"><title>Node14</title>
<g id="a_node14"><a xlink:href="group__shapes__2de.html#gae4dc22fae0c22daa5d4844755cd268ac" target="_top" xlink:title="An extruded general triangle specified by two sides and the included angle. ">
<polygon fill="white" stroke="black" points="470,-228.5 470,-247.5 544,-247.5 544,-228.5 470,-228.5"/>
<text text-anchor="middle" x="507" y="-235.5" font-family="Helvetica,sans-Serif" font-size="10.00">etriangle_sas</text>
</a>
</g>
</g>
<!-- Node13&#45;&gt;Node14 -->
<g id="edge13" class="edge"><title>Node13&#45;&gt;Node14</title>
<path fill="none" stroke="midnightblue" d="M441.836,-238C451.131,-238 460.844,-238 469.817,-238"/>
<polygon fill="midnightblue" stroke="midnightblue" points="441.58,-234.5 431.58,-238 441.58,-241.5 441.58,-234.5"/>
</g>
<!-- Node16 -->
<g id="node16" class="node"><title>Node16</title>
<g id="a_node16"><a xlink:href="group__shapes__2de.html#ga5b1240a97e34583d10011e5d0044ca28" target="_top" xlink:title="An extruded general triangle specified by a side and two adjacent angles. ">
<polygon fill="white" stroke="black" points="470,-190.5 470,-209.5 544,-209.5 544,-190.5 470,-190.5"/>
<text text-anchor="middle" x="507" y="-197.5" font-family="Helvetica,sans-Serif" font-size="10.00">etriangle_asa</text>
</a>
</g>
</g>
<!-- Node15&#45;&gt;Node16 -->
<g id="edge15" class="edge"><title>Node15&#45;&gt;Node16</title>
<path fill="none" stroke="midnightblue" d="M441.836,-200C451.131,-200 460.844,-200 469.817,-200"/>
<polygon fill="midnightblue" stroke="midnightblue" points="441.58,-196.5 431.58,-200 441.58,-203.5 441.58,-196.5"/>
</g>
<!-- Node18 -->
<g id="node18" class="node"><title>Node18</title>
<g id="a_node18"><a xlink:href="group__shapes__2de.html#ga8a3300cf4ca82dad9002965960a76a9c" target="_top" xlink:title="An extruded general triangle specified by a side, one adjacent angle and the opposite angle...">
<polygon fill="white" stroke="black" points="470,-152.5 470,-171.5 544,-171.5 544,-152.5 470,-152.5"/>
<text text-anchor="middle" x="507" y="-159.5" font-family="Helvetica,sans-Serif" font-size="10.00">etriangle_aas</text>
</a>
</g>
</g>
<!-- Node17&#45;&gt;Node18 -->
<g id="edge17" class="edge"><title>Node17&#45;&gt;Node18</title>
<path fill="none" stroke="midnightblue" d="M441.836,-162C451.131,-162 460.844,-162 469.817,-162"/>
<polygon fill="midnightblue" stroke="midnightblue" points="441.58,-158.5 431.58,-162 441.58,-165.5 441.58,-158.5"/>
</g>
<!-- Node22 -->
<g id="node22" class="node"><title>Node22</title>
<g id="a_node22"><a xlink:href="group__shapes__2de.html#gac86de6d90f92b19be2fda894d97dfad4" target="_top" xlink:title="An extruded right&#45;angled triangle specified by its opposite and adjacent side lengths. ">
<polygon fill="white" stroke="black" points="362.5,-38.5 362.5,-57.5 431.5,-57.5 431.5,-38.5 362.5,-38.5"/>
<text text-anchor="middle" x="397" y="-45.5" font-family="Helvetica,sans-Serif" font-size="10.00">etriangle_ss</text>
</a>
</g>
</g>
<!-- Node21&#45;&gt;Node22 -->
<g id="edge21" class="edge"><title>Node21&#45;&gt;Node22</title>
<path fill="none" stroke="midnightblue" d="M324.867,-73.0282C339.256,-67.9656 355.455,-62.2659 368.756,-57.5859"/>
<polygon fill="midnightblue" stroke="midnightblue" points="323.524,-69.7903 315.253,-76.411 325.848,-76.3935 323.524,-69.7903"/>
</g>
<!-- Node24 -->
<g id="node24" class="node"><title>Node24</title>
<g id="a_node24"><a xlink:href="group__shapes__2de.html#gaa80e1bde5ce902feba29d0d57169b8d5" target="_top" xlink:title="An extruded right&#45;angled triangle specified by a side length and an angle. ">
<polygon fill="white" stroke="black" points="362.5,-0.5 362.5,-19.5 431.5,-19.5 431.5,-0.5 362.5,-0.5"/>
<text text-anchor="middle" x="397" y="-7.5" font-family="Helvetica,sans-Serif" font-size="10.00">etriangle_sa</text>
</a>
</g>
</g>
<!-- Node23&#45;&gt;Node24 -->
<g id="edge23" class="edge"><title>Node23&#45;&gt;Node24</title>
<path fill="none" stroke="midnightblue" d="M324.867,-35.0282C339.256,-29.9656 355.455,-24.2659 368.756,-19.5859"/>
<polygon fill="midnightblue" stroke="midnightblue" points="323.524,-31.7903 315.253,-38.411 325.848,-38.3935 323.524,-31.7903"/>
</g>
</g>
</svg>
