<?xml version="1.0" encoding="UTF-8" standalone="no"?>
<!DOCTYPE svg PUBLIC "-//W3C//DTD SVG 1.1//EN"
 "http://www.w3.org/Graphics/SVG/1.1/DTD/svg11.dtd">
<!-- Generated by graphviz version 2.38.0 (20140413.2041)
 -->
<!-- Title: all_defined Pages: 1 -->
<svg width="306pt" height="180pt"
 viewBox="0.00 0.00 306.00 180.00" xmlns="http://www.w3.org/2000/svg" xmlns:xlink="http://www.w3.org/1999/xlink">
<g id="graph0" class="graph" transform="scale(1 1) rotate(0) translate(4 176)">
<title>all_defined</title>
<polygon fill="white" stroke="none" points="-4,4 -4,-176 302,-176 302,4 -4,4"/>
<!-- Node1 -->
<g id="node1" class="node"><title>Node1</title>
<polygon fill="#bfbfbf" stroke="black" points="0,-57.5 0,-76.5 63,-76.5 63,-57.5 0,-57.5"/>
<text text-anchor="middle" x="31.5" y="-64.5" font-family="Helvetica,sans-Serif" font-size="10.00">all_defined</text>
</g>
<!-- Node2 -->
<g id="node2" class="node"><title>Node2</title>
<g id="a_node2"><a xlink:href="group__shapes__2d.html#ga803b8196745be0e3a338def3c58e3b2b" target="_top" xlink:title="A rectangle with a removed rectangular core. ">
<polygon fill="white" stroke="black" points="111,-114.5 111,-133.5 178,-133.5 178,-114.5 111,-114.5"/>
<text text-anchor="middle" x="144.5" y="-121.5" font-family="Helvetica,sans-Serif" font-size="10.00">rectangle_c</text>
</a>
</g>
</g>
<!-- Node1&#45;&gt;Node2 -->
<g id="edge1" class="edge"><title>Node1&#45;&gt;Node2</title>
<path fill="none" stroke="midnightblue" d="M56.9114,-81.851C69.3279,-89.1721 84.7674,-97.9247 99,-105 105.62,-108.291 112.946,-111.564 119.712,-114.443"/>
<polygon fill="midnightblue" stroke="midnightblue" points="58.4573,-78.6979 48.0757,-76.583 54.8726,-84.7104 58.4573,-78.6979"/>
</g>
<!-- Node5 -->
<g id="node5" class="node"><title>Node5</title>
<g id="a_node5"><a xlink:href="group__shapes__2d.html#ga9f2b6ba2562760853dd998b0086736a3" target="_top" xlink:title="An ellipse with a removed elliptical core. ">
<polygon fill="white" stroke="black" points="117,-76.5 117,-95.5 172,-95.5 172,-76.5 117,-76.5"/>
<text text-anchor="middle" x="144.5" y="-83.5" font-family="Helvetica,sans-Serif" font-size="10.00">ellipse_c</text>
</a>
</g>
</g>
<!-- Node1&#45;&gt;Node5 -->
<g id="edge4" class="edge"><title>Node1&#45;&gt;Node5</title>
<path fill="none" stroke="midnightblue" d="M73.3536,-73.993C87.8338,-76.4716 103.747,-79.1954 116.75,-81.4213"/>
<polygon fill="midnightblue" stroke="midnightblue" points="73.5723,-70.4796 63.1251,-72.2421 72.3912,-77.3792 73.5723,-70.4796"/>
</g>
<!-- Node7 -->
<g id="node7" class="node"><title>Node7</title>
<g id="a_node7"><a xlink:href="group__shapes__2d.html#ga3e186b32450bffe183da7422f0b19f95" target="_top" xlink:title="A sector of an ellipse with a removed elliptical core. ">
<polygon fill="white" stroke="black" points="114.5,-38.5 114.5,-57.5 174.5,-57.5 174.5,-38.5 114.5,-38.5"/>
<text text-anchor="middle" x="144.5" y="-45.5" font-family="Helvetica,sans-Serif" font-size="10.00">ellipse_cs</text>
</a>
</g>
</g>
<!-- Node1&#45;&gt;Node7 -->
<g id="edge6" class="edge"><title>Node1&#45;&gt;Node7</title>
<path fill="none" stroke="midnightblue" d="M73.1895,-60.0351C86.7527,-57.7135 101.589,-55.1739 114.123,-53.0285"/>
<polygon fill="midnightblue" stroke="midnightblue" points="72.3912,-56.6208 63.1251,-61.7579 73.5723,-63.5204 72.3912,-56.6208"/>
</g>
<!-- Node10 -->
<g id="node10" class="node"><title>Node10</title>
<g id="a_node10"><a xlink:href="group__tools__polytope.html#ga00b574079f19251be7281151d11db8fa" target="_top" xlink:title="Label the vertices, paths, and edges of a polytope. ">
<polygon fill="white" stroke="black" points="99,-0.5 99,-19.5 190,-19.5 190,-0.5 99,-0.5"/>
<text text-anchor="middle" x="144.5" y="-7.5" font-family="Helvetica,sans-Serif" font-size="10.00">polytope_number</text>
</a>
</g>
</g>
<!-- Node1&#45;&gt;Node10 -->
<g id="edge9" class="edge"><title>Node1&#45;&gt;Node10</title>
<path fill="none" stroke="midnightblue" d="M56.9114,-52.149C69.3279,-44.8279 84.7674,-36.0753 99,-29 105.62,-25.7093 112.946,-22.4358 119.712,-19.5566"/>
<polygon fill="midnightblue" stroke="midnightblue" points="54.8726,-49.2896 48.0757,-57.417 58.4573,-55.3021 54.8726,-49.2896"/>
</g>
<!-- Node3 -->
<g id="node3" class="node"><title>Node3</title>
<g id="a_node3"><a xlink:href="group__shapes__2de.html#gaa24ca5f53d00f33d356f40f740a1d7f7" target="_top" xlink:title="An extruded rectangle with a removed rectangular core. ">
<polygon fill="white" stroke="black" points="226,-152.5 226,-171.5 298,-171.5 298,-152.5 226,-152.5"/>
<text text-anchor="middle" x="262" y="-159.5" font-family="Helvetica,sans-Serif" font-size="10.00">erectangle_c</text>
</a>
</g>
</g>
<!-- Node2&#45;&gt;Node3 -->
<g id="edge2" class="edge"><title>Node2&#45;&gt;Node3</title>
<path fill="none" stroke="midnightblue" d="M184.484,-136.826C199.982,-141.925 217.502,-147.689 231.864,-152.414"/>
<polygon fill="midnightblue" stroke="midnightblue" points="185.238,-133.39 174.646,-133.589 183.051,-140.039 185.238,-133.39"/>
</g>
<!-- Node4 -->
<g id="node4" class="node"><title>Node4</title>
<g id="a_node4"><a xlink:href="group__shapes__3d.html#gac521ba184d6ac7693df4db67df2499b8" target="_top" xlink:title="A rectangular cross&#45;sectional profile revolved about the z&#45;axis. ">
<polygon fill="white" stroke="black" points="236,-114.5 236,-133.5 288,-133.5 288,-114.5 236,-114.5"/>
<text text-anchor="middle" x="262" y="-121.5" font-family="Helvetica,sans-Serif" font-size="10.00">torus_rp</text>
</a>
</g>
</g>
<!-- Node2&#45;&gt;Node4 -->
<g id="edge3" class="edge"><title>Node2&#45;&gt;Node4</title>
<path fill="none" stroke="midnightblue" d="M188.483,-124C204.435,-124 221.999,-124 235.845,-124"/>
<polygon fill="midnightblue" stroke="midnightblue" points="188.289,-120.5 178.289,-124 188.289,-127.5 188.289,-120.5"/>
</g>
<!-- Node6 -->
<g id="node6" class="node"><title>Node6</title>
<g id="a_node6"><a xlink:href="group__shapes__2de.html#ga3189db3471cd678cc0f8d88f325186eb" target="_top" xlink:title="An extruded ellipse with a removed elliptical core. ">
<polygon fill="white" stroke="black" points="232,-76.5 232,-95.5 292,-95.5 292,-76.5 232,-76.5"/>
<text text-anchor="middle" x="262" y="-83.5" font-family="Helvetica,sans-Serif" font-size="10.00">eellipse_c</text>
</a>
</g>
</g>
<!-- Node5&#45;&gt;Node6 -->
<g id="edge5" class="edge"><title>Node5&#45;&gt;Node6</title>
<path fill="none" stroke="midnightblue" d="M182.397,-86C198.416,-86 216.907,-86 231.929,-86"/>
<polygon fill="midnightblue" stroke="midnightblue" points="182.288,-82.5001 172.288,-86 182.288,-89.5001 182.288,-82.5001"/>
</g>
<!-- Node8 -->
<g id="node8" class="node"><title>Node8</title>
<g id="a_node8"><a xlink:href="group__shapes__2de.html#gae015f9c06a0ad064212475dcd1c1eb5c" target="_top" xlink:title="An extruded sector of an ellipse with a removed elliptical core. ">
<polygon fill="white" stroke="black" points="229.5,-38.5 229.5,-57.5 294.5,-57.5 294.5,-38.5 229.5,-38.5"/>
<text text-anchor="middle" x="262" y="-45.5" font-family="Helvetica,sans-Serif" font-size="10.00">eellipse_cs</text>
</a>
</g>
</g>
<!-- Node7&#45;&gt;Node8 -->
<g id="edge7" class="edge"><title>Node7&#45;&gt;Node8</title>
<path fill="none" stroke="midnightblue" d="M184.863,-48C199.4,-48 215.672,-48 229.43,-48"/>
<polygon fill="midnightblue" stroke="midnightblue" points="184.646,-44.5001 174.646,-48 184.645,-51.5001 184.646,-44.5001"/>
</g>
<!-- Node9 -->
<g id="node9" class="node"><title>Node9</title>
<g id="a_node9"><a xlink:href="group__shapes__3d.html#gaf5589d4cfa40aefb7853b4eebc792312" target="_top" xlink:title="An elliptical cross&#45;sectional profile revolved about the z&#45;axis. ">
<polygon fill="white" stroke="black" points="235,-0.5 235,-19.5 289,-19.5 289,-0.5 235,-0.5"/>
<text text-anchor="middle" x="262" y="-7.5" font-family="Helvetica,sans-Serif" font-size="10.00">torus_ep</text>
</a>
</g>
</g>
<!-- Node7&#45;&gt;Node9 -->
<g id="edge8" class="edge"><title>Node7&#45;&gt;Node9</title>
<path fill="none" stroke="midnightblue" d="M184.562,-35.1485C201.05,-29.7237 219.817,-23.5494 234.629,-18.6763"/>
<polygon fill="midnightblue" stroke="midnightblue" points="183.051,-31.961 174.646,-38.411 185.238,-38.6104 183.051,-31.961"/>
</g>
</g>
</svg>
