<?xml version="1.0" encoding="UTF-8" standalone="no"?>
<!DOCTYPE svg PUBLIC "-//W3C//DTD SVG 1.1//EN"
 "http://www.w3.org/Graphics/SVG/1.1/DTD/svg11.dtd">
<!-- Generated by graphviz version 2.38.0 (20140413.2041)
 -->
<!-- Title: Datatypes Pages: 1 -->
<svg width="272pt" height="436pt"
 viewBox="0.00 0.00 272.00 435.74" xmlns="http://www.w3.org/2000/svg" xmlns:xlink="http://www.w3.org/1999/xlink">
<g id="graph0" class="graph" transform="scale(1 1) rotate(0) translate(4 431.738)">
<title>Datatypes</title>
<polygon fill="white" stroke="none" points="-4,4 -4,-431.738 268,-431.738 268,4 -4,4"/>
<!-- Node2 -->
<g id="node1" class="node"><title>Node2</title>
<g id="a_node1"><a xlink:href="group__datatypes__operate.html" target="_top" xlink:title="Data type operation. ">
<polygon fill="white" stroke="black" points="196,-402.063 196,-421.063 260,-421.063 260,-402.063 196,-402.063"/>
<text text-anchor="middle" x="228" y="-409.063" font-family="Helvetica,sans-Serif" font-size="10.00">Operations</text>
</a>
</g>
</g>
<!-- Node5 -->
<g id="node2" class="node"><title>Node5</title>
<g id="a_node2"><a xlink:href="group__datatypes__identify__scalar.html" target="_top" xlink:title="Scalar data type identification. ">
<polygon fill="white" stroke="black" points="203,-353.063 203,-372.063 253,-372.063 253,-353.063 203,-353.063"/>
<text text-anchor="middle" x="228" y="-360.063" font-family="Helvetica,sans-Serif" font-size="10.00">Scalars</text>
</a>
</g>
</g>
<!-- Node0 -->
<g id="node3" class="node"><title>Node0</title>
<polygon fill="#bfbfbf" stroke="black" points="0,-209.063 0,-228.063 62,-228.063 62,-209.063 0,-209.063"/>
<text text-anchor="middle" x="31" y="-216.063" font-family="Helvetica,sans-Serif" font-size="10.00">Datatypes</text>
</g>
<!-- Node0&#45;&gt;Node2 -->
<g id="edge2" class="edge"><title>Node0&#45;&gt;Node2</title>
<path fill="none" stroke="black" d="M34.0227,-238.46C38.9758,-282.766 53.2998,-387.329 80,-408.563 112.564,-434.462 163.256,-428.597 195.788,-420.917"/>
<polygon fill="black" stroke="black" points="37.4855,-237.924 32.9403,-228.354 30.5253,-238.67 37.4855,-237.924"/>
</g>
<!-- Node0&#45;&gt;Node2 -->
<g id="edge9" class="edge"><title>Node0&#45;&gt;Node2</title>
<path fill="none" stroke="darkgreen" stroke-dasharray="5,2" d="M31.9043,-228.26C32.1918,-255.514 36.9286,-333.423 80,-373.563 111.389,-402.816 132.552,-384.469 174,-395.563 181.335,-397.527 189.19,-399.802 196.546,-402.01"/>
<text text-anchor="middle" x="127" y="-398.563" font-family="Helvetica,sans-Serif" font-size="10.00">datatypes&#45;base.scad</text>
</g>
<!-- Node0&#45;&gt;Node5 -->
<g id="edge6" class="edge"><title>Node0&#45;&gt;Node5</title>
<path fill="none" stroke="darkgreen" stroke-dasharray="5,2" d="M32.7911,-228.106C35.2332,-250.992 44.7773,-309.201 80,-337.563 98.4995,-352.46 166.007,-358.846 202.759,-361.268"/>
<text text-anchor="middle" x="127" y="-361.563" font-family="Helvetica,sans-Serif" font-size="10.00">datatypes&#45;base.scad</text>
</g>
<!-- Node3 -->
<g id="node4" class="node"><title>Node3</title>
<g id="a_node4"><a xlink:href="group__datatypes__map.html" target="_top" xlink:title="Map data type operations. ">
<polygon fill="white" stroke="black" points="207.5,-311.063 207.5,-330.063 248.5,-330.063 248.5,-311.063 207.5,-311.063"/>
<text text-anchor="middle" x="228" y="-318.063" font-family="Helvetica,sans-Serif" font-size="10.00">Maps</text>
</a>
</g>
</g>
<!-- Node0&#45;&gt;Node3 -->
<g id="edge3" class="edge"><title>Node0&#45;&gt;Node3</title>
<path fill="none" stroke="black" d="M35.5078,-238.126C40.773,-261.092 53.129,-298.24 80,-315.563 119.061,-340.746 176.881,-332.649 207.044,-325.864"/>
<polygon fill="black" stroke="black" points="38.8976,-237.233 33.4601,-228.14 32.0403,-238.64 38.8976,-237.233"/>
</g>
<!-- Node0&#45;&gt;Node3 -->
<g id="edge13" class="edge"><title>Node0&#45;&gt;Node3</title>
<path fill="none" stroke="darkgreen" stroke-dasharray="5,2" d="M36.6691,-228.394C43.8953,-242.49 59.1591,-268.212 80,-281.563 116.045,-304.655 132.785,-290.997 174,-302.563 185.134,-305.688 197.369,-309.797 207.276,-313.3"/>
<text text-anchor="middle" x="127" y="-305.563" font-family="Helvetica,sans-Serif" font-size="10.00">datatypes_map.scad</text>
</g>
<!-- Node10 -->
<g id="node5" class="node"><title>Node10</title>
<g id="a_node5"><a xlink:href="group__datatypes__operate__list.html" target="_top" xlink:title="List data type operations. ">
<polygon fill="white" stroke="black" points="209,-268.063 209,-287.063 247,-287.063 247,-268.063 209,-268.063"/>
<text text-anchor="middle" x="228" y="-275.063" font-family="Helvetica,sans-Serif" font-size="10.00">Lists</text>
</a>
</g>
</g>
<!-- Node0&#45;&gt;Node10 -->
<g id="edge12" class="edge"><title>Node0&#45;&gt;Node10</title>
<path fill="none" stroke="darkgreen" stroke-dasharray="5,2" d="M45.2163,-228.252C54.5145,-234.63 67.485,-242.675 80,-247.563 103.412,-256.709 175.074,-269.116 208.928,-274.669"/>
<text text-anchor="middle" x="127" y="-270.563" font-family="Helvetica,sans-Serif" font-size="10.00">datatypes&#45;base.scad</text>
</g>
<!-- Node9 -->
<g id="node6" class="node"><title>Node9</title>
<g id="a_node6"><a xlink:href="group__datatypes__operate__iterable.html" target="_top" xlink:title="Iterable data type operations. ">
<polygon fill="white" stroke="black" points="201,-230.063 201,-249.063 255,-249.063 255,-230.063 201,-230.063"/>
<text text-anchor="middle" x="228" y="-237.063" font-family="Helvetica,sans-Serif" font-size="10.00">Iterables</text>
</a>
</g>
</g>
<!-- Node0&#45;&gt;Node9 -->
<g id="edge11" class="edge"><title>Node0&#45;&gt;Node9</title>
<path fill="none" stroke="darkgreen" stroke-dasharray="5,2" d="M62.0414,-221.799C100.074,-225.895 164.969,-232.883 200.983,-236.762"/>
<text text-anchor="middle" x="127" y="-235.563" font-family="Helvetica,sans-Serif" font-size="10.00">datatypes&#45;base.scad</text>
</g>
<!-- Node7 -->
<g id="node7" class="node"><title>Node7</title>
<g id="a_node7"><a xlink:href="group__datatypes__identify__list.html" target="_top" xlink:title="List data type identification. ">
<polygon fill="white" stroke="black" points="209,-192.063 209,-211.063 247,-211.063 247,-192.063 209,-192.063"/>
<text text-anchor="middle" x="228" y="-199.063" font-family="Helvetica,sans-Serif" font-size="10.00">Lists</text>
</a>
</g>
</g>
<!-- Node0&#45;&gt;Node7 -->
<g id="edge8" class="edge"><title>Node0&#45;&gt;Node7</title>
<path fill="none" stroke="darkgreen" stroke-dasharray="5,2" d="M56.0422,-208.905C63.5859,-206.323 72.0274,-203.885 80,-202.563 125.824,-194.967 180.79,-197.666 208.739,-199.862"/>
<text text-anchor="middle" x="127" y="-205.563" font-family="Helvetica,sans-Serif" font-size="10.00">datatypes&#45;base.scad</text>
</g>
<!-- Node6 -->
<g id="node8" class="node"><title>Node6</title>
<g id="a_node8"><a xlink:href="group__datatypes__identify__iterable.html" target="_top" xlink:title="Iterable data type identification. ">
<polygon fill="white" stroke="black" points="201,-154.063 201,-173.063 255,-173.063 255,-154.063 201,-154.063"/>
<text text-anchor="middle" x="228" y="-161.063" font-family="Helvetica,sans-Serif" font-size="10.00">Iterables</text>
</a>
</g>
</g>
<!-- Node0&#45;&gt;Node6 -->
<g id="edge7" class="edge"><title>Node0&#45;&gt;Node6</title>
<path fill="none" stroke="darkgreen" stroke-dasharray="5,2" d="M41.299,-208.889C50.3118,-200.17 64.8141,-187.793 80,-181.563 119.964,-165.17 170.783,-162.541 200.998,-162.671"/>
<text text-anchor="middle" x="127" y="-184.563" font-family="Helvetica,sans-Serif" font-size="10.00">datatypes&#45;base.scad</text>
</g>
<!-- Node8 -->
<g id="node9" class="node"><title>Node8</title>
<g id="a_node9"><a xlink:href="group__datatypes__operate__scalar.html" target="_top" xlink:title="Scalar data type operations. ">
<polygon fill="white" stroke="black" points="203,-116.063 203,-135.063 253,-135.063 253,-116.063 203,-116.063"/>
<text text-anchor="middle" x="228" y="-123.063" font-family="Helvetica,sans-Serif" font-size="10.00">Scalars</text>
</a>
</g>
</g>
<!-- Node0&#45;&gt;Node8 -->
<g id="edge10" class="edge"><title>Node0&#45;&gt;Node8</title>
<path fill="none" stroke="darkgreen" stroke-dasharray="5,2" d="M35.5526,-208.851C41.8578,-193.114 56.5882,-162.321 80,-147.563 117.875,-123.689 171.932,-122.07 202.84,-123.507"/>
<text text-anchor="middle" x="127" y="-150.563" font-family="Helvetica,sans-Serif" font-size="10.00">datatypes&#45;base.scad</text>
</g>
<!-- Node1 -->
<g id="node10" class="node"><title>Node1</title>
<g id="a_node10"><a xlink:href="group__datatypes__identify.html" target="_top" xlink:title="Compile&#45;time data type identification and tests. ">
<polygon fill="white" stroke="black" points="192,-71.0635 192,-90.0635 264,-90.0635 264,-71.0635 192,-71.0635"/>
<text text-anchor="middle" x="228" y="-78.0635" font-family="Helvetica,sans-Serif" font-size="10.00">Identification</text>
</a>
</g>
</g>
<!-- Node0&#45;&gt;Node1 -->
<g id="edge1" class="edge"><title>Node0&#45;&gt;Node1</title>
<path fill="none" stroke="black" d="M36.1221,-199.046C41.9493,-176.322 54.8166,-139.269 80,-118.563 96.9508,-104.627 154.034,-92.7444 191.877,-86.1394"/>
<polygon fill="black" stroke="black" points="32.6833,-198.381 33.8039,-208.916 39.4978,-199.981 32.6833,-198.381"/>
</g>
<!-- Node0&#45;&gt;Node1 -->
<g id="edge5" class="edge"><title>Node0&#45;&gt;Node1</title>
<path fill="none" stroke="darkgreen" stroke-dasharray="5,2" d="M31.7416,-209.041C31.6011,-182.367 35.3198,-106.767 80,-74.5635 115.951,-48.6517 170.692,-60.6185 202.241,-71.0225"/>
<text text-anchor="middle" x="127" y="-77.5635" font-family="Helvetica,sans-Serif" font-size="10.00">datatypes&#45;base.scad</text>
</g>
<!-- Node4 -->
<g id="node11" class="node"><title>Node4</title>
<g id="a_node11"><a xlink:href="group__datatypes__table.html" target="_top" xlink:title="Table data type operations. ">
<polygon fill="white" stroke="black" points="205,-23.0635 205,-42.0635 251,-42.0635 251,-23.0635 205,-23.0635"/>
<text text-anchor="middle" x="228" y="-30.0635" font-family="Helvetica,sans-Serif" font-size="10.00">Tables</text>
</a>
</g>
</g>
<!-- Node0&#45;&gt;Node4 -->
<g id="edge4" class="edge"><title>Node0&#45;&gt;Node4</title>
<path fill="none" stroke="black" d="M31.5244,-198.78C31.8555,-164.078 37.9494,-92.4305 80,-55.5635 114.865,-24.9963 173.109,-25.987 204.805,-29.3088"/>
<polygon fill="black" stroke="black" points="28.026,-199.051 31.5894,-209.028 35.0258,-199.006 28.026,-199.051"/>
</g>
<!-- Node0&#45;&gt;Node4 -->
<g id="edge14" class="edge"><title>Node0&#45;&gt;Node4</title>
<path fill="none" stroke="darkgreen" stroke-dasharray="5,2" d="M32.7401,-208.817C35.7856,-171.608 48.6974,-39.3556 80,-14.5635 117.691,15.2883 178.755,-8.07604 208.934,-22.8395"/>
<text text-anchor="middle" x="127" y="-17.5635" font-family="Helvetica,sans-Serif" font-size="10.00">datatypes_table.scad</text>
</g>
</g>
</svg>
