<?xml version="1.0" encoding="UTF-8" standalone="no"?>
<!DOCTYPE svg PUBLIC "-//W3C//DTD SVG 1.1//EN"
 "http://www.w3.org/Graphics/SVG/1.1/DTD/svg11.dtd">
<!-- Generated by graphviz version 2.38.0 (20140413.2041)
 -->
<!-- Title: Identification Pages: 1 -->
<svg width="271pt" height="365pt"
 viewBox="0.00 0.00 271.00 365.35" xmlns="http://www.w3.org/2000/svg" xmlns:xlink="http://www.w3.org/1999/xlink">
<g id="graph0" class="graph" transform="scale(1 1) rotate(0) translate(4 361.351)">
<title>Identification</title>
<polygon fill="white" stroke="none" points="-4,4 -4,-361.351 267,-361.351 267,4 -4,4"/>
<!-- Node5 -->
<g id="node1" class="node"><title>Node5</title>
<g id="a_node1"><a xlink:href="group__datatypes__operate.html" target="_top" xlink:title="Data type operation. ">
<polygon fill="white" stroke="black" points="199,-279.851 199,-298.851 263,-298.851 263,-279.851 199,-279.851"/>
<text text-anchor="middle" x="231" y="-286.851" font-family="Helvetica,sans-Serif" font-size="10.00">Operations</text>
</a>
</g>
</g>
<!-- Node2 -->
<g id="node2" class="node"><title>Node2</title>
<g id="a_node2"><a xlink:href="group__datatypes__identify__scalar.html" target="_top" xlink:title="Scalar data type identification. ">
<polygon fill="white" stroke="black" points="206,-233.851 206,-252.851 256,-252.851 256,-233.851 206,-233.851"/>
<text text-anchor="middle" x="231" y="-240.851" font-family="Helvetica,sans-Serif" font-size="10.00">Scalars</text>
</a>
</g>
</g>
<!-- Node1 -->
<g id="node3" class="node"><title>Node1</title>
<g id="a_node3"><a xlink:href="group__datatypes.html" target="_top" xlink:title="Data type definitions and operators. ">
<polygon fill="white" stroke="black" points="200,-327.851 200,-346.851 262,-346.851 262,-327.851 200,-327.851"/>
<text text-anchor="middle" x="231" y="-334.851" font-family="Helvetica,sans-Serif" font-size="10.00">Datatypes</text>
</a>
</g>
</g>
<!-- Node0 -->
<g id="node9" class="node"><title>Node0</title>
<polygon fill="#bfbfbf" stroke="black" points="0,-169.851 0,-188.851 72,-188.851 72,-169.851 0,-169.851"/>
<text text-anchor="middle" x="36" y="-176.851" font-family="Helvetica,sans-Serif" font-size="10.00">Identification</text>
</g>
<!-- Node1&#45;&gt;Node0 -->
<g id="edge1" class="edge"><title>Node1&#45;&gt;Node0</title>
<path fill="none" stroke="black" d="M190.049,-328.954C151.45,-320.544 97.7114,-307.93 90,-301.351 54.3372,-270.925 41.907,-212.039 38.2887,-188.961"/>
<polygon fill="black" stroke="black" points="189.477,-332.411 199.99,-331.101 190.954,-325.569 189.477,-332.411"/>
</g>
<!-- Node8 -->
<g id="node4" class="node"><title>Node8</title>
<g id="a_node4"><a xlink:href="group__datatypes__operate__list.html" target="_top" xlink:title="List data type operations. ">
<polygon fill="white" stroke="black" points="212,-188.851 212,-207.851 250,-207.851 250,-188.851 212,-188.851"/>
<text text-anchor="middle" x="231" y="-195.851" font-family="Helvetica,sans-Serif" font-size="10.00">Lists</text>
</a>
</g>
</g>
<!-- Node7 -->
<g id="node5" class="node"><title>Node7</title>
<g id="a_node5"><a xlink:href="group__datatypes__operate__iterable.html" target="_top" xlink:title="Iterable data type operations. ">
<polygon fill="white" stroke="black" points="204,-150.851 204,-169.851 258,-169.851 258,-150.851 204,-150.851"/>
<text text-anchor="middle" x="231" y="-157.851" font-family="Helvetica,sans-Serif" font-size="10.00">Iterables</text>
</a>
</g>
</g>
<!-- Node4 -->
<g id="node6" class="node"><title>Node4</title>
<g id="a_node6"><a xlink:href="group__datatypes__identify__list.html" target="_top" xlink:title="List data type identification. ">
<polygon fill="white" stroke="black" points="212,-99.851 212,-118.851 250,-118.851 250,-99.851 212,-99.851"/>
<text text-anchor="middle" x="231" y="-106.851" font-family="Helvetica,sans-Serif" font-size="10.00">Lists</text>
</a>
</g>
</g>
<!-- Node3 -->
<g id="node7" class="node"><title>Node3</title>
<g id="a_node7"><a xlink:href="group__datatypes__identify__iterable.html" target="_top" xlink:title="Iterable data type identification. ">
<polygon fill="white" stroke="black" points="204,-53.851 204,-72.851 258,-72.851 258,-53.851 204,-53.851"/>
<text text-anchor="middle" x="231" y="-60.851" font-family="Helvetica,sans-Serif" font-size="10.00">Iterables</text>
</a>
</g>
</g>
<!-- Node6 -->
<g id="node8" class="node"><title>Node6</title>
<g id="a_node8"><a xlink:href="group__datatypes__operate__scalar.html" target="_top" xlink:title="Scalar data type operations. ">
<polygon fill="white" stroke="black" points="206,-0.851012 206,-19.851 256,-19.851 256,-0.851012 206,-0.851012"/>
<text text-anchor="middle" x="231" y="-7.85101" font-family="Helvetica,sans-Serif" font-size="10.00">Scalars</text>
</a>
</g>
</g>
<!-- Node0&#45;&gt;Node5 -->
<g id="edge9" class="edge"><title>Node0&#45;&gt;Node5</title>
<path fill="none" stroke="darkgreen" stroke-dasharray="5,2" d="M40.1893,-188.862C46.609,-206.443 62.843,-243.911 90,-262.351 122.561,-284.461 168.681,-289.522 198.957,-290.182"/>
<text text-anchor="middle" x="135.5" y="-291.351" font-family="Helvetica,sans-Serif" font-size="10.00">datatypes&#45;base.scad</text>
</g>
<!-- Node0&#45;&gt;Node2 -->
<g id="edge2" class="edge"><title>Node0&#45;&gt;Node2</title>
<path fill="none" stroke="black" d="M46.8814,-198.332C55.8741,-213.359 70.6866,-233.276 90,-242.351 127.398,-259.924 176.864,-254.599 205.878,-249.038"/>
<polygon fill="black" stroke="black" points="49.7722,-196.332 41.8236,-189.327 43.669,-199.76 49.7722,-196.332"/>
</g>
<!-- Node0&#45;&gt;Node2 -->
<g id="edge6" class="edge"><title>Node0&#45;&gt;Node2</title>
<path fill="none" stroke="darkgreen" stroke-dasharray="5,2" d="M52.7515,-189.006C63.0472,-194.977 76.9571,-202.418 90,-207.351 128.918,-222.072 140.765,-218.744 181,-229.351 189.127,-231.494 197.97,-233.974 205.879,-236.246"/>
<text text-anchor="middle" x="135.5" y="-232.351" font-family="Helvetica,sans-Serif" font-size="10.00">datatypes&#45;base.scad</text>
</g>
<!-- Node0&#45;&gt;Node1 -->
<g id="edge5" class="edge"><title>Node0&#45;&gt;Node1</title>
<path fill="none" stroke="darkgreen" stroke-dasharray="5,2" d="M37.1446,-188.919C38.1205,-215.747 44.9169,-291.966 90,-326.351 121.404,-350.303 169.126,-348.346 199.937,-343.679"/>
<text text-anchor="middle" x="135.5" y="-349.351" font-family="Helvetica,sans-Serif" font-size="10.00">datatypes&#45;base.scad</text>
</g>
<!-- Node0&#45;&gt;Node8 -->
<g id="edge12" class="edge"><title>Node0&#45;&gt;Node8</title>
<path fill="none" stroke="darkgreen" stroke-dasharray="5,2" d="M72.3992,-182.836C113.643,-186.896 180.184,-193.447 211.97,-196.576"/>
<text text-anchor="middle" x="135.5" y="-195.351" font-family="Helvetica,sans-Serif" font-size="10.00">datatypes&#45;base.scad</text>
</g>
<!-- Node0&#45;&gt;Node7 -->
<g id="edge11" class="edge"><title>Node0&#45;&gt;Node7</title>
<path fill="none" stroke="darkgreen" stroke-dasharray="5,2" d="M63.6323,-169.771C71.9653,-167.192 81.2666,-164.736 90,-163.351 129.258,-157.124 175.476,-157.627 203.751,-158.804"/>
<text text-anchor="middle" x="135.5" y="-166.351" font-family="Helvetica,sans-Serif" font-size="10.00">datatypes&#45;base.scad</text>
</g>
<!-- Node0&#45;&gt;Node4 -->
<g id="edge4" class="edge"><title>Node0&#45;&gt;Node4</title>
<path fill="none" stroke="black" d="M63.9965,-165.127C72.2279,-161.058 81.3814,-156.796 90,-153.351 132.583,-136.328 184.498,-121.491 211.569,-114.181"/>
<polygon fill="black" stroke="black" points="62.1891,-162.119 54.8445,-169.755 65.3479,-168.365 62.1891,-162.119"/>
</g>
<!-- Node0&#45;&gt;Node4 -->
<g id="edge8" class="edge"><title>Node0&#45;&gt;Node4</title>
<path fill="none" stroke="darkgreen" stroke-dasharray="5,2" d="M40.7198,-169.597C47.5824,-153.176 63.959,-120.517 90,-107.351 129.481,-87.3892 183.586,-96.8214 211.566,-103.942"/>
<text text-anchor="middle" x="135.5" y="-110.351" font-family="Helvetica,sans-Serif" font-size="10.00">datatypes&#45;base.scad</text>
</g>
<!-- Node0&#45;&gt;Node3 -->
<g id="edge3" class="edge"><title>Node0&#45;&gt;Node3</title>
<path fill="none" stroke="black" d="M43.2968,-160.075C50.9901,-139.697 66.0262,-108.216 90,-91.351 124.059,-67.3916 173.708,-62.8203 203.818,-62.5087"/>
<polygon fill="black" stroke="black" points="39.9686,-158.989 39.9346,-169.584 46.5681,-161.323 39.9686,-158.989"/>
</g>
<!-- Node0&#45;&gt;Node3 -->
<g id="edge7" class="edge"><title>Node0&#45;&gt;Node3</title>
<path fill="none" stroke="darkgreen" stroke-dasharray="5,2" d="M37.4798,-169.544C39.3117,-144.212 48.0939,-76.6026 90,-48.351 126.484,-23.755 180.876,-41.1629 209.956,-53.6666"/>
<text text-anchor="middle" x="135.5" y="-51.351" font-family="Helvetica,sans-Serif" font-size="10.00">datatypes&#45;base.scad</text>
</g>
<!-- Node0&#45;&gt;Node6 -->
<g id="edge10" class="edge"><title>Node0&#45;&gt;Node6</title>
<path fill="none" stroke="darkgreen" stroke-dasharray="5,2" d="M36.8418,-169.83C36.9461,-141.602 41.5048,-58.0021 90,-20.351 123.298,5.50127 175.527,0.979377 205.894,-4.67032"/>
<text text-anchor="middle" x="135.5" y="-23.351" font-family="Helvetica,sans-Serif" font-size="10.00">datatypes&#45;base.scad</text>
</g>
</g>
</svg>
