<?xml version="1.0" encoding="UTF-8" standalone="no"?>
<!DOCTYPE svg PUBLIC "-//W3C//DTD SVG 1.1//EN"
 "http://www.w3.org/Graphics/SVG/1.1/DTD/svg11.dtd">
<!-- Generated by graphviz version 2.38.0 (20140413.2041)
 -->
<!-- Title: engon Pages: 1 -->
<svg width="285pt" height="104pt"
 viewBox="0.00 0.00 285.00 104.00" xmlns="http://www.w3.org/2000/svg" xmlns:xlink="http://www.w3.org/1999/xlink">
<g id="graph0" class="graph" transform="scale(1 1) rotate(0) translate(4 100)">
<title>engon</title>
<polygon fill="white" stroke="none" points="-4,4 -4,-100 281,-100 281,4 -4,4"/>
<!-- Node1 -->
<g id="node1" class="node"><title>Node1</title>
<polygon fill="#bfbfbf" stroke="black" points="0,-38.5 0,-57.5 43,-57.5 43,-38.5 0,-38.5"/>
<text text-anchor="middle" x="21.5" y="-45.5" font-family="Helvetica,sans-Serif" font-size="10.00">engon</text>
</g>
<!-- Node2 -->
<g id="node2" class="node"><title>Node2</title>
<g id="a_node2"><a xlink:href="group__tools__extrude.html#ga2cb6eb6927858c6b5e1e2dfadb197bf9" target="_top" xlink:title="Linearly extrude 2d shape with extrusion upper and lower scaling. ">
<polygon fill="white" stroke="black" points="79,-57.5 79,-76.5 174,-76.5 174,-57.5 79,-57.5"/>
<text text-anchor="middle" x="126.5" y="-64.5" font-family="Helvetica,sans-Serif" font-size="10.00">linear_extrude_uls</text>
</a>
</g>
</g>
<!-- Node1&#45;&gt;Node2 -->
<g id="edge1" class="edge"><title>Node1&#45;&gt;Node2</title>
<path fill="none" stroke="midnightblue" d="M43.3436,-51.8449C50.855,-53.2305 59.7343,-54.8685 68.8309,-56.5465"/>
<polygon fill="midnightblue" stroke="midnightblue" points="68.2636,-60.0008 78.7326,-58.373 69.5335,-53.1169 68.2636,-60.0008"/>
</g>
<!-- Node5 -->
<g id="node5" class="node"><title>Node5</title>
<g id="a_node5"><a xlink:href="group__shapes__2d.html#ga523675020d361e525669de448e17cfd7" target="_top" xlink:title="An n&#45;sided equiangular/equilateral regular polygon. ">
<polygon fill="white" stroke="black" points="107.5,-19.5 107.5,-38.5 145.5,-38.5 145.5,-19.5 107.5,-19.5"/>
<text text-anchor="middle" x="126.5" y="-26.5" font-family="Helvetica,sans-Serif" font-size="10.00">ngon</text>
</a>
</g>
</g>
<!-- Node1&#45;&gt;Node5 -->
<g id="edge4" class="edge"><title>Node1&#45;&gt;Node5</title>
<path fill="none" stroke="midnightblue" d="M43.3436,-44.1551C58.9211,-41.2815 80.3821,-37.3227 97.4632,-34.1718"/>
<polygon fill="midnightblue" stroke="midnightblue" points="98.2418,-37.5874 107.441,-32.3313 96.9719,-30.7035 98.2418,-37.5874"/>
</g>
<!-- Node3 -->
<g id="node3" class="node"><title>Node3</title>
<g id="a_node3"><a xlink:href="group__datatypes__identify__scalar.html#ga62dbd35f498bfc2a090812b1cf8a37c4" target="_top" xlink:title="Test if a value is not defined. ">
<polygon fill="white" stroke="black" points="210,-38.5 210,-57.5 277,-57.5 277,-38.5 210,-38.5"/>
<text text-anchor="middle" x="243.5" y="-45.5" font-family="Helvetica,sans-Serif" font-size="10.00">not_defined</text>
</a>
</g>
</g>
<!-- Node2&#45;&gt;Node3 -->
<g id="edge2" class="edge"><title>Node2&#45;&gt;Node3</title>
<path fill="none" stroke="midnightblue" d="M174.275,-59.272C182.763,-57.8696 191.575,-56.4138 199.934,-55.0327"/>
<polygon fill="midnightblue" stroke="midnightblue" points="200.558,-58.4772 209.853,-53.3938 199.416,-51.5708 200.558,-58.4772"/>
</g>
<!-- Node4 -->
<g id="node4" class="node"><title>Node4</title>
<g id="a_node4"><a xlink:href="group__datatypes__identify__scalar.html#ga258e8911375d30ff85a6e52df01dc1c5" target="_top" xlink:title="Test if a value is a single non&#45;iterable value. ">
<polygon fill="white" stroke="black" points="215.5,-76.5 215.5,-95.5 271.5,-95.5 271.5,-76.5 215.5,-76.5"/>
<text text-anchor="middle" x="243.5" y="-83.5" font-family="Helvetica,sans-Serif" font-size="10.00">is_scalar</text>
</a>
</g>
</g>
<!-- Node2&#45;&gt;Node4 -->
<g id="edge3" class="edge"><title>Node2&#45;&gt;Node4</title>
<path fill="none" stroke="midnightblue" d="M174.275,-74.728C184.613,-76.4361 195.431,-78.2233 205.327,-79.8583"/>
<polygon fill="midnightblue" stroke="midnightblue" points="204.81,-83.3203 215.247,-81.4973 205.951,-76.4139 204.81,-83.3203"/>
</g>
<!-- Node5&#45;&gt;Node3 -->
<g id="edge5" class="edge"><title>Node5&#45;&gt;Node3</title>
<path fill="none" stroke="midnightblue" d="M145.722,-32.0106C160.257,-34.4121 181.207,-37.8733 199.899,-40.9616"/>
<polygon fill="midnightblue" stroke="midnightblue" points="199.56,-44.453 209.997,-42.63 200.701,-37.5466 199.56,-44.453"/>
</g>
<!-- Node6 -->
<g id="node6" class="node"><title>Node6</title>
<g id="a_node6"><a xlink:href="group__math__oshapes.html#ga0e1975ceeaf1701764e7041470e3db71" target="_top" xlink:title="Compute the coordinates for an n&#45;sided regular polygon. ">
<polygon fill="white" stroke="black" points="210.5,-0.5 210.5,-19.5 276.5,-19.5 276.5,-0.5 210.5,-0.5"/>
<text text-anchor="middle" x="243.5" y="-7.5" font-family="Helvetica,sans-Serif" font-size="10.00">rpolygon_lp</text>
</a>
</g>
</g>
<!-- Node5&#45;&gt;Node6 -->
<g id="edge6" class="edge"><title>Node5&#45;&gt;Node6</title>
<path fill="none" stroke="midnightblue" d="M145.722,-25.9894C160.432,-23.5591 181.711,-20.0434 200.572,-16.9272"/>
<polygon fill="midnightblue" stroke="midnightblue" points="201.16,-20.3777 210.455,-15.2943 200.019,-13.4713 201.16,-20.3777"/>
</g>
</g>
</svg>
