<?xml version="1.0" encoding="UTF-8" standalone="no"?>
<!DOCTYPE svg PUBLIC "-//W3C//DTD SVG 1.1//EN"
 "http://www.w3.org/Graphics/SVG/1.1/DTD/svg11.dtd">
<!-- Generated by graphviz version 2.38.0 (20140413.2041)
 -->
<!-- Title: triangle_sss Pages: 1 -->
<svg width="410pt" height="332pt"
 viewBox="0.00 0.00 410.00 332.00" xmlns="http://www.w3.org/2000/svg" xmlns:xlink="http://www.w3.org/1999/xlink">
<g id="graph0" class="graph" transform="scale(1 1) rotate(0) translate(4 328)">
<title>triangle_sss</title>
<polygon fill="white" stroke="none" points="-4,4 -4,-328 406,-328 406,4 -4,4"/>
<!-- Node1 -->
<g id="node1" class="node"><title>Node1</title>
<polygon fill="#bfbfbf" stroke="black" points="0,-95.5 0,-114.5 69,-114.5 69,-95.5 0,-95.5"/>
<text text-anchor="middle" x="34.5" y="-102.5" font-family="Helvetica,sans-Serif" font-size="10.00">triangle_sss</text>
</g>
<!-- Node2 -->
<g id="node2" class="node"><title>Node2</title>
<g id="a_node2"><a xlink:href="group__shapes__2d.html#ga5321277acf52177e1c7928c13377dd00" target="_top" xlink:title="A general triangle specified by a list of its three side lengths. ">
<polygon fill="white" stroke="black" points="111.5,-209.5 111.5,-228.5 172.5,-228.5 172.5,-209.5 111.5,-209.5"/>
<text text-anchor="middle" x="142" y="-216.5" font-family="Helvetica,sans-Serif" font-size="10.00">triangle_ls</text>
</a>
</g>
</g>
<!-- Node1&#45;&gt;Node2 -->
<g id="edge1" class="edge"><title>Node1&#45;&gt;Node2</title>
<path fill="none" stroke="midnightblue" d="M51.458,-122.626C65.4886,-138.082 86.4989,-161.123 105,-181 114.04,-190.712 124.478,-201.706 131.779,-209.361"/>
<polygon fill="midnightblue" stroke="midnightblue" points="53.7518,-119.946 44.4415,-114.889 48.5663,-124.648 53.7518,-119.946"/>
</g>
<!-- Node9 -->
<g id="node9" class="node"><title>Node9</title>
<g id="a_node9"><a xlink:href="group__shapes__2d.html#gac6b0e8a6784a03e427d8b14eee7d90ca" target="_top" xlink:title="A general triangle specified by two sides and the included angle. ">
<polygon fill="white" stroke="black" points="107.5,-152.5 107.5,-171.5 176.5,-171.5 176.5,-152.5 107.5,-152.5"/>
<text text-anchor="middle" x="142" y="-159.5" font-family="Helvetica,sans-Serif" font-size="10.00">triangle_sas</text>
</a>
</g>
</g>
<!-- Node1&#45;&gt;Node9 -->
<g id="edge8" class="edge"><title>Node1&#45;&gt;Node9</title>
<path fill="none" stroke="midnightblue" d="M61.757,-119.475C74.7444,-126.604 90.6702,-135.302 105,-143 110.727,-146.077 116.988,-149.396 122.658,-152.386"/>
<polygon fill="midnightblue" stroke="midnightblue" points="63.3336,-116.348 52.8843,-114.597 59.9615,-122.482 63.3336,-116.348"/>
</g>
<!-- Node11 -->
<g id="node11" class="node"><title>Node11</title>
<g id="a_node11"><a xlink:href="group__shapes__2d.html#gaaefcea1b06acb7b1633e86f657341701" target="_top" xlink:title="A general triangle specified by a side and two adjacent angles. ">
<polygon fill="white" stroke="black" points="107.5,-114.5 107.5,-133.5 176.5,-133.5 176.5,-114.5 107.5,-114.5"/>
<text text-anchor="middle" x="142" y="-121.5" font-family="Helvetica,sans-Serif" font-size="10.00">triangle_asa</text>
</a>
</g>
</g>
<!-- Node1&#45;&gt;Node11 -->
<g id="edge10" class="edge"><title>Node1&#45;&gt;Node11</title>
<path fill="none" stroke="midnightblue" d="M79.1512,-112.861C88.5465,-114.553 98.3388,-116.317 107.287,-117.928"/>
<polygon fill="midnightblue" stroke="midnightblue" points="79.633,-109.392 69.1709,-111.064 78.3922,-116.281 79.633,-109.392"/>
</g>
<!-- Node13 -->
<g id="node13" class="node"><title>Node13</title>
<g id="a_node13"><a xlink:href="group__shapes__2d.html#gad0730473c871f346877e8ef91e2bdfd4" target="_top" xlink:title="A general triangle specified by a side, one adjacent angle and the opposite angle. ">
<polygon fill="white" stroke="black" points="107.5,-76.5 107.5,-95.5 176.5,-95.5 176.5,-76.5 107.5,-76.5"/>
<text text-anchor="middle" x="142" y="-83.5" font-family="Helvetica,sans-Serif" font-size="10.00">triangle_aas</text>
</a>
</g>
</g>
<!-- Node1&#45;&gt;Node13 -->
<g id="edge12" class="edge"><title>Node1&#45;&gt;Node13</title>
<path fill="none" stroke="midnightblue" d="M79.1512,-97.1386C88.5465,-95.4466 98.3388,-93.6831 107.287,-92.0715"/>
<polygon fill="midnightblue" stroke="midnightblue" points="78.3922,-93.7189 69.1709,-98.936 79.633,-100.608 78.3922,-93.7189"/>
</g>
<!-- Node15 -->
<g id="node15" class="node"><title>Node15</title>
<g id="a_node15"><a xlink:href="group__shapes__2de.html#ga4940596130c3cd1e62fea77569459a52" target="_top" xlink:title="An extruded general triangle specified by its three side lengths. ">
<polygon fill="white" stroke="black" points="105,-38.5 105,-57.5 179,-57.5 179,-38.5 105,-38.5"/>
<text text-anchor="middle" x="142" y="-45.5" font-family="Helvetica,sans-Serif" font-size="10.00">etriangle_sss</text>
</a>
</g>
</g>
<!-- Node1&#45;&gt;Node15 -->
<g id="edge14" class="edge"><title>Node1&#45;&gt;Node15</title>
<path fill="none" stroke="midnightblue" d="M61.757,-90.5251C74.7444,-83.3957 90.6702,-74.6984 105,-67 110.727,-63.923 116.988,-60.6037 122.658,-57.6137"/>
<polygon fill="midnightblue" stroke="midnightblue" points="59.9615,-87.5181 52.8843,-95.4026 63.3336,-93.6524 59.9615,-87.5181"/>
</g>
<!-- Node16 -->
<g id="node16" class="node"><title>Node16</title>
<g id="a_node16"><a xlink:href="group__shapes__3d.html#ga66f0c4a748f33cc1fff3343655b17f45" target="_top" xlink:title="A cone. ">
<polygon fill="white" stroke="black" points="123,-0.5 123,-19.5 161,-19.5 161,-0.5 123,-0.5"/>
<text text-anchor="middle" x="142" y="-7.5" font-family="Helvetica,sans-Serif" font-size="10.00">cone</text>
</a>
</g>
</g>
<!-- Node1&#45;&gt;Node16 -->
<g id="edge15" class="edge"><title>Node1&#45;&gt;Node16</title>
<path fill="none" stroke="midnightblue" d="M49.1143,-86.8373C62.1503,-70.3093 83.0345,-45.9714 105,-29 110.369,-24.852 116.773,-21.1431 122.682,-18.1274"/>
<polygon fill="midnightblue" stroke="midnightblue" points="46.0613,-85.0646 42.7225,-95.1196 51.6029,-89.3414 46.0613,-85.0646"/>
</g>
<!-- Node3 -->
<g id="node3" class="node"><title>Node3</title>
<g id="a_node3"><a xlink:href="group__shapes__2d.html#ga7eefb280ad124a8d35eb4218e5f0bdad" target="_top" xlink:title="A general triangle specified by its sides with a removed triangular core. ">
<polygon fill="white" stroke="black" points="216.5,-266.5 216.5,-285.5 287.5,-285.5 287.5,-266.5 216.5,-266.5"/>
<text text-anchor="middle" x="252" y="-273.5" font-family="Helvetica,sans-Serif" font-size="10.00">triangle_ls_c</text>
</a>
</g>
</g>
<!-- Node2&#45;&gt;Node3 -->
<g id="edge2" class="edge"><title>Node2&#45;&gt;Node3</title>
<path fill="none" stroke="midnightblue" d="M170.384,-233.453C190.003,-243.807 215.872,-257.46 232.95,-266.474"/>
<polygon fill="midnightblue" stroke="midnightblue" points="171.798,-230.242 161.321,-228.669 168.531,-236.432 171.798,-230.242"/>
</g>
<!-- Node6 -->
<g id="node6" class="node"><title>Node6</title>
<g id="a_node6"><a xlink:href="group__shapes__2d.html#ga7452bf5414a3677ec806a31aed6b61dd" target="_top" xlink:title="A two&#45;dimensional star. ">
<polygon fill="white" stroke="black" points="230,-228.5 230,-247.5 274,-247.5 274,-228.5 230,-228.5"/>
<text text-anchor="middle" x="252" y="-235.5" font-family="Helvetica,sans-Serif" font-size="10.00">star2d</text>
</a>
</g>
</g>
<!-- Node2&#45;&gt;Node6 -->
<g id="edge5" class="edge"><title>Node2&#45;&gt;Node6</title>
<path fill="none" stroke="midnightblue" d="M182.662,-225.978C198.6,-228.782 216.335,-231.902 229.743,-234.26"/>
<polygon fill="midnightblue" stroke="midnightblue" points="182.967,-222.478 172.511,-224.192 181.754,-229.372 182.967,-222.478"/>
</g>
<!-- Node8 -->
<g id="node8" class="node"><title>Node8</title>
<g id="a_node8"><a xlink:href="group__shapes__2de.html#gace35f9581cef6d5c20c3fd1d922284d1" target="_top" xlink:title="An extruded general triangle specified by a list of its three side lengths. ">
<polygon fill="white" stroke="black" points="219,-190.5 219,-209.5 285,-209.5 285,-190.5 219,-190.5"/>
<text text-anchor="middle" x="252" y="-197.5" font-family="Helvetica,sans-Serif" font-size="10.00">etriangle_ls</text>
</a>
</g>
</g>
<!-- Node2&#45;&gt;Node8 -->
<g id="edge7" class="edge"><title>Node2&#45;&gt;Node8</title>
<path fill="none" stroke="midnightblue" d="M182.662,-212.022C194.581,-209.926 207.504,-207.652 218.871,-205.652"/>
<polygon fill="midnightblue" stroke="midnightblue" points="181.754,-208.628 172.511,-213.808 182.967,-215.522 181.754,-208.628"/>
</g>
<!-- Node4 -->
<g id="node4" class="node"><title>Node4</title>
<g id="a_node4"><a xlink:href="group__shapes__2de.html#ga0c99582ccf3d5b1425c99001b228c202" target="_top" xlink:title="A general triangle specified by its sides with a removed triangular core. ">
<polygon fill="white" stroke="black" points="325,-304.5 325,-323.5 402,-323.5 402,-304.5 325,-304.5"/>
<text text-anchor="middle" x="363.5" y="-311.5" font-family="Helvetica,sans-Serif" font-size="10.00">etriangle_ls_c</text>
</a>
</g>
</g>
<!-- Node3&#45;&gt;Node4 -->
<g id="edge3" class="edge"><title>Node3&#45;&gt;Node4</title>
<path fill="none" stroke="midnightblue" d="M290.379,-288.972C304.968,-294.034 321.392,-299.734 334.877,-304.414"/>
<polygon fill="midnightblue" stroke="midnightblue" points="291.226,-285.561 280.631,-285.589 288.931,-292.174 291.226,-285.561"/>
</g>
<!-- Node5 -->
<g id="node5" class="node"><title>Node5</title>
<g id="a_node5"><a xlink:href="group__shapes__3d.html#gaa3137155089f4d50c13ebea05402edd0" target="_top" xlink:title="A triangular cross&#45;sectional profile revolved about the z&#45;axis. ">
<polygon fill="white" stroke="black" points="337.5,-266.5 337.5,-285.5 389.5,-285.5 389.5,-266.5 337.5,-266.5"/>
<text text-anchor="middle" x="363.5" y="-273.5" font-family="Helvetica,sans-Serif" font-size="10.00">torus_tp</text>
</a>
</g>
</g>
<!-- Node3&#45;&gt;Node5 -->
<g id="edge4" class="edge"><title>Node3&#45;&gt;Node5</title>
<path fill="none" stroke="midnightblue" d="M297.776,-276C311.312,-276 325.69,-276 337.447,-276"/>
<polygon fill="midnightblue" stroke="midnightblue" points="297.647,-272.5 287.646,-276 297.646,-279.5 297.647,-272.5"/>
</g>
<!-- Node7 -->
<g id="node7" class="node"><title>Node7</title>
<g id="a_node7"><a xlink:href="group__shapes__2de.html#ga69ece32102ccb27e9985975fa4590251" target="_top" xlink:title="An extruded two&#45;dimensional star. ">
<polygon fill="white" stroke="black" points="339,-228.5 339,-247.5 388,-247.5 388,-228.5 339,-228.5"/>
<text text-anchor="middle" x="363.5" y="-235.5" font-family="Helvetica,sans-Serif" font-size="10.00">estar2d</text>
</a>
</g>
</g>
<!-- Node6&#45;&gt;Node7 -->
<g id="edge6" class="edge"><title>Node6&#45;&gt;Node7</title>
<path fill="none" stroke="midnightblue" d="M284.324,-238C301.655,-238 322.846,-238 338.791,-238"/>
<polygon fill="midnightblue" stroke="midnightblue" points="284.113,-234.5 274.113,-238 284.113,-241.5 284.113,-234.5"/>
</g>
<!-- Node10 -->
<g id="node10" class="node"><title>Node10</title>
<g id="a_node10"><a xlink:href="group__shapes__2de.html#gae4dc22fae0c22daa5d4844755cd268ac" target="_top" xlink:title="An extruded general triangle specified by two sides and the included angle. ">
<polygon fill="white" stroke="black" points="215,-152.5 215,-171.5 289,-171.5 289,-152.5 215,-152.5"/>
<text text-anchor="middle" x="252" y="-159.5" font-family="Helvetica,sans-Serif" font-size="10.00">etriangle_sas</text>
</a>
</g>
</g>
<!-- Node9&#45;&gt;Node10 -->
<g id="edge9" class="edge"><title>Node9&#45;&gt;Node10</title>
<path fill="none" stroke="midnightblue" d="M186.836,-162C196.131,-162 205.844,-162 214.817,-162"/>
<polygon fill="midnightblue" stroke="midnightblue" points="186.58,-158.5 176.58,-162 186.58,-165.5 186.58,-158.5"/>
</g>
<!-- Node12 -->
<g id="node12" class="node"><title>Node12</title>
<g id="a_node12"><a xlink:href="group__shapes__2de.html#ga5b1240a97e34583d10011e5d0044ca28" target="_top" xlink:title="An extruded general triangle specified by a side and two adjacent angles. ">
<polygon fill="white" stroke="black" points="215,-114.5 215,-133.5 289,-133.5 289,-114.5 215,-114.5"/>
<text text-anchor="middle" x="252" y="-121.5" font-family="Helvetica,sans-Serif" font-size="10.00">etriangle_asa</text>
</a>
</g>
</g>
<!-- Node11&#45;&gt;Node12 -->
<g id="edge11" class="edge"><title>Node11&#45;&gt;Node12</title>
<path fill="none" stroke="midnightblue" d="M186.836,-124C196.131,-124 205.844,-124 214.817,-124"/>
<polygon fill="midnightblue" stroke="midnightblue" points="186.58,-120.5 176.58,-124 186.58,-127.5 186.58,-120.5"/>
</g>
<!-- Node14 -->
<g id="node14" class="node"><title>Node14</title>
<g id="a_node14"><a xlink:href="group__shapes__2de.html#ga8a3300cf4ca82dad9002965960a76a9c" target="_top" xlink:title="An extruded general triangle specified by a side, one adjacent angle and the opposite angle...">
<polygon fill="white" stroke="black" points="215,-76.5 215,-95.5 289,-95.5 289,-76.5 215,-76.5"/>
<text text-anchor="middle" x="252" y="-83.5" font-family="Helvetica,sans-Serif" font-size="10.00">etriangle_aas</text>
</a>
</g>
</g>
<!-- Node13&#45;&gt;Node14 -->
<g id="edge13" class="edge"><title>Node13&#45;&gt;Node14</title>
<path fill="none" stroke="midnightblue" d="M186.836,-86C196.131,-86 205.844,-86 214.817,-86"/>
<polygon fill="midnightblue" stroke="midnightblue" points="186.58,-82.5001 176.58,-86 186.58,-89.5001 186.58,-82.5001"/>
</g>
</g>
</svg>
