<?xml version="1.0" encoding="UTF-8" standalone="no"?>
<!DOCTYPE svg PUBLIC "-//W3C//DTD SVG 1.1//EN"
 "http://www.w3.org/Graphics/SVG/1.1/DTD/svg11.dtd">
<!-- Generated by graphviz version 2.38.0 (20140413.2041)
 -->
<!-- Title: table_dump Pages: 1 -->
<svg width="191pt" height="294pt"
 viewBox="0.00 0.00 191.00 294.00" xmlns="http://www.w3.org/2000/svg" xmlns:xlink="http://www.w3.org/1999/xlink">
<g id="graph0" class="graph" transform="scale(1 1) rotate(0) translate(4 290)">
<title>table_dump</title>
<polygon fill="white" stroke="none" points="-4,4 -4,-290 187,-290 187,4 -4,4"/>
<!-- Node1 -->
<g id="node1" class="node"><title>Node1</title>
<polygon fill="#bfbfbf" stroke="black" points="0,-133.5 0,-152.5 67,-152.5 67,-133.5 0,-133.5"/>
<text text-anchor="middle" x="33.5" y="-140.5" font-family="Helvetica,sans-Serif" font-size="10.00">table_dump</text>
</g>
<!-- Node2 -->
<g id="node2" class="node"><title>Node2</title>
<g id="a_node2"><a xlink:href="group__datatypes__operate__iterable.html#gaccab3e37e43cb1d882713b3f3d6d9e1b" target="_top" xlink:title="Return the first element of an iterable value. ">
<polygon fill="white" stroke="black" points="126.5,-266.5 126.5,-285.5 159.5,-285.5 159.5,-266.5 126.5,-266.5"/>
<text text-anchor="middle" x="143" y="-273.5" font-family="Helvetica,sans-Serif" font-size="10.00">first</text>
</a>
</g>
</g>
<!-- Node1&#45;&gt;Node2 -->
<g id="edge1" class="edge"><title>Node1&#45;&gt;Node2</title>
<path fill="none" stroke="midnightblue" d="M38.0108,-152.501C46.2922,-173.774 68.9457,-225.809 103,-257 107.061,-260.72 111.985,-263.865 116.946,-266.46"/>
<polygon fill="midnightblue" stroke="midnightblue" points="115.77,-269.772 126.317,-270.779 118.7,-263.415 115.77,-269.772"/>
</g>
<!-- Node3 -->
<g id="node3" class="node"><title>Node3</title>
<g id="a_node3"><a xlink:href="group__datatypes__identify__scalar.html#ga62dbd35f498bfc2a090812b1cf8a37c4" target="_top" xlink:title="Test if a value is not defined. ">
<polygon fill="white" stroke="black" points="109.5,-228.5 109.5,-247.5 176.5,-247.5 176.5,-228.5 109.5,-228.5"/>
<text text-anchor="middle" x="143" y="-235.5" font-family="Helvetica,sans-Serif" font-size="10.00">not_defined</text>
</a>
</g>
</g>
<!-- Node1&#45;&gt;Node3 -->
<g id="edge2" class="edge"><title>Node1&#45;&gt;Node3</title>
<path fill="none" stroke="midnightblue" d="M41.511,-152.989C52.9249,-168.681 76.8882,-199.343 103,-219 105.053,-220.546 107.252,-222.017 109.521,-223.406"/>
<polygon fill="midnightblue" stroke="midnightblue" points="108.016,-226.573 118.463,-228.341 111.399,-220.445 108.016,-226.573"/>
</g>
<!-- Node4 -->
<g id="node4" class="node"><title>Node4</title>
<g id="a_node4"><a xlink:href="group__datatypes__identify__scalar.html#gaba1e87e102e1f9231ba30b43c8caa947" target="_top" xlink:title="Test if an iterable value is empty. ">
<polygon fill="white" stroke="black" points="115,-190.5 115,-209.5 171,-209.5 171,-190.5 115,-190.5"/>
<text text-anchor="middle" x="143" y="-197.5" font-family="Helvetica,sans-Serif" font-size="10.00">is_empty</text>
</a>
</g>
</g>
<!-- Node1&#45;&gt;Node4 -->
<g id="edge3" class="edge"><title>Node1&#45;&gt;Node4</title>
<path fill="none" stroke="midnightblue" d="M51.2552,-152.621C65.0411,-160.458 85.1461,-171.707 103,-181 106.1,-182.614 109.358,-184.267 112.615,-185.892"/>
<polygon fill="midnightblue" stroke="midnightblue" points="111.138,-189.066 121.656,-190.342 114.229,-182.785 111.138,-189.066"/>
</g>
<!-- Node5 -->
<g id="node5" class="node"><title>Node5</title>
<g id="a_node5"><a xlink:href="group__utilities__console.html#ga2565219688decee9515f527f4553044a" target="_top" xlink:title="Output message to console. ">
<polygon fill="white" stroke="black" points="115,-152.5 115,-171.5 171,-171.5 171,-152.5 115,-152.5"/>
<text text-anchor="middle" x="143" y="-159.5" font-family="Helvetica,sans-Serif" font-size="10.00">log_echo</text>
</a>
</g>
</g>
<!-- Node1&#45;&gt;Node5 -->
<g id="edge4" class="edge"><title>Node1&#45;&gt;Node5</title>
<path fill="none" stroke="midnightblue" d="M67.0453,-148.752C79.0184,-150.868 92.6634,-153.28 105,-155.461"/>
<polygon fill="midnightblue" stroke="midnightblue" points="104.534,-158.932 114.99,-157.226 105.752,-152.039 104.534,-158.932"/>
</g>
<!-- Node6 -->
<g id="node6" class="node"><title>Node6</title>
<g id="a_node6"><a xlink:href="group__datatypes__table.html#ga8a61574ea2be6f10c18cd04ef758cb8c" target="_top" xlink:title="Get the table row index that matches a table row identifier. ">
<polygon fill="white" stroke="black" points="109.5,-114.5 109.5,-133.5 176.5,-133.5 176.5,-114.5 109.5,-114.5"/>
<text text-anchor="middle" x="143" y="-121.5" font-family="Helvetica,sans-Serif" font-size="10.00">get_table_ri</text>
</a>
</g>
</g>
<!-- Node1&#45;&gt;Node6 -->
<g id="edge5" class="edge"><title>Node1&#45;&gt;Node6</title>
<path fill="none" stroke="midnightblue" d="M67.0453,-137.248C77.1607,-135.46 88.4693,-133.461 99.1744,-131.569"/>
<polygon fill="midnightblue" stroke="midnightblue" points="99.9562,-134.985 109.194,-129.798 98.7378,-128.092 99.9562,-134.985"/>
</g>
<!-- Node7 -->
<g id="node7" class="node"><title>Node7</title>
<g id="a_node7"><a xlink:href="group__datatypes__operate__list.html#gab05ff3da4d68d30922daa197f505580d" target="_top" xlink:title="Create a sequence of constant or incrementing elements. ">
<polygon fill="white" stroke="black" points="120,-76.5 120,-95.5 166,-95.5 166,-76.5 120,-76.5"/>
<text text-anchor="middle" x="143" y="-83.5" font-family="Helvetica,sans-Serif" font-size="10.00">consts</text>
</a>
</g>
</g>
<!-- Node1&#45;&gt;Node7 -->
<g id="edge6" class="edge"><title>Node1&#45;&gt;Node7</title>
<path fill="none" stroke="midnightblue" d="M51.2552,-133.379C65.0411,-125.542 85.1461,-114.293 103,-105 106.1,-103.386 109.358,-101.733 112.615,-100.108"/>
<polygon fill="midnightblue" stroke="midnightblue" points="114.229,-103.215 121.656,-95.6585 111.138,-96.934 114.229,-103.215"/>
</g>
<!-- Node8 -->
<g id="node8" class="node"><title>Node8</title>
<g id="a_node8"><a xlink:href="group__datatypes__table.html#ga7f80289883224f23a56c4075e7eb8bd0" target="_top" xlink:title="Get the table cell value for a specified row and column identifier. ">
<polygon fill="white" stroke="black" points="109.5,-38.5 109.5,-57.5 176.5,-57.5 176.5,-38.5 109.5,-38.5"/>
<text text-anchor="middle" x="143" y="-45.5" font-family="Helvetica,sans-Serif" font-size="10.00">get_table_v</text>
</a>
</g>
</g>
<!-- Node1&#45;&gt;Node8 -->
<g id="edge7" class="edge"><title>Node1&#45;&gt;Node8</title>
<path fill="none" stroke="midnightblue" d="M41.511,-133.011C52.9249,-117.319 76.8882,-86.6572 103,-67 105.053,-65.4542 107.252,-63.9829 109.521,-62.5937"/>
<polygon fill="midnightblue" stroke="midnightblue" points="111.399,-65.5553 118.463,-57.6588 108.016,-59.4268 111.399,-65.5553"/>
</g>
<!-- Node9 -->
<g id="node9" class="node"><title>Node9</title>
<g id="a_node9"><a xlink:href="group__datatypes__table.html#gac46ab6a9fd3f9d9f29e7fdc6a83e4251" target="_top" xlink:title="Get the size of a table. ">
<polygon fill="white" stroke="black" points="103,-0.5 103,-19.5 183,-19.5 183,-0.5 103,-0.5"/>
<text text-anchor="middle" x="143" y="-7.5" font-family="Helvetica,sans-Serif" font-size="10.00">get_table_size</text>
</a>
</g>
</g>
<!-- Node1&#45;&gt;Node9 -->
<g id="edge8" class="edge"><title>Node1&#45;&gt;Node9</title>
<path fill="none" stroke="midnightblue" d="M38.0108,-133.499C46.2922,-112.226 68.9457,-60.1907 103,-29 104.5,-27.6265 106.117,-26.3314 107.81,-25.1134"/>
<polygon fill="midnightblue" stroke="midnightblue" points="110.016,-27.8666 116.717,-19.6602 106.361,-21.8966 110.016,-27.8666"/>
</g>
</g>
</svg>
