<?xml version="1.0" encoding="UTF-8" standalone="no"?>
<!DOCTYPE svg PUBLIC "-//W3C//DTD SVG 1.1//EN"
 "http://www.w3.org/Graphics/SVG/1.1/DTD/svg11.dtd">
<!-- Generated by graphviz version 2.38.0 (20140413.2041)
 -->
<!-- Title: triangle_ls Pages: 1 -->
<svg width="424pt" height="256pt"
 viewBox="0.00 0.00 424.00 256.00" xmlns="http://www.w3.org/2000/svg" xmlns:xlink="http://www.w3.org/1999/xlink">
<g id="graph0" class="graph" transform="scale(1 1) rotate(0) translate(4 252)">
<title>triangle_ls</title>
<polygon fill="white" stroke="none" points="-4,4 -4,-252 420,-252 420,4 -4,4"/>
<!-- Node1 -->
<g id="node1" class="node"><title>Node1</title>
<polygon fill="#bfbfbf" stroke="black" points="0,-209.5 0,-228.5 61,-228.5 61,-209.5 0,-209.5"/>
<text text-anchor="middle" x="30.5" y="-216.5" font-family="Helvetica,sans-Serif" font-size="10.00">triangle_ls</text>
</g>
<!-- Node2 -->
<g id="node2" class="node"><title>Node2</title>
<g id="a_node2"><a xlink:href="group__datatypes__identify__scalar.html#ga258e8911375d30ff85a6e52df01dc1c5" target="_top" xlink:title="Test if a value is a single non&#45;iterable value. ">
<polygon fill="white" stroke="black" points="103.5,-228.5 103.5,-247.5 159.5,-247.5 159.5,-228.5 103.5,-228.5"/>
<text text-anchor="middle" x="131.5" y="-235.5" font-family="Helvetica,sans-Serif" font-size="10.00">is_scalar</text>
</a>
</g>
</g>
<!-- Node1&#45;&gt;Node2 -->
<g id="edge1" class="edge"><title>Node1&#45;&gt;Node2</title>
<path fill="none" stroke="midnightblue" d="M61.2033,-224.701C71.303,-226.639 82.7192,-228.83 93.3285,-230.866"/>
<polygon fill="midnightblue" stroke="midnightblue" points="92.7032,-234.31 103.184,-232.757 94.0226,-227.435 92.7032,-234.31"/>
</g>
<!-- Node3 -->
<g id="node3" class="node"><title>Node3</title>
<g id="a_node3"><a xlink:href="group__shapes__2d.html#gab40e6edfc3c5ab69a4db26301318cd86" target="_top" xlink:title="A general triangle specified by its three side lengths. ">
<polygon fill="white" stroke="black" points="97,-190.5 97,-209.5 166,-209.5 166,-190.5 97,-190.5"/>
<text text-anchor="middle" x="131.5" y="-197.5" font-family="Helvetica,sans-Serif" font-size="10.00">triangle_sss</text>
</a>
</g>
</g>
<!-- Node1&#45;&gt;Node3 -->
<g id="edge2" class="edge"><title>Node1&#45;&gt;Node3</title>
<path fill="none" stroke="midnightblue" d="M61.2033,-213.299C69.2268,-211.759 78.0812,-210.06 86.7018,-208.406"/>
<polygon fill="midnightblue" stroke="midnightblue" points="87.4894,-211.819 96.6505,-206.496 86.17,-204.944 87.4894,-211.819"/>
</g>
<!-- Node4 -->
<g id="node4" class="node"><title>Node4</title>
<g id="a_node4"><a xlink:href="group__datatypes__identify__scalar.html#ga068402d4bbb2bbd22b955ad1e14f104b" target="_top" xlink:title="Test if a numerical value is invalid. ">
<polygon fill="white" stroke="black" points="214,-228.5 214,-247.5 259,-247.5 259,-228.5 214,-228.5"/>
<text text-anchor="middle" x="236.5" y="-235.5" font-family="Helvetica,sans-Serif" font-size="10.00">is_nan</text>
</a>
</g>
</g>
<!-- Node3&#45;&gt;Node4 -->
<g id="edge3" class="edge"><title>Node3&#45;&gt;Node4</title>
<path fill="none" stroke="midnightblue" d="M158.491,-209.589C172.34,-214.698 189.481,-221.022 204.073,-226.405"/>
<polygon fill="midnightblue" stroke="midnightblue" points="203.102,-229.778 213.696,-229.956 205.525,-223.211 203.102,-229.778"/>
</g>
<!-- Node5 -->
<g id="node5" class="node"><title>Node5</title>
<g id="a_node5"><a xlink:href="group__utilities__console.html#ga1ece4e2cff9ae45c85429c226eb8362c" target="_top" xlink:title="Output warning message to console. ">
<polygon fill="white" stroke="black" points="208.5,-190.5 208.5,-209.5 264.5,-209.5 264.5,-190.5 208.5,-190.5"/>
<text text-anchor="middle" x="236.5" y="-197.5" font-family="Helvetica,sans-Serif" font-size="10.00">log_warn</text>
</a>
</g>
</g>
<!-- Node3&#45;&gt;Node5 -->
<g id="edge4" class="edge"><title>Node3&#45;&gt;Node5</title>
<path fill="none" stroke="midnightblue" d="M166.226,-200C176.435,-200 187.705,-200 198.137,-200"/>
<polygon fill="midnightblue" stroke="midnightblue" points="198.219,-203.5 208.219,-200 198.219,-196.5 198.219,-203.5"/>
</g>
<!-- Node7 -->
<g id="node7" class="node"><title>Node7</title>
<g id="a_node7"><a xlink:href="group__shapes__2d.html#ga33d2a7677306c346ad6be5a488885d86" target="_top" xlink:title="A general triangle specified by three vertices. ">
<polygon fill="white" stroke="black" points="202,-114.5 202,-133.5 271,-133.5 271,-114.5 202,-114.5"/>
<text text-anchor="middle" x="236.5" y="-121.5" font-family="Helvetica,sans-Serif" font-size="10.00">triangle_ppp</text>
</a>
</g>
</g>
<!-- Node3&#45;&gt;Node7 -->
<g id="edge6" class="edge"><title>Node3&#45;&gt;Node7</title>
<path fill="none" stroke="midnightblue" d="M145.545,-190.375C162.881,-177.583 193.724,-154.825 214.394,-139.573"/>
<polygon fill="midnightblue" stroke="midnightblue" points="216.592,-142.301 222.561,-133.547 212.436,-136.668 216.592,-142.301"/>
</g>
<!-- Node6 -->
<g id="node6" class="node"><title>Node6</title>
<g id="a_node6"><a xlink:href="group__utilities__console.html#ga4fb6c985031c9b551777b2e9ebd2fc34" target="_top" xlink:title="Format the function call stack as a string. ">
<polygon fill="white" stroke="black" points="341,-228.5 341,-247.5 382,-247.5 382,-228.5 341,-228.5"/>
<text text-anchor="middle" x="361.5" y="-235.5" font-family="Helvetica,sans-Serif" font-size="10.00">stack</text>
</a>
</g>
</g>
<!-- Node5&#45;&gt;Node6 -->
<g id="edge5" class="edge"><title>Node5&#45;&gt;Node6</title>
<path fill="none" stroke="midnightblue" d="M264.798,-208.433C284.536,-214.531 311.165,-222.758 331.323,-228.986"/>
<polygon fill="midnightblue" stroke="midnightblue" points="330.333,-232.343 340.921,-231.951 332.4,-225.655 330.333,-232.343"/>
</g>
<!-- Node8 -->
<g id="node8" class="node"><title>Node8</title>
<g id="a_node8"><a xlink:href="group__datatypes__operate__scalar.html#gac119300e8c83de0037f2d0a4d9f0ab5c" target="_top" xlink:title="Return a value when it is defined or a default value when it is not. ">
<polygon fill="white" stroke="black" points="330.5,-190.5 330.5,-209.5 392.5,-209.5 392.5,-190.5 330.5,-190.5"/>
<text text-anchor="middle" x="361.5" y="-197.5" font-family="Helvetica,sans-Serif" font-size="10.00">defined_or</text>
</a>
</g>
</g>
<!-- Node7&#45;&gt;Node8 -->
<g id="edge7" class="edge"><title>Node7&#45;&gt;Node8</title>
<path fill="none" stroke="midnightblue" d="M247.047,-133.688C259.746,-146.114 283.357,-167.648 307,-181 311.281,-183.417 315.924,-185.614 320.626,-187.584"/>
<polygon fill="midnightblue" stroke="midnightblue" points="319.674,-190.968 330.264,-191.308 322.197,-184.439 319.674,-190.968"/>
</g>
<!-- Node9 -->
<g id="node9" class="node"><title>Node9</title>
<g id="a_node9"><a xlink:href="group__math__triangle.html#ga6eb5bfb1ae077d0db22e41c142233be0" target="_top" xlink:title="Compute the coordinate for the triangle&#39;s incircle. ">
<polygon fill="white" stroke="black" points="307,-152.5 307,-171.5 416,-171.5 416,-152.5 307,-152.5"/>
<text text-anchor="middle" x="361.5" y="-159.5" font-family="Helvetica,sans-Serif" font-size="10.00">triangle_incenter_ppp</text>
</a>
</g>
</g>
<!-- Node7&#45;&gt;Node9 -->
<g id="edge8" class="edge"><title>Node7&#45;&gt;Node9</title>
<path fill="none" stroke="midnightblue" d="M268.538,-133.589C283.979,-138.359 302.848,-144.189 319.466,-149.323"/>
<polygon fill="midnightblue" stroke="midnightblue" points="318.884,-152.806 329.472,-152.414 320.951,-146.118 318.884,-152.806"/>
</g>
<!-- Node10 -->
<g id="node10" class="node"><title>Node10</title>
<g id="a_node10"><a xlink:href="group__math__triangle.html#ga7c94003074f622d6421a665207cafbd7" target="_top" xlink:title="Compute the centroid (geometric center) of a triangle. ">
<polygon fill="white" stroke="black" points="307,-114.5 307,-133.5 416,-133.5 416,-114.5 307,-114.5"/>
<text text-anchor="middle" x="361.5" y="-121.5" font-family="Helvetica,sans-Serif" font-size="10.00">triangle_centroid_ppp</text>
</a>
</g>
</g>
<!-- Node7&#45;&gt;Node10 -->
<g id="edge9" class="edge"><title>Node7&#45;&gt;Node10</title>
<path fill="none" stroke="midnightblue" d="M271.11,-124C278.983,-124 287.63,-124 296.348,-124"/>
<polygon fill="midnightblue" stroke="midnightblue" points="296.573,-127.5 306.573,-124 296.573,-120.5 296.573,-127.5"/>
</g>
<!-- Node11 -->
<g id="node11" class="node"><title>Node11</title>
<g id="a_node11"><a xlink:href="group__datatypes__identify__iterable.html#ga6dc7861bf5a7777bfb33876493107d75" target="_top" xlink:title="Test if any element of a list of values is undefined. ">
<polygon fill="white" stroke="black" points="321.5,-76.5 321.5,-95.5 401.5,-95.5 401.5,-76.5 321.5,-76.5"/>
<text text-anchor="middle" x="361.5" y="-83.5" font-family="Helvetica,sans-Serif" font-size="10.00">any_undefined</text>
</a>
</g>
</g>
<!-- Node7&#45;&gt;Node11 -->
<g id="edge10" class="edge"><title>Node7&#45;&gt;Node11</title>
<path fill="none" stroke="midnightblue" d="M268.538,-114.411C283.979,-109.641 302.848,-103.811 319.466,-98.6771"/>
<polygon fill="midnightblue" stroke="midnightblue" points="320.951,-101.882 329.472,-95.5859 318.884,-95.1937 320.951,-101.882"/>
</g>
<!-- Node12 -->
<g id="node12" class="node"><title>Node12</title>
<g id="a_node12"><a xlink:href="group__math__vector__algebra.html#ga3a0c4c75047b8003ab09286a77a58c86" target="_top" xlink:title="Compute the angle between two lines (or vectors) in a Euclidean 3d or 2d&#45;space. ">
<polygon fill="white" stroke="black" points="336.5,-38.5 336.5,-57.5 386.5,-57.5 386.5,-38.5 336.5,-38.5"/>
<text text-anchor="middle" x="361.5" y="-45.5" font-family="Helvetica,sans-Serif" font-size="10.00">angle_ll</text>
</a>
</g>
</g>
<!-- Node7&#45;&gt;Node12 -->
<g id="edge11" class="edge"><title>Node7&#45;&gt;Node12</title>
<path fill="none" stroke="midnightblue" d="M247.047,-114.312C259.746,-101.886 283.357,-80.3518 307,-67 313.112,-63.5482 319.964,-60.5465 326.672,-58.0116"/>
<polygon fill="midnightblue" stroke="midnightblue" points="328.016,-61.2491 336.292,-54.6336 325.697,-54.6444 328.016,-61.2491"/>
</g>
<!-- Node13 -->
<g id="node13" class="node"><title>Node13</title>
<g id="a_node13"><a xlink:href="group__math__vector__algebra.html#gaa71caf02a1433e6c84d61d13d12aa581" target="_top" xlink:title="Compute the normalized unit vector of a Euclidean line (or vector). ">
<polygon fill="white" stroke="black" points="341.5,-0.5 341.5,-19.5 381.5,-19.5 381.5,-0.5 341.5,-0.5"/>
<text text-anchor="middle" x="361.5" y="-7.5" font-family="Helvetica,sans-Serif" font-size="10.00">unit_l</text>
</a>
</g>
</g>
<!-- Node7&#45;&gt;Node13 -->
<g id="edge12" class="edge"><title>Node7&#45;&gt;Node13</title>
<path fill="none" stroke="midnightblue" d="M242.014,-114.444C251.445,-95.4649 275.042,-52.8047 307,-29 314.272,-23.583 323.227,-19.6057 331.716,-16.7328"/>
<polygon fill="midnightblue" stroke="midnightblue" points="332.765,-20.0722 341.338,-13.8475 330.754,-13.3672 332.765,-20.0722"/>
</g>
</g>
</svg>
