solid OpenSCAD_Model
  facet normal -0.143412 -0.989663 4.13772e-07
    outer loop
      vertex -20.3346 -45.0802 42.9103
      vertex -93.8891 -34.4214 0
      vertex -20.3346 -45.0802 -42.9102
    endloop
  endfacet
  facet normal -4.88947e-07 -1 4.88947e-07
    outer loop
      vertex -20.3346 -45.0802 -42.9102
      vertex 65.4859 -45.0802 42.9103
      vertex -20.3346 -45.0802 42.9103
    endloop
  endfacet
  facet normal 0 -1 -0
    outer loop
      vertex 65.4859 -45.0802 42.9103
      vertex -20.3346 -45.0802 -42.9102
      vertex 65.4859 -45.0802 -42.9102
    endloop
  endfacet
  facet normal 0.476156 0.777306 -0.411183
    outer loop
      vertex 75.1299 28.6142 2.5149e-05
      vertex 22.5758 24.969 -67.7492
      vertex 1.94842 73.4431 -6.5668e-05
    endloop
  endfacet
  facet normal -0.120743 0.789557 0.601682
    outer loop
      vertex 1.94842 73.4431 -6.5668e-05
      vertex -59.3217 31.3735 42.9102
      vertex 22.5757 24.9691 67.7493
    endloop
  endfacet
  facet normal -0.120743 0.789556 -0.601684
    outer loop
      vertex 1.94842 73.4431 -6.5668e-05
      vertex 22.5758 24.969 -67.7492
      vertex -59.3216 31.3734 -42.9104
    endloop
  endfacet
  facet normal -0.566039 0.824378 -2.29847e-06
    outer loop
      vertex 1.94842 73.4431 -6.5668e-05
      vertex -59.3216 31.3734 -42.9104
      vertex -59.3217 31.3735 42.9102
    endloop
  endfacet
  facet normal -0.297728 -0.151824 0.942501
    outer loop
      vertex -59.3217 31.3735 42.9102
      vertex -20.3346 -45.0802 42.9103
      vertex 22.5757 24.9691 67.7493
    endloop
  endfacet
  facet normal -3.72877e-07 -0.334204 0.942501
    outer loop
      vertex 22.5757 24.9691 67.7493
      vertex -20.3346 -45.0802 42.9103
      vertex 65.4859 -45.0802 42.9103
    endloop
  endfacet
  facet normal -0.297726 -0.151826 -0.942501
    outer loop
      vertex 22.5758 24.969 -67.7492
      vertex -20.3346 -45.0802 -42.9102
      vertex -59.3216 31.3734 -42.9104
    endloop
  endfacet
  facet normal -2.93257e-07 -0.334204 -0.942501
    outer loop
      vertex -20.3346 -45.0802 -42.9102
      vertex 22.5758 24.969 -67.7492
      vertex 65.4859 -45.0802 -42.9102
    endloop
  endfacet
  facet normal 0.758233 0.251119 0.601683
    outer loop
      vertex 65.4859 -45.0802 42.9103
      vertex 75.1299 28.6142 2.5149e-05
      vertex 22.5757 24.9691 67.7493
    endloop
  endfacet
  facet normal 0.991546 -0.129758 2.64443e-07
    outer loop
      vertex 65.4859 -45.0802 42.9103
      vertex 65.4859 -45.0802 -42.9102
      vertex 75.1299 28.6142 2.5149e-05
    endloop
  endfacet
  facet normal 0.758233 0.251119 -0.601683
    outer loop
      vertex 75.1299 28.6142 2.5149e-05
      vertex 65.4859 -45.0802 -42.9102
      vertex 22.5758 24.969 -67.7492
    endloop
  endfacet
  facet normal 0.476156 0.777307 0.411182
    outer loop
      vertex 22.5757 24.9691 67.7493
      vertex 75.1299 28.6142 2.5149e-05
      vertex 1.94842 73.4431 -6.5668e-05
    endloop
  endfacet
  facet normal -0.514336 -0.262282 0.816497
    outer loop
      vertex -59.3217 31.3735 42.9102
      vertex -93.8891 -34.4214 0
      vertex -20.3346 -45.0802 42.9103
    endloop
  endfacet
  facet normal -0.885259 0.465099 -2.00108e-06
    outer loop
      vertex -59.3217 31.3735 42.9102
      vertex -59.3216 31.3734 -42.9104
      vertex -93.8891 -34.4214 0
    endloop
  endfacet
  facet normal -0.514335 -0.262284 -0.816497
    outer loop
      vertex -93.8891 -34.4214 0
      vertex -59.3216 31.3734 -42.9104
      vertex -20.3346 -45.0802 -42.9102
    endloop
  endfacet
endsolid OpenSCAD_Model
