solid OpenSCAD_Model
  facet normal 0 -1 0
    outer loop
      vertex -38.8054 -84.0156 32.8033
      vertex 17.8516 -84.0156 51.2123
      vertex -13.4676 -84.0156 51.2123
    endloop
  endfacet
  facet normal 0 -1 0
    outer loop
      vertex -38.8054 -84.0156 32.8033
      vertex 43.1893 -84.0156 32.8033
      vertex 17.8516 -84.0156 51.2123
    endloop
  endfacet
  facet normal 0 -1 0
    outer loop
      vertex -48.4835 -84.0156 3.017
      vertex 43.1893 -84.0156 32.8033
      vertex -38.8054 -84.0156 32.8033
    endloop
  endfacet
  facet normal 0 -1 0
    outer loop
      vertex -48.4835 -84.0156 3.017
      vertex 52.8675 -84.0156 3.017
      vertex 43.1893 -84.0156 32.8033
    endloop
  endfacet
  facet normal 0 -1 0
    outer loop
      vertex -38.8054 -84.0156 -26.7693
      vertex 52.8675 -84.0156 3.017
      vertex -48.4835 -84.0156 3.017
    endloop
  endfacet
  facet normal 0 -1 0
    outer loop
      vertex -38.8054 -84.0156 -26.7693
      vertex 43.1893 -84.0156 -26.7693
      vertex 52.8675 -84.0156 3.017
    endloop
  endfacet
  facet normal 0 -1 0
    outer loop
      vertex -13.4676 -84.0156 -45.1783
      vertex 43.1893 -84.0156 -26.7693
      vertex -38.8054 -84.0156 -26.7693
    endloop
  endfacet
  facet normal 0 -1 0
    outer loop
      vertex 43.1893 -84.0156 -26.7693
      vertex -13.4676 -84.0156 -45.1783
      vertex 17.8516 -84.0156 -45.1783
    endloop
  endfacet
  facet normal 0 -0.794654 0.607062
    outer loop
      vertex 2.19198 -67.5501 72.7659
      vertex -13.4676 -84.0156 51.2123
      vertex 17.8516 -84.0156 51.2123
    endloop
  endfacet
  facet normal -0.525731 -0.447214 0.723607
    outer loop
      vertex -64.1431 -67.5501 24.5706
      vertex 2.19198 -40.9084 89.2313
      vertex -13.4676 -14.2667 94.3195
    endloop
  endfacet
  facet normal -0.525731 -0.447214 0.723607
    outer loop
      vertex 2.19198 -40.9084 89.2313
      vertex -38.8054 -84.0156 32.8033
      vertex 2.19198 -67.5501 72.7659
    endloop
  endfacet
  facet normal -0.525731 -0.447214 0.723607
    outer loop
      vertex -79.8027 -40.9084 29.6587
      vertex -13.4676 -14.2667 94.3195
      vertex -38.8054 2.19873 86.0867
    endloop
  endfacet
  facet normal -0.525731 -0.447213 0.723607
    outer loop
      vertex 2.19198 -67.5501 72.7659
      vertex -38.8054 -84.0156 32.8033
      vertex -13.4676 -84.0156 51.2123
    endloop
  endfacet
  facet normal -0.525731 -0.447213 0.723607
    outer loop
      vertex -79.8027 -14.2667 46.1242
      vertex -38.8054 2.19873 86.0867
      vertex -64.1431 2.19873 67.6778
    endloop
  endfacet
  facet normal -0.525731 -0.447214 0.723607
    outer loop
      vertex 2.19198 -40.9084 89.2313
      vertex -64.1431 -67.5501 24.5706
      vertex -38.8054 -84.0156 32.8033
    endloop
  endfacet
  facet normal -0.525731 -0.447214 0.723607
    outer loop
      vertex -38.8054 2.19873 86.0867
      vertex -79.8027 -14.2667 46.1242
      vertex -79.8027 -40.9084 29.6587
    endloop
  endfacet
  facet normal -0.525731 -0.447214 0.723607
    outer loop
      vertex -13.4676 -14.2667 94.3195
      vertex -79.8027 -40.9084 29.6587
      vertex -64.1431 -67.5501 24.5706
    endloop
  endfacet
  facet normal 0 -0.187592 0.982247
    outer loop
      vertex 17.8516 -14.2667 94.3195
      vertex -13.4676 -14.2667 94.3195
      vertex 2.19198 -40.9084 89.2313
    endloop
  endfacet
  facet normal -0.57735 -0.794654 0.187592
    outer loop
      vertex -64.1431 -67.5501 24.5706
      vertex -48.4835 -84.0156 3.017
      vertex -38.8054 -84.0156 32.8033
    endloop
  endfacet
  facet normal -0.850651 -0.447213 -0.276393
    outer loop
      vertex -48.4835 -40.9084 -66.7319
      vertex -79.8027 2.19873 -40.0902
      vertex -64.1431 -14.2667 -61.6438
    endloop
  endfacet
  facet normal -0.850651 -0.447214 -0.276393
    outer loop
      vertex -79.8027 2.19873 -40.0902
      vertex -48.4835 -40.9084 -66.7319
      vertex -89.4809 2.19873 -10.3038
    endloop
  endfacet
  facet normal -0.850651 -0.447214 -0.276393
    outer loop
      vertex -38.8054 -67.5501 -53.411
      vertex -89.4809 2.19873 -10.3038
      vertex -48.4835 -40.9084 -66.7319
    endloop
  endfacet
  facet normal -0.850651 -0.447214 -0.276393
    outer loop
      vertex -89.4809 2.19873 -10.3038
      vertex -38.8054 -67.5501 -53.411
      vertex -89.4809 -14.2667 16.3379
    endloop
  endfacet
  facet normal -0.850651 -0.447214 -0.276393
    outer loop
      vertex -38.8054 -84.0156 -26.7693
      vertex -89.4809 -14.2667 16.3379
      vertex -38.8054 -67.5501 -53.411
    endloop
  endfacet
  facet normal -0.850651 -0.447214 -0.276393
    outer loop
      vertex -89.4809 -14.2667 16.3379
      vertex -38.8054 -84.0156 -26.7693
      vertex -79.8027 -40.9084 29.6587
    endloop
  endfacet
  facet normal -0.850651 -0.447214 -0.276393
    outer loop
      vertex -48.4835 -84.0156 3.017
      vertex -79.8027 -40.9084 29.6587
      vertex -38.8054 -84.0156 -26.7693
    endloop
  endfacet
  facet normal -0.850651 -0.447214 -0.276393
    outer loop
      vertex -79.8027 -40.9084 29.6587
      vertex -48.4835 -84.0156 3.017
      vertex -64.1431 -67.5501 24.5706
    endloop
  endfacet
  facet normal -0.934172 -0.187592 0.303531
    outer loop
      vertex -79.8027 -14.2667 46.1242
      vertex -89.4809 -14.2667 16.3379
      vertex -79.8027 -40.9084 29.6587
    endloop
  endfacet
  facet normal -0.356822 -0.794654 -0.491124
    outer loop
      vertex -38.8054 -67.5501 -53.411
      vertex -13.4676 -84.0156 -45.1783
      vertex -38.8054 -84.0156 -26.7693
    endloop
  endfacet
  facet normal -3.30509e-07 -0.447214 -0.894427
    outer loop
      vertex 43.1893 -67.5501 -53.411
      vertex 43.1893 -14.2667 -80.0527
      vertex 52.8675 -40.9084 -66.7319
    endloop
  endfacet
  facet normal 5.20151e-09 -0.447214 -0.894427
    outer loop
      vertex 17.8516 -84.0156 -45.1783
      vertex 43.1893 -14.2667 -80.0527
      vertex 43.1893 -67.5501 -53.411
    endloop
  endfacet
  facet normal -7.47078e-08 -0.447214 -0.894427
    outer loop
      vertex 17.8516 -84.0156 -45.1783
      vertex 17.8516 2.19873 -88.2855
      vertex 43.1893 -14.2667 -80.0527
    endloop
  endfacet
  facet normal 0 -0.447214 -0.894427
    outer loop
      vertex -13.4676 -84.0156 -45.1783
      vertex 17.8516 2.19873 -88.2855
      vertex 17.8516 -84.0156 -45.1783
    endloop
  endfacet
  facet normal 0 -0.447214 -0.894427
    outer loop
      vertex -13.4676 -84.0156 -45.1783
      vertex -13.4676 2.19873 -88.2855
      vertex 17.8516 2.19873 -88.2855
    endloop
  endfacet
  facet normal 1.36625e-08 -0.447214 -0.894427
    outer loop
      vertex -38.8054 -67.5501 -53.411
      vertex -13.4676 2.19873 -88.2855
      vertex -13.4676 -84.0156 -45.1783
    endloop
  endfacet
  facet normal 9.35718e-08 -0.447214 -0.894427
    outer loop
      vertex -38.8054 -67.5501 -53.411
      vertex -38.8054 -14.2667 -80.0527
      vertex -13.4676 2.19873 -88.2855
    endloop
  endfacet
  facet normal 3.30509e-07 -0.447214 -0.894427
    outer loop
      vertex -38.8054 -14.2667 -80.0527
      vertex -38.8054 -67.5501 -53.411
      vertex -48.4835 -40.9084 -66.7319
    endloop
  endfacet
  facet normal -0.57735 -0.187592 -0.794654
    outer loop
      vertex -64.1431 -14.2667 -61.6438
      vertex -38.8054 -14.2667 -80.0527
      vertex -48.4835 -40.9084 -66.7319
    endloop
  endfacet
  facet normal 0.356822 -0.794654 -0.491124
    outer loop
      vertex 43.1893 -67.5501 -53.411
      vertex 43.1893 -84.0156 -26.7693
      vertex 17.8516 -84.0156 -45.1783
    endloop
  endfacet
  facet normal 0.850651 -0.447214 -0.276393
    outer loop
      vertex 43.1893 -67.5501 -53.411
      vertex 93.8649 2.19873 -10.3038
      vertex 93.8649 -14.2667 16.3379
    endloop
  endfacet
  facet normal 0.850651 -0.447214 -0.276393
    outer loop
      vertex 93.8649 2.19873 -10.3038
      vertex 43.1893 -67.5501 -53.411
      vertex 84.1867 2.19873 -40.0902
    endloop
  endfacet
  facet normal 0.850651 -0.447214 -0.276393
    outer loop
      vertex 43.1893 -84.0156 -26.7693
      vertex 93.8649 -14.2667 16.3379
      vertex 84.1867 -40.9084 29.6587
    endloop
  endfacet
  facet normal 0.850651 -0.447214 -0.276393
    outer loop
      vertex 52.8675 -40.9084 -66.7319
      vertex 84.1867 2.19873 -40.0902
      vertex 43.1893 -67.5501 -53.411
    endloop
  endfacet
  facet normal 0.850651 -0.447214 -0.276393
    outer loop
      vertex 52.8675 -84.0156 3.017
      vertex 84.1867 -40.9084 29.6587
      vertex 68.5271 -67.5501 24.5706
    endloop
  endfacet
  facet normal 0.850651 -0.447214 -0.276393
    outer loop
      vertex 84.1867 2.19873 -40.0902
      vertex 52.8675 -40.9084 -66.7319
      vertex 68.5271 -14.2667 -61.6438
    endloop
  endfacet
  facet normal 0.850651 -0.447214 -0.276393
    outer loop
      vertex 84.1867 -40.9084 29.6587
      vertex 52.8675 -84.0156 3.017
      vertex 43.1893 -84.0156 -26.7693
    endloop
  endfacet
  facet normal 0.850651 -0.447214 -0.276393
    outer loop
      vertex 93.8649 -14.2667 16.3379
      vertex 43.1893 -84.0156 -26.7693
      vertex 43.1893 -67.5501 -53.411
    endloop
  endfacet
  facet normal 0.57735 -0.187592 -0.794654
    outer loop
      vertex 43.1893 -14.2667 -80.0527
      vertex 68.5271 -14.2667 -61.6438
      vertex 52.8675 -40.9084 -66.7319
    endloop
  endfacet
  facet normal 0.57735 -0.794654 0.187592
    outer loop
      vertex 68.5271 -67.5501 24.5706
      vertex 43.1893 -84.0156 32.8033
      vertex 52.8675 -84.0156 3.017
    endloop
  endfacet
  facet normal 0.525731 -0.447213 0.723607
    outer loop
      vertex 43.1893 2.19873 86.0867
      vertex 84.1867 -14.2667 46.1242
      vertex 68.5271 2.19873 67.6778
    endloop
  endfacet
  facet normal 0.525731 -0.447214 0.723607
    outer loop
      vertex 84.1867 -14.2667 46.1242
      vertex 43.1893 2.19873 86.0867
      vertex 84.1867 -40.9084 29.6587
    endloop
  endfacet
  facet normal 0.525731 -0.447214 0.723607
    outer loop
      vertex 17.8516 -14.2667 94.3195
      vertex 84.1867 -40.9084 29.6587
      vertex 43.1893 2.19873 86.0867
    endloop
  endfacet
  facet normal 0.525731 -0.447214 0.723607
    outer loop
      vertex 84.1867 -40.9084 29.6587
      vertex 17.8516 -14.2667 94.3195
      vertex 68.5271 -67.5501 24.5706
    endloop
  endfacet
  facet normal 0.525731 -0.447214 0.723607
    outer loop
      vertex 2.19198 -40.9084 89.2313
      vertex 68.5271 -67.5501 24.5706
      vertex 17.8516 -14.2667 94.3195
    endloop
  endfacet
  facet normal 0.525731 -0.447214 0.723607
    outer loop
      vertex 68.5271 -67.5501 24.5706
      vertex 2.19198 -40.9084 89.2313
      vertex 43.1893 -84.0156 32.8033
    endloop
  endfacet
  facet normal 0.525731 -0.447214 0.723607
    outer loop
      vertex 2.19198 -67.5501 72.7659
      vertex 43.1893 -84.0156 32.8033
      vertex 2.19198 -40.9084 89.2313
    endloop
  endfacet
  facet normal 0.525731 -0.447213 0.723607
    outer loop
      vertex 43.1893 -84.0156 32.8033
      vertex 2.19198 -67.5501 72.7659
      vertex 17.8516 -84.0156 51.2123
    endloop
  endfacet
  facet normal 0.934172 -0.187592 0.303531
    outer loop
      vertex 93.8649 -14.2667 16.3379
      vertex 84.1867 -14.2667 46.1242
      vertex 84.1867 -40.9084 29.6587
    endloop
  endfacet
  facet normal 0 1 0
    outer loop
      vertex 43.1893 71.9476 32.8033
      vertex -13.4676 71.9476 51.2123
      vertex 17.8516 71.9476 51.2123
    endloop
  endfacet
  facet normal 0 1 0
    outer loop
      vertex 43.1893 71.9476 32.8033
      vertex -38.8054 71.9476 32.8033
      vertex -13.4676 71.9476 51.2123
    endloop
  endfacet
  facet normal 0 1 0
    outer loop
      vertex 52.8675 71.9476 3.017
      vertex -38.8054 71.9476 32.8033
      vertex 43.1893 71.9476 32.8033
    endloop
  endfacet
  facet normal 0 1 0
    outer loop
      vertex 52.8675 71.9476 3.017
      vertex -48.4835 71.9476 3.017
      vertex -38.8054 71.9476 32.8033
    endloop
  endfacet
  facet normal 0 1 -0
    outer loop
      vertex 43.1893 71.9476 -26.7693
      vertex -48.4835 71.9476 3.017
      vertex 52.8675 71.9476 3.017
    endloop
  endfacet
  facet normal 0 1 0
    outer loop
      vertex 43.1893 71.9476 -26.7693
      vertex -38.8054 71.9476 -26.7693
      vertex -48.4835 71.9476 3.017
    endloop
  endfacet
  facet normal 0 1 -0
    outer loop
      vertex 17.8516 71.9476 -45.1783
      vertex -38.8054 71.9476 -26.7693
      vertex 43.1893 71.9476 -26.7693
    endloop
  endfacet
  facet normal 0 1 0
    outer loop
      vertex -38.8054 71.9476 -26.7693
      vertex 17.8516 71.9476 -45.1783
      vertex -13.4676 71.9476 -45.1783
    endloop
  endfacet
  facet normal -0.356822 0.794654 0.491124
    outer loop
      vertex -38.8054 55.4821 59.445
      vertex -13.4676 71.9476 51.2123
      vertex -38.8054 71.9476 32.8033
    endloop
  endfacet
  facet normal 3.58052e-07 0.447214 0.894427
    outer loop
      vertex 43.1893 55.4821 59.445
      vertex 43.1893 2.19873 86.0867
      vertex 52.8675 28.8404 72.7659
    endloop
  endfacet
  facet normal 1.56766e-07 0.447214 0.894427
    outer loop
      vertex 17.8516 71.9476 51.2123
      vertex 43.1893 2.19873 86.0867
      vertex 43.1893 55.4821 59.445
    endloop
  endfacet
  facet normal -5.94379e-08 0.447214 0.894427
    outer loop
      vertex 17.8516 71.9476 51.2123
      vertex 17.8516 -14.2667 94.3195
      vertex 43.1893 2.19873 86.0867
    endloop
  endfacet
  facet normal -0 0.447214 0.894427
    outer loop
      vertex -13.4676 71.9476 51.2123
      vertex 17.8516 -14.2667 94.3195
      vertex 17.8516 71.9476 51.2123
    endloop
  endfacet
  facet normal 0 0.447214 0.894427
    outer loop
      vertex -13.4676 71.9476 51.2123
      vertex -13.4676 -14.2667 94.3195
      vertex 17.8516 -14.2667 94.3195
    endloop
  endfacet
  facet normal -1.05727e-07 0.447214 0.894427
    outer loop
      vertex -38.8054 55.4821 59.445
      vertex -13.4676 -14.2667 94.3195
      vertex -13.4676 71.9476 51.2123
    endloop
  endfacet
  facet normal 1.10477e-07 0.447214 0.894427
    outer loop
      vertex -38.8054 55.4821 59.445
      vertex -38.8054 2.19873 86.0867
      vertex -13.4676 -14.2667 94.3195
    endloop
  endfacet
  facet normal -3.58052e-07 0.447214 0.894427
    outer loop
      vertex -38.8054 2.19873 86.0867
      vertex -38.8054 55.4821 59.445
      vertex -48.4835 28.8404 72.7659
    endloop
  endfacet
  facet normal -0.57735 0.187593 0.794654
    outer loop
      vertex -64.1431 2.19873 67.6778
      vertex -38.8054 2.19873 86.0867
      vertex -48.4835 28.8404 72.7659
    endloop
  endfacet
  facet normal 0.356822 0.794654 0.491124
    outer loop
      vertex 43.1893 55.4821 59.445
      vertex 43.1893 71.9476 32.8033
      vertex 17.8516 71.9476 51.2123
    endloop
  endfacet
  facet normal 0.850651 0.447214 0.276393
    outer loop
      vertex 93.8649 2.19873 -10.3038
      vertex 43.1893 71.9476 32.8033
      vertex 43.1893 55.4821 59.445
    endloop
  endfacet
  facet normal 0.850651 0.447214 0.276393
    outer loop
      vertex 43.1893 71.9476 32.8033
      vertex 93.8649 2.19873 -10.3038
      vertex 52.8675 71.9476 3.017
    endloop
  endfacet
  facet normal 0.850651 0.447214 0.276393
    outer loop
      vertex 93.8649 -14.2667 16.3379
      vertex 43.1893 55.4821 59.445
      vertex 52.8675 28.8404 72.7659
    endloop
  endfacet
  facet normal 0.850651 0.447214 0.276393
    outer loop
      vertex 84.1867 28.8404 -23.6247
      vertex 52.8675 71.9476 3.017
      vertex 93.8649 2.19873 -10.3038
    endloop
  endfacet
  facet normal 0.850651 0.447214 0.276393
    outer loop
      vertex 84.1867 -14.2667 46.1242
      vertex 52.8675 28.8404 72.7659
      vertex 68.5271 2.19873 67.6778
    endloop
  endfacet
  facet normal 0.850651 0.447214 0.276393
    outer loop
      vertex 52.8675 71.9476 3.017
      vertex 84.1867 28.8404 -23.6247
      vertex 68.5271 55.4821 -18.5366
    endloop
  endfacet
  facet normal 0.850651 0.447214 0.276393
    outer loop
      vertex 52.8675 28.8404 72.7659
      vertex 84.1867 -14.2667 46.1242
      vertex 93.8649 -14.2667 16.3379
    endloop
  endfacet
  facet normal 0.850651 0.447214 0.276393
    outer loop
      vertex 43.1893 55.4821 59.445
      vertex 93.8649 -14.2667 16.3379
      vertex 93.8649 2.19873 -10.3038
    endloop
  endfacet
  facet normal 0.57735 0.187593 0.794654
    outer loop
      vertex 43.1893 2.19873 86.0867
      vertex 68.5271 2.19873 67.6778
      vertex 52.8675 28.8404 72.7659
    endloop
  endfacet
  facet normal 0.57735 0.794654 -0.187592
    outer loop
      vertex 68.5271 55.4821 -18.5366
      vertex 43.1893 71.9476 -26.7693
      vertex 52.8675 71.9476 3.017
    endloop
  endfacet
  facet normal 0.934172 0.187592 -0.303531
    outer loop
      vertex 84.1867 2.19873 -40.0902
      vertex 84.1867 28.8404 -23.6247
      vertex 93.8649 2.19873 -10.3038
    endloop
  endfacet
  facet normal 0 0.794654 -0.607062
    outer loop
      vertex 2.19198 55.4821 -66.7319
      vertex -13.4676 71.9476 -45.1783
      vertex 17.8516 71.9476 -45.1783
    endloop
  endfacet
  facet normal -0.525731 0.447214 -0.723607
    outer loop
      vertex -64.1431 55.4821 -18.5366
      vertex 2.19198 28.8404 -83.1973
      vertex -13.4676 2.19873 -88.2855
    endloop
  endfacet
  facet normal -0.525731 0.447213 -0.723607
    outer loop
      vertex 2.19198 28.8404 -83.1973
      vertex -38.8054 71.9476 -26.7693
      vertex 2.19198 55.4821 -66.7319
    endloop
  endfacet
  facet normal -0.525731 0.447214 -0.723607
    outer loop
      vertex -79.8027 28.8404 -23.6247
      vertex -13.4676 2.19873 -88.2855
      vertex -38.8054 -14.2667 -80.0527
    endloop
  endfacet
  facet normal -0.525731 0.447214 -0.723607
    outer loop
      vertex 2.19198 55.4821 -66.7319
      vertex -38.8054 71.9476 -26.7693
      vertex -13.4676 71.9476 -45.1783
    endloop
  endfacet
  facet normal -0.525731 0.447213 -0.723607
    outer loop
      vertex -79.8027 2.19873 -40.0902
      vertex -38.8054 -14.2667 -80.0527
      vertex -64.1431 -14.2667 -61.6438
    endloop
  endfacet
  facet normal -0.525731 0.447213 -0.723607
    outer loop
      vertex 2.19198 28.8404 -83.1973
      vertex -64.1431 55.4821 -18.5366
      vertex -38.8054 71.9476 -26.7693
    endloop
  endfacet
  facet normal -0.525731 0.447214 -0.723607
    outer loop
      vertex -38.8054 -14.2667 -80.0527
      vertex -79.8027 2.19873 -40.0902
      vertex -79.8027 28.8404 -23.6247
    endloop
  endfacet
  facet normal -0.525731 0.447214 -0.723607
    outer loop
      vertex -13.4676 2.19873 -88.2855
      vertex -79.8027 28.8404 -23.6247
      vertex -64.1431 55.4821 -18.5366
    endloop
  endfacet
  facet normal 0 0.187592 -0.982247
    outer loop
      vertex 17.8516 2.19873 -88.2855
      vertex -13.4676 2.19873 -88.2855
      vertex 2.19198 28.8404 -83.1973
    endloop
  endfacet
  facet normal -0.57735 0.794654 -0.187592
    outer loop
      vertex -64.1431 55.4821 -18.5366
      vertex -48.4835 71.9476 3.017
      vertex -38.8054 71.9476 -26.7693
    endloop
  endfacet
  facet normal -0.934172 0.187592 -0.303531
    outer loop
      vertex -89.4809 2.19873 -10.3038
      vertex -79.8027 28.8404 -23.6247
      vertex -79.8027 2.19873 -40.0902
    endloop
  endfacet
  facet normal -0.850651 0.447214 0.276393
    outer loop
      vertex -92.1559 16.9259 17.207
      vertex -66.8181 60.0331 25.4397
      vertex -82.4777 43.5676 3.88615
    endloop
  endfacet
  facet normal -0.850651 0.447214 0.276393
    outer loop
      vertex -66.8181 60.0331 25.4397
      vertex -92.1559 16.9259 17.207
      vertex -66.8181 43.5676 52.0814
    endloop
  endfacet
  facet normal -0.850651 0.447214 0.276393
    outer loop
      vertex -66.8181 43.5676 52.0814
      vertex -92.1559 16.9259 17.207
      vertex -82.4777 16.9259 46.9933
    endloop
  endfacet
  facet normal -0.638197 0.760845 -0.117557
    outer loop
      vertex -48.4835 71.9476 3.017
      vertex -82.4777 43.5676 3.88615
      vertex -66.8181 60.0331 25.4397
    endloop
  endfacet
  facet normal -0.638197 0.760845 -0.117557
    outer loop
      vertex -82.4777 43.5676 3.88615
      vertex -48.4835 71.9476 3.017
      vertex -64.1431 55.4821 -18.5366
    endloop
  endfacet
  facet normal -0.774597 0.523168 -0.35538
    outer loop
      vertex -82.4777 43.5676 3.88615
      vertex -64.1431 55.4821 -18.5366
      vertex -79.8027 28.8404 -23.6247
    endloop
  endfacet
  facet normal -0.947214 0.235114 -0.217963
    outer loop
      vertex -79.8027 28.8404 -23.6247
      vertex -92.1559 16.9259 17.207
      vertex -82.4777 43.5676 3.88615
    endloop
  endfacet
  facet normal -0.947214 0.235114 -0.217963
    outer loop
      vertex -92.1559 16.9259 17.207
      vertex -79.8027 28.8404 -23.6247
      vertex -89.4809 2.19873 -10.3038
    endloop
  endfacet
  facet normal -0.995125 -0.083894 -0.0518493
    outer loop
      vertex -92.1559 16.9259 17.207
      vertex -89.4809 2.19873 -10.3038
      vertex -89.4809 -14.2667 16.3379
    endloop
  endfacet
  facet normal -0.947214 -0.0898057 0.307768
    outer loop
      vertex -79.8027 -14.2667 46.1242
      vertex -92.1559 16.9259 17.207
      vertex -89.4809 -14.2667 16.3379
    endloop
  endfacet
  facet normal -0.947214 -0.0898056 0.307768
    outer loop
      vertex -92.1559 16.9259 17.207
      vertex -79.8027 -14.2667 46.1242
      vertex -82.4777 16.9259 46.9933
    endloop
  endfacet
  facet normal -0.774597 -0.0838939 0.626867
    outer loop
      vertex -82.4777 16.9259 46.9933
      vertex -79.8027 -14.2667 46.1242
      vertex -64.1431 2.19873 67.6778
    endloop
  endfacet
  facet normal -0.638197 0.235114 0.733094
    outer loop
      vertex -82.4777 16.9259 46.9933
      vertex -48.4835 28.8404 72.7659
      vertex -66.8181 43.5676 52.0814
    endloop
  endfacet
  facet normal -0.638197 0.235114 0.733094
    outer loop
      vertex -48.4835 28.8404 72.7659
      vertex -82.4777 16.9259 46.9933
      vertex -64.1431 2.19873 67.6778
    endloop
  endfacet
  facet normal -0.417775 0.523168 0.742805
    outer loop
      vertex -38.8054 55.4821 59.445
      vertex -66.8181 43.5676 52.0814
      vertex -48.4835 28.8404 72.7659
    endloop
  endfacet
  facet normal -0.447214 0.760845 0.470228
    outer loop
      vertex -38.8054 71.9476 32.8033
      vertex -66.8181 43.5676 52.0814
      vertex -38.8054 55.4821 59.445
    endloop
  endfacet
  facet normal -0.447214 0.760845 0.470228
    outer loop
      vertex -66.8181 43.5676 52.0814
      vertex -38.8054 71.9476 32.8033
      vertex -66.8181 60.0331 25.4397
    endloop
  endfacet
  facet normal -0.417775 0.898353 0.135743
    outer loop
      vertex -66.8181 60.0331 25.4397
      vertex -38.8054 71.9476 32.8033
      vertex -48.4835 71.9476 3.017
    endloop
  endfacet
  facet normal 0.525731 0.447214 -0.723607
    outer loop
      vertex 44.8426 16.9259 -82.3282
      vertex 70.1803 43.5676 -47.4538
      vertex 70.1803 16.9259 -63.9192
    endloop
  endfacet
  facet normal 0.525731 0.447214 -0.723607
    outer loop
      vertex 29.183 43.5676 -77.2401
      vertex 70.1803 43.5676 -47.4538
      vertex 44.8426 16.9259 -82.3282
    endloop
  endfacet
  facet normal 0.525731 0.447214 -0.723607
    outer loop
      vertex 70.1803 43.5676 -47.4538
      vertex 29.183 43.5676 -77.2401
      vertex 44.8426 60.0331 -55.6865
    endloop
  endfacet
  facet normal 0.58541 0.760845 -0.280017
    outer loop
      vertex 70.1803 43.5676 -47.4538
      vertex 43.1893 71.9476 -26.7693
      vertex 68.5271 55.4821 -18.5366
    endloop
  endfacet
  facet normal 0.58541 0.760845 -0.280017
    outer loop
      vertex 43.1893 71.9476 -26.7693
      vertex 70.1803 43.5676 -47.4538
      vertex 44.8426 60.0331 -55.6865
    endloop
  endfacet
  facet normal 0.835549 0.523168 -0.167788
    outer loop
      vertex 70.1803 43.5676 -47.4538
      vertex 68.5271 55.4821 -18.5366
      vertex 84.1867 28.8404 -23.6247
    endloop
  endfacet
  facet normal 0.894427 0.235114 -0.380423
    outer loop
      vertex 84.1867 28.8404 -23.6247
      vertex 70.1803 16.9259 -63.9192
      vertex 70.1803 43.5676 -47.4538
    endloop
  endfacet
  facet normal 0.894427 0.235114 -0.380423
    outer loop
      vertex 70.1803 16.9259 -63.9192
      vertex 84.1867 28.8404 -23.6247
      vertex 84.1867 2.19873 -40.0902
    endloop
  endfacet
  facet normal 0.835549 -0.083894 -0.542973
    outer loop
      vertex 70.1803 16.9259 -63.9192
      vertex 84.1867 2.19873 -40.0902
      vertex 68.5271 -14.2667 -61.6438
    endloop
  endfacet
  facet normal 0.58541 -0.0898057 -0.805748
    outer loop
      vertex 68.5271 -14.2667 -61.6438
      vertex 44.8426 16.9259 -82.3282
      vertex 70.1803 16.9259 -63.9192
    endloop
  endfacet
  facet normal 0.58541 -0.0898056 -0.805748
    outer loop
      vertex 44.8426 16.9259 -82.3282
      vertex 68.5271 -14.2667 -61.6438
      vertex 43.1893 -14.2667 -80.0527
    endloop
  endfacet
  facet normal 0.258199 -0.0838939 -0.962442
    outer loop
      vertex 44.8426 16.9259 -82.3282
      vertex 43.1893 -14.2667 -80.0527
      vertex 17.8516 2.19873 -88.2855
    endloop
  endfacet
  facet normal 0.0854101 0.235114 -0.968208
    outer loop
      vertex 17.8516 2.19873 -88.2855
      vertex 29.183 43.5676 -77.2401
      vertex 44.8426 16.9259 -82.3282
    endloop
  endfacet
  facet normal 0.0854101 0.235114 -0.968208
    outer loop
      vertex 29.183 43.5676 -77.2401
      vertex 17.8516 2.19873 -88.2855
      vertex 2.19198 28.8404 -83.1973
    endloop
  endfacet
  facet normal -0.0986232 0.523168 -0.846504
    outer loop
      vertex 2.19198 55.4821 -66.7319
      vertex 29.183 43.5676 -77.2401
      vertex 2.19198 28.8404 -83.1973
    endloop
  endfacet
  facet normal 0.0854103 0.760845 -0.643288
    outer loop
      vertex 29.183 43.5676 -77.2401
      vertex 17.8516 71.9476 -45.1783
      vertex 44.8426 60.0331 -55.6865
    endloop
  endfacet
  facet normal 0.0854103 0.760845 -0.643288
    outer loop
      vertex 17.8516 71.9476 -45.1783
      vertex 29.183 43.5676 -77.2401
      vertex 2.19198 55.4821 -66.7319
    endloop
  endfacet
  facet normal 0.258199 0.898353 -0.35538
    outer loop
      vertex 44.8426 60.0331 -55.6865
      vertex 17.8516 71.9476 -45.1783
      vertex 43.1893 71.9476 -26.7693
    endloop
  endfacet
endsolid OpenSCAD_Model
