solid OpenSCAD_Model
  facet normal 0 -1 0
    outer loop
      vertex -78.0086 -57.2033 25.3465
      vertex 78.0086 -57.2033 25.3465
      vertex -0 -57.2033 82.0231
    endloop
  endfacet
  facet normal 0 -1 0
    outer loop
      vertex -48.2119 -57.2033 -66.358
      vertex 78.0086 -57.2033 25.3465
      vertex -78.0086 -57.2033 25.3465
    endloop
  endfacet
  facet normal 0 -1 0
    outer loop
      vertex 78.0086 -57.2033 25.3465
      vertex -48.2119 -57.2033 -66.358
      vertex 48.2119 -57.2033 -66.358
    endloop
  endfacet
  facet normal 0.587785 0 0.809017
    outer loop
      vertex 0 39.2206 82.0231
      vertex 78.0086 -57.2033 25.3465
      vertex 78.0086 39.2206 25.3465
    endloop
  endfacet
  facet normal 0.587785 0 0.809017
    outer loop
      vertex 78.0086 -57.2033 25.3465
      vertex 0 39.2206 82.0231
      vertex -0 -57.2033 82.0231
    endloop
  endfacet
  facet normal 0.356822 0.794654 0.491123
    outer loop
      vertex 0 89.9136 0
      vertex 0 39.2206 82.0231
      vertex 78.0086 39.2206 25.3465
    endloop
  endfacet
  facet normal 0.951057 0 -0.309017
    outer loop
      vertex 78.0086 -57.2033 25.3465
      vertex 48.2119 39.2206 -66.358
      vertex 78.0086 39.2206 25.3465
    endloop
  endfacet
  facet normal 0.951057 0 -0.309017
    outer loop
      vertex 48.2119 39.2206 -66.358
      vertex 78.0086 -57.2033 25.3465
      vertex 48.2119 -57.2033 -66.358
    endloop
  endfacet
  facet normal 0.57735 0.794654 -0.187592
    outer loop
      vertex 0 89.9136 0
      vertex 78.0086 39.2206 25.3465
      vertex 48.2119 39.2206 -66.358
    endloop
  endfacet
  facet normal 0 0 -1
    outer loop
      vertex -48.2119 -57.2033 -66.358
      vertex 48.2119 39.2206 -66.358
      vertex 48.2119 -57.2033 -66.358
    endloop
  endfacet
  facet normal -0 0 -1
    outer loop
      vertex 48.2119 39.2206 -66.358
      vertex -48.2119 -57.2033 -66.358
      vertex -48.2119 39.2206 -66.358
    endloop
  endfacet
  facet normal 0 0.794654 -0.607062
    outer loop
      vertex 0 89.9136 0
      vertex 48.2119 39.2206 -66.358
      vertex -48.2119 39.2206 -66.358
    endloop
  endfacet
  facet normal -0.951057 0 -0.309017
    outer loop
      vertex -48.2119 -57.2033 -66.358
      vertex -78.0086 39.2206 25.3465
      vertex -48.2119 39.2206 -66.358
    endloop
  endfacet
  facet normal -0.951057 -0 -0.309017
    outer loop
      vertex -78.0086 39.2206 25.3465
      vertex -48.2119 -57.2033 -66.358
      vertex -78.0086 -57.2033 25.3465
    endloop
  endfacet
  facet normal -0.57735 0.794654 -0.187592
    outer loop
      vertex 0 89.9136 0
      vertex -48.2119 39.2206 -66.358
      vertex -78.0086 39.2206 25.3465
    endloop
  endfacet
  facet normal -0.587785 0 0.809017
    outer loop
      vertex -78.0086 39.2206 25.3465
      vertex -0 -57.2033 82.0231
      vertex 0 39.2206 82.0231
    endloop
  endfacet
  facet normal -0.587785 0 0.809017
    outer loop
      vertex -0 -57.2033 82.0231
      vertex -78.0086 39.2206 25.3465
      vertex -78.0086 -57.2033 25.3465
    endloop
  endfacet
  facet normal -0.356822 0.794654 0.491123
    outer loop
      vertex 0 89.9136 0
      vertex -78.0086 39.2206 25.3465
      vertex 0 39.2206 82.0231
    endloop
  endfacet
endsolid OpenSCAD_Model
