solid OpenSCAD_Model
  facet normal 0 -1 0
    outer loop
      vertex -49.353 -67.9285 -16.0357
      vertex 30.5018 -67.9285 41.9821
      vertex -30.5018 -67.9285 41.9821
    endloop
  endfacet
  facet normal 0 -1 0
    outer loop
      vertex -49.353 -67.9285 -16.0357
      vertex 49.353 -67.9285 -16.0357
      vertex 30.5018 -67.9285 41.9821
    endloop
  endfacet
  facet normal -0 -1 0
    outer loop
      vertex 49.353 -67.9285 -16.0357
      vertex -49.353 -67.9285 -16.0357
      vertex -0 -67.9285 -51.8928
    endloop
  endfacet
  facet normal -0.525731 -0.447214 -0.723607
    outer loop
      vertex -49.353 -67.9285 -16.0357
      vertex -0 -16.0357 -83.9643
      vertex -0 -67.9285 -51.8928
    endloop
  endfacet
  facet normal -0.525731 -0.447214 -0.723607
    outer loop
      vertex -79.8548 -16.0357 -25.9464
      vertex -0 -16.0357 -83.9643
      vertex -49.353 -67.9285 -16.0357
    endloop
  endfacet
  facet normal -0.525731 -0.447214 -0.723607
    outer loop
      vertex -0 -16.0357 -83.9643
      vertex -79.8548 -16.0357 -25.9464
      vertex -49.353 16.0357 -67.9285
    endloop
  endfacet
  facet normal 0.525731 -0.447214 -0.723607
    outer loop
      vertex -0 -16.0357 -83.9643
      vertex 79.8548 -16.0357 -25.9464
      vertex 49.353 -67.9285 -16.0357
    endloop
  endfacet
  facet normal 0.525731 -0.447214 -0.723607
    outer loop
      vertex -0 -16.0357 -83.9643
      vertex 49.353 -67.9285 -16.0357
      vertex -0 -67.9285 -51.8928
    endloop
  endfacet
  facet normal 0.525731 -0.447214 -0.723607
    outer loop
      vertex 79.8548 -16.0357 -25.9464
      vertex -0 -16.0357 -83.9643
      vertex 49.353 16.0357 -67.9285
    endloop
  endfacet
  facet normal 0.850651 -0.447214 0.276393
    outer loop
      vertex 30.5018 -67.9285 41.9821
      vertex 79.8548 16.0357 25.9464
      vertex 49.353 -16.0357 67.9285
    endloop
  endfacet
  facet normal 0.850651 -0.447214 0.276393
    outer loop
      vertex 79.8548 16.0357 25.9464
      vertex 30.5018 -67.9285 41.9821
      vertex 79.8548 -16.0357 -25.9464
    endloop
  endfacet
  facet normal 0.850651 -0.447214 0.276393
    outer loop
      vertex 79.8548 -16.0357 -25.9464
      vertex 30.5018 -67.9285 41.9821
      vertex 49.353 -67.9285 -16.0357
    endloop
  endfacet
  facet normal 1.09821e-07 -0.447214 0.894427
    outer loop
      vertex 0 16.0357 83.9643
      vertex 30.5018 -67.9285 41.9821
      vertex 49.353 -16.0357 67.9285
    endloop
  endfacet
  facet normal 0 -0.447214 0.894427
    outer loop
      vertex 0 16.0357 83.9643
      vertex -30.5018 -67.9285 41.9821
      vertex 30.5018 -67.9285 41.9821
    endloop
  endfacet
  facet normal -1.09821e-07 -0.447214 0.894427
    outer loop
      vertex -30.5018 -67.9285 41.9821
      vertex 0 16.0357 83.9643
      vertex -49.353 -16.0357 67.9285
    endloop
  endfacet
  facet normal 0.525731 0.447214 0.723607
    outer loop
      vertex 0 16.0357 83.9643
      vertex 79.8548 16.0357 25.9464
      vertex 49.353 67.9285 16.0357
    endloop
  endfacet
  facet normal 0.525731 0.447214 0.723607
    outer loop
      vertex 0 16.0357 83.9643
      vertex 49.353 67.9285 16.0357
      vertex 0 67.9285 51.8928
    endloop
  endfacet
  facet normal 0.525731 0.447214 0.723607
    outer loop
      vertex 79.8548 16.0357 25.9464
      vertex 0 16.0357 83.9643
      vertex 49.353 -16.0357 67.9285
    endloop
  endfacet
  facet normal 1.09821e-07 0.447214 -0.894427
    outer loop
      vertex -0 -16.0357 -83.9643
      vertex 30.5018 67.9285 -41.9821
      vertex 49.353 16.0357 -67.9285
    endloop
  endfacet
  facet normal 0 0.447214 -0.894427
    outer loop
      vertex -0 -16.0357 -83.9643
      vertex -30.5018 67.9285 -41.9821
      vertex 30.5018 67.9285 -41.9821
    endloop
  endfacet
  facet normal -1.09821e-07 0.447214 -0.894427
    outer loop
      vertex -30.5018 67.9285 -41.9821
      vertex -0 -16.0357 -83.9643
      vertex -49.353 16.0357 -67.9285
    endloop
  endfacet
  facet normal -0.850651 0.447214 -0.276393
    outer loop
      vertex -79.8548 -16.0357 -25.9464
      vertex -30.5018 67.9285 -41.9821
      vertex -49.353 16.0357 -67.9285
    endloop
  endfacet
  facet normal -0.850651 0.447214 -0.276393
    outer loop
      vertex -30.5018 67.9285 -41.9821
      vertex -79.8548 16.0357 25.9464
      vertex -49.353 67.9285 16.0357
    endloop
  endfacet
  facet normal -0.850651 0.447214 -0.276393
    outer loop
      vertex -30.5018 67.9285 -41.9821
      vertex -79.8548 -16.0357 -25.9464
      vertex -79.8548 16.0357 25.9464
    endloop
  endfacet
  facet normal -0.525731 0.447214 0.723607
    outer loop
      vertex -49.353 67.9285 16.0357
      vertex 0 16.0357 83.9643
      vertex 0 67.9285 51.8928
    endloop
  endfacet
  facet normal -0.525731 0.447214 0.723607
    outer loop
      vertex -79.8548 16.0357 25.9464
      vertex 0 16.0357 83.9643
      vertex -49.353 67.9285 16.0357
    endloop
  endfacet
  facet normal -0.525731 0.447214 0.723607
    outer loop
      vertex 0 16.0357 83.9643
      vertex -79.8548 16.0357 25.9464
      vertex -49.353 -16.0357 67.9285
    endloop
  endfacet
  facet normal 0 1 0
    outer loop
      vertex 49.353 67.9285 16.0357
      vertex -49.353 67.9285 16.0357
      vertex 0 67.9285 51.8928
    endloop
  endfacet
  facet normal 0 1 -0
    outer loop
      vertex 30.5018 67.9285 -41.9821
      vertex -49.353 67.9285 16.0357
      vertex 49.353 67.9285 16.0357
    endloop
  endfacet
  facet normal 0 1 0
    outer loop
      vertex -49.353 67.9285 16.0357
      vertex 30.5018 67.9285 -41.9821
      vertex -30.5018 67.9285 -41.9821
    endloop
  endfacet
  facet normal 0.417775 0.898353 -0.135743
    outer loop
      vertex 85.0651 44.7214 -27.6393
      vertex 30.5018 67.9285 -41.9821
      vertex 49.353 67.9285 16.0357
    endloop
  endfacet
  facet normal 0.774597 0.523168 0.35538
    outer loop
      vertex 85.0651 44.7214 -27.6393
      vertex 49.353 67.9285 16.0357
      vertex 79.8548 16.0357 25.9464
    endloop
  endfacet
  facet normal 0.417775 0.523168 -0.742805
    outer loop
      vertex 85.0651 44.7214 -27.6393
      vertex 49.353 16.0357 -67.9285
      vertex 30.5018 67.9285 -41.9821
    endloop
  endfacet
  facet normal 0.774597 -0.0838939 -0.626867
    outer loop
      vertex 85.0651 44.7214 -27.6393
      vertex 79.8548 -16.0357 -25.9464
      vertex 49.353 16.0357 -67.9285
    endloop
  endfacet
  facet normal 0.995125 -0.0838939 0.0518493
    outer loop
      vertex 79.8548 -16.0357 -25.9464
      vertex 85.0651 44.7214 -27.6393
      vertex 79.8548 16.0357 25.9464
    endloop
  endfacet
  facet normal -0.417775 -0.898353 0.135743
    outer loop
      vertex -85.0651 -44.7214 27.6393
      vertex -49.353 -67.9285 -16.0357
      vertex -30.5018 -67.9285 41.9821
    endloop
  endfacet
  facet normal -0.417775 -0.523168 0.742805
    outer loop
      vertex -85.0651 -44.7214 27.6393
      vertex -30.5018 -67.9285 41.9821
      vertex -49.353 -16.0357 67.9285
    endloop
  endfacet
  facet normal -0.774597 -0.523168 -0.35538
    outer loop
      vertex -85.0651 -44.7214 27.6393
      vertex -79.8548 -16.0357 -25.9464
      vertex -49.353 -67.9285 -16.0357
    endloop
  endfacet
  facet normal -0.995125 0.0838939 -0.0518493
    outer loop
      vertex -85.0651 -44.7214 27.6393
      vertex -79.8548 16.0357 25.9464
      vertex -79.8548 -16.0357 -25.9464
    endloop
  endfacet
  facet normal -0.774597 0.0838939 0.626867
    outer loop
      vertex -79.8548 16.0357 25.9464
      vertex -85.0651 -44.7214 27.6393
      vertex -49.353 -16.0357 67.9285
    endloop
  endfacet
endsolid OpenSCAD_Model
