solid OpenSCAD_Model
  facet normal 0 -1 0
    outer loop
      vertex -46.599 -59.099 -46.599
      vertex 46.599 -59.099 46.599
      vertex -46.599 -59.099 46.599
    endloop
  endfacet
  facet normal 0 -1 -0
    outer loop
      vertex 46.599 -59.099 46.599
      vertex -46.599 -59.099 -46.599
      vertex 46.599 -59.099 -46.599
    endloop
  endfacet
  facet normal -0 0 1
    outer loop
      vertex -46.599 34.099 46.599
      vertex 46.599 -59.099 46.599
      vertex 46.599 34.099 46.599
    endloop
  endfacet
  facet normal 0 0 1
    outer loop
      vertex 46.599 -59.099 46.599
      vertex -46.599 34.099 46.599
      vertex -46.599 -59.099 46.599
    endloop
  endfacet
  facet normal 0 0.57735 0.816497
    outer loop
      vertex 0 100 0
      vertex -46.599 34.099 46.599
      vertex 46.599 34.099 46.599
    endloop
  endfacet
  facet normal 1 -0 0
    outer loop
      vertex 46.599 -59.099 46.599
      vertex 46.599 34.099 -46.599
      vertex 46.599 34.099 46.599
    endloop
  endfacet
  facet normal 1 0 0
    outer loop
      vertex 46.599 34.099 -46.599
      vertex 46.599 -59.099 46.599
      vertex 46.599 -59.099 -46.599
    endloop
  endfacet
  facet normal 0.816497 0.57735 0
    outer loop
      vertex 0 100 0
      vertex 46.599 34.099 46.599
      vertex 46.599 34.099 -46.599
    endloop
  endfacet
  facet normal 0 0 -1
    outer loop
      vertex -46.599 -59.099 -46.599
      vertex 46.599 34.099 -46.599
      vertex 46.599 -59.099 -46.599
    endloop
  endfacet
  facet normal -0 0 -1
    outer loop
      vertex 46.599 34.099 -46.599
      vertex -46.599 -59.099 -46.599
      vertex -46.599 34.099 -46.599
    endloop
  endfacet
  facet normal 0 0.57735 -0.816497
    outer loop
      vertex 0 100 0
      vertex 46.599 34.099 -46.599
      vertex -46.599 34.099 -46.599
    endloop
  endfacet
  facet normal -1 0 0
    outer loop
      vertex -46.599 -59.099 -46.599
      vertex -46.599 34.099 46.599
      vertex -46.599 34.099 -46.599
    endloop
  endfacet
  facet normal -1 -0 0
    outer loop
      vertex -46.599 34.099 46.599
      vertex -46.599 -59.099 -46.599
      vertex -46.599 -59.099 46.599
    endloop
  endfacet
  facet normal -0.816497 0.57735 0
    outer loop
      vertex 0 100 0
      vertex -46.599 34.099 -46.599
      vertex -46.599 34.099 46.599
    endloop
  endfacet
endsolid OpenSCAD_Model
