solid OpenSCAD_Model
  facet normal 1 0 0
    outer loop
      vertex 91.5804 -20.0813 34.7818
      vertex 91.5804 -20.0813 -34.7818
      vertex 91.5804 40.1626 0
    endloop
  endfacet
  facet normal 0.57735 -0.816497 0
    outer loop
      vertex 34.7818 -60.2439 -34.7818
      vertex 91.5804 -20.0813 34.7818
      vertex 34.7818 -60.2439 34.7818
    endloop
  endfacet
  facet normal 0.57735 -0.816497 0
    outer loop
      vertex 91.5804 -20.0813 34.7818
      vertex 34.7818 -60.2439 -34.7818
      vertex 91.5804 -20.0813 -34.7818
    endloop
  endfacet
  facet normal 0.333333 -0.471405 -0.816497
    outer loop
      vertex 91.5804 -20.0813 -34.7818
      vertex 34.7818 -60.2439 -34.7818
      vertex 34.7818 0 -69.5637
    endloop
  endfacet
  facet normal 0.57735 0.408248 -0.707107
    outer loop
      vertex 34.7818 0 -69.5637
      vertex 91.5804 40.1626 0
      vertex 91.5804 -20.0813 -34.7818
    endloop
  endfacet
  facet normal 0.57735 0.408248 -0.707107
    outer loop
      vertex 91.5804 40.1626 0
      vertex 34.7818 0 -69.5637
      vertex 34.7818 60.2439 -34.7818
    endloop
  endfacet
  facet normal 0.333333 0.942809 0
    outer loop
      vertex 91.5804 40.1626 0
      vertex 34.7818 60.2439 -34.7818
      vertex 34.7818 60.2439 34.7818
    endloop
  endfacet
  facet normal 0.57735 0.408248 0.707107
    outer loop
      vertex 34.7818 0 69.5637
      vertex 91.5804 40.1626 0
      vertex 34.7818 60.2439 34.7818
    endloop
  endfacet
  facet normal 0.57735 0.408248 0.707107
    outer loop
      vertex 91.5804 40.1626 0
      vertex 34.7818 0 69.5637
      vertex 91.5804 -20.0813 34.7818
    endloop
  endfacet
  facet normal 0.333333 -0.471405 0.816497
    outer loop
      vertex 91.5804 -20.0813 34.7818
      vertex 34.7818 0 69.5637
      vertex 34.7818 -60.2439 34.7818
    endloop
  endfacet
  facet normal -1 0 0
    outer loop
      vertex -91.5804 -20.0813 -34.7818
      vertex -91.5804 -20.0813 34.7818
      vertex -91.5804 40.1626 0
    endloop
  endfacet
  facet normal -0.57735 -0.816497 0
    outer loop
      vertex -91.5804 -20.0813 -34.7818
      vertex -34.7818 -60.2439 34.7818
      vertex -91.5804 -20.0813 34.7818
    endloop
  endfacet
  facet normal -0.57735 -0.816497 -0
    outer loop
      vertex -34.7818 -60.2439 34.7818
      vertex -91.5804 -20.0813 -34.7818
      vertex -34.7818 -60.2439 -34.7818
    endloop
  endfacet
  facet normal -0.333333 -0.471405 0.816497
    outer loop
      vertex -91.5804 -20.0813 34.7818
      vertex -34.7818 -60.2439 34.7818
      vertex -34.7818 -0 69.5637
    endloop
  endfacet
  facet normal -0.57735 0.408248 0.707107
    outer loop
      vertex -91.5804 40.1626 0
      vertex -34.7818 -0 69.5637
      vertex -34.7818 60.2439 34.7818
    endloop
  endfacet
  facet normal -0.57735 0.408248 0.707107
    outer loop
      vertex -34.7818 -0 69.5637
      vertex -91.5804 40.1626 0
      vertex -91.5804 -20.0813 34.7818
    endloop
  endfacet
  facet normal -0.333333 0.942809 0
    outer loop
      vertex -91.5804 40.1626 0
      vertex -34.7818 60.2439 34.7818
      vertex -34.7818 60.2439 -34.7818
    endloop
  endfacet
  facet normal -0.57735 0.408248 -0.707107
    outer loop
      vertex -91.5804 40.1626 0
      vertex -34.7818 -0 -69.5637
      vertex -91.5804 -20.0813 -34.7818
    endloop
  endfacet
  facet normal -0.57735 0.408248 -0.707107
    outer loop
      vertex -34.7818 -0 -69.5637
      vertex -91.5804 40.1626 0
      vertex -34.7818 60.2439 -34.7818
    endloop
  endfacet
  facet normal -0.333333 -0.471405 -0.816497
    outer loop
      vertex -91.5804 -20.0813 -34.7818
      vertex -34.7818 -0 -69.5637
      vertex -34.7818 -60.2439 -34.7818
    endloop
  endfacet
  facet normal -0 0.5 0.866025
    outer loop
      vertex -34.7818 60.2439 34.7818
      vertex 34.7818 0 69.5637
      vertex 34.7818 60.2439 34.7818
    endloop
  endfacet
  facet normal 0 0.5 0.866025
    outer loop
      vertex 34.7818 0 69.5637
      vertex -34.7818 60.2439 34.7818
      vertex -34.7818 -0 69.5637
    endloop
  endfacet
  facet normal 0 -0.5 0.866025
    outer loop
      vertex -34.7818 -0 69.5637
      vertex 34.7818 -60.2439 34.7818
      vertex 34.7818 0 69.5637
    endloop
  endfacet
  facet normal 0 -0.5 0.866025
    outer loop
      vertex 34.7818 -60.2439 34.7818
      vertex -34.7818 -0 69.5637
      vertex -34.7818 -60.2439 34.7818
    endloop
  endfacet
  facet normal 0 -1 0
    outer loop
      vertex -34.7818 -60.2439 -34.7818
      vertex 34.7818 -60.2439 34.7818
      vertex -34.7818 -60.2439 34.7818
    endloop
  endfacet
  facet normal 0 -1 -0
    outer loop
      vertex 34.7818 -60.2439 34.7818
      vertex -34.7818 -60.2439 -34.7818
      vertex 34.7818 -60.2439 -34.7818
    endloop
  endfacet
  facet normal 0 -0.5 -0.866025
    outer loop
      vertex -34.7818 -60.2439 -34.7818
      vertex 34.7818 0 -69.5637
      vertex 34.7818 -60.2439 -34.7818
    endloop
  endfacet
  facet normal 0 -0.5 -0.866025
    outer loop
      vertex 34.7818 0 -69.5637
      vertex -34.7818 -60.2439 -34.7818
      vertex -34.7818 -0 -69.5637
    endloop
  endfacet
  facet normal 0 0.5 -0.866025
    outer loop
      vertex -34.7818 -0 -69.5637
      vertex 34.7818 60.2439 -34.7818
      vertex 34.7818 0 -69.5637
    endloop
  endfacet
  facet normal 0 0.5 -0.866025
    outer loop
      vertex 34.7818 60.2439 -34.7818
      vertex -34.7818 -0 -69.5637
      vertex -34.7818 60.2439 -34.7818
    endloop
  endfacet
  facet normal 0 1 -0
    outer loop
      vertex 34.7818 60.2439 -34.7818
      vertex -34.7818 60.2439 34.7818
      vertex 34.7818 60.2439 34.7818
    endloop
  endfacet
  facet normal 0 1 0
    outer loop
      vertex -34.7818 60.2439 34.7818
      vertex 34.7818 60.2439 -34.7818
      vertex -34.7818 60.2439 -34.7818
    endloop
  endfacet
endsolid OpenSCAD_Model
