solid OpenSCAD_Model
  facet normal 0 -1 0
    outer loop
      vertex -35.6823 -57.7351 -35.6822
      vertex 35.6823 -57.7351 35.6822
      vertex -35.6822 -57.7351 35.6823
    endloop
  endfacet
  facet normal 0 -1 0
    outer loop
      vertex 35.6823 -57.7351 35.6822
      vertex -35.6823 -57.7351 -35.6822
      vertex 35.6822 -57.7351 -35.6823
    endloop
  endfacet
  facet normal 0.356824 -0.934172 -3.81472e-07
    outer loop
      vertex 35.6823 -57.7351 35.6822
      vertex 35.6822 -57.7351 -35.6823
      vertex 93.4172 -35.6821 -0.000119271
    endloop
  endfacet
  facet normal 9.987e-07 -0.356822 0.934172
    outer loop
      vertex -35.6822 -57.7351 35.6823
      vertex 35.6823 -57.7351 35.6822
      vertex -0 -6.63896e-05 57.735
    endloop
  endfacet
  facet normal -0.356824 -0.934172 4.00545e-07
    outer loop
      vertex -35.6823 -57.7351 -35.6822
      vertex -35.6822 -57.7351 35.6823
      vertex -93.4173 -35.6821 8.5109e-05
    endloop
  endfacet
  facet normal -9.987e-07 -0.356822 -0.934172
    outer loop
      vertex 35.6822 -57.7351 -35.6823
      vertex -35.6823 -57.7351 -35.6822
      vertex -3.61836e-05 -6.63846e-05 -57.735
    endloop
  endfacet
  facet normal 0.52573 3.81798e-07 -0.850651
    outer loop
      vertex -3.61836e-05 -6.63846e-05 -57.735
      vertex 93.4172 -35.6821 -0.000119271
      vertex 35.6822 -57.7351 -35.6823
    endloop
  endfacet
  facet normal 0.525731 1.1382e-06 -0.850651
    outer loop
      vertex 93.4172 -35.6821 -0.000119271
      vertex -3.61836e-05 -6.63846e-05 -57.735
      vertex 93.417 35.6824 -0.000151094
    endloop
  endfacet
  facet normal 0.52573 2.00482e-06 -0.850651
    outer loop
      vertex 93.417 35.6824 -0.000151094
      vertex -3.61836e-05 -6.63846e-05 -57.735
      vertex 35.6822 57.7349 -35.6821
    endloop
  endfacet
  facet normal 0.525732 1.89685e-06 0.85065
    outer loop
      vertex -0 -6.63896e-05 57.735
      vertex 93.4172 -35.6821 -0.000119271
      vertex 93.417 35.6824 -0.000151094
    endloop
  endfacet
  facet normal 0.525733 9.33144e-07 0.85065
    outer loop
      vertex -0 -6.63896e-05 57.735
      vertex 93.417 35.6824 -0.000151094
      vertex 35.682 57.735 35.6821
    endloop
  endfacet
  facet normal 0.525732 1.05757e-06 0.85065
    outer loop
      vertex 93.4172 -35.6821 -0.000119271
      vertex -0 -6.63896e-05 57.735
      vertex 35.6823 -57.7351 35.6822
    endloop
  endfacet
  facet normal -0.525731 1.2221e-06 0.850651
    outer loop
      vertex -93.4171 35.6824 0.000116931
      vertex -0 -6.63896e-05 57.735
      vertex -35.6821 57.735 35.6822
    endloop
  endfacet
  facet normal -0.525731 1.19441e-06 0.850651
    outer loop
      vertex -93.4173 -35.6821 8.5109e-05
      vertex -0 -6.63896e-05 57.735
      vertex -93.4171 35.6824 0.000116931
    endloop
  endfacet
  facet normal -0.52573 3.49537e-07 0.850651
    outer loop
      vertex -0 -6.63896e-05 57.735
      vertex -93.4173 -35.6821 8.5109e-05
      vertex -35.6822 -57.7351 35.6823
    endloop
  endfacet
  facet normal -0.525732 1.07329e-06 -0.85065
    outer loop
      vertex -93.4173 -35.6821 8.5109e-05
      vertex -3.61836e-05 -6.63846e-05 -57.735
      vertex -35.6823 -57.7351 -35.6822
    endloop
  endfacet
  facet normal -0.525732 4.78302e-06 -0.850651
    outer loop
      vertex -3.61836e-05 -6.63846e-05 -57.735
      vertex -93.4171 35.6824 0.000116931
      vertex -35.682 57.7351 -35.6821
    endloop
  endfacet
  facet normal -0.525732 1.95304e-06 -0.85065
    outer loop
      vertex -3.61836e-05 -6.63846e-05 -57.735
      vertex -93.4173 -35.6821 8.5109e-05
      vertex -93.4171 35.6824 0.000116931
    endloop
  endfacet
  facet normal 0.356819 0.934173 -7.30617e-07
    outer loop
      vertex 35.682 57.735 35.6821
      vertex 93.417 35.6824 -0.000151094
      vertex 35.6822 57.7349 -35.6821
    endloop
  endfacet
  facet normal 6.69951e-07 0.356822 0.934172
    outer loop
      vertex -0 -6.63896e-05 57.735
      vertex 35.682 57.735 35.6821
      vertex -35.6821 57.735 35.6822
    endloop
  endfacet
  facet normal -0.35682 0.934173 8.80422e-07
    outer loop
      vertex -35.682 57.7351 -35.6821
      vertex -93.4171 35.6824 0.000116931
      vertex -35.6821 57.735 35.6822
    endloop
  endfacet
  facet normal -5.23069e-08 0.356824 -0.934172
    outer loop
      vertex -3.61836e-05 -6.63846e-05 -57.735
      vertex -35.682 57.7351 -35.6821
      vertex 35.6822 57.7349 -35.6821
    endloop
  endfacet
  facet normal -6.41446e-07 1 1.65707e-06
    outer loop
      vertex 35.682 57.735 35.6821
      vertex -35.682 57.7351 -35.6821
      vertex -35.6821 57.735 35.6822
    endloop
  endfacet
  facet normal 2.51234e-06 1 -1.4967e-06
    outer loop
      vertex -35.682 57.7351 -35.6821
      vertex 35.682 57.735 35.6821
      vertex 35.6822 57.7349 -35.6821
    endloop
  endfacet
endsolid OpenSCAD_Model
