solid OpenSCAD_Model
  facet normal 0 -1 0
    outer loop
      vertex -47.7711 -60.5677 -15.5218
      vertex 29.5242 -60.5677 40.6365
      vertex -29.5242 -60.5677 40.6365
    endloop
  endfacet
  facet normal 0 -1 0
    outer loop
      vertex -47.7711 -60.5677 -15.5218
      vertex 47.7711 -60.5677 -15.5218
      vertex 29.5242 -60.5677 40.6365
    endloop
  endfacet
  facet normal -0 -1 0
    outer loop
      vertex 47.7711 -60.5677 -15.5218
      vertex -47.7711 -60.5677 -15.5218
      vertex -0 -60.5677 -50.2295
    endloop
  endfacet
  facet normal 0.5 -0.850651 0.16246
    outer loop
      vertex 29.5242 -60.5677 40.6365
      vertex 95.5423 -29.5242 0
      vertex 77.2953 -29.5242 56.1583
    endloop
  endfacet
  facet normal 0.5 -0.850651 0.16246
    outer loop
      vertex 95.5423 -29.5242 0
      vertex 29.5242 -60.5677 40.6365
      vertex 47.7711 -60.5677 -15.5218
    endloop
  endfacet
  facet normal 0.356822 -0.794655 0.491123
    outer loop
      vertex 29.5242 -60.5677 40.6365
      vertex 77.2953 -29.5242 56.1583
      vertex 29.5242 -29.5242 90.8661
    endloop
  endfacet
  facet normal 0 -0.850651 0.525731
    outer loop
      vertex -29.5242 -60.5677 40.6365
      vertex 29.5242 -29.5242 90.8661
      vertex -29.5242 -29.5242 90.8661
    endloop
  endfacet
  facet normal 0 -0.850651 0.525731
    outer loop
      vertex 29.5242 -29.5242 90.8661
      vertex -29.5242 -60.5677 40.6365
      vertex 29.5242 -60.5677 40.6365
    endloop
  endfacet
  facet normal -0.356822 -0.794655 0.491123
    outer loop
      vertex -29.5242 -60.5677 40.6365
      vertex -29.5242 -29.5242 90.8661
      vertex -77.2953 -29.5242 56.1583
    endloop
  endfacet
  facet normal -0.5 -0.850651 0.16246
    outer loop
      vertex -95.5423 -29.5242 0
      vertex -29.5242 -60.5677 40.6365
      vertex -77.2953 -29.5242 56.1583
    endloop
  endfacet
  facet normal -0.5 -0.850651 0.16246
    outer loop
      vertex -29.5242 -60.5677 40.6365
      vertex -95.5423 -29.5242 0
      vertex -47.7711 -60.5677 -15.5218
    endloop
  endfacet
  facet normal -0.57735 -0.794654 -0.187592
    outer loop
      vertex -47.7711 -60.5677 -15.5218
      vertex -95.5423 -29.5242 0
      vertex -77.2953 -29.5242 -56.1583
    endloop
  endfacet
  facet normal -0.309017 -0.850651 -0.425325
    outer loop
      vertex -77.2953 -29.5242 -56.1583
      vertex -0 -60.5677 -50.2295
      vertex -47.7711 -60.5677 -15.5218
    endloop
  endfacet
  facet normal -0.309017 -0.850651 -0.425325
    outer loop
      vertex -0 -60.5677 -50.2295
      vertex -77.2953 -29.5242 -56.1583
      vertex -29.5242 -29.5242 -90.8661
    endloop
  endfacet
  facet normal 0 -0.794654 -0.607062
    outer loop
      vertex -0 -60.5677 -50.2295
      vertex -29.5242 -29.5242 -90.8661
      vertex 29.5242 -29.5242 -90.8661
    endloop
  endfacet
  facet normal 0.309017 -0.850651 -0.425325
    outer loop
      vertex -0 -60.5677 -50.2295
      vertex 77.2953 -29.5242 -56.1583
      vertex 47.7711 -60.5677 -15.5218
    endloop
  endfacet
  facet normal 0.309017 -0.850651 -0.425325
    outer loop
      vertex 77.2953 -29.5242 -56.1583
      vertex -0 -60.5677 -50.2295
      vertex 29.5242 -29.5242 -90.8661
    endloop
  endfacet
  facet normal 0.57735 -0.794654 -0.187592
    outer loop
      vertex 47.7711 -60.5677 -15.5218
      vertex 77.2953 -29.5242 -56.1583
      vertex 95.5423 -29.5242 0
    endloop
  endfacet
  facet normal 0 1 0
    outer loop
      vertex 47.7711 60.5677 15.5218
      vertex -47.7711 60.5677 15.5218
      vertex 0 60.5677 50.2295
    endloop
  endfacet
  facet normal 0 1 -0
    outer loop
      vertex 29.5242 60.5677 -40.6365
      vertex -47.7711 60.5677 15.5218
      vertex 47.7711 60.5677 15.5218
    endloop
  endfacet
  facet normal 0 1 0
    outer loop
      vertex -47.7711 60.5677 15.5218
      vertex 29.5242 60.5677 -40.6365
      vertex -29.5242 60.5677 -40.6365
    endloop
  endfacet
  facet normal 0.309017 0.850651 0.425325
    outer loop
      vertex 77.2953 29.5242 56.1583
      vertex 0 60.5677 50.2295
      vertex 29.5242 29.5242 90.8661
    endloop
  endfacet
  facet normal 0.309017 0.850651 0.425325
    outer loop
      vertex 0 60.5677 50.2295
      vertex 77.2953 29.5242 56.1583
      vertex 47.7711 60.5677 15.5218
    endloop
  endfacet
  facet normal 0.57735 0.794654 0.187592
    outer loop
      vertex 47.7711 60.5677 15.5218
      vertex 77.2953 29.5242 56.1583
      vertex 95.5423 29.5242 0
    endloop
  endfacet
  facet normal 0.5 0.850651 -0.16246
    outer loop
      vertex 95.5423 29.5242 0
      vertex 29.5242 60.5677 -40.6365
      vertex 47.7711 60.5677 15.5218
    endloop
  endfacet
  facet normal 0.5 0.850651 -0.16246
    outer loop
      vertex 29.5242 60.5677 -40.6365
      vertex 95.5423 29.5242 0
      vertex 77.2953 29.5242 -56.1583
    endloop
  endfacet
  facet normal 0.356822 0.794655 -0.491123
    outer loop
      vertex 29.5242 60.5677 -40.6365
      vertex 77.2953 29.5242 -56.1583
      vertex 29.5242 29.5242 -90.8661
    endloop
  endfacet
  facet normal 0 0.850651 -0.525731
    outer loop
      vertex 29.5242 29.5242 -90.8661
      vertex -29.5242 60.5677 -40.6365
      vertex 29.5242 60.5677 -40.6365
    endloop
  endfacet
  facet normal 0 0.850651 -0.525731
    outer loop
      vertex -29.5242 60.5677 -40.6365
      vertex 29.5242 29.5242 -90.8661
      vertex -29.5242 29.5242 -90.8661
    endloop
  endfacet
  facet normal -0.356822 0.794655 -0.491123
    outer loop
      vertex -29.5242 60.5677 -40.6365
      vertex -29.5242 29.5242 -90.8661
      vertex -77.2953 29.5242 -56.1583
    endloop
  endfacet
  facet normal -0.5 0.850651 -0.16246
    outer loop
      vertex -29.5242 60.5677 -40.6365
      vertex -95.5423 29.5242 0
      vertex -47.7711 60.5677 15.5218
    endloop
  endfacet
  facet normal -0.5 0.850651 -0.16246
    outer loop
      vertex -95.5423 29.5242 0
      vertex -29.5242 60.5677 -40.6365
      vertex -77.2953 29.5242 -56.1583
    endloop
  endfacet
  facet normal -0.57735 0.794654 0.187592
    outer loop
      vertex -47.7711 60.5677 15.5218
      vertex -95.5423 29.5242 0
      vertex -77.2953 29.5242 56.1583
    endloop
  endfacet
  facet normal -0.309017 0.850651 0.425325
    outer loop
      vertex 0 60.5677 50.2295
      vertex -77.2953 29.5242 56.1583
      vertex -29.5242 29.5242 90.8661
    endloop
  endfacet
  facet normal -0.309017 0.850651 0.425325
    outer loop
      vertex -77.2953 29.5242 56.1583
      vertex 0 60.5677 50.2295
      vertex -47.7711 60.5677 15.5218
    endloop
  endfacet
  facet normal 0 0.794654 0.607062
    outer loop
      vertex 0 60.5677 50.2295
      vertex -29.5242 29.5242 90.8661
      vertex 29.5242 29.5242 90.8661
    endloop
  endfacet
  facet normal -0.587785 0 -0.809017
    outer loop
      vertex -77.2953 -29.5242 -56.1583
      vertex -29.5242 29.5242 -90.8661
      vertex -29.5242 -29.5242 -90.8661
    endloop
  endfacet
  facet normal -0.587785 0 -0.809017
    outer loop
      vertex -29.5242 29.5242 -90.8661
      vertex -77.2953 -29.5242 -56.1583
      vertex -77.2953 29.5242 -56.1583
    endloop
  endfacet
  facet normal 0 0 -1
    outer loop
      vertex -29.5242 -29.5242 -90.8661
      vertex 29.5242 29.5242 -90.8661
      vertex 29.5242 -29.5242 -90.8661
    endloop
  endfacet
  facet normal -0 0 -1
    outer loop
      vertex 29.5242 29.5242 -90.8661
      vertex -29.5242 -29.5242 -90.8661
      vertex -29.5242 29.5242 -90.8661
    endloop
  endfacet
  facet normal 0.587785 0 -0.809017
    outer loop
      vertex 29.5242 -29.5242 -90.8661
      vertex 77.2953 29.5242 -56.1583
      vertex 77.2953 -29.5242 -56.1583
    endloop
  endfacet
  facet normal 0.587785 0 -0.809017
    outer loop
      vertex 77.2953 29.5242 -56.1583
      vertex 29.5242 -29.5242 -90.8661
      vertex 29.5242 29.5242 -90.8661
    endloop
  endfacet
  facet normal 0.951057 0 -0.309017
    outer loop
      vertex 95.5423 -29.5242 0
      vertex 77.2953 29.5242 -56.1583
      vertex 95.5423 29.5242 0
    endloop
  endfacet
  facet normal 0.951057 0 -0.309017
    outer loop
      vertex 77.2953 29.5242 -56.1583
      vertex 95.5423 -29.5242 0
      vertex 77.2953 -29.5242 -56.1583
    endloop
  endfacet
  facet normal 0.951057 -0 0.309017
    outer loop
      vertex 77.2953 -29.5242 56.1583
      vertex 95.5423 29.5242 0
      vertex 77.2953 29.5242 56.1583
    endloop
  endfacet
  facet normal 0.951057 0 0.309017
    outer loop
      vertex 95.5423 29.5242 0
      vertex 77.2953 -29.5242 56.1583
      vertex 95.5423 -29.5242 0
    endloop
  endfacet
  facet normal 0.587785 0 0.809017
    outer loop
      vertex 29.5242 29.5242 90.8661
      vertex 77.2953 -29.5242 56.1583
      vertex 77.2953 29.5242 56.1583
    endloop
  endfacet
  facet normal 0.587785 0 0.809017
    outer loop
      vertex 77.2953 -29.5242 56.1583
      vertex 29.5242 29.5242 90.8661
      vertex 29.5242 -29.5242 90.8661
    endloop
  endfacet
  facet normal -0 0 1
    outer loop
      vertex -29.5242 29.5242 90.8661
      vertex 29.5242 -29.5242 90.8661
      vertex 29.5242 29.5242 90.8661
    endloop
  endfacet
  facet normal 0 0 1
    outer loop
      vertex 29.5242 -29.5242 90.8661
      vertex -29.5242 29.5242 90.8661
      vertex -29.5242 -29.5242 90.8661
    endloop
  endfacet
  facet normal -0.587785 0 0.809017
    outer loop
      vertex -77.2953 29.5242 56.1583
      vertex -29.5242 -29.5242 90.8661
      vertex -29.5242 29.5242 90.8661
    endloop
  endfacet
  facet normal -0.587785 0 0.809017
    outer loop
      vertex -29.5242 -29.5242 90.8661
      vertex -77.2953 29.5242 56.1583
      vertex -77.2953 -29.5242 56.1583
    endloop
  endfacet
  facet normal -0.951057 0 0.309017
    outer loop
      vertex -95.5423 -29.5242 0
      vertex -77.2953 29.5242 56.1583
      vertex -95.5423 29.5242 0
    endloop
  endfacet
  facet normal -0.951057 0 0.309017
    outer loop
      vertex -77.2953 29.5242 56.1583
      vertex -95.5423 -29.5242 0
      vertex -77.2953 -29.5242 56.1583
    endloop
  endfacet
  facet normal -0.951057 0 -0.309017
    outer loop
      vertex -77.2953 -29.5242 -56.1583
      vertex -95.5423 29.5242 0
      vertex -77.2953 29.5242 -56.1583
    endloop
  endfacet
  facet normal -0.951057 -0 -0.309017
    outer loop
      vertex -95.5423 29.5242 0
      vertex -77.2953 -29.5242 -56.1583
      vertex -95.5423 -29.5242 0
    endloop
  endfacet
endsolid OpenSCAD_Model
