solid OpenSCAD_Model
  facet normal 0.356822 0.794654 0.491123
    outer loop
      vertex -0 -10.2464 99.4737
      vertex 94.6051 -10.2464 30.7391
      vertex 0 51.2318 0
    endloop
  endfacet
  facet normal 0 0.794654 -0.607062
    outer loop
      vertex 58.4692 -10.2464 -80.4759
      vertex -58.4692 -10.2464 -80.4759
      vertex 0 51.2318 0
    endloop
  endfacet
  facet normal 0.57735 0.794654 -0.187592
    outer loop
      vertex 94.6051 -10.2464 30.7391
      vertex 58.4692 -10.2464 -80.4759
      vertex 0 51.2318 0
    endloop
  endfacet
  facet normal -0.356822 0.794654 0.491123
    outer loop
      vertex -94.6051 -10.2464 30.7391
      vertex -0 -10.2464 99.4737
      vertex 0 51.2318 0
    endloop
  endfacet
  facet normal -0.57735 0.794654 -0.187592
    outer loop
      vertex -58.4692 -10.2464 -80.4759
      vertex -94.6051 -10.2464 30.7391
      vertex 0 51.2318 0
    endloop
  endfacet
  facet normal 0 -1 0
    outer loop
      vertex -94.6051 -10.2464 30.7391
      vertex 94.6051 -10.2464 30.7391
      vertex -0 -10.2464 99.4737
    endloop
  endfacet
  facet normal 0 -1 0
    outer loop
      vertex -58.4692 -10.2464 -80.4759
      vertex 94.6051 -10.2464 30.7391
      vertex -94.6051 -10.2464 30.7391
    endloop
  endfacet
  facet normal 0 -1 0
    outer loop
      vertex 94.6051 -10.2464 30.7391
      vertex -58.4692 -10.2464 -80.4759
      vertex 58.4692 -10.2464 -80.4759
    endloop
  endfacet
endsolid OpenSCAD_Model
