solid OpenSCAD_Model
  facet normal 0.5 -0.525731 0.688191
    outer loop
      vertex 36.2309 -30.8198 87.9629
      vertex 58.6227 -68.9152 42.5919
      vertex 72.4617 -30.8198 61.6396
    endloop
  endfacet
  facet normal 0.5 -0.525731 0.688191
    outer loop
      vertex 58.6227 -68.9152 42.5919
      vertex 36.2309 -30.8198 87.9629
      vertex 22.3919 -68.9152 68.9152
    endloop
  endfacet
  facet normal 0.57735 -0.187593 0.794654
    outer loop
      vertex 36.2309 -30.8198 87.9629
      vertex 72.4617 -30.8198 61.6396
      vertex 58.6227 7.27557 80.6873
    endloop
  endfacet
  facet normal 0.809017 -3.89317e-08 0.587785
    outer loop
      vertex 58.6227 7.27557 80.6873
      vertex 94.8536 -7.27557 30.8198
      vertex 81.0146 30.8198 49.8675
    endloop
  endfacet
  facet normal 0.809017 -7.33878e-08 0.587785
    outer loop
      vertex 94.8536 -7.27557 30.8198
      vertex 58.6227 7.27557 80.6873
      vertex 72.4617 -30.8198 61.6396
    endloop
  endfacet
  facet normal 0.850651 -0.447214 0.276393
    outer loop
      vertex 58.6227 -68.9152 42.5919
      vertex 94.8536 -7.27557 30.8198
      vertex 72.4617 -30.8198 61.6396
    endloop
  endfacet
  facet normal 0.850651 -0.447214 0.276393
    outer loop
      vertex 94.8536 -7.27557 30.8198
      vertex 58.6227 -68.9152 42.5919
      vertex 94.8536 -30.8198 -7.27557
    endloop
  endfacet
  facet normal 0.850651 -0.447214 0.276393
    outer loop
      vertex 94.8536 -30.8198 -7.27557
      vertex 58.6227 -68.9152 42.5919
      vertex 72.4617 -68.9152 0
    endloop
  endfacet
  facet normal 0.934172 0.187592 0.303531
    outer loop
      vertex 94.8536 -7.27557 30.8198
      vertex 94.8536 30.8198 7.27557
      vertex 81.0146 30.8198 49.8675
    endloop
  endfacet
  facet normal 0.809017 0.525731 0.262866
    outer loop
      vertex 94.8536 30.8198 7.27557
      vertex 58.6227 68.9152 42.5919
      vertex 81.0146 30.8198 49.8675
    endloop
  endfacet
  facet normal 0.809017 0.525731 0.262865
    outer loop
      vertex 58.6227 68.9152 42.5919
      vertex 94.8536 30.8198 7.27557
      vertex 72.4617 68.9152 0
    endloop
  endfacet
  facet normal 1 0 0
    outer loop
      vertex 94.8536 -7.27557 30.8198
      vertex 94.8536 7.27557 -30.8198
      vertex 94.8536 30.8198 7.27557
    endloop
  endfacet
  facet normal 1 0 0
    outer loop
      vertex 94.8536 7.27557 -30.8198
      vertex 94.8536 -7.27557 30.8198
      vertex 94.8536 -30.8198 -7.27557
    endloop
  endfacet
  facet normal 0.934172 -0.187592 -0.303531
    outer loop
      vertex 94.8536 -30.8198 -7.27557
      vertex 81.0146 -30.8198 -49.8675
      vertex 94.8536 7.27557 -30.8198
    endloop
  endfacet
  facet normal 0.809017 7.33878e-08 -0.587785
    outer loop
      vertex 94.8536 7.27557 -30.8198
      vertex 58.6227 -7.27557 -80.6873
      vertex 72.4617 30.8198 -61.6396
    endloop
  endfacet
  facet normal 0.809017 3.89317e-08 -0.587785
    outer loop
      vertex 58.6227 -7.27557 -80.6873
      vertex 94.8536 7.27557 -30.8198
      vertex 81.0146 -30.8198 -49.8675
    endloop
  endfacet
  facet normal 0.850651 0.447214 -0.276393
    outer loop
      vertex 94.8536 30.8198 7.27557
      vertex 58.6227 68.9152 -42.5919
      vertex 72.4617 68.9152 0
    endloop
  endfacet
  facet normal 0.850651 0.447214 -0.276393
    outer loop
      vertex 94.8536 7.27557 -30.8198
      vertex 58.6227 68.9152 -42.5919
      vertex 94.8536 30.8198 7.27557
    endloop
  endfacet
  facet normal 0.850651 0.447214 -0.276393
    outer loop
      vertex 58.6227 68.9152 -42.5919
      vertex 94.8536 7.27557 -30.8198
      vertex 72.4617 30.8198 -61.6396
    endloop
  endfacet
  facet normal 0.57735 0.187593 -0.794654
    outer loop
      vertex 58.6227 -7.27557 -80.6873
      vertex 36.2309 30.8198 -87.9629
      vertex 72.4617 30.8198 -61.6396
    endloop
  endfacet
  facet normal 0.5 0.525731 -0.688191
    outer loop
      vertex 36.2309 30.8198 -87.9629
      vertex 58.6227 68.9152 -42.5919
      vertex 72.4617 30.8198 -61.6396
    endloop
  endfacet
  facet normal 0.5 0.525731 -0.688191
    outer loop
      vertex 58.6227 68.9152 -42.5919
      vertex 36.2309 30.8198 -87.9629
      vertex 22.3919 68.9152 -68.9152
    endloop
  endfacet
  facet normal 0.309017 -4.384e-08 0.951057
    outer loop
      vertex -0 -7.27557 99.735
      vertex 58.6227 7.27557 80.6873
      vertex 22.3919 30.8198 92.4594
    endloop
  endfacet
  facet normal 0.309017 -6.19547e-08 0.951057
    outer loop
      vertex 58.6227 7.27557 80.6873
      vertex -0 -7.27557 99.735
      vertex 36.2309 -30.8198 87.9629
    endloop
  endfacet
  facet normal 0 0.187592 0.982247
    outer loop
      vertex -0 -7.27557 99.735
      vertex 22.3919 30.8198 92.4594
      vertex -22.3919 30.8198 92.4594
    endloop
  endfacet
  facet normal -0 0.525731 0.850651
    outer loop
      vertex -22.3919 68.9152 68.9152
      vertex 22.3919 30.8198 92.4594
      vertex 22.3919 68.9152 68.9152
    endloop
  endfacet
  facet normal 0 0.525731 0.850651
    outer loop
      vertex 22.3919 30.8198 92.4594
      vertex -22.3919 68.9152 68.9152
      vertex -22.3919 30.8198 92.4594
    endloop
  endfacet
  facet normal 0.525731 0.447214 0.723607
    outer loop
      vertex 22.3919 30.8198 92.4594
      vertex 81.0146 30.8198 49.8675
      vertex 58.6227 68.9152 42.5919
    endloop
  endfacet
  facet normal 0.525731 0.447214 0.723607
    outer loop
      vertex 22.3919 30.8198 92.4594
      vertex 58.6227 68.9152 42.5919
      vertex 22.3919 68.9152 68.9152
    endloop
  endfacet
  facet normal 0.525731 0.447214 0.723607
    outer loop
      vertex 81.0146 30.8198 49.8675
      vertex 22.3919 30.8198 92.4594
      vertex 58.6227 7.27557 80.6873
    endloop
  endfacet
  facet normal 0 1 0
    outer loop
      vertex 58.6227 68.9152 42.5919
      vertex -22.3919 68.9152 68.9152
      vertex 22.3919 68.9152 68.9152
    endloop
  endfacet
  facet normal 0 1 0
    outer loop
      vertex 58.6227 68.9152 42.5919
      vertex -58.6227 68.9152 42.5919
      vertex -22.3919 68.9152 68.9152
    endloop
  endfacet
  facet normal 0 1 0
    outer loop
      vertex 72.4617 68.9152 0
      vertex -58.6227 68.9152 42.5919
      vertex 58.6227 68.9152 42.5919
    endloop
  endfacet
  facet normal 0 1 0
    outer loop
      vertex 72.4617 68.9152 0
      vertex -72.4617 68.9152 0
      vertex -58.6227 68.9152 42.5919
    endloop
  endfacet
  facet normal 0 1 -0
    outer loop
      vertex 58.6227 68.9152 -42.5919
      vertex -72.4617 68.9152 0
      vertex 72.4617 68.9152 0
    endloop
  endfacet
  facet normal 0 1 0
    outer loop
      vertex 58.6227 68.9152 -42.5919
      vertex -58.6227 68.9152 -42.5919
      vertex -72.4617 68.9152 0
    endloop
  endfacet
  facet normal 0 1 -0
    outer loop
      vertex 22.3919 68.9152 -68.9152
      vertex -58.6227 68.9152 -42.5919
      vertex 58.6227 68.9152 -42.5919
    endloop
  endfacet
  facet normal 0 1 0
    outer loop
      vertex -58.6227 68.9152 -42.5919
      vertex 22.3919 68.9152 -68.9152
      vertex -22.3919 68.9152 -68.9152
    endloop
  endfacet
  facet normal -0.309017 -4.384e-08 0.951057
    outer loop
      vertex -58.6227 7.27557 80.6873
      vertex -0 -7.27557 99.735
      vertex -22.3919 30.8198 92.4594
    endloop
  endfacet
  facet normal -0.309017 -6.19547e-08 0.951057
    outer loop
      vertex -0 -7.27557 99.735
      vertex -58.6227 7.27557 80.6873
      vertex -36.2309 -30.8198 87.9629
    endloop
  endfacet
  facet normal -0.57735 -0.187593 0.794654
    outer loop
      vertex -36.2309 -30.8198 87.9629
      vertex -58.6227 7.27557 80.6873
      vertex -72.4617 -30.8198 61.6396
    endloop
  endfacet
  facet normal -0.809017 -3.89317e-08 0.587785
    outer loop
      vertex -94.8536 -7.27557 30.8198
      vertex -58.6227 7.27557 80.6873
      vertex -81.0146 30.8198 49.8675
    endloop
  endfacet
  facet normal -0.809017 -7.33878e-08 0.587785
    outer loop
      vertex -58.6227 7.27557 80.6873
      vertex -94.8536 -7.27557 30.8198
      vertex -72.4617 -30.8198 61.6396
    endloop
  endfacet
  facet normal -0.525731 0.447214 0.723607
    outer loop
      vertex -58.6227 68.9152 42.5919
      vertex -22.3919 30.8198 92.4594
      vertex -22.3919 68.9152 68.9152
    endloop
  endfacet
  facet normal -0.525731 0.447214 0.723607
    outer loop
      vertex -81.0146 30.8198 49.8675
      vertex -22.3919 30.8198 92.4594
      vertex -58.6227 68.9152 42.5919
    endloop
  endfacet
  facet normal -0.525731 0.447214 0.723607
    outer loop
      vertex -22.3919 30.8198 92.4594
      vertex -81.0146 30.8198 49.8675
      vertex -58.6227 7.27557 80.6873
    endloop
  endfacet
  facet normal -0.934172 0.187592 0.303531
    outer loop
      vertex -81.0146 30.8198 49.8675
      vertex -94.8536 30.8198 7.27557
      vertex -94.8536 -7.27557 30.8198
    endloop
  endfacet
  facet normal -1 0 0
    outer loop
      vertex -94.8536 7.27557 -30.8198
      vertex -94.8536 -7.27557 30.8198
      vertex -94.8536 30.8198 7.27557
    endloop
  endfacet
  facet normal -1 0 -0
    outer loop
      vertex -94.8536 -7.27557 30.8198
      vertex -94.8536 7.27557 -30.8198
      vertex -94.8536 -30.8198 -7.27557
    endloop
  endfacet
  facet normal -0.809017 0.525731 0.262865
    outer loop
      vertex -94.8536 30.8198 7.27557
      vertex -58.6227 68.9152 42.5919
      vertex -72.4617 68.9152 0
    endloop
  endfacet
  facet normal -0.809017 0.525731 0.262866
    outer loop
      vertex -58.6227 68.9152 42.5919
      vertex -94.8536 30.8198 7.27557
      vertex -81.0146 30.8198 49.8675
    endloop
  endfacet
  facet normal -0.850651 0.447214 -0.276393
    outer loop
      vertex -94.8536 7.27557 -30.8198
      vertex -58.6227 68.9152 -42.5919
      vertex -72.4617 30.8198 -61.6396
    endloop
  endfacet
  facet normal -0.850651 0.447214 -0.276393
    outer loop
      vertex -58.6227 68.9152 -42.5919
      vertex -94.8536 30.8198 7.27557
      vertex -72.4617 68.9152 0
    endloop
  endfacet
  facet normal -0.850651 0.447214 -0.276393
    outer loop
      vertex -58.6227 68.9152 -42.5919
      vertex -94.8536 7.27557 -30.8198
      vertex -94.8536 30.8198 7.27557
    endloop
  endfacet
  facet normal -0.5 0.525731 -0.688191
    outer loop
      vertex -36.2309 30.8198 -87.9629
      vertex -58.6227 68.9152 -42.5919
      vertex -22.3919 68.9152 -68.9152
    endloop
  endfacet
  facet normal -0.5 0.525731 -0.688191
    outer loop
      vertex -58.6227 68.9152 -42.5919
      vertex -36.2309 30.8198 -87.9629
      vertex -72.4617 30.8198 -61.6396
    endloop
  endfacet
  facet normal -0.5 -0.525731 0.688191
    outer loop
      vertex -36.2309 -30.8198 87.9629
      vertex -58.6227 -68.9152 42.5919
      vertex -22.3919 -68.9152 68.9152
    endloop
  endfacet
  facet normal -0.5 -0.525731 0.688191
    outer loop
      vertex -58.6227 -68.9152 42.5919
      vertex -36.2309 -30.8198 87.9629
      vertex -72.4617 -30.8198 61.6396
    endloop
  endfacet
  facet normal 0 -1 0
    outer loop
      vertex -58.6227 -68.9152 42.5919
      vertex 22.3919 -68.9152 68.9152
      vertex -22.3919 -68.9152 68.9152
    endloop
  endfacet
  facet normal 0 -1 0
    outer loop
      vertex -58.6227 -68.9152 42.5919
      vertex 58.6227 -68.9152 42.5919
      vertex 22.3919 -68.9152 68.9152
    endloop
  endfacet
  facet normal 0 -1 0
    outer loop
      vertex -72.4617 -68.9152 0
      vertex 58.6227 -68.9152 42.5919
      vertex -58.6227 -68.9152 42.5919
    endloop
  endfacet
  facet normal 0 -1 0
    outer loop
      vertex -72.4617 -68.9152 0
      vertex 72.4617 -68.9152 0
      vertex 58.6227 -68.9152 42.5919
    endloop
  endfacet
  facet normal 0 -1 0
    outer loop
      vertex -58.6227 -68.9152 -42.5919
      vertex 72.4617 -68.9152 0
      vertex -72.4617 -68.9152 0
    endloop
  endfacet
  facet normal 0 -1 0
    outer loop
      vertex -58.6227 -68.9152 -42.5919
      vertex 58.6227 -68.9152 -42.5919
      vertex 72.4617 -68.9152 0
    endloop
  endfacet
  facet normal 0 -1 0
    outer loop
      vertex -22.3919 -68.9152 -68.9152
      vertex 58.6227 -68.9152 -42.5919
      vertex -58.6227 -68.9152 -42.5919
    endloop
  endfacet
  facet normal 0 -1 0
    outer loop
      vertex 58.6227 -68.9152 -42.5919
      vertex -22.3919 -68.9152 -68.9152
      vertex 22.3919 -68.9152 -68.9152
    endloop
  endfacet
  facet normal -0.850651 -0.447214 0.276393
    outer loop
      vertex -58.6227 -68.9152 42.5919
      vertex -94.8536 -7.27557 30.8198
      vertex -94.8536 -30.8198 -7.27557
    endloop
  endfacet
  facet normal -0.850651 -0.447214 0.276393
    outer loop
      vertex -58.6227 -68.9152 42.5919
      vertex -94.8536 -30.8198 -7.27557
      vertex -72.4617 -68.9152 0
    endloop
  endfacet
  facet normal -0.850651 -0.447214 0.276393
    outer loop
      vertex -94.8536 -7.27557 30.8198
      vertex -58.6227 -68.9152 42.5919
      vertex -72.4617 -30.8198 61.6396
    endloop
  endfacet
  facet normal -0.809017 -0.525731 -0.262866
    outer loop
      vertex -58.6227 -68.9152 -42.5919
      vertex -94.8536 -30.8198 -7.27557
      vertex -81.0146 -30.8198 -49.8675
    endloop
  endfacet
  facet normal -0.809017 -0.525731 -0.262865
    outer loop
      vertex -94.8536 -30.8198 -7.27557
      vertex -58.6227 -68.9152 -42.5919
      vertex -72.4617 -68.9152 0
    endloop
  endfacet
  facet normal -0.934172 -0.187592 -0.303531
    outer loop
      vertex -94.8536 -30.8198 -7.27557
      vertex -94.8536 7.27557 -30.8198
      vertex -81.0146 -30.8198 -49.8675
    endloop
  endfacet
  facet normal -0.809017 7.33878e-08 -0.587785
    outer loop
      vertex -58.6227 -7.27557 -80.6873
      vertex -94.8536 7.27557 -30.8198
      vertex -72.4617 30.8198 -61.6396
    endloop
  endfacet
  facet normal -0.809017 3.89317e-08 -0.587785
    outer loop
      vertex -94.8536 7.27557 -30.8198
      vertex -58.6227 -7.27557 -80.6873
      vertex -81.0146 -30.8198 -49.8675
    endloop
  endfacet
  facet normal -0.525731 -0.447214 -0.723607
    outer loop
      vertex -58.6227 -68.9152 -42.5919
      vertex -22.3919 -30.8198 -92.4594
      vertex -22.3919 -68.9152 -68.9152
    endloop
  endfacet
  facet normal -0.525731 -0.447214 -0.723607
    outer loop
      vertex -81.0146 -30.8198 -49.8675
      vertex -22.3919 -30.8198 -92.4594
      vertex -58.6227 -68.9152 -42.5919
    endloop
  endfacet
  facet normal -0.525731 -0.447214 -0.723607
    outer loop
      vertex -22.3919 -30.8198 -92.4594
      vertex -81.0146 -30.8198 -49.8675
      vertex -58.6227 -7.27557 -80.6873
    endloop
  endfacet
  facet normal -0.57735 0.187593 -0.794654
    outer loop
      vertex -72.4617 30.8198 -61.6396
      vertex -36.2309 30.8198 -87.9629
      vertex -58.6227 -7.27557 -80.6873
    endloop
  endfacet
  facet normal -0.309017 4.384e-08 -0.951057
    outer loop
      vertex -58.6227 -7.27557 -80.6873
      vertex 0 7.27557 -99.735
      vertex -22.3919 -30.8198 -92.4594
    endloop
  endfacet
  facet normal -0.309017 6.19547e-08 -0.951057
    outer loop
      vertex 0 7.27557 -99.735
      vertex -58.6227 -7.27557 -80.6873
      vertex -36.2309 30.8198 -87.9629
    endloop
  endfacet
  facet normal 0.809017 -0.525731 -0.262865
    outer loop
      vertex 58.6227 -68.9152 -42.5919
      vertex 94.8536 -30.8198 -7.27557
      vertex 72.4617 -68.9152 0
    endloop
  endfacet
  facet normal 0.809017 -0.525731 -0.262866
    outer loop
      vertex 94.8536 -30.8198 -7.27557
      vertex 58.6227 -68.9152 -42.5919
      vertex 81.0146 -30.8198 -49.8675
    endloop
  endfacet
  facet normal 0 -0.525731 -0.850651
    outer loop
      vertex -22.3919 -68.9152 -68.9152
      vertex 22.3919 -30.8198 -92.4594
      vertex 22.3919 -68.9152 -68.9152
    endloop
  endfacet
  facet normal -0 -0.525731 -0.850651
    outer loop
      vertex 22.3919 -30.8198 -92.4594
      vertex -22.3919 -68.9152 -68.9152
      vertex -22.3919 -30.8198 -92.4594
    endloop
  endfacet
  facet normal 0.525731 -0.447214 -0.723607
    outer loop
      vertex 22.3919 -30.8198 -92.4594
      vertex 81.0146 -30.8198 -49.8675
      vertex 58.6227 -68.9152 -42.5919
    endloop
  endfacet
  facet normal 0.525731 -0.447214 -0.723607
    outer loop
      vertex 22.3919 -30.8198 -92.4594
      vertex 58.6227 -68.9152 -42.5919
      vertex 22.3919 -68.9152 -68.9152
    endloop
  endfacet
  facet normal 0.525731 -0.447214 -0.723607
    outer loop
      vertex 81.0146 -30.8198 -49.8675
      vertex 22.3919 -30.8198 -92.4594
      vertex 58.6227 -7.27557 -80.6873
    endloop
  endfacet
  facet normal 0 -0.187592 -0.982247
    outer loop
      vertex -22.3919 -30.8198 -92.4594
      vertex 0 7.27557 -99.735
      vertex 22.3919 -30.8198 -92.4594
    endloop
  endfacet
  facet normal 0.309017 4.384e-08 -0.951057
    outer loop
      vertex 0 7.27557 -99.735
      vertex 58.6227 -7.27557 -80.6873
      vertex 22.3919 -30.8198 -92.4594
    endloop
  endfacet
  facet normal 0.309017 6.19547e-08 -0.951057
    outer loop
      vertex 58.6227 -7.27557 -80.6873
      vertex 0 7.27557 -99.735
      vertex 36.2309 30.8198 -87.9629
    endloop
  endfacet
  facet normal 4.00766e-08 -0.447214 0.894427
    outer loop
      vertex -0 -7.27557 99.735
      vertex 22.3919 -68.9152 68.9152
      vertex 36.2309 -30.8198 87.9629
    endloop
  endfacet
  facet normal 0 -0.447214 0.894427
    outer loop
      vertex -0 -7.27557 99.735
      vertex -22.3919 -68.9152 68.9152
      vertex 22.3919 -68.9152 68.9152
    endloop
  endfacet
  facet normal -4.00766e-08 -0.447214 0.894427
    outer loop
      vertex -22.3919 -68.9152 68.9152
      vertex -0 -7.27557 99.735
      vertex -36.2309 -30.8198 87.9629
    endloop
  endfacet
  facet normal 4.00766e-08 0.447214 -0.894427
    outer loop
      vertex 0 7.27557 -99.735
      vertex 22.3919 68.9152 -68.9152
      vertex 36.2309 30.8198 -87.9629
    endloop
  endfacet
  facet normal 0 0.447214 -0.894427
    outer loop
      vertex 0 7.27557 -99.735
      vertex -22.3919 68.9152 -68.9152
      vertex 22.3919 68.9152 -68.9152
    endloop
  endfacet
  facet normal -4.00766e-08 0.447214 -0.894427
    outer loop
      vertex -22.3919 68.9152 -68.9152
      vertex 0 7.27557 -99.735
      vertex -36.2309 30.8198 -87.9629
    endloop
  endfacet
endsolid OpenSCAD_Model
