solid OpenSCAD_Model
  facet normal 0 1 0
    outer loop
      vertex 50 85.0651 -16.246
      vertex -30.9017 85.0651 42.5325
      vertex 30.9017 85.0651 42.5325
    endloop
  endfacet
  facet normal 0 1 0
    outer loop
      vertex 50 85.0651 -16.246
      vertex -50 85.0651 -16.246
      vertex -30.9017 85.0651 42.5325
    endloop
  endfacet
  facet normal -0 1 0
    outer loop
      vertex -50 85.0651 -16.246
      vertex 50 85.0651 -16.246
      vertex 0 85.0651 -52.5731
    endloop
  endfacet
  facet normal 0.525731 0.447214 0.723607
    outer loop
      vertex 0 52.5731 85.0651
      vertex 80.9017 52.5731 26.2866
      vertex 30.9017 85.0651 42.5325
    endloop
  endfacet
  facet normal 0.525731 0.447214 0.723607
    outer loop
      vertex 80.9017 52.5731 26.2866
      vertex 30.9017 0 95.1057
      vertex 80.9017 -0 58.7785
    endloop
  endfacet
  facet normal 0.525731 0.447214 0.723607
    outer loop
      vertex 80.9017 52.5731 26.2866
      vertex 0 52.5731 85.0651
      vertex 30.9017 0 95.1057
    endloop
  endfacet
  facet normal 0.57735 0.794655 0.187592
    outer loop
      vertex 30.9017 85.0651 42.5325
      vertex 80.9017 52.5731 26.2866
      vertex 50 85.0651 -16.246
    endloop
  endfacet
  facet normal 0.934172 0.187592 0.303531
    outer loop
      vertex 80.9017 52.5731 26.2866
      vertex 80.9017 -0 58.7785
      vertex 100 -0 0
    endloop
  endfacet
  facet normal 0.850651 0.447214 -0.276393
    outer loop
      vertex 100 -0 0
      vertex 50 85.0651 -16.246
      vertex 80.9017 52.5731 26.2866
    endloop
  endfacet
  facet normal 0.850651 0.447214 -0.276393
    outer loop
      vertex 50 85.0651 -16.246
      vertex 100 -0 0
      vertex 50 52.5731 -68.8191
    endloop
  endfacet
  facet normal 0.850651 0.447214 -0.276393
    outer loop
      vertex 50 52.5731 -68.8191
      vertex 100 -0 0
      vertex 80.9017 -0 -58.7785
    endloop
  endfacet
  facet normal 0.356822 0.794655 -0.491123
    outer loop
      vertex 50 85.0651 -16.246
      vertex 50 52.5731 -68.8191
      vertex 0 85.0651 -52.5731
    endloop
  endfacet
  facet normal 0.57735 0.187592 -0.794655
    outer loop
      vertex 50 52.5731 -68.8191
      vertex 80.9017 -0 -58.7785
      vertex 30.9017 -0 -95.1057
    endloop
  endfacet
  facet normal -8.93265e-08 0.447214 -0.894427
    outer loop
      vertex 30.9017 -0 -95.1057
      vertex 0 85.0651 -52.5731
      vertex 50 52.5731 -68.8191
    endloop
  endfacet
  facet normal 0 0.447214 -0.894427
    outer loop
      vertex -30.9017 -0 -95.1057
      vertex 0 85.0651 -52.5731
      vertex 30.9017 -0 -95.1057
    endloop
  endfacet
  facet normal 8.93265e-08 0.447214 -0.894427
    outer loop
      vertex 0 85.0651 -52.5731
      vertex -30.9017 -0 -95.1057
      vertex -50 52.5731 -68.8191
    endloop
  endfacet
  facet normal -0.356822 0.794655 -0.491123
    outer loop
      vertex 0 85.0651 -52.5731
      vertex -50 52.5731 -68.8191
      vertex -50 85.0651 -16.246
    endloop
  endfacet
  facet normal -0.57735 0.187592 -0.794655
    outer loop
      vertex -50 52.5731 -68.8191
      vertex -30.9017 -0 -95.1057
      vertex -80.9017 -0 -58.7785
    endloop
  endfacet
  facet normal -0.850651 0.447214 -0.276393
    outer loop
      vertex -100 -0 0
      vertex -50 85.0651 -16.246
      vertex -50 52.5731 -68.8191
    endloop
  endfacet
  facet normal -0.850651 0.447214 -0.276393
    outer loop
      vertex -100 -0 0
      vertex -50 52.5731 -68.8191
      vertex -80.9017 -0 -58.7785
    endloop
  endfacet
  facet normal -0.850651 0.447214 -0.276393
    outer loop
      vertex -50 85.0651 -16.246
      vertex -100 -0 0
      vertex -80.9017 52.5731 26.2866
    endloop
  endfacet
  facet normal -0.57735 0.794655 0.187592
    outer loop
      vertex -50 85.0651 -16.246
      vertex -80.9017 52.5731 26.2866
      vertex -30.9017 85.0651 42.5325
    endloop
  endfacet
  facet normal -0.934172 0.187592 0.303531
    outer loop
      vertex -80.9017 52.5731 26.2866
      vertex -100 -0 0
      vertex -80.9017 -0 58.7785
    endloop
  endfacet
  facet normal -0.525731 0.447214 0.723607
    outer loop
      vertex -80.9017 52.5731 26.2866
      vertex 0 52.5731 85.0651
      vertex -30.9017 85.0651 42.5325
    endloop
  endfacet
  facet normal -0.525731 0.447214 0.723607
    outer loop
      vertex 0 52.5731 85.0651
      vertex -80.9017 52.5731 26.2866
      vertex -30.9017 -0 95.1057
    endloop
  endfacet
  facet normal -0.525731 0.447214 0.723607
    outer loop
      vertex -30.9017 -0 95.1057
      vertex -80.9017 52.5731 26.2866
      vertex -80.9017 -0 58.7785
    endloop
  endfacet
  facet normal -0 0.794654 0.607062
    outer loop
      vertex -30.9017 85.0651 42.5325
      vertex 0 52.5731 85.0651
      vertex 30.9017 85.0651 42.5325
    endloop
  endfacet
  facet normal 0 0.187593 0.982247
    outer loop
      vertex 0 52.5731 85.0651
      vertex -30.9017 -0 95.1057
      vertex 30.9017 0 95.1057
    endloop
  endfacet
  facet normal 0 -1 0
    outer loop
      vertex -50 -85.0651 -16.246
      vertex 30.9017 -85.0651 42.5325
      vertex -30.9017 -85.0651 42.5325
    endloop
  endfacet
  facet normal 0 -1 0
    outer loop
      vertex -50 -85.0651 -16.246
      vertex 50 -85.0651 -16.246
      vertex 30.9017 -85.0651 42.5325
    endloop
  endfacet
  facet normal -0 -1 0
    outer loop
      vertex 50 -85.0651 -16.246
      vertex -50 -85.0651 -16.246
      vertex -0 -85.0651 -52.5731
    endloop
  endfacet
  facet normal 0.525731 -0.447214 0.723607
    outer loop
      vertex 30.9017 0 95.1057
      vertex 80.9017 -52.5731 26.2866
      vertex 80.9017 -0 58.7785
    endloop
  endfacet
  facet normal 0.525731 -0.447214 0.723607
    outer loop
      vertex -0 -52.5731 85.0651
      vertex 80.9017 -52.5731 26.2866
      vertex 30.9017 0 95.1057
    endloop
  endfacet
  facet normal 0.525731 -0.447214 0.723607
    outer loop
      vertex 80.9017 -52.5731 26.2866
      vertex -0 -52.5731 85.0651
      vertex 30.9017 -85.0651 42.5325
    endloop
  endfacet
  facet normal 0 -0.794654 0.607062
    outer loop
      vertex 30.9017 -85.0651 42.5325
      vertex -0 -52.5731 85.0651
      vertex -30.9017 -85.0651 42.5325
    endloop
  endfacet
  facet normal 0 -0.187593 0.982247
    outer loop
      vertex -0 -52.5731 85.0651
      vertex 30.9017 0 95.1057
      vertex -30.9017 -0 95.1057
    endloop
  endfacet
  facet normal -0.525731 -0.447214 0.723607
    outer loop
      vertex -80.9017 -52.5731 26.2866
      vertex -0 -52.5731 85.0651
      vertex -30.9017 -0 95.1057
    endloop
  endfacet
  facet normal -0.525731 -0.447214 0.723607
    outer loop
      vertex -80.9017 -52.5731 26.2866
      vertex -30.9017 -0 95.1057
      vertex -80.9017 -0 58.7785
    endloop
  endfacet
  facet normal -0.525731 -0.447214 0.723607
    outer loop
      vertex -0 -52.5731 85.0651
      vertex -80.9017 -52.5731 26.2866
      vertex -30.9017 -85.0651 42.5325
    endloop
  endfacet
  facet normal -0.57735 -0.794655 0.187592
    outer loop
      vertex -30.9017 -85.0651 42.5325
      vertex -80.9017 -52.5731 26.2866
      vertex -50 -85.0651 -16.246
    endloop
  endfacet
  facet normal -0.934172 -0.187592 0.303531
    outer loop
      vertex -80.9017 -52.5731 26.2866
      vertex -80.9017 -0 58.7785
      vertex -100 -0 0
    endloop
  endfacet
  facet normal -0.850651 -0.447214 -0.276393
    outer loop
      vertex -50 -52.5731 -68.8191
      vertex -100 -0 0
      vertex -80.9017 -0 -58.7785
    endloop
  endfacet
  facet normal -0.850651 -0.447214 -0.276393
    outer loop
      vertex -50 -85.0651 -16.246
      vertex -100 -0 0
      vertex -50 -52.5731 -68.8191
    endloop
  endfacet
  facet normal -0.850651 -0.447214 -0.276393
    outer loop
      vertex -100 -0 0
      vertex -50 -85.0651 -16.246
      vertex -80.9017 -52.5731 26.2866
    endloop
  endfacet
  facet normal -0.356822 -0.794655 -0.491123
    outer loop
      vertex -50 -85.0651 -16.246
      vertex -50 -52.5731 -68.8191
      vertex -0 -85.0651 -52.5731
    endloop
  endfacet
  facet normal -0.57735 -0.187592 -0.794655
    outer loop
      vertex -50 -52.5731 -68.8191
      vertex -80.9017 -0 -58.7785
      vertex -30.9017 -0 -95.1057
    endloop
  endfacet
  facet normal -8.93265e-08 -0.447214 -0.894427
    outer loop
      vertex -0 -85.0651 -52.5731
      vertex 30.9017 -0 -95.1057
      vertex 50 -52.5731 -68.8191
    endloop
  endfacet
  facet normal 0 -0.447214 -0.894427
    outer loop
      vertex -0 -85.0651 -52.5731
      vertex -30.9017 -0 -95.1057
      vertex 30.9017 -0 -95.1057
    endloop
  endfacet
  facet normal 8.93265e-08 -0.447214 -0.894427
    outer loop
      vertex -30.9017 -0 -95.1057
      vertex -0 -85.0651 -52.5731
      vertex -50 -52.5731 -68.8191
    endloop
  endfacet
  facet normal 0.356822 -0.794655 -0.491123
    outer loop
      vertex -0 -85.0651 -52.5731
      vertex 50 -52.5731 -68.8191
      vertex 50 -85.0651 -16.246
    endloop
  endfacet
  facet normal 0.57735 -0.187592 -0.794655
    outer loop
      vertex 50 -52.5731 -68.8191
      vertex 30.9017 -0 -95.1057
      vertex 80.9017 -0 -58.7785
    endloop
  endfacet
  facet normal 0.850651 -0.447214 -0.276393
    outer loop
      vertex 50 -85.0651 -16.246
      vertex 100 -0 0
      vertex 80.9017 -52.5731 26.2866
    endloop
  endfacet
  facet normal 0.850651 -0.447214 -0.276393
    outer loop
      vertex 100 -0 0
      vertex 50 -52.5731 -68.8191
      vertex 80.9017 -0 -58.7785
    endloop
  endfacet
  facet normal 0.850651 -0.447214 -0.276393
    outer loop
      vertex 100 -0 0
      vertex 50 -85.0651 -16.246
      vertex 50 -52.5731 -68.8191
    endloop
  endfacet
  facet normal 0.57735 -0.794655 0.187592
    outer loop
      vertex 50 -85.0651 -16.246
      vertex 80.9017 -52.5731 26.2866
      vertex 30.9017 -85.0651 42.5325
    endloop
  endfacet
  facet normal 0.934172 -0.187592 0.303531
    outer loop
      vertex 80.9017 -52.5731 26.2866
      vertex 100 -0 0
      vertex 80.9017 -0 58.7785
    endloop
  endfacet
endsolid OpenSCAD_Model
