solid OpenSCAD_Model
  facet normal -0.809017 -0.525731 -0.262866
    outer loop
      vertex -55.3213 -72.9661 -40.1933
      vertex -89.5117 -37.0162 -6.86583
      vertex -76.4522 -37.0162 -47.0591
    endloop
  endfacet
  facet normal -0.809017 -0.525731 -0.262866
    outer loop
      vertex -89.5117 -37.0162 -6.86583
      vertex -55.3213 -72.9661 -40.1933
      vertex -68.3809 -72.9661 0
    endloop
  endfacet
  facet normal -0.995125 -0.0838939 0.0518493
    outer loop
      vertex -89.5117 -37.0162 -6.86583
      vertex -89.5117 -14.7979 29.0841
      vertex -93.1213 5.07478 -8.03866
    endloop
  endfacet
  facet normal -0.947214 0.235114 0.217963
    outer loop
      vertex -93.1213 5.07478 -8.03866
      vertex -76.4522 21.1521 47.0591
      vertex -80.0617 41.0247 9.93632
    endloop
  endfacet
  facet normal -0.947214 0.235114 0.217963
    outer loop
      vertex -76.4522 21.1521 47.0591
      vertex -93.1213 5.07478 -8.03866
      vertex -89.5117 -14.7979 29.0841
    endloop
  endfacet
  facet normal -0.850651 -0.447214 0.276393
    outer loop
      vertex -55.3213 -72.9661 40.1933
      vertex -89.5117 -14.7979 29.0841
      vertex -89.5117 -37.0162 -6.86583
    endloop
  endfacet
  facet normal -0.850651 -0.447214 0.276393
    outer loop
      vertex -55.3213 -72.9661 40.1933
      vertex -89.5117 -37.0162 -6.86583
      vertex -68.3809 -72.9661 0
    endloop
  endfacet
  facet normal -0.850651 -0.447214 0.276393
    outer loop
      vertex -89.5117 -14.7979 29.0841
      vertex -55.3213 -72.9661 40.1933
      vertex -68.3809 -37.0162 58.1683
    endloop
  endfacet
  facet normal -0.774597 0.523168 0.35538
    outer loop
      vertex -76.4522 21.1521 47.0591
      vertex -55.3213 57.1021 40.1933
      vertex -80.0617 41.0247 9.93632
    endloop
  endfacet
  facet normal -0.638197 0.760845 0.117557
    outer loop
      vertex -34.1904 79.3204 11.1091
      vertex -80.0617 41.0247 9.93632
      vertex -55.3213 57.1021 40.1933
    endloop
  endfacet
  facet normal -0.638197 0.760845 0.117557
    outer loop
      vertex -80.0617 41.0247 9.93632
      vertex -34.1904 79.3204 11.1091
      vertex -58.9309 63.243 -19.1478
    endloop
  endfacet
  facet normal -0.809017 -2.56892e-08 0.587785
    outer loop
      vertex -89.5117 -14.7979 29.0841
      vertex -55.3213 -1.0662 76.1432
      vertex -76.4522 21.1521 47.0591
    endloop
  endfacet
  facet normal -0.809017 -6.22016e-08 0.587785
    outer loop
      vertex -55.3213 -1.0662 76.1432
      vertex -89.5117 -14.7979 29.0841
      vertex -68.3809 -37.0162 58.1683
    endloop
  endfacet
  facet normal -0.57735 -0.187593 0.794654
    outer loop
      vertex -68.3809 -37.0162 58.1683
      vertex -34.1904 -37.0162 83.0091
      vertex -55.3213 -1.0662 76.1432
    endloop
  endfacet
  facet normal -0.309017 -1.33164e-08 0.951057
    outer loop
      vertex -55.3213 -1.0662 76.1432
      vertex -0 -14.7979 94.1182
      vertex -21.1309 21.1521 87.2524
    endloop
  endfacet
  facet normal -0.309017 -1.33164e-08 0.951057
    outer loop
      vertex -0 -14.7979 94.1182
      vertex -55.3213 -1.0662 76.1432
      vertex -34.1904 -37.0162 83.0091
    endloop
  endfacet
  facet normal -0.525731 0.447214 0.723607
    outer loop
      vertex -55.3213 57.1021 40.1933
      vertex -21.1309 21.1521 87.2524
      vertex -21.1309 57.1021 65.0341
    endloop
  endfacet
  facet normal -0.525731 0.447214 0.723607
    outer loop
      vertex -76.4522 21.1521 47.0591
      vertex -21.1309 21.1521 87.2524
      vertex -55.3213 57.1021 40.1933
    endloop
  endfacet
  facet normal -0.525731 0.447214 0.723607
    outer loop
      vertex -21.1309 21.1521 87.2524
      vertex -76.4522 21.1521 47.0591
      vertex -55.3213 -1.0662 76.1432
    endloop
  endfacet
  facet normal 0 0.187592 0.982247
    outer loop
      vertex -0 -14.7979 94.1182
      vertex 21.1309 21.1521 87.2524
      vertex -21.1309 21.1521 87.2524
    endloop
  endfacet
  facet normal -0 0.525731 0.850651
    outer loop
      vertex -21.1309 57.1021 65.0341
      vertex 21.1309 21.1521 87.2524
      vertex 21.1309 57.1021 65.0341
    endloop
  endfacet
  facet normal 0 0.525731 0.850651
    outer loop
      vertex 21.1309 21.1521 87.2524
      vertex -21.1309 57.1021 65.0341
      vertex -21.1309 21.1521 87.2524
    endloop
  endfacet
  facet normal -0.947214 -0.0898056 -0.307768
    outer loop
      vertex -76.4522 -37.0162 -47.0591
      vertex -93.1213 5.07478 -8.03866
      vertex -80.0617 5.07478 -48.2319
    endloop
  endfacet
  facet normal -0.947214 -0.0898056 -0.307768
    outer loop
      vertex -93.1213 5.07478 -8.03866
      vertex -76.4522 -37.0162 -47.0591
      vertex -89.5117 -37.0162 -6.86583
    endloop
  endfacet
  facet normal -0.774597 -0.0838939 -0.626867
    outer loop
      vertex -76.4522 -37.0162 -47.0591
      vertex -80.0617 5.07478 -48.2319
      vertex -55.3213 -14.7979 -76.1432
    endloop
  endfacet
  facet normal -0.638197 0.235114 -0.733094
    outer loop
      vertex -80.0617 5.07478 -48.2319
      vertex -34.1904 21.1521 -83.0091
      vertex -55.3213 -14.7979 -76.1432
    endloop
  endfacet
  facet normal -0.638197 0.235114 -0.733094
    outer loop
      vertex -34.1904 21.1521 -83.0091
      vertex -80.0617 5.07478 -48.2319
      vertex -58.9309 41.0247 -55.0978
    endloop
  endfacet
  facet normal -0.850651 0.447214 -0.276393
    outer loop
      vertex -93.1213 5.07478 -8.03866
      vertex -58.9309 63.243 -19.1478
      vertex -58.9309 41.0247 -55.0978
    endloop
  endfacet
  facet normal -0.850651 0.447214 -0.276393
    outer loop
      vertex -93.1213 5.07478 -8.03866
      vertex -58.9309 41.0247 -55.0978
      vertex -80.0617 5.07478 -48.2319
    endloop
  endfacet
  facet normal -0.850651 0.447214 -0.276393
    outer loop
      vertex -58.9309 63.243 -19.1478
      vertex -93.1213 5.07478 -8.03866
      vertex -80.0617 41.0247 9.93632
    endloop
  endfacet
  facet normal -0.417775 0.523168 -0.742805
    outer loop
      vertex -58.9309 41.0247 -55.0978
      vertex -21.1309 57.1021 -65.0341
      vertex -34.1904 21.1521 -83.0091
    endloop
  endfacet
  facet normal 0 0.850651 -0.525731
    outer loop
      vertex 21.1309 57.1021 -65.0341
      vertex -21.1309 79.3204 -29.0841
      vertex 21.1309 79.3204 -29.0841
    endloop
  endfacet
  facet normal 0 0.850651 -0.525731
    outer loop
      vertex -21.1309 79.3204 -29.0841
      vertex 21.1309 57.1021 -65.0341
      vertex -21.1309 57.1021 -65.0341
    endloop
  endfacet
  facet normal -0.447214 0.760845 -0.470228
    outer loop
      vertex -21.1309 79.3204 -29.0841
      vertex -58.9309 41.0247 -55.0978
      vertex -58.9309 63.243 -19.1478
    endloop
  endfacet
  facet normal -0.447214 0.760845 -0.470228
    outer loop
      vertex -58.9309 41.0247 -55.0978
      vertex -21.1309 79.3204 -29.0841
      vertex -21.1309 57.1021 -65.0341
    endloop
  endfacet
  facet normal -0.417775 0.898353 -0.135743
    outer loop
      vertex -58.9309 63.243 -19.1478
      vertex -34.1904 79.3204 11.1091
      vertex -21.1309 79.3204 -29.0841
    endloop
  endfacet
  facet normal -0.309017 0.850651 0.425325
    outer loop
      vertex 0 79.3204 35.95
      vertex -55.3213 57.1021 40.1933
      vertex -21.1309 57.1021 65.0341
    endloop
  endfacet
  facet normal -0.309017 0.850651 0.425325
    outer loop
      vertex -55.3213 57.1021 40.1933
      vertex 0 79.3204 35.95
      vertex -34.1904 79.3204 11.1091
    endloop
  endfacet
  facet normal 0 1 0
    outer loop
      vertex 34.1904 79.3204 11.1091
      vertex -34.1904 79.3204 11.1091
      vertex 0 79.3204 35.95
    endloop
  endfacet
  facet normal 0 1 -0
    outer loop
      vertex 21.1309 79.3204 -29.0841
      vertex -34.1904 79.3204 11.1091
      vertex 34.1904 79.3204 11.1091
    endloop
  endfacet
  facet normal 0 1 0
    outer loop
      vertex -34.1904 79.3204 11.1091
      vertex 21.1309 79.3204 -29.0841
      vertex -21.1309 79.3204 -29.0841
    endloop
  endfacet
  facet normal -0 0.794654 0.607062
    outer loop
      vertex -21.1309 57.1021 65.0341
      vertex 21.1309 57.1021 65.0341
      vertex 0 79.3204 35.95
    endloop
  endfacet
  facet normal 0.309017 0.850651 0.425325
    outer loop
      vertex 55.3213 57.1021 40.1933
      vertex 0 79.3204 35.95
      vertex 21.1309 57.1021 65.0341
    endloop
  endfacet
  facet normal 0.309017 0.850651 0.425325
    outer loop
      vertex 0 79.3204 35.95
      vertex 55.3213 57.1021 40.1933
      vertex 34.1904 79.3204 11.1091
    endloop
  endfacet
  facet normal -0.309017 1.33164e-08 -0.951057
    outer loop
      vertex -55.3213 -14.7979 -76.1432
      vertex -0 -1.0662 -94.1182
      vertex -21.1309 -37.0162 -87.2524
    endloop
  endfacet
  facet normal -0.309017 1.33164e-08 -0.951057
    outer loop
      vertex -0 -1.0662 -94.1182
      vertex -55.3213 -14.7979 -76.1432
      vertex -34.1904 21.1521 -83.0091
    endloop
  endfacet
  facet normal 0 -0.187592 -0.982247
    outer loop
      vertex -21.1309 -37.0162 -87.2524
      vertex -0 -1.0662 -94.1182
      vertex 21.1309 -37.0162 -87.2524
    endloop
  endfacet
  facet normal 0.309017 1.33164e-08 -0.951057
    outer loop
      vertex -0 -1.0662 -94.1182
      vertex 55.3213 -14.7979 -76.1432
      vertex 21.1309 -37.0162 -87.2524
    endloop
  endfacet
  facet normal 0.309017 1.33164e-08 -0.951057
    outer loop
      vertex 55.3213 -14.7979 -76.1432
      vertex -0 -1.0662 -94.1182
      vertex 34.1904 21.1521 -83.0091
    endloop
  endfacet
  facet normal 1.45753e-08 0.447214 -0.894427
    outer loop
      vertex -0 -1.0662 -94.1182
      vertex 21.1309 57.1021 -65.0341
      vertex 34.1904 21.1521 -83.0091
    endloop
  endfacet
  facet normal 0 0.447214 -0.894427
    outer loop
      vertex -0 -1.0662 -94.1182
      vertex -21.1309 57.1021 -65.0341
      vertex 21.1309 57.1021 -65.0341
    endloop
  endfacet
  facet normal -1.45753e-08 0.447214 -0.894427
    outer loop
      vertex -21.1309 57.1021 -65.0341
      vertex -0 -1.0662 -94.1182
      vertex -34.1904 21.1521 -83.0091
    endloop
  endfacet
  facet normal 0.417775 0.523168 -0.742805
    outer loop
      vertex 21.1309 57.1021 -65.0341
      vertex 58.9309 41.0247 -55.0978
      vertex 34.1904 21.1521 -83.0091
    endloop
  endfacet
  facet normal 0.638197 0.235114 -0.733094
    outer loop
      vertex 34.1904 21.1521 -83.0091
      vertex 80.0617 5.07478 -48.2319
      vertex 55.3213 -14.7979 -76.1432
    endloop
  endfacet
  facet normal 0.638197 0.235114 -0.733094
    outer loop
      vertex 80.0617 5.07478 -48.2319
      vertex 34.1904 21.1521 -83.0091
      vertex 58.9309 41.0247 -55.0978
    endloop
  endfacet
  facet normal 0.447214 0.760845 -0.470228
    outer loop
      vertex 58.9309 41.0247 -55.0978
      vertex 21.1309 79.3204 -29.0841
      vertex 58.9309 63.243 -19.1478
    endloop
  endfacet
  facet normal 0.447214 0.760845 -0.470228
    outer loop
      vertex 21.1309 79.3204 -29.0841
      vertex 58.9309 41.0247 -55.0978
      vertex 21.1309 57.1021 -65.0341
    endloop
  endfacet
  facet normal 0.417775 0.898353 -0.135743
    outer loop
      vertex 21.1309 79.3204 -29.0841
      vertex 34.1904 79.3204 11.1091
      vertex 58.9309 63.243 -19.1478
    endloop
  endfacet
  facet normal 0.638197 0.760845 0.117557
    outer loop
      vertex 80.0617 41.0247 9.93632
      vertex 34.1904 79.3204 11.1091
      vertex 55.3213 57.1021 40.1933
    endloop
  endfacet
  facet normal 0.638197 0.760845 0.117557
    outer loop
      vertex 34.1904 79.3204 11.1091
      vertex 80.0617 41.0247 9.93632
      vertex 58.9309 63.243 -19.1478
    endloop
  endfacet
  facet normal 0.850651 0.447214 -0.276393
    outer loop
      vertex 93.1213 5.07478 -8.03866
      vertex 58.9309 63.243 -19.1478
      vertex 80.0617 41.0247 9.93632
    endloop
  endfacet
  facet normal 0.850651 0.447214 -0.276393
    outer loop
      vertex 58.9309 63.243 -19.1478
      vertex 93.1213 5.07478 -8.03866
      vertex 58.9309 41.0247 -55.0978
    endloop
  endfacet
  facet normal 0.850651 0.447214 -0.276393
    outer loop
      vertex 58.9309 41.0247 -55.0978
      vertex 93.1213 5.07478 -8.03866
      vertex 80.0617 5.07478 -48.2319
    endloop
  endfacet
  facet normal 0.774597 0.523168 0.35538
    outer loop
      vertex 55.3213 57.1021 40.1933
      vertex 76.4522 21.1521 47.0591
      vertex 80.0617 41.0247 9.93632
    endloop
  endfacet
  facet normal 0.947214 0.235114 0.217963
    outer loop
      vertex 76.4522 21.1521 47.0591
      vertex 93.1213 5.07478 -8.03866
      vertex 80.0617 41.0247 9.93632
    endloop
  endfacet
  facet normal 0.947214 0.235114 0.217963
    outer loop
      vertex 93.1213 5.07478 -8.03866
      vertex 76.4522 21.1521 47.0591
      vertex 89.5117 -14.7979 29.0841
    endloop
  endfacet
  facet normal 0 -0.525731 -0.850651
    outer loop
      vertex -21.1309 -72.9661 -65.0341
      vertex 21.1309 -37.0162 -87.2524
      vertex 21.1309 -72.9661 -65.0341
    endloop
  endfacet
  facet normal -0 -0.525731 -0.850651
    outer loop
      vertex 21.1309 -37.0162 -87.2524
      vertex -21.1309 -72.9661 -65.0341
      vertex -21.1309 -37.0162 -87.2524
    endloop
  endfacet
  facet normal 0 -1 0
    outer loop
      vertex -55.3213 -72.9661 40.1933
      vertex 21.1309 -72.9661 65.0341
      vertex -21.1309 -72.9661 65.0341
    endloop
  endfacet
  facet normal 0 -1 0
    outer loop
      vertex -55.3213 -72.9661 40.1933
      vertex 55.3213 -72.9661 40.1933
      vertex 21.1309 -72.9661 65.0341
    endloop
  endfacet
  facet normal 0 -1 0
    outer loop
      vertex -68.3809 -72.9661 0
      vertex 55.3213 -72.9661 40.1933
      vertex -55.3213 -72.9661 40.1933
    endloop
  endfacet
  facet normal 0 -1 0
    outer loop
      vertex -68.3809 -72.9661 0
      vertex 68.3809 -72.9661 0
      vertex 55.3213 -72.9661 40.1933
    endloop
  endfacet
  facet normal 0 -1 0
    outer loop
      vertex -55.3213 -72.9661 -40.1933
      vertex 68.3809 -72.9661 0
      vertex -68.3809 -72.9661 0
    endloop
  endfacet
  facet normal 0 -1 0
    outer loop
      vertex -55.3213 -72.9661 -40.1933
      vertex 55.3213 -72.9661 -40.1933
      vertex 68.3809 -72.9661 0
    endloop
  endfacet
  facet normal 0 -1 0
    outer loop
      vertex -21.1309 -72.9661 -65.0341
      vertex 55.3213 -72.9661 -40.1933
      vertex -55.3213 -72.9661 -40.1933
    endloop
  endfacet
  facet normal 0 -1 0
    outer loop
      vertex 55.3213 -72.9661 -40.1933
      vertex -21.1309 -72.9661 -65.0341
      vertex 21.1309 -72.9661 -65.0341
    endloop
  endfacet
  facet normal 0.525731 -0.447214 -0.723607
    outer loop
      vertex 21.1309 -37.0162 -87.2524
      vertex 76.4522 -37.0162 -47.0591
      vertex 55.3213 -72.9661 -40.1933
    endloop
  endfacet
  facet normal 0.525731 -0.447214 -0.723607
    outer loop
      vertex 21.1309 -37.0162 -87.2524
      vertex 55.3213 -72.9661 -40.1933
      vertex 21.1309 -72.9661 -65.0341
    endloop
  endfacet
  facet normal 0.525731 -0.447214 -0.723607
    outer loop
      vertex 76.4522 -37.0162 -47.0591
      vertex 21.1309 -37.0162 -87.2524
      vertex 55.3213 -14.7979 -76.1432
    endloop
  endfacet
  facet normal 0.809017 -0.525731 -0.262866
    outer loop
      vertex 55.3213 -72.9661 -40.1933
      vertex 89.5117 -37.0162 -6.86583
      vertex 68.3809 -72.9661 0
    endloop
  endfacet
  facet normal 0.809017 -0.525731 -0.262866
    outer loop
      vertex 89.5117 -37.0162 -6.86583
      vertex 55.3213 -72.9661 -40.1933
      vertex 76.4522 -37.0162 -47.0591
    endloop
  endfacet
  facet normal 0.774597 -0.0838939 -0.626867
    outer loop
      vertex 55.3213 -14.7979 -76.1432
      vertex 80.0617 5.07478 -48.2319
      vertex 76.4522 -37.0162 -47.0591
    endloop
  endfacet
  facet normal 0.947214 -0.0898056 -0.307768
    outer loop
      vertex 76.4522 -37.0162 -47.0591
      vertex 93.1213 5.07478 -8.03866
      vertex 89.5117 -37.0162 -6.86583
    endloop
  endfacet
  facet normal 0.947214 -0.0898056 -0.307768
    outer loop
      vertex 93.1213 5.07478 -8.03866
      vertex 76.4522 -37.0162 -47.0591
      vertex 80.0617 5.07478 -48.2319
    endloop
  endfacet
  facet normal 0.850651 -0.447214 0.276393
    outer loop
      vertex 55.3213 -72.9661 40.1933
      vertex 89.5117 -14.7979 29.0841
      vertex 68.3809 -37.0162 58.1683
    endloop
  endfacet
  facet normal 0.850651 -0.447214 0.276393
    outer loop
      vertex 89.5117 -14.7979 29.0841
      vertex 55.3213 -72.9661 40.1933
      vertex 89.5117 -37.0162 -6.86583
    endloop
  endfacet
  facet normal 0.850651 -0.447214 0.276393
    outer loop
      vertex 89.5117 -37.0162 -6.86583
      vertex 55.3213 -72.9661 40.1933
      vertex 68.3809 -72.9661 0
    endloop
  endfacet
  facet normal 0.995125 -0.0838939 0.0518493
    outer loop
      vertex 93.1213 5.07478 -8.03866
      vertex 89.5117 -14.7979 29.0841
      vertex 89.5117 -37.0162 -6.86583
    endloop
  endfacet
  facet normal 0.809017 -2.56892e-08 0.587785
    outer loop
      vertex 55.3213 -1.0662 76.1432
      vertex 89.5117 -14.7979 29.0841
      vertex 76.4522 21.1521 47.0591
    endloop
  endfacet
  facet normal 0.809017 -6.22016e-08 0.587785
    outer loop
      vertex 89.5117 -14.7979 29.0841
      vertex 55.3213 -1.0662 76.1432
      vertex 68.3809 -37.0162 58.1683
    endloop
  endfacet
  facet normal -0.5 -0.525731 0.688191
    outer loop
      vertex -34.1904 -37.0162 83.0091
      vertex -55.3213 -72.9661 40.1933
      vertex -21.1309 -72.9661 65.0341
    endloop
  endfacet
  facet normal -0.5 -0.525731 0.688191
    outer loop
      vertex -55.3213 -72.9661 40.1933
      vertex -34.1904 -37.0162 83.0091
      vertex -68.3809 -37.0162 58.1683
    endloop
  endfacet
  facet normal 0.5 -0.525731 0.688191
    outer loop
      vertex 34.1904 -37.0162 83.0091
      vertex 55.3213 -72.9661 40.1933
      vertex 68.3809 -37.0162 58.1683
    endloop
  endfacet
  facet normal 0.5 -0.525731 0.688191
    outer loop
      vertex 55.3213 -72.9661 40.1933
      vertex 34.1904 -37.0162 83.0091
      vertex 21.1309 -72.9661 65.0341
    endloop
  endfacet
  facet normal -2.55107e-08 -0.447214 0.894427
    outer loop
      vertex -0 -14.7979 94.1182
      vertex 21.1309 -72.9661 65.0341
      vertex 34.1904 -37.0162 83.0091
    endloop
  endfacet
  facet normal 0 -0.447214 0.894427
    outer loop
      vertex -0 -14.7979 94.1182
      vertex -21.1309 -72.9661 65.0341
      vertex 21.1309 -72.9661 65.0341
    endloop
  endfacet
  facet normal 2.55107e-08 -0.447214 0.894427
    outer loop
      vertex -21.1309 -72.9661 65.0341
      vertex -0 -14.7979 94.1182
      vertex -34.1904 -37.0162 83.0091
    endloop
  endfacet
  facet normal 0.57735 -0.187593 0.794654
    outer loop
      vertex 68.3809 -37.0162 58.1683
      vertex 55.3213 -1.0662 76.1432
      vertex 34.1904 -37.0162 83.0091
    endloop
  endfacet
  facet normal 0.309017 -1.33164e-08 0.951057
    outer loop
      vertex -0 -14.7979 94.1182
      vertex 55.3213 -1.0662 76.1432
      vertex 21.1309 21.1521 87.2524
    endloop
  endfacet
  facet normal 0.309017 -1.33164e-08 0.951057
    outer loop
      vertex 55.3213 -1.0662 76.1432
      vertex -0 -14.7979 94.1182
      vertex 34.1904 -37.0162 83.0091
    endloop
  endfacet
  facet normal -0.525731 -0.447214 -0.723607
    outer loop
      vertex -55.3213 -72.9661 -40.1933
      vertex -21.1309 -37.0162 -87.2524
      vertex -21.1309 -72.9661 -65.0341
    endloop
  endfacet
  facet normal -0.525731 -0.447214 -0.723607
    outer loop
      vertex -76.4522 -37.0162 -47.0591
      vertex -21.1309 -37.0162 -87.2524
      vertex -55.3213 -72.9661 -40.1933
    endloop
  endfacet
  facet normal -0.525731 -0.447214 -0.723607
    outer loop
      vertex -21.1309 -37.0162 -87.2524
      vertex -76.4522 -37.0162 -47.0591
      vertex -55.3213 -14.7979 -76.1432
    endloop
  endfacet
  facet normal 0.525731 0.447214 0.723607
    outer loop
      vertex 21.1309 21.1521 87.2524
      vertex 76.4522 21.1521 47.0591
      vertex 55.3213 57.1021 40.1933
    endloop
  endfacet
  facet normal 0.525731 0.447214 0.723607
    outer loop
      vertex 21.1309 21.1521 87.2524
      vertex 55.3213 57.1021 40.1933
      vertex 21.1309 57.1021 65.0341
    endloop
  endfacet
  facet normal 0.525731 0.447214 0.723607
    outer loop
      vertex 76.4522 21.1521 47.0591
      vertex 21.1309 21.1521 87.2524
      vertex 55.3213 -1.0662 76.1432
    endloop
  endfacet
endsolid OpenSCAD_Model
