solid OpenSCAD_Model
  facet normal 0 -1 0
    outer loop
      vertex -76.4995 -32.5372 55.5802
      vertex 29.2202 -32.5372 89.9306
      vertex -29.2202 -32.5372 89.9306
    endloop
  endfacet
  facet normal 0 -1 0
    outer loop
      vertex -76.4995 -32.5372 55.5802
      vertex 76.4995 -32.5372 55.5802
      vertex 29.2202 -32.5372 89.9306
    endloop
  endfacet
  facet normal 0 -1 0
    outer loop
      vertex -94.5586 -32.5372 0
      vertex 76.4995 -32.5372 55.5802
      vertex -76.4995 -32.5372 55.5802
    endloop
  endfacet
  facet normal 0 -1 0
    outer loop
      vertex -94.5586 -32.5372 0
      vertex 94.5586 -32.5372 0
      vertex 76.4995 -32.5372 55.5802
    endloop
  endfacet
  facet normal 0 -1 0
    outer loop
      vertex -76.4995 -32.5372 -55.5802
      vertex 94.5586 -32.5372 0
      vertex -94.5586 -32.5372 0
    endloop
  endfacet
  facet normal 0 -1 0
    outer loop
      vertex -76.4995 -32.5372 -55.5802
      vertex 76.4995 -32.5372 -55.5802
      vertex 94.5586 -32.5372 0
    endloop
  endfacet
  facet normal 0 -1 0
    outer loop
      vertex -29.2202 -32.5372 -89.9306
      vertex 76.4995 -32.5372 -55.5802
      vertex -76.4995 -32.5372 -55.5802
    endloop
  endfacet
  facet normal 0 -1 0
    outer loop
      vertex 76.4995 -32.5372 -55.5802
      vertex -29.2202 -32.5372 -89.9306
      vertex 29.2202 -32.5372 -89.9306
    endloop
  endfacet
  facet normal 0 1 0
    outer loop
      vertex 47.2793 47.8992 -15.362
      vertex -29.2202 47.8992 40.2182
      vertex 29.2202 47.8992 40.2182
    endloop
  endfacet
  facet normal 0 1 0
    outer loop
      vertex 47.2793 47.8992 -15.362
      vertex -47.2793 47.8992 -15.362
      vertex -29.2202 47.8992 40.2182
    endloop
  endfacet
  facet normal -0 1 0
    outer loop
      vertex -47.2793 47.8992 -15.362
      vertex 47.2793 47.8992 -15.362
      vertex 0 47.8992 -49.7124
    endloop
  endfacet
  facet normal -0.525731 0.447214 0.723607
    outer loop
      vertex -76.4995 17.1752 24.8562
      vertex 0 17.1752 80.4364
      vertex -29.2202 47.8992 40.2182
    endloop
  endfacet
  facet normal -0.525731 0.447214 0.723607
    outer loop
      vertex 0 17.1752 80.4364
      vertex -76.4995 17.1752 24.8562
      vertex -29.2202 -32.5372 89.9306
    endloop
  endfacet
  facet normal -0.525731 0.447214 0.723607
    outer loop
      vertex -29.2202 -32.5372 89.9306
      vertex -76.4995 17.1752 24.8562
      vertex -76.4995 -32.5372 55.5802
    endloop
  endfacet
  facet normal -0 0.794654 0.607062
    outer loop
      vertex -29.2202 47.8992 40.2182
      vertex 0 17.1752 80.4364
      vertex 29.2202 47.8992 40.2182
    endloop
  endfacet
  facet normal 0 0.187592 0.982247
    outer loop
      vertex 0 17.1752 80.4364
      vertex -29.2202 -32.5372 89.9306
      vertex 29.2202 -32.5372 89.9306
    endloop
  endfacet
  facet normal 0.525731 0.447214 0.723607
    outer loop
      vertex 0 17.1752 80.4364
      vertex 76.4995 17.1752 24.8562
      vertex 29.2202 47.8992 40.2182
    endloop
  endfacet
  facet normal 0.525731 0.447214 0.723607
    outer loop
      vertex 76.4995 17.1752 24.8562
      vertex 29.2202 -32.5372 89.9306
      vertex 76.4995 -32.5372 55.5802
    endloop
  endfacet
  facet normal 0.525731 0.447214 0.723607
    outer loop
      vertex 76.4995 17.1752 24.8562
      vertex 0 17.1752 80.4364
      vertex 29.2202 -32.5372 89.9306
    endloop
  endfacet
  facet normal 0.57735 0.794654 0.187592
    outer loop
      vertex 29.2202 47.8992 40.2182
      vertex 76.4995 17.1752 24.8562
      vertex 47.2793 47.8992 -15.362
    endloop
  endfacet
  facet normal 0.934172 0.187592 0.303531
    outer loop
      vertex 76.4995 17.1752 24.8562
      vertex 76.4995 -32.5372 55.5802
      vertex 94.5586 -32.5372 0
    endloop
  endfacet
  facet normal 0.850651 0.447214 -0.276393
    outer loop
      vertex 94.5586 -32.5372 0
      vertex 47.2793 47.8992 -15.362
      vertex 76.4995 17.1752 24.8562
    endloop
  endfacet
  facet normal 0.850651 0.447214 -0.276393
    outer loop
      vertex 47.2793 47.8992 -15.362
      vertex 94.5586 -32.5372 0
      vertex 47.2793 17.1752 -65.0744
    endloop
  endfacet
  facet normal 0.850651 0.447214 -0.276393
    outer loop
      vertex 47.2793 17.1752 -65.0744
      vertex 94.5586 -32.5372 0
      vertex 76.4995 -32.5372 -55.5802
    endloop
  endfacet
  facet normal 0.356822 0.794654 -0.491124
    outer loop
      vertex 47.2793 47.8992 -15.362
      vertex 47.2793 17.1752 -65.0744
      vertex 0 47.8992 -49.7124
    endloop
  endfacet
  facet normal 0.57735 0.187593 -0.794654
    outer loop
      vertex 47.2793 17.1752 -65.0744
      vertex 76.4995 -32.5372 -55.5802
      vertex 29.2202 -32.5372 -89.9306
    endloop
  endfacet
  facet normal 1.59742e-07 0.447214 -0.894427
    outer loop
      vertex 29.2202 -32.5372 -89.9306
      vertex 0 47.8992 -49.7124
      vertex 47.2793 17.1752 -65.0744
    endloop
  endfacet
  facet normal 0 0.447214 -0.894427
    outer loop
      vertex -29.2202 -32.5372 -89.9306
      vertex 0 47.8992 -49.7124
      vertex 29.2202 -32.5372 -89.9306
    endloop
  endfacet
  facet normal -1.59742e-07 0.447214 -0.894427
    outer loop
      vertex 0 47.8992 -49.7124
      vertex -29.2202 -32.5372 -89.9306
      vertex -47.2793 17.1752 -65.0744
    endloop
  endfacet
  facet normal -0.356822 0.794654 -0.491124
    outer loop
      vertex 0 47.8992 -49.7124
      vertex -47.2793 17.1752 -65.0744
      vertex -47.2793 47.8992 -15.362
    endloop
  endfacet
  facet normal -0.57735 0.187593 -0.794654
    outer loop
      vertex -47.2793 17.1752 -65.0744
      vertex -29.2202 -32.5372 -89.9306
      vertex -76.4995 -32.5372 -55.5802
    endloop
  endfacet
  facet normal -0.850651 0.447214 -0.276393
    outer loop
      vertex -94.5586 -32.5372 0
      vertex -47.2793 47.8992 -15.362
      vertex -47.2793 17.1752 -65.0744
    endloop
  endfacet
  facet normal -0.850651 0.447214 -0.276393
    outer loop
      vertex -94.5586 -32.5372 0
      vertex -47.2793 17.1752 -65.0744
      vertex -76.4995 -32.5372 -55.5802
    endloop
  endfacet
  facet normal -0.850651 0.447214 -0.276393
    outer loop
      vertex -47.2793 47.8992 -15.362
      vertex -94.5586 -32.5372 0
      vertex -76.4995 17.1752 24.8562
    endloop
  endfacet
  facet normal -0.57735 0.794654 0.187592
    outer loop
      vertex -47.2793 47.8992 -15.362
      vertex -76.4995 17.1752 24.8562
      vertex -29.2202 47.8992 40.2182
    endloop
  endfacet
  facet normal -0.934172 0.187592 0.303531
    outer loop
      vertex -76.4995 17.1752 24.8562
      vertex -94.5586 -32.5372 0
      vertex -76.4995 -32.5372 55.5802
    endloop
  endfacet
endsolid OpenSCAD_Model
