solid OpenSCAD_Model
  facet normal 0 -1 0
    outer loop
      vertex -38.7169 -70.9747 28.1294
      vertex 47.8567 -70.9747 0
      vertex 14.7885 -70.9747 45.5144
    endloop
  endfacet
  facet normal 0 -1 0
    outer loop
      vertex -38.7169 -70.9747 -28.1294
      vertex 47.8567 -70.9747 0
      vertex -38.7169 -70.9747 28.1294
    endloop
  endfacet
  facet normal 0 -1 0
    outer loop
      vertex 47.8567 -70.9747 0
      vertex -38.7169 -70.9747 -28.1294
      vertex 14.7885 -70.9747 -45.5144
    endloop
  endfacet
  facet normal -0.16246 -0.850651 -0.5
    outer loop
      vertex -53.5054 -41.3976 -73.6438
      vertex 14.7885 -70.9747 -45.5144
      vertex -38.7169 -70.9747 -28.1294
    endloop
  endfacet
  facet normal -0.16246 -0.850651 -0.5
    outer loop
      vertex 14.7885 -70.9747 -45.5144
      vertex -53.5054 -41.3976 -73.6438
      vertex -0 -41.3976 -91.0288
    endloop
  endfacet
  facet normal 0.187592 -0.794654 -0.57735
    outer loop
      vertex 14.7885 -70.9747 -45.5144
      vertex -0 -41.3976 -91.0288
      vertex 53.5054 -41.3976 -73.6438
    endloop
  endfacet
  facet normal 0.425325 -0.850651 -0.309017
    outer loop
      vertex 14.7885 -70.9747 -45.5144
      vertex 86.5735 -41.3976 -28.1294
      vertex 47.8567 -70.9747 0
    endloop
  endfacet
  facet normal 0.425325 -0.850651 -0.309017
    outer loop
      vertex 86.5735 -41.3976 -28.1294
      vertex 14.7885 -70.9747 -45.5144
      vertex 53.5054 -41.3976 -73.6438
    endloop
  endfacet
  facet normal 0.607062 -0.794654 0
    outer loop
      vertex 47.8567 -70.9747 0
      vertex 86.5735 -41.3976 -28.1294
      vertex 86.5735 -41.3976 28.1294
    endloop
  endfacet
  facet normal 0.425325 -0.850651 0.309017
    outer loop
      vertex 14.7885 -70.9747 45.5144
      vertex 86.5735 -41.3976 28.1294
      vertex 53.5054 -41.3976 73.6438
    endloop
  endfacet
  facet normal 0.425325 -0.850651 0.309017
    outer loop
      vertex 86.5735 -41.3976 28.1294
      vertex 14.7885 -70.9747 45.5144
      vertex 47.8567 -70.9747 0
    endloop
  endfacet
  facet normal 0.187592 -0.794654 0.57735
    outer loop
      vertex 14.7885 -70.9747 45.5144
      vertex 53.5054 -41.3976 73.6438
      vertex -0 -41.3976 91.0288
    endloop
  endfacet
  facet normal -0.16246 -0.850651 0.5
    outer loop
      vertex -53.5054 -41.3976 73.6438
      vertex 14.7885 -70.9747 45.5144
      vertex -0 -41.3976 91.0288
    endloop
  endfacet
  facet normal -0.16246 -0.850651 0.5
    outer loop
      vertex 14.7885 -70.9747 45.5144
      vertex -53.5054 -41.3976 73.6438
      vertex -38.7169 -70.9747 28.1294
    endloop
  endfacet
  facet normal -0.491124 -0.794654 0.356822
    outer loop
      vertex -38.7169 -70.9747 28.1294
      vertex -53.5054 -41.3976 73.6438
      vertex -86.5735 -41.3976 28.1294
    endloop
  endfacet
  facet normal -0.525731 -0.850651 0
    outer loop
      vertex -86.5735 -41.3976 -28.1294
      vertex -38.7169 -70.9747 28.1294
      vertex -86.5735 -41.3976 28.1294
    endloop
  endfacet
  facet normal -0.525731 -0.850651 -0
    outer loop
      vertex -38.7169 -70.9747 28.1294
      vertex -86.5735 -41.3976 -28.1294
      vertex -38.7169 -70.9747 -28.1294
    endloop
  endfacet
  facet normal -0.491124 -0.794654 -0.356822
    outer loop
      vertex -38.7169 -70.9747 -28.1294
      vertex -86.5735 -41.3976 -28.1294
      vertex -53.5054 -41.3976 -73.6438
    endloop
  endfacet
  facet normal 0 1 0
    outer loop
      vertex 45.5144 84.5536 -14.7885
      vertex -28.1294 84.5536 38.7169
      vertex 28.1294 84.5536 38.7169
    endloop
  endfacet
  facet normal 0 1 0
    outer loop
      vertex 45.5144 84.5536 -14.7885
      vertex -45.5144 84.5536 -14.7885
      vertex -28.1294 84.5536 38.7169
    endloop
  endfacet
  facet normal -0 1 0
    outer loop
      vertex -45.5144 84.5536 -14.7885
      vertex 45.5144 84.5536 -14.7885
      vertex 0 84.5536 -47.8567
    endloop
  endfacet
  facet normal 3.26665e-08 0.447214 -0.894427
    outer loop
      vertex 28.1294 7.11988 -86.5735
      vertex 0 84.5536 -47.8567
      vertex 45.5144 54.9765 -62.6452
    endloop
  endfacet
  facet normal 0 0.447214 -0.894427
    outer loop
      vertex -28.1294 7.11988 -86.5735
      vertex 0 84.5536 -47.8567
      vertex 28.1294 7.11988 -86.5735
    endloop
  endfacet
  facet normal -3.26665e-08 0.447214 -0.894427
    outer loop
      vertex 0 84.5536 -47.8567
      vertex -28.1294 7.11988 -86.5735
      vertex -45.5144 54.9765 -62.6452
    endloop
  endfacet
  facet normal -0.356822 0.794654 -0.491124
    outer loop
      vertex 0 84.5536 -47.8567
      vertex -45.5144 54.9765 -62.6452
      vertex -45.5144 84.5536 -14.7885
    endloop
  endfacet
  facet normal -0.57735 0.187592 -0.794654
    outer loop
      vertex -45.5144 54.9765 -62.6452
      vertex -28.1294 7.11988 -86.5735
      vertex -73.6438 7.11988 -53.5054
    endloop
  endfacet
  facet normal -0.850651 0.447214 -0.276393
    outer loop
      vertex -91.0288 7.11988 0
      vertex -45.5144 84.5536 -14.7885
      vertex -45.5144 54.9765 -62.6452
    endloop
  endfacet
  facet normal -0.850651 0.447214 -0.276393
    outer loop
      vertex -91.0288 7.11988 0
      vertex -45.5144 54.9765 -62.6452
      vertex -73.6438 7.11988 -53.5054
    endloop
  endfacet
  facet normal -0.850651 0.447214 -0.276393
    outer loop
      vertex -45.5144 84.5536 -14.7885
      vertex -91.0288 7.11988 0
      vertex -73.6438 54.9765 23.9283
    endloop
  endfacet
  facet normal -0.57735 0.794654 0.187592
    outer loop
      vertex -45.5144 84.5536 -14.7885
      vertex -73.6438 54.9765 23.9283
      vertex -28.1294 84.5536 38.7169
    endloop
  endfacet
  facet normal -0.934172 0.187592 0.303531
    outer loop
      vertex -73.6438 54.9765 23.9283
      vertex -91.0288 7.11988 0
      vertex -73.6438 7.11988 53.5054
    endloop
  endfacet
  facet normal -0.525731 0.447214 0.723607
    outer loop
      vertex -73.6438 54.9765 23.9283
      vertex 0 54.9765 77.4337
      vertex -28.1294 84.5536 38.7169
    endloop
  endfacet
  facet normal -0.525731 0.447214 0.723607
    outer loop
      vertex 0 54.9765 77.4337
      vertex -73.6438 54.9765 23.9283
      vertex -28.1294 7.11988 86.5735
    endloop
  endfacet
  facet normal -0.525731 0.447214 0.723607
    outer loop
      vertex -28.1294 7.11988 86.5735
      vertex -73.6438 54.9765 23.9283
      vertex -73.6438 7.11988 53.5054
    endloop
  endfacet
  facet normal -0 0.794654 0.607062
    outer loop
      vertex -28.1294 84.5536 38.7169
      vertex 0 54.9765 77.4337
      vertex 28.1294 84.5536 38.7169
    endloop
  endfacet
  facet normal 0 0.187592 0.982247
    outer loop
      vertex 0 54.9765 77.4337
      vertex -28.1294 7.11988 86.5735
      vertex 28.1294 7.11988 86.5735
    endloop
  endfacet
  facet normal 0.525731 0.447214 0.723607
    outer loop
      vertex 0 54.9765 77.4337
      vertex 73.6438 54.9765 23.9283
      vertex 28.1294 84.5536 38.7169
    endloop
  endfacet
  facet normal 0.525731 0.447214 0.723607
    outer loop
      vertex 73.6438 54.9765 23.9283
      vertex 28.1294 7.11988 86.5735
      vertex 73.6438 7.11988 53.5054
    endloop
  endfacet
  facet normal 0.525731 0.447214 0.723607
    outer loop
      vertex 73.6438 54.9765 23.9283
      vertex 0 54.9765 77.4337
      vertex 28.1294 7.11988 86.5735
    endloop
  endfacet
  facet normal 0.57735 0.794654 0.187592
    outer loop
      vertex 28.1294 84.5536 38.7169
      vertex 73.6438 54.9765 23.9283
      vertex 45.5144 84.5536 -14.7885
    endloop
  endfacet
  facet normal 0.934172 0.187592 0.303531
    outer loop
      vertex 73.6438 54.9765 23.9283
      vertex 73.6438 7.11988 53.5054
      vertex 91.0288 7.11988 0
    endloop
  endfacet
  facet normal 0.850651 0.447214 -0.276393
    outer loop
      vertex 91.0288 7.11988 0
      vertex 45.5144 84.5536 -14.7885
      vertex 73.6438 54.9765 23.9283
    endloop
  endfacet
  facet normal 0.850651 0.447214 -0.276393
    outer loop
      vertex 45.5144 84.5536 -14.7885
      vertex 91.0288 7.11988 0
      vertex 45.5144 54.9765 -62.6452
    endloop
  endfacet
  facet normal 0.850651 0.447214 -0.276393
    outer loop
      vertex 45.5144 54.9765 -62.6452
      vertex 91.0288 7.11988 0
      vertex 73.6438 7.11988 -53.5054
    endloop
  endfacet
  facet normal 0.356822 0.794654 -0.491124
    outer loop
      vertex 45.5144 84.5536 -14.7885
      vertex 45.5144 54.9765 -62.6452
      vertex 0 84.5536 -47.8567
    endloop
  endfacet
  facet normal 0.57735 0.187592 -0.794654
    outer loop
      vertex 45.5144 54.9765 -62.6452
      vertex 73.6438 7.11988 -53.5054
      vertex 28.1294 7.11988 -86.5735
    endloop
  endfacet
  facet normal 0.307722 -0.0914432 0.947072
    outer loop
      vertex 53.5054 -41.3976 73.6438
      vertex 28.1294 7.11988 86.5735
      vertex -0 -41.3976 91.0288
    endloop
  endfacet
  facet normal 0 0.0914434 0.99581
    outer loop
      vertex -0 -41.3976 91.0288
      vertex 28.1294 7.11988 86.5735
      vertex -28.1294 7.11988 86.5735
    endloop
  endfacet
  facet normal -0.307722 -0.0914432 0.947072
    outer loop
      vertex -0 -41.3976 91.0288
      vertex -28.1294 7.11988 86.5735
      vertex -53.5054 -41.3976 73.6438
    endloop
  endfacet
  facet normal -0.585323 0.0914433 0.805627
    outer loop
      vertex -53.5054 -41.3976 73.6438
      vertex -28.1294 7.11988 86.5735
      vertex -73.6438 7.11988 53.5054
    endloop
  endfacet
  facet normal -0.805627 -0.0914433 0.585323
    outer loop
      vertex -53.5054 -41.3976 73.6438
      vertex -73.6438 7.11988 53.5054
      vertex -86.5735 -41.3976 28.1294
    endloop
  endfacet
  facet normal -0.947072 0.0914432 0.307722
    outer loop
      vertex -86.5735 -41.3976 28.1294
      vertex -73.6438 7.11988 53.5054
      vertex -91.0288 7.11988 0
    endloop
  endfacet
  facet normal -0.99581 -0.0914434 -0
    outer loop
      vertex -86.5735 -41.3976 28.1294
      vertex -91.0288 7.11988 0
      vertex -86.5735 -41.3976 -28.1294
    endloop
  endfacet
  facet normal -0.947072 0.0914432 -0.307722
    outer loop
      vertex -86.5735 -41.3976 -28.1294
      vertex -91.0288 7.11988 0
      vertex -73.6438 7.11988 -53.5054
    endloop
  endfacet
  facet normal -0.805627 -0.0914433 -0.585323
    outer loop
      vertex -86.5735 -41.3976 -28.1294
      vertex -73.6438 7.11988 -53.5054
      vertex -53.5054 -41.3976 -73.6438
    endloop
  endfacet
  facet normal -0.585323 0.0914433 -0.805627
    outer loop
      vertex -53.5054 -41.3976 -73.6438
      vertex -73.6438 7.11988 -53.5054
      vertex -28.1294 7.11988 -86.5735
    endloop
  endfacet
  facet normal -0.307722 -0.0914432 -0.947072
    outer loop
      vertex -53.5054 -41.3976 -73.6438
      vertex -28.1294 7.11988 -86.5735
      vertex -0 -41.3976 -91.0288
    endloop
  endfacet
  facet normal 0 0.0914434 -0.99581
    outer loop
      vertex -0 -41.3976 -91.0288
      vertex -28.1294 7.11988 -86.5735
      vertex 28.1294 7.11988 -86.5735
    endloop
  endfacet
  facet normal 0.307722 -0.0914432 -0.947072
    outer loop
      vertex -0 -41.3976 -91.0288
      vertex 28.1294 7.11988 -86.5735
      vertex 53.5054 -41.3976 -73.6438
    endloop
  endfacet
  facet normal 0.585323 0.0914433 -0.805627
    outer loop
      vertex 53.5054 -41.3976 -73.6438
      vertex 28.1294 7.11988 -86.5735
      vertex 73.6438 7.11988 -53.5054
    endloop
  endfacet
  facet normal 0.805627 -0.0914433 -0.585323
    outer loop
      vertex 53.5054 -41.3976 -73.6438
      vertex 73.6438 7.11988 -53.5054
      vertex 86.5735 -41.3976 -28.1294
    endloop
  endfacet
  facet normal 0.947072 0.0914432 -0.307722
    outer loop
      vertex 86.5735 -41.3976 -28.1294
      vertex 73.6438 7.11988 -53.5054
      vertex 91.0288 7.11988 0
    endloop
  endfacet
  facet normal 0.99581 -0.0914434 0
    outer loop
      vertex 86.5735 -41.3976 -28.1294
      vertex 91.0288 7.11988 0
      vertex 86.5735 -41.3976 28.1294
    endloop
  endfacet
  facet normal 0.947072 0.0914432 0.307722
    outer loop
      vertex 86.5735 -41.3976 28.1294
      vertex 91.0288 7.11988 0
      vertex 73.6438 7.11988 53.5054
    endloop
  endfacet
  facet normal 0.805627 -0.0914433 0.585323
    outer loop
      vertex 86.5735 -41.3976 28.1294
      vertex 73.6438 7.11988 53.5054
      vertex 53.5054 -41.3976 73.6438
    endloop
  endfacet
  facet normal 0.585323 0.0914433 0.805627
    outer loop
      vertex 53.5054 -41.3976 73.6438
      vertex 73.6438 7.11988 53.5054
      vertex 28.1294 7.11988 86.5735
    endloop
  endfacet
endsolid OpenSCAD_Model
