solid OpenSCAD_Model
  facet normal -0 1 0
    outer loop
      vertex -34.7818 91.5804 20.0813
      vertex 34.7818 91.5804 20.0813
      vertex 0 91.5804 -40.1626
    endloop
  endfacet
  facet normal -0 0.57735 0.816497
    outer loop
      vertex -34.7818 91.5804 20.0813
      vertex 34.7818 34.7818 60.2439
      vertex 34.7818 91.5804 20.0813
    endloop
  endfacet
  facet normal 0 0.57735 0.816497
    outer loop
      vertex 34.7818 34.7818 60.2439
      vertex -34.7818 91.5804 20.0813
      vertex -34.7818 34.7818 60.2439
    endloop
  endfacet
  facet normal 0.816497 0.333333 0.471405
    outer loop
      vertex 34.7818 91.5804 20.0813
      vertex 34.7818 34.7818 60.2439
      vertex 69.5637 34.7818 0
    endloop
  endfacet
  facet normal 0.707107 0.57735 -0.408248
    outer loop
      vertex 69.5637 34.7818 0
      vertex 0 91.5804 -40.1626
      vertex 34.7818 91.5804 20.0813
    endloop
  endfacet
  facet normal 0.707107 0.57735 -0.408248
    outer loop
      vertex 0 91.5804 -40.1626
      vertex 69.5637 34.7818 0
      vertex 34.7818 34.7818 -60.2439
    endloop
  endfacet
  facet normal 0 0.333333 -0.942809
    outer loop
      vertex 0 91.5804 -40.1626
      vertex 34.7818 34.7818 -60.2439
      vertex -34.7818 34.7818 -60.2439
    endloop
  endfacet
  facet normal -0.707107 0.57735 -0.408248
    outer loop
      vertex -69.5637 34.7818 0
      vertex 0 91.5804 -40.1626
      vertex -34.7818 34.7818 -60.2439
    endloop
  endfacet
  facet normal -0.707107 0.57735 -0.408248
    outer loop
      vertex 0 91.5804 -40.1626
      vertex -69.5637 34.7818 0
      vertex -34.7818 91.5804 20.0813
    endloop
  endfacet
  facet normal -0.816497 0.333333 0.471405
    outer loop
      vertex -34.7818 91.5804 20.0813
      vertex -69.5637 34.7818 0
      vertex -34.7818 34.7818 60.2439
    endloop
  endfacet
  facet normal 0 -1 0
    outer loop
      vertex 34.7818 -91.5804 -20.0813
      vertex -0 -91.5804 40.1626
      vertex -34.7818 -91.5804 -20.0813
    endloop
  endfacet
  facet normal 0.707107 -0.57735 0.408248
    outer loop
      vertex -0 -91.5804 40.1626
      vertex 69.5637 -34.7818 0
      vertex 34.7818 -34.7818 60.2439
    endloop
  endfacet
  facet normal 0.707107 -0.57735 0.408248
    outer loop
      vertex 69.5637 -34.7818 0
      vertex -0 -91.5804 40.1626
      vertex 34.7818 -91.5804 -20.0813
    endloop
  endfacet
  facet normal 0 -0.333333 0.942809
    outer loop
      vertex -0 -91.5804 40.1626
      vertex 34.7818 -34.7818 60.2439
      vertex -34.7818 -34.7818 60.2439
    endloop
  endfacet
  facet normal -0.707107 -0.57735 0.408248
    outer loop
      vertex -0 -91.5804 40.1626
      vertex -69.5637 -34.7818 0
      vertex -34.7818 -91.5804 -20.0813
    endloop
  endfacet
  facet normal -0.707107 -0.57735 0.408248
    outer loop
      vertex -69.5637 -34.7818 0
      vertex -0 -91.5804 40.1626
      vertex -34.7818 -34.7818 60.2439
    endloop
  endfacet
  facet normal -0.816497 -0.333333 -0.471405
    outer loop
      vertex -34.7818 -91.5804 -20.0813
      vertex -69.5637 -34.7818 0
      vertex -34.7818 -34.7818 -60.2439
    endloop
  endfacet
  facet normal 0 -0.57735 -0.816497
    outer loop
      vertex -34.7818 -91.5804 -20.0813
      vertex 34.7818 -34.7818 -60.2439
      vertex 34.7818 -91.5804 -20.0813
    endloop
  endfacet
  facet normal -0 -0.57735 -0.816497
    outer loop
      vertex 34.7818 -34.7818 -60.2439
      vertex -34.7818 -91.5804 -20.0813
      vertex -34.7818 -34.7818 -60.2439
    endloop
  endfacet
  facet normal 0.816497 -0.333333 -0.471405
    outer loop
      vertex 34.7818 -91.5804 -20.0813
      vertex 34.7818 -34.7818 -60.2439
      vertex 69.5637 -34.7818 0
    endloop
  endfacet
  facet normal -0.866025 0 -0.5
    outer loop
      vertex -34.7818 -34.7818 -60.2439
      vertex -69.5637 34.7818 0
      vertex -34.7818 34.7818 -60.2439
    endloop
  endfacet
  facet normal -0.866025 -0 -0.5
    outer loop
      vertex -69.5637 34.7818 0
      vertex -34.7818 -34.7818 -60.2439
      vertex -69.5637 -34.7818 0
    endloop
  endfacet
  facet normal -0.866025 0 0.5
    outer loop
      vertex -69.5637 -34.7818 0
      vertex -34.7818 34.7818 60.2439
      vertex -69.5637 34.7818 0
    endloop
  endfacet
  facet normal -0.866025 0 0.5
    outer loop
      vertex -34.7818 34.7818 60.2439
      vertex -69.5637 -34.7818 0
      vertex -34.7818 -34.7818 60.2439
    endloop
  endfacet
  facet normal -0 0 1
    outer loop
      vertex -34.7818 34.7818 60.2439
      vertex 34.7818 -34.7818 60.2439
      vertex 34.7818 34.7818 60.2439
    endloop
  endfacet
  facet normal 0 0 1
    outer loop
      vertex 34.7818 -34.7818 60.2439
      vertex -34.7818 34.7818 60.2439
      vertex -34.7818 -34.7818 60.2439
    endloop
  endfacet
  facet normal 0.866025 -0 0.5
    outer loop
      vertex 34.7818 -34.7818 60.2439
      vertex 69.5637 34.7818 0
      vertex 34.7818 34.7818 60.2439
    endloop
  endfacet
  facet normal 0.866025 0 0.5
    outer loop
      vertex 69.5637 34.7818 0
      vertex 34.7818 -34.7818 60.2439
      vertex 69.5637 -34.7818 0
    endloop
  endfacet
  facet normal 0.866025 0 -0.5
    outer loop
      vertex 69.5637 -34.7818 0
      vertex 34.7818 34.7818 -60.2439
      vertex 69.5637 34.7818 0
    endloop
  endfacet
  facet normal 0.866025 0 -0.5
    outer loop
      vertex 34.7818 34.7818 -60.2439
      vertex 69.5637 -34.7818 0
      vertex 34.7818 -34.7818 -60.2439
    endloop
  endfacet
  facet normal 0 0 -1
    outer loop
      vertex -34.7818 -34.7818 -60.2439
      vertex 34.7818 34.7818 -60.2439
      vertex 34.7818 -34.7818 -60.2439
    endloop
  endfacet
  facet normal -0 0 -1
    outer loop
      vertex 34.7818 34.7818 -60.2439
      vertex -34.7818 -34.7818 -60.2439
      vertex -34.7818 34.7818 -60.2439
    endloop
  endfacet
endsolid OpenSCAD_Model
