<?xml version="1.0" encoding="UTF-8" standalone="no"?>
<!DOCTYPE svg PUBLIC "-//W3C//DTD SVG 1.1//EN"
 "http://www.w3.org/Graphics/SVG/1.1/DTD/svg11.dtd">
<!-- Generated by graphviz version 2.38.0 (20140413.2041)
 -->
<!-- Title: math/math_bitwise.scad Pages: 1 -->
<svg width="459pt" height="252pt"
 viewBox="0.00 0.00 459.00 252.00" xmlns="http://www.w3.org/2000/svg" xmlns:xlink="http://www.w3.org/1999/xlink">
<g id="graph0" class="graph" transform="scale(1 1) rotate(0) translate(4 248)">
<title>math/math_bitwise.scad</title>
<polygon fill="white" stroke="none" points="-4,4 -4,-248 455,-248 455,4 -4,4"/>
<!-- Node1 -->
<g id="node1" class="node"><title>Node1</title>
<polygon fill="#bfbfbf" stroke="black" points="63.5,-224.5 63.5,-243.5 186.5,-243.5 186.5,-224.5 63.5,-224.5"/>
<text text-anchor="middle" x="125" y="-231.5" font-family="Helvetica,sans-Serif" font-size="10.00">math/math_bitwise.scad</text>
</g>
<!-- Node2 -->
<g id="node2" class="node"><title>Node2</title>
<g id="a_node2"><a xlink:href="math__utility_8scad.html" target="_top" xlink:title="Miscellaneous mathematical utilities. ">
<polygon fill="white" stroke="black" points="0,-112.5 0,-131.5 116,-131.5 116,-112.5 0,-112.5"/>
<text text-anchor="middle" x="58" y="-119.5" font-family="Helvetica,sans-Serif" font-size="10.00">math/math_utility.scad</text>
</a>
</g>
</g>
<!-- Node1&#45;&gt;Node2 -->
<g id="edge1" class="edge"><title>Node1&#45;&gt;Node2</title>
<path fill="none" stroke="midnightblue" d="M114.426,-215.64C99.8711,-191.744 74.2192,-149.629 63.233,-131.591"/>
<polygon fill="midnightblue" stroke="midnightblue" points="111.551,-217.649 119.743,-224.368 117.53,-214.007 111.551,-217.649"/>
</g>
<!-- Node4 -->
<g id="node4" class="node"><title>Node4</title>
<g id="a_node4"><a xlink:href="tools__utility_8scad.html" target="_top" xlink:title="Shape transformation utility tools. ">
<polygon fill="white" stroke="black" points="123,-168.5 123,-187.5 237,-187.5 237,-168.5 123,-168.5"/>
<text text-anchor="middle" x="180" y="-175.5" font-family="Helvetica,sans-Serif" font-size="10.00">tools/tools_utility.scad</text>
</a>
</g>
</g>
<!-- Node1&#45;&gt;Node4 -->
<g id="edge3" class="edge"><title>Node1&#45;&gt;Node4</title>
<path fill="none" stroke="midnightblue" d="M141.294,-217.002C151.041,-207.433 163.053,-195.639 171.087,-187.751"/>
<polygon fill="midnightblue" stroke="midnightblue" points="138.766,-214.58 134.082,-224.083 143.67,-219.575 138.766,-214.58"/>
</g>
<!-- Node3 -->
<g id="node3" class="node"><title>Node3</title>
<g id="a_node3"><a xlink:href="omdl-base_8scad.html" target="_top" xlink:title="Include file wrapper of omdl base primitives. ">
<polygon fill="white" stroke="black" points="150,-0.5 150,-19.5 236,-19.5 236,-0.5 150,-0.5"/>
<text text-anchor="middle" x="193" y="-7.5" font-family="Helvetica,sans-Serif" font-size="10.00">omdl&#45;base.scad</text>
</a>
</g>
</g>
<!-- Node2&#45;&gt;Node3 -->
<g id="edge2" class="edge"><title>Node2&#45;&gt;Node3</title>
<path fill="none" stroke="midnightblue" d="M51.0935,-102.885C46.9799,-88.7786 44.2488,-69.4063 54,-56 75.7088,-26.1539 117.642,-15.6979 149.798,-12.2323"/>
<polygon fill="midnightblue" stroke="midnightblue" points="47.8109,-104.104 54.3249,-112.46 54.4434,-101.865 47.8109,-104.104"/>
</g>
<!-- Node5 -->
<g id="node5" class="node"><title>Node5</title>
<g id="a_node5"><a xlink:href="shapes2d_8scad.html" target="_top" xlink:title="Two&#45;dimensional basic shapes. ">
<polygon fill="white" stroke="black" points="180.5,-112.5 180.5,-131.5 297.5,-131.5 297.5,-112.5 180.5,-112.5"/>
<text text-anchor="middle" x="239" y="-119.5" font-family="Helvetica,sans-Serif" font-size="10.00">shapes/shapes2d.scad</text>
</a>
</g>
</g>
<!-- Node4&#45;&gt;Node5 -->
<g id="edge4" class="edge"><title>Node4&#45;&gt;Node5</title>
<path fill="none" stroke="midnightblue" d="M196.895,-161.537C207.415,-151.909 220.569,-139.869 229.348,-131.834"/>
<polygon fill="midnightblue" stroke="midnightblue" points="194.493,-158.99 189.479,-168.324 199.219,-164.154 194.493,-158.99"/>
</g>
<!-- Node6 -->
<g id="node6" class="node"><title>Node6</title>
<g id="a_node6"><a xlink:href="shapes2de_8scad.html" target="_top" xlink:title="Linearly extruded two&#45;dimensional basic shapes. ">
<polygon fill="white" stroke="black" points="63,-56.5 63,-75.5 185,-75.5 185,-56.5 63,-56.5"/>
<text text-anchor="middle" x="124" y="-63.5" font-family="Helvetica,sans-Serif" font-size="10.00">shapes/shapes2de.scad</text>
</a>
</g>
</g>
<!-- Node5&#45;&gt;Node6 -->
<g id="edge5" class="edge"><title>Node5&#45;&gt;Node6</title>
<path fill="none" stroke="midnightblue" d="M211.519,-108.096C190.034,-98.0073 160.778,-84.2697 142.137,-75.5164"/>
<polygon fill="midnightblue" stroke="midnightblue" points="210.238,-111.361 220.778,-112.444 213.214,-105.025 210.238,-111.361"/>
</g>
<!-- Node7 -->
<g id="node7" class="node"><title>Node7</title>
<g id="a_node7"><a xlink:href="shapes3d_8scad.html" target="_top" xlink:title="Three&#45;dimensional basic shapes. ">
<polygon fill="white" stroke="black" points="203.5,-56.5 203.5,-75.5 320.5,-75.5 320.5,-56.5 203.5,-56.5"/>
<text text-anchor="middle" x="262" y="-63.5" font-family="Helvetica,sans-Serif" font-size="10.00">shapes/shapes3d.scad</text>
</a>
</g>
</g>
<!-- Node5&#45;&gt;Node7 -->
<g id="edge7" class="edge"><title>Node5&#45;&gt;Node7</title>
<path fill="none" stroke="midnightblue" d="M246.799,-102.69C250.675,-93.589 255.179,-83.0141 258.273,-75.7511"/>
<polygon fill="midnightblue" stroke="midnightblue" points="243.497,-101.511 242.798,-112.083 249.937,-104.254 243.497,-101.511"/>
</g>
<!-- Node8 -->
<g id="node8" class="node"><title>Node8</title>
<g id="a_node8"><a xlink:href="tools__edge_8scad.html" target="_top" xlink:title="Shape edge finishing tools. ">
<polygon fill="white" stroke="black" points="339,-56.5 339,-75.5 451,-75.5 451,-56.5 339,-56.5"/>
<text text-anchor="middle" x="395" y="-63.5" font-family="Helvetica,sans-Serif" font-size="10.00">tools/tools_edge.scad</text>
</a>
</g>
</g>
<!-- Node5&#45;&gt;Node8 -->
<g id="edge9" class="edge"><title>Node5&#45;&gt;Node8</title>
<path fill="none" stroke="midnightblue" d="M273.17,-109.172C302.544,-99.0039 344.198,-84.5852 370.397,-75.5164"/>
<polygon fill="midnightblue" stroke="midnightblue" points="272.024,-105.865 263.719,-112.444 274.313,-112.48 272.024,-105.865"/>
</g>
<!-- Node6&#45;&gt;Node3 -->
<g id="edge6" class="edge"><title>Node6&#45;&gt;Node3</title>
<path fill="none" stroke="midnightblue" d="M143.038,-50.1008C155.456,-40.3824 171.243,-28.0269 181.712,-19.8339"/>
<polygon fill="midnightblue" stroke="midnightblue" points="140.804,-47.4046 135.086,-56.324 145.118,-52.9171 140.804,-47.4046"/>
</g>
<!-- Node7&#45;&gt;Node3 -->
<g id="edge8" class="edge"><title>Node7&#45;&gt;Node3</title>
<path fill="none" stroke="midnightblue" d="M242.962,-50.1008C230.544,-40.3824 214.757,-28.0269 204.288,-19.8339"/>
<polygon fill="midnightblue" stroke="midnightblue" points="240.882,-52.9171 250.914,-56.324 245.196,-47.4046 240.882,-52.9171"/>
</g>
<!-- Node8&#45;&gt;Node3 -->
<g id="edge10" class="edge"><title>Node8&#45;&gt;Node3</title>
<path fill="none" stroke="midnightblue" d="M353.212,-53.8291C315.073,-43.6333 259.519,-28.7823 224.858,-19.5164"/>
<polygon fill="midnightblue" stroke="midnightblue" points="352.428,-57.2422 362.992,-56.4435 354.236,-50.4796 352.428,-57.2422"/>
</g>
</g>
</svg>
