<?xml version="1.0" encoding="UTF-8" standalone="no"?>
<!DOCTYPE svg PUBLIC "-//W3C//DTD SVG 1.1//EN"
 "http://www.w3.org/Graphics/SVG/1.1/DTD/svg11.dtd">
<!-- Generated by graphviz version 2.38.0 (20140413.2041)
 -->
<!-- Title: math/math_oshapes.scad Pages: 1 -->
<svg width="946pt" height="162pt"
 viewBox="0.00 0.00 945.50 162.00" xmlns="http://www.w3.org/2000/svg" xmlns:xlink="http://www.w3.org/1999/xlink">
<g id="graph0" class="graph" transform="scale(1 1) rotate(0) translate(4 158)">
<title>math/math_oshapes.scad</title>
<polygon fill="white" stroke="none" points="-4,4 -4,-158 941.5,-158 941.5,4 -4,4"/>
<!-- Node1 -->
<g id="node1" class="node"><title>Node1</title>
<polygon fill="#bfbfbf" stroke="black" points="321.5,-134.5 321.5,-153.5 450.5,-153.5 450.5,-134.5 321.5,-134.5"/>
<text text-anchor="middle" x="386" y="-141.5" font-family="Helvetica,sans-Serif" font-size="10.00">math/math_oshapes.scad</text>
</g>
<!-- Node2 -->
<g id="node2" class="node"><title>Node2</title>
<g id="a_node2"><a xlink:href="datatypes-base_8scad.html" target="_top" xlink:title="Include file wrapper of data types base primitives. ">
<polygon fill="white" stroke="black" points="329,-67.5 329,-97.5 443,-97.5 443,-67.5 329,-67.5"/>
<text text-anchor="start" x="337" y="-85.5" font-family="Helvetica,sans-Serif" font-size="10.00">../datatypes/datatypes</text>
<text text-anchor="middle" x="386" y="-74.5" font-family="Helvetica,sans-Serif" font-size="10.00">&#45;base.scad</text>
</a>
</g>
</g>
<!-- Node1&#45;&gt;Node2 -->
<g id="edge1" class="edge"><title>Node1&#45;&gt;Node2</title>
<path fill="none" stroke="midnightblue" d="M386,-134.475C386,-127.471 386,-117.192 386,-107.696"/>
<polygon fill="midnightblue" stroke="midnightblue" points="389.5,-107.523 386,-97.523 382.5,-107.523 389.5,-107.523"/>
</g>
<!-- Node3 -->
<g id="node3" class="node"><title>Node3</title>
<g id="a_node3"><a xlink:href="constants_8scad.html" target="_top" xlink:title="Design constant definitions. ">
<polygon fill="white" stroke="black" points="0,-6 0,-25 92,-25 92,-6 0,-6"/>
<text text-anchor="middle" x="46" y="-13" font-family="Helvetica,sans-Serif" font-size="10.00">../constants.scad</text>
</a>
</g>
</g>
<!-- Node2&#45;&gt;Node3 -->
<g id="edge2" class="edge"><title>Node2&#45;&gt;Node3</title>
<path fill="none" stroke="midnightblue" d="M328.951,-72.81C271.219,-63.684 179.522,-48.2766 101,-31 96.2472,-29.9543 91.2861,-28.7738 86.373,-27.5493"/>
<polygon fill="midnightblue" stroke="midnightblue" points="86.9936,-24.0953 76.4378,-25.0028 85.2556,-30.8761 86.9936,-24.0953"/>
</g>
<!-- Node4 -->
<g id="node4" class="node"><title>Node4</title>
<g id="a_node4"><a xlink:href="datatypes__identify__scalar_8scad.html" target="_top" xlink:title="Scalar data type identification. ">
<polygon fill="white" stroke="black" points="110,-0.5 110,-30.5 206,-30.5 206,-0.5 110,-0.5"/>
<text text-anchor="start" x="118" y="-18.5" font-family="Helvetica,sans-Serif" font-size="10.00">datatypes_identify</text>
<text text-anchor="middle" x="158" y="-7.5" font-family="Helvetica,sans-Serif" font-size="10.00">_scalar.scad</text>
</a>
</g>
</g>
<!-- Node2&#45;&gt;Node4 -->
<g id="edge3" class="edge"><title>Node2&#45;&gt;Node4</title>
<path fill="none" stroke="midnightblue" d="M336.808,-67.476C301.358,-57.3695 253.387,-43.6936 216.057,-33.0513"/>
<polygon fill="midnightblue" stroke="midnightblue" points="216.897,-29.6515 206.321,-30.2757 214.978,-36.3833 216.897,-29.6515"/>
</g>
<!-- Node5 -->
<g id="node5" class="node"><title>Node5</title>
<g id="a_node5"><a xlink:href="datatypes__identify__iterable_8scad.html" target="_top" xlink:title="Iterable data type identification. ">
<polygon fill="white" stroke="black" points="224,-0.5 224,-30.5 320,-30.5 320,-0.5 224,-0.5"/>
<text text-anchor="start" x="232" y="-18.5" font-family="Helvetica,sans-Serif" font-size="10.00">datatypes_identify</text>
<text text-anchor="middle" x="272" y="-7.5" font-family="Helvetica,sans-Serif" font-size="10.00">_iterable.scad</text>
</a>
</g>
</g>
<!-- Node2&#45;&gt;Node5 -->
<g id="edge4" class="edge"><title>Node2&#45;&gt;Node5</title>
<path fill="none" stroke="midnightblue" d="M361.264,-67.396C344.98,-58.1117 323.459,-45.8409 305.629,-35.6742"/>
<polygon fill="midnightblue" stroke="midnightblue" points="307.109,-32.4892 296.688,-30.5765 303.642,-38.5702 307.109,-32.4892"/>
</g>
<!-- Node6 -->
<g id="node6" class="node"><title>Node6</title>
<g id="a_node6"><a xlink:href="datatypes__identify__list_8scad.html" target="_top" xlink:title="List data type identification. ">
<polygon fill="white" stroke="black" points="338,-0.5 338,-30.5 434,-30.5 434,-0.5 338,-0.5"/>
<text text-anchor="start" x="346" y="-18.5" font-family="Helvetica,sans-Serif" font-size="10.00">datatypes_identify</text>
<text text-anchor="middle" x="386" y="-7.5" font-family="Helvetica,sans-Serif" font-size="10.00">_list.scad</text>
</a>
</g>
</g>
<!-- Node2&#45;&gt;Node6 -->
<g id="edge5" class="edge"><title>Node2&#45;&gt;Node6</title>
<path fill="none" stroke="midnightblue" d="M386,-67.396C386,-59.6448 386,-49.8122 386,-40.8601"/>
<polygon fill="midnightblue" stroke="midnightblue" points="389.5,-40.5765 386,-30.5765 382.5,-40.5765 389.5,-40.5765"/>
</g>
<!-- Node7 -->
<g id="node7" class="node"><title>Node7</title>
<g id="a_node7"><a xlink:href="datatypes__operate__scalar_8scad.html" target="_top" xlink:title="Scalar data type operations. ">
<polygon fill="white" stroke="black" points="452,-6 452,-25 604,-25 604,-6 452,-6"/>
<text text-anchor="middle" x="528" y="-13" font-family="Helvetica,sans-Serif" font-size="10.00">datatypes_operate_scalar.scad</text>
</a>
</g>
</g>
<!-- Node2&#45;&gt;Node7 -->
<g id="edge6" class="edge"><title>Node2&#45;&gt;Node7</title>
<path fill="none" stroke="midnightblue" d="M416.812,-67.396C441.617,-56.0414 476.181,-40.2201 500.16,-29.2437"/>
<polygon fill="midnightblue" stroke="midnightblue" points="501.78,-32.3516 509.415,-25.007 498.866,-25.9868 501.78,-32.3516"/>
</g>
<!-- Node8 -->
<g id="node8" class="node"><title>Node8</title>
<g id="a_node8"><a xlink:href="datatypes__operate__iterable_8scad.html" target="_top" xlink:title="Iterable data type operations. ">
<polygon fill="white" stroke="black" points="622,-6 622,-25 780,-25 780,-6 622,-6"/>
<text text-anchor="middle" x="701" y="-13" font-family="Helvetica,sans-Serif" font-size="10.00">datatypes_operate_iterable.scad</text>
</a>
</g>
</g>
<!-- Node2&#45;&gt;Node8 -->
<g id="edge7" class="edge"><title>Node2&#45;&gt;Node8</title>
<path fill="none" stroke="midnightblue" d="M443.044,-69.729C501.917,-57.5807 592.928,-38.8005 649.627,-27.1007"/>
<polygon fill="midnightblue" stroke="midnightblue" points="650.368,-30.5216 659.455,-25.0728 648.954,-23.666 650.368,-30.5216"/>
</g>
<!-- Node9 -->
<g id="node9" class="node"><title>Node9</title>
<g id="a_node9"><a xlink:href="datatypes__operate__list_8scad.html" target="_top" xlink:title="List data type operations. ">
<polygon fill="white" stroke="black" points="798.5,-6 798.5,-25 937.5,-25 937.5,-6 798.5,-6"/>
<text text-anchor="middle" x="868" y="-13" font-family="Helvetica,sans-Serif" font-size="10.00">datatypes_operate_list.scad</text>
</a>
</g>
</g>
<!-- Node2&#45;&gt;Node9 -->
<g id="edge8" class="edge"><title>Node2&#45;&gt;Node9</title>
<path fill="none" stroke="midnightblue" d="M443.203,-75.3685C521.452,-66.7448 666.175,-49.9518 789,-31 797.034,-29.7603 805.506,-28.3334 813.799,-26.8686"/>
<polygon fill="midnightblue" stroke="midnightblue" points="814.563,-30.2876 823.786,-25.0733 813.324,-23.398 814.563,-30.2876"/>
</g>
</g>
</svg>
