<?xml version="1.0" encoding="UTF-8" standalone="no"?>
<!DOCTYPE svg PUBLIC "-//W3C//DTD SVG 1.1//EN"
 "http://www.w3.org/Graphics/SVG/1.1/DTD/svg11.dtd">
<!-- Generated by graphviz version 2.38.0 (20140413.2041)
 -->
<!-- Title: math/math&#45;base.scad Pages: 1 -->
<svg width="581pt" height="252pt"
 viewBox="0.00 0.00 580.50 252.00" xmlns="http://www.w3.org/2000/svg" xmlns:xlink="http://www.w3.org/1999/xlink">
<g id="graph0" class="graph" transform="scale(1 1) rotate(0) translate(4 248)">
<title>math/math&#45;base.scad</title>
<polygon fill="white" stroke="none" points="-4,4 -4,-248 576.5,-248 576.5,4 -4,4"/>
<!-- Node1 -->
<g id="node1" class="node"><title>Node1</title>
<polygon fill="#bfbfbf" stroke="black" points="215,-224.5 215,-243.5 326,-243.5 326,-224.5 215,-224.5"/>
<text text-anchor="middle" x="270.5" y="-231.5" font-family="Helvetica,sans-Serif" font-size="10.00">math/math&#45;base.scad</text>
</g>
<!-- Node2 -->
<g id="node2" class="node"><title>Node2</title>
<g id="a_node2"><a xlink:href="math__polytope_8scad.html" target="_top" xlink:title="Polygon and polyhedron mathematical functions. ">
<polygon fill="white" stroke="black" points="0,-168.5 0,-187.5 129,-187.5 129,-168.5 0,-168.5"/>
<text text-anchor="middle" x="64.5" y="-175.5" font-family="Helvetica,sans-Serif" font-size="10.00">math/math_polytope.scad</text>
</a>
</g>
</g>
<!-- Node1&#45;&gt;Node2 -->
<g id="edge1" class="edge"><title>Node1&#45;&gt;Node2</title>
<path fill="none" stroke="midnightblue" d="M227.885,-221.829C188.99,-211.633 132.336,-196.782 96.9886,-187.516"/>
<polygon fill="midnightblue" stroke="midnightblue" points="227.298,-225.293 237.859,-224.444 229.073,-218.522 227.298,-225.293"/>
</g>
<!-- Node5 -->
<g id="node5" class="node"><title>Node5</title>
<g id="a_node5"><a xlink:href="math__triangle_8scad.html" target="_top" xlink:title="Triangle solutions mathematical functions. ">
<polygon fill="white" stroke="black" points="276.5,-168.5 276.5,-187.5 400.5,-187.5 400.5,-168.5 276.5,-168.5"/>
<text text-anchor="middle" x="338.5" y="-175.5" font-family="Helvetica,sans-Serif" font-size="10.00">math/math_triangle.scad</text>
</a>
</g>
</g>
<!-- Node1&#45;&gt;Node5 -->
<g id="edge4" class="edge"><title>Node1&#45;&gt;Node5</title>
<path fill="none" stroke="midnightblue" d="M289.262,-218.101C301.5,-208.382 317.059,-196.027 327.376,-187.834"/>
<polygon fill="midnightblue" stroke="midnightblue" points="287.08,-215.364 281.425,-224.324 291.433,-220.846 287.08,-215.364"/>
</g>
<!-- Node10 -->
<g id="node10" class="node"><title>Node10</title>
<g id="a_node10"><a xlink:href="tools__align_8scad.html" target="_top" xlink:title="Shape alignment tools. ">
<polygon fill="white" stroke="black" points="147,-168.5 147,-187.5 258,-187.5 258,-168.5 147,-168.5"/>
<text text-anchor="middle" x="202.5" y="-175.5" font-family="Helvetica,sans-Serif" font-size="10.00">tools/tools_align.scad</text>
</a>
</g>
</g>
<!-- Node1&#45;&gt;Node10 -->
<g id="edge12" class="edge"><title>Node1&#45;&gt;Node10</title>
<path fill="none" stroke="midnightblue" d="M251.738,-218.101C239.5,-208.382 223.941,-196.027 213.624,-187.834"/>
<polygon fill="midnightblue" stroke="midnightblue" points="249.567,-220.846 259.575,-224.324 253.92,-215.364 249.567,-220.846"/>
</g>
<!-- Node11 -->
<g id="node11" class="node"><title>Node11</title>
<g id="a_node11"><a xlink:href="tools__utility_8scad.html" target="_top" xlink:title="Shape transformation utility tools. ">
<polygon fill="white" stroke="black" points="418.5,-168.5 418.5,-187.5 532.5,-187.5 532.5,-168.5 418.5,-168.5"/>
<text text-anchor="middle" x="475.5" y="-175.5" font-family="Helvetica,sans-Serif" font-size="10.00">tools/tools_utility.scad</text>
</a>
</g>
</g>
<!-- Node1&#45;&gt;Node11 -->
<g id="edge14" class="edge"><title>Node1&#45;&gt;Node11</title>
<path fill="none" stroke="midnightblue" d="M312.908,-221.829C351.614,-211.633 407.993,-196.782 443.169,-187.516"/>
<polygon fill="midnightblue" stroke="midnightblue" points="311.761,-218.512 302.983,-224.444 313.545,-225.281 311.761,-218.512"/>
</g>
<!-- Node3 -->
<g id="node3" class="node"><title>Node3</title>
<g id="a_node3"><a xlink:href="tools__polytope_8scad.html" target="_top" xlink:title="Polygon and polyhedron tools. ">
<polygon fill="white" stroke="black" points="92.5,-112.5 92.5,-131.5 220.5,-131.5 220.5,-112.5 92.5,-112.5"/>
<text text-anchor="middle" x="156.5" y="-119.5" font-family="Helvetica,sans-Serif" font-size="10.00">tools/tools_polytope.scad</text>
</a>
</g>
</g>
<!-- Node2&#45;&gt;Node3 -->
<g id="edge2" class="edge"><title>Node2&#45;&gt;Node3</title>
<path fill="none" stroke="midnightblue" d="M88.0497,-163.177C104.979,-153.241 127.283,-140.149 141.755,-131.655"/>
<polygon fill="midnightblue" stroke="midnightblue" points="86.1338,-160.243 79.2814,-168.324 89.6773,-166.28 86.1338,-160.243"/>
</g>
<!-- Node4 -->
<g id="node4" class="node"><title>Node4</title>
<g id="a_node4"><a xlink:href="omdl-base_8scad.html" target="_top" xlink:title="Include file wrapper of omdl base primitives. ">
<polygon fill="white" stroke="black" points="271.5,-0.5 271.5,-19.5 357.5,-19.5 357.5,-0.5 271.5,-0.5"/>
<text text-anchor="middle" x="314.5" y="-7.5" font-family="Helvetica,sans-Serif" font-size="10.00">omdl&#45;base.scad</text>
</a>
</g>
</g>
<!-- Node3&#45;&gt;Node4 -->
<g id="edge3" class="edge"><title>Node3&#45;&gt;Node4</title>
<path fill="none" stroke="midnightblue" d="M157.411,-101.888C159.09,-87.5052 163.604,-68.242 175.5,-56 200.601,-30.1682 240.623,-19.1481 271.289,-14.4557"/>
<polygon fill="midnightblue" stroke="midnightblue" points="153.899,-101.901 156.586,-112.149 160.877,-102.462 153.899,-101.901"/>
</g>
<!-- Node6 -->
<g id="node6" class="node"><title>Node6</title>
<g id="a_node6"><a xlink:href="shapes2d_8scad.html" target="_top" xlink:title="Two&#45;dimensional basic shapes. ">
<polygon fill="white" stroke="black" points="325,-112.5 325,-131.5 442,-131.5 442,-112.5 325,-112.5"/>
<text text-anchor="middle" x="383.5" y="-119.5" font-family="Helvetica,sans-Serif" font-size="10.00">shapes/shapes2d.scad</text>
</a>
</g>
</g>
<!-- Node5&#45;&gt;Node6 -->
<g id="edge5" class="edge"><title>Node5&#45;&gt;Node6</title>
<path fill="none" stroke="midnightblue" d="M352.547,-160.144C360.387,-150.736 369.829,-139.405 376.207,-131.751"/>
<polygon fill="midnightblue" stroke="midnightblue" points="349.644,-158.16 345.931,-168.083 355.021,-162.641 349.644,-158.16"/>
</g>
<!-- Node7 -->
<g id="node7" class="node"><title>Node7</title>
<g id="a_node7"><a xlink:href="shapes2de_8scad.html" target="_top" xlink:title="Linearly extruded two&#45;dimensional basic shapes. ">
<polygon fill="white" stroke="black" points="184.5,-56.5 184.5,-75.5 306.5,-75.5 306.5,-56.5 184.5,-56.5"/>
<text text-anchor="middle" x="245.5" y="-63.5" font-family="Helvetica,sans-Serif" font-size="10.00">shapes/shapes2de.scad</text>
</a>
</g>
</g>
<!-- Node6&#45;&gt;Node7 -->
<g id="edge6" class="edge"><title>Node6&#45;&gt;Node7</title>
<path fill="none" stroke="midnightblue" d="M352.251,-108.772C326.329,-98.6287 290.138,-84.4669 267.264,-75.5164"/>
<polygon fill="midnightblue" stroke="midnightblue" points="351.046,-112.059 361.633,-112.444 353.596,-105.54 351.046,-112.059"/>
</g>
<!-- Node8 -->
<g id="node8" class="node"><title>Node8</title>
<g id="a_node8"><a xlink:href="shapes3d_8scad.html" target="_top" xlink:title="Three&#45;dimensional basic shapes. ">
<polygon fill="white" stroke="black" points="325,-56.5 325,-75.5 442,-75.5 442,-56.5 325,-56.5"/>
<text text-anchor="middle" x="383.5" y="-63.5" font-family="Helvetica,sans-Serif" font-size="10.00">shapes/shapes3d.scad</text>
</a>
</g>
</g>
<!-- Node6&#45;&gt;Node8 -->
<g id="edge8" class="edge"><title>Node6&#45;&gt;Node8</title>
<path fill="none" stroke="midnightblue" d="M383.5,-101.805C383.5,-92.9102 383.5,-82.7798 383.5,-75.7511"/>
<polygon fill="midnightblue" stroke="midnightblue" points="380,-102.083 383.5,-112.083 387,-102.083 380,-102.083"/>
</g>
<!-- Node9 -->
<g id="node9" class="node"><title>Node9</title>
<g id="a_node9"><a xlink:href="tools__edge_8scad.html" target="_top" xlink:title="Shape edge finishing tools. ">
<polygon fill="white" stroke="black" points="460.5,-56.5 460.5,-75.5 572.5,-75.5 572.5,-56.5 460.5,-56.5"/>
<text text-anchor="middle" x="516.5" y="-63.5" font-family="Helvetica,sans-Serif" font-size="10.00">tools/tools_edge.scad</text>
</a>
</g>
</g>
<!-- Node6&#45;&gt;Node9 -->
<g id="edge10" class="edge"><title>Node6&#45;&gt;Node9</title>
<path fill="none" stroke="midnightblue" d="M413.948,-108.638C438.907,-98.504 473.577,-84.4274 495.524,-75.5164"/>
<polygon fill="midnightblue" stroke="midnightblue" points="412.523,-105.439 404.574,-112.444 415.156,-111.924 412.523,-105.439"/>
</g>
<!-- Node7&#45;&gt;Node4 -->
<g id="edge7" class="edge"><title>Node7&#45;&gt;Node4</title>
<path fill="none" stroke="midnightblue" d="M264.538,-50.1008C276.956,-40.3824 292.743,-28.0269 303.212,-19.8339"/>
<polygon fill="midnightblue" stroke="midnightblue" points="262.304,-47.4046 256.586,-56.324 266.618,-52.9171 262.304,-47.4046"/>
</g>
<!-- Node8&#45;&gt;Node4 -->
<g id="edge9" class="edge"><title>Node8&#45;&gt;Node4</title>
<path fill="none" stroke="midnightblue" d="M364.462,-50.1008C352.044,-40.3824 336.257,-28.0269 325.788,-19.8339"/>
<polygon fill="midnightblue" stroke="midnightblue" points="362.382,-52.9171 372.414,-56.324 366.696,-47.4046 362.382,-52.9171"/>
</g>
<!-- Node9&#45;&gt;Node4 -->
<g id="edge11" class="edge"><title>Node9&#45;&gt;Node4</title>
<path fill="none" stroke="midnightblue" d="M474.712,-53.8291C436.573,-43.6333 381.019,-28.7823 346.358,-19.5164"/>
<polygon fill="midnightblue" stroke="midnightblue" points="473.928,-57.2422 484.492,-56.4435 475.736,-50.4796 473.928,-57.2422"/>
</g>
<!-- Node10&#45;&gt;Node3 -->
<g id="edge13" class="edge"><title>Node10&#45;&gt;Node3</title>
<path fill="none" stroke="midnightblue" d="M188.386,-160.431C180.324,-150.967 170.541,-139.483 163.955,-131.751"/>
<polygon fill="midnightblue" stroke="midnightblue" points="185.755,-162.74 194.904,-168.083 191.084,-158.201 185.755,-162.74"/>
</g>
<!-- Node11&#45;&gt;Node6 -->
<g id="edge15" class="edge"><title>Node11&#45;&gt;Node6</title>
<path fill="none" stroke="midnightblue" d="M451.95,-163.177C435.021,-153.241 412.717,-140.149 398.245,-131.655"/>
<polygon fill="midnightblue" stroke="midnightblue" points="450.323,-166.28 460.719,-168.324 453.866,-160.243 450.323,-166.28"/>
</g>
</g>
</svg>
