<?xml version="1.0" encoding="UTF-8" standalone="no"?>
<!DOCTYPE svg PUBLIC "-//W3C//DTD SVG 1.1//EN"
 "http://www.w3.org/Graphics/SVG/1.1/DTD/svg11.dtd">
<!-- Generated by graphviz version 2.38.0 (20140413.2041)
 -->
<!-- Title: math/math_polytope.scad Pages: 1 -->
<svg width="137pt" height="140pt"
 viewBox="0.00 0.00 137.00 140.00" xmlns="http://www.w3.org/2000/svg" xmlns:xlink="http://www.w3.org/1999/xlink">
<g id="graph0" class="graph" transform="scale(1 1) rotate(0) translate(4 136)">
<title>math/math_polytope.scad</title>
<polygon fill="white" stroke="none" points="-4,4 -4,-136 133,-136 133,4 -4,4"/>
<!-- Node1 -->
<g id="node1" class="node"><title>Node1</title>
<polygon fill="#bfbfbf" stroke="black" points="0,-112.5 0,-131.5 129,-131.5 129,-112.5 0,-112.5"/>
<text text-anchor="middle" x="64.5" y="-119.5" font-family="Helvetica,sans-Serif" font-size="10.00">math/math_polytope.scad</text>
</g>
<!-- Node2 -->
<g id="node2" class="node"><title>Node2</title>
<g id="a_node2"><a xlink:href="tools__polytope_8scad.html" target="_top" xlink:title="Polygon and polyhedron tools. ">
<polygon fill="white" stroke="black" points="0.5,-56.5 0.5,-75.5 128.5,-75.5 128.5,-56.5 0.5,-56.5"/>
<text text-anchor="middle" x="64.5" y="-63.5" font-family="Helvetica,sans-Serif" font-size="10.00">tools/tools_polytope.scad</text>
</a>
</g>
</g>
<!-- Node1&#45;&gt;Node2 -->
<g id="edge1" class="edge"><title>Node1&#45;&gt;Node2</title>
<path fill="none" stroke="midnightblue" d="M64.5,-101.805C64.5,-92.9102 64.5,-82.7798 64.5,-75.7511"/>
<polygon fill="midnightblue" stroke="midnightblue" points="61.0001,-102.083 64.5,-112.083 68.0001,-102.083 61.0001,-102.083"/>
</g>
<!-- Node3 -->
<g id="node3" class="node"><title>Node3</title>
<g id="a_node3"><a xlink:href="omdl-base_8scad.html" target="_top" xlink:title="Include file wrapper of omdl base primitives. ">
<polygon fill="white" stroke="black" points="21.5,-0.5 21.5,-19.5 107.5,-19.5 107.5,-0.5 21.5,-0.5"/>
<text text-anchor="middle" x="64.5" y="-7.5" font-family="Helvetica,sans-Serif" font-size="10.00">omdl&#45;base.scad</text>
</a>
</g>
</g>
<!-- Node2&#45;&gt;Node3 -->
<g id="edge2" class="edge"><title>Node2&#45;&gt;Node3</title>
<path fill="none" stroke="midnightblue" d="M64.5,-45.8045C64.5,-36.9102 64.5,-26.7798 64.5,-19.7511"/>
<polygon fill="midnightblue" stroke="midnightblue" points="61.0001,-46.083 64.5,-56.083 68.0001,-46.083 61.0001,-46.083"/>
</g>
</g>
</svg>
