<?xml version="1.0" encoding="UTF-8" standalone="no"?>
<!DOCTYPE svg PUBLIC "-//W3C//DTD SVG 1.1//EN"
 "http://www.w3.org/Graphics/SVG/1.1/DTD/svg11.dtd">
<!-- Generated by graphviz version 2.38.0 (20140413.2041)
 -->
<!-- Title: math/math_polytope.scad Pages: 1 -->
<svg width="946pt" height="218pt"
 viewBox="0.00 0.00 945.50 218.00" xmlns="http://www.w3.org/2000/svg" xmlns:xlink="http://www.w3.org/1999/xlink">
<g id="graph0" class="graph" transform="scale(1 1) rotate(0) translate(4 214)">
<title>math/math_polytope.scad</title>
<polygon fill="white" stroke="none" points="-4,4 -4,-214 941.5,-214 941.5,4 -4,4"/>
<!-- Node1 -->
<g id="node1" class="node"><title>Node1</title>
<polygon fill="#bfbfbf" stroke="black" points="460.5,-190.5 460.5,-209.5 589.5,-209.5 589.5,-190.5 460.5,-190.5"/>
<text text-anchor="middle" x="525" y="-197.5" font-family="Helvetica,sans-Serif" font-size="10.00">math/math_polytope.scad</text>
</g>
<!-- Node2 -->
<g id="node2" class="node"><title>Node2</title>
<g id="a_node2"><a xlink:href="math-base_8scad.html" target="_top" xlink:title="Include file wrapper of math base primitives. ">
<polygon fill="white" stroke="black" points="482,-134.5 482,-153.5 568,-153.5 568,-134.5 482,-134.5"/>
<text text-anchor="middle" x="525" y="-141.5" font-family="Helvetica,sans-Serif" font-size="10.00">math&#45;base.scad</text>
</a>
</g>
</g>
<!-- Node1&#45;&gt;Node2 -->
<g id="edge1" class="edge"><title>Node1&#45;&gt;Node2</title>
<path fill="none" stroke="midnightblue" d="M525,-190.083C525,-183.006 525,-172.861 525,-163.986"/>
<polygon fill="midnightblue" stroke="midnightblue" points="528.5,-163.751 525,-153.751 521.5,-163.751 528.5,-163.751"/>
</g>
<!-- Node3 -->
<g id="node3" class="node"><title>Node3</title>
<g id="a_node3"><a xlink:href="datatypes-base_8scad.html" target="_top" xlink:title="Include file wrapper of data types base primitives. ">
<polygon fill="white" stroke="black" points="329,-67.5 329,-97.5 443,-97.5 443,-67.5 329,-67.5"/>
<text text-anchor="start" x="337" y="-85.5" font-family="Helvetica,sans-Serif" font-size="10.00">../datatypes/datatypes</text>
<text text-anchor="middle" x="386" y="-74.5" font-family="Helvetica,sans-Serif" font-size="10.00">&#45;base.scad</text>
</a>
</g>
</g>
<!-- Node2&#45;&gt;Node3 -->
<g id="edge2" class="edge"><title>Node2&#45;&gt;Node3</title>
<path fill="none" stroke="midnightblue" d="M505.085,-134.475C485.115,-125.927 453.75,-112.501 428.222,-101.573"/>
<polygon fill="midnightblue" stroke="midnightblue" points="429.33,-98.2406 418.76,-97.523 426.575,-104.676 429.33,-98.2406"/>
</g>
<!-- Node11 -->
<g id="node11" class="node"><title>Node11</title>
<g id="a_node11"><a xlink:href="math__linear__algebra_8scad.html" target="_top" xlink:title="Linear algebra mathematical functions. ">
<polygon fill="white" stroke="black" points="461,-73 461,-92 589,-92 589,-73 461,-73"/>
<text text-anchor="middle" x="525" y="-80" font-family="Helvetica,sans-Serif" font-size="10.00">math_linear_algebra.scad</text>
</a>
</g>
</g>
<!-- Node2&#45;&gt;Node11 -->
<g id="edge10" class="edge"><title>Node2&#45;&gt;Node11</title>
<path fill="none" stroke="midnightblue" d="M525,-134.475C525,-126.08 525,-112.981 525,-102.163"/>
<polygon fill="midnightblue" stroke="midnightblue" points="528.5,-102.009 525,-92.0091 521.5,-102.009 528.5,-102.009"/>
</g>
<!-- Node12 -->
<g id="node12" class="node"><title>Node12</title>
<g id="a_node12"><a xlink:href="math__vector__algebra_8scad.html" target="_top" xlink:title="Vector algebra mathematical functions. ">
<polygon fill="white" stroke="black" points="607.5,-73 607.5,-92 738.5,-92 738.5,-73 607.5,-73"/>
<text text-anchor="middle" x="673" y="-80" font-family="Helvetica,sans-Serif" font-size="10.00">math_vector_algebra.scad</text>
</a>
</g>
</g>
<!-- Node2&#45;&gt;Node12 -->
<g id="edge11" class="edge"><title>Node2&#45;&gt;Node12</title>
<path fill="none" stroke="midnightblue" d="M546.205,-134.475C571.372,-124.357 613.54,-107.405 642.279,-95.8507"/>
<polygon fill="midnightblue" stroke="midnightblue" points="643.862,-98.9867 651.835,-92.0091 641.251,-92.4919 643.862,-98.9867"/>
</g>
<!-- Node4 -->
<g id="node4" class="node"><title>Node4</title>
<g id="a_node4"><a xlink:href="constants_8scad.html" target="_top" xlink:title="Design constant definitions. ">
<polygon fill="white" stroke="black" points="0,-6 0,-25 92,-25 92,-6 0,-6"/>
<text text-anchor="middle" x="46" y="-13" font-family="Helvetica,sans-Serif" font-size="10.00">../constants.scad</text>
</a>
</g>
</g>
<!-- Node3&#45;&gt;Node4 -->
<g id="edge3" class="edge"><title>Node3&#45;&gt;Node4</title>
<path fill="none" stroke="midnightblue" d="M328.951,-72.81C271.219,-63.684 179.522,-48.2766 101,-31 96.2472,-29.9543 91.2861,-28.7738 86.373,-27.5493"/>
<polygon fill="midnightblue" stroke="midnightblue" points="86.9936,-24.0953 76.4378,-25.0028 85.2556,-30.8761 86.9936,-24.0953"/>
</g>
<!-- Node5 -->
<g id="node5" class="node"><title>Node5</title>
<g id="a_node5"><a xlink:href="datatypes__identify__scalar_8scad.html" target="_top" xlink:title="Scalar data type identification. ">
<polygon fill="white" stroke="black" points="110,-0.5 110,-30.5 206,-30.5 206,-0.5 110,-0.5"/>
<text text-anchor="start" x="118" y="-18.5" font-family="Helvetica,sans-Serif" font-size="10.00">datatypes_identify</text>
<text text-anchor="middle" x="158" y="-7.5" font-family="Helvetica,sans-Serif" font-size="10.00">_scalar.scad</text>
</a>
</g>
</g>
<!-- Node3&#45;&gt;Node5 -->
<g id="edge4" class="edge"><title>Node3&#45;&gt;Node5</title>
<path fill="none" stroke="midnightblue" d="M336.808,-67.476C301.358,-57.3695 253.387,-43.6936 216.057,-33.0513"/>
<polygon fill="midnightblue" stroke="midnightblue" points="216.897,-29.6515 206.321,-30.2757 214.978,-36.3833 216.897,-29.6515"/>
</g>
<!-- Node6 -->
<g id="node6" class="node"><title>Node6</title>
<g id="a_node6"><a xlink:href="datatypes__identify__iterable_8scad.html" target="_top" xlink:title="Iterable data type identification. ">
<polygon fill="white" stroke="black" points="224,-0.5 224,-30.5 320,-30.5 320,-0.5 224,-0.5"/>
<text text-anchor="start" x="232" y="-18.5" font-family="Helvetica,sans-Serif" font-size="10.00">datatypes_identify</text>
<text text-anchor="middle" x="272" y="-7.5" font-family="Helvetica,sans-Serif" font-size="10.00">_iterable.scad</text>
</a>
</g>
</g>
<!-- Node3&#45;&gt;Node6 -->
<g id="edge5" class="edge"><title>Node3&#45;&gt;Node6</title>
<path fill="none" stroke="midnightblue" d="M361.264,-67.396C344.98,-58.1117 323.459,-45.8409 305.629,-35.6742"/>
<polygon fill="midnightblue" stroke="midnightblue" points="307.109,-32.4892 296.688,-30.5765 303.642,-38.5702 307.109,-32.4892"/>
</g>
<!-- Node7 -->
<g id="node7" class="node"><title>Node7</title>
<g id="a_node7"><a xlink:href="datatypes__identify__list_8scad.html" target="_top" xlink:title="List data type identification. ">
<polygon fill="white" stroke="black" points="338,-0.5 338,-30.5 434,-30.5 434,-0.5 338,-0.5"/>
<text text-anchor="start" x="346" y="-18.5" font-family="Helvetica,sans-Serif" font-size="10.00">datatypes_identify</text>
<text text-anchor="middle" x="386" y="-7.5" font-family="Helvetica,sans-Serif" font-size="10.00">_list.scad</text>
</a>
</g>
</g>
<!-- Node3&#45;&gt;Node7 -->
<g id="edge6" class="edge"><title>Node3&#45;&gt;Node7</title>
<path fill="none" stroke="midnightblue" d="M386,-67.396C386,-59.6448 386,-49.8122 386,-40.8601"/>
<polygon fill="midnightblue" stroke="midnightblue" points="389.5,-40.5765 386,-30.5765 382.5,-40.5765 389.5,-40.5765"/>
</g>
<!-- Node8 -->
<g id="node8" class="node"><title>Node8</title>
<g id="a_node8"><a xlink:href="datatypes__operate__scalar_8scad.html" target="_top" xlink:title="Scalar data type operations. ">
<polygon fill="white" stroke="black" points="452,-6 452,-25 604,-25 604,-6 452,-6"/>
<text text-anchor="middle" x="528" y="-13" font-family="Helvetica,sans-Serif" font-size="10.00">datatypes_operate_scalar.scad</text>
</a>
</g>
</g>
<!-- Node3&#45;&gt;Node8 -->
<g id="edge7" class="edge"><title>Node3&#45;&gt;Node8</title>
<path fill="none" stroke="midnightblue" d="M416.812,-67.396C441.617,-56.0414 476.181,-40.2201 500.16,-29.2437"/>
<polygon fill="midnightblue" stroke="midnightblue" points="501.78,-32.3516 509.415,-25.007 498.866,-25.9868 501.78,-32.3516"/>
</g>
<!-- Node9 -->
<g id="node9" class="node"><title>Node9</title>
<g id="a_node9"><a xlink:href="datatypes__operate__iterable_8scad.html" target="_top" xlink:title="Iterable data type operations. ">
<polygon fill="white" stroke="black" points="622,-6 622,-25 780,-25 780,-6 622,-6"/>
<text text-anchor="middle" x="701" y="-13" font-family="Helvetica,sans-Serif" font-size="10.00">datatypes_operate_iterable.scad</text>
</a>
</g>
</g>
<!-- Node3&#45;&gt;Node9 -->
<g id="edge8" class="edge"><title>Node3&#45;&gt;Node9</title>
<path fill="none" stroke="midnightblue" d="M443.225,-68.8685C446.192,-68.2322 449.13,-67.6062 452,-67 519.427,-52.7568 597.296,-37.0894 647.748,-27.0412"/>
<polygon fill="midnightblue" stroke="midnightblue" points="648.648,-30.4309 657.773,-25.0468 647.282,-23.5654 648.648,-30.4309"/>
</g>
<!-- Node10 -->
<g id="node10" class="node"><title>Node10</title>
<g id="a_node10"><a xlink:href="datatypes__operate__list_8scad.html" target="_top" xlink:title="List data type operations. ">
<polygon fill="white" stroke="black" points="798.5,-6 798.5,-25 937.5,-25 937.5,-6 798.5,-6"/>
<text text-anchor="middle" x="868" y="-13" font-family="Helvetica,sans-Serif" font-size="10.00">datatypes_operate_list.scad</text>
</a>
</g>
</g>
<!-- Node3&#45;&gt;Node10 -->
<g id="edge9" class="edge"><title>Node3&#45;&gt;Node10</title>
<path fill="none" stroke="midnightblue" d="M443.164,-68.5387C446.146,-67.9886 449.105,-67.4711 452,-67 600.674,-42.8025 639.928,-52.6117 789,-31 797.332,-29.7921 806.128,-28.3474 814.705,-26.8449"/>
<polygon fill="midnightblue" stroke="midnightblue" points="815.408,-30.2748 824.634,-25.0651 814.173,-23.3846 815.408,-30.2748"/>
</g>
</g>
</svg>
