<?xml version="1.0" encoding="UTF-8" standalone="no"?>
<!DOCTYPE svg PUBLIC "-//W3C//DTD SVG 1.1//EN"
 "http://www.w3.org/Graphics/SVG/1.1/DTD/svg11.dtd">
<!-- Generated by graphviz version 2.38.0 (20140413.2041)
 -->
<!-- Title: omdl&#45;base.scad Pages: 1 -->
<svg width="1111pt" height="386pt"
 viewBox="0.00 0.00 1110.50 386.00" xmlns="http://www.w3.org/2000/svg" xmlns:xlink="http://www.w3.org/1999/xlink">
<g id="graph0" class="graph" transform="scale(1 1) rotate(0) translate(4 382)">
<title>omdl&#45;base.scad</title>
<polygon fill="white" stroke="none" points="-4,4 -4,-382 1106.5,-382 1106.5,4 -4,4"/>
<!-- Node1 -->
<g id="node1" class="node"><title>Node1</title>
<polygon fill="#bfbfbf" stroke="black" points="372,-358.5 372,-377.5 458,-377.5 458,-358.5 372,-358.5"/>
<text text-anchor="middle" x="415" y="-365.5" font-family="Helvetica,sans-Serif" font-size="10.00">omdl&#45;base.scad</text>
</g>
<!-- Node2 -->
<g id="node2" class="node"><title>Node2</title>
<g id="a_node2"><a xlink:href="units__angle_8scad.html" target="_top" xlink:title="Angle units and conversions. ">
<polygon fill="white" stroke="black" points="0,-246.5 0,-265.5 114,-265.5 114,-246.5 0,-246.5"/>
<text text-anchor="middle" x="57" y="-253.5" font-family="Helvetica,sans-Serif" font-size="10.00">units/units_angle.scad</text>
</a>
</g>
</g>
<!-- Node1&#45;&gt;Node2 -->
<g id="edge1" class="edge"><title>Node1&#45;&gt;Node2</title>
<path fill="none" stroke="midnightblue" d="M381.337,-358.437C347.875,-349.78 295.163,-335.751 250,-322 193.647,-304.842 128.896,-282.485 90.5482,-268.965"/>
<polygon fill="midnightblue" stroke="midnightblue" points="91.5198,-265.596 80.925,-265.562 89.186,-272.195 91.5198,-265.596"/>
</g>
<!-- Node4 -->
<g id="node4" class="node"><title>Node4</title>
<g id="a_node4"><a xlink:href="units__coordinate_8scad.html" target="_top" xlink:title="Coordinate systems and conversions. ">
<polygon fill="white" stroke="black" points="132,-246.5 132,-265.5 268,-265.5 268,-246.5 132,-246.5"/>
<text text-anchor="middle" x="200" y="-253.5" font-family="Helvetica,sans-Serif" font-size="10.00">units/units_coordinate.scad</text>
</a>
</g>
</g>
<!-- Node1&#45;&gt;Node4 -->
<g id="edge3" class="edge"><title>Node1&#45;&gt;Node4</title>
<path fill="none" stroke="midnightblue" d="M379.182,-358.483C351.593,-351.085 313.048,-338.891 282,-322 256.997,-308.397 231.882,-287.096 216.159,-272.615"/>
<polygon fill="midnightblue" stroke="midnightblue" points="218.527,-270.038 208.843,-265.742 213.734,-275.14 218.527,-270.038"/>
</g>
<!-- Node5 -->
<g id="node5" class="node"><title>Node5</title>
<g id="a_node5"><a xlink:href="units__resolution_8scad.html" target="_top" xlink:title="An abstraction for arc rendering resolution control. ">
<polygon fill="white" stroke="black" points="130.5,-185 130.5,-204 263.5,-204 263.5,-185 130.5,-185"/>
<text text-anchor="middle" x="197" y="-192" font-family="Helvetica,sans-Serif" font-size="10.00">units/units_resolution.scad</text>
</a>
</g>
</g>
<!-- Node1&#45;&gt;Node5 -->
<g id="edge5" class="edge"><title>Node1&#45;&gt;Node5</title>
<path fill="none" stroke="midnightblue" d="M406.053,-358.261C384.678,-337.585 328.57,-284.514 277,-246 258.959,-232.526 237.298,-219.001 221.068,-209.343"/>
<polygon fill="midnightblue" stroke="midnightblue" points="222.602,-206.185 212.208,-204.134 219.054,-212.219 222.602,-206.185"/>
</g>
<!-- Node8 -->
<g id="node8" class="node"><title>Node8</title>
<g id="a_node8"><a xlink:href="datatypes__map_8scad.html" target="_top" xlink:title="Map data type operations. ">
<polygon fill="white" stroke="black" points="404.5,-179.5 404.5,-209.5 509.5,-209.5 509.5,-179.5 404.5,-179.5"/>
<text text-anchor="start" x="412.5" y="-197.5" font-family="Helvetica,sans-Serif" font-size="10.00">datatypes/datatypes</text>
<text text-anchor="middle" x="457" y="-186.5" font-family="Helvetica,sans-Serif" font-size="10.00">_map.scad</text>
</a>
</g>
</g>
<!-- Node1&#45;&gt;Node8 -->
<g id="edge9" class="edge"><title>Node1&#45;&gt;Node8</title>
<path fill="none" stroke="midnightblue" d="M408.041,-358.31C399.03,-345.974 385.136,-322.594 391,-302 400.121,-269.965 421.944,-238.15 438.011,-217.753"/>
<polygon fill="midnightblue" stroke="midnightblue" points="440.922,-219.719 444.49,-209.743 435.479,-215.317 440.922,-219.719"/>
</g>
<!-- Node16 -->
<g id="node16" class="node"><title>Node16</title>
<g id="a_node16"><a xlink:href="datatypes__table_8scad.html" target="_top" xlink:title="Table data type operations. ">
<polygon fill="white" stroke="black" points="281.5,-179.5 281.5,-209.5 386.5,-209.5 386.5,-179.5 281.5,-179.5"/>
<text text-anchor="start" x="289.5" y="-197.5" font-family="Helvetica,sans-Serif" font-size="10.00">datatypes/datatypes</text>
<text text-anchor="middle" x="334" y="-186.5" font-family="Helvetica,sans-Serif" font-size="10.00">_table.scad</text>
</a>
</g>
</g>
<!-- Node1&#45;&gt;Node16 -->
<g id="edge19" class="edge"><title>Node1&#45;&gt;Node16</title>
<path fill="none" stroke="midnightblue" d="M408.728,-358.323C402.491,-349.465 392.883,-335.182 386,-322 367.936,-287.406 351.633,-245.091 342.276,-219.228"/>
<polygon fill="midnightblue" stroke="midnightblue" points="345.475,-217.779 338.817,-209.538 338.882,-220.132 345.475,-217.779"/>
</g>
<!-- Node17 -->
<g id="node17" class="node"><title>Node17</title>
<g id="a_node17"><a xlink:href="math__utility_8scad.html" target="_top" xlink:title="Miscellaneous mathematical utilities. ">
<polygon fill="white" stroke="black" points="400,-302.5 400,-321.5 516,-321.5 516,-302.5 400,-302.5"/>
<text text-anchor="middle" x="458" y="-309.5" font-family="Helvetica,sans-Serif" font-size="10.00">math/math_utility.scad</text>
</a>
</g>
</g>
<!-- Node1&#45;&gt;Node17 -->
<g id="edge22" class="edge"><title>Node1&#45;&gt;Node17</title>
<path fill="none" stroke="midnightblue" d="M422.101,-358.083C428.237,-350.377 437.27,-339.033 444.739,-329.653"/>
<polygon fill="midnightblue" stroke="midnightblue" points="447.54,-331.754 451.032,-321.751 442.064,-327.394 447.54,-331.754"/>
</g>
<!-- Node19 -->
<g id="node19" class="node"><title>Node19</title>
<g id="a_node19"><a xlink:href="shapes2de_8scad.html" target="_top" xlink:title="Linearly extruded two&#45;dimensional basic shapes. ">
<polygon fill="white" stroke="black" points="664,-302.5 664,-321.5 786,-321.5 786,-302.5 664,-302.5"/>
<text text-anchor="middle" x="725" y="-309.5" font-family="Helvetica,sans-Serif" font-size="10.00">shapes/shapes2de.scad</text>
</a>
</g>
</g>
<!-- Node1&#45;&gt;Node19 -->
<g id="edge25" class="edge"><title>Node1&#45;&gt;Node19</title>
<path fill="none" stroke="midnightblue" d="M458.104,-359.492C512.204,-350.068 605.247,-333.86 665.941,-323.288"/>
<polygon fill="midnightblue" stroke="midnightblue" points="666.885,-326.676 676.136,-321.512 665.684,-319.78 666.885,-326.676"/>
</g>
<!-- Node27 -->
<g id="node27" class="node"><title>Node27</title>
<g id="a_node27"><a xlink:href="shapes3d_8scad.html" target="_top" xlink:title="Three&#45;dimensional basic shapes. ">
<polygon fill="white" stroke="black" points="804.5,-302.5 804.5,-321.5 921.5,-321.5 921.5,-302.5 804.5,-302.5"/>
<text text-anchor="middle" x="863" y="-309.5" font-family="Helvetica,sans-Serif" font-size="10.00">shapes/shapes3d.scad</text>
</a>
</g>
</g>
<!-- Node1&#45;&gt;Node27 -->
<g id="edge38" class="edge"><title>Node1&#45;&gt;Node27</title>
<path fill="none" stroke="midnightblue" d="M458.049,-362.097C526.731,-354.232 665.605,-338.154 794.36,-322.065"/>
<polygon fill="midnightblue" stroke="midnightblue" points="794.914,-325.523 804.401,-320.808 794.044,-318.577 794.914,-325.523"/>
</g>
<!-- Node28 -->
<g id="node28" class="node"><title>Node28</title>
<g id="a_node28"><a xlink:href="tools__edge_8scad.html" target="_top" xlink:title="Shape edge finishing tools. ">
<polygon fill="white" stroke="black" points="534,-302.5 534,-321.5 646,-321.5 646,-302.5 534,-302.5"/>
<text text-anchor="middle" x="590" y="-309.5" font-family="Helvetica,sans-Serif" font-size="10.00">tools/tools_edge.scad</text>
</a>
</g>
</g>
<!-- Node1&#45;&gt;Node28 -->
<g id="edge40" class="edge"><title>Node1&#45;&gt;Node28</title>
<path fill="none" stroke="midnightblue" d="M442.729,-358.444C472.426,-349.28 519.716,-334.688 552.669,-324.519"/>
<polygon fill="midnightblue" stroke="midnightblue" points="553.877,-327.809 562.4,-321.516 551.813,-321.121 553.877,-327.809"/>
</g>
<!-- Node29 -->
<g id="node29" class="node"><title>Node29</title>
<g id="a_node29"><a xlink:href="tools__polytope_8scad.html" target="_top" xlink:title="Polygon and polyhedron tools. ">
<polygon fill="white" stroke="black" points="886,-246.5 886,-265.5 1014,-265.5 1014,-246.5 886,-246.5"/>
<text text-anchor="middle" x="950" y="-253.5" font-family="Helvetica,sans-Serif" font-size="10.00">tools/tools_polytope.scad</text>
</a>
</g>
</g>
<!-- Node1&#45;&gt;Node29 -->
<g id="edge42" class="edge"><title>Node1&#45;&gt;Node29</title>
<path fill="none" stroke="midnightblue" d="M458.381,-365.985C576.034,-362.851 894.795,-351.681 931,-322 944.476,-310.952 948.717,-290.908 949.899,-275.989"/>
<polygon fill="midnightblue" stroke="midnightblue" points="953.403,-275.945 950.308,-265.812 946.409,-275.663 953.403,-275.945"/>
</g>
<!-- Node3 -->
<g id="node3" class="node"><title>Node3</title>
<g id="a_node3"><a xlink:href="constants_8scad.html" target="_top" xlink:title="Design constant definitions. ">
<polygon fill="white" stroke="black" points="41,-6 41,-25 133,-25 133,-6 41,-6"/>
<text text-anchor="middle" x="87" y="-13" font-family="Helvetica,sans-Serif" font-size="10.00">../constants.scad</text>
</a>
</g>
</g>
<!-- Node2&#45;&gt;Node3 -->
<g id="edge2" class="edge"><title>Node2&#45;&gt;Node3</title>
<path fill="none" stroke="midnightblue" d="M58.1033,-246.229C62.4681,-211.529 78.5859,-83.3919 84.6619,-35.0882"/>
<polygon fill="midnightblue" stroke="midnightblue" points="88.1428,-35.4581 85.9183,-25.0994 81.1976,-34.5844 88.1428,-35.4581"/>
</g>
<!-- Node4&#45;&gt;Node3 -->
<g id="edge4" class="edge"><title>Node4&#45;&gt;Node3</title>
<path fill="none" stroke="midnightblue" d="M173.113,-246.484C155.517,-239.495 133.54,-227.81 121,-210 82.9042,-155.895 83.0222,-72.6667 85.3136,-35.5289"/>
<polygon fill="midnightblue" stroke="midnightblue" points="88.8315,-35.4195 86.0882,-25.186 81.851,-34.8967 88.8315,-35.4195"/>
</g>
<!-- Node5&#45;&gt;Node3 -->
<g id="edge7" class="edge"><title>Node5&#45;&gt;Node3</title>
<path fill="none" stroke="midnightblue" d="M187.963,-184.775C178.298,-175.14 162.894,-158.881 152,-143 127.19,-106.834 105.516,-59.9549 94.5706,-34.6408"/>
<polygon fill="midnightblue" stroke="midnightblue" points="97.6928,-33.039 90.5586,-25.2062 91.2511,-35.7784 97.6928,-33.039"/>
</g>
<!-- Node6 -->
<g id="node6" class="node"><title>Node6</title>
<g id="a_node6"><a xlink:href="console_8scad.html" target="_top" xlink:title="Message logging functions. ">
<polygon fill="white" stroke="black" points="355.5,-123.5 355.5,-142.5 438.5,-142.5 438.5,-123.5 355.5,-123.5"/>
<text text-anchor="middle" x="397" y="-130.5" font-family="Helvetica,sans-Serif" font-size="10.00">../console.scad</text>
</a>
</g>
</g>
<!-- Node5&#45;&gt;Node6 -->
<g id="edge6" class="edge"><title>Node5&#45;&gt;Node6</title>
<path fill="none" stroke="midnightblue" d="M225.655,-184.975C260.556,-174.592 319.65,-157.012 358.5,-145.454"/>
<polygon fill="midnightblue" stroke="midnightblue" points="359.811,-148.715 368.398,-142.509 357.815,-142.006 359.811,-148.715"/>
</g>
<!-- Node7 -->
<g id="node7" class="node"><title>Node7</title>
<g id="a_node7"><a xlink:href="units__length_8scad.html" target="_top" xlink:title="Length units and conversions. ">
<polygon fill="white" stroke="black" points="161.5,-123.5 161.5,-142.5 254.5,-142.5 254.5,-123.5 161.5,-123.5"/>
<text text-anchor="middle" x="208" y="-130.5" font-family="Helvetica,sans-Serif" font-size="10.00">units_length.scad</text>
</a>
</g>
</g>
<!-- Node5&#45;&gt;Node7 -->
<g id="edge8" class="edge"><title>Node5&#45;&gt;Node7</title>
<path fill="none" stroke="midnightblue" d="M198.576,-184.975C200.128,-176.58 202.55,-163.481 204.55,-152.663"/>
<polygon fill="midnightblue" stroke="midnightblue" points="208.051,-152.979 206.427,-142.509 201.167,-151.706 208.051,-152.979"/>
</g>
<!-- Node8&#45;&gt;Node6 -->
<g id="edge10" class="edge"><title>Node8&#45;&gt;Node6</title>
<path fill="none" stroke="midnightblue" d="M442.781,-179.399C433.792,-170.486 422.162,-158.952 412.873,-149.741"/>
<polygon fill="midnightblue" stroke="midnightblue" points="415.296,-147.214 405.731,-142.658 410.367,-152.184 415.296,-147.214"/>
</g>
<!-- Node9 -->
<g id="node9" class="node"><title>Node9</title>
<g id="a_node9"><a xlink:href="datatypes-base_8scad.html" target="_top" xlink:title="Include file wrapper of data types base primitives. ">
<polygon fill="white" stroke="black" points="498.5,-67.5 498.5,-86.5 605.5,-86.5 605.5,-67.5 498.5,-67.5"/>
<text text-anchor="middle" x="552" y="-74.5" font-family="Helvetica,sans-Serif" font-size="10.00">datatypes&#45;base.scad</text>
</a>
</g>
</g>
<!-- Node8&#45;&gt;Node9 -->
<g id="edge11" class="edge"><title>Node8&#45;&gt;Node9</title>
<path fill="none" stroke="midnightblue" d="M460.248,-179.261C464.273,-164.051 472.33,-139.859 486,-123 496.472,-110.084 511.613,-99.396 524.751,-91.6816"/>
<polygon fill="midnightblue" stroke="midnightblue" points="526.837,-94.5258 533.869,-86.6006 523.43,-88.4112 526.837,-94.5258"/>
</g>
<!-- Node9&#45;&gt;Node3 -->
<g id="edge12" class="edge"><title>Node9&#45;&gt;Node3</title>
<path fill="none" stroke="midnightblue" d="M498.229,-72.654C419.523,-67.1802 268.553,-54.4926 142,-31 136.853,-30.0445 131.479,-28.8629 126.192,-27.5898"/>
<polygon fill="midnightblue" stroke="midnightblue" points="126.771,-24.1258 116.217,-25.0642 125.052,-30.9117 126.771,-24.1258"/>
</g>
<!-- Node10 -->
<g id="node10" class="node"><title>Node10</title>
<g id="a_node10"><a xlink:href="datatypes__identify__scalar_8scad.html" target="_top" xlink:title="Scalar data type identification. ">
<polygon fill="white" stroke="black" points="655,-0.5 655,-30.5 751,-30.5 751,-0.5 655,-0.5"/>
<text text-anchor="start" x="663" y="-18.5" font-family="Helvetica,sans-Serif" font-size="10.00">datatypes_identify</text>
<text text-anchor="middle" x="703" y="-7.5" font-family="Helvetica,sans-Serif" font-size="10.00">_scalar.scad</text>
</a>
</g>
</g>
<!-- Node9&#45;&gt;Node10 -->
<g id="edge13" class="edge"><title>Node9&#45;&gt;Node10</title>
<path fill="none" stroke="midnightblue" d="M573.635,-67.4751C595.519,-58.8518 630.002,-45.2641 657.865,-34.2852"/>
<polygon fill="midnightblue" stroke="midnightblue" points="659.392,-37.4454 667.412,-30.523 656.825,-30.9328 659.392,-37.4454"/>
</g>
<!-- Node11 -->
<g id="node11" class="node"><title>Node11</title>
<g id="a_node11"><a xlink:href="datatypes__identify__iterable_8scad.html" target="_top" xlink:title="Iterable data type identification. ">
<polygon fill="white" stroke="black" points="769,-0.5 769,-30.5 865,-30.5 865,-0.5 769,-0.5"/>
<text text-anchor="start" x="777" y="-18.5" font-family="Helvetica,sans-Serif" font-size="10.00">datatypes_identify</text>
<text text-anchor="middle" x="817" y="-7.5" font-family="Helvetica,sans-Serif" font-size="10.00">_iterable.scad</text>
</a>
</g>
</g>
<!-- Node9&#45;&gt;Node11 -->
<g id="edge14" class="edge"><title>Node9&#45;&gt;Node11</title>
<path fill="none" stroke="midnightblue" d="M593.536,-67.4735C633.457,-59.1763 695.73,-45.9665 758.716,-31.2573"/>
<polygon fill="midnightblue" stroke="midnightblue" points="759.892,-34.5765 768.828,-28.8842 758.293,-27.7616 759.892,-34.5765"/>
</g>
<!-- Node12 -->
<g id="node12" class="node"><title>Node12</title>
<g id="a_node12"><a xlink:href="datatypes__identify__list_8scad.html" target="_top" xlink:title="List data type identification. ">
<polygon fill="white" stroke="black" points="883,-0.5 883,-30.5 979,-30.5 979,-0.5 883,-0.5"/>
<text text-anchor="start" x="891" y="-18.5" font-family="Helvetica,sans-Serif" font-size="10.00">datatypes_identify</text>
<text text-anchor="middle" x="931" y="-7.5" font-family="Helvetica,sans-Serif" font-size="10.00">_list.scad</text>
</a>
</g>
</g>
<!-- Node9&#45;&gt;Node12 -->
<g id="edge15" class="edge"><title>Node9&#45;&gt;Node12</title>
<path fill="none" stroke="midnightblue" d="M605.573,-70.344C667.655,-63.3821 773.181,-50.2941 872.938,-31.0776"/>
<polygon fill="midnightblue" stroke="midnightblue" points="873.738,-34.4876 882.883,-29.1375 872.397,-27.6171 873.738,-34.4876"/>
</g>
<!-- Node13 -->
<g id="node13" class="node"><title>Node13</title>
<g id="a_node13"><a xlink:href="datatypes__operate__scalar_8scad.html" target="_top" xlink:title="Scalar data type operations. ">
<polygon fill="white" stroke="black" points="151,-6 151,-25 303,-25 303,-6 151,-6"/>
<text text-anchor="middle" x="227" y="-13" font-family="Helvetica,sans-Serif" font-size="10.00">datatypes_operate_scalar.scad</text>
</a>
</g>
</g>
<!-- Node9&#45;&gt;Node13 -->
<g id="edge16" class="edge"><title>Node9&#45;&gt;Node13</title>
<path fill="none" stroke="midnightblue" d="M505.435,-67.4751C446.911,-56.7606 346.524,-38.3821 283.621,-26.8661"/>
<polygon fill="midnightblue" stroke="midnightblue" points="283.945,-23.3672 273.478,-25.0091 282.684,-30.2528 283.945,-23.3672"/>
</g>
<!-- Node14 -->
<g id="node14" class="node"><title>Node14</title>
<g id="a_node14"><a xlink:href="datatypes__operate__iterable_8scad.html" target="_top" xlink:title="Iterable data type operations. ">
<polygon fill="white" stroke="black" points="321,-6 321,-25 479,-25 479,-6 321,-6"/>
<text text-anchor="middle" x="400" y="-13" font-family="Helvetica,sans-Serif" font-size="10.00">datatypes_operate_iterable.scad</text>
</a>
</g>
</g>
<!-- Node9&#45;&gt;Node14 -->
<g id="edge17" class="edge"><title>Node9&#45;&gt;Node14</title>
<path fill="none" stroke="midnightblue" d="M530.222,-67.4751C504.262,-57.3129 460.689,-40.2564 431.165,-28.6996"/>
<polygon fill="midnightblue" stroke="midnightblue" points="432.325,-25.3951 421.737,-25.0091 429.774,-31.9135 432.325,-25.3951"/>
</g>
<!-- Node15 -->
<g id="node15" class="node"><title>Node15</title>
<g id="a_node15"><a xlink:href="datatypes__operate__list_8scad.html" target="_top" xlink:title="List data type operations. ">
<polygon fill="white" stroke="black" points="497.5,-6 497.5,-25 636.5,-25 636.5,-6 497.5,-6"/>
<text text-anchor="middle" x="567" y="-13" font-family="Helvetica,sans-Serif" font-size="10.00">datatypes_operate_list.scad</text>
</a>
</g>
</g>
<!-- Node9&#45;&gt;Node15 -->
<g id="edge18" class="edge"><title>Node9&#45;&gt;Node15</title>
<path fill="none" stroke="midnightblue" d="M554.149,-67.4751C556.288,-58.9919 559.638,-45.7043 562.381,-34.8222"/>
<polygon fill="midnightblue" stroke="midnightblue" points="565.804,-35.5613 564.855,-25.0091 559.016,-33.8501 565.804,-35.5613"/>
</g>
<!-- Node16&#45;&gt;Node6 -->
<g id="edge20" class="edge"><title>Node16&#45;&gt;Node6</title>
<path fill="none" stroke="midnightblue" d="M348.93,-179.399C358.368,-170.486 370.58,-158.952 380.333,-149.741"/>
<polygon fill="midnightblue" stroke="midnightblue" points="382.966,-152.069 387.833,-142.658 378.16,-146.979 382.966,-152.069"/>
</g>
<!-- Node16&#45;&gt;Node9 -->
<g id="edge21" class="edge"><title>Node16&#45;&gt;Node9</title>
<path fill="none" stroke="midnightblue" d="M332.152,-179.3C330.939,-163.43 331.683,-137.998 346,-123 365.353,-102.726 435.261,-90.6051 488.319,-84.1378"/>
<polygon fill="midnightblue" stroke="midnightblue" points="488.827,-87.6023 498.349,-82.9572 488.009,-80.6502 488.827,-87.6023"/>
</g>
<!-- Node18 -->
<g id="node18" class="node"><title>Node18</title>
<g id="a_node18"><a xlink:href="math__bitwise_8scad.html" target="_top" xlink:title="Mathematical base&#45;two bitwise binary functions. ">
<polygon fill="white" stroke="black" points="495,-123.5 495,-142.5 593,-142.5 593,-123.5 495,-123.5"/>
<text text-anchor="middle" x="544" y="-130.5" font-family="Helvetica,sans-Serif" font-size="10.00">math_bitwise.scad</text>
</a>
</g>
</g>
<!-- Node17&#45;&gt;Node18 -->
<g id="edge23" class="edge"><title>Node17&#45;&gt;Node18</title>
<path fill="none" stroke="midnightblue" d="M463.933,-302.417C475.504,-285.4 501.404,-245.918 518,-210 526.755,-191.053 534.16,-168.282 538.801,-152.636"/>
<polygon fill="midnightblue" stroke="midnightblue" points="542.27,-153.236 541.672,-142.658 535.543,-151.3 542.27,-153.236"/>
</g>
<!-- Node18&#45;&gt;Node9 -->
<g id="edge24" class="edge"><title>Node18&#45;&gt;Node9</title>
<path fill="none" stroke="midnightblue" d="M545.321,-123.083C546.381,-115.927 547.906,-105.635 549.231,-96.6911"/>
<polygon fill="midnightblue" stroke="midnightblue" points="552.7,-97.1561 550.704,-86.7511 545.776,-96.1302 552.7,-97.1561"/>
</g>
<!-- Node20 -->
<g id="node20" class="node"><title>Node20</title>
<g id="a_node20"><a xlink:href="shapes2d_8scad.html" target="_top" xlink:title="Two&#45;dimensional basic shapes. ">
<polygon fill="white" stroke="black" points="683.5,-246.5 683.5,-265.5 766.5,-265.5 766.5,-246.5 683.5,-246.5"/>
<text text-anchor="middle" x="725" y="-253.5" font-family="Helvetica,sans-Serif" font-size="10.00">shapes2d.scad</text>
</a>
</g>
</g>
<!-- Node19&#45;&gt;Node20 -->
<g id="edge26" class="edge"><title>Node19&#45;&gt;Node20</title>
<path fill="none" stroke="midnightblue" d="M725,-302.083C725,-295.006 725,-284.861 725,-275.986"/>
<polygon fill="midnightblue" stroke="midnightblue" points="728.5,-275.751 725,-265.751 721.5,-275.751 728.5,-275.751"/>
</g>
<!-- Node21 -->
<g id="node21" class="node"><title>Node21</title>
<g id="a_node21"><a xlink:href="math__triangle_8scad.html" target="_top" xlink:title="Triangle solutions mathematical functions. ">
<polygon fill="white" stroke="black" points="707.5,-185 707.5,-204 840.5,-204 840.5,-185 707.5,-185"/>
<text text-anchor="middle" x="774" y="-192" font-family="Helvetica,sans-Serif" font-size="10.00">../math/math_triangle.scad</text>
</a>
</g>
</g>
<!-- Node20&#45;&gt;Node21 -->
<g id="edge27" class="edge"><title>Node20&#45;&gt;Node21</title>
<path fill="none" stroke="midnightblue" d="M732.021,-246.475C739.443,-237.462 751.333,-223.025 760.567,-211.812"/>
<polygon fill="midnightblue" stroke="midnightblue" points="763.337,-213.953 766.993,-204.009 757.934,-209.503 763.337,-213.953"/>
</g>
<!-- Node25 -->
<g id="node25" class="node"><title>Node25</title>
<g id="a_node25"><a xlink:href="tools__utility_8scad.html" target="_top" xlink:title="Shape transformation utility tools. ">
<polygon fill="white" stroke="black" points="566.5,-185 566.5,-204 689.5,-204 689.5,-185 566.5,-185"/>
<text text-anchor="middle" x="628" y="-192" font-family="Helvetica,sans-Serif" font-size="10.00">../tools/tools_utility.scad</text>
</a>
</g>
</g>
<!-- Node20&#45;&gt;Node25 -->
<g id="edge32" class="edge"><title>Node20&#45;&gt;Node25</title>
<path fill="none" stroke="midnightblue" d="M711.102,-246.475C695.328,-236.799 669.363,-220.872 650.651,-209.394"/>
<polygon fill="midnightblue" stroke="midnightblue" points="652.226,-206.254 641.872,-204.009 648.566,-212.221 652.226,-206.254"/>
</g>
<!-- Node22 -->
<g id="node22" class="node"><title>Node22</title>
<g id="a_node22"><a xlink:href="math-base_8scad.html" target="_top" xlink:title="Include file wrapper of math base primitives. ">
<polygon fill="white" stroke="black" points="767,-123.5 767,-142.5 853,-142.5 853,-123.5 767,-123.5"/>
<text text-anchor="middle" x="810" y="-130.5" font-family="Helvetica,sans-Serif" font-size="10.00">math&#45;base.scad</text>
</a>
</g>
</g>
<!-- Node21&#45;&gt;Node22 -->
<g id="edge28" class="edge"><title>Node21&#45;&gt;Node22</title>
<path fill="none" stroke="midnightblue" d="M779.158,-184.975C784.451,-176.227 792.835,-162.369 799.527,-151.309"/>
<polygon fill="midnightblue" stroke="midnightblue" points="802.67,-152.877 804.852,-142.509 796.68,-149.253 802.67,-152.877"/>
</g>
<!-- Node22&#45;&gt;Node9 -->
<g id="edge29" class="edge"><title>Node22&#45;&gt;Node9</title>
<path fill="none" stroke="midnightblue" d="M769.119,-123.444C724.017,-114.004 651.388,-98.802 602.698,-88.6111"/>
<polygon fill="midnightblue" stroke="midnightblue" points="603.195,-85.1394 592.69,-86.5164 601.76,-91.9909 603.195,-85.1394"/>
</g>
<!-- Node23 -->
<g id="node23" class="node"><title>Node23</title>
<g id="a_node23"><a xlink:href="math__linear__algebra_8scad.html" target="_top" xlink:title="Linear algebra mathematical functions. ">
<polygon fill="white" stroke="black" points="689,-67.5 689,-86.5 817,-86.5 817,-67.5 689,-67.5"/>
<text text-anchor="middle" x="753" y="-74.5" font-family="Helvetica,sans-Serif" font-size="10.00">math_linear_algebra.scad</text>
</a>
</g>
</g>
<!-- Node22&#45;&gt;Node23 -->
<g id="edge30" class="edge"><title>Node22&#45;&gt;Node23</title>
<path fill="none" stroke="midnightblue" d="M800.842,-123.324C792.499,-115.42 779.968,-103.548 769.823,-93.9377"/>
<polygon fill="midnightblue" stroke="midnightblue" points="771.991,-91.1705 762.325,-86.8339 767.177,-96.2522 771.991,-91.1705"/>
</g>
<!-- Node24 -->
<g id="node24" class="node"><title>Node24</title>
<g id="a_node24"><a xlink:href="math__vector__algebra_8scad.html" target="_top" xlink:title="Vector algebra mathematical functions. ">
<polygon fill="white" stroke="black" points="835.5,-67.5 835.5,-86.5 966.5,-86.5 966.5,-67.5 835.5,-67.5"/>
<text text-anchor="middle" x="901" y="-74.5" font-family="Helvetica,sans-Serif" font-size="10.00">math_vector_algebra.scad</text>
</a>
</g>
</g>
<!-- Node22&#45;&gt;Node24 -->
<g id="edge31" class="edge"><title>Node22&#45;&gt;Node24</title>
<path fill="none" stroke="midnightblue" d="M824.621,-123.324C838.949,-114.822 861.013,-101.729 877.749,-91.7975"/>
<polygon fill="midnightblue" stroke="midnightblue" points="879.602,-94.7677 886.416,-86.6545 876.03,-88.7478 879.602,-94.7677"/>
</g>
<!-- Node25&#45;&gt;Node6 -->
<g id="edge33" class="edge"><title>Node25&#45;&gt;Node6</title>
<path fill="none" stroke="midnightblue" d="M594.903,-184.975C554.078,-174.459 484.592,-156.562 439.761,-145.014"/>
<polygon fill="midnightblue" stroke="midnightblue" points="440.592,-141.614 430.035,-142.509 438.846,-148.393 440.592,-141.614"/>
</g>
<!-- Node25&#45;&gt;Node18 -->
<g id="edge37" class="edge"><title>Node25&#45;&gt;Node18</title>
<path fill="none" stroke="midnightblue" d="M615.965,-184.975C602.492,-175.431 580.434,-159.807 564.285,-148.368"/>
<polygon fill="midnightblue" stroke="midnightblue" points="566.196,-145.433 556.013,-142.509 562.15,-151.145 566.196,-145.433"/>
</g>
<!-- Node25&#45;&gt;Node22 -->
<g id="edge34" class="edge"><title>Node25&#45;&gt;Node22</title>
<path fill="none" stroke="midnightblue" d="M654.076,-184.975C685.566,-174.68 738.698,-157.31 774.058,-145.75"/>
<polygon fill="midnightblue" stroke="midnightblue" points="775.555,-148.943 783.972,-142.509 773.38,-142.29 775.555,-148.943"/>
</g>
<!-- Node26 -->
<g id="node26" class="node"><title>Node26</title>
<g id="a_node26"><a xlink:href="math__oshapes_8scad.html" target="_top" xlink:title="Other shapes mathematical functions. ">
<polygon fill="white" stroke="black" points="611,-123.5 611,-142.5 749,-142.5 749,-123.5 611,-123.5"/>
<text text-anchor="middle" x="680" y="-130.5" font-family="Helvetica,sans-Serif" font-size="10.00">../math/math_oshapes.scad</text>
</a>
</g>
</g>
<!-- Node25&#45;&gt;Node26 -->
<g id="edge35" class="edge"><title>Node25&#45;&gt;Node26</title>
<path fill="none" stroke="midnightblue" d="M635.45,-184.975C643.328,-175.962 655.945,-161.525 665.744,-150.312"/>
<polygon fill="midnightblue" stroke="midnightblue" points="668.618,-152.342 672.563,-142.509 663.347,-147.736 668.618,-152.342"/>
</g>
<!-- Node26&#45;&gt;Node9 -->
<g id="edge36" class="edge"><title>Node26&#45;&gt;Node9</title>
<path fill="none" stroke="midnightblue" d="M659.718,-123.444C638.653,-114.557 605.483,-100.563 581.514,-90.4514"/>
<polygon fill="midnightblue" stroke="midnightblue" points="582.761,-87.1787 572.187,-86.5164 580.04,-93.6283 582.761,-87.1787"/>
</g>
<!-- Node27&#45;&gt;Node20 -->
<g id="edge39" class="edge"><title>Node27&#45;&gt;Node20</title>
<path fill="none" stroke="midnightblue" d="M841.133,-302.444C818.221,-293.478 782.025,-279.314 756.134,-269.183"/>
<polygon fill="midnightblue" stroke="midnightblue" points="757.352,-265.901 746.764,-265.516 754.801,-272.42 757.352,-265.901"/>
</g>
<!-- Node28&#45;&gt;Node20 -->
<g id="edge41" class="edge"><title>Node28&#45;&gt;Node20</title>
<path fill="none" stroke="midnightblue" d="M611.391,-302.444C633.707,-293.517 668.903,-279.439 694.208,-269.317"/>
<polygon fill="midnightblue" stroke="midnightblue" points="695.724,-272.48 703.709,-265.516 693.124,-265.981 695.724,-272.48"/>
</g>
<!-- Node30 -->
<g id="node30" class="node"><title>Node30</title>
<g id="a_node30"><a xlink:href="math__polytope_8scad.html" target="_top" xlink:title="Polygon and polyhedron mathematical functions. ">
<polygon fill="white" stroke="black" points="859,-185 859,-204 997,-204 997,-185 859,-185"/>
<text text-anchor="middle" x="928" y="-192" font-family="Helvetica,sans-Serif" font-size="10.00">../math/math_polytope.scad</text>
</a>
</g>
</g>
<!-- Node29&#45;&gt;Node30 -->
<g id="edge43" class="edge"><title>Node29&#45;&gt;Node30</title>
<path fill="none" stroke="midnightblue" d="M946.848,-246.475C943.679,-237.904 938.696,-224.427 934.649,-213.483"/>
<polygon fill="midnightblue" stroke="midnightblue" points="937.897,-212.175 931.146,-204.009 931.332,-214.602 937.897,-212.175"/>
</g>
<!-- Node31 -->
<g id="node31" class="node"><title>Node31</title>
<g id="a_node31"><a xlink:href="tools__align_8scad.html" target="_top" xlink:title="Shape alignment tools. ">
<polygon fill="white" stroke="black" points="1015.5,-185 1015.5,-204 1102.5,-204 1102.5,-185 1015.5,-185"/>
<text text-anchor="middle" x="1059" y="-192" font-family="Helvetica,sans-Serif" font-size="10.00">tools_align.scad</text>
</a>
</g>
</g>
<!-- Node29&#45;&gt;Node31 -->
<g id="edge45" class="edge"><title>Node29&#45;&gt;Node31</title>
<path fill="none" stroke="midnightblue" d="M965.617,-246.475C983.586,-236.666 1013.32,-220.435 1034.41,-208.925"/>
<polygon fill="midnightblue" stroke="midnightblue" points="1036.31,-211.873 1043.41,-204.009 1032.96,-205.728 1036.31,-211.873"/>
</g>
<!-- Node30&#45;&gt;Node22 -->
<g id="edge44" class="edge"><title>Node30&#45;&gt;Node22</title>
<path fill="none" stroke="midnightblue" d="M911.093,-184.975C891.466,-175.078 858.869,-158.642 836.01,-147.115"/>
<polygon fill="midnightblue" stroke="midnightblue" points="837.38,-143.886 826.875,-142.509 834.228,-150.137 837.38,-143.886"/>
</g>
<!-- Node31&#45;&gt;Node22 -->
<g id="edge46" class="edge"><title>Node31&#45;&gt;Node22</title>
<path fill="none" stroke="midnightblue" d="M1028.51,-184.926C1021.15,-182.922 1013.31,-180.838 1006,-179 956.32,-166.507 899.201,-153.552 859.491,-144.769"/>
<polygon fill="midnightblue" stroke="midnightblue" points="860.052,-141.308 849.533,-142.573 858.545,-148.144 860.052,-141.308"/>
</g>
</g>
</svg>
