solid OpenSCAD_Model
  facet normal 0 -1 0
    outer loop
      vertex -86.2856 -35.7407 35.7407
      vertex 35.7407 -35.7407 86.2856
      vertex -35.7407 -35.7407 86.2856
    endloop
  endfacet
  facet normal 0 -1 0
    outer loop
      vertex -86.2856 -35.7407 35.7407
      vertex 86.2856 -35.7407 35.7407
      vertex 35.7407 -35.7407 86.2856
    endloop
  endfacet
  facet normal 0 -1 0
    outer loop
      vertex -86.2856 -35.7407 -35.7407
      vertex 86.2856 -35.7407 35.7407
      vertex -86.2856 -35.7407 35.7407
    endloop
  endfacet
  facet normal 0 -1 0
    outer loop
      vertex -86.2856 -35.7407 -35.7407
      vertex 86.2856 -35.7407 -35.7407
      vertex 86.2856 -35.7407 35.7407
    endloop
  endfacet
  facet normal 0 -1 0
    outer loop
      vertex -35.7407 -35.7407 -86.2856
      vertex 86.2856 -35.7407 -35.7407
      vertex -86.2856 -35.7407 -35.7407
    endloop
  endfacet
  facet normal 0 -1 0
    outer loop
      vertex 86.2856 -35.7407 -35.7407
      vertex -35.7407 -35.7407 -86.2856
      vertex 35.7407 -35.7407 -86.2856
    endloop
  endfacet
  facet normal 0 1 0
    outer loop
      vertex 86.2856 35.7407 35.7407
      vertex -35.7407 35.7407 86.2856
      vertex 35.7407 35.7407 86.2856
    endloop
  endfacet
  facet normal 0 1 0
    outer loop
      vertex 86.2856 35.7407 35.7407
      vertex -86.2856 35.7407 35.7407
      vertex -35.7407 35.7407 86.2856
    endloop
  endfacet
  facet normal 0 1 -0
    outer loop
      vertex 86.2856 35.7407 -35.7407
      vertex -86.2856 35.7407 35.7407
      vertex 86.2856 35.7407 35.7407
    endloop
  endfacet
  facet normal 0 1 0
    outer loop
      vertex 86.2856 35.7407 -35.7407
      vertex -86.2856 35.7407 -35.7407
      vertex -86.2856 35.7407 35.7407
    endloop
  endfacet
  facet normal 0 1 -0
    outer loop
      vertex 35.7407 35.7407 -86.2856
      vertex -86.2856 35.7407 -35.7407
      vertex 86.2856 35.7407 -35.7407
    endloop
  endfacet
  facet normal 0 1 0
    outer loop
      vertex -86.2856 35.7407 -35.7407
      vertex 35.7407 35.7407 -86.2856
      vertex -35.7407 35.7407 -86.2856
    endloop
  endfacet
  facet normal -0.707107 0 -0.707107
    outer loop
      vertex -35.7407 -35.7407 -86.2856
      vertex -86.2856 35.7407 -35.7407
      vertex -35.7407 35.7407 -86.2856
    endloop
  endfacet
  facet normal -0.707107 -0 -0.707107
    outer loop
      vertex -86.2856 35.7407 -35.7407
      vertex -35.7407 -35.7407 -86.2856
      vertex -86.2856 -35.7407 -35.7407
    endloop
  endfacet
  facet normal -1 0 0
    outer loop
      vertex -86.2856 -35.7407 -35.7407
      vertex -86.2856 35.7407 35.7407
      vertex -86.2856 35.7407 -35.7407
    endloop
  endfacet
  facet normal -1 -0 0
    outer loop
      vertex -86.2856 35.7407 35.7407
      vertex -86.2856 -35.7407 -35.7407
      vertex -86.2856 -35.7407 35.7407
    endloop
  endfacet
  facet normal -0.707107 0 0.707107
    outer loop
      vertex -86.2856 -35.7407 35.7407
      vertex -35.7407 35.7407 86.2856
      vertex -86.2856 35.7407 35.7407
    endloop
  endfacet
  facet normal -0.707107 0 0.707107
    outer loop
      vertex -35.7407 35.7407 86.2856
      vertex -86.2856 -35.7407 35.7407
      vertex -35.7407 -35.7407 86.2856
    endloop
  endfacet
  facet normal -0 0 1
    outer loop
      vertex -35.7407 35.7407 86.2856
      vertex 35.7407 -35.7407 86.2856
      vertex 35.7407 35.7407 86.2856
    endloop
  endfacet
  facet normal 0 0 1
    outer loop
      vertex 35.7407 -35.7407 86.2856
      vertex -35.7407 35.7407 86.2856
      vertex -35.7407 -35.7407 86.2856
    endloop
  endfacet
  facet normal 0.707107 -0 0.707107
    outer loop
      vertex 35.7407 -35.7407 86.2856
      vertex 86.2856 35.7407 35.7407
      vertex 35.7407 35.7407 86.2856
    endloop
  endfacet
  facet normal 0.707107 0 0.707107
    outer loop
      vertex 86.2856 35.7407 35.7407
      vertex 35.7407 -35.7407 86.2856
      vertex 86.2856 -35.7407 35.7407
    endloop
  endfacet
  facet normal 1 -0 0
    outer loop
      vertex 86.2856 -35.7407 35.7407
      vertex 86.2856 35.7407 -35.7407
      vertex 86.2856 35.7407 35.7407
    endloop
  endfacet
  facet normal 1 0 0
    outer loop
      vertex 86.2856 35.7407 -35.7407
      vertex 86.2856 -35.7407 35.7407
      vertex 86.2856 -35.7407 -35.7407
    endloop
  endfacet
  facet normal 0.707107 0 -0.707107
    outer loop
      vertex 86.2856 -35.7407 -35.7407
      vertex 35.7407 35.7407 -86.2856
      vertex 86.2856 35.7407 -35.7407
    endloop
  endfacet
  facet normal 0.707107 0 -0.707107
    outer loop
      vertex 35.7407 35.7407 -86.2856
      vertex 86.2856 -35.7407 -35.7407
      vertex 35.7407 -35.7407 -86.2856
    endloop
  endfacet
  facet normal 0 0 -1
    outer loop
      vertex -35.7407 -35.7407 -86.2856
      vertex 35.7407 35.7407 -86.2856
      vertex 35.7407 -35.7407 -86.2856
    endloop
  endfacet
  facet normal -0 0 -1
    outer loop
      vertex 35.7407 35.7407 -86.2856
      vertex -35.7407 -35.7407 -86.2856
      vertex -35.7407 35.7407 -86.2856
    endloop
  endfacet
endsolid OpenSCAD_Model
