solid OpenSCAD_Model
  facet normal 0 -1 0
    outer loop
      vertex -81.9909 -50.6732 -26.6405
      vertex 50.6732 -50.6732 69.7457
      vertex -50.6732 -50.6732 69.7457
    endloop
  endfacet
  facet normal 0 -1 0
    outer loop
      vertex -81.9909 -50.6732 -26.6405
      vertex 81.9909 -50.6732 -26.6405
      vertex 50.6732 -50.6732 69.7457
    endloop
  endfacet
  facet normal -0 -1 0
    outer loop
      vertex 81.9909 -50.6732 -26.6405
      vertex -81.9909 -50.6732 -26.6405
      vertex -0 -50.6732 -86.2104
    endloop
  endfacet
  facet normal 0 1 0
    outer loop
      vertex 81.9909 50.6732 -26.6405
      vertex -50.6732 50.6732 69.7457
      vertex 50.6732 50.6732 69.7457
    endloop
  endfacet
  facet normal 0 1 0
    outer loop
      vertex 81.9909 50.6732 -26.6405
      vertex -81.9909 50.6732 -26.6405
      vertex -50.6732 50.6732 69.7457
    endloop
  endfacet
  facet normal -0 1 0
    outer loop
      vertex -81.9909 50.6732 -26.6405
      vertex 81.9909 50.6732 -26.6405
      vertex 0 50.6732 -86.2104
    endloop
  endfacet
  facet normal -0.587785 0 -0.809017
    outer loop
      vertex -81.9909 -50.6732 -26.6405
      vertex 0 50.6732 -86.2104
      vertex -0 -50.6732 -86.2104
    endloop
  endfacet
  facet normal -0.587785 0 -0.809017
    outer loop
      vertex 0 50.6732 -86.2104
      vertex -81.9909 -50.6732 -26.6405
      vertex -81.9909 50.6732 -26.6405
    endloop
  endfacet
  facet normal -0.951057 0 0.309017
    outer loop
      vertex -81.9909 -50.6732 -26.6405
      vertex -50.6732 50.6732 69.7457
      vertex -81.9909 50.6732 -26.6405
    endloop
  endfacet
  facet normal -0.951057 0 0.309017
    outer loop
      vertex -50.6732 50.6732 69.7457
      vertex -81.9909 -50.6732 -26.6405
      vertex -50.6732 -50.6732 69.7457
    endloop
  endfacet
  facet normal -0 0 1
    outer loop
      vertex -50.6732 50.6732 69.7457
      vertex 50.6732 -50.6732 69.7457
      vertex 50.6732 50.6732 69.7457
    endloop
  endfacet
  facet normal 0 0 1
    outer loop
      vertex 50.6732 -50.6732 69.7457
      vertex -50.6732 50.6732 69.7457
      vertex -50.6732 -50.6732 69.7457
    endloop
  endfacet
  facet normal 0.951057 -0 0.309017
    outer loop
      vertex 50.6732 -50.6732 69.7457
      vertex 81.9909 50.6732 -26.6405
      vertex 50.6732 50.6732 69.7457
    endloop
  endfacet
  facet normal 0.951057 0 0.309017
    outer loop
      vertex 81.9909 50.6732 -26.6405
      vertex 50.6732 -50.6732 69.7457
      vertex 81.9909 -50.6732 -26.6405
    endloop
  endfacet
  facet normal 0.587785 0 -0.809017
    outer loop
      vertex -0 -50.6732 -86.2104
      vertex 81.9909 50.6732 -26.6405
      vertex 81.9909 -50.6732 -26.6405
    endloop
  endfacet
  facet normal 0.587785 0 -0.809017
    outer loop
      vertex 81.9909 50.6732 -26.6405
      vertex -0 -50.6732 -86.2104
      vertex 0 50.6732 -86.2104
    endloop
  endfacet
endsolid OpenSCAD_Model
