solid OpenSCAD_Model
  facet normal -0 -1 0
    outer loop
      vertex 65.4654 -65.4654 37.7964
      vertex -65.4654 -65.4654 37.7964
      vertex -0 -65.4654 -75.5929
    endloop
  endfacet
  facet normal -0 1 0
    outer loop
      vertex -65.4654 65.4654 37.7964
      vertex 65.4654 65.4654 37.7964
      vertex 0 65.4654 -75.5929
    endloop
  endfacet
  facet normal -0.866025 0 -0.5
    outer loop
      vertex -0 -65.4654 -75.5929
      vertex -65.4654 65.4654 37.7964
      vertex 0 65.4654 -75.5929
    endloop
  endfacet
  facet normal -0.866025 -0 -0.5
    outer loop
      vertex -65.4654 65.4654 37.7964
      vertex -0 -65.4654 -75.5929
      vertex -65.4654 -65.4654 37.7964
    endloop
  endfacet
  facet normal -0 0 1
    outer loop
      vertex -65.4654 65.4654 37.7964
      vertex 65.4654 -65.4654 37.7964
      vertex 65.4654 65.4654 37.7964
    endloop
  endfacet
  facet normal 0 0 1
    outer loop
      vertex 65.4654 -65.4654 37.7964
      vertex -65.4654 65.4654 37.7964
      vertex -65.4654 -65.4654 37.7964
    endloop
  endfacet
  facet normal 0.866025 0 -0.5
    outer loop
      vertex 65.4654 -65.4654 37.7964
      vertex 0 65.4654 -75.5929
      vertex 65.4654 65.4654 37.7964
    endloop
  endfacet
  facet normal 0.866025 -0 -0.5
    outer loop
      vertex 0 65.4654 -75.5929
      vertex 65.4654 -65.4654 37.7964
      vertex -0 -65.4654 -75.5929
    endloop
  endfacet
endsolid OpenSCAD_Model
