solid OpenSCAD_Model
  facet normal 0 -1 0
    outer loop
      vertex -77.2953 -29.5242 56.1583
      vertex 29.5242 -29.5242 90.8661
      vertex -29.5242 -29.5242 90.8661
    endloop
  endfacet
  facet normal 0 -1 0
    outer loop
      vertex -77.2953 -29.5242 56.1583
      vertex 77.2953 -29.5242 56.1583
      vertex 29.5242 -29.5242 90.8661
    endloop
  endfacet
  facet normal 0 -1 0
    outer loop
      vertex -95.5423 -29.5242 0
      vertex 77.2953 -29.5242 56.1583
      vertex -77.2953 -29.5242 56.1583
    endloop
  endfacet
  facet normal 0 -1 0
    outer loop
      vertex -95.5423 -29.5242 0
      vertex 95.5423 -29.5242 0
      vertex 77.2953 -29.5242 56.1583
    endloop
  endfacet
  facet normal 0 -1 0
    outer loop
      vertex -77.2953 -29.5242 -56.1583
      vertex 95.5423 -29.5242 0
      vertex -95.5423 -29.5242 0
    endloop
  endfacet
  facet normal 0 -1 0
    outer loop
      vertex -77.2953 -29.5242 -56.1583
      vertex 77.2953 -29.5242 -56.1583
      vertex 95.5423 -29.5242 0
    endloop
  endfacet
  facet normal 0 -1 0
    outer loop
      vertex -29.5242 -29.5242 -90.8661
      vertex 77.2953 -29.5242 -56.1583
      vertex -77.2953 -29.5242 -56.1583
    endloop
  endfacet
  facet normal 0 -1 0
    outer loop
      vertex 77.2953 -29.5242 -56.1583
      vertex -29.5242 -29.5242 -90.8661
      vertex 29.5242 -29.5242 -90.8661
    endloop
  endfacet
  facet normal 0 1 0
    outer loop
      vertex 77.2953 29.5242 56.1583
      vertex -29.5242 29.5242 90.8661
      vertex 29.5242 29.5242 90.8661
    endloop
  endfacet
  facet normal 0 1 0
    outer loop
      vertex 77.2953 29.5242 56.1583
      vertex -77.2953 29.5242 56.1583
      vertex -29.5242 29.5242 90.8661
    endloop
  endfacet
  facet normal 0 1 0
    outer loop
      vertex 95.5423 29.5242 0
      vertex -77.2953 29.5242 56.1583
      vertex 77.2953 29.5242 56.1583
    endloop
  endfacet
  facet normal 0 1 0
    outer loop
      vertex 95.5423 29.5242 0
      vertex -95.5423 29.5242 0
      vertex -77.2953 29.5242 56.1583
    endloop
  endfacet
  facet normal 0 1 -0
    outer loop
      vertex 77.2953 29.5242 -56.1583
      vertex -95.5423 29.5242 0
      vertex 95.5423 29.5242 0
    endloop
  endfacet
  facet normal 0 1 0
    outer loop
      vertex 77.2953 29.5242 -56.1583
      vertex -77.2953 29.5242 -56.1583
      vertex -95.5423 29.5242 0
    endloop
  endfacet
  facet normal 0 1 -0
    outer loop
      vertex 29.5242 29.5242 -90.8661
      vertex -77.2953 29.5242 -56.1583
      vertex 77.2953 29.5242 -56.1583
    endloop
  endfacet
  facet normal 0 1 0
    outer loop
      vertex -77.2953 29.5242 -56.1583
      vertex 29.5242 29.5242 -90.8661
      vertex -29.5242 29.5242 -90.8661
    endloop
  endfacet
  facet normal -0.587785 0 -0.809017
    outer loop
      vertex -77.2953 -29.5242 -56.1583
      vertex -29.5242 29.5242 -90.8661
      vertex -29.5242 -29.5242 -90.8661
    endloop
  endfacet
  facet normal -0.587785 0 -0.809017
    outer loop
      vertex -29.5242 29.5242 -90.8661
      vertex -77.2953 -29.5242 -56.1583
      vertex -77.2953 29.5242 -56.1583
    endloop
  endfacet
  facet normal -0.951057 0 -0.309017
    outer loop
      vertex -77.2953 -29.5242 -56.1583
      vertex -95.5423 29.5242 0
      vertex -77.2953 29.5242 -56.1583
    endloop
  endfacet
  facet normal -0.951057 -0 -0.309017
    outer loop
      vertex -95.5423 29.5242 0
      vertex -77.2953 -29.5242 -56.1583
      vertex -95.5423 -29.5242 0
    endloop
  endfacet
  facet normal -0.951057 0 0.309017
    outer loop
      vertex -95.5423 -29.5242 0
      vertex -77.2953 29.5242 56.1583
      vertex -95.5423 29.5242 0
    endloop
  endfacet
  facet normal -0.951057 0 0.309017
    outer loop
      vertex -77.2953 29.5242 56.1583
      vertex -95.5423 -29.5242 0
      vertex -77.2953 -29.5242 56.1583
    endloop
  endfacet
  facet normal -0.587785 0 0.809017
    outer loop
      vertex -77.2953 29.5242 56.1583
      vertex -29.5242 -29.5242 90.8661
      vertex -29.5242 29.5242 90.8661
    endloop
  endfacet
  facet normal -0.587785 0 0.809017
    outer loop
      vertex -29.5242 -29.5242 90.8661
      vertex -77.2953 29.5242 56.1583
      vertex -77.2953 -29.5242 56.1583
    endloop
  endfacet
  facet normal -0 0 1
    outer loop
      vertex -29.5242 29.5242 90.8661
      vertex 29.5242 -29.5242 90.8661
      vertex 29.5242 29.5242 90.8661
    endloop
  endfacet
  facet normal 0 0 1
    outer loop
      vertex 29.5242 -29.5242 90.8661
      vertex -29.5242 29.5242 90.8661
      vertex -29.5242 -29.5242 90.8661
    endloop
  endfacet
  facet normal 0.587785 0 0.809017
    outer loop
      vertex 29.5242 29.5242 90.8661
      vertex 77.2953 -29.5242 56.1583
      vertex 77.2953 29.5242 56.1583
    endloop
  endfacet
  facet normal 0.587785 0 0.809017
    outer loop
      vertex 77.2953 -29.5242 56.1583
      vertex 29.5242 29.5242 90.8661
      vertex 29.5242 -29.5242 90.8661
    endloop
  endfacet
  facet normal 0.951057 -0 0.309017
    outer loop
      vertex 77.2953 -29.5242 56.1583
      vertex 95.5423 29.5242 0
      vertex 77.2953 29.5242 56.1583
    endloop
  endfacet
  facet normal 0.951057 0 0.309017
    outer loop
      vertex 95.5423 29.5242 0
      vertex 77.2953 -29.5242 56.1583
      vertex 95.5423 -29.5242 0
    endloop
  endfacet
  facet normal 0.951057 0 -0.309017
    outer loop
      vertex 95.5423 -29.5242 0
      vertex 77.2953 29.5242 -56.1583
      vertex 95.5423 29.5242 0
    endloop
  endfacet
  facet normal 0.951057 0 -0.309017
    outer loop
      vertex 77.2953 29.5242 -56.1583
      vertex 95.5423 -29.5242 0
      vertex 77.2953 -29.5242 -56.1583
    endloop
  endfacet
  facet normal 0.587785 0 -0.809017
    outer loop
      vertex 29.5242 -29.5242 -90.8661
      vertex 77.2953 29.5242 -56.1583
      vertex 77.2953 -29.5242 -56.1583
    endloop
  endfacet
  facet normal 0.587785 0 -0.809017
    outer loop
      vertex 77.2953 29.5242 -56.1583
      vertex 29.5242 -29.5242 -90.8661
      vertex 29.5242 29.5242 -90.8661
    endloop
  endfacet
  facet normal 0 0 -1
    outer loop
      vertex -29.5242 -29.5242 -90.8661
      vertex 29.5242 29.5242 -90.8661
      vertex 29.5242 -29.5242 -90.8661
    endloop
  endfacet
  facet normal -0 0 -1
    outer loop
      vertex 29.5242 29.5242 -90.8661
      vertex -29.5242 -29.5242 -90.8661
      vertex -29.5242 29.5242 -90.8661
    endloop
  endfacet
endsolid OpenSCAD_Model
