solid OpenSCAD_Model
  facet normal -0 0.333333 0.942809
    outer loop
      vertex -81.6497 -33.3333 47.1405
      vertex 81.6497 -33.3333 47.1405
      vertex 0 100 0
    endloop
  endfacet
  facet normal -0.816497 0.333333 -0.471405
    outer loop
      vertex -0 -33.3333 -94.2809
      vertex -81.6497 -33.3333 47.1405
      vertex 0 100 0
    endloop
  endfacet
  facet normal 0.816497 0.333333 -0.471405
    outer loop
      vertex 81.6497 -33.3333 47.1405
      vertex -0 -33.3333 -94.2809
      vertex 0 100 0
    endloop
  endfacet
  facet normal 0 -1 0
    outer loop
      vertex -0 -33.3333 -94.2809
      vertex 81.6497 -33.3333 47.1405
      vertex -81.6497 -33.3333 47.1405
    endloop
  endfacet
endsolid OpenSCAD_Model
