<?xml version="1.0" encoding="UTF-8" standalone="no"?>
<!DOCTYPE svg PUBLIC "-//W3C//DTD SVG 1.1//EN"
 "http://www.w3.org/Graphics/SVG/1.1/DTD/svg11.dtd">
<!-- Generated by graphviz version 2.38.0 (20140413.2041)
 -->
<!-- Title: shapes/shapes3d.scad Pages: 1 -->
<svg width="958pt" height="330pt"
 viewBox="0.00 0.00 957.50 330.00" xmlns="http://www.w3.org/2000/svg" xmlns:xlink="http://www.w3.org/1999/xlink">
<g id="graph0" class="graph" transform="scale(1 1) rotate(0) translate(4 326)">
<title>shapes/shapes3d.scad</title>
<polygon fill="white" stroke="none" points="-4,4 -4,-326 953.5,-326 953.5,4 -4,4"/>
<!-- Node1 -->
<g id="node1" class="node"><title>Node1</title>
<polygon fill="#bfbfbf" stroke="black" points="180.5,-302.5 180.5,-321.5 297.5,-321.5 297.5,-302.5 180.5,-302.5"/>
<text text-anchor="middle" x="239" y="-309.5" font-family="Helvetica,sans-Serif" font-size="10.00">shapes/shapes3d.scad</text>
</g>
<!-- Node2 -->
<g id="node2" class="node"><title>Node2</title>
<g id="a_node2"><a xlink:href="shapes2d_8scad.html" target="_top" xlink:title="Two&#45;dimensional basic shapes. ">
<polygon fill="white" stroke="black" points="197.5,-246.5 197.5,-265.5 280.5,-265.5 280.5,-246.5 197.5,-246.5"/>
<text text-anchor="middle" x="239" y="-253.5" font-family="Helvetica,sans-Serif" font-size="10.00">shapes2d.scad</text>
</a>
</g>
</g>
<!-- Node1&#45;&gt;Node2 -->
<g id="edge1" class="edge"><title>Node1&#45;&gt;Node2</title>
<path fill="none" stroke="midnightblue" d="M239,-302.083C239,-295.006 239,-284.861 239,-275.986"/>
<polygon fill="midnightblue" stroke="midnightblue" points="242.5,-275.751 239,-265.751 235.5,-275.751 242.5,-275.751"/>
</g>
<!-- Node3 -->
<g id="node3" class="node"><title>Node3</title>
<g id="a_node3"><a xlink:href="math__triangle_8scad.html" target="_top" xlink:title="Triangle solutions mathematical functions. ">
<polygon fill="white" stroke="black" points="99.5,-190.5 99.5,-209.5 232.5,-209.5 232.5,-190.5 99.5,-190.5"/>
<text text-anchor="middle" x="166" y="-197.5" font-family="Helvetica,sans-Serif" font-size="10.00">../math/math_triangle.scad</text>
</a>
</g>
</g>
<!-- Node2&#45;&gt;Node3 -->
<g id="edge2" class="edge"><title>Node2&#45;&gt;Node3</title>
<path fill="none" stroke="midnightblue" d="M227.271,-246.324C216.163,-238.107 199.258,-225.602 186.017,-215.807"/>
<polygon fill="midnightblue" stroke="midnightblue" points="188.063,-212.967 177.942,-209.834 183.9,-218.595 188.063,-212.967"/>
</g>
<!-- Node15 -->
<g id="node15" class="node"><title>Node15</title>
<g id="a_node15"><a xlink:href="tools__utility_8scad.html" target="_top" xlink:title="Shape transformation utility tools. ">
<polygon fill="white" stroke="black" points="250.5,-190.5 250.5,-209.5 373.5,-209.5 373.5,-190.5 250.5,-190.5"/>
<text text-anchor="middle" x="312" y="-197.5" font-family="Helvetica,sans-Serif" font-size="10.00">../tools/tools_utility.scad</text>
</a>
</g>
</g>
<!-- Node2&#45;&gt;Node15 -->
<g id="edge14" class="edge"><title>Node2&#45;&gt;Node15</title>
<path fill="none" stroke="midnightblue" d="M250.729,-246.324C261.837,-238.107 278.742,-225.602 291.983,-215.807"/>
<polygon fill="midnightblue" stroke="midnightblue" points="294.1,-218.595 300.058,-209.834 289.937,-212.967 294.1,-218.595"/>
</g>
<!-- Node4 -->
<g id="node4" class="node"><title>Node4</title>
<g id="a_node4"><a xlink:href="math-base_8scad.html" target="_top" xlink:title="Include file wrapper of math base primitives. ">
<polygon fill="white" stroke="black" points="123,-134.5 123,-153.5 209,-153.5 209,-134.5 123,-134.5"/>
<text text-anchor="middle" x="166" y="-141.5" font-family="Helvetica,sans-Serif" font-size="10.00">math&#45;base.scad</text>
</a>
</g>
</g>
<!-- Node3&#45;&gt;Node4 -->
<g id="edge3" class="edge"><title>Node3&#45;&gt;Node4</title>
<path fill="none" stroke="midnightblue" d="M166,-190.083C166,-183.006 166,-172.861 166,-163.986"/>
<polygon fill="midnightblue" stroke="midnightblue" points="169.5,-163.751 166,-153.751 162.5,-163.751 169.5,-163.751"/>
</g>
<!-- Node5 -->
<g id="node5" class="node"><title>Node5</title>
<g id="a_node5"><a xlink:href="datatypes-base_8scad.html" target="_top" xlink:title="Include file wrapper of data types base primitives. ">
<polygon fill="white" stroke="black" points="341,-67.5 341,-97.5 455,-97.5 455,-67.5 341,-67.5"/>
<text text-anchor="start" x="349" y="-85.5" font-family="Helvetica,sans-Serif" font-size="10.00">../datatypes/datatypes</text>
<text text-anchor="middle" x="398" y="-74.5" font-family="Helvetica,sans-Serif" font-size="10.00">&#45;base.scad</text>
</a>
</g>
</g>
<!-- Node4&#45;&gt;Node5 -->
<g id="edge4" class="edge"><title>Node4&#45;&gt;Node5</title>
<path fill="none" stroke="midnightblue" d="M199.24,-134.475C234.112,-125.532 289.804,-111.249 333.376,-100.074"/>
<polygon fill="midnightblue" stroke="midnightblue" points="334.505,-103.398 343.322,-97.523 332.766,-96.617 334.505,-103.398"/>
</g>
<!-- Node13 -->
<g id="node13" class="node"><title>Node13</title>
<g id="a_node13"><a xlink:href="math__linear__algebra_8scad.html" target="_top" xlink:title="Linear algebra mathematical functions. ">
<polygon fill="white" stroke="black" points="0,-73 0,-92 128,-92 128,-73 0,-73"/>
<text text-anchor="middle" x="64" y="-80" font-family="Helvetica,sans-Serif" font-size="10.00">math_linear_algebra.scad</text>
</a>
</g>
</g>
<!-- Node4&#45;&gt;Node13 -->
<g id="edge12" class="edge"><title>Node4&#45;&gt;Node13</title>
<path fill="none" stroke="midnightblue" d="M151.386,-134.475C134.647,-124.711 106.996,-108.581 87.2814,-97.0808"/>
<polygon fill="midnightblue" stroke="midnightblue" points="88.9884,-94.0246 78.587,-92.0091 85.4612,-100.071 88.9884,-94.0246"/>
</g>
<!-- Node14 -->
<g id="node14" class="node"><title>Node14</title>
<g id="a_node14"><a xlink:href="math__vector__algebra_8scad.html" target="_top" xlink:title="Vector algebra mathematical functions. ">
<polygon fill="white" stroke="black" points="146.5,-73 146.5,-92 277.5,-92 277.5,-73 146.5,-73"/>
<text text-anchor="middle" x="212" y="-80" font-family="Helvetica,sans-Serif" font-size="10.00">math_vector_algebra.scad</text>
</a>
</g>
</g>
<!-- Node4&#45;&gt;Node14 -->
<g id="edge13" class="edge"><title>Node4&#45;&gt;Node14</title>
<path fill="none" stroke="midnightblue" d="M172.591,-134.475C179.491,-125.55 190.502,-111.307 199.134,-100.143"/>
<polygon fill="midnightblue" stroke="midnightblue" points="202.074,-102.061 205.422,-92.0091 196.536,-97.7798 202.074,-102.061"/>
</g>
<!-- Node6 -->
<g id="node6" class="node"><title>Node6</title>
<g id="a_node6"><a xlink:href="constants_8scad.html" target="_top" xlink:title="Design constant definitions. ">
<polygon fill="white" stroke="black" points="12,-6 12,-25 104,-25 104,-6 12,-6"/>
<text text-anchor="middle" x="58" y="-13" font-family="Helvetica,sans-Serif" font-size="10.00">../constants.scad</text>
</a>
</g>
</g>
<!-- Node5&#45;&gt;Node6 -->
<g id="edge5" class="edge"><title>Node5&#45;&gt;Node6</title>
<path fill="none" stroke="midnightblue" d="M340.951,-72.81C283.219,-63.684 191.522,-48.2766 113,-31 108.247,-29.9543 103.286,-28.7738 98.373,-27.5493"/>
<polygon fill="midnightblue" stroke="midnightblue" points="98.9936,-24.0953 88.4378,-25.0028 97.2556,-30.8761 98.9936,-24.0953"/>
</g>
<!-- Node7 -->
<g id="node7" class="node"><title>Node7</title>
<g id="a_node7"><a xlink:href="datatypes__identify__scalar_8scad.html" target="_top" xlink:title="Scalar data type identification. ">
<polygon fill="white" stroke="black" points="122,-0.5 122,-30.5 218,-30.5 218,-0.5 122,-0.5"/>
<text text-anchor="start" x="130" y="-18.5" font-family="Helvetica,sans-Serif" font-size="10.00">datatypes_identify</text>
<text text-anchor="middle" x="170" y="-7.5" font-family="Helvetica,sans-Serif" font-size="10.00">_scalar.scad</text>
</a>
</g>
</g>
<!-- Node5&#45;&gt;Node7 -->
<g id="edge6" class="edge"><title>Node5&#45;&gt;Node7</title>
<path fill="none" stroke="midnightblue" d="M348.808,-67.476C313.358,-57.3695 265.387,-43.6936 228.057,-33.0513"/>
<polygon fill="midnightblue" stroke="midnightblue" points="228.897,-29.6515 218.321,-30.2757 226.978,-36.3833 228.897,-29.6515"/>
</g>
<!-- Node8 -->
<g id="node8" class="node"><title>Node8</title>
<g id="a_node8"><a xlink:href="datatypes__identify__iterable_8scad.html" target="_top" xlink:title="Iterable data type identification. ">
<polygon fill="white" stroke="black" points="236,-0.5 236,-30.5 332,-30.5 332,-0.5 236,-0.5"/>
<text text-anchor="start" x="244" y="-18.5" font-family="Helvetica,sans-Serif" font-size="10.00">datatypes_identify</text>
<text text-anchor="middle" x="284" y="-7.5" font-family="Helvetica,sans-Serif" font-size="10.00">_iterable.scad</text>
</a>
</g>
</g>
<!-- Node5&#45;&gt;Node8 -->
<g id="edge7" class="edge"><title>Node5&#45;&gt;Node8</title>
<path fill="none" stroke="midnightblue" d="M373.264,-67.396C356.98,-58.1117 335.459,-45.8409 317.629,-35.6742"/>
<polygon fill="midnightblue" stroke="midnightblue" points="319.109,-32.4892 308.688,-30.5765 315.642,-38.5702 319.109,-32.4892"/>
</g>
<!-- Node9 -->
<g id="node9" class="node"><title>Node9</title>
<g id="a_node9"><a xlink:href="datatypes__identify__list_8scad.html" target="_top" xlink:title="List data type identification. ">
<polygon fill="white" stroke="black" points="350,-0.5 350,-30.5 446,-30.5 446,-0.5 350,-0.5"/>
<text text-anchor="start" x="358" y="-18.5" font-family="Helvetica,sans-Serif" font-size="10.00">datatypes_identify</text>
<text text-anchor="middle" x="398" y="-7.5" font-family="Helvetica,sans-Serif" font-size="10.00">_list.scad</text>
</a>
</g>
</g>
<!-- Node5&#45;&gt;Node9 -->
<g id="edge8" class="edge"><title>Node5&#45;&gt;Node9</title>
<path fill="none" stroke="midnightblue" d="M398,-67.396C398,-59.6448 398,-49.8122 398,-40.8601"/>
<polygon fill="midnightblue" stroke="midnightblue" points="401.5,-40.5765 398,-30.5765 394.5,-40.5765 401.5,-40.5765"/>
</g>
<!-- Node10 -->
<g id="node10" class="node"><title>Node10</title>
<g id="a_node10"><a xlink:href="datatypes__operate__scalar_8scad.html" target="_top" xlink:title="Scalar data type operations. ">
<polygon fill="white" stroke="black" points="464,-6 464,-25 616,-25 616,-6 464,-6"/>
<text text-anchor="middle" x="540" y="-13" font-family="Helvetica,sans-Serif" font-size="10.00">datatypes_operate_scalar.scad</text>
</a>
</g>
</g>
<!-- Node5&#45;&gt;Node10 -->
<g id="edge9" class="edge"><title>Node5&#45;&gt;Node10</title>
<path fill="none" stroke="midnightblue" d="M428.812,-67.396C453.617,-56.0414 488.181,-40.2201 512.16,-29.2437"/>
<polygon fill="midnightblue" stroke="midnightblue" points="513.78,-32.3516 521.415,-25.007 510.866,-25.9868 513.78,-32.3516"/>
</g>
<!-- Node11 -->
<g id="node11" class="node"><title>Node11</title>
<g id="a_node11"><a xlink:href="datatypes__operate__iterable_8scad.html" target="_top" xlink:title="Iterable data type operations. ">
<polygon fill="white" stroke="black" points="634,-6 634,-25 792,-25 792,-6 634,-6"/>
<text text-anchor="middle" x="713" y="-13" font-family="Helvetica,sans-Serif" font-size="10.00">datatypes_operate_iterable.scad</text>
</a>
</g>
</g>
<!-- Node5&#45;&gt;Node11 -->
<g id="edge10" class="edge"><title>Node5&#45;&gt;Node11</title>
<path fill="none" stroke="midnightblue" d="M455.044,-69.729C513.917,-57.5807 604.928,-38.8005 661.627,-27.1007"/>
<polygon fill="midnightblue" stroke="midnightblue" points="662.368,-30.5216 671.455,-25.0728 660.954,-23.666 662.368,-30.5216"/>
</g>
<!-- Node12 -->
<g id="node12" class="node"><title>Node12</title>
<g id="a_node12"><a xlink:href="datatypes__operate__list_8scad.html" target="_top" xlink:title="List data type operations. ">
<polygon fill="white" stroke="black" points="810.5,-6 810.5,-25 949.5,-25 949.5,-6 810.5,-6"/>
<text text-anchor="middle" x="880" y="-13" font-family="Helvetica,sans-Serif" font-size="10.00">datatypes_operate_list.scad</text>
</a>
</g>
</g>
<!-- Node5&#45;&gt;Node12 -->
<g id="edge11" class="edge"><title>Node5&#45;&gt;Node12</title>
<path fill="none" stroke="midnightblue" d="M455.203,-75.3685C533.452,-66.7448 678.175,-49.9518 801,-31 809.034,-29.7603 817.506,-28.3334 825.799,-26.8686"/>
<polygon fill="midnightblue" stroke="midnightblue" points="826.563,-30.2876 835.786,-25.0733 825.324,-23.398 826.563,-30.2876"/>
</g>
<!-- Node15&#45;&gt;Node4 -->
<g id="edge16" class="edge"><title>Node15&#45;&gt;Node4</title>
<path fill="none" stroke="midnightblue" d="M288.866,-190.444C264.518,-181.438 225.993,-167.189 198.577,-157.049"/>
<polygon fill="midnightblue" stroke="midnightblue" points="199.619,-153.703 189.026,-153.516 197.191,-160.268 199.619,-153.703"/>
</g>
<!-- Node16 -->
<g id="node16" class="node"><title>Node16</title>
<g id="a_node16"><a xlink:href="console_8scad.html" target="_top" xlink:title="Message logging functions. ">
<polygon fill="white" stroke="black" points="227.5,-134.5 227.5,-153.5 310.5,-153.5 310.5,-134.5 227.5,-134.5"/>
<text text-anchor="middle" x="269" y="-141.5" font-family="Helvetica,sans-Serif" font-size="10.00">../console.scad</text>
</a>
</g>
</g>
<!-- Node15&#45;&gt;Node16 -->
<g id="edge15" class="edge"><title>Node15&#45;&gt;Node16</title>
<path fill="none" stroke="midnightblue" d="M304.899,-190.083C298.763,-182.377 289.73,-171.033 282.261,-161.653"/>
<polygon fill="midnightblue" stroke="midnightblue" points="284.936,-159.394 275.968,-153.751 279.46,-163.754 284.936,-159.394"/>
</g>
<!-- Node17 -->
<g id="node17" class="node"><title>Node17</title>
<g id="a_node17"><a xlink:href="math__oshapes_8scad.html" target="_top" xlink:title="Other shapes mathematical functions. ">
<polygon fill="white" stroke="black" points="329,-134.5 329,-153.5 467,-153.5 467,-134.5 329,-134.5"/>
<text text-anchor="middle" x="398" y="-141.5" font-family="Helvetica,sans-Serif" font-size="10.00">../math/math_oshapes.scad</text>
</a>
</g>
</g>
<!-- Node15&#45;&gt;Node17 -->
<g id="edge17" class="edge"><title>Node15&#45;&gt;Node17</title>
<path fill="none" stroke="midnightblue" d="M325.817,-190.324C339.233,-181.9 359.824,-168.971 375.586,-159.074"/>
<polygon fill="midnightblue" stroke="midnightblue" points="377.609,-161.936 384.217,-153.655 373.887,-156.008 377.609,-161.936"/>
</g>
<!-- Node18 -->
<g id="node18" class="node"><title>Node18</title>
<g id="a_node18"><a xlink:href="math__bitwise_8scad.html" target="_top" xlink:title="Mathematical base&#45;two bitwise binary functions. ">
<polygon fill="white" stroke="black" points="485,-134.5 485,-153.5 617,-153.5 617,-134.5 485,-134.5"/>
<text text-anchor="middle" x="551" y="-141.5" font-family="Helvetica,sans-Serif" font-size="10.00">../math/math_bitwise.scad</text>
</a>
</g>
</g>
<!-- Node15&#45;&gt;Node18 -->
<g id="edge19" class="edge"><title>Node15&#45;&gt;Node18</title>
<path fill="none" stroke="midnightblue" d="M349.87,-190.444C391.476,-181.043 458.369,-165.929 503.469,-155.739"/>
<polygon fill="midnightblue" stroke="midnightblue" points="504.324,-159.134 513.307,-153.516 502.781,-152.306 504.324,-159.134"/>
</g>
<!-- Node17&#45;&gt;Node5 -->
<g id="edge18" class="edge"><title>Node17&#45;&gt;Node5</title>
<path fill="none" stroke="midnightblue" d="M398,-134.475C398,-127.471 398,-117.192 398,-107.696"/>
<polygon fill="midnightblue" stroke="midnightblue" points="401.5,-107.523 398,-97.523 394.5,-107.523 401.5,-107.523"/>
</g>
<!-- Node18&#45;&gt;Node5 -->
<g id="edge20" class="edge"><title>Node18&#45;&gt;Node5</title>
<path fill="none" stroke="midnightblue" d="M529.079,-134.475C506.905,-125.852 471.965,-112.264 443.733,-101.285"/>
<polygon fill="midnightblue" stroke="midnightblue" points="444.648,-97.8855 434.059,-97.523 442.111,-104.41 444.648,-97.8855"/>
</g>
</g>
</svg>
