<?xml version="1.0" encoding="UTF-8" standalone="no"?>
<!DOCTYPE svg PUBLIC "-//W3C//DTD SVG 1.1//EN"
 "http://www.w3.org/Graphics/SVG/1.1/DTD/svg11.dtd">
<!-- Generated by graphviz version 2.38.0 (20140413.2041)
 -->
<!-- Title: tools/tools_utility.scad Pages: 1 -->
<svg width="946pt" height="218pt"
 viewBox="0.00 0.00 945.50 218.00" xmlns="http://www.w3.org/2000/svg" xmlns:xlink="http://www.w3.org/1999/xlink">
<g id="graph0" class="graph" transform="scale(1 1) rotate(0) translate(4 214)">
<title>tools/tools_utility.scad</title>
<polygon fill="white" stroke="none" points="-4,4 -4,-214 941.5,-214 941.5,4 -4,4"/>
<!-- Node1 -->
<g id="node1" class="node"><title>Node1</title>
<polygon fill="#bfbfbf" stroke="black" points="252,-190.5 252,-209.5 366,-209.5 366,-190.5 252,-190.5"/>
<text text-anchor="middle" x="309" y="-197.5" font-family="Helvetica,sans-Serif" font-size="10.00">tools/tools_utility.scad</text>
</g>
<!-- Node2 -->
<g id="node2" class="node"><title>Node2</title>
<g id="a_node2"><a xlink:href="console_8scad.html" target="_top" xlink:title="Message logging functions. ">
<polygon fill="white" stroke="black" points="62.5,-134.5 62.5,-153.5 145.5,-153.5 145.5,-134.5 62.5,-134.5"/>
<text text-anchor="middle" x="104" y="-141.5" font-family="Helvetica,sans-Serif" font-size="10.00">../console.scad</text>
</a>
</g>
</g>
<!-- Node1&#45;&gt;Node2 -->
<g id="edge1" class="edge"><title>Node1&#45;&gt;Node2</title>
<path fill="none" stroke="midnightblue" d="M276.517,-190.444C241.28,-181.162 184.896,-166.309 146.241,-156.127"/>
<polygon fill="midnightblue" stroke="midnightblue" points="146.893,-152.679 136.331,-153.516 145.109,-159.448 146.893,-152.679"/>
</g>
<!-- Node3 -->
<g id="node3" class="node"><title>Node3</title>
<g id="a_node3"><a xlink:href="math-base_8scad.html" target="_top" xlink:title="Include file wrapper of math base primitives. ">
<polygon fill="white" stroke="black" points="470,-134.5 470,-153.5 590,-153.5 590,-134.5 470,-134.5"/>
<text text-anchor="middle" x="530" y="-141.5" font-family="Helvetica,sans-Serif" font-size="10.00">../math/math&#45;base.scad</text>
</a>
</g>
</g>
<!-- Node1&#45;&gt;Node3 -->
<g id="edge2" class="edge"><title>Node1&#45;&gt;Node3</title>
<path fill="none" stroke="midnightblue" d="M344.018,-190.444C382.248,-181.102 443.567,-166.119 485.257,-155.933"/>
<polygon fill="midnightblue" stroke="midnightblue" points="486.262,-159.29 495.146,-153.516 484.601,-152.49 486.262,-159.29"/>
</g>
<!-- Node14 -->
<g id="node14" class="node"><title>Node14</title>
<g id="a_node14"><a xlink:href="math__oshapes_8scad.html" target="_top" xlink:title="Other shapes mathematical functions. ">
<polygon fill="white" stroke="black" points="164,-134.5 164,-153.5 302,-153.5 302,-134.5 164,-134.5"/>
<text text-anchor="middle" x="233" y="-141.5" font-family="Helvetica,sans-Serif" font-size="10.00">../math/math_oshapes.scad</text>
</a>
</g>
</g>
<!-- Node1&#45;&gt;Node14 -->
<g id="edge13" class="edge"><title>Node1&#45;&gt;Node14</title>
<path fill="none" stroke="midnightblue" d="M296.789,-190.324C285.224,-182.107 267.625,-169.602 253.839,-159.807"/>
<polygon fill="midnightblue" stroke="midnightblue" points="255.612,-156.773 245.433,-153.834 251.557,-162.479 255.612,-156.773"/>
</g>
<!-- Node15 -->
<g id="node15" class="node"><title>Node15</title>
<g id="a_node15"><a xlink:href="math__bitwise_8scad.html" target="_top" xlink:title="Mathematical base&#45;two bitwise binary functions. ">
<polygon fill="white" stroke="black" points="320,-134.5 320,-153.5 452,-153.5 452,-134.5 320,-134.5"/>
<text text-anchor="middle" x="386" y="-141.5" font-family="Helvetica,sans-Serif" font-size="10.00">../math/math_bitwise.scad</text>
</a>
</g>
</g>
<!-- Node1&#45;&gt;Node15 -->
<g id="edge15" class="edge"><title>Node1&#45;&gt;Node15</title>
<path fill="none" stroke="midnightblue" d="M321.371,-190.324C333.158,-182.058 351.132,-169.453 365.136,-159.632"/>
<polygon fill="midnightblue" stroke="midnightblue" points="367.482,-162.262 373.659,-153.655 363.462,-156.531 367.482,-162.262"/>
</g>
<!-- Node4 -->
<g id="node4" class="node"><title>Node4</title>
<g id="a_node4"><a xlink:href="datatypes-base_8scad.html" target="_top" xlink:title="Include file wrapper of data types base primitives. ">
<polygon fill="white" stroke="black" points="329,-67.5 329,-97.5 443,-97.5 443,-67.5 329,-67.5"/>
<text text-anchor="start" x="337" y="-85.5" font-family="Helvetica,sans-Serif" font-size="10.00">../datatypes/datatypes</text>
<text text-anchor="middle" x="386" y="-74.5" font-family="Helvetica,sans-Serif" font-size="10.00">&#45;base.scad</text>
</a>
</g>
</g>
<!-- Node3&#45;&gt;Node4 -->
<g id="edge3" class="edge"><title>Node3&#45;&gt;Node4</title>
<path fill="none" stroke="midnightblue" d="M509.368,-134.475C488.59,-125.889 455.901,-112.383 429.392,-101.429"/>
<polygon fill="midnightblue" stroke="midnightblue" points="430.517,-98.1071 419.938,-97.523 427.843,-104.577 430.517,-98.1071"/>
</g>
<!-- Node12 -->
<g id="node12" class="node"><title>Node12</title>
<g id="a_node12"><a xlink:href="math__linear__algebra_8scad.html" target="_top" xlink:title="Linear algebra mathematical functions. ">
<polygon fill="white" stroke="black" points="463,-73 463,-92 591,-92 591,-73 463,-73"/>
<text text-anchor="middle" x="527" y="-80" font-family="Helvetica,sans-Serif" font-size="10.00">math_linear_algebra.scad</text>
</a>
</g>
</g>
<!-- Node3&#45;&gt;Node12 -->
<g id="edge11" class="edge"><title>Node3&#45;&gt;Node12</title>
<path fill="none" stroke="midnightblue" d="M529.57,-134.475C529.147,-126.08 528.486,-112.981 527.941,-102.163"/>
<polygon fill="midnightblue" stroke="midnightblue" points="531.428,-101.82 527.429,-92.0091 524.437,-102.173 531.428,-101.82"/>
</g>
<!-- Node13 -->
<g id="node13" class="node"><title>Node13</title>
<g id="a_node13"><a xlink:href="math__vector__algebra_8scad.html" target="_top" xlink:title="Vector algebra mathematical functions. ">
<polygon fill="white" stroke="black" points="609.5,-73 609.5,-92 740.5,-92 740.5,-73 609.5,-73"/>
<text text-anchor="middle" x="675" y="-80" font-family="Helvetica,sans-Serif" font-size="10.00">math_vector_algebra.scad</text>
</a>
</g>
</g>
<!-- Node3&#45;&gt;Node13 -->
<g id="edge12" class="edge"><title>Node3&#45;&gt;Node13</title>
<path fill="none" stroke="midnightblue" d="M550.775,-134.475C575.432,-124.357 616.745,-107.405 644.902,-95.8507"/>
<polygon fill="midnightblue" stroke="midnightblue" points="646.341,-99.0434 654.264,-92.0091 643.683,-92.5674 646.341,-99.0434"/>
</g>
<!-- Node5 -->
<g id="node5" class="node"><title>Node5</title>
<g id="a_node5"><a xlink:href="constants_8scad.html" target="_top" xlink:title="Design constant definitions. ">
<polygon fill="white" stroke="black" points="0,-6 0,-25 92,-25 92,-6 0,-6"/>
<text text-anchor="middle" x="46" y="-13" font-family="Helvetica,sans-Serif" font-size="10.00">../constants.scad</text>
</a>
</g>
</g>
<!-- Node4&#45;&gt;Node5 -->
<g id="edge4" class="edge"><title>Node4&#45;&gt;Node5</title>
<path fill="none" stroke="midnightblue" d="M328.951,-72.81C271.219,-63.684 179.522,-48.2766 101,-31 96.2472,-29.9543 91.2861,-28.7738 86.373,-27.5493"/>
<polygon fill="midnightblue" stroke="midnightblue" points="86.9936,-24.0953 76.4378,-25.0028 85.2556,-30.8761 86.9936,-24.0953"/>
</g>
<!-- Node6 -->
<g id="node6" class="node"><title>Node6</title>
<g id="a_node6"><a xlink:href="datatypes__identify__scalar_8scad.html" target="_top" xlink:title="Scalar data type identification. ">
<polygon fill="white" stroke="black" points="110,-0.5 110,-30.5 206,-30.5 206,-0.5 110,-0.5"/>
<text text-anchor="start" x="118" y="-18.5" font-family="Helvetica,sans-Serif" font-size="10.00">datatypes_identify</text>
<text text-anchor="middle" x="158" y="-7.5" font-family="Helvetica,sans-Serif" font-size="10.00">_scalar.scad</text>
</a>
</g>
</g>
<!-- Node4&#45;&gt;Node6 -->
<g id="edge5" class="edge"><title>Node4&#45;&gt;Node6</title>
<path fill="none" stroke="midnightblue" d="M336.808,-67.476C301.358,-57.3695 253.387,-43.6936 216.057,-33.0513"/>
<polygon fill="midnightblue" stroke="midnightblue" points="216.897,-29.6515 206.321,-30.2757 214.978,-36.3833 216.897,-29.6515"/>
</g>
<!-- Node7 -->
<g id="node7" class="node"><title>Node7</title>
<g id="a_node7"><a xlink:href="datatypes__identify__iterable_8scad.html" target="_top" xlink:title="Iterable data type identification. ">
<polygon fill="white" stroke="black" points="224,-0.5 224,-30.5 320,-30.5 320,-0.5 224,-0.5"/>
<text text-anchor="start" x="232" y="-18.5" font-family="Helvetica,sans-Serif" font-size="10.00">datatypes_identify</text>
<text text-anchor="middle" x="272" y="-7.5" font-family="Helvetica,sans-Serif" font-size="10.00">_iterable.scad</text>
</a>
</g>
</g>
<!-- Node4&#45;&gt;Node7 -->
<g id="edge6" class="edge"><title>Node4&#45;&gt;Node7</title>
<path fill="none" stroke="midnightblue" d="M361.264,-67.396C344.98,-58.1117 323.459,-45.8409 305.629,-35.6742"/>
<polygon fill="midnightblue" stroke="midnightblue" points="307.109,-32.4892 296.688,-30.5765 303.642,-38.5702 307.109,-32.4892"/>
</g>
<!-- Node8 -->
<g id="node8" class="node"><title>Node8</title>
<g id="a_node8"><a xlink:href="datatypes__identify__list_8scad.html" target="_top" xlink:title="List data type identification. ">
<polygon fill="white" stroke="black" points="338,-0.5 338,-30.5 434,-30.5 434,-0.5 338,-0.5"/>
<text text-anchor="start" x="346" y="-18.5" font-family="Helvetica,sans-Serif" font-size="10.00">datatypes_identify</text>
<text text-anchor="middle" x="386" y="-7.5" font-family="Helvetica,sans-Serif" font-size="10.00">_list.scad</text>
</a>
</g>
</g>
<!-- Node4&#45;&gt;Node8 -->
<g id="edge7" class="edge"><title>Node4&#45;&gt;Node8</title>
<path fill="none" stroke="midnightblue" d="M386,-67.396C386,-59.6448 386,-49.8122 386,-40.8601"/>
<polygon fill="midnightblue" stroke="midnightblue" points="389.5,-40.5765 386,-30.5765 382.5,-40.5765 389.5,-40.5765"/>
</g>
<!-- Node9 -->
<g id="node9" class="node"><title>Node9</title>
<g id="a_node9"><a xlink:href="datatypes__operate__scalar_8scad.html" target="_top" xlink:title="Scalar data type operations. ">
<polygon fill="white" stroke="black" points="452,-6 452,-25 604,-25 604,-6 452,-6"/>
<text text-anchor="middle" x="528" y="-13" font-family="Helvetica,sans-Serif" font-size="10.00">datatypes_operate_scalar.scad</text>
</a>
</g>
</g>
<!-- Node4&#45;&gt;Node9 -->
<g id="edge8" class="edge"><title>Node4&#45;&gt;Node9</title>
<path fill="none" stroke="midnightblue" d="M416.812,-67.396C441.617,-56.0414 476.181,-40.2201 500.16,-29.2437"/>
<polygon fill="midnightblue" stroke="midnightblue" points="501.78,-32.3516 509.415,-25.007 498.866,-25.9868 501.78,-32.3516"/>
</g>
<!-- Node10 -->
<g id="node10" class="node"><title>Node10</title>
<g id="a_node10"><a xlink:href="datatypes__operate__iterable_8scad.html" target="_top" xlink:title="Iterable data type operations. ">
<polygon fill="white" stroke="black" points="622,-6 622,-25 780,-25 780,-6 622,-6"/>
<text text-anchor="middle" x="701" y="-13" font-family="Helvetica,sans-Serif" font-size="10.00">datatypes_operate_iterable.scad</text>
</a>
</g>
</g>
<!-- Node4&#45;&gt;Node10 -->
<g id="edge9" class="edge"><title>Node4&#45;&gt;Node10</title>
<path fill="none" stroke="midnightblue" d="M443.129,-69.2816C446.807,-68.5062 450.455,-67.7403 454,-67 521.139,-52.9786 598.634,-37.2007 648.649,-27.0704"/>
<polygon fill="midnightblue" stroke="midnightblue" points="649.476,-30.4742 658.582,-25.0596 648.087,-23.6133 649.476,-30.4742"/>
</g>
<!-- Node11 -->
<g id="node11" class="node"><title>Node11</title>
<g id="a_node11"><a xlink:href="datatypes__operate__list_8scad.html" target="_top" xlink:title="List data type operations. ">
<polygon fill="white" stroke="black" points="798.5,-6 798.5,-25 937.5,-25 937.5,-6 798.5,-6"/>
<text text-anchor="middle" x="868" y="-13" font-family="Helvetica,sans-Serif" font-size="10.00">datatypes_operate_list.scad</text>
</a>
</g>
</g>
<!-- Node4&#45;&gt;Node11 -->
<g id="edge10" class="edge"><title>Node4&#45;&gt;Node11</title>
<path fill="none" stroke="midnightblue" d="M443.057,-68.8877C446.753,-68.2088 450.424,-67.5718 454,-67 601.867,-43.3541 640.81,-52.5317 789,-31 797.331,-29.7895 806.127,-28.3434 814.705,-26.8403"/>
<polygon fill="midnightblue" stroke="midnightblue" points="815.408,-30.2701 824.633,-25.0602 814.172,-23.38 815.408,-30.2701"/>
</g>
<!-- Node14&#45;&gt;Node4 -->
<g id="edge14" class="edge"><title>Node14&#45;&gt;Node4</title>
<path fill="none" stroke="midnightblue" d="M254.921,-134.475C277.095,-125.852 312.035,-112.264 340.267,-101.285"/>
<polygon fill="midnightblue" stroke="midnightblue" points="341.889,-104.41 349.941,-97.523 339.352,-97.8855 341.889,-104.41"/>
</g>
<!-- Node15&#45;&gt;Node4 -->
<g id="edge16" class="edge"><title>Node15&#45;&gt;Node4</title>
<path fill="none" stroke="midnightblue" d="M386,-134.475C386,-127.471 386,-117.192 386,-107.696"/>
<polygon fill="midnightblue" stroke="midnightblue" points="389.5,-107.523 386,-97.523 382.5,-107.523 389.5,-107.523"/>
</g>
</g>
</svg>
