solid OpenSCAD_Model
  facet normal -0.066791 -0.447214 0.89193
    outer loop
      vertex -35.7408 -10.5573 42.1702
      vertex 29.0617 -10.5573 47.0228
      vertex -4.12791 10.5573 55.1243
    endloop
  endfacet
  facet normal -0.066791 -0.447214 0.89193
    outer loop
      vertex 29.0617 -10.5573 47.0228
      vertex -35.7408 -10.5573 42.1702
      vertex -0 -100 0
    endloop
  endfacet
  facet normal 0.827636 -0.447214 0.339143
    outer loop
      vertex 29.0617 -10.5573 47.0228
      vertex 53.7019 -10.5573 -13.1085
      vertex 51.1507 10.5573 20.9602
    endloop
  endfacet
  facet normal 0.827636 -0.447214 0.339143
    outer loop
      vertex 53.7019 -10.5573 -13.1085
      vertex 29.0617 -10.5573 47.0228
      vertex -0 -100 0
    endloop
  endfacet
  facet normal 0.470228 0.447214 0.760845
    outer loop
      vertex -4.12791 10.5573 55.1243
      vertex 51.1507 10.5573 20.9602
      vertex 0 100 0
    endloop
  endfacet
  facet normal 0.470228 0.447214 0.760845
    outer loop
      vertex 51.1507 10.5573 20.9602
      vertex -4.12791 10.5573 55.1243
      vertex 29.0617 -10.5573 47.0228
    endloop
  endfacet
  facet normal -0.578298 0.447214 0.682328
    outer loop
      vertex -53.7019 10.5573 13.1085
      vertex -4.12791 10.5573 55.1243
      vertex 0 100 0
    endloop
  endfacet
  facet normal -0.578298 0.447214 0.682328
    outer loop
      vertex -4.12791 10.5573 55.1243
      vertex -53.7019 10.5573 13.1085
      vertex -35.7408 -10.5573 42.1702
    endloop
  endfacet
  facet normal -0.868915 -0.447213 0.2121
    outer loop
      vertex -51.1507 -10.5573 -20.9602
      vertex -35.7408 -10.5573 42.1702
      vertex -53.7019 10.5573 13.1085
    endloop
  endfacet
  facet normal -0.868915 -0.447214 0.2121
    outer loop
      vertex -35.7408 -10.5573 42.1702
      vertex -51.1507 -10.5573 -20.9602
      vertex -0 -100 0
    endloop
  endfacet
  facet normal 0.578298 -0.447214 -0.682328
    outer loop
      vertex 53.7019 -10.5573 -13.1085
      vertex 4.12791 -10.5573 -55.1243
      vertex 35.7408 10.5573 -42.1702
    endloop
  endfacet
  facet normal 0.578298 -0.447214 -0.682328
    outer loop
      vertex 4.12791 -10.5573 -55.1243
      vertex 53.7019 -10.5573 -13.1085
      vertex -0 -100 0
    endloop
  endfacet
  facet normal 0.868915 0.447214 -0.2121
    outer loop
      vertex 51.1507 10.5573 20.9602
      vertex 35.7408 10.5573 -42.1702
      vertex 0 100 0
    endloop
  endfacet
  facet normal 0.868915 0.447213 -0.2121
    outer loop
      vertex 35.7408 10.5573 -42.1702
      vertex 51.1507 10.5573 20.9602
      vertex 53.7019 -10.5573 -13.1085
    endloop
  endfacet
  facet normal -0.827636 0.447214 -0.339143
    outer loop
      vertex -29.0617 10.5573 -47.0228
      vertex -53.7019 10.5573 13.1085
      vertex 0 100 0
    endloop
  endfacet
  facet normal -0.827636 0.447214 -0.339143
    outer loop
      vertex -53.7019 10.5573 13.1085
      vertex -29.0617 10.5573 -47.0228
      vertex -51.1507 -10.5573 -20.9602
    endloop
  endfacet
  facet normal -0.470228 -0.447214 -0.760845
    outer loop
      vertex -51.1507 -10.5573 -20.9602
      vertex 4.12791 -10.5573 -55.1243
      vertex -0 -100 0
    endloop
  endfacet
  facet normal -0.470228 -0.447214 -0.760845
    outer loop
      vertex 4.12791 -10.5573 -55.1243
      vertex -51.1507 -10.5573 -20.9602
      vertex -29.0617 10.5573 -47.0228
    endloop
  endfacet
  facet normal 0.066791 0.447214 -0.89193
    outer loop
      vertex -29.0617 10.5573 -47.0228
      vertex 35.7408 10.5573 -42.1702
      vertex 4.12791 -10.5573 -55.1243
    endloop
  endfacet
  facet normal 0.066791 0.447214 -0.89193
    outer loop
      vertex 35.7408 10.5573 -42.1702
      vertex -29.0617 10.5573 -47.0228
      vertex 0 100 0
    endloop
  endfacet
endsolid OpenSCAD_Model
