solid OpenSCAD_Model
  facet normal -0.0422229 -0.39332 0.918432
    outer loop
      vertex -24.7251 -7.17967 38.6138
      vertex 21.0779 -7.17967 40.7195
      vertex -2.1057 7.17968 45.8031
    endloop
  endfacet
  facet normal -0.0422229 -0.39332 0.918432
    outer loop
      vertex 21.0779 -7.17967 40.7195
      vertex -24.7251 -7.17967 38.6138
      vertex 1.746e-06 -100 -1.939e-06
    endloop
  endfacet
  facet normal 0.774274 -0.39332 0.495782
    outer loop
      vertex 21.0779 -7.17967 40.7195
      vertex 45.8031 -7.17967 2.1057
      vertex 38.6138 7.17968 24.7251
    endloop
  endfacet
  facet normal 0.774274 -0.39332 0.495782
    outer loop
      vertex 45.8031 -7.17967 2.1057
      vertex 21.0779 -7.17967 40.7195
      vertex 1.746e-06 -100 -1.939e-06
    endloop
  endfacet
  facet normal 0.42265 0.39332 0.816497
    outer loop
      vertex -2.1057 7.17968 45.8031
      vertex 38.6138 7.17968 24.7251
      vertex 0 100 0
    endloop
  endfacet
  facet normal 0.42265 0.39332 0.816497
    outer loop
      vertex 38.6138 7.17968 24.7251
      vertex -2.1057 7.17968 45.8031
      vertex 21.0779 -7.17967 40.7195
    endloop
  endfacet
  facet normal -0.495782 0.39332 0.774274
    outer loop
      vertex -40.7195 7.17968 21.0779
      vertex -2.1057 7.17968 45.8031
      vertex 0 100 0
    endloop
  endfacet
  facet normal -0.495782 0.39332 0.774274
    outer loop
      vertex -2.1057 7.17968 45.8031
      vertex -40.7195 7.17968 21.0779
      vertex -24.7251 -7.17967 38.6138
    endloop
  endfacet
  facet normal -0.816497 -0.39332 0.42265
    outer loop
      vertex -45.8031 -7.17968 -2.1057
      vertex -24.7251 -7.17967 38.6138
      vertex -40.7195 7.17968 21.0779
    endloop
  endfacet
  facet normal -0.816497 -0.39332 0.42265
    outer loop
      vertex -24.7251 -7.17967 38.6138
      vertex -45.8031 -7.17968 -2.1057
      vertex 1.746e-06 -100 -1.939e-06
    endloop
  endfacet
  facet normal 0.816497 -0.39332 -0.42265
    outer loop
      vertex 45.8031 -7.17967 2.1057
      vertex 24.7251 -7.17968 -38.6138
      vertex 40.7195 7.17968 -21.0779
    endloop
  endfacet
  facet normal 0.816497 -0.39332 -0.42265
    outer loop
      vertex 24.7251 -7.17968 -38.6138
      vertex 45.8031 -7.17967 2.1057
      vertex 1.746e-06 -100 -1.939e-06
    endloop
  endfacet
  facet normal 0.918432 0.39332 0.0422229
    outer loop
      vertex 38.6138 7.17968 24.7251
      vertex 40.7195 7.17968 -21.0779
      vertex 0 100 0
    endloop
  endfacet
  facet normal 0.918432 0.39332 0.0422229
    outer loop
      vertex 40.7195 7.17968 -21.0779
      vertex 38.6138 7.17968 24.7251
      vertex 45.8031 -7.17967 2.1057
    endloop
  endfacet
  facet normal -0.918432 0.39332 -0.0422229
    outer loop
      vertex -38.6138 7.17967 -24.7251
      vertex -40.7195 7.17968 21.0779
      vertex 0 100 0
    endloop
  endfacet
  facet normal -0.918432 0.39332 -0.0422229
    outer loop
      vertex -40.7195 7.17968 21.0779
      vertex -38.6138 7.17967 -24.7251
      vertex -45.8031 -7.17968 -2.1057
    endloop
  endfacet
  facet normal -0.774274 -0.39332 -0.495782
    outer loop
      vertex -21.0779 -7.17968 -40.7195
      vertex -45.8031 -7.17968 -2.1057
      vertex -38.6138 7.17967 -24.7251
    endloop
  endfacet
  facet normal -0.774274 -0.39332 -0.495782
    outer loop
      vertex -45.8031 -7.17968 -2.1057
      vertex -21.0779 -7.17968 -40.7195
      vertex 1.746e-06 -100 -1.939e-06
    endloop
  endfacet
  facet normal 0.042223 -0.39332 -0.918432
    outer loop
      vertex -21.0779 -7.17968 -40.7195
      vertex 24.7251 -7.17968 -38.6138
      vertex 1.746e-06 -100 -1.939e-06
    endloop
  endfacet
  facet normal 0.042223 -0.393319 -0.918432
    outer loop
      vertex 24.7251 -7.17968 -38.6138
      vertex -21.0779 -7.17968 -40.7195
      vertex 2.1057 7.17966 -45.803
    endloop
  endfacet
  facet normal 0.495781 0.39332 -0.774274
    outer loop
      vertex 2.1057 7.17966 -45.803
      vertex 40.7195 7.17968 -21.0779
      vertex 24.7251 -7.17968 -38.6138
    endloop
  endfacet
  facet normal 0.495782 0.39332 -0.774274
    outer loop
      vertex 40.7195 7.17968 -21.0779
      vertex 2.1057 7.17966 -45.803
      vertex 0 100 0
    endloop
  endfacet
  facet normal -0.422649 0.39332 -0.816497
    outer loop
      vertex -38.6138 7.17967 -24.7251
      vertex 2.1057 7.17966 -45.803
      vertex -21.0779 -7.17968 -40.7195
    endloop
  endfacet
  facet normal -0.422649 0.39332 -0.816497
    outer loop
      vertex 2.1057 7.17966 -45.803
      vertex -38.6138 7.17967 -24.7251
      vertex 0 100 0
    endloop
  endfacet
endsolid OpenSCAD_Model
