<?xml version="1.0" encoding="UTF-8" standalone="no"?>
<!DOCTYPE svg PUBLIC "-//W3C//DTD SVG 1.1//EN"
 "http://www.w3.org/Graphics/SVG/1.1/DTD/svg11.dtd">
<!-- Generated by graphviz version 2.38.0 (20140413.2041)
 -->
<!-- Title: units/units_resolution.scad Pages: 1 -->
<svg width="313pt" height="84pt"
 viewBox="0.00 0.00 313.00 84.00" xmlns="http://www.w3.org/2000/svg" xmlns:xlink="http://www.w3.org/1999/xlink">
<g id="graph0" class="graph" transform="scale(1 1) rotate(0) translate(4 80)">
<title>units/units_resolution.scad</title>
<polygon fill="white" stroke="none" points="-4,4 -4,-80 309,-80 309,4 -4,4"/>
<!-- Node1 -->
<g id="node1" class="node"><title>Node1</title>
<polygon fill="#bfbfbf" stroke="black" points="81,-56.5 81,-75.5 214,-75.5 214,-56.5 81,-56.5"/>
<text text-anchor="middle" x="147.5" y="-63.5" font-family="Helvetica,sans-Serif" font-size="10.00">units/units_resolution.scad</text>
</g>
<!-- Node2 -->
<g id="node2" class="node"><title>Node2</title>
<g id="a_node2"><a xlink:href="console_8scad.html" target="_top" xlink:title="Message logging functions. ">
<polygon fill="white" stroke="black" points="0,-0.5 0,-19.5 83,-19.5 83,-0.5 0,-0.5"/>
<text text-anchor="middle" x="41.5" y="-7.5" font-family="Helvetica,sans-Serif" font-size="10.00">../console.scad</text>
</a>
</g>
</g>
<!-- Node1&#45;&gt;Node2 -->
<g id="edge1" class="edge"><title>Node1&#45;&gt;Node2</title>
<path fill="none" stroke="midnightblue" d="M130.469,-56.324C113.47,-47.6641 87.1239,-34.2424 67.5074,-24.249"/>
<polygon fill="midnightblue" stroke="midnightblue" points="68.9876,-21.0752 58.4885,-19.6545 65.8101,-27.3125 68.9876,-21.0752"/>
</g>
<!-- Node3 -->
<g id="node3" class="node"><title>Node3</title>
<g id="a_node3"><a xlink:href="constants_8scad.html" target="_top" xlink:title="Design constant definitions. ">
<polygon fill="white" stroke="black" points="101.5,-0.5 101.5,-19.5 193.5,-19.5 193.5,-0.5 101.5,-0.5"/>
<text text-anchor="middle" x="147.5" y="-7.5" font-family="Helvetica,sans-Serif" font-size="10.00">../constants.scad</text>
</a>
</g>
</g>
<!-- Node1&#45;&gt;Node3 -->
<g id="edge2" class="edge"><title>Node1&#45;&gt;Node3</title>
<path fill="none" stroke="midnightblue" d="M147.5,-56.083C147.5,-49.0059 147.5,-38.8611 147.5,-29.9865"/>
<polygon fill="midnightblue" stroke="midnightblue" points="151,-29.751 147.5,-19.7511 144,-29.7511 151,-29.751"/>
</g>
<!-- Node4 -->
<g id="node4" class="node"><title>Node4</title>
<g id="a_node4"><a xlink:href="units__length_8scad.html" target="_top" xlink:title="Length units and conversions. ">
<polygon fill="white" stroke="black" points="212,-0.5 212,-19.5 305,-19.5 305,-0.5 212,-0.5"/>
<text text-anchor="middle" x="258.5" y="-7.5" font-family="Helvetica,sans-Serif" font-size="10.00">units_length.scad</text>
</a>
</g>
</g>
<!-- Node1&#45;&gt;Node4 -->
<g id="edge3" class="edge"><title>Node1&#45;&gt;Node4</title>
<path fill="none" stroke="midnightblue" d="M165.334,-56.324C183.216,-47.6247 210.975,-34.1202 231.546,-24.113"/>
<polygon fill="midnightblue" stroke="midnightblue" points="233.249,-27.1765 240.71,-19.6545 230.187,-20.8819 233.249,-27.1765"/>
</g>
</g>
</svg>
