<?xml version="1.0" encoding="UTF-8" standalone="no"?>
<!DOCTYPE svg PUBLIC "-//W3C//DTD SVG 1.1//EN"
 "http://www.w3.org/Graphics/SVG/1.1/DTD/svg11.dtd">
<!-- Generated by graphviz version 2.38.0 (20140413.2041)
 -->
<!-- Title: console.scad Pages: 1 -->
<svg width="401pt" height="196pt"
 viewBox="0.00 0.00 401.00 196.00" xmlns="http://www.w3.org/2000/svg" xmlns:xlink="http://www.w3.org/1999/xlink">
<g id="graph0" class="graph" transform="scale(1 1) rotate(0) translate(4 192)">
<title>console.scad</title>
<polygon fill="white" stroke="none" points="-4,4 -4,-192 397,-192 397,4 -4,4"/>
<!-- Node1 -->
<g id="node1" class="node"><title>Node1</title>
<polygon fill="#bfbfbf" stroke="black" points="132.5,-168.5 132.5,-187.5 206.5,-187.5 206.5,-168.5 132.5,-168.5"/>
<text text-anchor="middle" x="169.5" y="-175.5" font-family="Helvetica,sans-Serif" font-size="10.00">console.scad</text>
</g>
<!-- Node2 -->
<g id="node2" class="node"><title>Node2</title>
<g id="a_node2"><a xlink:href="resolution_8scad.html" target="_top" xlink:title="Arc rendering resolution abstraction. ">
<polygon fill="white" stroke="black" points="0,-112.5 0,-131.5 83,-131.5 83,-112.5 0,-112.5"/>
<text text-anchor="middle" x="41.5" y="-119.5" font-family="Helvetica,sans-Serif" font-size="10.00">resolution.scad</text>
</a>
</g>
</g>
<!-- Node1&#45;&gt;Node2 -->
<g id="edge1" class="edge"><title>Node1&#45;&gt;Node2</title>
<path fill="none" stroke="midnightblue" d="M139.877,-164.503C115.881,-154.38 82.716,-140.388 61.6871,-131.516"/>
<polygon fill="midnightblue" stroke="midnightblue" points="138.644,-167.781 149.218,-168.444 141.365,-161.332 138.644,-167.781"/>
</g>
<!-- Node3 -->
<g id="node3" class="node"><title>Node3</title>
<g id="a_node3"><a xlink:href="map_8scad.html" target="_top" xlink:title="Mapped key&#45;value pair data access. ">
<polygon fill="white" stroke="black" points="101,-112.5 101,-131.5 160,-131.5 160,-112.5 101,-112.5"/>
<text text-anchor="middle" x="130.5" y="-119.5" font-family="Helvetica,sans-Serif" font-size="10.00">map.scad</text>
</a>
</g>
</g>
<!-- Node1&#45;&gt;Node3 -->
<g id="edge2" class="edge"><title>Node1&#45;&gt;Node3</title>
<path fill="none" stroke="midnightblue" d="M157.118,-159.855C150.365,-150.505 142.291,-139.327 136.82,-131.751"/>
<polygon fill="midnightblue" stroke="midnightblue" points="154.368,-162.025 163.06,-168.083 160.042,-157.927 154.368,-162.025"/>
</g>
<!-- Node4 -->
<g id="node4" class="node"><title>Node4</title>
<g id="a_node4"><a xlink:href="table_8scad.html" target="_top" xlink:title="Data table encoding and lookup. ">
<polygon fill="white" stroke="black" points="178.5,-112.5 178.5,-131.5 240.5,-131.5 240.5,-112.5 178.5,-112.5"/>
<text text-anchor="middle" x="209.5" y="-119.5" font-family="Helvetica,sans-Serif" font-size="10.00">table.scad</text>
</a>
</g>
</g>
<!-- Node1&#45;&gt;Node4 -->
<g id="edge3" class="edge"><title>Node1&#45;&gt;Node4</title>
<path fill="none" stroke="midnightblue" d="M182.2,-159.855C189.126,-150.505 197.406,-139.327 203.018,-131.751"/>
<polygon fill="midnightblue" stroke="midnightblue" points="179.245,-157.964 176.105,-168.083 184.87,-162.131 179.245,-157.964"/>
</g>
<!-- Node5 -->
<g id="node5" class="node"><title>Node5</title>
<g id="a_node5"><a xlink:href="transform_8scad.html" target="_top" xlink:title="Shape transformation functions. ">
<polygon fill="white" stroke="black" points="258.5,-112.5 258.5,-131.5 340.5,-131.5 340.5,-112.5 258.5,-112.5"/>
<text text-anchor="middle" x="299.5" y="-119.5" font-family="Helvetica,sans-Serif" font-size="10.00">transform.scad</text>
</a>
</g>
</g>
<!-- Node1&#45;&gt;Node5 -->
<g id="edge4" class="edge"><title>Node1&#45;&gt;Node5</title>
<path fill="none" stroke="midnightblue" d="M199.585,-164.503C223.957,-154.38 257.64,-140.388 278.997,-131.516"/>
<polygon fill="midnightblue" stroke="midnightblue" points="197.991,-161.375 190.099,-168.444 200.677,-167.84 197.991,-161.375"/>
</g>
<!-- Node6 -->
<g id="node6" class="node"><title>Node6</title>
<g id="a_node6"><a xlink:href="shapes2d_8scad.html" target="_top" xlink:title="Two&#45;dimensional basic shapes. ">
<polygon fill="white" stroke="black" points="258,-56.5 258,-75.5 341,-75.5 341,-56.5 258,-56.5"/>
<text text-anchor="middle" x="299.5" y="-63.5" font-family="Helvetica,sans-Serif" font-size="10.00">shapes2d.scad</text>
</a>
</g>
</g>
<!-- Node5&#45;&gt;Node6 -->
<g id="edge5" class="edge"><title>Node5&#45;&gt;Node6</title>
<path fill="none" stroke="midnightblue" d="M299.5,-101.805C299.5,-92.9102 299.5,-82.7798 299.5,-75.7511"/>
<polygon fill="midnightblue" stroke="midnightblue" points="296,-102.083 299.5,-112.083 303,-102.083 296,-102.083"/>
</g>
<!-- Node7 -->
<g id="node7" class="node"><title>Node7</title>
<g id="a_node7"><a xlink:href="shapes2de_8scad.html" target="_top" xlink:title="Linearly extruded two&#45;dimensional basic shapes. ">
<polygon fill="white" stroke="black" points="203.5,-0.5 203.5,-19.5 291.5,-19.5 291.5,-0.5 203.5,-0.5"/>
<text text-anchor="middle" x="247.5" y="-7.5" font-family="Helvetica,sans-Serif" font-size="10.00">shapes2de.scad</text>
</a>
</g>
</g>
<!-- Node6&#45;&gt;Node7 -->
<g id="edge6" class="edge"><title>Node6&#45;&gt;Node7</title>
<path fill="none" stroke="midnightblue" d="M283.821,-48.7175C274.655,-39.1997 263.447,-27.5608 255.927,-19.7511"/>
<polygon fill="midnightblue" stroke="midnightblue" points="281.456,-51.3075 290.913,-56.083 286.498,-46.452 281.456,-51.3075"/>
</g>
<!-- Node8 -->
<g id="node8" class="node"><title>Node8</title>
<g id="a_node8"><a xlink:href="shapes3d_8scad.html" target="_top" xlink:title="Three&#45;dimensional basic shapes. ">
<polygon fill="white" stroke="black" points="310,-0.5 310,-19.5 393,-19.5 393,-0.5 310,-0.5"/>
<text text-anchor="middle" x="351.5" y="-7.5" font-family="Helvetica,sans-Serif" font-size="10.00">shapes3d.scad</text>
</a>
</g>
</g>
<!-- Node6&#45;&gt;Node8 -->
<g id="edge7" class="edge"><title>Node6&#45;&gt;Node8</title>
<path fill="none" stroke="midnightblue" d="M315.179,-48.7175C324.345,-39.1997 335.553,-27.5608 343.073,-19.7511"/>
<polygon fill="midnightblue" stroke="midnightblue" points="312.502,-46.452 308.087,-56.083 317.544,-51.3075 312.502,-46.452"/>
</g>
</g>
</svg>
