<?xml version="1.0" encoding="UTF-8" standalone="no"?>
<!DOCTYPE svg PUBLIC "-//W3C//DTD SVG 1.1//EN"
 "http://www.w3.org/Graphics/SVG/1.1/DTD/svg11.dtd">
<!-- Generated by graphviz version 2.38.0 (20140413.2041)
 -->
<!-- Title: Shapes Pages: 1 -->
<svg width="245pt" height="147pt"
 viewBox="0.00 0.00 245.00 146.59" xmlns="http://www.w3.org/2000/svg" xmlns:xlink="http://www.w3.org/1999/xlink">
<g id="graph0" class="graph" transform="scale(1 1) rotate(0) translate(4 142.586)">
<title>Shapes</title>
<polygon fill="white" stroke="none" points="-4,4 -4,-142.586 241,-142.586 241,4 -4,4"/>
<!-- Node1 -->
<g id="node1" class="node"><title>Node1</title>
<g id="a_node1"><a xlink:href="group__shapes__2d.html" target="_top" xlink:title="Two dimensional geometric shapes. ">
<polygon fill="white" stroke="black" points="165,-117.624 165,-136.624 230,-136.624 230,-117.624 165,-117.624"/>
<text text-anchor="middle" x="197.5" y="-124.624" font-family="Helvetica,sans-Serif" font-size="10.00">2D Shapes</text>
</a>
</g>
</g>
<!-- Node3 -->
<g id="node2" class="node"><title>Node3</title>
<g id="a_node2"><a xlink:href="group__shapes__3d.html" target="_top" xlink:title="Three dimensional geometric shapes. ">
<polygon fill="white" stroke="black" points="165,-52.6243 165,-71.6243 230,-71.6243 230,-52.6243 165,-52.6243"/>
<text text-anchor="middle" x="197.5" y="-59.6243" font-family="Helvetica,sans-Serif" font-size="10.00">3D Shapes</text>
</a>
</g>
</g>
<!-- Node0 -->
<g id="node3" class="node"><title>Node0</title>
<polygon fill="#bfbfbf" stroke="black" points="0,-58.6243 0,-77.6243 50,-77.6243 50,-58.6243 0,-58.6243"/>
<text text-anchor="middle" x="25" y="-65.6243" font-family="Helvetica,sans-Serif" font-size="10.00">Shapes</text>
</g>
<!-- Node0&#45;&gt;Node1 -->
<g id="edge1" class="edge"><title>Node0&#45;&gt;Node1</title>
<path fill="none" stroke="black" d="M34.0258,-87.1648C40.8754,-100.731 52.1491,-117.954 68,-126.124 98.0432,-141.61 137.531,-139.117 164.763,-134.501"/>
<polygon fill="black" stroke="black" points="37.0269,-85.3164 29.6478,-77.7138 30.6753,-88.2587 37.0269,-85.3164"/>
</g>
<!-- Node0&#45;&gt;Node1 -->
<g id="edge4" class="edge"><title>Node0&#45;&gt;Node1</title>
<path fill="none" stroke="darkgreen" stroke-dasharray="5,2" d="M50.0669,-76.4525C81.3686,-87.2841 135.93,-106.165 168.883,-117.568"/>
<text text-anchor="middle" x="104" y="-109.124" font-family="Helvetica,sans-Serif" font-size="10.00">shapes2d.scad</text>
</g>
<!-- Node0&#45;&gt;Node3 -->
<g id="edge3" class="edge"><title>Node0&#45;&gt;Node3</title>
<path fill="none" stroke="black" d="M60.1733,-68.5327C82.8289,-68.6291 113.206,-68.4254 140,-67.1243 148.065,-66.7327 156.761,-66.079 164.855,-65.3712"/>
<polygon fill="black" stroke="black" points="60.0576,-65.032 50.0352,-68.4675 60.0125,-72.0319 60.0576,-65.032"/>
</g>
<!-- Node0&#45;&gt;Node3 -->
<g id="edge6" class="edge"><title>Node0&#45;&gt;Node3</title>
<path fill="none" stroke="darkgreen" stroke-dasharray="5,2" d="M50.0959,-58.6242C55.8716,-56.7595 62.0823,-55.0847 68,-54.1243 100.764,-48.8074 138.756,-52.3509 164.886,-56.2644"/>
<text text-anchor="middle" x="104" y="-57.1243" font-family="Helvetica,sans-Serif" font-size="10.00">shapes3d.scad</text>
</g>
<!-- Node2 -->
<g id="node4" class="node"><title>Node2</title>
<g id="a_node4"><a xlink:href="group__shapes__2de.html" target="_top" xlink:title="Extruded two dimensional geometric shapes. ">
<polygon fill="white" stroke="black" points="158,-4.62434 158,-23.6243 237,-23.6243 237,-4.62434 158,-4.62434"/>
<text text-anchor="middle" x="197.5" y="-11.6243" font-family="Helvetica,sans-Serif" font-size="10.00">2D Extrusions</text>
</a>
</g>
</g>
<!-- Node0&#45;&gt;Node2 -->
<g id="edge2" class="edge"><title>Node0&#45;&gt;Node2</title>
<path fill="none" stroke="black" d="M52.5015,-53.8156C57.5631,-51.3873 62.8809,-49.0367 68,-47.1243 97.452,-36.1221 132.029,-27.4706 157.893,-21.7911"/>
<polygon fill="black" stroke="black" points="50.5684,-50.8698 43.2035,-58.4862 53.7105,-57.125 50.5684,-50.8698"/>
</g>
<!-- Node0&#45;&gt;Node2 -->
<g id="edge5" class="edge"><title>Node0&#45;&gt;Node2</title>
<path fill="none" stroke="darkgreen" stroke-dasharray="5,2" d="M29.8824,-58.2224C35.7946,-44.6948 48.4716,-20.9922 68,-11.1243 96.6802,3.36796 133.753,0.607206 160.703,-4.58237"/>
<text text-anchor="middle" x="104" y="-14.1243" font-family="Helvetica,sans-Serif" font-size="10.00">shapes2de.scad</text>
</g>
</g>
</svg>
