<?xml version="1.0" encoding="UTF-8" standalone="no"?>
<!DOCTYPE svg PUBLIC "-//W3C//DTD SVG 1.1//EN"
 "http://www.w3.org/Graphics/SVG/1.1/DTD/svg11.dtd">
<!-- Generated by graphviz version 2.38.0 (20140413.2041)
 -->
<!-- Title: Datatable Pages: 1 -->
<svg width="187pt" height="35pt"
 viewBox="0.00 0.00 187.00 34.63" xmlns="http://www.w3.org/2000/svg" xmlns:xlink="http://www.w3.org/1999/xlink">
<g id="graph0" class="graph" transform="scale(1 1) rotate(0) translate(4 30.6295)">
<title>Datatable</title>
<polygon fill="white" stroke="none" points="-4,4 -4,-30.6295 183,-30.6295 183,4 -4,4"/>
<!-- Node1 -->
<g id="node1" class="node"><title>Node1</title>
<g id="a_node1"><a xlink:href="group__data.html" target="_top" xlink:title="Data values and reference. ">
<polygon fill="white" stroke="black" points="0,-7.12951 0,-26.1295 38,-26.1295 38,-7.12951 0,-7.12951"/>
<text text-anchor="middle" x="19" y="-14.1295" font-family="Helvetica,sans-Serif" font-size="10.00">Data</text>
</a>
</g>
</g>
<!-- Node0 -->
<g id="node2" class="node"><title>Node0</title>
<polygon fill="#bfbfbf" stroke="black" points="120,-7.12951 120,-26.1295 179,-26.1295 179,-7.12951 120,-7.12951"/>
<text text-anchor="middle" x="149.5" y="-14.1295" font-family="Helvetica,sans-Serif" font-size="10.00">Datatable</text>
</g>
<!-- Node1&#45;&gt;Node0 -->
<g id="edge1" class="edge"><title>Node1&#45;&gt;Node0</title>
<path fill="none" stroke="black" d="M48.4186,-16.6295C69.5561,-16.6295 98.2998,-16.6295 119.561,-16.6295"/>
<polygon fill="black" stroke="black" points="48.1384,-13.1296 38.1384,-16.6295 48.1383,-20.1296 48.1384,-13.1296"/>
</g>
<!-- Node0&#45;&gt;Node1 -->
<g id="edge2" class="edge"><title>Node0&#45;&gt;Node1</title>
<path fill="none" stroke="darkgreen" stroke-dasharray="5,2" d="M121.756,-7.12624C115.364,-5.26161 108.506,-3.58766 102,-2.62951 81.7737,0.349262 76.0939,1.14013 56,-2.62951 50.0681,-3.74234 43.8576,-5.80306 38.2976,-8.00764"/>
<text text-anchor="middle" x="79" y="-5.62951" font-family="Helvetica,sans-Serif" font-size="10.00">table.scad</text>
</g>
</g>
</svg>
