<?xml version="1.0" encoding="UTF-8" standalone="no"?>
<!DOCTYPE svg PUBLIC "-//W3C//DTD SVG 1.1//EN"
 "http://www.w3.org/Graphics/SVG/1.1/DTD/svg11.dtd">
<!-- Generated by graphviz version 2.38.0 (20140413.2041)
 -->
<!-- Title: Constants Pages: 1 -->
<svg width="232pt" height="143pt"
 viewBox="0.00 0.00 232.00 142.78" xmlns="http://www.w3.org/2000/svg" xmlns:xlink="http://www.w3.org/1999/xlink">
<g id="graph0" class="graph" transform="scale(1 1) rotate(0) translate(4 138.782)">
<title>Constants</title>
<polygon fill="white" stroke="none" points="-4,4 -4,-138.782 228,-138.782 228,4 -4,4"/>
<!-- Node3 -->
<g id="node1" class="node"><title>Node3</title>
<g id="a_node1"><a xlink:href="group__constants__euclidean.html" target="_top" xlink:title="Euclidean 2D/3D space mapping. ">
<polygon fill="white" stroke="black" points="165,-115.282 165,-134.282 224,-134.282 224,-115.282 165,-115.282"/>
<text text-anchor="middle" x="194.5" y="-122.282" font-family="Helvetica,sans-Serif" font-size="10.00">Euclidean</text>
</a>
</g>
</g>
<!-- Node2 -->
<g id="node2" class="node"><title>Node2</title>
<g id="a_node2"><a xlink:href="group__constants__system.html" target="_top" xlink:title="System/Program limits. ">
<polygon fill="white" stroke="black" points="169.5,-50.2819 169.5,-69.2819 219.5,-69.2819 219.5,-50.2819 169.5,-50.2819"/>
<text text-anchor="middle" x="194.5" y="-57.2819" font-family="Helvetica,sans-Serif" font-size="10.00">System</text>
</a>
</g>
</g>
<!-- Node1 -->
<g id="node3" class="node"><title>Node1</title>
<g id="a_node3"><a xlink:href="group__constants__general.html" target="_top" xlink:title="General design constants. ">
<polygon fill="white" stroke="black" points="169.5,-2.28193 169.5,-21.2819 219.5,-21.2819 219.5,-2.28193 169.5,-2.28193"/>
<text text-anchor="middle" x="194.5" y="-9.28193" font-family="Helvetica,sans-Serif" font-size="10.00">General</text>
</a>
</g>
</g>
<!-- Node0 -->
<g id="node4" class="node"><title>Node0</title>
<polygon fill="#bfbfbf" stroke="black" points="0,-56.2819 0,-75.2819 62,-75.2819 62,-56.2819 0,-56.2819"/>
<text text-anchor="middle" x="31" y="-63.2819" font-family="Helvetica,sans-Serif" font-size="10.00">Constants</text>
</g>
<!-- Node0&#45;&gt;Node3 -->
<g id="edge3" class="edge"><title>Node0&#45;&gt;Node3</title>
<path fill="none" stroke="black" d="M41.6211,-84.4898C49.7885,-98.1506 62.9049,-115.647 80,-123.782 106.691,-136.483 141.07,-134.643 164.965,-130.942"/>
<polygon fill="black" stroke="black" points="44.4867,-82.4419 36.5625,-75.4094 38.3716,-85.8486 44.4867,-82.4419"/>
</g>
<!-- Node0&#45;&gt;Node3 -->
<g id="edge6" class="edge"><title>Node0&#45;&gt;Node3</title>
<path fill="none" stroke="darkgreen" stroke-dasharray="5,2" d="M58.3072,-75.3926C88.4285,-86.3967 137.468,-104.312 167.472,-115.273"/>
<text text-anchor="middle" x="113.5" y="-109.782" font-family="Helvetica,sans-Serif" font-size="10.00">constants.scad</text>
</g>
<!-- Node0&#45;&gt;Node2 -->
<g id="edge2" class="edge"><title>Node0&#45;&gt;Node2</title>
<path fill="none" stroke="black" d="M72.3139,-66.4006C94.3901,-66.4955 122.221,-66.2184 147,-64.7819 154.295,-64.359 162.208,-63.6155 169.403,-62.829"/>
<polygon fill="black" stroke="black" points="72.3174,-62.9007 62.2932,-66.3306 72.2684,-69.9005 72.3174,-62.9007"/>
</g>
<!-- Node0&#45;&gt;Node2 -->
<g id="edge5" class="edge"><title>Node0&#45;&gt;Node2</title>
<path fill="none" stroke="darkgreen" stroke-dasharray="5,2" d="M59.6257,-56.2778C66.2229,-54.4132 73.2972,-52.7395 80,-51.7819 109.478,-47.5707 117.33,-49.2483 147,-51.7819 154.346,-52.4092 162.274,-53.5842 169.467,-54.8443"/>
<text text-anchor="middle" x="113.5" y="-54.7819" font-family="Helvetica,sans-Serif" font-size="10.00">constants.scad</text>
</g>
<!-- Node0&#45;&gt;Node1 -->
<g id="edge1" class="edge"><title>Node0&#45;&gt;Node1</title>
<path fill="none" stroke="black" d="M61.4911,-52.1655C67.5549,-49.5684 73.939,-46.9785 80,-44.7819 110.29,-33.8048 146.116,-23.8801 169.296,-17.8455"/>
<polygon fill="black" stroke="black" points="60.065,-48.9691 52.3186,-56.1971 62.8817,-55.3774 60.065,-48.9691"/>
</g>
<!-- Node0&#45;&gt;Node1 -->
<g id="edge4" class="edge"><title>Node0&#45;&gt;Node1</title>
<path fill="none" stroke="darkgreen" stroke-dasharray="5,2" d="M36.8378,-55.8371C44.0706,-42.2585 59.1207,-18.4957 80,-8.78193 108.417,4.43862 145.318,0.0794922 169.203,-5.12198"/>
<text text-anchor="middle" x="113.5" y="-11.7819" font-family="Helvetica,sans-Serif" font-size="10.00">constants.scad</text>
</g>
</g>
</svg>
