<?xml version="1.0" encoding="UTF-8" standalone="no"?>
<!DOCTYPE svg PUBLIC "-//W3C//DTD SVG 1.1//EN"
 "http://www.w3.org/Graphics/SVG/1.1/DTD/svg11.dtd">
<!-- Generated by graphviz version 2.38.0 (20140413.2041)
 -->
<!-- Title: n&#45;gon Solutions Pages: 1 -->
<svg width="414pt" height="66pt"
 viewBox="0.00 0.00 414.00 66.00" xmlns="http://www.w3.org/2000/svg" xmlns:xlink="http://www.w3.org/1999/xlink">
<g id="graph0" class="graph" transform="scale(1 1) rotate(0) translate(4 62)">
<title>n&#45;gon Solutions</title>
<polygon fill="white" stroke="none" points="-4,4 -4,-62 410,-62 410,4 -4,4"/>
<!-- Node1 -->
<g id="node1" class="node"><title>Node1</title>
<g id="a_node1"><a xlink:href="group__math.html" target="_top" xlink:title="Mathematical functions. ">
<polygon fill="white" stroke="black" points="0,-19.5 0,-38.5 38,-38.5 38,-19.5 0,-19.5"/>
<text text-anchor="middle" x="19" y="-26.5" font-family="Helvetica,sans-Serif" font-size="10.00">Math</text>
</a>
</g>
</g>
<!-- Node0 -->
<g id="node2" class="node"><title>Node0</title>
<polygon fill="#bfbfbf" stroke="black" points="120,-19.5 120,-38.5 204,-38.5 204,-19.5 120,-19.5"/>
<text text-anchor="middle" x="162" y="-26.5" font-family="Helvetica,sans-Serif" font-size="10.00">n&#45;gon Solutions</text>
</g>
<!-- Node1&#45;&gt;Node0 -->
<g id="edge1" class="edge"><title>Node1&#45;&gt;Node0</title>
<path fill="none" stroke="black" d="M48.3987,-29C68.8989,-29 96.8938,-29 119.841,-29"/>
<polygon fill="black" stroke="black" points="48.1447,-25.5001 38.1446,-29 48.1446,-32.5001 48.1447,-25.5001"/>
</g>
<!-- Node0&#45;&gt;Node1 -->
<g id="edge2" class="edge"><title>Node0&#45;&gt;Node1</title>
<path fill="none" stroke="darkgreen" stroke-dasharray="5,2" d="M128.691,-19.396C107.854,-14.505 80.2207,-10.4562 56,-15 50.0681,-16.1128 43.8576,-18.1735 38.2976,-20.3781"/>
<text text-anchor="middle" x="79" y="-18" font-family="Helvetica,sans-Serif" font-size="10.00">math.scad</text>
</g>
<!-- Node2 -->
<g id="node3" class="node"><title>Node2</title>
<g id="a_node3"><a xlink:href="group__math__vector.html" target="_top" xlink:title="Point, vector, and plane computations. ">
<polygon fill="white" stroke="black" points="286,-38.5 286,-57.5 406,-57.5 406,-38.5 286,-38.5"/>
<text text-anchor="middle" x="346" y="-45.5" font-family="Helvetica,sans-Serif" font-size="10.00">Point, Vector and Plane</text>
</a>
</g>
</g>
<!-- Node0&#45;&gt;Node2 -->
<g id="edge3" class="edge"><title>Node0&#45;&gt;Node2</title>
<path fill="none" stroke="darkgreen" stroke-dasharray="5,2" d="M204.299,-33.3114C228.421,-35.8296 259.264,-39.0495 285.922,-41.8325"/>
<text text-anchor="middle" x="245" y="-42" font-family="Helvetica,sans-Serif" font-size="10.00">math.scad</text>
</g>
<!-- Node3 -->
<g id="node4" class="node"><title>Node3</title>
<g id="a_node4"><a xlink:href="group__math__triangle.html" target="_top" xlink:title="Triangle computations. ">
<polygon fill="white" stroke="black" points="298.5,-0.5 298.5,-19.5 393.5,-19.5 393.5,-0.5 298.5,-0.5"/>
<text text-anchor="middle" x="346" y="-7.5" font-family="Helvetica,sans-Serif" font-size="10.00">Triangle Solutions</text>
</a>
</g>
</g>
<!-- Node0&#45;&gt;Node3 -->
<g id="edge4" class="edge"><title>Node0&#45;&gt;Node3</title>
<path fill="none" stroke="darkgreen" stroke-dasharray="5,2" d="M204.213,-22.3359C210.172,-21.4822 216.237,-20.673 222,-20 247.217,-17.0553 275.443,-14.6941 298.49,-13.0071"/>
<text text-anchor="middle" x="245" y="-23" font-family="Helvetica,sans-Serif" font-size="10.00">math.scad</text>
</g>
</g>
</svg>
