<?xml version="1.0" encoding="UTF-8" standalone="no"?>
<!DOCTYPE svg PUBLIC "-//W3C//DTD SVG 1.1//EN"
 "http://www.w3.org/Graphics/SVG/1.1/DTD/svg11.dtd">
<!-- Generated by graphviz version 2.38.0 (20140413.2041)
 -->
<!-- Title: Length Pages: 1 -->
<svg width="207pt" height="37pt"
 viewBox="0.00 0.00 207.00 36.51" xmlns="http://www.w3.org/2000/svg" xmlns:xlink="http://www.w3.org/1999/xlink">
<g id="graph0" class="graph" transform="scale(1 1) rotate(0) translate(4 32.5114)">
<title>Length</title>
<polygon fill="white" stroke="none" points="-4,4 -4,-32.5114 203,-32.5114 203,4 -4,4"/>
<!-- Node1 -->
<g id="node1" class="node"><title>Node1</title>
<g id="a_node1"><a xlink:href="group__units.html" target="_top" xlink:title="Units and unit conversions. ">
<polygon fill="white" stroke="black" points="0,-9.01138 0,-28.0114 40,-28.0114 40,-9.01138 0,-9.01138"/>
<text text-anchor="middle" x="20" y="-16.0114" font-family="Helvetica,sans-Serif" font-size="10.00">Units</text>
</a>
</g>
</g>
<!-- Node0 -->
<g id="node2" class="node"><title>Node0</title>
<polygon fill="#bfbfbf" stroke="black" points="153,-9.01138 153,-28.0114 199,-28.0114 199,-9.01138 153,-9.01138"/>
<text text-anchor="middle" x="176" y="-16.0114" font-family="Helvetica,sans-Serif" font-size="10.00">Length</text>
</g>
<!-- Node1&#45;&gt;Node0 -->
<g id="edge1" class="edge"><title>Node1&#45;&gt;Node0</title>
<path fill="none" stroke="black" d="M50.4227,-18.5114C80.291,-18.5114 125.866,-18.5114 152.821,-18.5114"/>
<polygon fill="black" stroke="black" points="50.1929,-15.0115 40.1928,-18.5114 50.1928,-22.0115 50.1929,-15.0115"/>
</g>
<!-- Node0&#45;&gt;Node1 -->
<g id="edge2" class="edge"><title>Node0&#45;&gt;Node1</title>
<path fill="none" stroke="darkgreen" stroke-dasharray="5,2" d="M152.926,-9.3013C147.189,-7.32186 140.948,-5.52219 135,-4.51138 101.262,1.22233 91.664,1.64452 58,-4.51138 52.0547,-5.59855 45.8247,-7.59259 40.2083,-9.74156"/>
<text text-anchor="middle" x="96.5" y="-7.51138" font-family="Helvetica,sans-Serif" font-size="10.00">units_length.scad</text>
</g>
</g>
</svg>
