<?xml version="1.0" encoding="UTF-8" standalone="no"?>
<!DOCTYPE svg PUBLIC "-//W3C//DTD SVG 1.1//EN"
 "http://www.w3.org/Graphics/SVG/1.1/DTD/svg11.dtd">
<!-- Generated by graphviz version 2.38.0 (20140413.2041)
 -->
<!-- Title: Bitwise Operations Pages: 1 -->
<svg width="263pt" height="35pt"
 viewBox="0.00 0.00 263.00 35.44" xmlns="http://www.w3.org/2000/svg" xmlns:xlink="http://www.w3.org/1999/xlink">
<g id="graph0" class="graph" transform="scale(1 1) rotate(0) translate(4 31.4361)">
<title>Bitwise Operations</title>
<polygon fill="white" stroke="none" points="-4,4 -4,-31.4361 259,-31.4361 259,4 -4,4"/>
<!-- Node1 -->
<g id="node1" class="node"><title>Node1</title>
<g id="a_node1"><a xlink:href="group__math.html" target="_top" xlink:title="Mathematical functions. ">
<polygon fill="white" stroke="black" points="0,-7.93613 0,-26.9361 38,-26.9361 38,-7.93613 0,-7.93613"/>
<text text-anchor="middle" x="19" y="-14.9361" font-family="Helvetica,sans-Serif" font-size="10.00">Math</text>
</a>
</g>
</g>
<!-- Node0 -->
<g id="node2" class="node"><title>Node0</title>
<polygon fill="#bfbfbf" stroke="black" points="156,-7.93613 156,-26.9361 255,-26.9361 255,-7.93613 156,-7.93613"/>
<text text-anchor="middle" x="205.5" y="-14.9361" font-family="Helvetica,sans-Serif" font-size="10.00">Bitwise Operations</text>
</g>
<!-- Node1&#45;&gt;Node0 -->
<g id="edge1" class="edge"><title>Node1&#45;&gt;Node0</title>
<path fill="none" stroke="black" d="M48.1141,-17.4361C76.6499,-17.4361 121.395,-17.4361 155.725,-17.4361"/>
<polygon fill="black" stroke="black" points="48.0266,-13.9362 38.0266,-17.4361 48.0265,-20.9362 48.0266,-13.9362"/>
</g>
<!-- Node0&#45;&gt;Node1 -->
<g id="edge2" class="edge"><title>Node0&#45;&gt;Node1</title>
<path fill="none" stroke="darkgreen" stroke-dasharray="5,2" d="M165.77,-7.91761C135.645,-1.92369 92.9048,3.48724 56,-3.43613 50.0681,-4.54896 43.8576,-6.60968 38.2976,-8.81426"/>
<text text-anchor="middle" x="97" y="-6.43613" font-family="Helvetica,sans-Serif" font-size="10.00">math_bitwise.scad</text>
</g>
</g>
</svg>
