<?xml version="1.0" encoding="UTF-8" standalone="no"?>
<!DOCTYPE svg PUBLIC "-//W3C//DTD SVG 1.1//EN"
 "http://www.w3.org/Graphics/SVG/1.1/DTD/svg11.dtd">
<!-- Generated by graphviz version 2.38.0 (20140413.2041)
 -->
<!-- Title: Extrusions Pages: 1 -->
<svg width="260pt" height="76pt"
 viewBox="0.00 0.00 260.00 76.00" xmlns="http://www.w3.org/2000/svg" xmlns:xlink="http://www.w3.org/1999/xlink">
<g id="graph0" class="graph" transform="scale(1 1) rotate(0) translate(4 72)">
<title>Extrusions</title>
<polygon fill="white" stroke="none" points="-4,4 -4,-72 256,-72 256,4 -4,4"/>
<!-- Node2 -->
<g id="node1" class="node"><title>Node2</title>
<g id="a_node1"><a xlink:href="group__transforms__replicate.html" target="_top" xlink:title="Shape Replications and distribution. ">
<polygon fill="white" stroke="black" points="173,-0.5 173,-19.5 244,-19.5 244,-0.5 173,-0.5"/>
<text text-anchor="middle" x="208.5" y="-7.5" font-family="Helvetica,sans-Serif" font-size="10.00">Replications</text>
</a>
</g>
</g>
<!-- Node1 -->
<g id="node2" class="node"><title>Node1</title>
<g id="a_node2"><a xlink:href="group__transforms.html" target="_top" xlink:title="Shape transformations. ">
<polygon fill="white" stroke="black" points="165,-48.5 165,-67.5 252,-67.5 252,-48.5 165,-48.5"/>
<text text-anchor="middle" x="208.5" y="-55.5" font-family="Helvetica,sans-Serif" font-size="10.00">Transformations</text>
</a>
</g>
</g>
<!-- Node0 -->
<g id="node3" class="node"><title>Node0</title>
<polygon fill="#bfbfbf" stroke="black" points="0,-26.5 0,-45.5 63,-45.5 63,-26.5 0,-26.5"/>
<text text-anchor="middle" x="31.5" y="-33.5" font-family="Helvetica,sans-Serif" font-size="10.00">Extrusions</text>
</g>
<!-- Node1&#45;&gt;Node0 -->
<g id="edge1" class="edge"><title>Node1&#45;&gt;Node0</title>
<path fill="none" stroke="black" d="M154.731,-50.9912C152.117,-50.6538 149.529,-50.3218 147,-50 118.591,-46.385 86.1932,-42.4403 63.1271,-39.6621"/>
<polygon fill="black" stroke="black" points="154.501,-54.4907 164.868,-52.3095 155.403,-47.5491 154.501,-54.4907"/>
</g>
<!-- Node0&#45;&gt;Node2 -->
<g id="edge3" class="edge"><title>Node0&#45;&gt;Node2</title>
<path fill="none" stroke="darkgreen" stroke-dasharray="5,2" d="M63.2212,-29.2915C69.1075,-28.1123 75.2329,-26.9578 81,-26 111.9,-20.8682 147.289,-16.5212 172.764,-13.6592"/>
<text text-anchor="middle" x="114" y="-29" font-family="Helvetica,sans-Serif" font-size="10.00">transform.scad</text>
</g>
<!-- Node0&#45;&gt;Node1 -->
<g id="edge2" class="edge"><title>Node0&#45;&gt;Node1</title>
<path fill="none" stroke="darkgreen" stroke-dasharray="5,2" d="M63.1667,-43.6186C69.058,-44.8936 75.1992,-46.0943 81,-47 108.771,-51.336 140.257,-54.0814 164.87,-55.7452"/>
<text text-anchor="middle" x="114" y="-57" font-family="Helvetica,sans-Serif" font-size="10.00">transform.scad</text>
</g>
</g>
</svg>
