<?xml version="1.0" encoding="UTF-8" standalone="no"?>
<!DOCTYPE svg PUBLIC "-//W3C//DTD SVG 1.1//EN"
 "http://www.w3.org/Graphics/SVG/1.1/DTD/svg11.dtd">
<!-- Generated by graphviz version 2.38.0 (20140413.2041)
 -->
<!-- Title: Point, Vector and Plane Pages: 1 -->
<svg width="425pt" height="66pt"
 viewBox="0.00 0.00 425.00 66.00" xmlns="http://www.w3.org/2000/svg" xmlns:xlink="http://www.w3.org/1999/xlink">
<g id="graph0" class="graph" transform="scale(1 1) rotate(0) translate(4 62)">
<title>Point, Vector and Plane</title>
<polygon fill="white" stroke="none" points="-4,4 -4,-62 421,-62 421,4 -4,4"/>
<!-- Node1 -->
<g id="node1" class="node"><title>Node1</title>
<g id="a_node1"><a xlink:href="group__math.html" target="_top" xlink:title="Mathematical functions. ">
<polygon fill="white" stroke="black" points="0,-19.5 0,-38.5 38,-38.5 38,-19.5 0,-19.5"/>
<text text-anchor="middle" x="19" y="-26.5" font-family="Helvetica,sans-Serif" font-size="10.00">Math</text>
</a>
</g>
</g>
<!-- Node0 -->
<g id="node3" class="node"><title>Node0</title>
<polygon fill="#bfbfbf" stroke="black" points="120,-19.5 120,-38.5 240,-38.5 240,-19.5 120,-19.5"/>
<text text-anchor="middle" x="180" y="-26.5" font-family="Helvetica,sans-Serif" font-size="10.00">Point, Vector and Plane</text>
</g>
<!-- Node1&#45;&gt;Node0 -->
<g id="edge1" class="edge"><title>Node1&#45;&gt;Node0</title>
<path fill="none" stroke="black" d="M48.4112,-29C68.1909,-29 95.2906,-29 119.678,-29"/>
<polygon fill="black" stroke="black" points="48.2394,-25.5001 38.2393,-29 48.2393,-32.5001 48.2394,-25.5001"/>
</g>
<!-- Node2 -->
<g id="node2" class="node"><title>Node2</title>
<g id="a_node2"><a xlink:href="group__math__ngon.html" target="_top" xlink:title="Regular n&#45;sided polygon computations. ">
<polygon fill="white" stroke="black" points="327.5,-38.5 327.5,-57.5 411.5,-57.5 411.5,-38.5 327.5,-38.5"/>
<text text-anchor="middle" x="369.5" y="-45.5" font-family="Helvetica,sans-Serif" font-size="10.00">n&#45;gon Solutions</text>
</a>
</g>
</g>
<!-- Node0&#45;&gt;Node1 -->
<g id="edge2" class="edge"><title>Node0&#45;&gt;Node1</title>
<path fill="none" stroke="darkgreen" stroke-dasharray="5,2" d="M143.807,-19.4484C119.101,-14.0925 85.3617,-9.49171 56,-15 50.0681,-16.1128 43.8576,-18.1735 38.2976,-20.3781"/>
<text text-anchor="middle" x="79" y="-18" font-family="Helvetica,sans-Serif" font-size="10.00">math.scad</text>
</g>
<!-- Node0&#45;&gt;Node2 -->
<g id="edge3" class="edge"><title>Node0&#45;&gt;Node2</title>
<path fill="none" stroke="darkgreen" stroke-dasharray="5,2" d="M240.069,-34.9856C268.408,-37.8573 301.668,-41.2277 327.24,-43.819"/>
<text text-anchor="middle" x="281" y="-44" font-family="Helvetica,sans-Serif" font-size="10.00">math.scad</text>
</g>
<!-- Node3 -->
<g id="node4" class="node"><title>Node3</title>
<g id="a_node4"><a xlink:href="group__math__triangle.html" target="_top" xlink:title="Triangle computations. ">
<polygon fill="white" stroke="black" points="322,-0.5 322,-19.5 417,-19.5 417,-0.5 322,-0.5"/>
<text text-anchor="middle" x="369.5" y="-7.5" font-family="Helvetica,sans-Serif" font-size="10.00">Triangle Solutions</text>
</a>
</g>
</g>
<!-- Node0&#45;&gt;Node3 -->
<g id="edge4" class="edge"><title>Node0&#45;&gt;Node3</title>
<path fill="none" stroke="darkgreen" stroke-dasharray="5,2" d="M240.069,-23.0144C266.475,-20.3385 297.155,-17.2296 321.906,-14.7215"/>
<text text-anchor="middle" x="281" y="-23" font-family="Helvetica,sans-Serif" font-size="10.00">math.scad</text>
</g>
</g>
</svg>
