<?xml version="1.0" encoding="UTF-8" standalone="no"?>
<!DOCTYPE svg PUBLIC "-//W3C//DTD SVG 1.1//EN"
 "http://www.w3.org/Graphics/SVG/1.1/DTD/svg11.dtd">
<!-- Generated by graphviz version 2.38.0 (20140413.2041)
 -->
<!-- Title: Data Pages: 1 -->
<svg width="199pt" height="144pt"
 viewBox="0.00 0.00 199.00 143.54" xmlns="http://www.w3.org/2000/svg" xmlns:xlink="http://www.w3.org/1999/xlink">
<g id="graph0" class="graph" transform="scale(1 1) rotate(0) translate(4 139.545)">
<title>Data</title>
<polygon fill="white" stroke="none" points="-4,4 -4,-139.545 195,-139.545 195,4 -4,4"/>
<!-- Node1 -->
<g id="node1" class="node"><title>Node1</title>
<g id="a_node1"><a xlink:href="group__data__console.html" target="_top" xlink:title="Console message logging. ">
<polygon fill="white" stroke="black" points="135,-116.045 135,-135.045 188,-135.045 188,-116.045 135,-116.045"/>
<text text-anchor="middle" x="161.5" y="-123.045" font-family="Helvetica,sans-Serif" font-size="10.00">Console</text>
</a>
</g>
</g>
<!-- Node2 -->
<g id="node2" class="node"><title>Node2</title>
<g id="a_node2"><a xlink:href="group__data__map.html" target="_top" xlink:title="Mapped data access via key&#45;value pairs. ">
<polygon fill="white" stroke="black" points="144,-51.0447 144,-70.0447 179,-70.0447 179,-51.0447 144,-51.0447"/>
<text text-anchor="middle" x="161.5" y="-58.0447" font-family="Helvetica,sans-Serif" font-size="10.00">Map</text>
</a>
</g>
</g>
<!-- Node0 -->
<g id="node3" class="node"><title>Node0</title>
<polygon fill="#bfbfbf" stroke="black" points="0,-57.0447 0,-76.0447 38,-76.0447 38,-57.0447 0,-57.0447"/>
<text text-anchor="middle" x="19" y="-64.0447" font-family="Helvetica,sans-Serif" font-size="10.00">Data</text>
</g>
<!-- Node0&#45;&gt;Node1 -->
<g id="edge1" class="edge"><title>Node0&#45;&gt;Node1</title>
<path fill="none" stroke="black" d="M26.1662,-85.4896C31.6692,-99.0067 41.1841,-116.21 56,-124.545 80.0354,-138.066 112.369,-135.883 134.673,-131.878"/>
<polygon fill="black" stroke="black" points="29.4452,-84.2652 22.7187,-76.0795 22.8724,-86.6733 29.4452,-84.2652"/>
</g>
<!-- Node0&#45;&gt;Node1 -->
<g id="edge4" class="edge"><title>Node0&#45;&gt;Node1</title>
<path fill="none" stroke="darkgreen" stroke-dasharray="5,2" d="M38.0803,-74.1372C63.5758,-84.8435 110.074,-104.369 137.843,-116.031"/>
<text text-anchor="middle" x="85" y="-107.545" font-family="Helvetica,sans-Serif" font-size="10.00">console.scad</text>
</g>
<!-- Node0&#45;&gt;Node2 -->
<g id="edge2" class="edge"><title>Node0&#45;&gt;Node2</title>
<path fill="none" stroke="black" d="M48.2328,-66.9537C66.912,-67.0497 91.9369,-66.8452 114,-65.5447 123.889,-64.9619 134.913,-63.799 143.744,-62.7413"/>
<polygon fill="black" stroke="black" points="48.0673,-63.4523 38.0384,-66.8685 48.0087,-70.4521 48.0673,-63.4523"/>
</g>
<!-- Node0&#45;&gt;Node2 -->
<g id="edge5" class="edge"><title>Node0&#45;&gt;Node2</title>
<path fill="none" stroke="darkgreen" stroke-dasharray="5,2" d="M38.2976,-57.9229C43.8576,-55.7183 50.0681,-53.6576 56,-52.5447 86.5807,-46.8078 122.934,-52.3045 143.703,-56.5871"/>
<text text-anchor="middle" x="85" y="-55.5447" font-family="Helvetica,sans-Serif" font-size="10.00">map.scad</text>
</g>
<!-- Node3 -->
<g id="node4" class="node"><title>Node3</title>
<g id="a_node4"><a xlink:href="group__data__table.html" target="_top" xlink:title="Data table encoding and lookup. ">
<polygon fill="white" stroke="black" points="132,-3.04473 132,-22.0447 191,-22.0447 191,-3.04473 132,-3.04473"/>
<text text-anchor="middle" x="161.5" y="-10.0447" font-family="Helvetica,sans-Serif" font-size="10.00">Datatable</text>
</a>
</g>
</g>
<!-- Node0&#45;&gt;Node3 -->
<g id="edge3" class="edge"><title>Node0&#45;&gt;Node3</title>
<path fill="none" stroke="black" d="M43.3095,-51.9467C47.4544,-49.6419 51.7928,-47.4083 56,-45.5447 80.8753,-34.5262 110.567,-25.5205 131.933,-19.7171"/>
<polygon fill="black" stroke="black" points="41.5424,-48.9255 34.6709,-56.9898 45.0716,-54.9707 41.5424,-48.9255"/>
</g>
<!-- Node0&#45;&gt;Node3 -->
<g id="edge6" class="edge"><title>Node0&#45;&gt;Node3</title>
<path fill="none" stroke="darkgreen" stroke-dasharray="5,2" d="M22.9081,-56.6953C27.477,-43.2301 37.7543,-19.6012 56,-9.54473 79.0482,3.15872 109.512,0.509098 131.597,-4.17692"/>
<text text-anchor="middle" x="85" y="-12.5447" font-family="Helvetica,sans-Serif" font-size="10.00">table.scad</text>
</g>
</g>
</svg>
