<?xml version="1.0" encoding="UTF-8" standalone="no"?>
<!DOCTYPE svg PUBLIC "-//W3C//DTD SVG 1.1//EN"
 "http://www.w3.org/Graphics/SVG/1.1/DTD/svg11.dtd">
<!-- Generated by graphviz version 2.38.0 (20140413.2041)
 -->
<!-- Title: Map Pages: 1 -->
<svg width="160pt" height="29pt"
 viewBox="0.00 0.00 160.00 29.00" xmlns="http://www.w3.org/2000/svg" xmlns:xlink="http://www.w3.org/1999/xlink">
<g id="graph0" class="graph" transform="scale(1 1) rotate(0) translate(4 25)">
<title>Map</title>
<polygon fill="white" stroke="none" points="-4,4 -4,-25 156,-25 156,4 -4,4"/>
<!-- Node0 -->
<g id="node1" class="node"><title>Node0</title>
<polygon fill="#bfbfbf" stroke="black" points="0,-0.5 0,-19.5 35,-19.5 35,-0.5 0,-0.5"/>
<text text-anchor="middle" x="17.5" y="-7.5" font-family="Helvetica,sans-Serif" font-size="10.00">Map</text>
</g>
<!-- Node1 -->
<g id="node2" class="node"><title>Node1</title>
<g id="a_node2"><a xlink:href="group__data.html" target="_top" xlink:title="Data values and reference. ">
<polygon fill="white" stroke="black" points="114,-0.5 114,-19.5 152,-19.5 152,-0.5 114,-0.5"/>
<text text-anchor="middle" x="133" y="-7.5" font-family="Helvetica,sans-Serif" font-size="10.00">Data</text>
</a>
</g>
</g>
<!-- Node0&#45;&gt;Node1 -->
<g id="edge2" class="edge"><title>Node0&#45;&gt;Node1</title>
<path fill="none" stroke="darkgreen" stroke-dasharray="5,2" d="M35.2473,-10C56.213,-10 91.9996,-10 113.678,-10"/>
<text text-anchor="middle" x="74.5" y="-13" font-family="Helvetica,sans-Serif" font-size="10.00">map.scad</text>
</g>
<!-- Node1&#45;&gt;Node0 -->
<g id="edge1" class="edge"><title>Node1&#45;&gt;Node0</title>
<path fill="none" stroke="black" d="M103.476,-8.26953C100.948,-8.16035 98.4286,-8.06741 96,-8 76.8962,-7.46975 72.1031,-7.44675 53,-8 47.2428,-8.16674 40.9519,-8.48967 35.3372,-8.82821"/>
<polygon fill="black" stroke="black" points="103.53,-11.7767 113.694,-8.78597 103.884,-4.78559 103.53,-11.7767"/>
</g>
</g>
</svg>
