<?xml version="1.0" encoding="UTF-8" standalone="no"?>
<!DOCTYPE svg PUBLIC "-//W3C//DTD SVG 1.1//EN"
 "http://www.w3.org/Graphics/SVG/1.1/DTD/svg11.dtd">
<!-- Generated by graphviz version 2.38.0 (20140413.2041)
 -->
<!-- Title: Math Pages: 1 -->
<svg width="284pt" height="352pt"
 viewBox="0.00 0.00 284.00 351.78" xmlns="http://www.w3.org/2000/svg" xmlns:xlink="http://www.w3.org/1999/xlink">
<g id="graph0" class="graph" transform="scale(1 1) rotate(0) translate(4 347.777)">
<title>Math</title>
<polygon fill="white" stroke="none" points="-4,4 -4,-347.777 280,-347.777 280,4 -4,4"/>
<!-- Node0 -->
<g id="node1" class="node"><title>Node0</title>
<polygon fill="#bfbfbf" stroke="black" points="0,-167.474 0,-186.474 38,-186.474 38,-167.474 0,-167.474"/>
<text text-anchor="middle" x="19" y="-174.474" font-family="Helvetica,sans-Serif" font-size="10.00">Math</text>
</g>
<!-- Node2 -->
<g id="node2" class="node"><title>Node2</title>
<g id="a_node2"><a xlink:href="group__prim__vector.html" target="_top" xlink:title="Vector operation primitives. ">
<polygon fill="white" stroke="black" points="168.5,-315.474 168.5,-334.474 263.5,-334.474 263.5,-315.474 168.5,-315.474"/>
<text text-anchor="middle" x="216" y="-322.474" font-family="Helvetica,sans-Serif" font-size="10.00">Vector Operations</text>
</a>
</g>
</g>
<!-- Node0&#45;&gt;Node2 -->
<g id="edge2" class="edge"><title>Node0&#45;&gt;Node2</title>
<path fill="none" stroke="black" d="M21.9011,-196.898C25.8309,-233.314 36.1842,-308.324 56,-323.974 92.9364,-353.144 151.201,-343.902 186,-334.475"/>
<polygon fill="black" stroke="black" points="25.343,-196.148 20.8471,-186.555 18.379,-196.858 25.343,-196.148"/>
</g>
<!-- Node0&#45;&gt;Node2 -->
<g id="edge8" class="edge"><title>Node0&#45;&gt;Node2</title>
<path fill="none" stroke="darkgreen" stroke-dasharray="5,2" d="M20.1717,-186.552C21.0975,-207.921 26.4462,-259.741 56,-286.974 64.3486,-294.667 124.371,-307.587 168.213,-316.196"/>
<text text-anchor="middle" x="97" y="-311.974" font-family="Helvetica,sans-Serif" font-size="10.00">primitives.scad</text>
</g>
<!-- Node4 -->
<g id="node3" class="node"><title>Node4</title>
<g id="a_node3"><a xlink:href="group__math__ngon.html" target="_top" xlink:title="Regular n&#45;sided polygon computations. ">
<polygon fill="white" stroke="black" points="174,-256.474 174,-275.474 258,-275.474 258,-256.474 174,-256.474"/>
<text text-anchor="middle" x="216" y="-263.474" font-family="Helvetica,sans-Serif" font-size="10.00">n&#45;gon Solutions</text>
</a>
</g>
</g>
<!-- Node0&#45;&gt;Node4 -->
<g id="edge4" class="edge"><title>Node0&#45;&gt;Node4</title>
<path fill="none" stroke="black" d="M21.8422,-196.534C24.9727,-217.459 33.395,-249.694 56,-264.974 93.5074,-290.326 148.212,-283.606 182.687,-275.502"/>
<polygon fill="black" stroke="black" points="25.3046,-196.012 20.6155,-186.512 18.3564,-196.863 25.3046,-196.012"/>
</g>
<!-- Node0&#45;&gt;Node4 -->
<g id="edge10" class="edge"><title>Node0&#45;&gt;Node4</title>
<path fill="none" stroke="darkgreen" stroke-dasharray="5,2" d="M24.6817,-186.639C30.4977,-197.61 41.4569,-215.24 56,-224.974 75.13,-237.778 133.403,-250.744 173.818,-258.572"/>
<text text-anchor="middle" x="97" y="-252.974" font-family="Helvetica,sans-Serif" font-size="10.00">math.scad</text>
</g>
<!-- Node6 -->
<g id="node4" class="node"><title>Node6</title>
<g id="a_node4"><a xlink:href="group__math__bitwise.html" target="_top" xlink:title="Bitwise binary (base&#45;two) operations. ">
<polygon fill="white" stroke="black" points="166.5,-197.474 166.5,-216.474 265.5,-216.474 265.5,-197.474 166.5,-197.474"/>
<text text-anchor="middle" x="216" y="-204.474" font-family="Helvetica,sans-Serif" font-size="10.00">Bitwise Operations</text>
</a>
</g>
</g>
<!-- Node0&#45;&gt;Node6 -->
<g id="edge6" class="edge"><title>Node0&#45;&gt;Node6</title>
<path fill="none" stroke="black" d="M35.9692,-193.653C41.7577,-198.59 48.6854,-203.368 56,-205.974 91.3656,-218.572 134.029,-218.066 166.256,-214.825"/>
<polygon fill="black" stroke="black" points="38.0783,-190.833 28.3912,-186.542 33.2883,-195.937 38.0783,-190.833"/>
</g>
<!-- Node0&#45;&gt;Node6 -->
<g id="edge12" class="edge"><title>Node0&#45;&gt;Node6</title>
<path fill="none" stroke="darkgreen" stroke-dasharray="5,2" d="M38.0291,-179.162C61.2065,-182.034 102.676,-187.371 138,-192.974 147.125,-194.421 156.836,-196.087 166.176,-197.754"/>
<text text-anchor="middle" x="97" y="-195.974" font-family="Helvetica,sans-Serif" font-size="10.00">math_bitwise.scad</text>
</g>
<!-- Node3 -->
<g id="node5" class="node"><title>Node3</title>
<g id="a_node5"><a xlink:href="group__math__vector.html" target="_top" xlink:title="Point, vector, and plane computations. ">
<polygon fill="white" stroke="black" points="156,-138.474 156,-157.474 276,-157.474 276,-138.474 156,-138.474"/>
<text text-anchor="middle" x="216" y="-145.474" font-family="Helvetica,sans-Serif" font-size="10.00">Point, Vector and Plane</text>
</a>
</g>
</g>
<!-- Node0&#45;&gt;Node3 -->
<g id="edge3" class="edge"><title>Node0&#45;&gt;Node3</title>
<path fill="none" stroke="black" d="M48.2719,-172.769C76.3197,-168.598 120.154,-162.079 155.839,-156.772"/>
<polygon fill="black" stroke="black" points="47.7215,-169.312 38.3451,-174.245 48.7512,-176.236 47.7215,-169.312"/>
</g>
<!-- Node0&#45;&gt;Node3 -->
<g id="edge9" class="edge"><title>Node0&#45;&gt;Node3</title>
<path fill="none" stroke="darkgreen" stroke-dasharray="5,2" d="M27.0501,-167.373C33.5499,-159.404 43.9893,-148.646 56,-143.974 93.9584,-129.209 140.96,-132.786 173.982,-138.47"/>
<text text-anchor="middle" x="97" y="-146.974" font-family="Helvetica,sans-Serif" font-size="10.00">math.scad</text>
</g>
<!-- Node1 -->
<g id="node6" class="node"><title>Node1</title>
<g id="a_node6"><a xlink:href="group__prim__test.html" target="_top" xlink:title="Variable property test primitives. ">
<polygon fill="white" stroke="black" points="176,-73.4737 176,-92.4737 256,-92.4737 256,-73.4737 176,-73.4737"/>
<text text-anchor="middle" x="216" y="-80.4737" font-family="Helvetica,sans-Serif" font-size="10.00">Variable Tests</text>
</a>
</g>
</g>
<!-- Node0&#45;&gt;Node1 -->
<g id="edge1" class="edge"><title>Node0&#45;&gt;Node1</title>
<path fill="none" stroke="black" d="M29.873,-158.494C36.1259,-148.422 45.0881,-136.511 56,-128.974 92.0578,-104.069 141.579,-92.512 175.728,-87.2382"/>
<polygon fill="black" stroke="black" points="26.7087,-156.974 24.7328,-167.383 32.7686,-160.478 26.7087,-156.974"/>
</g>
<!-- Node0&#45;&gt;Node1 -->
<g id="edge7" class="edge"><title>Node0&#45;&gt;Node1</title>
<path fill="none" stroke="darkgreen" stroke-dasharray="5,2" d="M20.2101,-167.42C21.2341,-147.202 26.8017,-100.282 56,-79.9737 94.9853,-52.8588 153.359,-63.5338 187.47,-73.4586"/>
<text text-anchor="middle" x="97" y="-82.9737" font-family="Helvetica,sans-Serif" font-size="10.00">primitives.scad</text>
</g>
<!-- Node5 -->
<g id="node7" class="node"><title>Node5</title>
<g id="a_node7"><a xlink:href="group__math__triangle.html" target="_top" xlink:title="Triangle computations. ">
<polygon fill="white" stroke="black" points="168.5,-25.4737 168.5,-44.4737 263.5,-44.4737 263.5,-25.4737 168.5,-25.4737"/>
<text text-anchor="middle" x="216" y="-32.4737" font-family="Helvetica,sans-Serif" font-size="10.00">Triangle Solutions</text>
</a>
</g>
</g>
<!-- Node0&#45;&gt;Node5 -->
<g id="edge5" class="edge"><title>Node0&#45;&gt;Node5</title>
<path fill="none" stroke="black" d="M19.8835,-157.372C20.8712,-130.571 26.9335,-82.9746 56,-57.9737 86.5554,-31.6923 133.275,-27.7522 168.176,-29.3056"/>
<polygon fill="black" stroke="black" points="16.3827,-157.402 19.7187,-167.458 23.3817,-157.517 16.3827,-157.402"/>
</g>
<!-- Node0&#45;&gt;Node5 -->
<g id="edge11" class="edge"><title>Node0&#45;&gt;Node5</title>
<path fill="none" stroke="darkgreen" stroke-dasharray="5,2" d="M20.6253,-167.389C22.9108,-135.699 31.97,-35.2239 56,-15.9737 97.3328,17.1377 165.196,-9.55117 197.217,-25.376"/>
<text text-anchor="middle" x="97" y="-18.9737" font-family="Helvetica,sans-Serif" font-size="10.00">math.scad</text>
</g>
</g>
</svg>
