<?xml version="1.0" encoding="UTF-8" standalone="no"?>
<!DOCTYPE svg PUBLIC "-//W3C//DTD SVG 1.1//EN"
 "http://www.w3.org/Graphics/SVG/1.1/DTD/svg11.dtd">
<!-- Generated by graphviz version 2.38.0 (20140413.2041)
 -->
<!-- Title: Resolution Pages: 1 -->
<svg width="214pt" height="36pt"
 viewBox="0.00 0.00 214.00 35.72" xmlns="http://www.w3.org/2000/svg" xmlns:xlink="http://www.w3.org/1999/xlink">
<g id="graph0" class="graph" transform="scale(1 1) rotate(0) translate(4 31.7208)">
<title>Resolution</title>
<polygon fill="white" stroke="none" points="-4,4 -4,-31.7208 210,-31.7208 210,4 -4,4"/>
<!-- Node1 -->
<g id="node1" class="node"><title>Node1</title>
<g id="a_node1"><a xlink:href="group__units.html" target="_top" xlink:title="Units and unit conversions. ">
<polygon fill="white" stroke="black" points="0,-8.2208 0,-27.2208 40,-27.2208 40,-8.2208 0,-8.2208"/>
<text text-anchor="middle" x="20" y="-15.2208" font-family="Helvetica,sans-Serif" font-size="10.00">Units</text>
</a>
</g>
</g>
<!-- Node0 -->
<g id="node2" class="node"><title>Node0</title>
<polygon fill="#bfbfbf" stroke="black" points="143,-8.2208 143,-27.2208 206,-27.2208 206,-8.2208 143,-8.2208"/>
<text text-anchor="middle" x="174.5" y="-15.2208" font-family="Helvetica,sans-Serif" font-size="10.00">Resolution</text>
</g>
<!-- Node1&#45;&gt;Node0 -->
<g id="edge1" class="edge"><title>Node1&#45;&gt;Node0</title>
<path fill="none" stroke="black" d="M50.2162,-17.7208C76.7985,-17.7208 115.895,-17.7208 142.901,-17.7208"/>
<polygon fill="black" stroke="black" points="50.0059,-14.2209 40.0059,-17.7208 50.0059,-21.2209 50.0059,-14.2209"/>
</g>
<!-- Node0&#45;&gt;Node1 -->
<g id="edge2" class="edge"><title>Node0&#45;&gt;Node1</title>
<path fill="none" stroke="darkgreen" stroke-dasharray="5,2" d="M145.581,-8.21637C138.915,-6.3518 131.768,-4.67815 125,-3.7208 95.5157,0.449534 87.2921,1.63563 58,-3.7208 52.0547,-4.80798 45.8247,-6.80202 40.2083,-8.95099"/>
<text text-anchor="middle" x="91.5" y="-6.7208" font-family="Helvetica,sans-Serif" font-size="10.00">resolution.scad</text>
</g>
</g>
</svg>
