<?xml version="1.0" encoding="UTF-8" standalone="no"?>
<!DOCTYPE svg PUBLIC "-//W3C//DTD SVG 1.1//EN"
 "http://www.w3.org/Graphics/SVG/1.1/DTD/svg11.dtd">
<!-- Generated by graphviz version 2.38.0 (20140413.2041)
 -->
<!-- Title: map.scad Pages: 1 -->
<svg width="184pt" height="140pt"
 viewBox="0.00 0.00 183.50 140.00" xmlns="http://www.w3.org/2000/svg" xmlns:xlink="http://www.w3.org/1999/xlink">
<g id="graph0" class="graph" transform="scale(1 1) rotate(0) translate(4 136)">
<title>map.scad</title>
<polygon fill="white" stroke="none" points="-4,4 -4,-136 179.5,-136 179.5,4 -4,4"/>
<!-- Node1 -->
<g id="node1" class="node"><title>Node1</title>
<polygon fill="#bfbfbf" stroke="black" points="55.5,-112.5 55.5,-131.5 114.5,-131.5 114.5,-112.5 55.5,-112.5"/>
<text text-anchor="middle" x="85" y="-119.5" font-family="Helvetica,sans-Serif" font-size="10.00">map.scad</text>
</g>
<!-- Node2 -->
<g id="node2" class="node"><title>Node2</title>
<g id="a_node2"><a xlink:href="console_8scad.html" target="_top" xlink:title="Message logging functions. ">
<polygon fill="white" stroke="black" points="0,-56.5 0,-75.5 74,-75.5 74,-56.5 0,-56.5"/>
<text text-anchor="middle" x="37" y="-63.5" font-family="Helvetica,sans-Serif" font-size="10.00">console.scad</text>
</a>
</g>
</g>
<!-- Node1&#45;&gt;Node2 -->
<g id="edge1" class="edge"><title>Node1&#45;&gt;Node2</title>
<path fill="none" stroke="midnightblue" d="M77.0738,-112.083C70.1539,-104.298 59.9346,-92.8015 51.548,-83.3665"/>
<polygon fill="midnightblue" stroke="midnightblue" points="54.0383,-80.8999 44.7787,-75.7511 48.8065,-85.5505 54.0383,-80.8999"/>
</g>
<!-- Node4 -->
<g id="node4" class="node"><title>Node4</title>
<g id="a_node4"><a xlink:href="primitives_8scad.html" target="_top" xlink:title="Mathematical primitive functions. ">
<polygon fill="white" stroke="black" points="92.5,-56.5 92.5,-75.5 175.5,-75.5 175.5,-56.5 92.5,-56.5"/>
<text text-anchor="middle" x="134" y="-63.5" font-family="Helvetica,sans-Serif" font-size="10.00">primitives.scad</text>
</a>
</g>
</g>
<!-- Node1&#45;&gt;Node4 -->
<g id="edge3" class="edge"><title>Node1&#45;&gt;Node4</title>
<path fill="none" stroke="midnightblue" d="M93.0914,-112.083C100.155,-104.298 110.588,-92.8015 119.149,-83.3665"/>
<polygon fill="midnightblue" stroke="midnightblue" points="121.931,-85.5087 126.059,-75.7511 116.747,-80.8047 121.931,-85.5087"/>
</g>
<!-- Node3 -->
<g id="node3" class="node"><title>Node3</title>
<g id="a_node3"><a xlink:href="utilities_8scad.html" target="_top" xlink:title="Miscellaneous utilities. ">
<polygon fill="white" stroke="black" points="1.5,-0.5 1.5,-19.5 72.5,-19.5 72.5,-0.5 1.5,-0.5"/>
<text text-anchor="middle" x="37" y="-7.5" font-family="Helvetica,sans-Serif" font-size="10.00">utilities.scad</text>
</a>
</g>
</g>
<!-- Node2&#45;&gt;Node3 -->
<g id="edge2" class="edge"><title>Node2&#45;&gt;Node3</title>
<path fill="none" stroke="midnightblue" d="M37,-56.083C37,-49.0059 37,-38.8611 37,-29.9865"/>
<polygon fill="midnightblue" stroke="midnightblue" points="40.5001,-29.751 37,-19.7511 33.5001,-29.7511 40.5001,-29.751"/>
</g>
<!-- Node5 -->
<g id="node5" class="node"><title>Node5</title>
<g id="a_node5"><a xlink:href="constants_8scad.html" target="_top" xlink:title="Mechanical design constants. ">
<polygon fill="white" stroke="black" points="92.5,-0.5 92.5,-19.5 175.5,-19.5 175.5,-0.5 92.5,-0.5"/>
<text text-anchor="middle" x="134" y="-7.5" font-family="Helvetica,sans-Serif" font-size="10.00">constants.scad</text>
</a>
</g>
</g>
<!-- Node4&#45;&gt;Node5 -->
<g id="edge4" class="edge"><title>Node4&#45;&gt;Node5</title>
<path fill="none" stroke="midnightblue" d="M134,-56.083C134,-49.0059 134,-38.8611 134,-29.9865"/>
<polygon fill="midnightblue" stroke="midnightblue" points="137.5,-29.751 134,-19.7511 130.5,-29.7511 137.5,-29.751"/>
</g>
</g>
</svg>
