<?xml version="1.0" encoding="UTF-8" standalone="no"?>
<!DOCTYPE svg PUBLIC "-//W3C//DTD SVG 1.1//EN"
 "http://www.w3.org/Graphics/SVG/1.1/DTD/svg11.dtd">
<!-- Generated by graphviz version 2.38.0 (20140413.2041)
 -->
<!-- Title: primitives.scad Pages: 1 -->
<svg width="460pt" height="252pt"
 viewBox="0.00 0.00 460.00 252.00" xmlns="http://www.w3.org/2000/svg" xmlns:xlink="http://www.w3.org/1999/xlink">
<g id="graph0" class="graph" transform="scale(1 1) rotate(0) translate(4 248)">
<title>primitives.scad</title>
<polygon fill="white" stroke="none" points="-4,4 -4,-248 456,-248 456,4 -4,4"/>
<!-- Node1 -->
<g id="node1" class="node"><title>Node1</title>
<polygon fill="#bfbfbf" stroke="black" points="211.5,-224.5 211.5,-243.5 294.5,-243.5 294.5,-224.5 211.5,-224.5"/>
<text text-anchor="middle" x="253" y="-231.5" font-family="Helvetica,sans-Serif" font-size="10.00">primitives.scad</text>
</g>
<!-- Node2 -->
<g id="node2" class="node"><title>Node2</title>
<g id="a_node2"><a xlink:href="math_8scad.html" target="_top" xlink:title="Mathematical functions. ">
<polygon fill="white" stroke="black" points="16,-168.5 16,-187.5 78,-187.5 78,-168.5 16,-168.5"/>
<text text-anchor="middle" x="47" y="-175.5" font-family="Helvetica,sans-Serif" font-size="10.00">math.scad</text>
</a>
</g>
</g>
<!-- Node1&#45;&gt;Node2 -->
<g id="edge1" class="edge"><title>Node1&#45;&gt;Node2</title>
<path fill="none" stroke="midnightblue" d="M210.513,-221.863C171.117,-211.536 113.419,-196.411 78.1401,-187.163"/>
<polygon fill="midnightblue" stroke="midnightblue" points="209.798,-225.293 220.359,-224.444 211.573,-218.522 209.798,-225.293"/>
</g>
<!-- Node7 -->
<g id="node7" class="node"><title>Node7</title>
<g id="a_node7"><a xlink:href="math__bitwise_8scad.html" target="_top" xlink:title="Mathematical bitwise binary (base&#45;two) functions. ">
<polygon fill="white" stroke="black" points="96,-168.5 96,-187.5 194,-187.5 194,-168.5 96,-168.5"/>
<text text-anchor="middle" x="145" y="-175.5" font-family="Helvetica,sans-Serif" font-size="10.00">math_bitwise.scad</text>
</a>
</g>
</g>
<!-- Node1&#45;&gt;Node7 -->
<g id="edge6" class="edge"><title>Node1&#45;&gt;Node7</title>
<path fill="none" stroke="midnightblue" d="M226.452,-219.726C206.454,-209.727 179.613,-196.307 162.309,-187.655"/>
<polygon fill="midnightblue" stroke="midnightblue" points="225.138,-222.982 235.648,-224.324 228.269,-216.721 225.138,-222.982"/>
</g>
<!-- Node8 -->
<g id="node8" class="node"><title>Node8</title>
<g id="a_node8"><a xlink:href="validation_8scad.html" target="_top" xlink:title="Result validation functions. ">
<polygon fill="white" stroke="black" points="212,-168.5 212,-187.5 294,-187.5 294,-168.5 212,-168.5"/>
<text text-anchor="middle" x="253" y="-175.5" font-family="Helvetica,sans-Serif" font-size="10.00">validation.scad</text>
</a>
</g>
</g>
<!-- Node1&#45;&gt;Node8 -->
<g id="edge8" class="edge"><title>Node1&#45;&gt;Node8</title>
<path fill="none" stroke="midnightblue" d="M253,-213.805C253,-204.91 253,-194.78 253,-187.751"/>
<polygon fill="midnightblue" stroke="midnightblue" points="249.5,-214.083 253,-224.083 256.5,-214.083 249.5,-214.083"/>
</g>
<!-- Node9 -->
<g id="node9" class="node"><title>Node9</title>
<g id="a_node9"><a xlink:href="map_8scad.html" target="_top" xlink:title="Mapped key&#45;value pair data access. ">
<polygon fill="white" stroke="black" points="312.5,-168.5 312.5,-187.5 371.5,-187.5 371.5,-168.5 312.5,-168.5"/>
<text text-anchor="middle" x="342" y="-175.5" font-family="Helvetica,sans-Serif" font-size="10.00">map.scad</text>
</a>
</g>
</g>
<!-- Node1&#45;&gt;Node9 -->
<g id="edge9" class="edge"><title>Node1&#45;&gt;Node9</title>
<path fill="none" stroke="midnightblue" d="M276.238,-218.901C292.558,-208.999 313.865,-196.071 327.736,-187.655"/>
<polygon fill="midnightblue" stroke="midnightblue" points="274.033,-216.144 267.299,-224.324 277.664,-222.129 274.033,-216.144"/>
</g>
<!-- Node10 -->
<g id="node10" class="node"><title>Node10</title>
<g id="a_node10"><a xlink:href="table_8scad.html" target="_top" xlink:title="Data table encoding and lookup. ">
<polygon fill="white" stroke="black" points="390,-168.5 390,-187.5 452,-187.5 452,-168.5 390,-168.5"/>
<text text-anchor="middle" x="421" y="-175.5" font-family="Helvetica,sans-Serif" font-size="10.00">table.scad</text>
</a>
</g>
</g>
<!-- Node1&#45;&gt;Node10 -->
<g id="edge10" class="edge"><title>Node1&#45;&gt;Node10</title>
<path fill="none" stroke="midnightblue" d="M289.386,-221.304C321.042,-211.129 366.168,-196.625 394.504,-187.516"/>
<polygon fill="midnightblue" stroke="midnightblue" points="288.069,-218.051 279.62,-224.444 290.211,-224.715 288.069,-218.051"/>
</g>
<!-- Node3 -->
<g id="node3" class="node"><title>Node3</title>
<g id="a_node3"><a xlink:href="transform_8scad.html" target="_top" xlink:title="Shape transformation functions. ">
<polygon fill="white" stroke="black" points="55,-112.5 55,-131.5 137,-131.5 137,-112.5 55,-112.5"/>
<text text-anchor="middle" x="96" y="-119.5" font-family="Helvetica,sans-Serif" font-size="10.00">transform.scad</text>
</a>
</g>
</g>
<!-- Node2&#45;&gt;Node3 -->
<g id="edge2" class="edge"><title>Node2&#45;&gt;Node3</title>
<path fill="none" stroke="midnightblue" d="M62.0345,-160.431C70.6222,-150.967 81.0435,-139.483 88.0592,-131.751"/>
<polygon fill="midnightblue" stroke="midnightblue" points="59.2193,-158.325 55.0914,-168.083 64.4033,-163.029 59.2193,-158.325"/>
</g>
<!-- Node4 -->
<g id="node4" class="node"><title>Node4</title>
<g id="a_node4"><a xlink:href="shapes2d_8scad.html" target="_top" xlink:title="Two&#45;dimensional basic shapes. ">
<polygon fill="white" stroke="black" points="54.5,-56.5 54.5,-75.5 137.5,-75.5 137.5,-56.5 54.5,-56.5"/>
<text text-anchor="middle" x="96" y="-63.5" font-family="Helvetica,sans-Serif" font-size="10.00">shapes2d.scad</text>
</a>
</g>
</g>
<!-- Node3&#45;&gt;Node4 -->
<g id="edge3" class="edge"><title>Node3&#45;&gt;Node4</title>
<path fill="none" stroke="midnightblue" d="M96,-101.805C96,-92.9102 96,-82.7798 96,-75.7511"/>
<polygon fill="midnightblue" stroke="midnightblue" points="92.5001,-102.083 96,-112.083 99.5001,-102.083 92.5001,-102.083"/>
</g>
<!-- Node5 -->
<g id="node5" class="node"><title>Node5</title>
<g id="a_node5"><a xlink:href="shapes2de_8scad.html" target="_top" xlink:title="Linearly extruded two&#45;dimensional basic shapes. ">
<polygon fill="white" stroke="black" points="0,-0.5 0,-19.5 88,-19.5 88,-0.5 0,-0.5"/>
<text text-anchor="middle" x="44" y="-7.5" font-family="Helvetica,sans-Serif" font-size="10.00">shapes2de.scad</text>
</a>
</g>
</g>
<!-- Node4&#45;&gt;Node5 -->
<g id="edge4" class="edge"><title>Node4&#45;&gt;Node5</title>
<path fill="none" stroke="midnightblue" d="M80.3206,-48.7175C71.1553,-39.1997 59.9474,-27.5608 52.427,-19.7511"/>
<polygon fill="midnightblue" stroke="midnightblue" points="77.9557,-51.3075 87.4133,-56.083 82.9979,-46.452 77.9557,-51.3075"/>
</g>
<!-- Node6 -->
<g id="node6" class="node"><title>Node6</title>
<g id="a_node6"><a xlink:href="shapes3d_8scad.html" target="_top" xlink:title="Three&#45;dimensional basic shapes. ">
<polygon fill="white" stroke="black" points="106.5,-0.5 106.5,-19.5 189.5,-19.5 189.5,-0.5 106.5,-0.5"/>
<text text-anchor="middle" x="148" y="-7.5" font-family="Helvetica,sans-Serif" font-size="10.00">shapes3d.scad</text>
</a>
</g>
</g>
<!-- Node4&#45;&gt;Node6 -->
<g id="edge5" class="edge"><title>Node4&#45;&gt;Node6</title>
<path fill="none" stroke="midnightblue" d="M111.679,-48.7175C120.845,-39.1997 132.053,-27.5608 139.573,-19.7511"/>
<polygon fill="midnightblue" stroke="midnightblue" points="109.002,-46.452 104.587,-56.083 114.044,-51.3075 109.002,-46.452"/>
</g>
<!-- Node7&#45;&gt;Node3 -->
<g id="edge7" class="edge"><title>Node7&#45;&gt;Node3</title>
<path fill="none" stroke="midnightblue" d="M129.966,-160.431C121.378,-150.967 110.957,-139.483 103.941,-131.751"/>
<polygon fill="midnightblue" stroke="midnightblue" points="127.597,-163.029 136.909,-168.083 132.781,-158.325 127.597,-163.029"/>
</g>
</g>
</svg>
