<?xml version="1.0" encoding="UTF-8" standalone="no"?>
<!-- Created with Inkscape (http://www.inkscape.org/) -->

<svg
   width="149.75972mm"
   height="47.950966mm"
   viewBox="0 0 149.75971 47.950965"
   version="1.1"
   id="svg1"
   xml:space="preserve"
   sodipodi:docname="bolt_hex.svg"
   inkscape:version="1.3.2 (091e20e, 2023-11-25, custom)"
   xmlns:inkscape="http://www.inkscape.org/namespaces/inkscape"
   xmlns:sodipodi="http://sodipodi.sourceforge.net/DTD/sodipodi-0.dtd"
   xmlns="http://www.w3.org/2000/svg"
   xmlns:svg="http://www.w3.org/2000/svg"><sodipodi:namedview
     id="namedview1"
     pagecolor="#ffffff"
     bordercolor="#666666"
     borderopacity="1.0"
     inkscape:showpageshadow="2"
     inkscape:pageopacity="0.0"
     inkscape:pagecheckerboard="0"
     inkscape:deskcolor="#d1d1d1"
     inkscape:document-units="mm"
     inkscape:zoom="2.4027378"
     inkscape:cx="283.01049"
     inkscape:cy="90.521739"
     inkscape:window-width="1920"
     inkscape:window-height="1129"
     inkscape:window-x="1912"
     inkscape:window-y="-8"
     inkscape:window-maximized="1"
     inkscape:current-layer="svg1" /><defs
     id="defs1" /><path
     id="path37"
     d="m 147.751,31.669038 -11.52577,6.654272 -11.52632,-6.654272 v -13.3096 l 11.52632,-6.654799 11.52577,6.654799 z M 136.22523,13.494809 c 6.36164,0 11.51889,5.157258 11.51889,11.51943 0,6.361641 -5.15725,11.519428 -11.51889,11.519428 -6.36217,0 -11.51944,-5.157787 -11.51944,-11.519428 0,-6.362172 5.15727,-11.51943 11.51944,-11.51943 z"
     style="fill:none;stroke:#000000;stroke-width:0.470428;stroke-linecap:butt;stroke-linejoin:miter;stroke-miterlimit:1.5;stroke-dasharray:none;stroke-opacity:1" /><path
     id="path38"
     d="M 136.22523,10.386481 V 39.75629"
     style="fill:none;stroke:#000000;stroke-width:0.117475;stroke-linecap:butt;stroke-linejoin:miter;stroke-miterlimit:1.5;stroke-dasharray:12.7037, 0.940858, 2.35267, 0.940858;stroke-dashoffset:0;stroke-opacity:1" /><path
     id="path39"
     d="m 122.79603,25.014237 h 26.96369"
     style="fill:none;stroke:#000000;stroke-width:0.117475;stroke-linecap:butt;stroke-linejoin:miter;stroke-miterlimit:1.5;stroke-dasharray:11.2919, 0.940858, 2.35267, 0.940858;stroke-dashoffset:0;stroke-opacity:1" /><path
     id="path40"
     d="m 136.22523,18.40124 c 3.65177,0 6.61246,2.960688 6.61246,6.612996 0,3.651778 -2.96069,6.612996 -6.61246,6.612996 -3.65231,0 -6.613,-2.961218 -6.613,-6.612996 0,-3.652308 2.96069,-6.612996 6.613,-6.612996 z"
     style="fill:none;stroke:#000000;stroke-width:0.470428;stroke-linecap:butt;stroke-linejoin:miter;stroke-miterlimit:1.5;stroke-dasharray:none;stroke-opacity:1" /><path
     id="path41"
     d="m 136.22523,17.186276 c -4.3233,0 -7.82744,3.50467 -7.82744,7.827963 0,4.322761 3.50414,7.827433 7.82744,7.827433 4.32276,0 7.82743,-3.504672 7.82743,-7.827433 0,-4.323293 -3.50467,-7.827963 -7.82743,-7.827963 z"
     style="fill:none;stroke:#000000;stroke-width:0.117475;stroke-linecap:butt;stroke-linejoin:miter;stroke-miterlimit:1.5;stroke-dasharray:none;stroke-opacity:1" /><path
     id="path42"
     d="m 42.913033,13.623393 h -6.099174 c -0.773114,0 -1.400175,0.626534 -1.400175,1.399646 v 20.297245 c 0,0.773114 0.627061,1.399647 1.400175,1.399647 h 6.099174 z"
     style="fill:none;stroke:#000000;stroke-width:0.470428;stroke-linecap:butt;stroke-linejoin:miter;stroke-miterlimit:1.5;stroke-dasharray:none;stroke-opacity:1" /><path
     id="path43"
     d="m 42.913033,30.525506 h -6.099174 m -1.400175,-2.120372 c 0,1.173693 0.580495,2.120372 1.400175,2.120372 -0.81968,0 -1.400175,0.947208 -1.400175,2.120371 m 7.499349,-12.828058 h -6.099174 m -1.400175,-2.120371 c 0,1.173161 0.580495,2.120371 1.400175,2.120371 -0.81968,0 -1.400175,0.947208 -1.400175,2.12037"
     style="fill:none;stroke:#000000;stroke-width:0.470428;stroke-linecap:butt;stroke-linejoin:miter;stroke-miterlimit:1.5;stroke-dasharray:none;stroke-opacity:1" /><path
     id="path44"
     d="m 62.887489,19.312466 0.851428,-0.695325 0.90911,0.695325 0.781578,11.69617 -0.810153,0.694796 -0.950384,-0.694796 z m 0.851428,-0.695325 0.880535,13.086291 m 0.02857,-12.390966 0.851428,-0.695325 0.908579,0.695325 0.781579,11.69617 -0.810154,0.694796 -0.949854,-0.694796 z m 0.851428,-0.695325 0.880004,13.086291 m 0.02857,-12.390966 0.85143,-0.695325 0.909108,0.695325 0.781579,11.69617 -0.810684,0.694796 -0.949854,-0.694796 z m 0.85143,-0.695325 0.880003,13.086291 m 0.0291,-12.390966 0.851429,-0.695325 0.90858,0.695325 0.781578,11.69617 -0.810153,0.694796 -0.949854,-0.694796 z m 0.851429,-0.695325 0.880005,13.086291 m 0.02857,-12.390966 0.851428,-0.695325 0.909108,0.695325 0.78158,11.69617 -0.810155,0.694796 -0.950383,-0.694796 z m 0.851428,-0.695325 0.880533,13.086291 m 0.02857,-12.390966 0.85143,-0.695325 0.908579,0.695325 0.781579,11.69617 -0.810154,0.694796 -0.949854,-0.694796 z m 0.85143,-0.695325 0.880004,13.086291 m 0.02858,-12.390966 0.85143,-0.695325 0.909108,0.695325 0.781578,11.69617 -0.810153,0.694796 -0.950384,-0.694796 z m 0.85143,-0.695325 0.880533,13.086291 m 0.02857,-12.390966 0.851428,-0.695325 0.908579,0.695325 0.781579,11.69617 -0.810154,0.694796 -0.949854,-0.694796 z m 0.851428,-0.695325 0.880004,13.086291 m 0.02858,-12.390966 0.85143,-0.695325 0.909108,0.695325 0.781579,11.69617 -0.810154,0.694796 -0.950384,-0.694796 z m 0.85143,-0.695325 0.880533,13.086291 m 0.02857,-12.390966 0.851428,-0.695325 0.90858,0.695325 0.78158,11.69617 -0.810155,0.694796 -0.949854,-0.694796 z m 0.851428,-0.695325 0.880005,13.086291 m 0.02857,-12.390966 0.851429,-0.695325 0.909108,0.695325 0.781579,11.69617 -0.810154,0.694796 -0.950382,-0.694796 z m 0.851429,-0.695325 0.880533,13.086291 m 0.02857,-12.390966 0.85143,-0.695325 0.908578,0.695325 0.78158,11.69617 -0.810155,0.694796 -0.949854,-0.694796 z m 0.85143,-0.695325 0.880003,13.086291 m 0.02858,-12.390966 0.851958,-0.695325 0.90858,0.695325 0.78158,11.69617 -0.810155,0.694796 -0.950383,-0.694796 z"
     style="fill:none;stroke:#000000;stroke-width:0.352955;stroke-linecap:butt;stroke-linejoin:miter;stroke-miterlimit:1.5;stroke-dasharray:none;stroke-opacity:1" /><path
     id="path45"
     d="m 84.862718,18.617141 0.880004,13.086291 m 0.02858,-12.390966 0.85143,-0.695325 0.908578,0.695325 0.78158,11.69617 -0.810155,0.694796 -0.949854,-0.694796 z m 0.85143,-0.695325 0.880003,13.086291 m 0.02858,-12.390966 0.85143,-0.695325 0.909108,0.695325 0.78158,11.69617 -0.810155,0.694796 -0.950383,-0.694796 z m 0.85143,-0.695325 0.880533,13.086291 m 0.880004,-13.086291 0.880005,13.086291 m 0.264054,-12.656079 1.039812,0.864129 v 10.626726 l -1.303866,1.165224 -0.949854,-0.694796 -0.78158,-11.69617 0.851429,-0.695325 0.90858,0.695325 z m -29.836532,0.265113 -1.232428,-0.695325 0.08097,13.086291"
     style="fill:none;stroke:#000000;stroke-width:0.352955;stroke-linecap:butt;stroke-linejoin:miter;stroke-miterlimit:1.5;stroke-dasharray:none;stroke-opacity:1" /><path
     id="path46"
     d="m 43.618942,18.088503 h 0.0291 c 0.2286,0.345546 0.594783,0.528638 1.484841,0.528638 5.780616,0 13.822891,0 15.085482,0 l 1.23243,0.695325 0.02487,11.6713 -1.176338,0.719667 c -1.095375,0 -10.159999,-0.0079 -15.166444,-0.0079 -0.868362,0 -1.255184,0.212196 -1.484841,0.559329 h -0.0291"
     style="fill:none;stroke:#000000;stroke-width:0.470428;stroke-linecap:butt;stroke-linejoin:miter;stroke-miterlimit:1.5;stroke-dasharray:none;stroke-opacity:1" /><path
     id="path47"
     d="M 94.05593,25.171928 H 31.278777"
     style="fill:none;stroke:#000000;stroke-width:0.117475;stroke-linecap:butt;stroke-linejoin:miter;stroke-miterlimit:1.5;stroke-dasharray:23.5251, 0.940858, 2.35267, 0.940858;stroke-dashoffset:0;stroke-opacity:1" /><path
     id="path48"
     d="m 42.913033,35.308644 0.705909,-0.113775 V 15.156391 l -0.705909,-0.12171"
     style="fill:none;stroke:#000000;stroke-width:0.352955;stroke-linecap:butt;stroke-linejoin:miter;stroke-miterlimit:1.5;stroke-dasharray:none;stroke-opacity:1" /><path
     id="path49"
     d="m 91.287331,19.047353 0.09895,4.403725 -0.334433,-4.138612"
     style="fill:none;stroke:#000000;stroke-width:0.235479;stroke-linecap:butt;stroke-linejoin:miter;stroke-miterlimit:50;stroke-dasharray:none;stroke-opacity:1" /><path
     id="path51"
     d="m 45.740902,6.0827684 h 3.405187 M 29.871195,6.0674219 h 3.304117"
     style="fill:none;stroke:#000000;stroke-width:0.235479;stroke-linecap:butt;stroke-linejoin:miter;stroke-miterlimit:10;stroke-dasharray:none;stroke-opacity:1" /><path
     id="path52"
     d="M 35.296208,4.8053626 V 13.611754 M 43.736945,4.1941751 V 14.333008"
     style="fill:none;stroke:#000000;stroke-width:0.117475;stroke-linecap:butt;stroke-linejoin:miter;stroke-miterlimit:10;stroke-dasharray:none;stroke-opacity:1" /><path
     id="path53"
     d="M 35.296208,6.0758905 32.876859,6.9056239 V 5.2546238 l 2.387071,0.8128001 0.03228,0.00846"
     style="fill:#000000;fill-opacity:1;fill-rule:nonzero;stroke:none;stroke-width:0.529167" /><path
     id="path54"
     d="M 43.736945,6.0827684 46.156295,5.253035 V 6.9035059 L 43.769224,6.090706 43.736944,6.082766"
     style="fill:#000000;fill-opacity:1;fill-rule:nonzero;stroke:none;stroke-width:0.529167" /><path
     id="path55"
     d="M 92.445149,43.246143 V 31.008635"
     style="fill:none;stroke:#000000;stroke-width:0.117475;stroke-linecap:butt;stroke-linejoin:miter;stroke-miterlimit:10;stroke-dasharray:none;stroke-opacity:1" /><path
     id="path57"
     d="m 45.858905,42.418001 h 19.872324 m 4.851399,0.01535 h 19.74162"
     style="fill:none;stroke:#000000;stroke-width:0.235479;stroke-linecap:butt;stroke-linejoin:miter;stroke-miterlimit:10;stroke-dasharray:none;stroke-opacity:1" /><path
     id="path58"
     d="M 43.854421,47.755176 V 36.01826"
     style="fill:none;stroke:#000000;stroke-width:0.117475;stroke-linecap:butt;stroke-linejoin:miter;stroke-miterlimit:10;stroke-dasharray:none;stroke-opacity:1" /><path
     id="path59"
     d="m 92.445149,42.425406 -2.41935,-0.830262 v 1.650999 l 2.387072,-0.812799 0.03228,-0.008"
     style="fill:#000000;fill-opacity:1;fill-rule:nonzero;stroke:none;stroke-width:0.529167" /><path
     id="path60"
     d="m 43.854421,42.418001 2.41935,0.829734 v -1.650471 l -2.387072,0.812799 -0.03228,0.0079"
     style="fill:#000000;fill-opacity:1;fill-rule:nonzero;stroke:none;stroke-width:0.529167" /><path
     id="path62"
     d="m 116.03645,13.605403 v 8.232802"
     style="fill:none;stroke:#000000;stroke-width:0.227346;stroke-linecap:butt;stroke-linejoin:miter;stroke-miterlimit:10;stroke-dasharray:none;stroke-opacity:1" /><path
     id="path63"
     d="m 114.7855,11.469156 h 20.61634"
     style="fill:none;stroke:#000000;stroke-width:0.117475;stroke-linecap:butt;stroke-linejoin:miter;stroke-miterlimit:10;stroke-dasharray:none;stroke-opacity:1" /><path
     id="path64"
     d="m 116.06291,11.469156 0.82974,2.41935 h -1.651 l 0.8128,-2.387071 0.008,-0.03228"
     style="fill:#000000;fill-opacity:1;fill-rule:nonzero;stroke:none;stroke-width:0.529167" /><path
     id="path65"
     d="m 126.46792,3.8544502 h 7.43955"
     style="fill:none;stroke:#000000;stroke-width:0.235479;stroke-linecap:butt;stroke-linejoin:miter;stroke-miterlimit:10;stroke-dasharray:none;stroke-opacity:1" /><path
     id="path66"
     d="M 124.46344,2.6394808 V 17.927635"
     style="fill:none;stroke:#000000;stroke-width:0.117475;stroke-linecap:butt;stroke-linejoin:miter;stroke-miterlimit:10;stroke-dasharray:none;stroke-opacity:1" /><path
     id="path68"
     d="m 124.46344,3.8809058 2.41935,0.8297334 V 3.0601684 l -2.38708,0.8122708 -0.0323,0.00846"
     style="fill:#000000;fill-opacity:1;fill-rule:nonzero;stroke:none;stroke-width:0.529167" /><path
     id="path69"
     d="M 116.03645,36.422541 V 28.4001"
     style="fill:none;stroke:#000000;stroke-width:0.22443;stroke-linecap:butt;stroke-linejoin:miter;stroke-miterlimit:10;stroke-dasharray:none;stroke-opacity:1" /><path
     id="path70"
     d="m 114.7855,38.558789 h 20.61634"
     style="fill:none;stroke:#000000;stroke-width:0.117475;stroke-linecap:butt;stroke-linejoin:miter;stroke-miterlimit:10;stroke-dasharray:none;stroke-opacity:1" /><path
     id="path71"
     d="m 116.06291,38.558789 0.82974,-2.41935 h -1.651 l 0.8128,2.387071 0.008,0.03228"
     style="fill:#000000;fill-opacity:1;fill-rule:nonzero;stroke:none;stroke-width:0.529167" /><path
     id="path72"
     d="m 145.982,3.8544502 h -7.43902"
     style="fill:none;stroke:#000000;stroke-width:0.235479;stroke-linecap:butt;stroke-linejoin:miter;stroke-miterlimit:10;stroke-dasharray:none;stroke-opacity:1" /><path
     id="path73"
     d="M 147.98648,2.6394808 V 17.927635"
     style="fill:none;stroke:#000000;stroke-width:0.117475;stroke-linecap:butt;stroke-linejoin:miter;stroke-miterlimit:10;stroke-dasharray:none;stroke-opacity:1" /><path
     id="path74"
     d="m 147.98648,3.8809058 -2.41935,0.8297334 V 3.0601684 l 2.38707,0.8122708 0.0323,0.00846"
     style="fill:#000000;fill-opacity:1;fill-rule:nonzero;stroke:none;stroke-width:0.529167" /><path
     id="path75"
     d="m 61.450801,19.312466 0.5461,-0.650346 0.909108,0.694795 0.78158,11.6967 -0.810155,0.694797 -1.401762,-0.764646 z m 0.5461,-0.650346 0.880533,13.086292"
     style="fill:none;stroke:#000000;stroke-width:0.352955;stroke-linecap:butt;stroke-linejoin:miter;stroke-miterlimit:1.5;stroke-dasharray:none;stroke-opacity:1" /><path
     id="path76"
     d="M 36.705908,47.441379 V 30.777921"
     style="fill:none;stroke:#000000;stroke-width:0.117475;stroke-linecap:butt;stroke-linejoin:miter;stroke-miterlimit:10;stroke-dasharray:none;stroke-opacity:1" /><path
     id="path77"
     d="m 31.343865,45.716294 h 3.304116"
     style="fill:none;stroke:#000000;stroke-width:0.235479;stroke-linecap:butt;stroke-linejoin:miter;stroke-miterlimit:10;stroke-dasharray:none;stroke-opacity:1" /><path
     id="path78"
     d="m 36.76888,45.724763 -2.41935,0.829734 v -1.651001 l 2.387071,0.812801 0.03228,0.0084"
     style="fill:#000000;fill-opacity:1;fill-rule:nonzero;stroke:none;stroke-width:0.529167" /><path
     id="path79"
     d="M 45.963152,45.716294 H 49.36834"
     style="fill:none;stroke:#000000;stroke-width:0.235479;stroke-linecap:butt;stroke-linejoin:miter;stroke-miterlimit:10;stroke-dasharray:none;stroke-opacity:1" /><path
     id="path80"
     d="m 43.959196,45.716294 2.41935,-0.829734 v 1.650471 l -2.387072,-0.812271 -0.03228,-0.0084"
     style="fill:#000000;fill-opacity:1;fill-rule:nonzero;stroke:none;stroke-width:0.529167" /><path
     id="path82"
     d="m 47.324695,37.185069 v 3.405188 M 47.304058,9.7303153 v 3.3041167"
     style="fill:none;stroke:#000000;stroke-width:0.235479;stroke-linecap:butt;stroke-linejoin:miter;stroke-miterlimit:10;stroke-dasharray:none;stroke-opacity:1" /><path
     id="path83"
     d="M 48.691004,15.155332 H 43.612592 M 49.536613,35.24091 H 43.773458"
     style="fill:none;stroke:#000000;stroke-width:0.117475;stroke-linecap:butt;stroke-linejoin:miter;stroke-miterlimit:10;stroke-dasharray:none;stroke-opacity:1" /><path
     id="path84"
     d="m 47.29612,15.155332 -0.830262,-2.41935 h 1.650999 l -0.812799,2.387071 -0.0079,0.03228"
     style="fill:#000000;fill-opacity:1;fill-rule:nonzero;stroke:none;stroke-width:0.529167" /><path
     id="path85"
     d="m 47.324695,35.180588 0.829734,2.41935 h -1.650471 l 0.812799,-2.387072 0.008,-0.03228"
     style="fill:#000000;fill-opacity:1;fill-rule:nonzero;stroke:none;stroke-width:0.529167" /><path
     id="path87"
     d="m 53.448214,34.659356 v 3.405187 m 0.009,-25.789995 v 3.304117"
     style="fill:none;stroke:#000000;stroke-width:0.235479;stroke-linecap:butt;stroke-linejoin:miter;stroke-miterlimit:10;stroke-dasharray:none;stroke-opacity:1" /><path
     id="path88"
     d="M 55.071694,17.758303 H 43.887227 M 55.535773,32.53634 H 43.666036"
     style="fill:none;stroke:#000000;stroke-width:0.117475;stroke-linecap:butt;stroke-linejoin:miter;stroke-miterlimit:10;stroke-dasharray:none;stroke-opacity:1" /><path
     id="path89"
     d="m 53.448742,17.699566 -0.829734,-2.41935 h 1.650471 l -0.812271,2.387071 -0.0084,0.03228"
     style="fill:#000000;fill-opacity:1;fill-rule:nonzero;stroke:none;stroke-width:0.529167" /><path
     id="path90"
     d="m 53.448214,32.654876 0.829734,2.41935 h -1.650471 l 0.812271,-2.387072 0.0084,-0.03228"
     style="fill:#000000;fill-opacity:1;fill-rule:nonzero;stroke:none;stroke-width:0.529167" /><path
     id="path92-7"
     d="M 61.416932,2.880253 V 18.879078"
     style="fill:none;stroke:#000000;stroke-width:0.117475;stroke-linecap:butt;stroke-linejoin:miter;stroke-miterlimit:10;stroke-dasharray:none;stroke-opacity:1" /><path
     id="path93-2"
     d="M 79.883791,6.2621558 H 90.649685"
     style="fill:none;stroke:#000000;stroke-width:0.235479;stroke-linecap:butt;stroke-linejoin:miter;stroke-miterlimit:10;stroke-dasharray:none;stroke-opacity:1" /><path
     id="path94-3"
     d="m 92.770586,6.2700934 -2.41935,0.8302624 V 5.4493559 l 2.387072,0.8127999 0.03228,0.00794"
     style="fill:#000000;fill-opacity:1;fill-rule:nonzero;stroke:none;stroke-width:0.529167" /><path
     id="path95-3"
     d="M 63.06952,6.2912627 H 73.767152"
     style="fill:none;stroke:#000000;stroke-width:0.235479;stroke-linecap:butt;stroke-linejoin:miter;stroke-miterlimit:10;stroke-dasharray:none;stroke-opacity:1" /><path
     id="path96-1"
     d="m 61.403704,6.2912627 2.41935,-0.8297334 v 1.6510001 l -2.387072,-0.8128001 -0.03228,-0.00846"
     style="fill:#000000;fill-opacity:1;fill-rule:nonzero;stroke:none;stroke-width:0.529167" /><path
     id="path98-3"
     d="M 92.594902,3.3707905 V 19.41089"
     style="fill:none;stroke:#000000;stroke-width:0.117475;stroke-linecap:butt;stroke-linejoin:miter;stroke-miterlimit:10;stroke-dasharray:none;stroke-opacity:1" /><path
     id="path99-2"
     d="M 11.080484,7.0014031 H 2.1640275 c -1.1303,0 -2.046288,0.9371541 -2.046288,2.0928541 V 39.435086 c 0,1.1557 0.915988,2.092326 2.046288,2.092326 h 8.9164565 z m 0,25.2661199 H 2.1640275 m -2.046288,-3.169179 c 0,1.753659 0.847725,3.169179 2.046288,3.169179 -1.198563,0 -2.046288,1.416051 -2.046288,3.169709 M 11.080484,16.261291 H 2.1640275 m -2.046288,-3.16918 c 0,1.75313 0.847725,3.16918 2.046288,3.16918 -1.198563,0 -2.046288,1.416049 -2.046288,3.169708 M 12.113418,13.676311 h 0.0418 c 0.334433,0.516467 0.86995,0.790575 2.170642,0.790575 8.45185,0 3.121555,0 4.967816,0 l 1.801284,1.038754 0.03651,17.446626 -1.719792,1.075795 c -1.601259,0 2.233613,-0.01215 -5.085821,-0.01215 -1.268942,0 -1.834621,0.318029 -2.170642,0.836613 h -0.0418 m -1.032934,4.5651 1.032934,-0.170392 V 9.293224 L 11.080481,9.1117198"
     style="fill:none;stroke:#000000;stroke-width:0.235479;stroke-linecap:butt;stroke-linejoin:miter;stroke-miterlimit:1.5;stroke-dasharray:none;stroke-opacity:1" /><path
     id="path100-0"
     d="m 12.146229,13.670491 4.399491,0.557212 m -4.198937,20.542779 4.198937,-0.61542"
     style="fill:none;stroke:#000000;stroke-width:0.155046;stroke-linecap:butt;stroke-linejoin:miter;stroke-miterlimit:1.5;stroke-dasharray:0.0470958, 0.0142875, 0.0470958, 0.0142875, 0.0470958, 0.0142875;stroke-dashoffset:0;stroke-opacity:1" /><path
     id="path101-1"
     d="m 18.640692,3.5464751 h 3.335337 M 6.9836805,3.5311291 h 3.2363825"
     style="fill:none;stroke:#000000;stroke-width:0.235479;stroke-linecap:butt;stroke-linejoin:miter;stroke-miterlimit:10;stroke-dasharray:none;stroke-opacity:1" /><path
     id="path102"
     d="M 12.149931,0.2809875 V 13.444538 M 16.66531,0 v 14.522979"
     style="fill:none;stroke:#000000;stroke-width:0.117475;stroke-linecap:butt;stroke-linejoin:miter;stroke-miterlimit:10;stroke-dasharray:none;stroke-opacity:1" /><path
     id="path103-6"
     d="M 11.959431,3.5395933 9.5892945,4.3703849 V 2.7172682 l 2.3383865,0.8138585 0.03175,0.00846"
     style="fill:#000000;fill-opacity:1;fill-rule:nonzero;stroke:none;stroke-width:0.529167" /><path
     id="path104-3"
     d="M 16.677481,3.5464751 19.04709,2.7151543 v 1.6536459 l -2.338388,-0.8138585 -0.03121,-0.00846"
     style="fill:#000000;fill-opacity:1;fill-rule:nonzero;stroke:none;stroke-width:0.529167" /><path
     id="path106-7"
     d="m 14.058106,45.252216 h 3.335337 m -11.9935605,0.01535 h 3.236383"
     style="fill:none;stroke:#000000;stroke-width:0.235479;stroke-linecap:butt;stroke-linejoin:miter;stroke-miterlimit:10;stroke-dasharray:none;stroke-opacity:1" /><path
     id="path107-0"
     d="m 11.057732,47.950967 v -7.627409 m 1.050395,7.509933 v -8.587845"
     style="fill:none;stroke:#000000;stroke-width:0.117475;stroke-linecap:butt;stroke-linejoin:miter;stroke-miterlimit:10;stroke-dasharray:none;stroke-opacity:1" /><path
     id="path108-8"
     d="M 10.713772,45.259094 8.3441645,44.428302 v 1.653117 l 2.3383865,-0.813859 0.03122,-0.0084"
     style="fill:#000000;fill-opacity:1;fill-rule:nonzero;stroke:none;stroke-width:0.529167" /><path
     id="path109-2"
     d="m 12.094897,45.252216 2.369608,0.831321 v -1.653646 l -2.337858,0.813859 -0.03175,0.0084"
     style="fill:#000000;fill-opacity:1;fill-rule:nonzero;stroke:none;stroke-width:0.529167" /><text
     xml:space="preserve"
     style="font-style:normal;font-variant:normal;font-weight:normal;font-stretch:normal;font-size:3.52778px;line-height:125%;font-family:Sans;-inkscape-font-specification:'Sans, Normal';font-variant-ligatures:none;font-variant-caps:normal;font-variant-numeric:normal;font-variant-east-asian:normal;letter-spacing:0px;word-spacing:0px;fill:#000000;fill-opacity:1;stroke:none;stroke-width:0.396874px;stroke-linecap:butt;stroke-linejoin:miter;stroke-opacity:1"
     x="3.4563978"
     y="4.4156375"
     id="text1"><tspan
       sodipodi:role="line"
       id="tspan1"
       style="font-style:normal;font-variant:normal;font-weight:normal;font-stretch:normal;font-size:3.52778px;font-family:Sans;-inkscape-font-specification:'Sans, Normal';font-variant-ligatures:none;font-variant-caps:normal;font-variant-numeric:normal;font-variant-east-asian:normal;fill:#000000;fill-opacity:1;stroke:none;stroke-width:0.396874px"
       x="3.4563978"
       y="4.4156375">u</tspan></text><text
     xml:space="preserve"
     style="font-style:normal;font-variant:normal;font-weight:normal;font-stretch:normal;font-size:3.52778px;line-height:125%;font-family:Sans;-inkscape-font-specification:'Sans, Normal';font-variant-ligatures:none;font-variant-caps:normal;font-variant-numeric:normal;font-variant-east-asian:normal;letter-spacing:0px;word-spacing:0px;fill:#000000;fill-opacity:1;stroke:none;stroke-width:0.396874px;stroke-linecap:butt;stroke-linejoin:miter;stroke-opacity:1"
     x="1.0393574"
     y="46.132339"
     id="text2"><tspan
       sodipodi:role="line"
       id="tspan2"
       style="font-style:normal;font-variant:normal;font-weight:normal;font-stretch:normal;font-size:3.52778px;font-family:Sans;-inkscape-font-specification:'Sans, Normal';font-variant-ligatures:none;font-variant-caps:normal;font-variant-numeric:normal;font-variant-east-asian:normal;fill:#000000;fill-opacity:1;stroke:none;stroke-width:0.396874px"
       x="1.0393574"
       y="46.132339">w</tspan></text><text
     xml:space="preserve"
     style="font-style:normal;font-variant:normal;font-weight:normal;font-stretch:normal;font-size:3.52778px;line-height:125%;font-family:Sans;-inkscape-font-specification:'Sans, Normal';font-variant-ligatures:none;font-variant-caps:normal;font-variant-numeric:normal;font-variant-east-asian:normal;letter-spacing:0px;word-spacing:0px;fill:#000000;fill-opacity:1;stroke:none;stroke-width:0.396874px;stroke-linecap:butt;stroke-linejoin:miter;stroke-opacity:1"
     x="26.30324"
     y="7.5884991"
     id="text3"><tspan
       sodipodi:role="line"
       id="tspan3"
       style="font-style:normal;font-variant:normal;font-weight:normal;font-stretch:normal;font-size:3.52778px;font-family:Sans;-inkscape-font-specification:'Sans, Normal';font-variant-ligatures:none;font-variant-caps:normal;font-variant-numeric:normal;font-variant-east-asian:normal;fill:#000000;fill-opacity:1;stroke:none;stroke-width:0.396874px"
       x="26.30324"
       y="7.5884991">h</tspan></text><text
     xml:space="preserve"
     style="font-style:normal;font-variant:normal;font-weight:normal;font-stretch:normal;font-size:3.52778px;line-height:125%;font-family:Sans;-inkscape-font-specification:'Sans, Normal';font-variant-ligatures:none;font-variant-caps:normal;font-variant-numeric:normal;font-variant-east-asian:normal;letter-spacing:0px;word-spacing:0px;fill:#000000;fill-opacity:1;stroke:none;stroke-width:0.396874px;stroke-linecap:butt;stroke-linejoin:miter;stroke-opacity:1"
     x="27.761053"
     y="47.072586"
     id="text4"><tspan
       sodipodi:role="line"
       id="tspan4"
       style="font-style:normal;font-variant:normal;font-weight:normal;font-stretch:normal;font-size:3.52778px;font-family:Sans;-inkscape-font-specification:'Sans, Normal';font-variant-ligatures:none;font-variant-caps:normal;font-variant-numeric:normal;font-variant-east-asian:normal;fill:#000000;fill-opacity:1;stroke:none;stroke-width:0.396874px"
       x="27.761053"
       y="47.072586">k</tspan></text><text
     xml:space="preserve"
     style="font-style:normal;font-variant:normal;font-weight:normal;font-stretch:normal;font-size:3.52778px;line-height:125%;font-family:Sans;-inkscape-font-specification:'Sans, Normal';font-variant-ligatures:none;font-variant-caps:normal;font-variant-numeric:normal;font-variant-east-asian:normal;letter-spacing:0px;word-spacing:0px;fill:#000000;fill-opacity:1;stroke:none;stroke-width:0.396874px;stroke-linecap:butt;stroke-linejoin:miter;stroke-opacity:1"
     x="48.606564"
     y="10.696205"
     id="text5"><tspan
       sodipodi:role="line"
       id="tspan5"
       style="font-style:normal;font-variant:normal;font-weight:normal;font-stretch:normal;font-size:3.52778px;font-family:Sans;-inkscape-font-specification:'Sans, Normal';font-variant-ligatures:none;font-variant-caps:normal;font-variant-numeric:normal;font-variant-east-asian:normal;fill:#000000;fill-opacity:1;stroke:none;stroke-width:0.396874px"
       x="48.606564"
       y="10.696205">e</tspan></text><text
     xml:space="preserve"
     style="font-style:normal;font-variant:normal;font-weight:normal;font-stretch:normal;font-size:3.52778px;line-height:125%;font-family:Sans;-inkscape-font-specification:'Sans, Normal';font-variant-ligatures:none;font-variant-caps:normal;font-variant-numeric:normal;font-variant-east-asian:normal;letter-spacing:0px;word-spacing:0px;fill:#000000;fill-opacity:1;stroke:none;stroke-width:0.396874px;stroke-linecap:butt;stroke-linejoin:miter;stroke-opacity:1"
     x="54.971241"
     y="39.019474"
     id="text6"><tspan
       sodipodi:role="line"
       id="tspan6"
       style="font-style:normal;font-variant:normal;font-weight:normal;font-stretch:normal;font-size:3.52778px;font-family:Sans;-inkscape-font-specification:'Sans, Normal';font-variant-ligatures:none;font-variant-caps:normal;font-variant-numeric:normal;font-variant-east-asian:normal;fill:#000000;fill-opacity:1;stroke:none;stroke-width:0.396874px"
       x="54.971241"
       y="39.019474">t</tspan></text><text
     xml:space="preserve"
     style="font-style:normal;font-variant:normal;font-weight:normal;font-stretch:normal;font-size:3.52778px;line-height:125%;font-family:Sans;-inkscape-font-specification:'Sans, Normal';font-variant-ligatures:none;font-variant-caps:normal;font-variant-numeric:normal;font-variant-east-asian:normal;letter-spacing:0px;word-spacing:0px;fill:#000000;fill-opacity:1;stroke:none;stroke-width:0.396874px;stroke-linecap:butt;stroke-linejoin:miter;stroke-opacity:1"
     x="75.539314"
     y="7.1446705"
     id="text7"><tspan
       sodipodi:role="line"
       id="tspan7"
       style="font-style:normal;font-variant:normal;font-weight:normal;font-stretch:normal;font-size:3.52778px;font-family:Sans;-inkscape-font-specification:'Sans, Normal';font-variant-ligatures:none;font-variant-caps:normal;font-variant-numeric:normal;font-variant-east-asian:normal;fill:#000000;fill-opacity:1;stroke:none;stroke-width:0.396874px"
       x="75.539314"
       y="7.1446705">r</tspan></text><text
     xml:space="preserve"
     style="font-style:normal;font-variant:normal;font-weight:normal;font-stretch:normal;font-size:3.52778px;line-height:125%;font-family:Sans;-inkscape-font-specification:'Sans, Normal';font-variant-ligatures:none;font-variant-caps:normal;font-variant-numeric:normal;font-variant-east-asian:normal;letter-spacing:0px;word-spacing:0px;fill:#000000;fill-opacity:1;stroke:none;stroke-width:0.396874px;stroke-linecap:butt;stroke-linejoin:miter;stroke-opacity:1"
     x="67.580093"
     y="43.744049"
     id="text8"><tspan
       sodipodi:role="line"
       id="tspan8"
       style="font-style:normal;font-variant:normal;font-weight:normal;font-stretch:normal;font-size:3.52778px;font-family:Sans;-inkscape-font-specification:'Sans, Normal';font-variant-ligatures:none;font-variant-caps:normal;font-variant-numeric:normal;font-variant-east-asian:normal;fill:#000000;fill-opacity:1;stroke:none;stroke-width:0.396874px"
       x="67.580093"
       y="43.744049">l</tspan></text><text
     xml:space="preserve"
     style="font-style:normal;font-variant:normal;font-weight:normal;font-stretch:normal;font-size:3.52778px;line-height:125%;font-family:Sans;-inkscape-font-specification:'Sans, Normal';font-variant-ligatures:none;font-variant-caps:normal;font-variant-numeric:normal;font-variant-east-asian:normal;letter-spacing:0px;word-spacing:0px;fill:#000000;fill-opacity:1;stroke:none;stroke-width:0.396874px;stroke-linecap:butt;stroke-linejoin:miter;stroke-opacity:1"
     x="114.92581"
     y="25.8001"
     id="text9"><tspan
       sodipodi:role="line"
       id="tspan9"
       style="font-style:normal;font-variant:normal;font-weight:normal;font-stretch:normal;font-size:3.52778px;font-family:Sans;-inkscape-font-specification:'Sans, Normal';font-variant-ligatures:none;font-variant-caps:normal;font-variant-numeric:normal;font-variant-east-asian:normal;fill:#000000;fill-opacity:1;stroke:none;stroke-width:0.396874px"
       x="114.92581"
       y="25.8001">g</tspan></text><text
     xml:space="preserve"
     style="font-style:normal;font-variant:normal;font-weight:normal;font-stretch:normal;font-size:3.52778px;line-height:125%;font-family:Sans;-inkscape-font-specification:'Sans, Normal';font-variant-ligatures:none;font-variant-caps:normal;font-variant-numeric:normal;font-variant-east-asian:normal;letter-spacing:0px;word-spacing:0px;fill:#000000;fill-opacity:1;stroke:none;stroke-width:0.396874px;stroke-linecap:butt;stroke-linejoin:miter;stroke-opacity:1"
     x="135.45013"
     y="5.2002077"
     id="text10"><tspan
       sodipodi:role="line"
       id="tspan10"
       style="font-style:normal;font-variant:normal;font-weight:normal;font-stretch:normal;font-size:3.52778px;font-family:Sans;-inkscape-font-specification:'Sans, Normal';font-variant-ligatures:none;font-variant-caps:normal;font-variant-numeric:normal;font-variant-east-asian:normal;fill:#000000;fill-opacity:1;stroke:none;stroke-width:0.396874px"
       x="135.45013"
       y="5.2002077">f</tspan></text></svg>
