<?xml version="1.0" encoding="UTF-8" standalone="no"?>
<!-- Created with Inkscape (http://www.inkscape.org/) -->

<svg
   width="132.19437mm"
   height="43.979988mm"
   viewBox="0 0 132.19435 43.979988"
   version="1.1"
   id="svg1"
   xml:space="preserve"
   sodipodi:docname="bolt_carriage_large_neck.svg"
   inkscape:version="1.3.2 (091e20e, 2023-11-25, custom)"
   xmlns:inkscape="http://www.inkscape.org/namespaces/inkscape"
   xmlns:sodipodi="http://sodipodi.sourceforge.net/DTD/sodipodi-0.dtd"
   xmlns="http://www.w3.org/2000/svg"
   xmlns:svg="http://www.w3.org/2000/svg"><sodipodi:namedview
     id="namedview1"
     pagecolor="#ffffff"
     bordercolor="#666666"
     borderopacity="1.0"
     inkscape:showpageshadow="2"
     inkscape:pageopacity="0.0"
     inkscape:pagecheckerboard="0"
     inkscape:deskcolor="#d1d1d1"
     inkscape:document-units="mm"
     inkscape:zoom="2.2095659"
     inkscape:cx="213.16404"
     inkscape:cy="96.625315"
     inkscape:window-width="1920"
     inkscape:window-height="1129"
     inkscape:window-x="1912"
     inkscape:window-y="-8"
     inkscape:window-maximized="1"
     inkscape:current-layer="svg1" /><defs
     id="defs1" /><path
     id="path37-0"
     d="m 113.42819,9.5440228 c -7.49565,0 -13.572242,6.0752732 -13.572242,13.5691552 0,7.493881 6.076592,13.569155 13.572242,13.569155 7.49609,0 13.57268,-6.075274 13.57268,-13.569155 0,-7.493882 -6.07659,-13.5691552 -13.57268,-13.5691552 z m 0,7.0238052 c -3.61553,0 -6.54711,2.93026 -6.54711,6.54535 0,3.61509 2.93158,6.545791 6.54711,6.545791 3.61597,0 6.54755,-2.930701 6.54755,-6.545791 0,-3.61509 -2.93158,-6.54535 -6.54755,-6.54535 z m 9.25953,6.54535 -9.25953,-9.256889 -9.25909,9.256889 9.25909,9.256888 z M 12.417339,35.85507 c 0,0.698059 -0.723195,0.702909 -1.129771,0.330729 -3.0863643,-2.828396 -5.3459057,-7.782278 -5.3459057,-13.196534 0,-5.414257 2.2595414,-10.368139 5.3459057,-13.1965339 0.406576,-0.3726215 1.129771,-0.3673298 1.129771,0.3302879 z m 0,-12.744979 h 3.359326 c 1.964972,0 3.999176,-2.064191 3.999176,-4.610364 0,-0.954705 -0.286191,-1.841941 -0.747007,-2.577483 -0.768614,-1.226784 -2.024062,-2.032882 -3.252169,-2.032882 h -3.359326"
     style="fill:none;stroke:#000000;stroke-width:0.440972;stroke-linecap:butt;stroke-linejoin:miter;stroke-miterlimit:1.5;stroke-dasharray:none;stroke-opacity:1" /><path
     id="path38-4"
     d="m 23.487501,17.534439 0.819326,-0.661458 0.874007,0.661458 0.751858,11.130138 -0.779639,0.661018 -0.913694,-0.661018 z m 0.819326,-0.661458 0.846226,12.452614 m 0.02778,-11.791156 0.818886,-0.661458 0.874006,0.661458 0.751858,11.130138 -0.779198,0.661018 -0.913694,-0.661018 z m 0.818886,-0.661458 0.846666,12.452614 m 0.02734,-11.791156 0.819327,-0.661458 0.874007,0.661458 0.751857,11.130138 -0.779639,0.661018 -0.913694,-0.661018 z m 0.819327,-0.661458 0.846225,12.452614 m 0.02778,-11.791156 0.818885,-0.661458 0.874007,0.661458 0.751857,11.130138 -0.779198,0.661018 -0.913694,-0.661018 z m 0.818885,-0.661458 0.846666,12.452614 m 0.02734,-11.791156 0.819326,-0.661458 0.874007,0.661458 0.751857,11.130138 -0.779638,0.661018 -0.913695,-0.661018 z m 0.819326,-0.661458 0.846226,12.452614 m 0.02778,-11.791156 0.818885,-0.661458 0.874007,0.661458 0.751858,11.130138 -0.779198,0.661018 -0.913695,-0.661018 z m 0.818885,-0.661458 0.846667,12.452614 m 0.02734,-11.791156 0.819326,-0.661458 0.874007,0.661458 0.751858,11.130138 -0.779639,0.661018 -0.913694,-0.661018 z m 0.819326,-0.661458 0.846226,12.452614 m 0.02778,-11.791156 0.818886,-0.661458 0.874006,0.661458 0.751858,11.130138 -0.779198,0.661018 -0.913694,-0.661018 z m 0.818886,-0.661458 0.846666,12.452614 m 0.02734,-11.791156 0.819327,-0.661458 0.874007,0.661458 0.751857,11.130138 -0.779639,0.661018 -0.913694,-0.661018 z m 0.819327,-0.661458 0.846225,12.452614 m 0.02778,-11.791156 0.818885,-0.661458 0.874007,0.661458 0.751857,11.130138 -0.779197,0.661018 -0.913695,-0.661018 z m 0.818885,-0.661458 0.846667,12.452614 m 0.02734,-11.791156 0.819326,-0.661458 0.874007,0.661458 0.751858,11.130138 -0.779639,0.661018 -0.913695,-0.661018 z m 0.819326,-0.661458 0.846226,12.452614 m 0.02778,-11.791156 0.818885,-0.661458 0.874007,0.661458 0.751858,11.130138 -0.779198,0.661018 -0.913694,-0.661018 z m 0.818885,-0.661458 0.846667,12.452614 m 0.02734,-11.791156 0.819327,-0.661458 0.874006,0.661458 0.751858,11.130138 -0.779639,0.661018 -0.913694,-0.661018 z"
     style="fill:none;stroke:#000000;stroke-width:0.330729;stroke-linecap:butt;stroke-linejoin:miter;stroke-miterlimit:1.5;stroke-dasharray:none;stroke-opacity:1" /><path
     id="path39-1"
     d="m 44.624182,16.872981 0.846226,12.452614 m 0.02778,-11.791156 0.818885,-0.661458 0.874007,0.661458 0.751858,11.130139 -0.779198,0.661017 -0.913695,-0.661017 z m 0.818885,-0.661458 0.846667,12.452614 m 0.02734,-11.791156 0.819326,-0.661458 0.874007,0.661458 0.751858,11.130139 -0.779639,0.661017 -0.913694,-0.661017 z m 0.819326,-0.661458 0.846226,12.452614 m 0.02778,-11.791156 0.818886,-0.661458 0.874006,0.661458 0.751858,11.130139 -0.779198,0.661017 -0.913694,-0.661017 z m 0.818888,-0.661458 0.846666,12.452614 m 0.02734,-11.791156 0.819327,-0.661458 0.874007,0.661458 0.751416,11.130139 -0.779198,0.661017 -0.913694,-0.661017 z m 0.819327,-0.661458 0.846225,12.452614 m 0.02778,-11.791156 0.818885,-0.661458 0.874007,0.661458 0.751857,11.130139 -0.779197,0.661017 -0.914136,-0.661017 z m 0.818885,-0.661458 0.846667,12.452614 m 0.02734,-11.791156 0.819326,-0.661458 0.874007,0.661458 0.751417,11.130139 -0.779198,0.661017 -0.913695,-0.661017 z m 0.819326,-0.661458 0.846226,12.452614 m 0.02778,-11.791156 0.818885,-0.661458 0.874007,0.661458 0.751858,11.130139 -0.779198,0.661017 -0.914135,-0.661017 z m 0.818885,-0.661458 0.846667,12.452614 m 0.02734,-11.791156 0.818886,-0.661458 0.874447,0.661458 0.751417,11.130139 -0.779198,0.661017 -0.913694,-0.661017 z m 0.818886,-0.661458 0.846666,12.452614 m 0.02778,-11.791156 0.818886,-0.661458 0.874007,0.661458 0.751857,11.130139 -0.779198,0.661017 -0.914135,-0.661017 z m 0.818886,-0.661458 0.846666,12.452614 m 0.02734,-11.791156 0.818885,-0.661458 0.874448,0.661458 0.751416,11.130139 -0.779198,0.661017 -0.913694,-0.661017 z m 0.818885,-0.661458 0.846666,12.452614 m 0.02778,-11.791156 0.818885,-0.661458 0.874007,0.661458 0.751857,11.130139 -0.779197,0.661017 -0.914136,-0.661017 z m 0.818885,-0.661458 0.846667,12.452614 m 0.02734,-11.791156 0.818885,-0.661458 0.874448,0.661458 0.751417,11.130139 -0.779198,0.661017 -0.913695,-0.661017 z m 0.818885,-0.661458 0.846667,12.452614 m 0.779198,-0.661017 -0.751417,-11.130139 0.818885,-0.661458 z m -43.106795,0.661017 -1.485194,-9.118864 0.272521,8.788576 0.629708,-0.330729 0.582965,0.661017 0.779198,-0.661017 -0.751858,-11.130139 -0.874006,-0.661458 z"
     style="fill:none;stroke:#000000;stroke-width:0.330729;stroke-linecap:butt;stroke-linejoin:miter;stroke-miterlimit:1.5;stroke-dasharray:none;stroke-opacity:1" /><path
     id="path40-6"
     d="m 12.417335,23.110093 h 3.359326 c 1.964972,0 3.999177,2.064191 3.999177,4.610805 0,0.954705 -0.286191,1.8415 -0.747007,2.577483 -0.768615,1.226344 -2.024062,2.032882 -3.25217,2.032882 h -3.359326 m 6.611496,-16.409017 c 0.457729,0.701587 1.300427,0.950736 3.584663,0.950736 l 0.874007,0.661459 m -4.45867,12.76394 c 0.457729,-0.701587 1.228548,-1.303073 3.218656,-1.303073 l 0.629708,-0.330729"
     style="fill:none;stroke:#000000;stroke-width:0.440972;stroke-linecap:butt;stroke-linejoin:miter;stroke-miterlimit:1.5;stroke-dasharray:none;stroke-opacity:1" /><path
     id="path41-4"
     d="m 113.42819,18.037147 c -2.8037,0 -5.07735,2.272771 -5.07735,5.076031 0,2.803701 2.27365,5.076031 5.07735,5.076031 2.80414,0 5.07735,-2.27233 5.07735,-5.076031 0,-2.80326 -2.27321,-5.076031 -5.07735,-5.076031 z"
     style="fill:none;stroke:#000000;stroke-width:0.110243;stroke-linecap:butt;stroke-linejoin:miter;stroke-miterlimit:1.5;stroke-dasharray:1.32248, 0.881503;stroke-dashoffset:0;stroke-opacity:1" /><path
     id="path42-1"
     d="M 68.465784,23.110093 H 4.7016479"
     style="fill:none;stroke:#000000;stroke-width:0.110243;stroke-linecap:butt;stroke-linejoin:miter;stroke-miterlimit:1.5;stroke-dasharray:22.0429, 0.881503, 2.20442, 0.881503;stroke-dashoffset:0;stroke-opacity:1" /><path
     id="path43-4"
     d="M 113.42819,7.2518515 V 39.093131 M 97.566421,23.110093 H 129.4152"
     style="fill:none;stroke:#000000;stroke-width:0.110243;stroke-linecap:butt;stroke-linejoin:miter;stroke-miterlimit:1.5;stroke-dasharray:13.8871, 0.881503, 2.20442, 0.881503;stroke-dashoffset:0;stroke-opacity:1" /><path
     id="path45-3"
     d="m 14.516363,1.4420414 h 3.490736 M 0,1.4420414 h 3.6230274"
     style="fill:none;stroke:#000000;stroke-width:0.220486;stroke-linecap:butt;stroke-linejoin:miter;stroke-miterlimit:10;stroke-dasharray:none;stroke-opacity:1" /><path
     id="path46-7"
     d="M 5.6109293,0.2699373 V 19.931123 M 12.637821,0.30389216 V 8.9107876 M 19.775837,5.5933537 V 15.634731"
     style="fill:none;stroke:#000000;stroke-width:0.110243;stroke-linecap:butt;stroke-linejoin:miter;stroke-miterlimit:10;stroke-dasharray:none;stroke-opacity:1" /><path
     id="path48-7"
     d="m 21.654381,6.6649163 h 3.490736 m -18.118224,0 h 3.623468"
     style="fill:none;stroke:#000000;stroke-width:0.220486;stroke-linecap:butt;stroke-linejoin:miter;stroke-miterlimit:10;stroke-dasharray:none;stroke-opacity:1" /><path
     id="path50"
     d="m 14.516363,39.244824 h 22.760779 m 4.40884,0 h 23.003755"
     style="fill:none;stroke:#000000;stroke-width:0.220486;stroke-linecap:butt;stroke-linejoin:miter;stroke-miterlimit:10;stroke-dasharray:none;stroke-opacity:1" /><path
     id="path51-2"
     d="M 66.677201,40.417371 V 29.325597 M 12.637824,40.382975 v -3.425913"
     style="fill:none;stroke:#000000;stroke-width:0.110243;stroke-linecap:butt;stroke-linejoin:miter;stroke-miterlimit:10;stroke-dasharray:none;stroke-opacity:1" /><path
     id="path53-0"
     d="m 129.82442,13.147647 -1.59632,-1.595878 m -4.99974,-4.9984198 1.88427,1.8838333"
     style="fill:none;stroke:#000000;stroke-width:0.220486;stroke-linecap:butt;stroke-linejoin:miter;stroke-miterlimit:10;stroke-dasharray:none;stroke-opacity:1" /><path
     id="path54-3"
     d="m 132.1554,13.868197 -5.11395,5.112632 m -1.10243,1.101989 -2.59028,2.58983 m -0.61956,-18.2760924 -5.11043,5.1091039 m -1.10199,1.1019895 -2.61805,2.61717"
     style="fill:none;stroke:#000000;stroke-width:0.110243;stroke-linecap:butt;stroke-linejoin:miter;stroke-miterlimit:10;stroke-dasharray:none;stroke-opacity:1" /><path
     id="path55-0"
     d="m 101.79358,42.807881 h 9.34993"
     style="fill:none;stroke:#000000;stroke-width:0.220486;stroke-linecap:butt;stroke-linejoin:miter;stroke-miterlimit:10;stroke-dasharray:none;stroke-opacity:1" /><path
     id="path56"
     d="M 99.635461,43.94603 V 26.40151"
     style="fill:none;stroke:#000000;stroke-width:0.110243;stroke-linecap:butt;stroke-linejoin:miter;stroke-miterlimit:10;stroke-dasharray:none;stroke-opacity:1" /><path
     id="path57-8"
     d="m 125.34282,42.807881 h -9.91305"
     style="fill:none;stroke:#000000;stroke-width:0.220486;stroke-linecap:butt;stroke-linejoin:miter;stroke-miterlimit:10;stroke-dasharray:none;stroke-opacity:1" /><path
     id="path58-9"
     d="M 127.22136,43.979986 V 26.401511"
     style="fill:none;stroke:#000000;stroke-width:0.110243;stroke-linecap:butt;stroke-linejoin:miter;stroke-miterlimit:10;stroke-dasharray:none;stroke-opacity:1" /><path
     id="path60-6"
     d="M 12.637822,1.466737 14.90486,0.68930301 V 2.2357925 l -2.236611,-0.761559 -0.03043,-0.0075"
     style="fill:#000000;fill-opacity:1;fill-rule:nonzero;stroke:none;stroke-width:0.440972" /><path
     id="path61"
     d="m 5.6109293,1.4601224 -2.267038,0.777434 V 0.69106688 l 2.2366109,0.76111802 0.030427,0.00794"
     style="fill:#000000;fill-opacity:1;fill-rule:nonzero;stroke:none;stroke-width:0.440972" /><path
     id="path62-9"
     d="m 19.810676,6.6785854 2.267038,-0.777434 v 1.5464895 l -2.236611,-0.761118 -0.03043,-0.00794"
     style="fill:#000000;fill-opacity:1;fill-rule:nonzero;stroke:none;stroke-width:0.440972" /><path
     id="path63-0"
     d="m 12.637822,6.6829973 -2.267038,0.777875 V 5.9139418 l 2.237052,0.761559 0.02999,0.0075"
     style="fill:#000000;fill-opacity:1;fill-rule:nonzero;stroke:none;stroke-width:0.440972" /><path
     id="path64-0"
     d="m 121.88295,5.2427809 2.15283,1.0530416 -1.09361,1.0936111 -1.04335,-2.1197534 -0.0159,-0.026899"
     style="fill:#000000;fill-opacity:1;fill-rule:nonzero;stroke:none;stroke-width:0.440972" /><path
     id="path65-8"
     d="m 99.620909,42.789801 2.267041,-0.777434 v 1.54649 l -2.236614,-0.761559 -0.03043,-0.0075"
     style="fill:#000000;fill-opacity:1;fill-rule:nonzero;stroke:none;stroke-width:0.440972" /><path
     id="path66-6"
     d="m 131.34753,14.696343 -2.15283,-1.053042 1.09406,-1.093611 1.0429,2.119754 0.0159,0.0269"
     style="fill:#000000;fill-opacity:1;fill-rule:nonzero;stroke:none;stroke-width:0.440972" /><path
     id="path67"
     d="m 127.22092,42.783186 -2.26704,0.777434 v -1.54649 l 2.23705,0.761119 0.03,0.0079"
     style="fill:#000000;fill-opacity:1;fill-rule:nonzero;stroke:none;stroke-width:0.440972" /><path
     id="path68-8"
     d="M 12.637822,39.244824 14.90486,38.46739 v 1.54693 l -2.236611,-0.761559 -0.03043,-0.0079"
     style="fill:#000000;fill-opacity:1;fill-rule:nonzero;stroke:none;stroke-width:0.440972" /><path
     id="path69-8"
     d="m 66.677201,39.227186 -2.267038,0.777434 v -1.54693 l 2.237052,0.761559 0.02999,0.0079"
     style="fill:#000000;fill-opacity:1;fill-rule:nonzero;stroke:none;stroke-width:0.440972" /><path
     id="path71-0"
     d="m 91.548472,15.805387 v 5.192007"
     style="fill:none;stroke:#000000;stroke-width:0.220486;stroke-linecap:butt;stroke-linejoin:miter;stroke-miterlimit:10;stroke-dasharray:none;stroke-opacity:1" /><path
     id="path72-1"
     d="M 90.410324,13.64771 H 112.99295"
     style="fill:none;stroke:#000000;stroke-width:0.110243;stroke-linecap:butt;stroke-linejoin:miter;stroke-miterlimit:10;stroke-dasharray:none;stroke-opacity:1" /><path
     id="path73-7"
     d="M 91.548472,30.809467 V 25.282762"
     style="fill:none;stroke:#000000;stroke-width:0.220486;stroke-linecap:butt;stroke-linejoin:miter;stroke-miterlimit:10;stroke-dasharray:none;stroke-opacity:1" /><path
     id="path74-3"
     d="m 100.25723,32.687569 h 12.73572"
     style="fill:none;stroke:#000000;stroke-width:0.110243;stroke-linecap:butt;stroke-linejoin:miter;stroke-miterlimit:10;stroke-dasharray:none;stroke-opacity:1" /><path
     id="path75-9"
     d="m 91.566553,13.633601 0.777875,2.266156 h -1.54693 l 0.761558,-2.23617 0.0075,-0.02999"
     style="fill:#000000;fill-opacity:1;fill-rule:nonzero;stroke:none;stroke-width:0.440972" /><path
     id="path76-1"
     d="m 91.573167,32.687569 -0.777434,-2.266597 h 1.54693 l -0.761559,2.23617 -0.0079,0.03043"
     style="fill:#000000;fill-opacity:1;fill-rule:nonzero;stroke:none;stroke-width:0.440972" /><path
     id="path77-4"
     d="m 90.33668,32.712261 h 8.903228"
     style="fill:none;stroke:#000000;stroke-width:0.110243;stroke-linecap:butt;stroke-linejoin:miter;stroke-miterlimit:10;stroke-dasharray:none;stroke-opacity:1" /><path
     id="path78-9"
     d="m 24.533928,11.628059 h 16.567325 m 5.879041,0 h 17.709884"
     style="fill:none;stroke:#000000;stroke-width:0.220486;stroke-linecap:butt;stroke-linejoin:miter;stroke-miterlimit:10;stroke-dasharray:none;stroke-opacity:1" /><path
     id="path79-8"
     d="M 22.655829,16.359249 V 9.340295"
     style="fill:none;stroke:#000000;stroke-width:0.110243;stroke-linecap:butt;stroke-linejoin:miter;stroke-miterlimit:10;stroke-dasharray:none;stroke-opacity:1" /><path
     id="path81"
     d="m 22.655829,11.628059 2.267038,-0.777434 v 1.54649 l -2.237052,-0.761119 -0.02999,-0.0079"
     style="fill:#000000;fill-opacity:1;fill-rule:nonzero;stroke:none;stroke-width:0.440972" /><path
     id="path82-2"
     d="m 66.677641,11.609978 -2.267038,0.777434 v -1.54649 l 2.237052,0.761559 0.02999,0.0075"
     style="fill:#000000;fill-opacity:1;fill-rule:nonzero;stroke:none;stroke-width:0.440972" /><path
     id="path83-8"
     d="M 66.839476,16.615012 V 9.596058"
     style="fill:none;stroke:#000000;stroke-width:0.110243;stroke-linecap:butt;stroke-linejoin:miter;stroke-miterlimit:10;stroke-dasharray:none;stroke-opacity:1" /><text
     xml:space="preserve"
     style="font-style:normal;font-variant:normal;font-weight:normal;font-stretch:normal;font-size:3.52777px;line-height:125%;font-family:Sans;-inkscape-font-specification:'Sans, Normal';font-variant-ligatures:none;font-variant-caps:normal;font-variant-numeric:normal;font-variant-east-asian:normal;letter-spacing:0px;word-spacing:0px;fill:#000000;fill-opacity:1;stroke:none;stroke-width:0.264583px;stroke-linecap:butt;stroke-linejoin:miter;stroke-opacity:1"
     x="7.9031358"
     y="2.6802783"
     id="text7"><tspan
       sodipodi:role="line"
       id="tspan7"
       style="font-style:normal;font-variant:normal;font-weight:normal;font-stretch:normal;font-size:3.52777px;font-family:Sans;-inkscape-font-specification:'Sans, Normal';font-variant-ligatures:none;font-variant-caps:normal;font-variant-numeric:normal;font-variant-east-asian:normal;fill:#000000;fill-opacity:1;stroke:none;stroke-width:0.264583px"
       x="7.9031358"
       y="2.6802783">h</tspan></text><text
     xml:space="preserve"
     style="font-style:normal;font-variant:normal;font-weight:normal;font-stretch:normal;font-size:3.52777px;line-height:125%;font-family:Sans;-inkscape-font-specification:'Sans, Normal';font-variant-ligatures:none;font-variant-caps:normal;font-variant-numeric:normal;font-variant-east-asian:normal;letter-spacing:0px;word-spacing:0px;fill:#000000;fill-opacity:1;stroke:none;stroke-width:0.264583px;stroke-linecap:butt;stroke-linejoin:miter;stroke-opacity:1"
     x="14.898504"
     y="7.3890476"
     id="text8"><tspan
       sodipodi:role="line"
       id="tspan8"
       style="font-style:normal;font-variant:normal;font-weight:normal;font-stretch:normal;font-size:3.52777px;font-family:Sans;-inkscape-font-specification:'Sans, Normal';font-variant-ligatures:none;font-variant-caps:normal;font-variant-numeric:normal;font-variant-east-asian:normal;fill:#000000;fill-opacity:1;stroke:none;stroke-width:0.264583px"
       x="14.898504"
       y="7.3890476">p</tspan></text><text
     xml:space="preserve"
     style="font-style:normal;font-variant:normal;font-weight:normal;font-stretch:normal;font-size:3.52777px;line-height:125%;font-family:Sans;-inkscape-font-specification:'Sans, Normal';font-variant-ligatures:none;font-variant-caps:normal;font-variant-numeric:normal;font-variant-east-asian:normal;letter-spacing:0px;word-spacing:0px;fill:#000000;fill-opacity:1;stroke:none;stroke-width:0.264583px;stroke-linecap:butt;stroke-linejoin:miter;stroke-opacity:1"
     x="42.509293"
     y="13.047861"
     id="text9"><tspan
       sodipodi:role="line"
       id="tspan9"
       style="font-style:normal;font-variant:normal;font-weight:normal;font-stretch:normal;font-size:3.52777px;font-family:Sans;-inkscape-font-specification:'Sans, Normal';font-variant-ligatures:none;font-variant-caps:normal;font-variant-numeric:normal;font-variant-east-asian:normal;fill:#000000;fill-opacity:1;stroke:none;stroke-width:0.264583px"
       x="42.509293"
       y="13.047861">l1</tspan></text><text
     xml:space="preserve"
     style="font-style:normal;font-variant:normal;font-weight:normal;font-stretch:normal;font-size:3.52777px;line-height:125%;font-family:Sans;-inkscape-font-specification:'Sans, Normal';font-variant-ligatures:none;font-variant-caps:normal;font-variant-numeric:normal;font-variant-east-asian:normal;letter-spacing:0px;word-spacing:0px;fill:#000000;fill-opacity:1;stroke:none;stroke-width:0.264583px;stroke-linecap:butt;stroke-linejoin:miter;stroke-opacity:1"
     x="39.017342"
     y="40.519535"
     id="text10"><tspan
       sodipodi:role="line"
       id="tspan10"
       style="font-style:normal;font-variant:normal;font-weight:normal;font-stretch:normal;font-size:3.52777px;font-family:Sans;-inkscape-font-specification:'Sans, Normal';font-variant-ligatures:none;font-variant-caps:normal;font-variant-numeric:normal;font-variant-east-asian:normal;fill:#000000;fill-opacity:1;stroke:none;stroke-width:0.264583px"
       x="39.017342"
       y="40.519535">l</tspan></text><text
     xml:space="preserve"
     style="font-style:normal;font-variant:normal;font-weight:normal;font-stretch:normal;font-size:3.52777px;line-height:125%;font-family:Sans;-inkscape-font-specification:'Sans, Normal';font-variant-ligatures:none;font-variant-caps:normal;font-variant-numeric:normal;font-variant-east-asian:normal;letter-spacing:0px;word-spacing:0px;fill:#000000;fill-opacity:1;stroke:none;stroke-width:0.264583px;stroke-linecap:butt;stroke-linejoin:miter;stroke-opacity:1"
     x="90.577019"
     y="23.944609"
     id="text11"><tspan
       sodipodi:role="line"
       id="tspan11"
       style="font-style:normal;font-variant:normal;font-weight:normal;font-stretch:normal;font-size:3.52777px;font-family:Sans;-inkscape-font-specification:'Sans, Normal';font-variant-ligatures:none;font-variant-caps:normal;font-variant-numeric:normal;font-variant-east-asian:normal;fill:#000000;fill-opacity:1;stroke:none;stroke-width:0.264583px"
       x="90.577019"
       y="23.944609">c</tspan></text><text
     xml:space="preserve"
     style="font-style:normal;font-variant:normal;font-weight:normal;font-stretch:normal;font-size:3.52777px;line-height:125%;font-family:Sans;-inkscape-font-specification:'Sans, Normal';font-variant-ligatures:none;font-variant-caps:normal;font-variant-numeric:normal;font-variant-east-asian:normal;letter-spacing:0px;word-spacing:0px;fill:#000000;fill-opacity:1;stroke:none;stroke-width:0.264583px;stroke-linecap:butt;stroke-linejoin:miter;stroke-opacity:1"
     x="125.44202"
     y="10.772715"
     id="text12"><tspan
       sodipodi:role="line"
       id="tspan12"
       style="font-style:normal;font-variant:normal;font-weight:normal;font-stretch:normal;font-size:3.52777px;font-family:Sans;-inkscape-font-specification:'Sans, Normal';font-variant-ligatures:none;font-variant-caps:normal;font-variant-numeric:normal;font-variant-east-asian:normal;fill:#000000;fill-opacity:1;stroke:none;stroke-width:0.264583px"
       x="125.44202"
       y="10.772715">o</tspan></text><text
     xml:space="preserve"
     style="font-style:normal;font-variant:normal;font-weight:normal;font-stretch:normal;font-size:3.52777px;line-height:125%;font-family:Sans;-inkscape-font-specification:'Sans, Normal';font-variant-ligatures:none;font-variant-caps:normal;font-variant-numeric:normal;font-variant-east-asian:normal;letter-spacing:0px;word-spacing:0px;fill:#000000;fill-opacity:1;stroke:none;stroke-width:0.264583px;stroke-linecap:butt;stroke-linejoin:miter;stroke-opacity:1"
     x="112.37051"
     y="43.772003"
     id="text13"><tspan
       sodipodi:role="line"
       id="tspan13"
       style="font-style:normal;font-variant:normal;font-weight:normal;font-stretch:normal;font-size:3.52777px;font-family:Sans;-inkscape-font-specification:'Sans, Normal';font-variant-ligatures:none;font-variant-caps:normal;font-variant-numeric:normal;font-variant-east-asian:normal;fill:#000000;fill-opacity:1;stroke:none;stroke-width:0.264583px"
       x="112.37051"
       y="43.772003">a</tspan></text></svg>
