<?xml version="1.0" encoding="UTF-8" standalone="no"?>
<!-- Created with Inkscape (http://www.inkscape.org/) -->

<svg
   width="132.2292mm"
   height="44.144863mm"
   viewBox="0 0 132.22919 44.144863"
   version="1.1"
   id="svg1"
   xml:space="preserve"
   sodipodi:docname="bolt_carriage_short_neck.svg"
   inkscape:version="1.3.2 (091e20e, 2023-11-25, custom)"
   xmlns:inkscape="http://www.inkscape.org/namespaces/inkscape"
   xmlns:sodipodi="http://sodipodi.sourceforge.net/DTD/sodipodi-0.dtd"
   xmlns="http://www.w3.org/2000/svg"
   xmlns:svg="http://www.w3.org/2000/svg"><sodipodi:namedview
     id="namedview1"
     pagecolor="#ffffff"
     bordercolor="#666666"
     borderopacity="1.0"
     inkscape:showpageshadow="2"
     inkscape:pageopacity="0.0"
     inkscape:pagecheckerboard="0"
     inkscape:deskcolor="#d1d1d1"
     inkscape:document-units="mm"
     inkscape:zoom="6.1951091"
     inkscape:cx="184.6618"
     inkscape:cy="128.24633"
     inkscape:window-width="1920"
     inkscape:window-height="1129"
     inkscape:window-x="1912"
     inkscape:window-y="-8"
     inkscape:window-maximized="1"
     inkscape:current-layer="svg1" /><defs
     id="defs1" /><path
     id="path37"
     d="m 113.45861,9.5914433 c -7.49785,0 -13.576211,6.0796827 -13.576211,13.5792977 0,7.499173 6.078361,13.578859 13.576211,13.578859 7.4974,0 13.57576,-6.079686 13.57576,-13.578859 0,-7.499615 -6.07836,-13.5792977 -13.57576,-13.5792977 z m 0,7.0286557 c -3.61686,0 -6.54932,2.932907 -6.54932,6.550642 0,3.617735 2.93246,6.550202 6.54932,6.550202 3.61685,0 6.54887,-2.932467 6.54887,-6.550202 0,-3.617735 -2.93202,-6.550642 -6.54887,-6.550642 z m 9.26129,6.550642 -9.26129,-9.263944 -9.26174,9.263944 9.26174,9.263505 z"
     style="fill:none;stroke:#000000;stroke-width:0.440973;stroke-linecap:butt;stroke-linejoin:miter;stroke-miterlimit:1.5;stroke-dasharray:none;stroke-opacity:1" /><path
     id="path38"
     d="m 113.45861,18.090743 c -2.80503,0 -5.07912,2.274534 -5.07912,5.079998 0,2.805467 2.27409,5.079561 5.07912,5.079561 2.80458,0 5.07867,-2.274094 5.07867,-5.079561 0,-2.805464 -2.27409,-5.079998 -5.07867,-5.079998 z"
     style="fill:none;stroke:#000000;stroke-width:0.110243;stroke-linecap:butt;stroke-linejoin:miter;stroke-miterlimit:1.5;stroke-dasharray:1.32336, 0.881943;stroke-dashoffset:0;stroke-opacity:1" /><path
     id="path39"
     d="m 12.445554,35.634823 c 0,0.6985 -0.748329,0.990865 -1.154906,0.618244 -3.0868066,-2.8306 -5.3472289,-7.788011 -5.3472289,-13.206678 0,-5.418224 2.2604223,-10.375635 5.3472289,-13.2062347 0.406577,-0.3726207 1.081264,-0.1217083 1.081264,0.5767917 z m -0.02469,-12.467167 h 1.393912 c 1.965854,0 3.040943,-2.065954 3.040943,-4.613892 0,-0.955587 -0.286189,-1.843264 -0.747448,-2.579687 -0.768614,-1.227225 -0.670276,-2.034204 -1.898824,-2.034204 h -1.788583"
     style="fill:none;stroke:#000000;stroke-width:0.440973;stroke-linecap:butt;stroke-linejoin:miter;stroke-miterlimit:1.5;stroke-dasharray:none;stroke-opacity:1" /><path
     id="path40"
     d="m 28.574551,17.587593 0.819327,-0.661897 0.874448,0.661897 0.751856,11.13852 -0.779637,0.661897 -0.913696,-0.661897 z m 0.819327,-0.661897 0.846667,12.462314 m 0.02778,-11.800417 0.819324,-0.661897 0.874009,0.661897 0.752298,11.13852 -0.77964,0.661897 -0.914135,-0.661897 z m 0.819324,-0.661897 0.846667,12.462314 m 0.02734,-11.800417 0.819325,-0.661897 0.874447,0.661897 0.751859,11.13852 -0.77964,0.661897 -0.913693,-0.661897 z m 0.819325,-0.661897 0.846666,12.462314 m 0.02778,-11.800417 0.819327,-0.661897 0.874006,0.661897 0.752301,11.13852 -0.77964,0.661897 -0.914135,-0.661897 z m 0.819327,-0.661897 0.846667,12.462314 m 0.02734,-11.800417 0.819328,-0.661897 0.874447,0.661897 0.751859,11.13852 -0.77964,0.661897 -0.913693,-0.661897 z m 0.819328,-0.661897 0.846666,12.462314 m 0.02778,-11.800417 0.819327,-0.661897 0.874006,0.661897 0.752298,11.13852 -0.779637,0.661897 -0.914135,-0.661897 z m 0.819327,-0.661897 0.846667,12.462314 m 0.02734,-11.800417 0.819327,-0.661897 0.874448,0.661897 0.751856,11.13852 -0.779637,0.661897 -0.913696,-0.661897 z m 0.819327,-0.661897 0.846667,12.462314 m 0.02778,-11.800417 0.819325,-0.661897 0.874008,0.661897 0.752298,11.13852 -0.77964,0.661897 -0.914135,-0.661897 z m 0.819325,-0.661897 0.846666,12.462314 m 0.02734,-11.800417 0.819325,-0.661897 0.874448,0.661897 0.751858,11.13852 -0.77964,0.661897 -0.913693,-0.661897 z m 0.819325,-0.661897 0.846666,12.462314 m 0.02778,-11.800417 0.819327,-0.661897 0.874006,0.661897 0.7523,11.13852 -0.77964,0.661897 -0.914135,-0.661897 z m 0.819327,-0.661897 0.846666,12.462314 m 0.02734,-11.800417 0.819327,-0.661897 0.874448,0.661897 0.751858,11.13852 -0.77964,0.661897 -0.913693,-0.661897 z m 0.819327,-0.661897 0.846666,12.462314 m 0.02778,-11.800417 0.819327,-0.661897 0.874006,0.661897 0.752297,11.13852 -0.779637,0.661897 -0.914135,-0.661897 z m 0.819327,-0.661897 0.846666,12.462314 m 0.02734,-11.800417 0.819327,-0.661897 0.874448,0.661897 0.751855,11.13852 -0.779637,0.661897 -0.913696,-0.661897 z"
     style="fill:none;stroke:#000000;stroke-width:0.330729;stroke-linecap:butt;stroke-linejoin:miter;stroke-miterlimit:1.5;stroke-dasharray:none;stroke-opacity:1" /><path
     id="path41"
     d="m 49.716523,16.925693 0.846667,12.462315 m 0.02778,-11.800417 0.819325,-0.661898 0.874008,0.661898 0.751856,11.138519 -0.779198,0.661898 -0.914135,-0.661898 z m 0.819325,-0.661898 0.846666,12.462315 m 0.02734,-11.800417 0.819325,-0.661898 0.874447,0.661898 0.751859,11.138519 -0.77964,0.661898 -0.914135,-0.661898 z m 0.819325,-0.661898 0.846666,12.462315 m 0.02778,-11.800417 0.819328,-0.661898 0.874006,0.661898 0.751858,11.138519 -0.779198,0.661898 -0.914135,-0.661898 z m 0.819328,-0.661898 0.846666,12.462315 m 0.02734,-11.800417 0.819327,-0.661898 0.874447,0.661898 0.751856,11.138519 -0.779637,0.661898 -0.914135,-0.661898 z m 0.819327,-0.661898 0.846666,12.462315 m 0.02778,-11.800417 0.819325,-0.661898 0.874008,0.661898 0.751856,11.138519 -0.779198,0.661898 -0.914135,-0.661898 z m 0.819325,-0.661898 0.846666,12.462315 m 0.02734,-11.800417 0.819325,-0.661898 0.874448,0.661898 0.751858,11.138519 -0.779639,0.661898 -0.914136,-0.661898 z m 0.819325,-0.661898 0.846667,12.462315 m 0.02778,-11.800417 0.819327,-0.661898 0.874006,0.661898 0.751858,11.138519 -0.779198,0.661898 -0.914135,-0.661898 z m 0.819327,-0.661898 0.846666,12.462315 m 0.02734,-11.800417 0.819327,-0.661898 0.874448,0.661898 0.751858,11.138519 -0.77964,0.661898 -0.914135,-0.661898 z m 0.819327,-0.661898 0.846666,12.462315 m 0.02778,-11.800417 0.819327,-0.661898 0.874006,0.661898 0.752297,11.138519 -0.779637,0.661898 -0.914135,-0.661898 z m 0.819327,-0.661898 0.846666,12.462315 m 0.779637,-0.661898 -0.752297,-11.138519 0.819327,-0.661898 z m -38.037814,0.661898 -1.485635,-9.125919 0.27296,8.79475 0.629269,-0.330729 0.583406,0.661898 0.779637,-0.661898 -0.752297,-11.138519 -0.874006,-0.661898 z"
     style="fill:none;stroke:#000000;stroke-width:0.330729;stroke-linecap:butt;stroke-linejoin:miter;stroke-miterlimit:1.5;stroke-dasharray:none;stroke-opacity:1" /><path
     id="path42"
     d="m 12.420863,23.167656 h 1.393912 c 1.965854,0 3.040943,2.065515 3.040943,4.613894 0,0.955585 -0.286189,1.843262 -0.747448,2.579688 -0.768614,1.227225 -0.502266,1.670844 -1.531053,2.034204 H 12.420863 M 16.10827,15.974077 c 0.458171,0.702027 0.739952,0.951619 3.024629,0.951619 h 8.567646 M 16.10827,30.361238 c 0.458171,-0.70203 0.668073,-1.304396 2.658623,-1.304396 h 8.567646"
     style="fill:none;stroke:#000000;stroke-width:0.440973;stroke-linecap:butt;stroke-linejoin:miter;stroke-miterlimit:1.5;stroke-dasharray:none;stroke-opacity:1" /><path
     id="path43"
     d="M 68.423001,23.167656 H 4.6416719"
     style="fill:none;stroke:#000000;stroke-width:0.110243;stroke-linecap:butt;stroke-linejoin:miter;stroke-miterlimit:1.5;stroke-dasharray:22.0539, 0.881943, 2.2053, 0.881943;stroke-dashoffset:0;stroke-opacity:1" /><path
     id="path44"
     d="M 113.45861,7.2975057 V 39.162158 M 97.591986,23.167653 h 31.857154"
     style="fill:none;stroke:#000000;stroke-width:0.110243;stroke-linecap:butt;stroke-linejoin:miter;stroke-miterlimit:1.5;stroke-dasharray:13.8941, 0.881943, 2.2053, 0.881943;stroke-dashoffset:0;stroke-opacity:1" /><path
     id="path46"
     d="M 0,1.4832868 H 3.6243492"
     style="fill:none;stroke:#000000;stroke-width:0.220486;stroke-linecap:butt;stroke-linejoin:miter;stroke-miterlimit:10;stroke-dasharray:none;stroke-opacity:1" /><path
     id="path47"
     d="M 5.61269,0.3103016 V 19.986041 M 12.641345,0.34425822 V 8.9577688 m 4.17336,-4.112948 V 18.210245"
     style="fill:none;stroke:#000000;stroke-width:0.110243;stroke-linecap:butt;stroke-linejoin:miter;stroke-miterlimit:10;stroke-dasharray:none;stroke-opacity:1" /><path
     id="path49"
     d="m 18.693249,6.7405578 h 3.491616 M 7.0290943,6.7101307 h 3.6243497"
     style="fill:none;stroke:#000000;stroke-width:0.220486;stroke-linecap:butt;stroke-linejoin:miter;stroke-miterlimit:10;stroke-dasharray:none;stroke-opacity:1" /><path
     id="path51"
     d="m 14.520331,42.490619 h 22.76695 m 4.410162,0 h 23.009486"
     style="fill:none;stroke:#000000;stroke-width:0.220486;stroke-linecap:butt;stroke-linejoin:miter;stroke-miterlimit:10;stroke-dasharray:none;stroke-opacity:1" /><path
     id="path52"
     d="M 66.695272,43.663604 V 29.38801 M 12.641348,43.62965 v -5.072062"
     style="fill:none;stroke:#000000;stroke-width:0.110243;stroke-linecap:butt;stroke-linejoin:miter;stroke-miterlimit:10;stroke-dasharray:none;stroke-opacity:1" /><path
     id="path54"
     d="m 19.428351,33.79685 v -6.396302 m 0,-15.040682 v 6.95325 M 123.26097,6.5985639 l 1.88472,1.8851563"
     style="fill:none;stroke:#000000;stroke-width:0.220486;stroke-linecap:butt;stroke-linejoin:miter;stroke-miterlimit:10;stroke-dasharray:none;stroke-opacity:1" /><path
     id="path55"
     d="m 132.19022,13.918703 -5.11528,5.1166 m -1.10243,1.102871 -2.59071,2.591155 m -0.62,-18.2893233 -5.11175,5.1126312 m -1.10244,1.1028701 -2.61849,2.619375"
     style="fill:none;stroke:#000000;stroke-width:0.110243;stroke-linecap:butt;stroke-linejoin:miter;stroke-miterlimit:10;stroke-dasharray:none;stroke-opacity:1" /><path
     id="path56-0"
     d="m 105.9462,42.879557 h 5.15232"
     style="fill:none;stroke:#000000;stroke-width:0.220486;stroke-linecap:butt;stroke-linejoin:miter;stroke-miterlimit:10;stroke-dasharray:none;stroke-opacity:1" /><path
     id="path57"
     d="M 103.78764,44.018588 V 23.724162 m 19.34148,20.32838 v -20.32838"
     style="fill:none;stroke:#000000;stroke-width:0.110243;stroke-linecap:butt;stroke-linejoin:miter;stroke-miterlimit:10;stroke-dasharray:none;stroke-opacity:1" /><path
     style="fill:#000000;fill-opacity:1;fill-rule:nonzero;stroke:none;stroke-width:0.441039"
     d="M 38.682371,44.144863"
     id="path4" /><path
     id="path59"
     d="m 14.520331,1.4832868 h 3.491616"
     style="fill:none;stroke:#000000;stroke-width:0.220486;stroke-linecap:butt;stroke-linejoin:miter;stroke-miterlimit:10;stroke-dasharray:none;stroke-opacity:1" /><path
     id="path60"
     d="M 12.641345,1.5079831 14.909266,0.73010805 V 2.2774787 l -2.237494,-0.7615581 -0.03043,-0.00794"
     style="fill:#000000;fill-opacity:1;fill-rule:nonzero;stroke:none;stroke-width:0.440973" /><path
     id="path61-5"
     d="M 5.61269,1.5013685 3.3447693,2.2792435 V 0.73187017 l 2.2374936,0.76200003 0.030427,0.00749"
     style="fill:#000000;fill-opacity:1;fill-rule:nonzero;stroke:none;stroke-width:0.440973" /><path
     id="path62"
     d="m 16.849543,6.7542288 2.267478,-0.777875 v 1.5478126 l -2.237493,-0.7620001 -0.02998,-0.00794"
     style="fill:#000000;fill-opacity:1;fill-rule:nonzero;stroke:none;stroke-width:0.440973" /><path
     id="path63"
     d="M 12.641345,6.7282124 10.373867,7.5065266 V 5.958714 l 2.237493,0.7620001 0.02998,0.00749"
     style="fill:#000000;fill-opacity:1;fill-rule:nonzero;stroke:none;stroke-width:0.440973" /><path
     id="path64"
     d="m 121.91513,5.2871142 2.15371,1.0539254 -1.0945,1.0940521 -1.04334,-2.1210773 -0.0159,-0.0269"
     style="fill:#000000;fill-opacity:1;fill-rule:nonzero;stroke:none;stroke-width:0.440973" /><path
     id="path65"
     d="m 103.77309,42.861475 2.26792,-0.777875 v 1.547813 l -2.23749,-0.762001 -0.0304,-0.0079"
     style="fill:#000000;fill-opacity:1;fill-rule:nonzero;stroke:none;stroke-width:0.440973" /><path
     id="path66"
     d="m 131.38236,14.747291 -2.15327,-1.053923 1.09405,-1.094052 1.04334,2.121078 0.0159,0.0269"
     style="fill:#000000;fill-opacity:1;fill-rule:nonzero;stroke:none;stroke-width:0.440973" /><path
     id="path67-8"
     d="m 123.12913,42.85486 -2.26792,0.778315 v -1.547813 l 2.23749,0.762 0.0304,0.0075"
     style="fill:#000000;fill-opacity:1;fill-rule:nonzero;stroke:none;stroke-width:0.440973" /><path
     id="path68"
     d="m 12.641345,42.490619 2.267921,-0.777875 v 1.547813 l -2.237494,-0.762 -0.03043,-0.0079"
     style="fill:#000000;fill-opacity:1;fill-rule:nonzero;stroke:none;stroke-width:0.440973" /><path
     id="path69"
     d="m 66.695272,42.472537 -2.26792,0.778315 v -1.547813 l 2.237493,0.762 0.03043,0.0075"
     style="fill:#000000;fill-opacity:1;fill-rule:nonzero;stroke:none;stroke-width:0.440973" /><path
     id="path70"
     d="m 19.403655,10.480885 0.777875,2.268363 h -1.547373 l 0.762,-2.238375 0.0075,-0.02999"
     style="fill:#000000;fill-opacity:1;fill-rule:nonzero;stroke:none;stroke-width:0.440973" /><path
     id="path71"
     d="m 19.41027,35.970402 -0.777875,-2.267921 h 1.54737 l -0.761558,2.237933 -0.0079,0.02999"
     style="fill:#000000;fill-opacity:1;fill-rule:nonzero;stroke:none;stroke-width:0.440973" /><path
     id="path72"
     d="m 16.938622,30.261577 v 10.048434 m -2.067718,-7.54239 -0.933979,6.253427"
     style="fill:none;stroke:#000000;stroke-width:0.110243;stroke-linecap:butt;stroke-linejoin:miter;stroke-miterlimit:10;stroke-dasharray:none;stroke-opacity:1" /><path
     id="path73"
     d="m 17.720022,38.951375 h 1.212233"
     style="fill:none;stroke:#000000;stroke-width:0.220486;stroke-linecap:butt;stroke-linejoin:miter;stroke-miterlimit:10;stroke-dasharray:none;stroke-opacity:1" /><path
     id="path74"
     d="m 16.89232,38.957548 1.018204,-0.34925 v 0.69497 l -1.004535,-0.342193 -0.01368,-0.0035"
     style="fill:#000000;fill-opacity:1;fill-rule:nonzero;stroke:none;stroke-width:0.440973" /><path
     id="path76"
     d="m 31.760829,37.684018 c 0,-0.120147 0.02842,-0.235127 0.08785,-0.346231 0.05813,-0.113689 0.140816,-0.198956 0.248046,-0.258384 0.109813,-0.06201 0.232543,-0.09302 0.366901,-0.09302 0.20929,0 0.379822,0.06976 0.511598,0.206706 0.134358,0.134358 0.201538,0.303599 0.201538,0.506428 0,0.210582 -0.06718,0.38499 -0.201538,0.521933 -0.134358,0.134358 -0.303599,0.201539 -0.506428,0.201539 -0.1279,0 -0.248047,-0.02842 -0.361736,-0.08268 -0.113689,-0.05814 -0.200247,-0.14211 -0.258381,-0.253214 -0.05943,-0.109813 -0.08785,-0.244171 -0.08785,-0.403077 z m 0.372071,0.02066 c 0,0.138237 0.03101,0.24288 0.09302,0.315227 0.06459,0.07235 0.145987,0.108522 0.24288,0.108522 0.09302,0 0.170532,-0.03617 0.232542,-0.108522 0.06459,-0.07235 0.09819,-0.17699 0.09819,-0.315227 0,-0.134358 -0.03359,-0.237709 -0.09819,-0.310057 -0.06201,-0.07235 -0.139525,-0.108522 -0.232542,-0.108522 -0.09689,0 -0.178285,0.03617 -0.24288,0.108522 -0.06201,0.07235 -0.09302,0.175699 -0.09302,0.310057 z m 0,0"
     style="fill:#000000;fill-opacity:1;fill-rule:nonzero;stroke:none;stroke-width:0.44101"
     aria-label="o" /><path
     id="path78"
     d="M 11.22274,10.049173 V 36.002591"
     style="fill:#000000;fill-opacity:1;fill-rule:nonzero;stroke:#000000;stroke-width:0.440973;stroke-linecap:butt;stroke-linejoin:miter;stroke-miterlimit:4;stroke-dasharray:none;stroke-opacity:1" /><path
     id="path79"
     d="m 116.29846,42.693025 h 4.89524 m 2.06727,-36.0944585 1.88472,1.8851563 m 3.18426,3.1869062 1.88471,1.885156"
     style="fill:none;stroke:#000000;stroke-width:0.220486;stroke-linecap:butt;stroke-linejoin:miter;stroke-miterlimit:10;stroke-dasharray:none;stroke-opacity:1" /><path
     style="fill:none;stroke:#000000;stroke-width:0.142895;stroke-linecap:butt;stroke-linejoin:miter;stroke-miterlimit:10;stroke-dasharray:none;stroke-opacity:1"
     d="m 94.3734,36.885307 h 8.8779"
     id="path11" /><path
     style="fill:none;stroke:#000000;stroke-width:0.121054;stroke-linecap:butt;stroke-linejoin:miter;stroke-miterlimit:10;stroke-dasharray:none;stroke-opacity:1"
     d="M 104.27862,36.853687 H 110.65"
     id="path10" /><path
     style="fill:none;stroke:#000000;stroke-width:0.129378;stroke-linecap:butt;stroke-linejoin:miter;stroke-miterlimit:10;stroke-dasharray:none;stroke-opacity:1"
     d="M 94.244193,9.3989162 H 111.4428"
     id="path9" /><path
     style="fill:none;stroke:#000000;stroke-width:0.110243;stroke-linecap:butt;stroke-linejoin:miter;stroke-miterlimit:10;stroke-dasharray:none;stroke-opacity:1"
     d="m 17.364157,35.965544 h 3.681235"
     id="path8" /><path
     style="fill:none;stroke:#000000;stroke-width:0.110243;stroke-linecap:butt;stroke-linejoin:miter;stroke-miterlimit:10;stroke-dasharray:none;stroke-opacity:1"
     d="M 14.687455,35.984064 H 16.67183"
     id="path7" /><path
     style="fill:none;stroke:#000000;stroke-width:0.110243;stroke-linecap:butt;stroke-linejoin:miter;stroke-miterlimit:10;stroke-dasharray:none;stroke-opacity:1"
     d="m 17.167924,10.205271 h 4.025634"
     id="path6" /><path
     style="fill:none;stroke:#000000;stroke-width:0.110243;stroke-linecap:butt;stroke-linejoin:miter;stroke-miterlimit:10;stroke-dasharray:none;stroke-opacity:1"
     d="m 12.757762,10.196461 h 3.803827"
     id="path5" /><path
     style="fill:none;stroke:#000000;stroke-width:0.110243;stroke-linecap:butt;stroke-linejoin:miter;stroke-miterlimit:10;stroke-dasharray:none;stroke-opacity:1"
     d="m 12.715429,35.952323 h 1.273526"
     id="path80" /><path
     style="fill:none;stroke:#000000;stroke-width:0.220486;stroke-linecap:butt;stroke-linejoin:miter;stroke-miterlimit:10;stroke-dasharray:none;stroke-opacity:1"
     d="m 95.185232,11.397224 v 9.53338"
     id="path12" /><path
     style="fill:none;stroke:#000000;stroke-width:0.238702;stroke-linecap:butt;stroke-linejoin:miter;stroke-miterlimit:10;stroke-dasharray:none;stroke-opacity:1"
     d="M 95.185232,34.738766 V 25.275833"
     id="path81-0" /><path
     id="path82"
     d="m 95.160096,9.5182437 0.777876,2.2683603 h -1.547374 l 0.762,-2.2379332 0.0075,-0.030427"
     style="fill:#000000;fill-opacity:1;fill-rule:nonzero;stroke:none;stroke-width:0.440973" /><path
     id="path83"
     d="M 95.166711,36.91276 94.388836,34.6444 h 1.547813 l -0.762001,2.237933 -0.0079,0.03043"
     style="fill:#000000;fill-opacity:1;fill-rule:nonzero;stroke:none;stroke-width:0.440973" /><path
     id="path84"
     d="M 13.243272,38.153656 11.875819,37.564958"
     style="fill:none;stroke:#000000;stroke-width:0.220486;stroke-linecap:butt;stroke-linejoin:miter;stroke-miterlimit:10;stroke-dasharray:none;stroke-opacity:1" /><path
     id="path85"
     d="m 14.044521,38.361796 -1.073769,0.07364 0.179916,-0.670719 0.881504,0.590021 0.01236,0.0071"
     style="fill:#000000;fill-opacity:1;fill-rule:nonzero;stroke:none;stroke-width:0.440973" /><path
     id="path86"
     d="M 12.647521,37.509838 V 36.462527"
     style="fill:none;stroke:#000000;stroke-width:0.110243;stroke-linecap:butt;stroke-linejoin:miter;stroke-miterlimit:10;stroke-dasharray:none;stroke-opacity:1" /><path
     id="path87"
     d="m 29.707412,13.102025 h 13.791401 m 6.140098,0 h 15.270866"
     style="fill:none;stroke:#000000;stroke-width:0.220486;stroke-linecap:butt;stroke-linejoin:miter;stroke-miterlimit:10;stroke-dasharray:none;stroke-opacity:1" /><path
     id="path88"
     d="m 66.897679,16.814568 v -5.88301 m -38.883161,4.896995 v -5.072502"
     style="fill:none;stroke:#000000;stroke-width:0.110243;stroke-linecap:butt;stroke-linejoin:miter;stroke-miterlimit:10;stroke-dasharray:none;stroke-opacity:1" /><path
     id="path90"
     d="m 28.014518,13.102025 2.267918,-0.777875 v 1.547812 l -2.237491,-0.762 -0.03043,-0.0079"
     style="fill:#000000;fill-opacity:1;fill-rule:nonzero;stroke:none;stroke-width:0.440973" /><path
     id="path91"
     d="m 66.897679,13.083943 -2.267921,0.778314 v -1.547812 l 2.237933,0.762 0.02999,0.0075"
     style="fill:#000000;fill-opacity:1;fill-rule:nonzero;stroke:none;stroke-width:0.440973" /><text
     xml:space="preserve"
     style="font-style:normal;font-variant:normal;font-weight:normal;font-stretch:normal;font-size:3.52777px;line-height:125%;font-family:Sans;-inkscape-font-specification:'Sans, Normal';font-variant-ligatures:none;font-variant-caps:normal;font-variant-numeric:normal;font-variant-east-asian:normal;letter-spacing:0px;word-spacing:0px;fill:#000000;fill-opacity:1;stroke:none;stroke-width:0.264583px;stroke-linecap:butt;stroke-linejoin:miter;stroke-opacity:1"
     x="7.9331656"
     y="2.6802783"
     id="text1"><tspan
       sodipodi:role="line"
       id="tspan1"
       style="font-style:normal;font-variant:normal;font-weight:normal;font-stretch:normal;font-size:3.52777px;font-family:Sans;-inkscape-font-specification:'Sans, Normal';font-variant-ligatures:none;font-variant-caps:normal;font-variant-numeric:normal;font-variant-east-asian:normal;fill:#000000;fill-opacity:1;stroke:none;stroke-width:0.264583px"
       x="7.9331656"
       y="2.6802783">h</tspan></text><text
     xml:space="preserve"
     style="font-style:normal;font-variant:normal;font-weight:normal;font-stretch:normal;font-size:3.52777px;line-height:125%;font-family:Sans;-inkscape-font-specification:'Sans, Normal';font-variant-ligatures:none;font-variant-caps:normal;font-variant-numeric:normal;font-variant-east-asian:normal;letter-spacing:0px;word-spacing:0px;fill:#000000;fill-opacity:1;stroke:none;stroke-width:0.264583px;stroke-linecap:butt;stroke-linejoin:miter;stroke-opacity:1"
     x="23.906424"
     y="7.5581608"
     id="text2"><tspan
       sodipodi:role="line"
       id="tspan2"
       style="font-style:normal;font-variant:normal;font-weight:normal;font-stretch:normal;font-size:3.52777px;font-family:Sans;-inkscape-font-specification:'Sans, Normal';font-variant-ligatures:none;font-variant-caps:normal;font-variant-numeric:normal;font-variant-east-asian:normal;fill:#000000;fill-opacity:1;stroke:none;stroke-width:0.264583px"
       x="23.906424"
       y="7.5581608">p</tspan></text><text
     xml:space="preserve"
     style="font-style:normal;font-variant:normal;font-weight:normal;font-stretch:normal;font-size:3.52777px;line-height:125%;font-family:Sans;-inkscape-font-specification:'Sans, Normal';font-variant-ligatures:none;font-variant-caps:normal;font-variant-numeric:normal;font-variant-east-asian:normal;letter-spacing:0px;word-spacing:0px;fill:#000000;fill-opacity:1;stroke:none;stroke-width:0.264583px;stroke-linecap:butt;stroke-linejoin:miter;stroke-opacity:1"
     x="38.978168"
     y="43.722637"
     id="text3"><tspan
       sodipodi:role="line"
       id="tspan3"
       style="font-style:normal;font-variant:normal;font-weight:normal;font-stretch:normal;font-size:3.52777px;font-family:Sans;-inkscape-font-specification:'Sans, Normal';font-variant-ligatures:none;font-variant-caps:normal;font-variant-numeric:normal;font-variant-east-asian:normal;fill:#000000;fill-opacity:1;stroke:none;stroke-width:0.264583px"
       x="38.978168"
       y="43.722637">l</tspan></text><text
     xml:space="preserve"
     style="font-style:normal;font-variant:normal;font-weight:normal;font-stretch:normal;font-size:3.52777px;line-height:125%;font-family:Sans;-inkscape-font-specification:'Sans, Normal';font-variant-ligatures:none;font-variant-caps:normal;font-variant-numeric:normal;font-variant-east-asian:normal;letter-spacing:0px;word-spacing:0px;fill:#000000;fill-opacity:1;stroke:none;stroke-width:0.264583px;stroke-linecap:butt;stroke-linejoin:miter;stroke-opacity:1"
     x="44.972076"
     y="14.339959"
     id="text4"><tspan
       sodipodi:role="line"
       id="tspan4"
       style="font-style:normal;font-variant:normal;font-weight:normal;font-stretch:normal;font-size:3.52777px;font-family:Sans;-inkscape-font-specification:'Sans, Normal';font-variant-ligatures:none;font-variant-caps:normal;font-variant-numeric:normal;font-variant-east-asian:normal;fill:#000000;fill-opacity:1;stroke:none;stroke-width:0.264583px"
       x="44.972076"
       y="14.339959">l1</tspan></text><text
     xml:space="preserve"
     style="font-style:normal;font-variant:normal;font-weight:normal;font-stretch:normal;font-size:3.52777px;line-height:125%;font-family:Sans;-inkscape-font-specification:'Sans, Normal';font-variant-ligatures:none;font-variant-caps:normal;font-variant-numeric:normal;font-variant-east-asian:normal;letter-spacing:0px;word-spacing:0px;fill:#000000;fill-opacity:1;stroke:none;stroke-width:0.264583px;stroke-linecap:butt;stroke-linejoin:miter;stroke-opacity:1"
     x="20.708874"
     y="40.098709"
     id="text5"><tspan
       sodipodi:role="line"
       id="tspan5"
       style="font-style:normal;font-variant:normal;font-weight:normal;font-stretch:normal;font-size:3.52777px;font-family:Sans;-inkscape-font-specification:'Sans, Normal';font-variant-ligatures:none;font-variant-caps:normal;font-variant-numeric:normal;font-variant-east-asian:normal;fill:#000000;fill-opacity:1;stroke:none;stroke-width:0.264583px"
       x="20.708874"
       y="40.098709">10-15</tspan></text><text
     xml:space="preserve"
     style="font-style:normal;font-variant:normal;font-weight:normal;font-stretch:normal;font-size:3.52777px;line-height:125%;font-family:Sans;-inkscape-font-specification:'Sans, Normal';font-variant-ligatures:none;font-variant-caps:normal;font-variant-numeric:normal;font-variant-east-asian:normal;letter-spacing:0px;word-spacing:0px;fill:#000000;fill-opacity:1;stroke:none;stroke-width:0.264583px;stroke-linecap:butt;stroke-linejoin:miter;stroke-opacity:1"
     x="94.125"
     y="23.865845"
     id="text12"><tspan
       sodipodi:role="line"
       id="tspan12"
       style="font-style:normal;font-variant:normal;font-weight:normal;font-stretch:normal;font-size:3.52777px;font-family:Sans;-inkscape-font-specification:'Sans, Normal';font-variant-ligatures:none;font-variant-caps:normal;font-variant-numeric:normal;font-variant-east-asian:normal;fill:#000000;fill-opacity:1;stroke:none;stroke-width:0.264583px"
       x="94.125"
       y="23.865845">a</tspan></text><text
     xml:space="preserve"
     style="font-style:normal;font-variant:normal;font-weight:normal;font-stretch:normal;font-size:3.52777px;line-height:125%;font-family:Sans;-inkscape-font-specification:'Sans, Normal';font-variant-ligatures:none;font-variant-caps:normal;font-variant-numeric:normal;font-variant-east-asian:normal;letter-spacing:0px;word-spacing:0px;fill:#000000;fill-opacity:1;stroke:none;stroke-width:0.264583px;stroke-linecap:butt;stroke-linejoin:miter;stroke-opacity:1"
     x="125.71088"
     y="11.061295"
     id="text13"><tspan
       sodipodi:role="line"
       id="tspan13"
       style="font-style:normal;font-variant:normal;font-weight:normal;font-stretch:normal;font-size:3.52777px;font-family:Sans;-inkscape-font-specification:'Sans, Normal';font-variant-ligatures:none;font-variant-caps:normal;font-variant-numeric:normal;font-variant-east-asian:normal;fill:#000000;fill-opacity:1;stroke:none;stroke-width:0.264583px"
       x="125.71088"
       y="11.061295">o</tspan></text><text
     xml:space="preserve"
     style="font-style:normal;font-variant:normal;font-weight:normal;font-stretch:normal;font-size:3.52777px;line-height:125%;font-family:Sans;-inkscape-font-specification:'Sans, Normal';font-variant-ligatures:none;font-variant-caps:normal;font-variant-numeric:normal;font-variant-east-asian:normal;letter-spacing:0px;word-spacing:0px;fill:#000000;fill-opacity:1;stroke:none;stroke-width:0.264583px;stroke-linecap:butt;stroke-linejoin:miter;stroke-opacity:1"
     x="112.66474"
     y="43.676659"
     id="text14"><tspan
       sodipodi:role="line"
       id="tspan14"
       style="font-style:normal;font-variant:normal;font-weight:normal;font-stretch:normal;font-size:3.52777px;font-family:Sans;-inkscape-font-specification:'Sans, Normal';font-variant-ligatures:none;font-variant-caps:normal;font-variant-numeric:normal;font-variant-east-asian:normal;fill:#000000;fill-opacity:1;stroke:none;stroke-width:0.264583px"
       x="112.66474"
       y="43.676659">c</tspan></text><text
     xml:space="preserve"
     style="font-size:3.52777px;line-height:125%;font-family:sans-serif;-inkscape-font-specification:'sans-serif, ';font-variant-ligatures:none;letter-spacing:0px;word-spacing:0px;fill:#000000;fill-opacity:1;stroke:none;stroke-width:0.264583px;stroke-linecap:butt;stroke-linejoin:miter;stroke-opacity:1"
     x="18.246943"
     y="24.45812"
     id="text15"><tspan
       sodipodi:role="line"
       id="tspan15"
       style="fill:#000000;fill-opacity:1;stroke:none;stroke-width:0.264583px"
       x="18.246943"
       y="24.45812">b</tspan></text></svg>
