<?xml version="1.0" encoding="UTF-8" standalone="no"?>
<!-- Created with Inkscape (http://www.inkscape.org/) -->

<svg
   width="106.85181mm"
   height="37.752865mm"
   viewBox="0 0 106.85181 37.752864"
   version="1.1"
   id="svg1"
   xml:space="preserve"
   sodipodi:docname="nut_hex_flange.svg"
   inkscape:version="1.3.2 (091e20e, 2023-11-25, custom)"
   xmlns:inkscape="http://www.inkscape.org/namespaces/inkscape"
   xmlns:sodipodi="http://sodipodi.sourceforge.net/DTD/sodipodi-0.dtd"
   xmlns="http://www.w3.org/2000/svg"
   xmlns:svg="http://www.w3.org/2000/svg"><sodipodi:namedview
     id="namedview1"
     pagecolor="#ffffff"
     bordercolor="#666666"
     borderopacity="1.0"
     inkscape:showpageshadow="2"
     inkscape:pageopacity="0.0"
     inkscape:pagecheckerboard="0"
     inkscape:deskcolor="#d1d1d1"
     inkscape:document-units="mm"
     inkscape:zoom="3.3675926"
     inkscape:cx="201.92466"
     inkscape:cy="71.416001"
     inkscape:window-width="1920"
     inkscape:window-height="1129"
     inkscape:window-x="-8"
     inkscape:window-y="-8"
     inkscape:window-maximized="1"
     inkscape:current-layer="g1"><inkscape:page
       x="-6.5593831e-06"
       y="-2.5603538e-06"
       width="106.85181"
       height="37.752865"
       id="page3"
       margin="0"
       bleed="0" /></sodipodi:namedview><defs
     id="defs1"><rect
       x="141.94116"
       y="10.690129"
       width="42.463568"
       height="116.70058"
       id="rect5" /></defs><g
     id="g1"
     inkscape:groupmode="layer"
     inkscape:label="1"
     transform="matrix(0.26458333,0,0,0.26458334,-59.370027,-46.125353)"><path
       id="path184"
       d="m 0,0 v -26.937 l -23.331,-13.469 -23.332,13.468 10e-4,26.937 23.331,13.469 z"
       style="fill:none;stroke:#000000;stroke-width:1;stroke-linecap:butt;stroke-linejoin:miter;stroke-miterlimit:1.5;stroke-dasharray:none;stroke-opacity:1"
       transform="matrix(1.3333333,0,0,-1.3333333,311.816,242.752)" /><path
       id="path185"
       d="M 0,0 C 12.878,0 23.317,-10.438 23.317,-23.314 23.317,-36.19 12.878,-46.629 0,-46.629 c -12.878,0 -23.318,10.439 -23.318,23.315 C -23.318,-10.438 -12.878,0 0,0 Z"
       style="fill:none;stroke:#000000;stroke-width:0.75;stroke-linecap:butt;stroke-linejoin:miter;stroke-miterlimit:1.5;stroke-dasharray:none;stroke-opacity:1"
       transform="matrix(1.3333333,0,0,-1.3333333,280.708,229.62533)" /><path
       id="path186"
       d="M 0,0 H 84.807"
       style="fill:none;stroke:#000000;stroke-width:0.25;stroke-linecap:butt;stroke-linejoin:miter;stroke-miterlimit:1.5;stroke-dasharray:14.001, 2, 5, 2;stroke-dashoffset:0;stroke-opacity:1"
       transform="matrix(1.3333333,0,0,-1.3333333,224.39067,260.71067)" /><path
       id="path187"
       d="m 0,0 c -7.444,0 -13.479,-6.033 -13.479,-13.476 0,-7.443 6.035,-13.477 13.479,-13.477 7.444,0 13.478,6.034 13.478,13.477 C 13.478,-6.033 7.444,0 0,0 Z m 0,2.531 c -8.842,0 -16.009,-7.167 -16.009,-16.007 0,-8.84 7.167,-16.007 16.009,-16.007 8.841,0 16.009,7.167 16.009,16.007 0,8.84 -7.168,16.007 -16.009,16.007 z m 0,17.162 c -18.321,0 -33.174,-14.851 -33.174,-33.169 0,-18.319 14.853,-33.17 33.174,-33.17 18.321,0 33.174,14.851 33.174,33.17 C 33.174,4.842 18.321,19.693 0,19.693 Z"
       style="fill:none;stroke:#000000;stroke-width:0.75;stroke-linecap:butt;stroke-linejoin:miter;stroke-miterlimit:1.5;stroke-dasharray:none;stroke-opacity:1"
       transform="matrix(1.3333333,0,0,-1.3333333,280.708,242.74267)" /><path
       id="path188"
       d="M 0,0 V -56.598"
       style="fill:none;stroke:#000000;stroke-width:0.25;stroke-linecap:butt;stroke-linejoin:miter;stroke-miterlimit:10;stroke-dasharray:none;stroke-opacity:1"
       transform="matrix(1.3333333,0,0,-1.3333333,235.1,177.44667)" /><path
       id="path189"
       d="m 0,0 5.233,1.794 v -3.57 L 0.07,-0.018 0,0"
       style="fill:#000000;fill-opacity:1;fill-rule:nonzero;stroke:none"
       transform="matrix(1.3333333,0,0,-1.3333333,235.1,181.00533)" /><path
       id="path191"
       d="M 0,0 H 22.264"
       style="fill:none;stroke:#000000;stroke-width:0.5;stroke-linecap:butt;stroke-linejoin:miter;stroke-miterlimit:10;stroke-dasharray:none;stroke-opacity:1"
       transform="matrix(1.3333333,0,0,-1.3333333,290.86267,181.00533)" /><path
       id="path192"
       d="m 0,0 -5.233,1.794 v -3.57 L -0.07,-0.018 0,0"
       style="fill:#000000;fill-opacity:1;fill-rule:nonzero;stroke:none"
       transform="matrix(1.3333333,0,0,-1.3333333,326.31467,181.00533)" /><path
       id="path193"
       d="M 0,0 V -56.598"
       style="fill:none;stroke:#000000;stroke-width:0.25;stroke-linecap:butt;stroke-linejoin:miter;stroke-miterlimit:10;stroke-dasharray:none;stroke-opacity:1"
       transform="matrix(1.3333333,0,0,-1.3333333,326.31467,177.44667)" /><path
       id="path194"
       d="M 0,0 H -21.995"
       style="fill:none;stroke:#000000;stroke-width:0.5;stroke-linecap:butt;stroke-linejoin:miter;stroke-miterlimit:10;stroke-dasharray:none;stroke-opacity:1"
       transform="matrix(1.3333333,0,0,-1.3333333,270.19333,181.00533)" /><path
       id="path195"
       d="M 0,0 V -33.799"
       style="fill:none;stroke:#000000;stroke-width:0.25;stroke-linecap:butt;stroke-linejoin:miter;stroke-miterlimit:10;stroke-dasharray:none;stroke-opacity:1"
       transform="matrix(1.3333333,0,0,-1.3333333,248.92133,194.97467)" /><path
       id="path196"
       d="M 0,0 5.232,1.795 V -1.776 L 0.069,-0.018 0,0"
       style="fill:#000000;fill-opacity:1;fill-rule:nonzero;stroke:none"
       transform="matrix(1.3333333,0,0,-1.3333333,248.92133,198.53333)" /><path
       id="path198"
       d="M 0,0 H 13.16"
       style="fill:none;stroke:#000000;stroke-width:0.5;stroke-linecap:butt;stroke-linejoin:miter;stroke-miterlimit:10;stroke-dasharray:none;stroke-opacity:1"
       transform="matrix(1.3333333,0,0,-1.3333333,289.18133,198.53333)" /><path
       id="path199"
       d="M 0,0 -5.232,1.795 V -1.776 L -0.069,-0.018 0,0"
       style="fill:#000000;fill-opacity:1;fill-rule:nonzero;stroke:none"
       transform="matrix(1.3333333,0,0,-1.3333333,312.49333,198.53333)" /><path
       id="path200"
       d="M 0,0 V -33.799"
       style="fill:none;stroke:#000000;stroke-width:0.25;stroke-linecap:butt;stroke-linejoin:miter;stroke-miterlimit:10;stroke-dasharray:none;stroke-opacity:1"
       transform="matrix(1.3333333,0,0,-1.3333333,312.49333,194.97467)" /><path
       id="path201"
       d="M 0,0 V 83.073"
       style="fill:none;stroke:#000000;stroke-width:0.25;stroke-linecap:butt;stroke-linejoin:miter;stroke-miterlimit:1.5;stroke-dasharray:14.001, 2, 5, 2;stroke-dashoffset:0;stroke-opacity:1"
       transform="matrix(1.3333333,0,0,-1.3333333,280.708,317.02)" /><path
       id="path202"
       d="M 0,0 H 13.16"
       style="fill:none;stroke:#000000;stroke-width:0.5;stroke-linecap:butt;stroke-linejoin:miter;stroke-miterlimit:10;stroke-dasharray:none;stroke-opacity:1"
       transform="matrix(1.3333333,0,0,-1.3333333,254.74533,198.53333)" /><path
       id="path203"
       d="m 0,0 c 1.402,6.839 9.2,5.961 9.2,5.961 h 52.001 c 0,0 7.798,0.878 9.2,-5.961 M 9.2,5.961 c 0,0 6.201,-0.175 8.601,-4.736 0,0 5.504,4.736 17.401,4.736"
       style="fill:none;stroke:#000000;stroke-width:1;stroke-linecap:butt;stroke-linejoin:miter;stroke-miterlimit:10;stroke-dasharray:none;stroke-opacity:1"
       transform="matrix(1.3333333,0,0,-1.3333333,467.372,226.712)" /><path
       id="path204"
       d="M 0,0 C -2.4,1.941 -9.3,2.409 -9.3,2.409 -15.59,2.409 -17.801,0 -17.801,0 v 21.909"
       style="fill:#ffffff;fill-opacity:1;fill-rule:nonzero;stroke:#000000;stroke-width:1;stroke-linecap:butt;stroke-linejoin:miter;stroke-miterlimit:10;stroke-dasharray:none;stroke-opacity:1"
       transform="matrix(1.3333333,0,0,-1.3333333,491.10667,255.924)" /><path
       id="path205"
       d="m 0,0 v 23.134 m 43.3,4.736 c 0,0 -6.2,-0.175 -8.601,-4.736 0,0 -5.963,4.736 -17.401,4.736 M 34.699,0 v 23.134"
       style="fill:none;stroke:#000000;stroke-width:1;stroke-linecap:butt;stroke-linejoin:miter;stroke-miterlimit:10;stroke-dasharray:none;stroke-opacity:1"
       transform="matrix(1.3333333,0,0,-1.3333333,491.10667,255.924)" /><path
       id="path206"
       d="M 0,0 C 0,0 5.756,2.317 17.401,2.317"
       style="fill:#ffffff;fill-opacity:1;fill-rule:nonzero;stroke:#000000;stroke-width:1;stroke-linecap:butt;stroke-linejoin:miter;stroke-miterlimit:10;stroke-dasharray:none;stroke-opacity:1"
       transform="matrix(1.3333333,0,0,-1.3333333,491.10667,255.924)" /><path
       id="path207"
       d="M 0,0 C 0,0 -6.047,2.317 -17.401,2.317"
       style="fill:#ffffff;fill-opacity:1;fill-rule:nonzero;stroke:#000000;stroke-width:1;stroke-linecap:butt;stroke-linejoin:miter;stroke-miterlimit:10;stroke-dasharray:none;stroke-opacity:1"
       transform="matrix(1.3333333,0,0,-1.3333333,537.372,255.924)" /><path
       id="path208"
       d="M 0,0 C 2.399,1.941 9.4,2.409 9.4,2.409 15.753,2.409 17.901,0 17.901,0 v 21.909"
       style="fill:#ffffff;fill-opacity:1;fill-rule:nonzero;stroke:#000000;stroke-width:1;stroke-linecap:butt;stroke-linejoin:miter;stroke-miterlimit:10;stroke-dasharray:none;stroke-opacity:1"
       transform="matrix(1.3333333,0,0,-1.3333333,537.372,255.924)" /><path
       id="path209"
       d="M 0,0 C -4.774,4.389 -6.474,5.957 -9.897,7.449"
       style="fill:#ffffff;fill-opacity:1;fill-rule:nonzero;stroke:#000000;stroke-width:1;stroke-linecap:butt;stroke-linejoin:miter;stroke-miterlimit:10;stroke-dasharray:none;stroke-opacity:1"
       transform="matrix(1.3333333,0,0,-1.3333333,574.436,265.856)" /><path
       id="path210"
       d="M 0,0 C 3.734,3.434 5.174,5.34 10.014,7.449"
       style="fill:#ffffff;fill-opacity:1;fill-rule:nonzero;stroke:#000000;stroke-width:1;stroke-linecap:butt;stroke-linejoin:miter;stroke-miterlimit:10;stroke-dasharray:none;stroke-opacity:1"
       transform="matrix(1.3333333,0,0,-1.3333333,454.02,265.856)" /><path
       id="path211"
       d="M 0,0 V -52.229"
       style="fill:none;stroke:#000000;stroke-width:0.25;stroke-linecap:butt;stroke-linejoin:miter;stroke-miterlimit:1.5;stroke-dasharray:18.501, 2, 5, 2;stroke-dashoffset:0;stroke-opacity:1"
       transform="matrix(1.3333333,0,0,-1.3333333,514.23867,211.924)" /><path
       id="path212"
       d="M 0,0 H -54.163"
       style="fill:none;stroke:#000000;stroke-width:0.25;stroke-linecap:butt;stroke-linejoin:miter;stroke-miterlimit:10;stroke-dasharray:none;stroke-opacity:1"
       transform="matrix(1.3333333,0,0,-1.3333333,628.24,217.86667)" /><path
       id="path213"
       d="M 0,0 2.376,-6.924 H -2.349 L -0.023,-0.092 0,0"
       style="fill:#000000;fill-opacity:1;fill-rule:nonzero;stroke:none"
       transform="matrix(1.3333333,0,0,-1.3333333,623.52933,217.86667)" /><path
       id="path215"
       d="M 0,0 V -7.613"
       style="fill:none;stroke:#000000;stroke-width:0.5;stroke-linecap:butt;stroke-linejoin:miter;stroke-miterlimit:10;stroke-dasharray:none;stroke-opacity:1"
       transform="matrix(1.3333333,0,0,-1.3333333,623.52933,253.64133)" /><path
       id="path216"
       d="M 0,0 2.376,6.924 H -2.349 L -0.023,0.092 0,0"
       style="fill:#000000;fill-opacity:1;fill-rule:nonzero;stroke:none"
       transform="matrix(1.3333333,0,0,-1.3333333,623.52933,271.42267)" /><path
       id="path217"
       d="M 0,0 H -38.505"
       style="fill:none;stroke:#000000;stroke-width:0.25;stroke-linecap:butt;stroke-linejoin:miter;stroke-miterlimit:10;stroke-dasharray:none;stroke-opacity:1"
       transform="matrix(1.3333333,0,0,-1.3333333,628.24,271.42267)" /><path
       id="path218"
       d="M 0,0 V -7.614"
       style="fill:none;stroke:#000000;stroke-width:0.5;stroke-linecap:butt;stroke-linejoin:miter;stroke-miterlimit:10;stroke-dasharray:none;stroke-opacity:1"
       transform="matrix(1.3333333,0,0,-1.3333333,623.52933,225.72267)" /><path
       id="path219"
       d="M 0,0 H 90.312 V -3.434 H -0.086 Z"
       style="fill:#ffffff;fill-opacity:1;fill-rule:nonzero;stroke:#000000;stroke-width:1;stroke-linecap:butt;stroke-linejoin:miter;stroke-miterlimit:10;stroke-dasharray:none;stroke-opacity:1"
       transform="matrix(1.3333333,0,0,-1.3333333,454.02,265.856)" /><path
       id="path221"
       d="M 0,0 H -53.384"
       style="fill:none;stroke:#000000;stroke-width:0.25;stroke-linecap:butt;stroke-linejoin:miter;stroke-miterlimit:10;stroke-dasharray:none;stroke-opacity:1"
       transform="matrix(1.3333333,0,0,-1.3333333,353.53733,223.904)" /><path
       id="path222"
       d="M 0,0 1.795,-5.231 H -1.776 L -0.018,-0.069 0,0"
       style="fill:#000000;fill-opacity:1;fill-rule:nonzero;stroke:none"
       transform="matrix(1.3333333,0,0,-1.3333333,346.54,223.904)" /><path
       id="path224"
       d="M 0,0 V -16.717"
       style="fill:none;stroke:#000000;stroke-width:0.5;stroke-linecap:butt;stroke-linejoin:miter;stroke-miterlimit:10;stroke-dasharray:none;stroke-opacity:1"
       transform="matrix(1.3333333,0,0,-1.3333333,346.54,270.08)" /><path
       id="path225"
       d="M 0,0 1.795,5.231 H -1.776 L -0.018,0.069 0,0"
       style="fill:#000000;fill-opacity:1;fill-rule:nonzero;stroke:none"
       transform="matrix(1.3333333,0,0,-1.3333333,346.54,298.13467)" /><path
       id="path226"
       d="M 0,0 H -53.384"
       style="fill:none;stroke:#000000;stroke-width:0.25;stroke-linecap:butt;stroke-linejoin:miter;stroke-miterlimit:10;stroke-dasharray:none;stroke-opacity:1"
       transform="matrix(1.3333333,0,0,-1.3333333,353.53733,298.13467)" /><path
       id="path227"
       d="M 0,0 V -15.765"
       style="fill:none;stroke:#000000;stroke-width:0.5;stroke-linecap:butt;stroke-linejoin:miter;stroke-miterlimit:10;stroke-dasharray:none;stroke-opacity:1"
       transform="matrix(1.3333333,0,0,-1.3333333,346.54,229.72667)" /><text
       xml:space="preserve"
       style="font-style:normal;font-variant:normal;font-weight:normal;font-stretch:normal;font-size:13.3333px;line-height:125%;font-family:Sans;-inkscape-font-specification:'Sans, Normal';font-variant-ligatures:none;font-variant-caps:normal;font-variant-numeric:normal;font-variant-east-asian:normal;letter-spacing:0px;word-spacing:0px;fill:#000000;fill-opacity:1;stroke:none;stroke-width:1px;stroke-linecap:butt;stroke-linejoin:miter;stroke-opacity:1"
       x="276.6535"
       y="185.91301"
       id="text1"><tspan
         sodipodi:role="line"
         id="tspan1"
         x="276.6535"
         y="185.91301">b</tspan></text><text
       xml:space="preserve"
       style="font-style:normal;font-variant:normal;font-weight:normal;font-stretch:normal;font-size:13.3333px;line-height:125%;font-family:Sans;-inkscape-font-specification:'Sans, Normal';font-variant-ligatures:none;font-variant-caps:normal;font-variant-numeric:normal;font-variant-east-asian:normal;letter-spacing:0px;word-spacing:0px;fill:#000000;fill-opacity:1;stroke:none;stroke-width:1px;stroke-linecap:butt;stroke-linejoin:miter;stroke-opacity:1"
       x="277.84137"
       y="203.7299"
       id="text2"><tspan
         sodipodi:role="line"
         id="tspan2"
         x="277.84137"
         y="203.7299">f</tspan></text><text
       xml:space="preserve"
       style="font-style:normal;font-variant:normal;font-weight:normal;font-stretch:normal;font-size:13.3333px;line-height:125%;font-family:Sans;-inkscape-font-specification:'Sans, Normal';font-variant-ligatures:none;font-variant-caps:normal;font-variant-numeric:normal;font-variant-east-asian:normal;letter-spacing:0px;word-spacing:0px;fill:#000000;fill-opacity:1;stroke:none;stroke-width:1px;stroke-linecap:butt;stroke-linejoin:miter;stroke-opacity:1"
       x="342.27905"
       y="262.82254"
       id="text3"><tspan
         sodipodi:role="line"
         id="tspan3"
         x="342.27905"
         y="262.82254">g</tspan></text><text
       xml:space="preserve"
       style="font-style:normal;font-variant:normal;font-weight:normal;font-stretch:normal;font-size:13.3333px;line-height:125%;font-family:Sans;-inkscape-font-specification:'Sans, Normal';font-variant-ligatures:none;font-variant-caps:normal;font-variant-numeric:normal;font-variant-east-asian:normal;letter-spacing:0px;word-spacing:0px;fill:#000000;fill-opacity:1;stroke:none;stroke-width:1px;stroke-linecap:butt;stroke-linejoin:miter;stroke-opacity:1"
       x="619.03467"
       y="250.0538"
       id="text4"><tspan
         sodipodi:role="line"
         id="tspan4"
         x="619.03467"
         y="250.0538">h</tspan></text><text
       xml:space="preserve"
       transform="translate(224.39066,174.33204)"
       id="text5"
       style="fill:none;stroke:black;stroke-opacity:1;stroke-width:1px;stroke-linejoin:miter;stroke-linecap:butt;font-family:Sans;font-size:13.33333302px;line-height:125%;letter-spacing:0px;word-spacing:0px;-inkscape-font-specification:'Sans, Normal';font-variant-ligatures:none;white-space:pre;shape-inside:url(#rect5)" /></g></svg>
