<?xml version="1.0" encoding="UTF-8" standalone="no"?>
<!-- Created with Inkscape (http://www.inkscape.org/) -->

<svg
   width="104.33934mm"
   height="40.743767mm"
   viewBox="0 0 104.33934 40.743766"
   version="1.1"
   id="svg1"
   xml:space="preserve"
   sodipodi:docname="nut_hex_nylon_insert_stop.svg"
   inkscape:version="1.3.2 (091e20e, 2023-11-25, custom)"
   xmlns:inkscape="http://www.inkscape.org/namespaces/inkscape"
   xmlns:sodipodi="http://sodipodi.sourceforge.net/DTD/sodipodi-0.dtd"
   xmlns:xlink="http://www.w3.org/1999/xlink"
   xmlns="http://www.w3.org/2000/svg"
   xmlns:svg="http://www.w3.org/2000/svg"><sodipodi:namedview
     id="namedview1"
     pagecolor="#ffffff"
     bordercolor="#666666"
     borderopacity="1.0"
     inkscape:showpageshadow="2"
     inkscape:pageopacity="0.0"
     inkscape:pagecheckerboard="0"
     inkscape:deskcolor="#d1d1d1"
     inkscape:document-units="mm"
     inkscape:zoom="3.4486834"
     inkscape:cx="197.1767"
     inkscape:cy="77.275867"
     inkscape:window-width="1920"
     inkscape:window-height="1129"
     inkscape:window-x="-8"
     inkscape:window-y="-8"
     inkscape:window-maximized="1"
     inkscape:current-layer="g1"><inkscape:page
       x="-6.7943671e-07"
       y="-1.510826e-06"
       width="104.33933"
       height="40.743767"
       id="page3"
       margin="0"
       bleed="0" /></sodipodi:namedview><defs
     id="defs1"><pattern
       inkscape:collect="always"
       xlink:href="#Strips1_1"
       preserveAspectRatio="xMidYMid"
       id="pattern16"
       patternTransform="matrix(0.14142136,-0.14142136,0.14142136,0.14142136,0,0)"
       x="0"
       y="0" /><pattern
       inkscape:collect="always"
       patternUnits="userSpaceOnUse"
       width="2"
       height="10"
       patternTransform="translate(0,0) scale(2,2)"
       preserveAspectRatio="xMidYMid"
       id="Strips1_1"
       style="fill:#000000"
       inkscape:stockid="Stripes 01 (1:1)"
       inkscape:isstock="true"
       inkscape:label="Stripes 01 (1:1)">
      <rect
   style="stroke:none"
   x="0"
   y="-0.5"
   width="1"
   height="11"
   id="rect134" />
    </pattern><linearGradient
       id="swatch3"
       inkscape:swatch="solid"><stop
         style="stop-color:#000000;stop-opacity:1;"
         offset="0"
         id="stop3" /></linearGradient></defs><g
     id="g1"
     inkscape:groupmode="layer"
     inkscape:label="1"
     transform="matrix(0.26458333,0,0,0.26458334,-51.359498,-40.570135)"><path
       id="path178"
       d="M 0,0 H 63.487"
       style="fill:none;stroke:#000000;stroke-width:0.0992126;stroke-linecap:butt;stroke-linejoin:miter;stroke-miterlimit:1.5;stroke-dasharray:7.93303943,0.79330393,1.98345836,0.79330393;stroke-dashoffset:0;stroke-opacity:1"
       transform="matrix(1.3333333,0,0,-1.3333333,194.11467,232.25333)" /><path
       id="path179"
       d="M 0,0 C 0,-4.054 2.004,-7.326 4.835,-7.326 2.004,-7.326 0,-10.599 0,-14.652 m 36.796,7.326 H 4.835 M 41.631,0 c 0,-4.054 -2.004,-7.326 -4.835,-7.326 2.831,0 4.835,-3.273 4.835,-7.326 M 0,-19.862 c -7.039,0 -11.725,1.833 -11.725,5.206 V 37 c 0,3.374 4.686,5.206 11.725,5.206 0,2.671 2.165,5.642 4.835,5.642 h 31.961 c 2.67,0 4.835,-2.971 4.835,-5.642 v -62.068 c 0,-2.67 -2.165,-5.642 -4.835,-5.642 H 4.835 C 2.165,-25.504 0,-22.532 0,-19.862 V 11.172 M 41.625,36.495 36.583,31.452 H 5.138 v 7.83 H 0 c -7.039,0 -8.802,-1.157 -8.802,-4.531 V 11.172 m 13.94,20.28 v -20.28 m 31.445,20.28 v -20.28"
       style="fill:none;stroke:#000000;stroke-width:1;stroke-linecap:butt;stroke-linejoin:miter;stroke-miterlimit:1.5;stroke-dasharray:none;stroke-opacity:1"
       transform="matrix(1.3333333,0,0,-1.3333333,216.11733,247.14933)" /><path
       id="path180"
       d="m 0,0 v 7.83 h -5.138 c -7.039,0 -8.802,-1.157 -8.802,-4.531 V 0 Z"
       style="fill:url(#pattern16);fill-opacity:1;fill-rule:nonzero;stroke:#000000;stroke-width:0.25;stroke-linecap:butt;stroke-linejoin:miter;stroke-miterlimit:1.5;stroke-dasharray:1.999, 1;stroke-dashoffset:0;stroke-opacity:1"
       transform="matrix(1.3333333,0,0,-1.3333333,222.968,205.21333)" /><path
       id="path181"
       d="M 0,0 -6.13,6.131 M 0.056,-3.655 -9.728,6.131 M -1.012,-6.186 -13.326,6.131 M -2.811,-7.985 -16.923,6.131 M -4.61,-9.784 -20.521,6.131 M -7.758,-10.234 -24.119,6.131 m 12.763,-16.365 -16.36,16.365 m 12.763,-16.365 -16.361,16.365 m 12.763,-16.365 -16.361,16.365 m 12.763,-16.365 -16.08,16.084 m 12.482,-16.084 -14.505,14.509 m 10.908,-14.509 -7.094,7.096 m -0.759,0.759 -4.236,4.237 m 8.491,-12.092 -3.553,3.553 m -4.272,4.274 -2.802,2.803 m -0.672,-2.927 -2.616,2.618 m -0.56,-3.039 -2.279,2.279 m 0.002,-3.601 -2.307,2.308"
       style="fill:none;stroke:#000000;stroke-width:0.5;stroke-linecap:butt;stroke-linejoin:miter;stroke-miterlimit:1.5;stroke-dasharray:none;stroke-opacity:1"
       transform="matrix(1.3333333,0,0,-1.3333333,271.64133,191.568)" /><path
       id="path182"
       d="M 0,0 -2.811,2.812"
       style="fill:none;stroke:#000000;stroke-width:1;stroke-linecap:butt;stroke-linejoin:miter;stroke-miterlimit:1.5;stroke-dasharray:none;stroke-opacity:1"
       transform="matrix(1.3333333,0,0,-1.3333333,204.33067,201.612)" /><path
       id="path183"
       d="M 0,0 H 33.356"
       style="fill:none;stroke:#000000;stroke-width:0.25;stroke-linecap:butt;stroke-linejoin:miter;stroke-miterlimit:1.5;stroke-dasharray:2.499, 1.499;stroke-dashoffset:0;stroke-opacity:1"
       transform="matrix(1.3333333,0,0,-1.3333333,222.972,202.63867)" /><path
       id="path184"
       d="m 0,0 h 18.848 m 8.439,0 h 19.008"
       style="fill:none;stroke:#000000;stroke-width:0.5;stroke-linecap:butt;stroke-linejoin:miter;stroke-miterlimit:10;stroke-dasharray:none;stroke-opacity:1"
       transform="matrix(1.3333333,0,0,-1.3333333,205.092,162.232)" /><path
       id="path185"
       d="M 0,0 V -26.125"
       style="fill:none;stroke:#000000;stroke-width:0.25;stroke-linecap:butt;stroke-linejoin:miter;stroke-miterlimit:10;stroke-dasharray:none;stroke-opacity:1"
       transform="matrix(1.3333333,0,0,-1.3333333,199.98267,159.13467)" /><path
       id="path187"
       d="M 0,0 -4.625,1.587 V -1.57 L -0.062,-0.016 0,0"
       style="fill:#000000;fill-opacity:1;fill-rule:nonzero;stroke:none"
       transform="matrix(1.3333333,0,0,-1.3333333,272.22533,162.28133)" /><path
       id="path188"
       d="M 0,0 4.625,-1.587 V 1.57 L 0.062,0.016 0,0"
       style="fill:#000000;fill-opacity:1;fill-rule:nonzero;stroke:none"
       transform="matrix(1.3333333,0,0,-1.3333333,199.98267,162.3)" /><path
       id="path189"
       d="M 0,0 V -20.052"
       style="fill:none;stroke:#000000;stroke-width:0.25;stroke-linecap:butt;stroke-linejoin:miter;stroke-miterlimit:10;stroke-dasharray:none;stroke-opacity:1"
       transform="matrix(1.3333333,0,0,-1.3333333,272.22533,159.13467)" /><path
       id="path190"
       d="m 0,0 h 13.902 m 8.03,0 h 13.162"
       style="fill:none;stroke:#000000;stroke-width:0.5;stroke-linecap:butt;stroke-linejoin:miter;stroke-miterlimit:10;stroke-dasharray:none;stroke-opacity:1"
       transform="matrix(1.3333333,0,0,-1.3333333,220.62667,302.832)" /><path
       id="path191"
       d="M 0,0 V 19.827"
       style="fill:none;stroke:#000000;stroke-width:0.25;stroke-linecap:butt;stroke-linejoin:miter;stroke-miterlimit:10;stroke-dasharray:none;stroke-opacity:1"
       transform="matrix(1.3333333,0,0,-1.3333333,215.51867,305.92933)" /><path
       id="path193"
       d="M 0,0 -4.625,-1.587 V 1.569 L -0.061,0.015 0,0"
       style="fill:#000000;fill-opacity:1;fill-rule:nonzero;stroke:none"
       transform="matrix(1.3333333,0,0,-1.3333333,272.824,302.78267)" /><path
       id="path194"
       d="M 0,0 4.624,1.587 V -1.57 L 0.061,-0.016 0,0"
       style="fill:#000000;fill-opacity:1;fill-rule:nonzero;stroke:none"
       transform="matrix(1.3333333,0,0,-1.3333333,215.51867,302.832)" /><path
       id="path195"
       d="M 0,0 V 20.051"
       style="fill:none;stroke:#000000;stroke-width:0.25;stroke-linecap:butt;stroke-linejoin:miter;stroke-miterlimit:10;stroke-dasharray:none;stroke-opacity:1"
       transform="matrix(1.3333333,0,0,-1.3333333,272.824,305.92933)" /><path
       id="path196"
       d="M 0,0 -31.734,-18.316 -63.468,0 V 36.632 L -31.734,54.948 0,36.632 Z m -31.734,50.021 c 17.516,0 31.715,-14.195 31.715,-31.705 0,-17.51 -14.199,-31.705 -31.715,-31.705 -17.515,0 -31.715,14.195 -31.715,31.705 0,17.51 14.2,31.705 31.715,31.705 z"
       style="fill:none;stroke:#000000;stroke-width:1;stroke-linecap:butt;stroke-linejoin:miter;stroke-miterlimit:1.5;stroke-dasharray:none;stroke-opacity:1"
       transform="matrix(1.3333333,0,0,-1.3333333,581.48133,259.90667)" /><path
       id="path197"
       d="M 0,0 H 36.973 V -40.576"
       style="fill:none;stroke:#000000;stroke-width:0.1;stroke-linecap:butt;stroke-linejoin:miter;stroke-miterlimit:1.5;stroke-dasharray:13.998, 2, 4.999, 2;stroke-dashoffset:0;stroke-opacity:1"
       transform="matrix(1.3333333,0,0,-1.3333333,489.872,235.48533)" /><path
       id="path198"
       d="m 0,0 c 10.692,0 19.359,-8.665 19.359,-19.353 0,-10.688 -8.667,-19.353 -19.359,-19.353 -10.691,0 -19.359,8.665 -19.359,19.353 C -19.359,-8.665 -10.691,0 0,0 Z"
       style="fill:none;stroke:#000000;stroke-width:1;stroke-linecap:butt;stroke-linejoin:miter;stroke-miterlimit:1.5;stroke-dasharray:none;stroke-opacity:1"
       transform="matrix(1.3333333,0,0,-1.3333333,539.16933,209.68133)" /><path
       id="path199"
       d="m 0,0 c -12.655,0 -22.914,-10.257 -22.914,-22.908 0,-12.651 10.259,-22.908 22.914,-22.908 12.655,0 22.915,10.257 22.915,22.908 C 22.915,-10.257 12.655,0 0,0 Z"
       style="fill:none;stroke:#000000;stroke-width:0.21543307;stroke-linecap:butt;stroke-linejoin:miter;stroke-miterlimit:1.5;stroke-dasharray:2.59118112,1.72745415;stroke-opacity:1;stroke-dashoffset:0"
       transform="matrix(1.3333333,0,0,-1.3333333,539.16933,204.94133)" /><path
       id="path201"
       d="M 0,0 V -27.538 M 0,-38.131 V -65.827"
       style="fill:none;stroke:#000000;stroke-width:0.5;stroke-linecap:butt;stroke-linejoin:miter;stroke-miterlimit:10;stroke-dasharray:none;stroke-opacity:1"
       transform="matrix(1.3333333,0,0,-1.3333333,464.27867,191.48933)" /><path
       id="path202"
       d="M 0,0 H 56.536 M 0.069,-74.164 h 56.467"
       style="fill:none;stroke:#000000;stroke-width:0.25;stroke-linecap:butt;stroke-linejoin:miter;stroke-miterlimit:10;stroke-dasharray:none;stroke-opacity:1"
       transform="matrix(1.3333333,0,0,-1.3333333,461.088,186.04267)" /><path
       id="path203"
       d="M 0,0 -1.587,4.626 H 1.57 L 0.016,0.061 0,0"
       style="fill:#000000;fill-opacity:1;fill-rule:nonzero;stroke:none"
       transform="matrix(1.3333333,0,0,-1.3333333,464.328,284.96667)" /><path
       id="path204"
       d="M 0,0 1.588,-4.626 H -1.57 L -0.015,-0.062 0,0"
       style="fill:#000000;fill-opacity:1;fill-rule:nonzero;stroke:none"
       transform="matrix(1.3333333,0,0,-1.3333333,464.34533,186.04267)" /><path
       id="path205"
       d="m 0,0 h 23.36 m 9.597,0 h 23.52"
       style="fill:none;stroke:#000000;stroke-width:0.5;stroke-linecap:butt;stroke-linejoin:miter;stroke-miterlimit:10;stroke-dasharray:none;stroke-opacity:1"
       transform="matrix(1.3333333,0,0,-1.3333333,501.36933,157.788)" /><path
       id="path206"
       d="M 0,0 V -40.706"
       style="fill:none;stroke:#000000;stroke-width:0.25;stroke-linecap:butt;stroke-linejoin:miter;stroke-miterlimit:10;stroke-dasharray:none;stroke-opacity:1"
       transform="matrix(1.3333333,0,0,-1.3333333,496.25733,154.69067)" /><path
       id="path208"
       d="M 0,0 -4.628,1.587 V -1.57 L -0.062,-0.016 0,0"
       style="fill:#000000;fill-opacity:1;fill-rule:nonzero;stroke:none"
       transform="matrix(1.3333333,0,0,-1.3333333,582.08133,157.83733)" /><path
       id="path209"
       d="M 0,0 4.628,-1.587 V 1.57 L 0.062,0.016 0,0"
       style="fill:#000000;fill-opacity:1;fill-rule:nonzero;stroke:none"
       transform="matrix(1.3333333,0,0,-1.3333333,496.25733,157.856)" /><path
       id="path210"
       d="M 0,0 V -40.705"
       style="fill:none;stroke:#000000;stroke-width:0.25;stroke-linecap:butt;stroke-linejoin:miter;stroke-miterlimit:10;stroke-dasharray:none;stroke-opacity:1"
       transform="matrix(1.3333333,0,0,-1.3333333,582.08133,154.69067)" /><path
       id="path213"
       d="M 0,0 H -36.974 V 40.576"
       style="fill:none;stroke:#000000;stroke-width:0.0992126;stroke-linecap:butt;stroke-linejoin:miter;stroke-miterlimit:1.5;stroke-dasharray:3.71997643,0.37204724,0.37204724,0.37204724,0.37204724,0.37204724;stroke-dashoffset:0;stroke-opacity:1"
       transform="matrix(1.3333333,0,0,-1.3333333,588.468,235.48533)" /><text
       xml:space="preserve"
       style="font-size:13.3333px;line-height:125%;font-family:Sans;-inkscape-font-specification:'Sans, Normal';font-variant-ligatures:none;letter-spacing:0px;word-spacing:0px;fill:#000000;fill-opacity:1;stroke:none;stroke-width:1px;stroke-linecap:butt;stroke-linejoin:miter;stroke-opacity:1"
       x="231.2303"
       y="167.25429"
       id="text1"><tspan
         sodipodi:role="line"
         id="tspan1"
         x="231.2303"
         y="167.25429">h</tspan></text><text
       xml:space="preserve"
       style="font-size:13.3333px;line-height:125%;font-family:Sans;-inkscape-font-specification:'Sans, Normal';font-variant-ligatures:none;letter-spacing:0px;word-spacing:0px;fill:#000000;fill-opacity:1;stroke:none;stroke-width:1px;stroke-linecap:butt;stroke-linejoin:miter;stroke-opacity:1"
       x="536.27417"
       y="163.19479"
       id="text2"><tspan
         sodipodi:role="line"
         id="tspan2"
         x="536.27417"
         y="163.19479">f</tspan></text><text
       xml:space="preserve"
       style="font-size:13.3333px;line-height:125%;font-family:Sans;-inkscape-font-specification:'Sans, Normal';font-variant-ligatures:none;letter-spacing:0px;word-spacing:0px;fill:#000000;fill-opacity:1;stroke:none;stroke-width:1px;stroke-linecap:butt;stroke-linejoin:miter;stroke-opacity:1"
       x="460.30325"
       y="237.71597"
       id="text3"><tspan
         sodipodi:role="line"
         id="tspan3"
         x="460.30325"
         y="237.71597">g</tspan></text><text
       xml:space="preserve"
       style="font-size:13.3333px;line-height:125%;font-family:Sans;-inkscape-font-specification:'Sans, Normal';font-variant-ligatures:none;letter-spacing:0px;word-spacing:0px;fill:#000000;fill-opacity:1;stroke:none;stroke-width:1px;stroke-linecap:butt;stroke-linejoin:miter;stroke-opacity:1"
       x="242.53893"
       y="307.56796"
       id="text4"><tspan
         sodipodi:role="line"
         id="tspan4"
         x="242.53893"
         y="307.56796">i</tspan></text></g></svg>
