<?xml version="1.0" encoding="UTF-8" standalone="no"?>
<!-- Created with Inkscape (http://www.inkscape.org/) -->

<svg
   width="81.331146mm"
   height="31.970039mm"
   viewBox="0 0 81.331145 31.970039"
   version="1.1"
   id="svg1"
   xml:space="preserve"
   sodipodi:docname="nut_hex.svg"
   inkscape:version="1.3.2 (091e20e, 2023-11-25, custom)"
   xmlns:inkscape="http://www.inkscape.org/namespaces/inkscape"
   xmlns:sodipodi="http://sodipodi.sourceforge.net/DTD/sodipodi-0.dtd"
   xmlns="http://www.w3.org/2000/svg"
   xmlns:svg="http://www.w3.org/2000/svg"><sodipodi:namedview
     id="namedview1"
     pagecolor="#ffffff"
     bordercolor="#666666"
     borderopacity="1.0"
     inkscape:showpageshadow="2"
     inkscape:pageopacity="0.0"
     inkscape:pagecheckerboard="0"
     inkscape:deskcolor="#d1d1d1"
     inkscape:document-units="mm"
     inkscape:zoom="4.4242992"
     inkscape:cx="153.69666"
     inkscape:cy="60.461553"
     inkscape:window-width="1920"
     inkscape:window-height="1129"
     inkscape:window-x="-8"
     inkscape:window-y="-8"
     inkscape:window-maximized="1"
     inkscape:current-layer="g1"><inkscape:page
       x="-1.6548584e-06"
       y="-1.7651256e-06"
       width="81.331146"
       height="31.970037"
       id="page4"
       margin="0"
       bleed="0" /></sodipodi:namedview><defs
     id="defs1"><rect
       x="136.74482"
       y="26.896915"
       width="45.430924"
       height="73.91001"
       id="rect4" /><clipPath
       clipPathUnits="userSpaceOnUse"
       id="clipPath37"><path
         d="m 353.76,700.8 h 91.8 v -93.36 h -91.8 z"
         transform="matrix(1,0,0,-1.0010797,-397.48201,692.37775)"
         id="path37" /></clipPath><clipPath
       clipPathUnits="userSpaceOnUse"
       id="clipPath39"><path
         d="m 353.76,700.8 h 91.8 v -93.36 h -91.8 z"
         transform="translate(-379.13201,-643.59701)"
         id="path39" /></clipPath><clipPath
       clipPathUnits="userSpaceOnUse"
       id="clipPath41"><path
         d="m 353.76,700.8 h 91.8 v -93.36 h -91.8 z"
         transform="translate(-384.13301,-666.18802)"
         id="path41" /></clipPath><clipPath
       clipPathUnits="userSpaceOnUse"
       id="clipPath43"><path
         d="m 353.76,700.8 h 91.8 v -93.36 h -91.8 z"
         transform="translate(-388.31601,-695.26601)"
         id="path43" /></clipPath><clipPath
       clipPathUnits="userSpaceOnUse"
       id="clipPath45"><path
         d="m 353.76,700.8 h 91.8 v -93.36 h -91.8 z"
         transform="translate(-383.61201,-697.95602)"
         id="path45" /></clipPath><clipPath
       clipPathUnits="userSpaceOnUse"
       id="clipPath47"><path
         d="m 353.76,700.8 h 91.8 v -93.36 h -91.8 z"
         transform="translate(-415.41401,-695.22302)"
         id="path47" /></clipPath><clipPath
       clipPathUnits="userSpaceOnUse"
       id="clipPath49"><path
         d="m 353.76,700.8 h 91.8 v -93.36 h -91.8 z"
         transform="translate(-383.61201,-695.20702)"
         id="path49" /></clipPath><clipPath
       clipPathUnits="userSpaceOnUse"
       id="clipPath51"><path
         d="m 353.76,700.8 h 91.8 v -93.36 h -91.8 z"
         transform="translate(-415.41401,-697.95602)"
         id="path51" /></clipPath></defs><g
     id="g1"
     inkscape:groupmode="layer"
     inkscape:label="1"
     transform="matrix(0.26458333,0,0,0.26458334,-66.688421,-32.15928)"><path
       id="path38"
       d="M 0,0 H 40.451"
       style="fill:none;stroke:#000000;stroke-width:0.209;stroke-linecap:butt;stroke-linejoin:miter;stroke-miterlimit:1.5;stroke-dasharray:12.511, 1.668, 4.17, 1.668;stroke-dashoffset:0;stroke-opacity:1"
       transform="matrix(1.3333333,0,0,-1.3333333,505.50933,197.87067)"
       clip-path="url(#clipPath39)" /><path
       id="path40"
       d="M 0,0 C 0,-3.546 1.756,-6.409 4.236,-6.409 1.756,-6.409 0,-9.272 0,-12.818 m 0,-19.547 c 0,-3.546 1.756,-6.409 4.236,-6.409 C 1.756,-38.774 0,-41.637 0,-45.182 M 26.523,9.493 c 2.34,0 4.236,-2.599 4.236,-4.936 V -49.74 c 0,-2.337 -1.896,-4.936 -4.236,-4.936 H 4.236 C 1.897,-54.676 0,-52.077 0,-49.74 V 4.557 c 0,2.337 1.897,4.936 4.236,4.936 z m 0,-48.267 H 4.236 M 26.523,-6.409 H 4.236 M 30.759,0 c 0,-3.546 -1.755,-6.409 -4.236,-6.409 2.481,0 4.236,-2.863 4.236,-6.409 m 0,-19.547 c 0,-3.546 -1.755,-6.409 -4.236,-6.409 2.481,0 4.236,-2.863 4.236,-6.408"
       style="fill:none;stroke:#000000;stroke-width:0.834;stroke-linecap:butt;stroke-linejoin:miter;stroke-miterlimit:1.5;stroke-dasharray:none;stroke-opacity:1"
       transform="matrix(1.3333333,0,0,-1.3333333,512.17733,167.74933)"
       clip-path="url(#clipPath41)" /><path
       id="path42"
       d="m 0,0 h 6.859 m 8.97,0 h 6.305"
       style="fill:none;stroke:#000000;stroke-width:0.417;stroke-linecap:butt;stroke-linejoin:miter;stroke-miterlimit:10;stroke-dasharray:none;stroke-opacity:1"
       transform="matrix(1.3333333,0,0,-1.3333333,517.75467,128.97867)"
       clip-path="url(#clipPath43)" /><path
       id="path44"
       d="M 0,0 V -23.824"
       style="fill:none;stroke:#000000;stroke-width:0.209;stroke-linecap:butt;stroke-linejoin:miter;stroke-miterlimit:10;stroke-dasharray:none;stroke-opacity:1"
       transform="matrix(1.3333333,0,0,-1.3333333,511.48267,125.392)"
       clip-path="url(#clipPath45)" /><path
       id="path46"
       d="m 0,0 -5.364,1.838 v -3.656 l 5.292,1.8 L 0,0"
       style="fill:#000000;fill-opacity:1;fill-rule:nonzero;stroke:none"
       transform="matrix(1.3333333,0,0,-1.3333333,553.88533,129.036)"
       clip-path="url(#clipPath47)" /><path
       id="path48"
       d="M 0,0 5.363,-1.837 V 1.818 L 0.071,0.019 0,0"
       style="fill:#000000;fill-opacity:1;fill-rule:nonzero;stroke:none"
       transform="matrix(1.3333333,0,0,-1.3333333,511.48267,129.05733)"
       clip-path="url(#clipPath49)" /><path
       id="path50"
       d="M 0,0 V -23.824"
       style="fill:none;stroke:#000000;stroke-width:0.209;stroke-linecap:butt;stroke-linejoin:miter;stroke-miterlimit:10;stroke-dasharray:none;stroke-opacity:1"
       transform="matrix(1.3333333,0,0,-1.3333333,553.88533,125.392)"
       clip-path="url(#clipPath51)" /><path
       id="path52"
       d="M 0,0 -28.837,-16.635 -57.675,0 V 33.272 L -28.837,49.908 0,33.272 Z m -28.837,45.433 c 15.916,0 28.82,-12.893 28.82,-28.797 0,-15.904 -12.904,-28.797 -28.82,-28.797 -15.917,0 -28.82,12.893 -28.82,28.797 0,15.904 12.903,28.797 28.82,28.797 z"
       style="fill:none;stroke:#000000;stroke-width:0.866;stroke-linecap:butt;stroke-linejoin:miter;stroke-miterlimit:1.5;stroke-dasharray:none;stroke-opacity:1"
       transform="matrix(1.3333333,0,0,-1.3333333,365.852,219.532)" /><path
       id="path53"
       d="M 0,0 V -73.421"
       style="fill:none;stroke:#000000;stroke-width:0.216;stroke-linecap:butt;stroke-linejoin:miter;stroke-miterlimit:1.5;stroke-dasharray:25.542, 1.732, 4.329, 1.732;stroke-dashoffset:0;stroke-opacity:1"
       transform="matrix(1.3333333,0,0,-1.3333333,327.40267,148.59467)" /><path
       id="path54"
       d="M 0,0 H 67.461"
       style="fill:none;stroke:#000000;stroke-width:0.216;stroke-linecap:butt;stroke-linejoin:miter;stroke-miterlimit:1.5;stroke-dasharray:22.945, 1.732, 4.329, 1.732;stroke-dashoffset:0;stroke-opacity:1"
       transform="matrix(1.3333333,0,0,-1.3333333,282.604,197.35067)" /><path
       id="path55"
       d="m 0,0 c 9.137,0 16.545,-7.401 16.545,-16.531 0,-9.13 -7.408,-16.531 -16.545,-16.531 -9.137,0 -16.545,7.401 -16.545,16.531 C -16.545,-7.401 -9.137,0 0,0 Z"
       style="fill:none;stroke:#000000;stroke-width:0.866;stroke-linecap:butt;stroke-linejoin:miter;stroke-miterlimit:1.5;stroke-dasharray:none;stroke-opacity:1"
       transform="matrix(1.3333333,0,0,-1.3333333,327.40267,175.30933)" /><path
       id="path56"
       d="m 0,0 c -10.816,0 -19.584,-8.761 -19.584,-19.568 0,-10.807 8.768,-19.568 19.584,-19.568 10.815,0 19.583,8.761 19.583,19.568 C 19.583,-8.761 10.815,0 0,0 Z"
       style="fill:none;stroke:#000000;stroke-width:0.216;stroke-linecap:butt;stroke-linejoin:miter;stroke-miterlimit:1.5;stroke-dasharray:2.598, 1.732;stroke-dashoffset:0;stroke-opacity:1"
       transform="matrix(1.3333333,0,0,-1.3333333,327.40267,171.26)" /><path
       id="path58"
       d="M 0,0 V -21.638 M 0,-33.496 V -57.061"
       style="fill:none;stroke:#000000;stroke-width:0.433;stroke-linecap:butt;stroke-linejoin:miter;stroke-miterlimit:10;stroke-dasharray:none;stroke-opacity:1"
       transform="matrix(1.3333333,0,0,-1.3333333,255.88933,159.176)" /><path
       id="path59"
       d="M 0,0 H 54.078 M 0.084,-67.084 h 53.994"
       style="fill:none;stroke:#000000;stroke-width:0.216;stroke-linecap:butt;stroke-linejoin:miter;stroke-miterlimit:10;stroke-dasharray:none;stroke-opacity:1"
       transform="matrix(1.3333333,0,0,-1.3333333,252.05067,152.628)" /><path
       id="path60"
       d="M 0,0 -1.91,5.563 H 1.889 L 0.019,0.075 0,0"
       style="fill:#000000;fill-opacity:1;fill-rule:nonzero;stroke:none"
       transform="matrix(1.3333333,0,0,-1.3333333,255.94933,242.12133)" /><path
       id="path61"
       d="m 0,0 1.909,-5.562 h -3.798 l 1.87,5.488 L 0,0"
       style="fill:#000000;fill-opacity:1;fill-rule:nonzero;stroke:none"
       transform="matrix(1.3333333,0,0,-1.3333333,255.97067,152.628)" /><path
       id="path62"
       d="m 0,0 h 19.841 m 9.851,0 h 19.634"
       style="fill:none;stroke:#000000;stroke-width:0.433;stroke-linecap:butt;stroke-linejoin:miter;stroke-miterlimit:10;stroke-dasharray:none;stroke-opacity:1"
       transform="matrix(1.3333333,0,0,-1.3333333,294.38,125.82133)" /><path
       id="path63"
       d="M 0,0 V -38.127"
       style="fill:none;stroke:#000000;stroke-width:0.216;stroke-linecap:butt;stroke-linejoin:miter;stroke-miterlimit:10;stroke-dasharray:none;stroke-opacity:1"
       transform="matrix(1.3333333,0,0,-1.3333333,288.23067,122.096)" /><path
       id="path65"
       d="M 0,0 -5.567,1.908 V -1.887 L -0.074,-0.019 0,0"
       style="fill:#000000;fill-opacity:1;fill-rule:nonzero;stroke:none"
       transform="matrix(1.3333333,0,0,-1.3333333,366.656,125.88)" /><path
       id="path66"
       d="M 0,0 5.567,-1.908 V 1.887 L 0.074,0.019 0,0"
       style="fill:#000000;fill-opacity:1;fill-rule:nonzero;stroke:none"
       transform="matrix(1.3333333,0,0,-1.3333333,288.23067,125.90133)" /><path
       id="path67"
       d="M 0,0 V -38.127"
       style="fill:none;stroke:#000000;stroke-width:0.216;stroke-linecap:butt;stroke-linejoin:miter;stroke-miterlimit:10;stroke-dasharray:none;stroke-opacity:1"
       transform="matrix(1.3333333,0,0,-1.3333333,366.656,122.096)" /><text
       xml:space="preserve"
       style="font-size:13.3333px;line-height:125%;font-family:Sans;-inkscape-font-specification:'Sans, Normal';font-variant-ligatures:none;letter-spacing:0px;word-spacing:0px;fill:#000000;fill-opacity:1;stroke:none;stroke-width:1px;stroke-linecap:butt;stroke-linejoin:miter;stroke-opacity:1"
       x="252.0507"
       y="198.3952"
       id="text1"><tspan
         sodipodi:role="line"
         id="tspan1"
         x="252.0507"
         y="198.3952">g</tspan></text><text
       xml:space="preserve"
       style="font-size:13.3333px;line-height:125%;font-family:Sans;-inkscape-font-specification:'Sans, Normal';font-variant-ligatures:none;letter-spacing:0px;word-spacing:0px;fill:#000000;fill-opacity:1;stroke:none;stroke-width:1px;stroke-linecap:butt;stroke-linejoin:miter;stroke-opacity:1"
       x="324.60452"
       y="131.94402"
       id="text2"><tspan
         sodipodi:role="line"
         id="tspan2"
         x="324.60452"
         y="131.94402">f</tspan></text><text
       xml:space="preserve"
       style="font-size:13.3333px;line-height:125%;font-family:Sans;-inkscape-font-specification:'Sans, Normal';font-variant-ligatures:none;letter-spacing:0px;word-spacing:0px;fill:#000000;fill-opacity:1;stroke:none;stroke-width:1px;stroke-linecap:butt;stroke-linejoin:miter;stroke-opacity:1"
       x="528.70477"
       y="133.75221"
       id="text3"><tspan
         sodipodi:role="line"
         id="tspan3"
         x="528.70477"
         y="133.75221">h</tspan></text><text
       xml:space="preserve"
       transform="translate(252.05073,121.54688)"
       id="text4"
       style="fill:#000000;stroke:black;stroke-opacity:1;stroke-width:1px;stroke-linejoin:miter;stroke-linecap:butt;font-family:Sans;font-size:13.33333302px;line-height:125%;letter-spacing:0px;word-spacing:0px;-inkscape-font-specification:'Sans, Normal';font-variant-ligatures:none;white-space:pre;shape-inside:url(#rect4);fill-opacity:1" /></g></svg>
