<?xml version="1.0" encoding="UTF-8" standalone="no"?>
<!-- Created with Inkscape (http://www.inkscape.org/) -->

<svg
   width="92.026268mm"
   height="38.214302mm"
   viewBox="0 0 92.026266 38.214301"
   version="1.1"
   id="svg1"
   xml:space="preserve"
   sodipodi:docname="nut_hex_jam.svg"
   inkscape:version="1.3.2 (091e20e, 2023-11-25, custom)"
   xmlns:inkscape="http://www.inkscape.org/namespaces/inkscape"
   xmlns:sodipodi="http://sodipodi.sourceforge.net/DTD/sodipodi-0.dtd"
   xmlns="http://www.w3.org/2000/svg"
   xmlns:svg="http://www.w3.org/2000/svg"><sodipodi:namedview
     id="namedview1"
     pagecolor="#ffffff"
     bordercolor="#666666"
     borderopacity="1.0"
     inkscape:showpageshadow="2"
     inkscape:pageopacity="0.0"
     inkscape:pagecheckerboard="0"
     inkscape:deskcolor="#d1d1d1"
     inkscape:document-units="mm"
     inkscape:zoom="3.9101156"
     inkscape:cx="173.9079"
     inkscape:cy="72.248504"
     inkscape:window-width="1920"
     inkscape:window-height="1129"
     inkscape:window-x="-8"
     inkscape:window-y="-8"
     inkscape:window-maximized="1"
     inkscape:current-layer="g1"><inkscape:page
       x="2.7882439e-07"
       y="-7.7980042e-07"
       width="92.02626"
       height="38.214302"
       id="page3"
       margin="0"
       bleed="0" /></sodipodi:namedview><defs
     id="defs1"><clipPath
       clipPathUnits="userSpaceOnUse"
       id="clipPath37"><path
         d="M 334.56,695.76 H 443.64 V 582.72 H 334.56 Z"
         transform="translate(-372.30201,-626.73602)"
         id="path37" /></clipPath><clipPath
       clipPathUnits="userSpaceOnUse"
       id="clipPath39"><path
         d="M 334.56,695.76 H 443.64 V 582.72 H 334.56 Z"
         transform="translate(-377.98701,-653.84702)"
         id="path39" /></clipPath><clipPath
       clipPathUnits="userSpaceOnUse"
       id="clipPath41"><path
         d="M 334.56,695.76 H 443.64 V 582.72 H 334.56 Z"
         transform="translate(-405.50201,-688.74302)"
         id="path41" /></clipPath><clipPath
       clipPathUnits="userSpaceOnUse"
       id="clipPath43"><path
         d="M 334.56,695.76 H 443.64 V 582.72 H 334.56 Z"
         transform="translate(-399.86001,-691.97201)"
         id="path43" /></clipPath><clipPath
       clipPathUnits="userSpaceOnUse"
       id="clipPath45"><path
         d="M 334.56,695.76 H 443.64 V 582.72 H 334.56 Z"
         transform="translate(-399.86001,-688.67302)"
         id="path45" /></clipPath><clipPath
       clipPathUnits="userSpaceOnUse"
       id="clipPath47"><path
         d="M 334.56,695.76 H 443.64 V 582.72 H 334.56 Z"
         transform="translate(-363.84801,-688.74302)"
         id="path47" /></clipPath><clipPath
       clipPathUnits="userSpaceOnUse"
       id="clipPath49"><path
         d="M 334.56,695.76 H 443.64 V 582.72 H 334.56 Z"
         transform="translate(-377.36101,-688.69202)"
         id="path49" /></clipPath><clipPath
       clipPathUnits="userSpaceOnUse"
       id="clipPath51"><path
         d="M 334.56,695.76 H 443.64 V 582.72 H 334.56 Z"
         transform="translate(-377.36101,-691.97201)"
         id="path51" /></clipPath><clipPath
       clipPathUnits="userSpaceOnUse"
       id="clipPath53"><path
         d="M 334.56,695.76 H 443.64 V 582.72 H 334.56 Z"
         transform="matrix(1,0,0,-1.0002999,-383.20601,684.96135)"
         id="path53" /></clipPath></defs><g
     id="g1"
     inkscape:groupmode="layer"
     inkscape:label="1"
     transform="matrix(0.26458333,0,0,0.26458334,-53.816652,-34.12195)"><path
       id="path36"
       d="M 0,0 H 32.87"
       style="fill:none;stroke:#000000;stroke-width:0.25;stroke-linecap:butt;stroke-linejoin:miter;stroke-miterlimit:1.5;stroke-dasharray:9.005, 2.001, 5.003, 2.001;stroke-dashoffset:0;stroke-opacity:1"
       transform="matrix(1.3333333,0,0,-1.3333333,496.40267,220.352)"
       clip-path="url(#clipPath37)" /><path
       id="path38"
       d="M 0,0 C 0,-4.255 2.105,-7.691 5.079,-7.691 2.105,-7.691 0,-11.126 0,-15.381 M 0,-38.84 c 0,-4.255 2.105,-7.691 5.079,-7.691 C 2.105,-46.531 0,-49.967 0,-54.222 m 16.168,65.616 c 2.805,0 5.08,-3.12 5.08,-5.924 v -65.161 c 0,-2.804 -2.275,-5.924 -5.08,-5.924 H 5.079 C 2.274,-65.615 0,-62.495 0,-59.691 V 5.47 c 0,2.804 2.274,5.924 5.079,5.924 z m 0,-57.925 H 5.079 m 11.089,38.84 H 5.079 M 21.248,0 c 0,-4.255 -2.105,-7.691 -5.08,-7.691 2.975,0 5.08,-3.435 5.08,-7.69 m 0,-23.459 c 0,-4.255 -2.105,-7.691 -5.08,-7.691 2.975,0 5.08,-3.436 5.08,-7.691"
       style="fill:none;stroke:#000000;stroke-width:1.001;stroke-linecap:butt;stroke-linejoin:miter;stroke-miterlimit:1.5;stroke-dasharray:none;stroke-opacity:1"
       transform="matrix(1.3333333,0,0,-1.3333333,503.98267,184.204)"
       clip-path="url(#clipPath39)" /><path
       id="path40"
       d="M 0,0 H 7.911"
       style="fill:none;stroke:#000000;stroke-width:0.5;stroke-linecap:butt;stroke-linejoin:miter;stroke-miterlimit:10;stroke-dasharray:none;stroke-opacity:1"
       transform="matrix(1.3333333,0,0,-1.3333333,540.66933,137.676)"
       clip-path="url(#clipPath41)" /><path
       id="path42"
       d="M 0,0 V -28.591"
       style="fill:none;stroke:#000000;stroke-width:0.25;stroke-linecap:butt;stroke-linejoin:miter;stroke-miterlimit:10;stroke-dasharray:none;stroke-opacity:1"
       transform="matrix(1.3333333,0,0,-1.3333333,533.14667,133.37067)"
       clip-path="url(#clipPath43)" /><path
       id="path44"
       d="M 0,0 6.432,-2.205 V 2.182 L 0.086,0.022 0,0"
       style="fill:#000000;fill-opacity:1;fill-rule:nonzero;stroke:none"
       transform="matrix(1.3333333,0,0,-1.3333333,533.14667,137.76933)"
       clip-path="url(#clipPath45)" /><path
       id="path46"
       d="M 0,0 H 7.561"
       style="fill:none;stroke:#000000;stroke-width:0.5;stroke-linecap:butt;stroke-linejoin:miter;stroke-miterlimit:10;stroke-dasharray:none;stroke-opacity:1"
       transform="matrix(1.3333333,0,0,-1.3333333,485.13067,137.676)"
       clip-path="url(#clipPath47)" /><path
       id="path48"
       d="m 0,0 -6.432,2.206 v -4.388 l 6.347,2.16 L 0,0"
       style="fill:#000000;fill-opacity:1;fill-rule:nonzero;stroke:none"
       transform="matrix(1.3333333,0,0,-1.3333333,503.148,137.744)"
       clip-path="url(#clipPath49)" /><path
       id="path50"
       d="M 0,0 V -28.591"
       style="fill:none;stroke:#000000;stroke-width:0.25;stroke-linecap:butt;stroke-linejoin:miter;stroke-miterlimit:10;stroke-dasharray:none;stroke-opacity:1"
       transform="matrix(1.3333333,0,0,-1.3333333,503.148,133.37067)"
       clip-path="url(#clipPath51)" /><path
       id="path54"
       d="M 0,0 -33.286,-19.217 -66.573,0 V 38.436 L -33.286,57.654 0,38.436 Z m -33.286,52.485 c 18.372,0 33.266,-14.895 33.266,-33.267 0,-18.372 -14.894,-33.266 -33.266,-33.266 -18.373,0 -33.267,14.894 -33.267,33.266 0,18.372 14.894,33.267 33.267,33.267 z"
       style="fill:none;stroke:#000000;stroke-width:1;stroke-linecap:butt;stroke-linejoin:miter;stroke-miterlimit:1.5;stroke-dasharray:none;stroke-opacity:1"
       transform="matrix(1.332662,0,0,-1.3340047,334.69273,242.24115)" /><path
       id="path55"
       d="M 0,0 V -84.815"
       style="fill:none;stroke:#000000;stroke-width:0.25;stroke-linecap:butt;stroke-linejoin:miter;stroke-miterlimit:1.5;stroke-dasharray:29.494, 2, 4.999, 2;stroke-dashoffset:0;stroke-opacity:1"
       transform="matrix(1.332662,0,0,-1.3340047,290.33374,160.25322)" /><path
       id="path56"
       d="M 0,0 H 77.869"
       style="fill:none;stroke:#000000;stroke-width:0.25;stroke-linecap:butt;stroke-linejoin:miter;stroke-miterlimit:1.5;stroke-dasharray:26.495, 2, 4.999, 2;stroke-dashoffset:0;stroke-opacity:1"
       transform="matrix(1.332662,0,0,-1.3340047,238.64911,216.60424)" /><path
       id="path57"
       d="m 0,0 c 10.547,0 19.097,-8.55 19.097,-19.097 0,-10.547 -8.55,-19.097 -19.097,-19.097 -10.547,0 -19.097,8.55 -19.097,19.097 C -19.097,-8.55 -10.547,0 0,0 Z"
       style="fill:none;stroke:#000000;stroke-width:1;stroke-linecap:butt;stroke-linejoin:miter;stroke-miterlimit:1.5;stroke-dasharray:none;stroke-opacity:1"
       transform="matrix(1.332662,0,0,-1.3340047,290.33374,191.12876)" /><path
       id="path58"
       d="m 0,0 c -12.484,0 -22.605,-10.121 -22.605,-22.605 0,-12.484 10.121,-22.605 22.605,-22.605 12.484,0 22.605,10.121 22.605,22.605 C 22.605,-10.121 12.484,0 0,0 Z"
       style="fill:none;stroke:#000000;stroke-width:0.25;stroke-linecap:butt;stroke-linejoin:miter;stroke-miterlimit:1.5;stroke-dasharray:2.999, 2;stroke-dashoffset:0;stroke-opacity:1"
       transform="matrix(1.332662,0,0,-1.3340047,290.33374,186.44907)" /><path
       id="path60"
       d="M 0,0 V -24.995 M 0,-38.694 V -65.917"
       style="fill:none;stroke:#000000;stroke-width:0.5;stroke-linecap:butt;stroke-linejoin:miter;stroke-miterlimit:10;stroke-dasharray:none;stroke-opacity:1"
       transform="matrix(1.332662,0,0,-1.3340047,207.82997,172.48337)" /><path
       id="path61"
       d="M 0,0 H 62.42 M 0.096,-77.496 H 62.42"
       style="fill:none;stroke:#000000;stroke-width:0.25;stroke-linecap:butt;stroke-linejoin:miter;stroke-miterlimit:10;stroke-dasharray:none;stroke-opacity:1"
       transform="matrix(1.332662,0,0,-1.3340047,203.40154,164.91423)" /><path
       id="path62"
       d="M 0,0 -2.204,6.43 H 2.179 L 0.021,0.086 0,0"
       style="fill:#000000;fill-opacity:1;fill-rule:nonzero;stroke:none"
       transform="matrix(1.3333333,0,0,-1.3333333,207.89067,268.32)" /><path
       id="path63"
       d="M 0,0 2.203,-6.429 H -2.179 L -0.022,-0.085 0,0"
       style="fill:#000000;fill-opacity:1;fill-rule:nonzero;stroke:none"
       transform="matrix(1.3333333,0,0,-1.3333333,207.91467,164.88133)" /><path
       id="path64"
       d="M 0,0 H 22.902 M 34.273,0 H 56.936"
       style="fill:none;stroke:#000000;stroke-width:0.5;stroke-linecap:butt;stroke-linejoin:miter;stroke-miterlimit:10;stroke-dasharray:none;stroke-opacity:1"
       transform="matrix(1.332662,0,0,-1.3340047,252.2356,133.93064)" /><path
       id="path65"
       d="M 0,0 V -44.045"
       style="fill:none;stroke:#000000;stroke-width:0.25;stroke-linecap:butt;stroke-linejoin:miter;stroke-miterlimit:10;stroke-dasharray:none;stroke-opacity:1"
       transform="matrix(1.332662,0,0,-1.3340047,245.14051,129.62581)" /><path
       id="path67"
       d="M 0,0 -6.423,2.206 V -2.181 L -0.085,-0.022 0,0"
       style="fill:#000000;fill-opacity:1;fill-rule:nonzero;stroke:none"
       transform="matrix(1.3333333,0,0,-1.3333333,335.608,133.96533)" /><path
       id="path68"
       d="M 0,0 6.423,-2.206 V 2.181 L 0.085,0.021 0,0"
       style="fill:#000000;fill-opacity:1;fill-rule:nonzero;stroke:none"
       transform="matrix(1.3333333,0,0,-1.3333333,245.132,133.98933)" /><path
       id="path69"
       d="M 0,0 V -44.045"
       style="fill:none;stroke:#000000;stroke-width:0.25;stroke-linecap:butt;stroke-linejoin:miter;stroke-miterlimit:10;stroke-dasharray:none;stroke-opacity:1"
       transform="matrix(1.332662,0,0,-1.3340047,335.62026,129.62581)" /><text
       xml:space="preserve"
       style="font-style:normal;font-variant:normal;font-weight:normal;font-stretch:normal;font-size:13.3333px;line-height:125%;font-family:Sans;-inkscape-font-specification:'Sans, Normal';font-variant-ligatures:none;font-variant-caps:normal;font-variant-numeric:normal;font-variant-east-asian:normal;letter-spacing:0px;word-spacing:0px;fill:#000000;fill-opacity:1;stroke:none;stroke-width:1px;stroke-linecap:butt;stroke-linejoin:miter;stroke-opacity:1"
       x="514.38977"
       y="142.26372"
       id="text1"><tspan
         sodipodi:role="line"
         id="tspan1"
         x="514.38977"
         y="142.26372">h</tspan></text><text
       xml:space="preserve"
       style="font-size:13.3333px;line-height:125%;font-family:Sans;-inkscape-font-specification:'Sans, Normal';font-variant-ligatures:none;letter-spacing:0px;word-spacing:0px;fill:#000000;fill-opacity:1;stroke:none;stroke-width:1px;stroke-linecap:butt;stroke-linejoin:miter;stroke-opacity:1"
       x="287.58817"
       y="139.96199"
       id="text2"><tspan
         sodipodi:role="line"
         id="tspan2"
         x="287.58817"
         y="139.96199">f</tspan></text><text
       xml:space="preserve"
       style="font-size:13.3333px;line-height:125%;font-family:Sans;-inkscape-font-specification:'Sans, Normal';font-variant-ligatures:none;letter-spacing:0px;word-spacing:0px;fill:#000000;fill-opacity:1;stroke:none;stroke-width:1px;stroke-linecap:butt;stroke-linejoin:miter;stroke-opacity:1"
       x="203.91302"
       y="217.45331"
       id="text3"><tspan
         sodipodi:role="line"
         id="tspan3"
         x="203.91302"
         y="217.45331">g</tspan></text></g></svg>
