<?xml version="1.0" encoding="UTF-8" standalone="no"?>
<!-- Created with Inkscape (http://www.inkscape.org/) -->

<svg
   width="42.892483mm"
   height="52.939548mm"
   viewBox="0 0 42.89248 52.939548"
   version="1.1"
   id="svg1"
   xml:space="preserve"
   sodipodi:docname="screw_machine_flat_slot.svg"
   inkscape:version="1.3.2 (091e20e, 2023-11-25, custom)"
   xmlns:inkscape="http://www.inkscape.org/namespaces/inkscape"
   xmlns:sodipodi="http://sodipodi.sourceforge.net/DTD/sodipodi-0.dtd"
   xmlns="http://www.w3.org/2000/svg"
   xmlns:svg="http://www.w3.org/2000/svg"><sodipodi:namedview
     id="namedview1"
     pagecolor="#ffffff"
     bordercolor="#666666"
     borderopacity="1.0"
     inkscape:showpageshadow="2"
     inkscape:pageopacity="0.0"
     inkscape:pagecheckerboard="0"
     inkscape:deskcolor="#d1d1d1"
     inkscape:document-units="mm"
     inkscape:zoom="4.3666402"
     inkscape:cx="85.305861"
     inkscape:cy="98.359375"
     inkscape:window-width="1920"
     inkscape:window-height="1129"
     inkscape:window-x="-8"
     inkscape:window-y="-8"
     inkscape:window-maximized="1"
     inkscape:current-layer="svg1" /><defs
     id="defs1" /><path
     id="path269"
     d="m 33.60208,18.65202 5.257799,-6.16338"
     style="fill:none;stroke:#000000;stroke-width:0.0881944;stroke-linecap:butt;stroke-linejoin:miter;stroke-miterlimit:4;stroke-dasharray:none;stroke-opacity:1" /><path
     id="path271"
     d="m 33.77847,18.971991 h 9.114013"
     style="fill:none;stroke:#000000;stroke-width:0.0881944;stroke-linecap:butt;stroke-linejoin:miter;stroke-miterlimit:4;stroke-dasharray:none;stroke-opacity:1" /><path
     id="path272"
     d="m 25.124479,26.957115 8.071907,-7.941027 H 21.50251 V 22.82009 H 18.192749 V 19.016088 H 6.6117611 l 8.0902519,7.941027 z"
     style="fill:none;stroke:#000000;stroke-width:0.352778;stroke-linecap:butt;stroke-linejoin:round;stroke-miterlimit:4;stroke-dasharray:none;stroke-opacity:1" /><path
     id="path273"
     d="M 6.5045156,18.65202 1.2297828,12.493932"
     style="fill:none;stroke:#000000;stroke-width:0.0881944;stroke-linecap:butt;stroke-linejoin:miter;stroke-miterlimit:4;stroke-dasharray:none;stroke-opacity:1" /><path
     id="path275"
     d="m 22.285326,3.8954669 c 0,-0.096118 0.02274,-0.1881022 0.07028,-0.2769857 0.04651,-0.09095 0.112655,-0.1591634 0.198438,-0.2067057 0.08785,-0.049609 0.186035,-0.074414 0.293522,-0.074414 0.167431,0 0.303857,0.055811 0.409277,0.1653646 0.107487,0.107487 0.16123,0.2428792 0.16123,0.4051432 0,0.1684652 -0.05374,0.3079915 -0.16123,0.4175456 -0.107487,0.1074869 -0.242879,0.1612304 -0.405143,0.1612304 -0.10232,0 -0.198438,-0.022738 -0.289388,-0.066146 -0.09095,-0.046509 -0.160197,-0.113688 -0.206706,-0.2025715 -0.04754,-0.08785 -0.07028,-0.1953369 -0.07028,-0.3224609 z m 0.297656,0.016536 c 0,0.1105876 0.02481,0.1943034 0.07441,0.252181 0.05168,0.057878 0.116789,0.086816 0.194304,0.086816 0.07441,0 0.136425,-0.028939 0.186035,-0.086816 0.05168,-0.057878 0.07855,-0.1415934 0.07855,-0.252181 0,-0.1074869 -0.02687,-0.1901692 -0.07855,-0.2480469 C 22.988121,3.606078 22.92611,3.57714 22.851696,3.57714 c -0.07751,0 -0.142627,0.028939 -0.194304,0.086816 -0.04961,0.057878 -0.07441,0.14056 -0.07441,0.2480469 z m 0,0"
     style="fill:#000000;fill-opacity:1;fill-rule:nonzero;stroke:none;stroke-width:0.352837"
     aria-label="o" /><path
     id="path278"
     d="m 22.621873,22.996832 h 5.042252 m 1.763889,0 H 42.010538 M 0,18.795602 h 5.9090272 m -4.850694,8.338255 H 13.758332"
     style="fill:none;stroke:#000000;stroke-width:0.0881944;stroke-linecap:butt;stroke-linejoin:miter;stroke-miterlimit:4;stroke-dasharray:none;stroke-opacity:1" /><path
     id="path280"
     d="m 18.369138,13.47042 v 4.850694 m 2.956983,-4.850694 v 4.7625"
     style="fill:none;stroke:#000000;stroke-width:0.0881944;stroke-linecap:butt;stroke-linejoin:miter;stroke-miterlimit:4;stroke-dasharray:none;stroke-opacity:1" /><path
     id="path282"
     d="m 19.913246,17.35027 v 14.636749 m 0,1.058333 v 2.646539 m 0,1.058686 v 9.615663"
     style="fill:none;stroke:#000000;stroke-width:0.0881944;stroke-linecap:butt;stroke-linejoin:miter;stroke-miterlimit:4;stroke-dasharray:none;stroke-opacity:1" /><path
     id="path283"
     d="M 35.74203,12.890101 C 32.092897,10.066821 27.656011,8.2126212 22.817312,7.7141463 m -5.828594,0.00212 C 12.146844,8.219324 7.7081937,10.079168 4.0594135,12.909857"
     style="fill:none;stroke:#000000;stroke-width:0.176389;stroke-linecap:butt;stroke-linejoin:round;stroke-miterlimit:4;stroke-dasharray:none;stroke-opacity:1" /><path
     id="path284"
     d="m 41.035109,24.551169 v 2.57175 m 0,-12.409663 v 2.985911"
     style="fill:none;stroke:#000000;stroke-width:0.176389;stroke-linecap:butt;stroke-linejoin:miter;stroke-miterlimit:4;stroke-dasharray:none;stroke-opacity:1" /><path
     id="path285"
     d="m 41.035461,18.839699 0.6223,-1.814336 h -1.237897 l 0.6096,1.789994 0.006,0.02434"
     style="fill:#000000;fill-opacity:1;fill-rule:nonzero;stroke:none;stroke-width:0.352778" /><path
     id="path286"
     d="m 41.042163,22.996832 -0.6223,1.814336 h 1.237897 l -0.6096,-1.790347 -0.006,-0.02399"
     style="fill:#000000;fill-opacity:1;fill-rule:nonzero;stroke:none;stroke-width:0.352778" /><path
     id="path287"
     d="m 36.719226,13.685616 -1.027642,-1.61925 -0.773288,0.966611 1.778352,0.642408 0.02258,0.01023"
     style="fill:#000000;fill-opacity:1;fill-rule:nonzero;stroke:none;stroke-width:0.352778" /><path
     id="path288"
     d="m 14.632515,14.437385 h 2.475794 m 5.33788,-0.01341 h 2.602442"
     style="fill:none;stroke:#000000;stroke-width:0.176389;stroke-linecap:butt;stroke-linejoin:miter;stroke-miterlimit:4;stroke-dasharray:none;stroke-opacity:1" /><path
     id="path289"
     d="m 21.385036,14.438795 1.813983,0.622653 v -1.23825 l -1.789641,0.6096 -0.02434,0.006"
     style="fill:#000000;fill-opacity:1;fill-rule:nonzero;stroke:none;stroke-width:0.352778" /><path
     id="path290"
     d="m 18.301053,14.447968 -1.813983,-0.6223 v 1.23825 l 1.789994,-0.6096 0.02399,-0.0063"
     style="fill:#000000;fill-opacity:1;fill-rule:nonzero;stroke:none;stroke-width:0.352778" /><path
     id="path291"
     d="m 3.0906871,13.700078 1.0276416,-1.619603 0.7732888,0.966611 -1.7783526,0.642409 -0.022578,0.01058"
     style="fill:#000000;fill-opacity:1;fill-rule:nonzero;stroke:none;stroke-width:0.352778" /><path
     id="path292"
     d="m 2.0260039,28.688194 v 2.395361 m 0,-16.19391 v 2.809522"
     style="fill:none;stroke:#000000;stroke-width:0.176389;stroke-linecap:butt;stroke-linejoin:miter;stroke-miterlimit:4;stroke-dasharray:none;stroke-opacity:1" /><path
     id="path293"
     d="M 2.0267077,18.839699 2.6490076,17.025363 H 1.4111105 l 0.6092472,1.789994 0.00635,0.02434"
     style="fill:#000000;fill-opacity:1;fill-rule:nonzero;stroke:none;stroke-width:0.352778" /><path
     id="path294"
     d="m 2.0334122,27.133857 -0.6222999,1.814336 h 1.2375443 l -0.6092472,-1.790347 -0.006,-0.02399"
     style="fill:#000000;fill-opacity:1;fill-rule:nonzero;stroke:none;stroke-width:0.352778" /><path
     id="path316"
     d="m 14.787738,27.160315 v 1.411464 l -0.936272,2.047522 m 11.078632,-3.54718 v 1.411463 l 0.906992,2.135717 m -11.985624,0 c 0,0 0,16.969668 0,19.148423 0,2.179108 4.112683,1.153584 5.992635,0 1.880306,-1.15323 5.992989,-2.178755 5.992989,0 V 30.619301 Z m 5.992635,19.148423 c 1.880306,-1.15323 5.992989,-2.178755 5.992989,0 0,2.179108 -4.112683,1.153584 -5.992989,0 z"
     style="fill:none;stroke:#000000;stroke-width:0.352778;stroke-linecap:butt;stroke-linejoin:miter;stroke-miterlimit:4;stroke-dasharray:none;stroke-opacity:1" /><path
     id="path317"
     d="m 25.687864,50.34381 -1.804458,-1.804811 m 0.624769,2.459919 -2.206977,-2.206977 m 0.208491,2.043641 -1.605138,-1.605491"
     style="fill:none;stroke:#000000;stroke-width:0.176389;stroke-linecap:butt;stroke-linejoin:miter;stroke-miterlimit:4;stroke-dasharray:none;stroke-opacity:1" /><path
     id="path318"
     d="m 19.844103,18.75997 v 17.643474 m 0,1.217436 v 3.043413 m 0,1.217436 v 11.057819"
     style="fill:none;stroke:#000000;stroke-width:0.0881944;stroke-linecap:butt;stroke-linejoin:miter;stroke-miterlimit:4;stroke-dasharray:none;stroke-opacity:1" /><path
     id="path319"
     d="M 24.915281,28.67479 V 48.435283 M 14.846652,28.696662 v 22.341062"
     style="fill:none;stroke:#000000;stroke-width:0.176389;stroke-linecap:butt;stroke-linejoin:miter;stroke-miterlimit:4;stroke-dasharray:none;stroke-opacity:1" /><path
     id="path325"
     d="m 34.547878,30.645407 h -9.639299 m 9.752188,-3.530952 h -9.638946"
     style="fill:none;stroke:#000000;stroke-width:0.0881944;stroke-linecap:butt;stroke-linejoin:miter;stroke-miterlimit:10;stroke-dasharray:none;stroke-opacity:1" /><path
     id="path327"
     d="m 33.317743,31.534407 v 1.477786 m 0.0074,-8.559799 v 1.815394"
     style="fill:none;stroke:#000000;stroke-width:0.176389;stroke-linecap:butt;stroke-linejoin:miter;stroke-miterlimit:10;stroke-dasharray:none;stroke-opacity:1" /><path
     id="path328"
     d="m 33.325503,27.071415 -0.47625,-1.388886 h 0.947561 l -0.466372,1.370542 -0.0049,0.01834"
     style="fill:#000000;fill-opacity:1;fill-rule:nonzero;stroke:none;stroke-width:0.352778" /><path
     id="path329"
     d="m 33.325152,30.660224 0.47625,1.388533 h -0.947561 l 0.466372,-1.370189 0.0049,-0.01834"
     style="fill:#000000;fill-opacity:1;fill-rule:nonzero;stroke:none;stroke-width:0.352778" /><path
     id="path335"
     d="M 33.018587,0.16399605 V 10.575525 m 0,1.146881 v 6.475588"
     style="fill:none;stroke:#000000;stroke-width:0.0881944;stroke-linecap:butt;stroke-linejoin:miter;stroke-miterlimit:4;stroke-dasharray:none;stroke-opacity:1" /><path
     id="path337"
     d="M 33.018587,1.1390755 31.204604,0.51677555 V 1.7546727 l 1.789641,-0.6092472 0.02434,-0.00635"
     style="fill:#000000;fill-opacity:1;fill-rule:nonzero;stroke:none;stroke-width:0.352778" /><path
     id="path338"
     d="M 16.58867,1.1281376 H 7.7745178"
     style="fill:none;stroke:#000000;stroke-width:0.176389;stroke-linecap:butt;stroke-linejoin:miter;stroke-miterlimit:4;stroke-dasharray:none;stroke-opacity:1" /><path
     id="path339"
     d="M 6.6078804,1.1390755 8.4218635,0.51677555 V 1.7546727 L 6.6322221,1.1454255 6.6078804,1.1390755"
     style="fill:#000000;fill-opacity:1;fill-rule:nonzero;stroke:none;stroke-width:0.352778" /><path
     id="path340"
     d="M 31.664272,1.1281376 H 22.313545"
     style="fill:none;stroke:#000000;stroke-width:0.176389;stroke-linecap:butt;stroke-linejoin:miter;stroke-miterlimit:4;stroke-dasharray:none;stroke-opacity:1" /><path
     id="path341"
     d="M 6.438547,0.27512105 V 10.687003 m 0,1.146881 v 6.475588"
     style="fill:none;stroke:#000000;stroke-width:0.0881944;stroke-linecap:butt;stroke-linejoin:miter;stroke-miterlimit:4;stroke-dasharray:none;stroke-opacity:1" /><text
     xml:space="preserve"
     style="font-size:3.52777013px;line-height:125%;font-family:Sans;-inkscape-font-specification:'Sans, Normal';font-variant-ligatures:none;letter-spacing:0px;word-spacing:0px;fill:#000000;fill-opacity:1;stroke:none;stroke-width:0.264583px;stroke-linecap:butt;stroke-linejoin:miter;stroke-opacity:1;font-weight:normal;font-style:normal;font-stretch:normal;font-variant:normal;font-variant-caps:normal;font-variant-numeric:normal;font-variant-east-asian:normal"
     x="18.601738"
     y="2.1028819"
     id="text1"><tspan
       sodipodi:role="line"
       id="tspan1"
       style="fill:#000000;fill-opacity:1;stroke-width:0.264583px;-inkscape-font-specification:'Sans, Normal';font-family:Sans;font-weight:normal;font-style:normal;font-stretch:normal;font-variant:normal;font-size:3.52777013px;font-variant-ligatures:none;font-variant-caps:normal;font-variant-numeric:normal;font-variant-east-asian:normal;stroke:none"
       x="18.601738"
       y="2.1028819">a</tspan></text><text
     xml:space="preserve"
     style="font-size:3.52777013px;line-height:125%;font-family:Sans;-inkscape-font-specification:'Sans, Normal';font-variant-ligatures:none;letter-spacing:0px;word-spacing:0px;fill:#000000;fill-opacity:1;stroke:none;stroke-width:0.264583px;stroke-linecap:butt;stroke-linejoin:miter;stroke-opacity:1;font-weight:normal;font-style:normal;font-stretch:normal;font-variant:normal;font-variant-caps:normal;font-variant-numeric:normal;font-variant-east-asian:normal"
     x="17.664591"
     y="7.0391011"
     id="text2"><tspan
       sodipodi:role="line"
       id="tspan2"
       style="fill:#000000;fill-opacity:1;stroke-width:0.264583px;-inkscape-font-specification:'Sans, Normal';font-family:Sans;font-weight:normal;font-style:normal;font-stretch:normal;font-variant:normal;font-size:3.52777013px;font-variant-ligatures:none;font-variant-caps:normal;font-variant-numeric:normal;font-variant-east-asian:normal;stroke:none"
       x="17.664591"
       y="7.0391011">90</tspan></text><text
     xml:space="preserve"
     style="font-size:3.52777013px;line-height:125%;font-family:Sans;-inkscape-font-specification:'Sans, Normal';font-variant-ligatures:none;letter-spacing:0px;word-spacing:0px;fill:#000000;fill-opacity:1;stroke:none;stroke-width:0.264583px;stroke-linecap:butt;stroke-linejoin:miter;stroke-opacity:1;font-weight:normal;font-style:normal;font-stretch:normal;font-variant:normal;font-variant-caps:normal;font-variant-numeric:normal;font-variant-east-asian:normal"
     x="12.481947"
     y="15.372525"
     id="text3"><tspan
       sodipodi:role="line"
       id="tspan3"
       style="fill:#000000;fill-opacity:1;stroke-width:0.264583px;-inkscape-font-specification:'Sans, Normal';font-family:Sans;font-weight:normal;font-style:normal;font-stretch:normal;font-variant:normal;font-size:3.52777013px;font-variant-ligatures:none;font-variant-caps:normal;font-variant-numeric:normal;font-variant-east-asian:normal;stroke:none"
       x="12.481947"
       y="15.372525">j</tspan></text><text
     xml:space="preserve"
     style="font-size:3.52777013px;line-height:125%;font-family:Sans;-inkscape-font-specification:'Sans, Normal';font-variant-ligatures:none;letter-spacing:0px;word-spacing:0px;fill:#000000;fill-opacity:1;stroke:none;stroke-width:0.264583px;stroke-linecap:butt;stroke-linejoin:miter;stroke-opacity:1;font-weight:normal;font-style:normal;font-stretch:normal;font-variant:normal;font-variant-caps:normal;font-variant-numeric:normal;font-variant-east-asian:normal"
     x="0.90888524"
     y="24.218962"
     id="text4"><tspan
       sodipodi:role="line"
       id="tspan4"
       style="fill:#000000;fill-opacity:1;stroke-width:0.264583px;-inkscape-font-specification:'Sans, Normal';font-family:Sans;font-weight:normal;font-style:normal;font-stretch:normal;font-variant:normal;font-size:3.52777013px;font-variant-ligatures:none;font-variant-caps:normal;font-variant-numeric:normal;font-variant-east-asian:normal;stroke:none"
       x="0.90888524"
       y="24.218962">h</tspan></text><text
     xml:space="preserve"
     style="font-size:3.52777013px;line-height:125%;font-family:Sans;-inkscape-font-specification:'Sans, Normal';font-variant-ligatures:none;letter-spacing:0px;word-spacing:0px;fill:#000000;fill-opacity:1;stroke:none;stroke-width:0.264583px;stroke-linecap:butt;stroke-linejoin:miter;stroke-opacity:1;font-weight:normal;font-style:normal;font-stretch:normal;font-variant:normal;font-variant-caps:normal;font-variant-numeric:normal;font-variant-east-asian:normal"
     x="40.354271"
     y="30.762884"
     id="text5"><tspan
       sodipodi:role="line"
       id="tspan5"
       style="fill:#000000;fill-opacity:1;stroke-width:0.264583px;-inkscape-font-specification:'Sans, Normal';font-family:Sans;font-weight:normal;font-style:normal;font-stretch:normal;font-variant:normal;font-size:3.52777013px;font-variant-ligatures:none;font-variant-caps:normal;font-variant-numeric:normal;font-variant-east-asian:normal;stroke:none"
       x="40.354271"
       y="30.762884">t</tspan></text><text
     xml:space="preserve"
     style="font-size:3.52777013px;line-height:125%;font-family:Sans;-inkscape-font-specification:'Sans, Normal';font-variant-ligatures:none;letter-spacing:0px;word-spacing:0px;fill:#000000;fill-opacity:1;stroke:none;stroke-width:0.264583px;stroke-linecap:butt;stroke-linejoin:miter;stroke-opacity:1;font-weight:normal;font-style:normal;font-stretch:normal;font-variant:normal;font-variant-caps:normal;font-variant-numeric:normal;font-variant-east-asian:normal"
     x="32.174339"
     y="36.094963"
     id="text6"><tspan
       sodipodi:role="line"
       id="tspan6"
       style="fill:#000000;fill-opacity:1;stroke-width:0.264583px;-inkscape-font-specification:'Sans, Normal';font-family:Sans;font-weight:normal;font-style:normal;font-stretch:normal;font-variant:normal;font-size:3.52777013px;font-variant-ligatures:none;font-variant-caps:normal;font-variant-numeric:normal;font-variant-east-asian:normal;stroke:none"
       x="32.174339"
       y="36.094963">u</tspan></text></svg>
