<?xml version="1.0" encoding="UTF-8" standalone="no"?>
<!-- Created with Inkscape (http://www.inkscape.org/) -->

<svg
   width="168.87543mm"
   height="38.321217mm"
   viewBox="0 0 168.87542 38.321216"
   version="1.1"
   id="svg1"
   xml:space="preserve"
   sodipodi:docname="screw_socket_hex_flat.svg"
   inkscape:version="1.3.2 (091e20e, 2023-11-25, custom)"
   xmlns:inkscape="http://www.inkscape.org/namespaces/inkscape"
   xmlns:sodipodi="http://sodipodi.sourceforge.net/DTD/sodipodi-0.dtd"
   xmlns="http://www.w3.org/2000/svg"
   xmlns:svg="http://www.w3.org/2000/svg"><sodipodi:namedview
     id="namedview1"
     pagecolor="#ffffff"
     bordercolor="#666666"
     borderopacity="1.0"
     inkscape:showpageshadow="2"
     inkscape:pageopacity="0.0"
     inkscape:pagecheckerboard="0"
     inkscape:deskcolor="#d1d1d1"
     inkscape:document-units="mm"
     inkscape:zoom="1.9568542"
     inkscape:cx="319.13466"
     inkscape:cy="72.820959"
     inkscape:window-width="1920"
     inkscape:window-height="1129"
     inkscape:window-x="-8"
     inkscape:window-y="-8"
     inkscape:window-maximized="1"
     inkscape:current-layer="g1"><inkscape:page
       x="4.3344579e-07"
       y="-2.4983312e-06"
       width="168.87541"
       height="38.321217"
       id="page3"
       margin="0"
       bleed="0" /></sodipodi:namedview><defs
     id="defs1" /><g
     id="g1"
     inkscape:groupmode="layer"
     inkscape:label="1"
     transform="matrix(0.26458333,0,0,0.26458334,-18.891618,-43.830877)"><path
       id="path92"
       d="M 0,0 3.011,4.122 6.225,0 8.988,-21.148 6.123,-25.27 2.764,-21.148 Z M 3.011,4.122 6.123,-25.27 M 6.225,0 9.235,4.122 12.449,0 l 2.764,-21.148 -2.865,-4.122 -3.36,4.122 z m 3.01,4.122 3.113,-29.392 M 12.449,0 15.46,4.122 18.674,0 l 2.764,-21.148 -2.865,-4.122 -3.36,4.122 z M 15.46,4.122 18.573,-25.27 M 18.674,0 21.685,4.122 24.899,0 l 2.764,-21.148 -2.866,-4.122 -3.359,4.122 z m 3.011,4.122 3.112,-29.392 M 24.899,0 27.91,4.122 31.124,0 l 2.763,-21.148 -2.865,-4.122 -3.359,4.122 z M 27.91,4.122 31.022,-25.27 M 31.124,0 34.134,4.122 37.348,0 l 2.764,-21.148 -2.865,-4.122 -3.36,4.122 z m 3.01,4.122 3.113,-29.392 M 37.348,0 40.359,4.122 43.573,0 l 2.764,-21.148 -2.865,-4.122 -3.36,4.122 z m 3.011,4.122 3.113,-29.392 M 43.573,0 46.584,4.122 49.798,0 l 2.764,-21.148 -2.865,-4.122 -3.36,4.122 z m 3.011,4.122 3.113,-29.392 M 49.798,0 52.809,4.122 56.023,0 l 2.763,-21.148 -2.865,-4.122 -3.359,4.122 z m 3.011,4.122 3.112,-29.392 M 56.023,0 59.034,4.122 62.247,0 l 2.764,-21.148 -2.865,-4.122 -3.36,4.122 z m 3.011,4.122 3.112,-29.392 M 62.247,0 65.258,4.122 68.472,0 l 2.764,-21.148 -2.865,-4.122 -3.36,4.122 z m 3.011,4.122 3.113,-29.392 M 68.472,0 71.483,4.122 74.697,0 l 2.764,-21.148 -2.865,-4.122 -3.36,4.122 z m 3.011,4.122 3.113,-29.392 M 74.697,0 77.708,4.122 80.922,0 l 2.764,-21.148 -2.866,-4.122 -3.359,4.122 z"
       style="fill:none;stroke:#000000;stroke-width:0.75;stroke-linecap:butt;stroke-linejoin:miter;stroke-miterlimit:4;stroke-dasharray:none;stroke-opacity:1"
       transform="matrix(1.3333333,0,0,-1.3333333,205.86667,222.156)" /><path
       id="path93"
       d="M 0,0 3.112,-29.392 M 3.214,-4.122 6.225,0 9.438,-4.122 12.202,-25.27 9.337,-29.392 5.978,-25.27 Z M 6.225,0 9.337,-29.392 m 0.101,25.27 3.011,4.122 3.214,-4.122 2.764,-21.148 -2.865,-4.122 -3.36,4.122 z M 12.449,0 15.562,-29.392 m 0.101,25.27 3.011,4.122 3.214,-4.122 2.764,-21.148 -2.865,-4.122 -3.36,4.122 z M 18.674,0 21.787,-29.392 M 24.899,0 28.012,-29.392 m 0.933,25.748 3.678,-1.561 v -19.214 l -4.611,-4.973 -3.36,4.122 -2.764,21.148 3.011,4.122 3.214,-4.122 z"
       style="fill:none;stroke:#000000;stroke-width:0.75;stroke-linecap:butt;stroke-linejoin:miter;stroke-miterlimit:4;stroke-dasharray:none;stroke-opacity:1"
       transform="matrix(1.3333333,0,0,-1.3333333,309.47733,216.66)" /><path
       id="path94"
       d="M 0,0 -5.46,23.192 -4.458,0.014 -2.144,4.122 0,0 2.866,4.122 0.102,25.27 -3.112,29.392 Z"
       style="fill:none;stroke:#000000;stroke-width:0.75;stroke-linecap:butt;stroke-linejoin:miter;stroke-miterlimit:1.5;stroke-dasharray:none;stroke-opacity:1"
       transform="matrix(1.3333333,0,0,-1.3333333,205.73067,255.84933)" /><path
       id="path95"
       d="m 0,0 -3.214,4.122 c -4.466,0 -21.654,0 -42.097,0 m 43.605,-25.27 -2.854,-4.108 c -3.873,0 -23.047,0 -40.751,0"
       style="fill:none;stroke:#000000;stroke-width:1;stroke-linecap:butt;stroke-linejoin:miter;stroke-miterlimit:4;stroke-dasharray:none;stroke-opacity:1"
       transform="matrix(1.3333333,0,0,-1.3333333,205.86667,222.156)" /><path
       id="path96"
       d="m 0,0 0.35,-7.962 -1.182,7.484"
       style="fill:none;stroke:#000000;stroke-width:0.5;stroke-linecap:butt;stroke-linejoin:miter;stroke-miterlimit:4;stroke-dasharray:none;stroke-opacity:1"
       transform="matrix(1.3333333,0,0,-1.3333333,348.07067,221.51867)" /><path
       id="path97"
       d="M 0,0 V 26.462 L 14.841,11.5 V -17.878 L 0,-32.872 Z"
       style="fill:none;stroke:#000000;stroke-width:1;stroke-linecap:butt;stroke-linejoin:miter;stroke-miterlimit:4;stroke-dasharray:none;stroke-opacity:1"
       transform="matrix(1.3333333,0,0,-1.3333333,125.664,231.99333)" /><path
       id="path98"
       d="M 0,0 H -177.091"
       style="fill:none;stroke:#000000;stroke-width:0.5;stroke-linecap:butt;stroke-linejoin:miter;stroke-miterlimit:4;stroke-dasharray:4, 4, 20, 4;stroke-dashoffset:0;stroke-opacity:1"
       transform="matrix(1.3333333,0,0,-1.3333333,358.01467,236.24533)" /><path
       id="path99"
       d="m 0,0 -17.653,14.175 m 2.679,-84.616 c -8.691,10.875 -13.886,24.665 -13.886,39.668 0,14.923 5.14,28.646 13.746,39.494"
       style="fill:none;stroke:#000000;stroke-width:0.25;stroke-linecap:butt;stroke-linejoin:miter;stroke-miterlimit:4;stroke-dasharray:none;stroke-opacity:1"
       transform="matrix(1.3333333,0,0,-1.3333333,124.248,195.21467)" /><path
       id="path100"
       d="M 53.551,605.292 H 72.599 V 624.59 H 53.551 Z"
       style="fill:#ffffff;fill-opacity:1;fill-rule:nonzero;stroke:none"
       transform="matrix(1.3333333,0,0,-1.3333333,0,1056)" /><path
       id="path101"
       d="m 127.676,610.792 h 8.173 v 9.048 h -8.173 z"
       style="fill:#ffffff;fill-opacity:1;fill-rule:nonzero;stroke:none"
       transform="matrix(1.3333333,0,0,-1.3333333,0,1056)" /><path
       id="path103"
       d="M 0,0 V -43.965"
       style="fill:none;stroke:#ffffff;stroke-width:1;stroke-linecap:butt;stroke-linejoin:miter;stroke-miterlimit:4;stroke-dasharray:none;stroke-opacity:1"
       transform="matrix(1.3333333,0,0,-1.3333333,137.30667,166.31333)" /><path
       id="path104"
       d="M 0,0 V -41.5"
       style="fill:none;stroke:#000000;stroke-width:0.25;stroke-linecap:butt;stroke-linejoin:miter;stroke-miterlimit:4;stroke-dasharray:none;stroke-opacity:1"
       transform="matrix(1.3333333,0,0,-1.3333333,137.30667,169.6)" /><path
       id="path105"
       d="M 0,0 H 5.42"
       style="fill:none;stroke:#000000;stroke-width:0.5;stroke-linecap:butt;stroke-linejoin:miter;stroke-miterlimit:4;stroke-dasharray:none;stroke-opacity:1"
       transform="matrix(1.3333333,0,0,-1.3333333,143.32133,180.47333)" /><path
       id="path106"
       d="M 0,0 5.142,1.764 V -1.745 L 0.068,-0.018 0,0"
       style="fill:#000000;fill-opacity:1;fill-rule:nonzero;stroke:none"
       transform="matrix(1.3333333,0,0,-1.3333333,137.64133,180.548)" /><path
       id="path107"
       d="M 0,0 H -5.92"
       style="fill:none;stroke:#000000;stroke-width:0.5;stroke-linecap:butt;stroke-linejoin:miter;stroke-miterlimit:4;stroke-dasharray:none;stroke-opacity:1"
       transform="matrix(1.3333333,0,0,-1.3333333,119.15067,180.03467)" /><path
       id="path108"
       d="M 0,0 V -19.065"
       style="fill:none;stroke:#000000;stroke-width:0.25;stroke-linecap:butt;stroke-linejoin:miter;stroke-miterlimit:4;stroke-dasharray:none;stroke-opacity:1"
       transform="matrix(1.3333333,0,0,-1.3333333,125.164,167.82267)" /><path
       id="path109"
       d="M 0,0 -5.142,1.764 V -1.745 L -0.069,-0.017 0,0"
       style="fill:#000000;fill-opacity:1;fill-rule:nonzero;stroke:none"
       transform="matrix(1.3333333,0,0,-1.3333333,124.83067,180.10933)" /><path
       id="path110"
       d="M 0,0 -4.384,3.214 -1.504,5.217 -0.025,0.066 0,0"
       style="fill:#000000;fill-opacity:1;fill-rule:nonzero;stroke:none"
       transform="matrix(1.3333333,0,0,-1.3333333,103.99333,289.03733)" /><path
       id="path111"
       d="m 0,0 -4.384,-3.214 2.88,-2.003 1.479,5.151 L 0,0"
       style="fill:#000000;fill-opacity:1;fill-rule:nonzero;stroke:none"
       transform="matrix(1.3333333,0,0,-1.3333333,103.99333,183.452)" /><path
       id="path112"
       d="M 0.45826563,-1.6521406 1.7824844,-1.8044844 c 0.029297,0.2753906 0.1113281,0.4775391 0.2460937,0.609375 0.140625,0.1259766 0.3222657,0.1875 0.5507813,0.1875 0.28125,0 0.5185547,-0.1289062 0.7148437,-0.3867187 0.2021485,-0.2578125 0.3310547,-0.796875 0.3867188,-1.6171875 -0.3457031,0.3984375 -0.7734375,0.5976562 -1.2890625,0.5976562 -0.5625,0 -1.0517578,-0.2138672 -1.46484377,-0.6445312 -0.40722657,-0.4365235 -0.609375,-1.0078125 -0.609375,-1.7109375 0,-0.7177735 0.21386718,-1.3007813 0.64453125,-1.7460938 0.42773442,-0.4453125 0.97851562,-0.6679687 1.65234372,-0.6679687 0.7265625,0 1.3183594,0.28125 1.78125,0.84375 0.46875,0.5625 0.703125,1.4853515 0.703125,2.765625 0,1.3125 -0.243164,2.258789 -0.7265625,2.83593747 C 3.886,-0.158 3.2531875,0.12910937 2.4738906,0.12910937 1.91725,0.12910937 1.4660781,-0.017375 1.1145156,-0.31620313 0.7688125,-0.61210156 0.55201563,-1.0574141 0.45826563,-1.6521406 Z m 3.10546877,-3 c 0,-0.4453125 -0.1025391,-0.788086 -0.3046875,-1.03125 -0.2050781,-0.2402344 -0.4423828,-0.3632813 -0.7148438,-0.3632813 -0.2519531,0 -0.4628906,0.1025391 -0.6328125,0.3046875 -0.1640625,0.1962891 -0.2460937,0.5214844 -0.2460937,0.9726563 0,0.46875 0.087891,0.8144531 0.2695312,1.03125 0.1875,0.2109375 0.4160157,0.3164062 0.6914063,0.3164062 0.2578125,0 0.4746094,-0.099609 0.65625,-0.3046875 0.1875,-0.2109375 0.28125,-0.5185547 0.28125,-0.9257812 z m 4.7373047,-2.53125 c 0.6943359,0 1.2363281,0.2460937 1.6289062,0.7382812 0.4599607,0.5859375 0.6914067,1.5585938 0.6914067,2.9179688 0,1.3535156 -0.234375,2.3261718 -0.7031254,2.91796872 -0.3837891,0.48632813 -0.9228516,0.7265625 -1.6171875,0.7265625 -0.6972657,0 -1.2597657,-0.26367187 -1.6875,-0.796875 C 6.1916641,-1.2185469 5.9807266,-2.1706953 5.9807266,-3.5388594 c 0,-1.3505859 0.234375,-2.3232422 0.703125,-2.9179687 0.3808593,-0.4833985 0.9199218,-0.7265625 1.6171875,-0.7265625 z m 0,1.1367187 c -0.1640625,0 -0.3134766,0.055664 -0.4453125,0.1640625 -0.1259766,0.1025391 -0.2285157,0.2900391 -0.3046875,0.5625 -0.09375,0.3515625 -0.140625,0.9492188 -0.140625,1.7929688 0,0.8378906 0.041016,1.415039 0.1289062,1.734375 0.084961,0.3134765 0.1904297,0.5214843 0.3164063,0.6210937 0.1318359,0.1025391 0.28125,0.1523438 0.4453125,0.1523438 0.1640625,0 0.3105468,-0.049805 0.4453125,-0.1523438 0.1318359,-0.1083984 0.234375,-0.2988281 0.3046875,-0.5742187 0.09375,-0.3515625 0.140625,-0.9433594 0.140625,-1.78125 0,-0.84375 -0.043945,-1.4208985 -0.1289063,-1.734375 C 8.9748672,-5.5720625 8.8664688,-5.7800703 8.7346328,-5.8826094 8.6086563,-5.9910078 8.4651016,-6.0466719 8.3010391,-6.0466719 Z m 5.4433589,-0.5039062 c 0,0.2666015 -0.09375,0.4921875 -0.28125,0.6796875 -0.1875,0.1875 -0.416015,0.28125 -0.679687,0.28125 -0.266602,0 -0.492188,-0.09375 -0.679688,-0.28125 -0.1875,-0.1875 -0.28125,-0.413086 -0.28125,-0.6796875 0,-0.2636719 0.09375,-0.4921875 0.28125,-0.6796875 0.1875,-0.1875 0.413086,-0.28125 0.679688,-0.28125 0.263672,0 0.492187,0.09375 0.679687,0.28125 0.1875,0.1875 0.28125,0.4160156 0.28125,0.6796875 z m -0.527343,0 c 0,-0.1171875 -0.04395,-0.2167969 -0.128907,-0.3046875 -0.08789,-0.084961 -0.1875,-0.1289063 -0.304687,-0.1289063 -0.117188,0 -0.219727,0.043945 -0.304688,0.1289063 -0.08789,0.087891 -0.128906,0.1875 -0.128906,0.3046875 0,0.1171875 0.04102,0.2197265 0.128906,0.3046875 0.08496,0.087891 0.1875,0.1289062 0.304688,0.1289062 0.117187,0 0.216797,-0.041016 0.304687,-0.1289062 0.08496,-0.084961 0.128907,-0.1875 0.128907,-0.3046875 z m 0,0"
       style="fill:#000000;fill-opacity:1;fill-rule:nonzero;stroke:none"
       aria-label="90˚"
       transform="matrix(1.3333333,0,0,1.3333333,77.818667,240.71067)" /><path
       id="path113"
       d="M 0,0 -17.652,-14.176"
       style="fill:none;stroke:#000000;stroke-width:0.25;stroke-linecap:butt;stroke-linejoin:miter;stroke-miterlimit:4;stroke-dasharray:none;stroke-opacity:1"
       transform="matrix(1.3333333,0,0,-1.3333333,123.77467,277.38533)" /><path
       id="path115"
       d="M 0,0 V 25.874"
       style="fill:none;stroke:#000000;stroke-width:0.25;stroke-linecap:butt;stroke-linejoin:miter;stroke-miterlimit:4;stroke-dasharray:none;stroke-opacity:1"
       transform="matrix(1.3333333,0,0,-1.3333333,145.452,292.25067)" /><path
       id="path116"
       d="M 0,0 H 5.42"
       style="fill:none;stroke:#000000;stroke-width:0.5;stroke-linecap:butt;stroke-linejoin:miter;stroke-miterlimit:4;stroke-dasharray:none;stroke-opacity:1"
       transform="matrix(1.3333333,0,0,-1.3333333,151.46533,288.70533)" /><path
       id="path117"
       d="M 0,0 5.142,-1.764 V 1.744 L 0.069,0.017 0,0"
       style="fill:#000000;fill-opacity:1;fill-rule:nonzero;stroke:none"
       transform="matrix(1.3333333,0,0,-1.3333333,145.78533,288.63067)" /><path
       id="path118"
       d="M 0,0 H -4.545"
       style="fill:none;stroke:#000000;stroke-width:0.5;stroke-linecap:butt;stroke-linejoin:miter;stroke-miterlimit:4;stroke-dasharray:none;stroke-opacity:1"
       transform="matrix(1.3333333,0,0,-1.3333333,119.15067,288.70533)" /><path
       id="path119"
       d="M 0,0 V 20.158"
       style="fill:none;stroke:#000000;stroke-width:0.25;stroke-linecap:butt;stroke-linejoin:miter;stroke-miterlimit:4;stroke-dasharray:none;stroke-opacity:1"
       transform="matrix(1.3333333,0,0,-1.3333333,125.164,306.48933)" /><path
       id="path120"
       d="M 0,0 -5.142,-1.764 V 1.744 L -0.069,0.017 0,0"
       style="fill:#000000;fill-opacity:1;fill-rule:nonzero;stroke:none"
       transform="matrix(1.3333333,0,0,-1.3333333,124.83067,288.63067)" /><path
       id="path121"
       d="M 0,0 V -37.25"
       style="fill:none;stroke:#ffffff;stroke-width:1;stroke-linecap:butt;stroke-linejoin:miter;stroke-miterlimit:4;stroke-dasharray:none;stroke-opacity:1"
       transform="matrix(1.3333333,0,0,-1.3333333,353.47467,165.66)" /><path
       id="path122"
       d="M 0,0 H -8.32 M 0,-6.992 h -8.32 m 0,10.521 H 0 L 3.2,-1.412 V -5.573 L 0,-10.514 h -8.32 m 8.32,0 c 0.533,1.155 0.266,2.882 0,3.522 0.64,1.793 0.64,4.886 0,6.992 0.266,0.64 0.373,2.428 0,3.529"
       style="fill:none;stroke:#000000;stroke-width:1;stroke-linecap:butt;stroke-linejoin:miter;stroke-miterlimit:4;stroke-dasharray:none;stroke-opacity:1"
       transform="matrix(1.3333333,0,0,-1.3333333,137.068,231.972)" /><path
       id="path123"
       d="M 0,0 -17.209,-19.702 H -46.591 L -63.8,0 Z"
       style="fill:none;stroke:#000000;stroke-width:1;stroke-linecap:butt;stroke-linejoin:round;stroke-miterlimit:4;stroke-dasharray:none;stroke-opacity:1"
       transform="matrix(1.3333333,0,0,-1.3333333,529.548,222.47333)" /><path
       id="path124"
       d="M 0,0 V -47.037"
       style="fill:none;stroke:#000000;stroke-width:0.5;stroke-linecap:butt;stroke-linejoin:miter;stroke-miterlimit:4;stroke-dasharray:4, 4, 17, 4;stroke-dashoffset:0;stroke-opacity:1"
       transform="matrix(1.3333333,0,0,-1.3333333,487.01467,215.692)" /><path
       id="path125"
       d="m 0,0 c 0,-1.698 -2.268,-2.689 -6.13,-2.689 -2.561,0 -6.477,1.36 -8.561,2.689 M 0,16.188 V 0 c 0,1.697 -2.268,2.689 -6.13,2.689 -2.561,0 -6.477,-1.36 -8.561,-2.689 -2.084,-1.329 -6,-2.689 -8.561,-2.689 -3.862,0 -6.13,0.991 -6.13,2.689 v 16.188"
       style="fill:none;stroke:#000000;stroke-width:1;stroke-linecap:butt;stroke-linejoin:miter;stroke-miterlimit:4;stroke-dasharray:none;stroke-opacity:1"
       transform="matrix(1.3333333,0,0,-1.3333333,506.60267,270.32667)" /><path
       id="path126"
       d="m 0,0 3.399,-3.254 m -0.773,4.132 4.69,-4.48 m -1.839,5.164 4.977,-4.864"
       style="fill:none;stroke:#000000;stroke-width:0.5;stroke-linecap:butt;stroke-linejoin:miter;stroke-miterlimit:4;stroke-dasharray:none;stroke-opacity:1"
       transform="matrix(1.3333333,0,0,-1.3333333,489.57733,268.97067)" /><path
       id="path127"
       d="M 0,0 V -3.088 H -57.313 V 0"
       style="fill:none;stroke:#000000;stroke-width:0.25;stroke-linecap:butt;stroke-linejoin:miter;stroke-miterlimit:4;stroke-dasharray:none;stroke-opacity:1"
       transform="matrix(1.3333333,0,0,-1.3333333,525.204,222.47333)" /><path
       id="path128"
       d="M 0,0 3.44,-3.292"
       style="fill:none;stroke:#000000;stroke-width:0.5;stroke-linecap:butt;stroke-linejoin:miter;stroke-miterlimit:4;stroke-dasharray:none;stroke-opacity:1"
       transform="matrix(1.3333333,0,0,-1.3333333,501.74533,267.13333)" /><path
       id="path130"
       d="M 0,0 V -28.625"
       style="fill:none;stroke:#000000;stroke-width:0.25;stroke-linecap:butt;stroke-linejoin:miter;stroke-miterlimit:4;stroke-dasharray:none;stroke-opacity:1"
       transform="matrix(1.3333333,0,0,-1.3333333,443.81467,182.22267)" /><path
       id="path131"
       d="M 0,0 H 22.045"
       style="fill:none;stroke:#000000;stroke-width:0.5;stroke-linecap:butt;stroke-linejoin:miter;stroke-miterlimit:4;stroke-dasharray:none;stroke-opacity:1"
       transform="matrix(1.3333333,0,0,-1.3333333,495.82933,185.768)" /><path
       id="path132"
       d="M 0,0 5.141,1.763 V -1.745 L 0.068,-0.018 0,0"
       style="fill:#000000;fill-opacity:1;fill-rule:nonzero;stroke:none"
       transform="matrix(1.3333333,0,0,-1.3333333,444.14933,185.84267)" /><path
       id="path133"
       d="M 0,0 V -28.625"
       style="fill:none;stroke:#000000;stroke-width:0.25;stroke-linecap:butt;stroke-linejoin:miter;stroke-miterlimit:4;stroke-dasharray:none;stroke-opacity:1"
       transform="matrix(1.3333333,0,0,-1.3333333,530.21467,182.22267)" /><path
       id="path134"
       d="M 0,0 -5.142,1.763 V -1.745 L -0.068,-0.018 0,0"
       style="fill:#000000;fill-opacity:1;fill-rule:nonzero;stroke:none"
       transform="matrix(1.3333333,0,0,-1.3333333,529.88,185.84267)" /><path
       id="path136"
       d="m 0,0 -13.881,24.968 h 6.6"
       style="fill:none;stroke:#000000;stroke-width:0.5;stroke-linecap:butt;stroke-linejoin:miter;stroke-miterlimit:4;stroke-dasharray:none;stroke-opacity:1"
       transform="matrix(1.3333333,0,0,-1.3333333,644.93467,222.05733)" /><path
       id="path137"
       d="M 0,0 -4.392,4.058 -0.995,5.889 -0.019,0.075 0,0"
       style="fill:#000000;fill-opacity:1;fill-rule:nonzero;stroke:none"
       transform="matrix(1.3333333,0,0,-1.3333333,647.89333,227.544)" /><path
       id="path138"
       d="M 0,0 C 16.753,0 30.335,-13.582 30.335,-30.335 30.335,-47.088 16.753,-60.67 0,-60.67 c -16.754,0 -30.335,13.582 -30.335,30.335 C -30.335,-13.582 -16.754,0 0,0 Z M 0,-20.681 8.36,-25.507 8.361,-35.162 0,-39.99 l -8.361,4.827 -10e-4,9.655 z"
       style="fill:none;stroke:#000000;stroke-width:1;stroke-linecap:butt;stroke-linejoin:miter;stroke-miterlimit:4;stroke-dasharray:none;stroke-opacity:1"
       transform="matrix(1.3333333,0,0,-1.3333333,658.44933,195.45867)" /><path
       id="path139"
       d="M 0,0 V -76.666"
       style="fill:none;stroke:#000000;stroke-width:0.25;stroke-linecap:butt;stroke-linejoin:miter;stroke-miterlimit:4;stroke-dasharray:27, 2, 5, 2;stroke-dashoffset:0;stroke-opacity:1"
       transform="matrix(1.3333333,0,0,-1.3333333,658.44933,183.82267)" /><path
       id="path140"
       d="M 0,0 H 78.666"
       style="fill:none;stroke:#000000;stroke-width:0.25;stroke-linecap:butt;stroke-linejoin:miter;stroke-miterlimit:4;stroke-dasharray:24, 2, 5, 2;stroke-dashoffset:0;stroke-opacity:1"
       transform="matrix(1.3333333,0,0,-1.3333333,604.78267,235.90533)" /><path
       id="path141"
       d="M 0,0 H 22.045"
       style="fill:none;stroke:#000000;stroke-width:0.5;stroke-linecap:butt;stroke-linejoin:miter;stroke-miterlimit:4;stroke-dasharray:none;stroke-opacity:1"
       transform="matrix(1.3333333,0,0,-1.3333333,450.86533,185.73867)" /><path
       id="path142"
       d="M 0,0 V 43.562"
       style="fill:none;stroke:#000000;stroke-width:0.25;stroke-linecap:butt;stroke-linejoin:miter;stroke-miterlimit:4;stroke-dasharray:none;stroke-opacity:1"
       transform="matrix(1.3333333,0,0,-1.3333333,352.356,308.26667)" /><path
       id="path143"
       d="M 0,0 H 69.42"
       style="fill:none;stroke:#000000;stroke-width:0.5;stroke-linecap:butt;stroke-linejoin:miter;stroke-miterlimit:4;stroke-dasharray:none;stroke-opacity:1"
       transform="matrix(1.3333333,0,0,-1.3333333,131.77733,304.72133)" /><path
       id="path144"
       d="M 0,0 5.142,-1.764 V 1.745 L 0.069,0.018 0,0"
       style="fill:#000000;fill-opacity:1;fill-rule:nonzero;stroke:none"
       transform="matrix(1.3333333,0,0,-1.3333333,126.09733,304.64667)" /><path
       id="path145"
       d="M 0,0 H -65.75"
       style="fill:none;stroke:#000000;stroke-width:0.5;stroke-linecap:butt;stroke-linejoin:miter;stroke-miterlimit:4;stroke-dasharray:none;stroke-opacity:1"
       transform="matrix(1.3333333,0,0,-1.3333333,345.78267,304.78533)" /><path
       id="path146"
       d="M 0,0 -5.142,-1.764 V 1.744 L -0.069,0.017 0,0"
       style="fill:#000000;fill-opacity:1;fill-rule:nonzero;stroke:none"
       transform="matrix(1.3333333,0,0,-1.3333333,351.46267,304.71067)" /><path
       id="path148"
       d="M 0,0 V -25 M 112.688,0.083 v -29.792"
       style="fill:none;stroke:#000000;stroke-width:0.25;stroke-linecap:butt;stroke-linejoin:miter;stroke-miterlimit:4;stroke-dasharray:none;stroke-opacity:1"
       transform="matrix(1.3333333,0,0,-1.3333333,202.14267,181.544)" /><path
       id="path149"
       d="M 0,0 H 43.21"
       style="fill:none;stroke:#000000;stroke-width:0.5;stroke-linecap:butt;stroke-linejoin:miter;stroke-miterlimit:4;stroke-dasharray:none;stroke-opacity:1"
       transform="matrix(1.3333333,0,0,-1.3333333,208.50267,191.824)" /><path
       id="path150"
       d="M 0,0 5.141,-1.764 V 1.744 L 0.068,0.017 0,0"
       style="fill:#000000;fill-opacity:1;fill-rule:nonzero;stroke:none"
       transform="matrix(1.3333333,0,0,-1.3333333,202.82267,191.74933)" /><path
       id="path151"
       d="M 0,0 H -43.75"
       style="fill:none;stroke:#000000;stroke-width:0.5;stroke-linecap:butt;stroke-linejoin:miter;stroke-miterlimit:4;stroke-dasharray:none;stroke-opacity:1"
       transform="matrix(1.3333333,0,0,-1.3333333,346.79867,191.888)" /><path
       id="path152"
       d="M 0,0 -5.142,-1.764 V 1.744 L -0.068,0.017 0,0"
       style="fill:#000000;fill-opacity:1;fill-rule:nonzero;stroke:none"
       transform="matrix(1.3333333,0,0,-1.3333333,352.47867,191.81333)" /><text
       xml:space="preserve"
       style="font-size:13.33329956px;line-height:125%;font-family:Sans;-inkscape-font-specification:'Sans, Normal';font-variant-ligatures:none;letter-spacing:0px;word-spacing:0px;fill:#000000;stroke:none;stroke-width:1px;stroke-linecap:butt;stroke-linejoin:miter;stroke-opacity:1;font-weight:normal;font-style:normal;font-stretch:normal;font-variant:normal;font-variant-caps:normal;font-variant-numeric:normal;font-variant-east-asian:normal;fill-opacity:1"
       x="157.25348"
       y="185.45766"
       id="text1"><tspan
         sodipodi:role="line"
         id="tspan1"
         x="157.25348"
         y="185.45766">t</tspan></text><text
       xml:space="preserve"
       style="font-size:13.33329956px;line-height:125%;font-family:Sans;-inkscape-font-specification:'Sans, Normal';font-variant-ligatures:none;letter-spacing:0px;word-spacing:0px;fill:#000000;stroke:none;stroke-width:1px;stroke-linecap:butt;stroke-linejoin:miter;stroke-opacity:1;font-weight:normal;font-style:normal;font-stretch:normal;font-variant:normal;font-variant-caps:normal;font-variant-numeric:normal;font-variant-east-asian:normal;fill-opacity:1"
       x="165.98499"
       y="294.26172"
       id="text2"><tspan
         sodipodi:role="line"
         id="tspan2"
         x="165.98499"
         y="294.26172">h</tspan></text><text
       xml:space="preserve"
       style="font-size:13.33329956px;line-height:125%;font-family:Sans;-inkscape-font-specification:'Sans, Normal';font-variant-ligatures:none;letter-spacing:0px;word-spacing:0px;fill:#000000;stroke:none;stroke-width:1px;stroke-linecap:butt;stroke-linejoin:miter;stroke-opacity:1;font-weight:normal;font-style:normal;font-stretch:normal;font-variant:normal;font-variant-caps:normal;font-variant-numeric:normal;font-variant-east-asian:normal;fill-opacity:1"
       x="272.74496"
       y="196.5679"
       id="text3"><tspan
         sodipodi:role="line"
         id="tspan3"
         x="272.74496"
         y="196.5679">lt</tspan></text><text
       xml:space="preserve"
       style="font-size:13.33329956px;line-height:125%;font-family:Sans;-inkscape-font-specification:'Sans, Normal';font-variant-ligatures:none;letter-spacing:0px;word-spacing:0px;fill:#000000;stroke:none;stroke-width:1px;stroke-linecap:butt;stroke-linejoin:miter;stroke-opacity:1;font-weight:normal;font-style:normal;font-stretch:normal;font-variant:normal;font-variant-caps:normal;font-variant-numeric:normal;font-variant-east-asian:normal;fill-opacity:1"
       x="240.97325"
       y="306.6145"
       id="text4"><tspan
         sodipodi:role="line"
         id="tspan4"
         x="240.97325"
         y="306.6145">l</tspan></text><text
       xml:space="preserve"
       style="font-size:13.33329956px;line-height:125%;font-family:Sans;-inkscape-font-specification:'Sans, Normal';font-variant-ligatures:none;letter-spacing:0px;word-spacing:0px;fill:#000000;stroke:none;stroke-width:1px;stroke-linecap:butt;stroke-linejoin:miter;stroke-opacity:1;font-weight:normal;font-style:normal;font-stretch:normal;font-variant:normal;font-variant-caps:normal;font-variant-numeric:normal;font-variant-east-asian:normal;fill-opacity:1"
       x="485.75388"
       y="188.47971"
       id="text5"><tspan
         sodipodi:role="line"
         id="tspan5"
         x="485.75388"
         y="188.47971">a</tspan></text><text
       xml:space="preserve"
       style="font-size:13.33329956px;line-height:125%;font-family:Sans;-inkscape-font-specification:'Sans, Normal';font-variant-ligatures:none;letter-spacing:0px;word-spacing:0px;fill:#000000;stroke:none;stroke-width:1px;stroke-linecap:butt;stroke-linejoin:miter;stroke-opacity:1;font-weight:normal;font-style:normal;font-stretch:normal;font-variant:normal;font-variant-caps:normal;font-variant-numeric:normal;font-variant-east-asian:normal;fill-opacity:1"
       x="642.21545"
       y="191.58995"
       id="text6"><tspan
         sodipodi:role="line"
         id="tspan6"
         x="642.21545"
         y="191.58995">j</tspan></text></g></svg>
