<?xml version="1.0" encoding="UTF-8" standalone="no"?>
<!-- Created with Inkscape (http://www.inkscape.org/) -->

<svg
   width="143.76155mm"
   height="50.76952mm"
   viewBox="0 0 143.76154 50.769519"
   version="1.1"
   id="svg1"
   xml:space="preserve"
   sodipodi:docname="screw_socket_hex.svg"
   inkscape:version="1.3.2 (091e20e, 2023-11-25, custom)"
   xmlns:inkscape="http://www.inkscape.org/namespaces/inkscape"
   xmlns:sodipodi="http://sodipodi.sourceforge.net/DTD/sodipodi-0.dtd"
   xmlns="http://www.w3.org/2000/svg"
   xmlns:svg="http://www.w3.org/2000/svg"><sodipodi:namedview
     id="namedview1"
     pagecolor="#ffffff"
     bordercolor="#666666"
     borderopacity="1.0"
     inkscape:showpageshadow="2"
     inkscape:pageopacity="0.0"
     inkscape:pagecheckerboard="0"
     inkscape:deskcolor="#d1d1d1"
     inkscape:document-units="mm"
     inkscape:zoom="2.6207749"
     inkscape:cx="271.67537"
     inkscape:cy="95.963983"
     inkscape:window-width="1920"
     inkscape:window-height="1129"
     inkscape:window-x="-8"
     inkscape:window-y="-8"
     inkscape:window-maximized="1"
     inkscape:current-layer="svg1" /><defs
     id="defs1" /><path
     id="path432"
     d="M 6.509806,44.061592 5.547252,41.975087 V 25.32962 L 6.509806,23.336779 H 19.446343 V 44.061592 Z M 12.872505,30.623933 H 5.547252 m 7.325253,6.156855 H 5.547252 m 0,-9.26518 h 7.325253 l 2.817283,4.351867 v 3.66395 l -2.817283,4.351867 H 5.547252 m 7.325253,0 c 0.469371,-1.017058 0.234421,-2.538412 0,-3.102504 0.563563,-1.578505 0.563563,-4.302655 0,-6.156855 0.234421,-0.563562 0.328612,-2.138362 0,-3.108325 m 6.573838,-1.660524 c 0,0.70485 0.53975,1.022349 1.044575,1.022349 h 19.55694 m -0.09366,12.234334 v 1.409171 H 20.385084 c -0.504296,0 -0.938741,0.318028 -0.938741,1.02235"
     style="fill:none;stroke:#000000;stroke-width:0.563562;stroke-linecap:butt;stroke-linejoin:miter;stroke-miterlimit:4;stroke-dasharray:none;stroke-opacity:1" /><path
     id="path433"
     d="M 79.397224,39.111767 78.082245,28.286605 m -0.09366,12.234333 -1.31498,-13.643504 m -0.09366,12.234333 -1.314979,-10.825162 m -0.09366,12.234333 -1.31498,-13.643504 m -0.09366,12.234333 -1.314978,-10.825162 m -0.09366,12.234333 -1.314979,-13.643504 m -0.09419,12.234333 -1.31445,-10.825162 m -0.0942,12.234333 -1.31445,-13.643504 m -0.09419,12.234333 -1.31445,-10.825162 m -0.09418,12.234333 -1.31445,-13.643504 m -0.0942,12.234333 -1.31445,-10.825162 m -0.09419,12.234333 -1.31445,-13.643504 m -0.0942,12.234333 -1.314449,-10.825162 m -0.0942,12.234333 -1.314979,-13.643504 m -0.09366,12.234333 -1.31498,-10.825162 m -0.09365,12.234333 -1.314978,-13.643504 m -0.09366,12.234333 -1.314979,-10.825162 m -0.09366,12.234333 -1.314978,-13.643504 m -0.09366,12.234333 -1.31498,-10.825162 m -0.09366,12.234333 -1.314979,-13.643504 m -0.09366,12.234333 -1.314978,-10.825162 m -0.0942,12.234333 -1.31445,-13.643504 m -0.09418,12.234333 -1.31445,-10.825162 m -0.09418,12.234333 -1.31445,-13.643504 m -0.09418,12.234333 -1.31445,-10.825162 m -0.0942,12.234333 -1.31445,-13.643504 M 83.505717,39.265226 82.308741,26.877434 m -0.09419,12.080874 -1.31445,-10.825162 M 80.805901,40.36748 79.490923,26.723975 M 39.954241,39.111767 V 26.877434"
     style="fill:none;stroke:#000000;stroke-width:0.281517;stroke-linecap:butt;stroke-linejoin:miter;stroke-miterlimit:4;stroke-dasharray:none;stroke-opacity:1" /><path
     id="path434"
     d="M 5.547253,0 V 24.202496"
     style="fill:none;stroke:#000000;stroke-width:0.140758;stroke-linecap:butt;stroke-linejoin:miter;stroke-miterlimit:4;stroke-dasharray:none;stroke-opacity:1" /><path
     id="path435"
     d="M 5.547253,1.4784906 8.44444,0.4841863 V 2.4616822 L 5.585882,1.4880156 5.547252,1.4784856"
     style="fill:#000000;fill-opacity:1;fill-rule:nonzero;stroke:none;stroke-width:0.529167" /><path
     id="path437"
     d="m 15.419916,1.4784906 h 1.631421"
     style="fill:none;stroke:#000000;stroke-width:0.281517;stroke-linecap:butt;stroke-linejoin:miter;stroke-miterlimit:4;stroke-dasharray:none;stroke-opacity:1" /><path
     id="path438"
     d="M 19.446343,1.4784906 16.549156,0.4841863 v 1.9774959 l 2.858558,-0.9736666 0.03862,-0.00953"
     style="fill:#000000;fill-opacity:1;fill-rule:nonzero;stroke:none;stroke-width:0.529167" /><path
     id="path439"
     d="M 19.446343,0 V 22.209655"
     style="fill:none;stroke:#000000;stroke-width:0.140758;stroke-linecap:butt;stroke-linejoin:miter;stroke-miterlimit:4;stroke-dasharray:none;stroke-opacity:1" /><path
     style="fill:#000000;fill-opacity:1;fill-rule:nonzero;stroke:none;stroke-width:0.529266"
     d="M 9.005893,11.874661"
     id="path6" /><path
     id="path441"
     d="M 9.596965,1.4784906 H 7.941732 m 10.107612,8.519584 h -2.782358"
     style="fill:none;stroke:#000000;stroke-width:0.281517;stroke-linecap:butt;stroke-linejoin:miter;stroke-miterlimit:4;stroke-dasharray:none;stroke-opacity:1" /><path
     id="path442"
     d="m 12.872506,9.9980756 2.897187,-0.9943043 v 1.9774967 l -2.858557,-0.973667 -0.03863,-0.0095"
     style="fill:#000000;fill-opacity:1;fill-rule:nonzero;stroke:none;stroke-width:0.529167" /><path
     id="path443"
     d="M 0.370416,9.9980756 H 3.152245"
     style="fill:none;stroke:#000000;stroke-width:0.281517;stroke-linecap:butt;stroke-linejoin:miter;stroke-miterlimit:4;stroke-dasharray:none;stroke-opacity:1" /><path
     id="path444"
     d="M 5.547253,9.9980756 2.650066,9.0037713 v 1.9774967 l 2.858558,-0.973667 0.03863,-0.0095"
     style="fill:#000000;fill-opacity:1;fill-rule:nonzero;stroke:none;stroke-width:0.529167" /><path
     id="path445"
     d="M 32.511468,36.857516 V 38.1254"
     style="fill:none;stroke:#000000;stroke-width:0.281517;stroke-linecap:butt;stroke-linejoin:miter;stroke-miterlimit:4;stroke-dasharray:none;stroke-opacity:1" /><path
     id="path446"
     d="m 32.511468,40.520939 -0.993776,-2.898246 h 1.976967 l -0.973137,2.859617 -0.01005,0.03862"
     style="fill:#000000;fill-opacity:1;fill-rule:nonzero;stroke:none;stroke-width:0.529167" /><path
     id="path447"
     d="M 32.628943,30.516514 V 29.272972"
     style="fill:none;stroke:#000000;stroke-width:0.281517;stroke-linecap:butt;stroke-linejoin:miter;stroke-miterlimit:4;stroke-dasharray:none;stroke-opacity:1" /><path
     id="path448"
     d="m 32.628943,26.877436 -0.993775,2.898246 h 1.976967 l -0.973137,-2.859617 -0.01005,-0.03862"
     style="fill:#000000;fill-opacity:1;fill-rule:nonzero;stroke:none;stroke-width:0.529167" /><path
     id="path449"
     d="m 7.695668,16.639117 h 2.781829"
     style="fill:none;stroke:#000000;stroke-width:0.281517;stroke-linecap:butt;stroke-linejoin:miter;stroke-miterlimit:4;stroke-dasharray:none;stroke-opacity:1" /><path
     id="path450"
     d="M 12.872506,16.639117 9.975319,15.645341 v 1.977497 l 2.858558,-0.973667 0.03863,-0.01005"
     style="fill:#000000;fill-opacity:1;fill-rule:nonzero;stroke:none;stroke-width:0.529167" /><path
     id="path451"
     d="M 24.623181,16.639117 H 21.840823"
     style="fill:none;stroke:#000000;stroke-width:0.281517;stroke-linecap:butt;stroke-linejoin:miter;stroke-miterlimit:4;stroke-dasharray:none;stroke-opacity:1" /><path
     id="path452"
     d="m 19.446343,16.639117 2.897187,0.994303 v -1.977495 l -2.858557,0.973667 -0.03862,0.0096"
     style="fill:#000000;fill-opacity:1;fill-rule:nonzero;stroke:none;stroke-width:0.529167" /><path
     id="path453"
     d="M 12.872506,7.0045782 V 26.388482"
     style="fill:none;stroke:#000000;stroke-width:0.140758;stroke-linecap:butt;stroke-linejoin:miter;stroke-miterlimit:4;stroke-dasharray:none;stroke-opacity:1" /><path
     id="path454"
     d="M 28.004028,33.702626 H 2.759075 m 83.282362,0 H 36.003969"
     style="fill:none;stroke:#000000;stroke-width:0.140758;stroke-linecap:butt;stroke-linejoin:miter;stroke-miterlimit:4;stroke-dasharray:28.1781, 1.12713, 2.81781, 1.12713;stroke-dashoffset:0;stroke-opacity:1" /><path
     id="path455"
     d="m 39.954199,26.877436 2.617259,0.295804 0.294216,-0.295804 1.408642,1.40917 1.408641,-1.40917 1.408641,1.255713 1.408643,-1.255713 1.408641,1.40917 1.408642,-1.40917 1.408641,1.40917 1.408641,-1.40917 1.408643,1.40917 1.408641,-1.40917 1.408642,1.255713 1.408641,-1.255713 1.409171,1.40917 1.408642,-1.40917 1.408641,1.40917 1.408641,-1.40917 1.408643,1.40917 1.408641,-1.40917 1.408642,1.255713 1.408641,-1.255713 1.408641,1.40917 1.408643,-1.40917 1.408641,1.40917 1.408642,-1.40917 1.408641,1.40917 1.408641,-1.40917 1.409172,1.255713 1.408641,-1.255713 1.408641,1.467379 v 10.709274 l -0.810153,0.704322 -0.69268,-0.646642 -1.408641,1.255713 -1.408641,-1.255713 -1.408643,1.409172 -1.408641,-1.409172 -1.408642,1.409172 -1.408641,-1.409172 -1.408641,1.409172 -1.409171,-1.409172 -1.408642,1.255713 -1.408641,-1.255713 -1.408643,1.409172 -1.408641,-1.409172 -1.408641,1.409172 -1.408642,-1.409172 -1.408641,1.409172 -1.408643,-1.409172 -1.408641,1.255713 -1.408641,-1.255713 -1.408642,1.409172 -1.408641,-1.409172 -1.408643,1.409172 -1.408641,-1.409172 -1.40917,1.409172 -1.408643,-1.409172 -1.408641,1.255713 -1.408641,-1.255713 -1.408642,1.409172 -0.481013,-0.422805 -3.744912,0.422805"
     style="fill:none;stroke:#000000;stroke-width:0.563562;stroke-linecap:butt;stroke-linejoin:miter;stroke-miterlimit:4;stroke-dasharray:none;stroke-opacity:1" /><path
     style="fill:none;stroke:#000000;stroke-width:0.141;stroke-linecap:butt;stroke-linejoin:miter;stroke-miterlimit:4;stroke-dasharray:none;stroke-opacity:1"
     d="m 108.76427,44.945521 h 18.5152"
     id="path15" /><path
     style="fill:none;stroke:#000000;stroke-width:0.141;stroke-linecap:butt;stroke-linejoin:miter;stroke-miterlimit:4;stroke-dasharray:none;stroke-opacity:1"
     d="m 108.19983,23.274656 h 18.51519"
     id="path14" /><path
     style="fill:none;stroke:#000000;stroke-width:0.140758;stroke-linecap:butt;stroke-linejoin:miter;stroke-miterlimit:4;stroke-dasharray:none;stroke-opacity:1"
     d="m 42.431227,27.134611 1.267884,12.963525"
     id="path456" /><path
     id="path457"
     d="M 110.21066,30.615998 V 25.803757"
     style="fill:none;stroke:#000000;stroke-width:0.281517;stroke-linecap:butt;stroke-linejoin:miter;stroke-miterlimit:4;stroke-dasharray:none;stroke-opacity:1" /><path
     id="path458"
     d="m 110.21066,23.408216 -0.99377,2.898246 h 1.97697 l -0.97314,-2.859616 -0.0101,-0.03862"
     style="fill:#000000;fill-opacity:1;fill-rule:nonzero;stroke:none;stroke-width:0.529167" /><path
     id="path459"
     d="M 110.21066,37.575919 V 42.38816"
     style="fill:none;stroke:#000000;stroke-width:0.281517;stroke-linecap:butt;stroke-linejoin:miter;stroke-miterlimit:4;stroke-dasharray:none;stroke-opacity:1" /><path
     id="path460"
     d="m 110.21066,44.783698 0.99378,-2.898246 h -1.97697 l 0.97314,2.859616 0.0101,0.03862"
     style="fill:#000000;fill-opacity:1;fill-rule:nonzero;stroke:none;stroke-width:0.529167" /><path
     id="path461"
     d="m 126.29885,23.763817 c 5.72135,0 10.3595,4.639734 10.3595,10.36267 0,5.722938 -4.63815,10.362143 -10.3595,10.362143 -5.72135,0 -10.35949,-4.639205 -10.35949,-10.362143 0,-5.722936 4.63814,-10.36267 10.35949,-10.36267 z m 0,2.942166 6.42409,3.709459 5.3e-4,7.421033 -6.42462,3.710517 -6.42408,-3.709988 -5.3e-4,-7.421034 z m -7.67768,5.362047 c 1.13612,-4.241271 5.49434,-6.758517 9.73508,-5.621867 4.24022,1.13612 6.7564,5.496453 5.62028,9.737724 -1.13612,4.241801 -5.49486,6.759047 -9.73508,5.622396 -4.24021,-1.136649 -6.75693,-5.496454 -5.62028,-9.738253 z"
     style="fill:none;stroke:#000000;stroke-width:0.563562;stroke-linecap:butt;stroke-linejoin:miter;stroke-miterlimit:4;stroke-dasharray:none;stroke-opacity:1" /><path
     id="path462"
     d="M 119.65834,9.3863601 V 29.595764"
     style="fill:none;stroke:#000000;stroke-width:0.141;stroke-linecap:butt;stroke-linejoin:miter;stroke-miterlimit:4;stroke-dasharray:none;stroke-opacity:1" /><path
     id="path463"
     d="m 119.70067,11.991976 2.89719,-0.994304 v 1.977496 l -2.85856,-0.973667 -0.0386,-0.0095"
     style="fill:#000000;fill-opacity:1;fill-rule:nonzero;stroke:none;stroke-width:0.529167" /><path
     id="path465"
     d="M 132.55202,9.4567378 V 29.666672 m -8.51218,-17.674696 h -1.83144"
     style="fill:none;stroke:#000000;stroke-width:0.141;stroke-linecap:butt;stroke-linejoin:miter;stroke-miterlimit:4;stroke-dasharray:none;stroke-opacity:1" /><path
     id="path466"
     d="m 126.29885,19.727336 v 28.0416"
     style="fill:none;stroke:#000000;stroke-width:0.140758;stroke-linecap:butt;stroke-linejoin:miter;stroke-miterlimit:4;stroke-dasharray:15.2162, 1.12713, 2.81781, 1.12713;stroke-dashoffset:0;stroke-opacity:1" /><path
     id="path467"
     d="m 114.27301,34.126489 h 24.17763"
     style="fill:none;stroke:#000000;stroke-width:0.140758;stroke-linecap:butt;stroke-linejoin:miter;stroke-miterlimit:4;stroke-dasharray:13.5255, 1.12713, 2.81781, 1.12713;stroke-dashoffset:0;stroke-opacity:1" /><path
     id="path468"
     d="m 132.3594,12.097279 -2.89772,0.994304 v -1.977496 l 2.85909,0.973667 0.0386,0.0095"
     style="fill:#000000;fill-opacity:1;fill-rule:nonzero;stroke:none;stroke-width:0.529167" /><path
     style="fill:none;stroke:#000000;stroke-width:0.151089;stroke-linecap:butt;stroke-linejoin:miter;stroke-miterlimit:4;stroke-dasharray:none;stroke-opacity:1"
     d="m 127.47101,25.645532 h 16.21031"
     id="path17" /><path
     style="fill:none;stroke:#000000;stroke-width:0.151089;stroke-linecap:butt;stroke-linejoin:miter;stroke-miterlimit:4;stroke-dasharray:none;stroke-opacity:1"
     d="m 127.19569,42.524254 h 16.2103"
     id="path16" /><path
     style="fill:none;stroke:#000000;stroke-width:0.281517;stroke-linecap:butt;stroke-linejoin:miter;stroke-miterlimit:4;stroke-dasharray:none;stroke-opacity:1"
     d="m 128.1721,12.097279 h 1.67958"
     id="path469" /><path
     id="path470"
     d="m 142.76777,25.618549 0.99378,2.898246 h -1.97697 l 0.97367,-2.859617 0.009,-0.03862"
     style="fill:#000000;fill-opacity:1;fill-rule:nonzero;stroke:none;stroke-width:0.529167" /><path
     id="path471"
     d="M 142.76777,31.017635 V 28.126798"
     style="fill:none;stroke:#000000;stroke-width:0.281517;stroke-linecap:butt;stroke-linejoin:miter;stroke-miterlimit:4;stroke-dasharray:none;stroke-opacity:1" /><path
     id="path472"
     d="M 142.76777,42.532829 141.774,39.635113 h 1.97696 l -0.97313,2.859087 -0.01,0.03863"
     style="fill:#000000;fill-opacity:1;fill-rule:nonzero;stroke:none;stroke-width:0.529167" /><path
     id="path473"
     d="m 142.76777,37.059661 v 2.96545"
     style="fill:none;stroke:#000000;stroke-width:0.281517;stroke-linecap:butt;stroke-linejoin:miter;stroke-miterlimit:4;stroke-dasharray:none;stroke-opacity:1" /><path
     id="path475"
     d="m 19.435231,25.927579 h 9.235016 m -8.900054,15.429442 h 9.234488"
     style="fill:none;stroke:#000000;stroke-width:0.140758;stroke-linecap:butt;stroke-linejoin:miter;stroke-miterlimit:4;stroke-dasharray:none;stroke-opacity:1" /><path
     id="path476"
     d="m 23.559556,21.418552 v 2.100792"
     style="fill:none;stroke:#000000;stroke-width:0.281517;stroke-linecap:butt;stroke-linejoin:miter;stroke-miterlimit:4;stroke-dasharray:none;stroke-opacity:1" /><path
     id="path477"
     d="m 23.559556,25.914878 -0.993775,-2.898246 h 1.976967 l -0.973137,2.859617 -0.01005,0.03862"
     style="fill:#000000;fill-opacity:1;fill-rule:nonzero;stroke:none;stroke-width:0.529167" /><path
     id="path478"
     d="M 23.67703,45.725291 V 43.765258"
     style="fill:none;stroke:#000000;stroke-width:0.281517;stroke-linecap:butt;stroke-linejoin:miter;stroke-miterlimit:4;stroke-dasharray:none;stroke-opacity:1" /><path
     id="path479"
     d="m 23.67703,41.369723 -0.993775,2.898246 h 1.976967 l -0.973667,-2.859616 -0.0096,-0.03863"
     style="fill:#000000;fill-opacity:1;fill-rule:nonzero;stroke:none;stroke-width:0.529167" /><path
     id="path480"
     d="m 6.884988,44.543665 v 5.985933"
     style="fill:none;stroke:#000000;stroke-width:0.140758;stroke-linecap:butt;stroke-linejoin:miter;stroke-miterlimit:4;stroke-dasharray:none;stroke-opacity:1" /><path
     id="path482"
     d="M 0,48.586499 H 2.781829"
     style="fill:none;stroke:#000000;stroke-width:0.281517;stroke-linecap:butt;stroke-linejoin:miter;stroke-miterlimit:4;stroke-dasharray:none;stroke-opacity:1" /><path
     id="path483"
     d="M 5.176838,48.586499 2.27965,47.592196 v 1.977495 l 2.858558,-0.973667 0.03863,-0.0095"
     style="fill:#000000;fill-opacity:1;fill-rule:nonzero;stroke:none;stroke-width:0.529167" /><path
     id="path484"
     d="M 12.061825,48.586499 H 9.279467"
     style="fill:none;stroke:#000000;stroke-width:0.281517;stroke-linecap:butt;stroke-linejoin:miter;stroke-miterlimit:4;stroke-dasharray:none;stroke-opacity:1" /><path
     id="path485"
     d="m 6.884988,48.586499 2.897187,0.994304 v -1.978025 l -2.858558,0.973667 -0.03863,0.01005"
     style="fill:#000000;fill-opacity:1;fill-rule:nonzero;stroke:none;stroke-width:0.529167" /><path
     id="path486"
     d="m 5.18689,42.320104 v 8.078787"
     style="fill:none;stroke:#000000;stroke-width:0.140758;stroke-linecap:butt;stroke-linejoin:miter;stroke-miterlimit:4;stroke-dasharray:none;stroke-opacity:1" /><text
     xml:space="preserve"
     style="font-style:normal;font-variant:normal;font-weight:normal;font-stretch:normal;font-size:3.52778px;line-height:125%;font-family:Sans;-inkscape-font-specification:'Sans, Normal';font-variant-ligatures:none;font-variant-caps:normal;font-variant-numeric:normal;font-variant-east-asian:normal;letter-spacing:0px;word-spacing:0px;fill:#000000;fill-opacity:1;stroke:none;stroke-width:0.396874px;stroke-linecap:butt;stroke-linejoin:miter;stroke-opacity:1"
     x="11.283491"
     y="2.7869775"
     id="text6"><tspan
       sodipodi:role="line"
       id="tspan6"
       style="font-style:normal;font-variant:normal;font-weight:normal;font-stretch:normal;font-size:3.52778px;font-family:Sans;-inkscape-font-specification:'Sans, Normal';font-variant-ligatures:none;font-variant-caps:normal;font-variant-numeric:normal;font-variant-east-asian:normal;fill:#000000;fill-opacity:1;stroke:none;stroke-width:0.396874px"
       x="11.283491"
       y="2.7869775">k</tspan></text><text
     xml:space="preserve"
     style="font-style:normal;font-variant:normal;font-weight:normal;font-stretch:normal;font-size:3.52778px;line-height:125%;font-family:Sans;-inkscape-font-specification:'Sans, Normal';font-variant-ligatures:none;font-variant-caps:normal;font-variant-numeric:normal;font-variant-east-asian:normal;letter-spacing:0px;word-spacing:0px;fill:#000000;fill-opacity:1;stroke:none;stroke-width:0.396874px;stroke-linecap:butt;stroke-linejoin:miter;stroke-opacity:1"
     x="8.4777088"
     y="11.247572"
     id="text7"><tspan
       sodipodi:role="line"
       id="tspan7"
       style="font-style:normal;font-variant:normal;font-weight:normal;font-stretch:normal;font-size:3.52778px;font-family:Sans;-inkscape-font-specification:'Sans, Normal';font-variant-ligatures:none;font-variant-caps:normal;font-variant-numeric:normal;font-variant-east-asian:normal;fill:#000000;fill-opacity:1;stroke:none;stroke-width:0.396874px"
       x="8.4777088"
       y="11.247572">t</tspan></text><text
     xml:space="preserve"
     style="font-style:normal;font-variant:normal;font-weight:normal;font-stretch:normal;font-size:3.52778px;line-height:125%;font-family:Sans;-inkscape-font-specification:'Sans, Normal';font-variant-ligatures:none;font-variant-caps:normal;font-variant-numeric:normal;font-variant-east-asian:normal;letter-spacing:0px;word-spacing:0px;fill:#000000;fill-opacity:1;stroke:none;stroke-width:0.396874px;stroke-linecap:butt;stroke-linejoin:miter;stroke-opacity:1"
     x="14.661721"
     y="17.67819"
     id="text8"><tspan
       sodipodi:role="line"
       id="tspan8"
       style="font-style:normal;font-variant:normal;font-weight:normal;font-stretch:normal;font-size:3.52778px;font-family:Sans;-inkscape-font-specification:'Sans, Normal';font-variant-ligatures:none;font-variant-caps:normal;font-variant-numeric:normal;font-variant-east-asian:normal;fill:#000000;fill-opacity:1;stroke:none;stroke-width:0.396874px"
       x="14.661721"
       y="17.67819">w</tspan></text><text
     xml:space="preserve"
     style="font-style:normal;font-variant:normal;font-weight:normal;font-stretch:normal;font-size:3.52778px;line-height:125%;font-family:Sans;-inkscape-font-specification:'Sans, Normal';font-variant-ligatures:none;font-variant-caps:normal;font-variant-numeric:normal;font-variant-east-asian:normal;letter-spacing:0px;word-spacing:0px;fill:#000000;fill-opacity:1;stroke:none;stroke-width:0.396874px;stroke-linecap:butt;stroke-linejoin:miter;stroke-opacity:1"
     x="109.07013"
     y="35.392544"
     id="text9"><tspan
       sodipodi:role="line"
       id="tspan9"
       style="font-style:normal;font-variant:normal;font-weight:normal;font-stretch:normal;font-size:3.52778px;font-family:Sans;-inkscape-font-specification:'Sans, Normal';font-variant-ligatures:none;font-variant-caps:normal;font-variant-numeric:normal;font-variant-east-asian:normal;fill:#000000;fill-opacity:1;stroke:none;stroke-width:0.396874px"
       x="109.07013"
       y="35.392544">h</tspan></text><text
     xml:space="preserve"
     style="font-style:normal;font-variant:normal;font-weight:normal;font-stretch:normal;font-size:3.52778px;line-height:125%;font-family:Sans;-inkscape-font-specification:'Sans, Normal';font-variant-ligatures:none;font-variant-caps:normal;font-variant-numeric:normal;font-variant-east-asian:normal;letter-spacing:0px;word-spacing:0px;fill:#000000;fill-opacity:1;stroke:none;stroke-width:0.396874px;stroke-linecap:butt;stroke-linejoin:miter;stroke-opacity:1"
     x="13.046271"
     y="50.067844"
     id="text10"><tspan
       sodipodi:role="line"
       id="tspan10"
       style="font-style:normal;font-variant:normal;font-weight:normal;font-stretch:normal;font-size:3.52778px;font-family:Sans;-inkscape-font-specification:'Sans, Normal';font-variant-ligatures:none;font-variant-caps:normal;font-variant-numeric:normal;font-variant-east-asian:normal;fill:#000000;fill-opacity:1;stroke:none;stroke-width:0.396874px"
       x="13.046271"
       y="50.067844">c</tspan></text><text
     xml:space="preserve"
     style="font-style:normal;font-variant:normal;font-weight:normal;font-stretch:normal;font-size:3.52778px;line-height:125%;font-family:sans-serif;-inkscape-font-specification:'sans-serif, Normal';font-variant-ligatures:none;font-variant-caps:normal;font-variant-numeric:normal;font-variant-east-asian:normal;letter-spacing:0px;word-spacing:0px;fill:#000000;fill-opacity:1;stroke:#000000;stroke-width:0.396874px;stroke-linecap:butt;stroke-linejoin:miter;stroke-opacity:1"
     x="22.981737"
     y="50.571083"
     id="text11"><tspan
       sodipodi:role="line"
       id="tspan11"
       style="font-style:normal;font-variant:normal;font-weight:normal;font-stretch:normal;font-size:3.52778px;font-family:sans-serif;-inkscape-font-specification:'sans-serif, Normal';font-variant-ligatures:none;font-variant-caps:normal;font-variant-numeric:normal;font-variant-east-asian:normal;fill:#000000;fill-opacity:1;stroke-width:0.396874px"
       x="22.981737"
       y="50.571083">f</tspan></text><text
     xml:space="preserve"
     style="font-style:normal;font-variant:normal;font-weight:normal;font-stretch:normal;font-size:3.52778px;line-height:125%;font-family:Sans;-inkscape-font-specification:'Sans, Normal';font-variant-ligatures:none;font-variant-caps:normal;font-variant-numeric:normal;font-variant-east-asian:normal;letter-spacing:0px;word-spacing:0px;fill:#000000;fill-opacity:1;stroke:none;stroke-width:0.396874px;stroke-linecap:butt;stroke-linejoin:miter;stroke-opacity:1"
     x="31.55702"
     y="35.042652"
     id="text12"><tspan
       sodipodi:role="line"
       id="tspan12"
       style="font-style:normal;font-variant:normal;font-weight:normal;font-stretch:normal;font-size:3.52778px;font-family:Sans;-inkscape-font-specification:'Sans, Normal';font-variant-ligatures:none;font-variant-caps:normal;font-variant-numeric:normal;font-variant-east-asian:normal;fill:#000000;fill-opacity:1;stroke:none;stroke-width:0.396874px"
       x="31.55702"
       y="35.042652">d</tspan></text><text
     xml:space="preserve"
     style="font-style:normal;font-variant:normal;font-weight:normal;font-stretch:normal;font-size:3.52778px;line-height:125%;font-family:Sans;-inkscape-font-specification:'Sans, Normal';font-variant-ligatures:none;font-variant-caps:normal;font-variant-numeric:normal;font-variant-east-asian:normal;letter-spacing:0px;word-spacing:0px;fill:#000000;fill-opacity:1;stroke:none;stroke-width:0.396874px;stroke-linecap:butt;stroke-linejoin:miter;stroke-opacity:1"
     x="124.91002"
     y="13.013003"
     id="text13"><tspan
       sodipodi:role="line"
       id="tspan13"
       style="font-style:normal;font-variant:normal;font-weight:normal;font-stretch:normal;font-size:3.52778px;font-family:Sans;-inkscape-font-specification:'Sans, Normal';font-variant-ligatures:none;font-variant-caps:normal;font-variant-numeric:normal;font-variant-east-asian:normal;fill:#000000;fill-opacity:1;stroke:none;stroke-width:0.396874px"
       x="124.91002"
       y="13.013003">s</tspan></text><text
     xml:space="preserve"
     style="font-style:normal;font-variant:normal;font-weight:normal;font-stretch:normal;font-size:3.52778px;line-height:125%;font-family:Sans;-inkscape-font-specification:'Sans, Normal';font-variant-ligatures:none;font-variant-caps:normal;font-variant-numeric:normal;font-variant-east-asian:normal;letter-spacing:0px;word-spacing:0px;fill:#000000;fill-opacity:1;stroke:none;stroke-width:0.396874px;stroke-linecap:butt;stroke-linejoin:miter;stroke-opacity:1"
     x="141.73506"
     y="35.172626"
     id="text14"><tspan
       sodipodi:role="line"
       id="tspan14"
       style="font-style:normal;font-variant:normal;font-weight:normal;font-stretch:normal;font-size:3.52778px;font-family:Sans;-inkscape-font-specification:'Sans, Normal';font-variant-ligatures:none;font-variant-caps:normal;font-variant-numeric:normal;font-variant-east-asian:normal;fill:#000000;fill-opacity:1;stroke:none;stroke-width:0.396874px"
       x="141.73506"
       y="35.172626">e</tspan></text></svg>
