<?xml version="1.0" encoding="UTF-8" standalone="no"?>
<!DOCTYPE svg PUBLIC "-//W3C//DTD SVG 1.1//EN"
 "http://www.w3.org/Graphics/SVG/1.1/DTD/svg11.dtd">
<!-- Generated by graphviz version 2.38.0 (20140413.2041)
 -->
<!-- Title: constants.scad Pages: 1 -->
<svg width="565pt" height="308pt"
 viewBox="0.00 0.00 564.50 308.00" xmlns="http://www.w3.org/2000/svg" xmlns:xlink="http://www.w3.org/1999/xlink">
<g id="graph0" class="graph" transform="scale(1 1) rotate(0) translate(4 304)">
<title>constants.scad</title>
<polygon fill="white" stroke="none" points="-4,4 -4,-304 560.5,-304 560.5,4 -4,4"/>
<!-- Node1 -->
<g id="node1" class="node"><title>Node1</title>
<polygon fill="#bfbfbf" stroke="black" points="368.5,-280.5 368.5,-299.5 451.5,-299.5 451.5,-280.5 368.5,-280.5"/>
<text text-anchor="middle" x="410" y="-287.5" font-family="Helvetica,sans-Serif" font-size="10.00">constants.scad</text>
</g>
<!-- Node2 -->
<g id="node2" class="node"><title>Node2</title>
<g id="a_node2"><a xlink:href="primitives_8scad.html" target="_top" xlink:title="Mathematical primitive functions. ">
<polygon fill="white" stroke="black" points="263.5,-224.5 263.5,-243.5 346.5,-243.5 346.5,-224.5 263.5,-224.5"/>
<text text-anchor="middle" x="305" y="-231.5" font-family="Helvetica,sans-Serif" font-size="10.00">primitives.scad</text>
</a>
</g>
</g>
<!-- Node1&#45;&gt;Node2 -->
<g id="edge1" class="edge"><title>Node1&#45;&gt;Node2</title>
<path fill="none" stroke="midnightblue" d="M384.19,-275.726C364.747,-265.727 338.652,-252.307 321.828,-243.655"/>
<polygon fill="midnightblue" stroke="midnightblue" points="382.636,-278.863 393.13,-280.324 385.838,-272.638 382.636,-278.863"/>
</g>
<!-- Node13 -->
<g id="node13" class="node"><title>Node13</title>
<g id="a_node13"><a xlink:href="units__angle_8scad.html" target="_top" xlink:title="Angle units and conversions. ">
<polygon fill="white" stroke="black" points="365,-224.5 365,-243.5 455,-243.5 455,-224.5 365,-224.5"/>
<text text-anchor="middle" x="410" y="-231.5" font-family="Helvetica,sans-Serif" font-size="10.00">units_angle.scad</text>
</a>
</g>
</g>
<!-- Node1&#45;&gt;Node13 -->
<g id="edge13" class="edge"><title>Node1&#45;&gt;Node13</title>
<path fill="none" stroke="midnightblue" d="M410,-269.805C410,-260.91 410,-250.78 410,-243.751"/>
<polygon fill="midnightblue" stroke="midnightblue" points="406.5,-270.083 410,-280.083 413.5,-270.083 406.5,-270.083"/>
</g>
<!-- Node14 -->
<g id="node14" class="node"><title>Node14</title>
<g id="a_node14"><a xlink:href="resolution_8scad.html" target="_top" xlink:title="Arc rendering resolution abstraction. ">
<polygon fill="white" stroke="black" points="473.5,-224.5 473.5,-243.5 556.5,-243.5 556.5,-224.5 473.5,-224.5"/>
<text text-anchor="middle" x="515" y="-231.5" font-family="Helvetica,sans-Serif" font-size="10.00">resolution.scad</text>
</a>
</g>
</g>
<!-- Node1&#45;&gt;Node14 -->
<g id="edge14" class="edge"><title>Node1&#45;&gt;Node14</title>
<path fill="none" stroke="midnightblue" d="M435.81,-275.726C455.253,-265.727 481.348,-252.307 498.172,-243.655"/>
<polygon fill="midnightblue" stroke="midnightblue" points="434.162,-272.638 426.87,-280.324 437.364,-278.863 434.162,-272.638"/>
</g>
<!-- Node3 -->
<g id="node3" class="node"><title>Node3</title>
<g id="a_node3"><a xlink:href="math_8scad.html" target="_top" xlink:title="Mathematical functions. ">
<polygon fill="white" stroke="black" points="68,-168.5 68,-187.5 130,-187.5 130,-168.5 68,-168.5"/>
<text text-anchor="middle" x="99" y="-175.5" font-family="Helvetica,sans-Serif" font-size="10.00">math.scad</text>
</a>
</g>
</g>
<!-- Node2&#45;&gt;Node3 -->
<g id="edge2" class="edge"><title>Node2&#45;&gt;Node3</title>
<path fill="none" stroke="midnightblue" d="M262.513,-221.863C223.117,-211.536 165.419,-196.411 130.14,-187.163"/>
<polygon fill="midnightblue" stroke="midnightblue" points="261.798,-225.293 272.359,-224.444 263.573,-218.522 261.798,-225.293"/>
</g>
<!-- Node9 -->
<g id="node9" class="node"><title>Node9</title>
<g id="a_node9"><a xlink:href="math__bitwise_8scad.html" target="_top" xlink:title="Mathematical bitwise binary (base&#45;two) functions. ">
<polygon fill="white" stroke="black" points="148,-168.5 148,-187.5 246,-187.5 246,-168.5 148,-168.5"/>
<text text-anchor="middle" x="197" y="-175.5" font-family="Helvetica,sans-Serif" font-size="10.00">math_bitwise.scad</text>
</a>
</g>
</g>
<!-- Node2&#45;&gt;Node9 -->
<g id="edge8" class="edge"><title>Node2&#45;&gt;Node9</title>
<path fill="none" stroke="midnightblue" d="M278.452,-219.726C258.454,-209.727 231.613,-196.307 214.309,-187.655"/>
<polygon fill="midnightblue" stroke="midnightblue" points="277.138,-222.982 287.648,-224.324 280.269,-216.721 277.138,-222.982"/>
</g>
<!-- Node10 -->
<g id="node10" class="node"><title>Node10</title>
<g id="a_node10"><a xlink:href="validation_8scad.html" target="_top" xlink:title="Result validation functions. ">
<polygon fill="white" stroke="black" points="264,-168.5 264,-187.5 346,-187.5 346,-168.5 264,-168.5"/>
<text text-anchor="middle" x="305" y="-175.5" font-family="Helvetica,sans-Serif" font-size="10.00">validation.scad</text>
</a>
</g>
</g>
<!-- Node2&#45;&gt;Node10 -->
<g id="edge10" class="edge"><title>Node2&#45;&gt;Node10</title>
<path fill="none" stroke="midnightblue" d="M305,-213.805C305,-204.91 305,-194.78 305,-187.751"/>
<polygon fill="midnightblue" stroke="midnightblue" points="301.5,-214.083 305,-224.083 308.5,-214.083 301.5,-214.083"/>
</g>
<!-- Node11 -->
<g id="node11" class="node"><title>Node11</title>
<g id="a_node11"><a xlink:href="map_8scad.html" target="_top" xlink:title="Mapped key&#45;value pair data access. ">
<polygon fill="white" stroke="black" points="364.5,-168.5 364.5,-187.5 423.5,-187.5 423.5,-168.5 364.5,-168.5"/>
<text text-anchor="middle" x="394" y="-175.5" font-family="Helvetica,sans-Serif" font-size="10.00">map.scad</text>
</a>
</g>
</g>
<!-- Node2&#45;&gt;Node11 -->
<g id="edge11" class="edge"><title>Node2&#45;&gt;Node11</title>
<path fill="none" stroke="midnightblue" d="M328.238,-218.901C344.558,-208.999 365.865,-196.071 379.736,-187.655"/>
<polygon fill="midnightblue" stroke="midnightblue" points="326.033,-216.144 319.299,-224.324 329.664,-222.129 326.033,-216.144"/>
</g>
<!-- Node12 -->
<g id="node12" class="node"><title>Node12</title>
<g id="a_node12"><a xlink:href="table_8scad.html" target="_top" xlink:title="Data table encoding and lookup. ">
<polygon fill="white" stroke="black" points="442,-168.5 442,-187.5 504,-187.5 504,-168.5 442,-168.5"/>
<text text-anchor="middle" x="473" y="-175.5" font-family="Helvetica,sans-Serif" font-size="10.00">table.scad</text>
</a>
</g>
</g>
<!-- Node2&#45;&gt;Node12 -->
<g id="edge12" class="edge"><title>Node2&#45;&gt;Node12</title>
<path fill="none" stroke="midnightblue" d="M341.386,-221.304C373.042,-211.129 418.168,-196.625 446.504,-187.516"/>
<polygon fill="midnightblue" stroke="midnightblue" points="340.069,-218.051 331.62,-224.444 342.211,-224.715 340.069,-218.051"/>
</g>
<!-- Node4 -->
<g id="node4" class="node"><title>Node4</title>
<g id="a_node4"><a xlink:href="transform_8scad.html" target="_top" xlink:title="Shape transformation functions. ">
<polygon fill="white" stroke="black" points="107,-112.5 107,-131.5 189,-131.5 189,-112.5 107,-112.5"/>
<text text-anchor="middle" x="148" y="-119.5" font-family="Helvetica,sans-Serif" font-size="10.00">transform.scad</text>
</a>
</g>
</g>
<!-- Node3&#45;&gt;Node4 -->
<g id="edge3" class="edge"><title>Node3&#45;&gt;Node4</title>
<path fill="none" stroke="midnightblue" d="M114.034,-160.431C122.622,-150.967 133.043,-139.483 140.059,-131.751"/>
<polygon fill="midnightblue" stroke="midnightblue" points="111.219,-158.325 107.091,-168.083 116.403,-163.029 111.219,-158.325"/>
</g>
<!-- Node5 -->
<g id="node5" class="node"><title>Node5</title>
<g id="a_node5"><a xlink:href="shapes2d_8scad.html" target="_top" xlink:title="Two&#45;dimensional basic shapes. ">
<polygon fill="white" stroke="black" points="106.5,-56.5 106.5,-75.5 189.5,-75.5 189.5,-56.5 106.5,-56.5"/>
<text text-anchor="middle" x="148" y="-63.5" font-family="Helvetica,sans-Serif" font-size="10.00">shapes2d.scad</text>
</a>
</g>
</g>
<!-- Node4&#45;&gt;Node5 -->
<g id="edge4" class="edge"><title>Node4&#45;&gt;Node5</title>
<path fill="none" stroke="midnightblue" d="M148,-101.805C148,-92.9102 148,-82.7798 148,-75.7511"/>
<polygon fill="midnightblue" stroke="midnightblue" points="144.5,-102.083 148,-112.083 151.5,-102.083 144.5,-102.083"/>
</g>
<!-- Node6 -->
<g id="node6" class="node"><title>Node6</title>
<g id="a_node6"><a xlink:href="shapes2de_8scad.html" target="_top" xlink:title="Linearly extruded two&#45;dimensional basic shapes. ">
<polygon fill="white" stroke="black" points="0,-0.5 0,-19.5 88,-19.5 88,-0.5 0,-0.5"/>
<text text-anchor="middle" x="44" y="-7.5" font-family="Helvetica,sans-Serif" font-size="10.00">shapes2de.scad</text>
</a>
</g>
</g>
<!-- Node5&#45;&gt;Node6 -->
<g id="edge5" class="edge"><title>Node5&#45;&gt;Node6</title>
<path fill="none" stroke="midnightblue" d="M122.172,-51.5895C102.943,-41.6052 77.2553,-28.2672 60.6679,-19.6545"/>
<polygon fill="midnightblue" stroke="midnightblue" points="120.803,-54.822 131.291,-56.324 124.029,-48.6095 120.803,-54.822"/>
</g>
<!-- Node7 -->
<g id="node7" class="node"><title>Node7</title>
<g id="a_node7"><a xlink:href="shapes3d_8scad.html" target="_top" xlink:title="Three&#45;dimensional basic shapes. ">
<polygon fill="white" stroke="black" points="106.5,-0.5 106.5,-19.5 189.5,-19.5 189.5,-0.5 106.5,-0.5"/>
<text text-anchor="middle" x="148" y="-7.5" font-family="Helvetica,sans-Serif" font-size="10.00">shapes3d.scad</text>
</a>
</g>
</g>
<!-- Node5&#45;&gt;Node7 -->
<g id="edge6" class="edge"><title>Node5&#45;&gt;Node7</title>
<path fill="none" stroke="midnightblue" d="M148,-45.8045C148,-36.9102 148,-26.7798 148,-19.7511"/>
<polygon fill="midnightblue" stroke="midnightblue" points="144.5,-46.083 148,-56.083 151.5,-46.083 144.5,-46.083"/>
</g>
<!-- Node8 -->
<g id="node8" class="node"><title>Node8</title>
<g id="a_node8"><a xlink:href="tool__edge_8scad.html" target="_top" xlink:title="Shape edge finishing tools. ">
<polygon fill="white" stroke="black" points="207.5,-0.5 207.5,-19.5 290.5,-19.5 290.5,-0.5 207.5,-0.5"/>
<text text-anchor="middle" x="249" y="-7.5" font-family="Helvetica,sans-Serif" font-size="10.00">tool_edge.scad</text>
</a>
</g>
</g>
<!-- Node5&#45;&gt;Node8 -->
<g id="edge7" class="edge"><title>Node5&#45;&gt;Node8</title>
<path fill="none" stroke="midnightblue" d="M173.083,-51.5895C191.757,-41.6052 216.704,-28.2672 232.813,-19.6545"/>
<polygon fill="midnightblue" stroke="midnightblue" points="171.396,-48.5224 164.227,-56.324 174.696,-54.6955 171.396,-48.5224"/>
</g>
<!-- Node9&#45;&gt;Node4 -->
<g id="edge9" class="edge"><title>Node9&#45;&gt;Node4</title>
<path fill="none" stroke="midnightblue" d="M181.966,-160.431C173.378,-150.967 162.957,-139.483 155.941,-131.751"/>
<polygon fill="midnightblue" stroke="midnightblue" points="179.597,-163.029 188.909,-168.083 184.781,-158.325 179.597,-163.029"/>
</g>
</g>
</svg>
