<?xml version="1.0" encoding="UTF-8" standalone="no"?>
<!DOCTYPE svg PUBLIC "-//W3C//DTD SVG 1.1//EN"
 "http://www.w3.org/Graphics/SVG/1.1/DTD/svg11.dtd">
<!-- Generated by graphviz version 2.38.0 (20140413.2041)
 -->
<!-- Title: Tools Pages: 1 -->
<svg width="233pt" height="36pt"
 viewBox="0.00 0.00 233.00 35.53" xmlns="http://www.w3.org/2000/svg" xmlns:xlink="http://www.w3.org/1999/xlink">
<g id="graph0" class="graph" transform="scale(1 1) rotate(0) translate(4 31.5327)">
<title>Tools</title>
<polygon fill="white" stroke="none" points="-4,4 -4,-31.5327 229,-31.5327 229,4 -4,4"/>
<!-- Node1 -->
<g id="node1" class="node"><title>Node1</title>
<g id="a_node1"><a xlink:href="group__tools__edge.html" target="_top" xlink:title="Shape edge finishing tools. ">
<polygon fill="white" stroke="black" points="144,-8.03271 144,-27.0327 225,-27.0327 225,-8.03271 144,-8.03271"/>
<text text-anchor="middle" x="184.5" y="-15.0327" font-family="Helvetica,sans-Serif" font-size="10.00">Edge Finishing</text>
</a>
</g>
</g>
<!-- Node0 -->
<g id="node2" class="node"><title>Node0</title>
<polygon fill="#bfbfbf" stroke="black" points="0,-8.03271 0,-27.0327 41,-27.0327 41,-8.03271 0,-8.03271"/>
<text text-anchor="middle" x="20.5" y="-15.0327" font-family="Helvetica,sans-Serif" font-size="10.00">Tools</text>
</g>
<!-- Node0&#45;&gt;Node1 -->
<g id="edge1" class="edge"><title>Node0&#45;&gt;Node1</title>
<path fill="none" stroke="black" d="M51.0427,-17.5327C77.0389,-17.5327 115.104,-17.5327 143.764,-17.5327"/>
<polygon fill="black" stroke="black" points="51.041,-14.0328 41.041,-17.5327 51.041,-21.0328 51.041,-14.0328"/>
</g>
<!-- Node0&#45;&gt;Node1 -->
<g id="edge2" class="edge"><title>Node0&#45;&gt;Node1</title>
<path fill="none" stroke="darkgreen" stroke-dasharray="5,2" d="M41.3667,-8.61606C46.9569,-6.52319 53.1187,-4.59475 59,-3.53271 88.3038,1.75897 96.4343,0.0147771 126,-3.53271 133.957,-4.48742 142.403,-6.16004 150.302,-8.02446"/>
<text text-anchor="middle" x="92.5" y="-6.53271" font-family="Helvetica,sans-Serif" font-size="10.00">tool_edge.scad</text>
</g>
</g>
</svg>
