<?xml version="1.0" encoding="UTF-8" standalone="no"?>
<!DOCTYPE svg PUBLIC "-//W3C//DTD SVG 1.1//EN"
 "http://www.w3.org/Graphics/SVG/1.1/DTD/svg11.dtd">
<!-- Generated by graphviz version 2.38.0 (20140413.2041)
 -->
<!-- Title: Angle Pages: 1 -->
<svg width="199pt" height="36pt"
 viewBox="0.00 0.00 199.00 36.42" xmlns="http://www.w3.org/2000/svg" xmlns:xlink="http://www.w3.org/1999/xlink">
<g id="graph0" class="graph" transform="scale(1 1) rotate(0) translate(4 32.4192)">
<title>Angle</title>
<polygon fill="white" stroke="none" points="-4,4 -4,-32.4192 195,-32.4192 195,4 -4,4"/>
<!-- Node1 -->
<g id="node1" class="node"><title>Node1</title>
<g id="a_node1"><a xlink:href="group__units.html" target="_top" xlink:title="Units and unit conversions. ">
<polygon fill="white" stroke="black" points="0,-8.91916 0,-27.9192 40,-27.9192 40,-8.91916 0,-8.91916"/>
<text text-anchor="middle" x="20" y="-15.9192" font-family="Helvetica,sans-Serif" font-size="10.00">Units</text>
</a>
</g>
</g>
<!-- Node0 -->
<g id="node2" class="node"><title>Node0</title>
<polygon fill="#bfbfbf" stroke="black" points="150,-8.91916 150,-27.9192 191,-27.9192 191,-8.91916 150,-8.91916"/>
<text text-anchor="middle" x="170.5" y="-15.9192" font-family="Helvetica,sans-Serif" font-size="10.00">Angle</text>
</g>
<!-- Node1&#45;&gt;Node0 -->
<g id="edge1" class="edge"><title>Node1&#45;&gt;Node0</title>
<path fill="none" stroke="black" d="M50.2327,-18.4192C79.7562,-18.4192 124.533,-18.4192 149.992,-18.4192"/>
<polygon fill="black" stroke="black" points="50.1098,-14.9193 40.1098,-18.4192 50.1097,-21.9193 50.1098,-14.9193"/>
</g>
<!-- Node0&#45;&gt;Node1 -->
<g id="edge2" class="edge"><title>Node0&#45;&gt;Node1</title>
<path fill="none" stroke="darkgreen" stroke-dasharray="5,2" d="M149.633,-9.50251C144.043,-7.40964 137.881,-5.48121 132,-4.41916 99.6346,1.42537 90.3524,1.4969 58,-4.41916 52.0547,-5.50634 45.8247,-7.50038 40.2083,-9.64935"/>
<text text-anchor="middle" x="95" y="-7.41916" font-family="Helvetica,sans-Serif" font-size="10.00">units_angle.scad</text>
</g>
</g>
</svg>
