<?xml version="1.0" encoding="UTF-8" standalone="no"?>
<!DOCTYPE svg PUBLIC "-//W3C//DTD SVG 1.1//EN"
 "http://www.w3.org/Graphics/SVG/1.1/DTD/svg11.dtd">
<!-- Generated by graphviz version 2.38.0 (20140413.2041)
 -->
<!-- Title: Triangle Solutions Pages: 1 -->
<svg width="425pt" height="66pt"
 viewBox="0.00 0.00 425.00 66.00" xmlns="http://www.w3.org/2000/svg" xmlns:xlink="http://www.w3.org/1999/xlink">
<g id="graph0" class="graph" transform="scale(1 1) rotate(0) translate(4 62)">
<title>Triangle Solutions</title>
<polygon fill="white" stroke="none" points="-4,4 -4,-62 421,-62 421,4 -4,4"/>
<!-- Node1 -->
<g id="node1" class="node"><title>Node1</title>
<g id="a_node1"><a xlink:href="group__math.html" target="_top" xlink:title="Mathematical functions. ">
<polygon fill="white" stroke="black" points="0,-19.5 0,-38.5 38,-38.5 38,-19.5 0,-19.5"/>
<text text-anchor="middle" x="19" y="-26.5" font-family="Helvetica,sans-Serif" font-size="10.00">Math</text>
</a>
</g>
</g>
<!-- Node0 -->
<g id="node4" class="node"><title>Node0</title>
<polygon fill="#bfbfbf" stroke="black" points="120,-19.5 120,-38.5 215,-38.5 215,-19.5 120,-19.5"/>
<text text-anchor="middle" x="167.5" y="-26.5" font-family="Helvetica,sans-Serif" font-size="10.00">Triangle Solutions</text>
</g>
<!-- Node1&#45;&gt;Node0 -->
<g id="edge1" class="edge"><title>Node1&#45;&gt;Node0</title>
<path fill="none" stroke="black" d="M48.4068,-29C68.6968,-29 96.4481,-29 119.951,-29"/>
<polygon fill="black" stroke="black" points="48.2581,-25.5001 38.2581,-29 48.2581,-32.5001 48.2581,-25.5001"/>
</g>
<!-- Node3 -->
<g id="node2" class="node"><title>Node3</title>
<g id="a_node2"><a xlink:href="group__math__ngon.html" target="_top" xlink:title="Regular n&#45;sided polygon computations. ">
<polygon fill="white" stroke="black" points="315,-38.5 315,-57.5 399,-57.5 399,-38.5 315,-38.5"/>
<text text-anchor="middle" x="357" y="-45.5" font-family="Helvetica,sans-Serif" font-size="10.00">n&#45;gon Solutions</text>
</a>
</g>
</g>
<!-- Node2 -->
<g id="node3" class="node"><title>Node2</title>
<g id="a_node3"><a xlink:href="group__math__vector.html" target="_top" xlink:title="Point, vector, and plane computations. ">
<polygon fill="white" stroke="black" points="297,-0.5 297,-19.5 417,-19.5 417,-0.5 297,-0.5"/>
<text text-anchor="middle" x="357" y="-7.5" font-family="Helvetica,sans-Serif" font-size="10.00">Point, Vector and Plane</text>
</a>
</g>
</g>
<!-- Node0&#45;&gt;Node1 -->
<g id="edge2" class="edge"><title>Node0&#45;&gt;Node1</title>
<path fill="none" stroke="darkgreen" stroke-dasharray="5,2" d="M133.461,-19.459C111.418,-14.4051 81.8479,-10.1509 56,-15 50.0681,-16.1128 43.8576,-18.1735 38.2976,-20.3781"/>
<text text-anchor="middle" x="79" y="-18" font-family="Helvetica,sans-Serif" font-size="10.00">math.scad</text>
</g>
<!-- Node0&#45;&gt;Node3 -->
<g id="edge4" class="edge"><title>Node0&#45;&gt;Node3</title>
<path fill="none" stroke="darkgreen" stroke-dasharray="5,2" d="M215.331,-33.7455C245.919,-36.8451 285.486,-40.8545 314.861,-43.8313"/>
<text text-anchor="middle" x="256" y="-42" font-family="Helvetica,sans-Serif" font-size="10.00">math.scad</text>
</g>
<!-- Node0&#45;&gt;Node2 -->
<g id="edge3" class="edge"><title>Node0&#45;&gt;Node2</title>
<path fill="none" stroke="darkgreen" stroke-dasharray="5,2" d="M207.194,-19.4639C215.651,-17.6991 224.589,-16.0755 233,-15 253.669,-12.357 276.436,-11.0019 296.704,-10.3371"/>
<text text-anchor="middle" x="256" y="-18" font-family="Helvetica,sans-Serif" font-size="10.00">math.scad</text>
</g>
</g>
</svg>
