<?xml version="1.0" encoding="UTF-8" standalone="no"?>
<!DOCTYPE svg PUBLIC "-//W3C//DTD SVG 1.1//EN"
 "http://www.w3.org/Graphics/SVG/1.1/DTD/svg11.dtd">
<!-- Generated by graphviz version 2.38.0 (20140413.2041)
 -->
<!-- Title: Vector Operations Pages: 1 -->
<svg width="427pt" height="36pt"
 viewBox="0.00 0.00 427.00 35.90" xmlns="http://www.w3.org/2000/svg" xmlns:xlink="http://www.w3.org/1999/xlink">
<g id="graph0" class="graph" transform="scale(1 1) rotate(0) translate(4 31.9029)">
<title>Vector Operations</title>
<polygon fill="white" stroke="none" points="-4,4 -4,-31.9029 423,-31.9029 423,4 -4,4"/>
<!-- Node1 -->
<g id="node1" class="node"><title>Node1</title>
<g id="a_node1"><a xlink:href="group__math.html" target="_top" xlink:title="Mathematical functions. ">
<polygon fill="white" stroke="black" points="0,-7.40293 0,-26.4029 38,-26.4029 38,-7.40293 0,-7.40293"/>
<text text-anchor="middle" x="19" y="-14.4029" font-family="Helvetica,sans-Serif" font-size="10.00">Math</text>
</a>
</g>
</g>
<!-- Node0 -->
<g id="node2" class="node"><title>Node0</title>
<polygon fill="#bfbfbf" stroke="black" points="141,-7.40293 141,-26.4029 236,-26.4029 236,-7.40293 141,-7.40293"/>
<text text-anchor="middle" x="188.5" y="-14.4029" font-family="Helvetica,sans-Serif" font-size="10.00">Vector Operations</text>
</g>
<!-- Node1&#45;&gt;Node0 -->
<g id="edge1" class="edge"><title>Node1&#45;&gt;Node0</title>
<path fill="none" stroke="black" d="M48.269,-16.9029C73.5477,-16.9029 111.084,-16.9029 140.814,-16.9029"/>
<polygon fill="black" stroke="black" points="48.2443,-13.403 38.2443,-16.9029 48.2443,-20.403 48.2443,-13.403"/>
</g>
<!-- Node0&#45;&gt;Node1 -->
<g id="edge2" class="edge"><title>Node0&#45;&gt;Node1</title>
<path fill="none" stroke="darkgreen" stroke-dasharray="5,2" d="M150.994,-7.35214C124.477,-1.78729 87.817,3.06597 56,-2.90293 50.0681,-4.01576 43.8576,-6.07648 38.2976,-8.28106"/>
<text text-anchor="middle" x="89.5" y="-5.90293" font-family="Helvetica,sans-Serif" font-size="10.00">primitives.scad</text>
</g>
<!-- Node2 -->
<g id="node3" class="node"><title>Node2</title>
<g id="a_node3"><a xlink:href="group__prim__test.html" target="_top" xlink:title="Variable property test primitives. ">
<polygon fill="white" stroke="black" points="339,-7.40293 339,-26.4029 419,-26.4029 419,-7.40293 339,-7.40293"/>
<text text-anchor="middle" x="379" y="-14.4029" font-family="Helvetica,sans-Serif" font-size="10.00">Variable Tests</text>
</a>
</g>
</g>
<!-- Node0&#45;&gt;Node2 -->
<g id="edge3" class="edge"><title>Node0&#45;&gt;Node2</title>
<path fill="none" stroke="darkgreen" stroke-dasharray="5,2" d="M236.096,-16.9029C267.712,-16.9029 309.039,-16.9029 338.932,-16.9029"/>
<text text-anchor="middle" x="287.5" y="-19.9029" font-family="Helvetica,sans-Serif" font-size="10.00">primitives.scad</text>
</g>
</g>
</svg>
