<?xml version="1.0" encoding="UTF-8" standalone="no"?>
<!DOCTYPE svg PUBLIC "-//W3C//DTD SVG 1.1//EN"
 "http://www.w3.org/Graphics/SVG/1.1/DTD/svg11.dtd">
<!-- Generated by graphviz version 2.38.0 (20140413.2041)
 -->
<!-- Title: Edge Finishing Pages: 1 -->
<svg width="233pt" height="29pt"
 viewBox="0.00 0.00 233.00 29.00" xmlns="http://www.w3.org/2000/svg" xmlns:xlink="http://www.w3.org/1999/xlink">
<g id="graph0" class="graph" transform="scale(1 1) rotate(0) translate(4 25)">
<title>Edge Finishing</title>
<polygon fill="white" stroke="none" points="-4,4 -4,-25 229,-25 229,4 -4,4"/>
<!-- Node0 -->
<g id="node1" class="node"><title>Node0</title>
<polygon fill="#bfbfbf" stroke="black" points="0,-0.5 0,-19.5 81,-19.5 81,-0.5 0,-0.5"/>
<text text-anchor="middle" x="40.5" y="-7.5" font-family="Helvetica,sans-Serif" font-size="10.00">Edge Finishing</text>
</g>
<!-- Node1 -->
<g id="node2" class="node"><title>Node1</title>
<g id="a_node2"><a xlink:href="group__tools.html" target="_top" xlink:title="Design tools and techniques. ">
<polygon fill="white" stroke="black" points="184,-0.5 184,-19.5 225,-19.5 225,-0.5 184,-0.5"/>
<text text-anchor="middle" x="204.5" y="-7.5" font-family="Helvetica,sans-Serif" font-size="10.00">Tools</text>
</a>
</g>
</g>
<!-- Node0&#45;&gt;Node1 -->
<g id="edge2" class="edge"><title>Node0&#45;&gt;Node1</title>
<path fill="none" stroke="darkgreen" stroke-dasharray="5,2" d="M81.1297,-10C113.727,-10 158.545,-10 183.911,-10"/>
<text text-anchor="middle" x="132.5" y="-13" font-family="Helvetica,sans-Serif" font-size="10.00">tool_edge.scad</text>
</g>
<!-- Node1&#45;&gt;Node0 -->
<g id="edge1" class="edge"><title>Node1&#45;&gt;Node0</title>
<path fill="none" stroke="black" d="M173.443,-8.25538C170.926,-8.15231 168.42,-8.06448 166,-8 136.233,-7.20677 128.773,-7.48236 99,-8 93.2074,-8.10071 87.0881,-8.25845 81.0875,-8.4422"/>
<polygon fill="black" stroke="black" points="173.501,-11.7621 183.657,-8.74397 173.836,-4.77005 173.501,-11.7621"/>
</g>
</g>
</svg>
