<?xml version="1.0" encoding="UTF-8" standalone="no"?>
<!DOCTYPE svg PUBLIC "-//W3C//DTD SVG 1.1//EN"
 "http://www.w3.org/Graphics/SVG/1.1/DTD/svg11.dtd">
<!-- Generated by graphviz version 2.38.0 (20140413.2041)
 -->
<!-- Title: Console Pages: 1 -->
<svg width="193pt" height="29pt"
 viewBox="0.00 0.00 193.00 29.00" xmlns="http://www.w3.org/2000/svg" xmlns:xlink="http://www.w3.org/1999/xlink">
<g id="graph0" class="graph" transform="scale(1 1) rotate(0) translate(4 25)">
<title>Console</title>
<polygon fill="white" stroke="none" points="-4,4 -4,-25 189,-25 189,4 -4,4"/>
<!-- Node0 -->
<g id="node1" class="node"><title>Node0</title>
<polygon fill="#bfbfbf" stroke="black" points="0,-0.5 0,-19.5 53,-19.5 53,-0.5 0,-0.5"/>
<text text-anchor="middle" x="26.5" y="-7.5" font-family="Helvetica,sans-Serif" font-size="10.00">Console</text>
</g>
<!-- Node1 -->
<g id="node2" class="node"><title>Node1</title>
<g id="a_node2"><a xlink:href="group__data.html" target="_top" xlink:title="Data values and reference. ">
<polygon fill="white" stroke="black" points="147,-0.5 147,-19.5 185,-19.5 185,-0.5 147,-0.5"/>
<text text-anchor="middle" x="166" y="-7.5" font-family="Helvetica,sans-Serif" font-size="10.00">Data</text>
</a>
</g>
</g>
<!-- Node0&#45;&gt;Node1 -->
<g id="edge2" class="edge"><title>Node0&#45;&gt;Node1</title>
<path fill="none" stroke="darkgreen" stroke-dasharray="5,2" d="M53.0405,-10C80.2229,-10 122.561,-10 146.631,-10"/>
<text text-anchor="middle" x="100" y="-13" font-family="Helvetica,sans-Serif" font-size="10.00">console.scad</text>
</g>
<!-- Node1&#45;&gt;Node0 -->
<g id="edge1" class="edge"><title>Node1&#45;&gt;Node0</title>
<path fill="none" stroke="black" d="M136.476,-8.26953C133.948,-8.16035 131.429,-8.06741 129,-8 103.232,-7.28478 96.771,-7.40788 71,-8 65.2559,-8.13198 59.0885,-8.36187 53.2553,-8.61989"/>
<polygon fill="black" stroke="black" points="136.53,-11.7767 146.694,-8.78597 136.884,-4.78559 136.53,-11.7767"/>
</g>
</g>
</svg>
