<?xml version="1.0" encoding="UTF-8" standalone="no"?>
<!DOCTYPE svg PUBLIC "-//W3C//DTD SVG 1.1//EN"
 "http://www.w3.org/Graphics/SVG/1.1/DTD/svg11.dtd">
<!-- Generated by graphviz version 2.38.0 (20140413.2041)
 -->
<!-- Title: Replications Pages: 1 -->
<svg width="268pt" height="76pt"
 viewBox="0.00 0.00 268.00 76.00" xmlns="http://www.w3.org/2000/svg" xmlns:xlink="http://www.w3.org/1999/xlink">
<g id="graph0" class="graph" transform="scale(1 1) rotate(0) translate(4 72)">
<title>Replications</title>
<polygon fill="white" stroke="none" points="-4,4 -4,-72 264,-72 264,4 -4,4"/>
<!-- Node0 -->
<g id="node1" class="node"><title>Node0</title>
<polygon fill="#bfbfbf" stroke="black" points="0,-26.5 0,-45.5 71,-45.5 71,-26.5 0,-26.5"/>
<text text-anchor="middle" x="35.5" y="-33.5" font-family="Helvetica,sans-Serif" font-size="10.00">Replications</text>
</g>
<!-- Node1 -->
<g id="node2" class="node"><title>Node1</title>
<g id="a_node2"><a xlink:href="group__transforms.html" target="_top" xlink:title="Shape transformations. ">
<polygon fill="white" stroke="black" points="173,-48.5 173,-67.5 260,-67.5 260,-48.5 173,-48.5"/>
<text text-anchor="middle" x="216.5" y="-55.5" font-family="Helvetica,sans-Serif" font-size="10.00">Transformations</text>
</a>
</g>
</g>
<!-- Node0&#45;&gt;Node1 -->
<g id="edge2" class="edge"><title>Node0&#45;&gt;Node1</title>
<path fill="none" stroke="darkgreen" stroke-dasharray="5,2" d="M71.13,-43.8677C77.0693,-45.0413 83.1961,-46.1428 89,-47 116.805,-51.1068 148.292,-53.8514 172.897,-55.572"/>
<text text-anchor="middle" x="122" y="-57" font-family="Helvetica,sans-Serif" font-size="10.00">transform.scad</text>
</g>
<!-- Node2 -->
<g id="node3" class="node"><title>Node2</title>
<g id="a_node3"><a xlink:href="group__transforms__extrude.html" target="_top" xlink:title="Shape Extrusions. ">
<polygon fill="white" stroke="black" points="185,-0.5 185,-19.5 248,-19.5 248,-0.5 185,-0.5"/>
<text text-anchor="middle" x="216.5" y="-7.5" font-family="Helvetica,sans-Serif" font-size="10.00">Extrusions</text>
</a>
</g>
</g>
<!-- Node0&#45;&gt;Node2 -->
<g id="edge3" class="edge"><title>Node0&#45;&gt;Node2</title>
<path fill="none" stroke="darkgreen" stroke-dasharray="5,2" d="M71.2065,-29.8679C77.1369,-28.8724 83.2409,-27.8803 89,-27 121.638,-22.011 159.137,-17.0706 184.781,-13.8123"/>
<text text-anchor="middle" x="122" y="-30" font-family="Helvetica,sans-Serif" font-size="10.00">transform.scad</text>
</g>
<!-- Node1&#45;&gt;Node0 -->
<g id="edge1" class="edge"><title>Node1&#45;&gt;Node0</title>
<path fill="none" stroke="black" d="M162.732,-50.9786C160.118,-50.6445 157.53,-50.3167 155,-50 126.839,-46.4748 94.8815,-42.7131 71.2561,-39.9777"/>
<polygon fill="black" stroke="black" points="162.505,-54.4782 172.871,-52.2877 163.402,-47.5358 162.505,-54.4782"/>
</g>
</g>
</svg>
