<?xml version="1.0" encoding="UTF-8" standalone="no"?>
<!DOCTYPE svg PUBLIC "-//W3C//DTD SVG 1.1//EN"
 "http://www.w3.org/Graphics/SVG/1.1/DTD/svg11.dtd">
<!-- Generated by graphviz version 2.38.0 (20140413.2041)
 -->
<!-- Title: 2D Extrusions Pages: 1 -->
<svg width="245pt" height="36pt"
 viewBox="0.00 0.00 245.00 35.53" xmlns="http://www.w3.org/2000/svg" xmlns:xlink="http://www.w3.org/1999/xlink">
<g id="graph0" class="graph" transform="scale(1 1) rotate(0) translate(4 31.5321)">
<title>2D Extrusions</title>
<polygon fill="white" stroke="none" points="-4,4 -4,-31.5321 241,-31.5321 241,4 -4,4"/>
<!-- Node1 -->
<g id="node1" class="node"><title>Node1</title>
<g id="a_node1"><a xlink:href="group__shapes.html" target="_top" xlink:title="2D and 3D shapes. ">
<polygon fill="white" stroke="black" points="0,-8.03211 0,-27.0321 50,-27.0321 50,-8.03211 0,-8.03211"/>
<text text-anchor="middle" x="25" y="-15.0321" font-family="Helvetica,sans-Serif" font-size="10.00">Shapes</text>
</a>
</g>
</g>
<!-- Node0 -->
<g id="node2" class="node"><title>Node0</title>
<polygon fill="#bfbfbf" stroke="black" points="158,-8.03211 158,-27.0321 237,-27.0321 237,-8.03211 158,-8.03211"/>
<text text-anchor="middle" x="197.5" y="-15.0321" font-family="Helvetica,sans-Serif" font-size="10.00">2D Extrusions</text>
</g>
<!-- Node1&#45;&gt;Node0 -->
<g id="edge1" class="edge"><title>Node1&#45;&gt;Node0</title>
<path fill="none" stroke="black" d="M60.2512,-17.5321C88.4497,-17.5321 128.419,-17.5321 157.777,-17.5321"/>
<polygon fill="black" stroke="black" points="60.0669,-14.0322 50.0669,-17.5321 60.0668,-21.0322 60.0669,-14.0322"/>
</g>
<!-- Node0&#45;&gt;Node1 -->
<g id="edge2" class="edge"><title>Node0&#45;&gt;Node1</title>
<path fill="none" stroke="darkgreen" stroke-dasharray="5,2" d="M163.887,-8.0242C156.126,-6.15977 147.824,-4.48706 140,-3.53211 108.236,0.344668 99.5868,1.59372 68,-3.53211 62.0823,-4.49243 55.8716,-6.16723 50.0959,-8.03199"/>
<text text-anchor="middle" x="104" y="-6.53211" font-family="Helvetica,sans-Serif" font-size="10.00">shapes2de.scad</text>
</g>
</g>
</svg>
