<?xml version="1.0" encoding="UTF-8" standalone="no"?>
<!DOCTYPE svg PUBLIC "-//W3C//DTD SVG 1.1//EN"
 "http://www.w3.org/Graphics/SVG/1.1/DTD/svg11.dtd">
<!-- Generated by graphviz version 2.38.0 (20140413.2041)
 -->
<!-- Title: Transformations Pages: 1 -->
<svg width="268pt" height="78pt"
 viewBox="0.00 0.00 268.00 78.26" xmlns="http://www.w3.org/2000/svg" xmlns:xlink="http://www.w3.org/1999/xlink">
<g id="graph0" class="graph" transform="scale(1 1) rotate(0) translate(4 74.2553)">
<title>Transformations</title>
<polygon fill="white" stroke="none" points="-4,4 -4,-74.2553 264,-74.2553 264,4 -4,4"/>
<!-- Node2 -->
<g id="node1" class="node"><title>Node2</title>
<g id="a_node1"><a xlink:href="group__transforms__replicate.html" target="_top" xlink:title="Shape Replications and distribution. ">
<polygon fill="white" stroke="black" points="189,-50.7553 189,-69.7553 260,-69.7553 260,-50.7553 189,-50.7553"/>
<text text-anchor="middle" x="224.5" y="-57.7553" font-family="Helvetica,sans-Serif" font-size="10.00">Replications</text>
</a>
</g>
</g>
<!-- Node0 -->
<g id="node2" class="node"><title>Node0</title>
<polygon fill="#bfbfbf" stroke="black" points="0,-26.7553 0,-45.7553 87,-45.7553 87,-26.7553 0,-26.7553"/>
<text text-anchor="middle" x="43.5" y="-33.7553" font-family="Helvetica,sans-Serif" font-size="10.00">Transformations</text>
</g>
<!-- Node0&#45;&gt;Node2 -->
<g id="edge2" class="edge"><title>Node0&#45;&gt;Node2</title>
<path fill="none" stroke="black" d="M68.4981,-50.8114C79.2557,-56.5176 92.3499,-62.3801 105,-65.2553 132.709,-71.5533 164.979,-69.6083 188.841,-66.4772"/>
<polygon fill="black" stroke="black" points="70.1547,-47.7278 59.7159,-45.9161 66.7465,-53.8421 70.1547,-47.7278"/>
</g>
<!-- Node0&#45;&gt;Node2 -->
<g id="edge4" class="edge"><title>Node0&#45;&gt;Node2</title>
<path fill="none" stroke="darkgreen" stroke-dasharray="5,2" d="M87.2803,-41.3921C111.805,-44.4055 143.156,-48.3735 171,-52.2553 176.753,-53.0573 182.854,-53.9491 188.783,-54.8378"/>
<text text-anchor="middle" x="138" y="-55.2553" font-family="Helvetica,sans-Serif" font-size="10.00">transform.scad</text>
</g>
<!-- Node1 -->
<g id="node3" class="node"><title>Node1</title>
<g id="a_node3"><a xlink:href="group__transforms__extrude.html" target="_top" xlink:title="Shape Extrusions. ">
<polygon fill="white" stroke="black" points="193,-2.7553 193,-21.7553 256,-21.7553 256,-2.7553 193,-2.7553"/>
<text text-anchor="middle" x="224.5" y="-9.7553" font-family="Helvetica,sans-Serif" font-size="10.00">Extrusions</text>
</a>
</g>
</g>
<!-- Node0&#45;&gt;Node1 -->
<g id="edge1" class="edge"><title>Node0&#45;&gt;Node1</title>
<path fill="none" stroke="black" d="M97.5944,-29.1365C128.604,-24.9788 166.643,-19.8786 192.743,-16.3791"/>
<polygon fill="black" stroke="black" points="96.8211,-25.7088 87.375,-30.5067 97.7514,-32.6467 96.8211,-25.7088"/>
</g>
<!-- Node0&#45;&gt;Node1 -->
<g id="edge3" class="edge"><title>Node0&#45;&gt;Node1</title>
<path fill="none" stroke="darkgreen" stroke-dasharray="5,2" d="M58.1306,-26.5478C69.9036,-18.7968 87.7014,-8.54836 105,-4.2553 134.218,2.99598 168.653,-0.625782 192.85,-5.07705"/>
<text text-anchor="middle" x="138" y="-7.2553" font-family="Helvetica,sans-Serif" font-size="10.00">transform.scad</text>
</g>
</g>
</svg>
