<?xml version="1.0" encoding="UTF-8" standalone="no"?>
<!DOCTYPE svg PUBLIC "-//W3C//DTD SVG 1.1//EN"
 "http://www.w3.org/Graphics/SVG/1.1/DTD/svg11.dtd">
<!-- Generated by graphviz version 2.38.0 (20140413.2041)
 -->
<!-- Title: Units Pages: 1 -->
<svg width="224pt" height="149pt"
 viewBox="0.00 0.00 224.00 149.19" xmlns="http://www.w3.org/2000/svg" xmlns:xlink="http://www.w3.org/1999/xlink">
<g id="graph0" class="graph" transform="scale(1 1) rotate(0) translate(4 145.189)">
<title>Units</title>
<polygon fill="white" stroke="none" points="-4,4 -4,-145.189 220,-145.189 220,4 -4,4"/>
<!-- Node0 -->
<g id="node1" class="node"><title>Node0</title>
<polygon fill="#bfbfbf" stroke="black" points="0,-61.3426 0,-80.3426 40,-80.3426 40,-61.3426 0,-61.3426"/>
<text text-anchor="middle" x="20" y="-68.3426" font-family="Helvetica,sans-Serif" font-size="10.00">Units</text>
</g>
<!-- Node2 -->
<g id="node2" class="node"><title>Node2</title>
<g id="a_node2"><a xlink:href="group__units__length.html" target="_top" xlink:title="Length units and conversions. ">
<polygon fill="white" stroke="black" points="161.5,-120.343 161.5,-139.343 207.5,-139.343 207.5,-120.343 161.5,-120.343"/>
<text text-anchor="middle" x="184.5" y="-127.343" font-family="Helvetica,sans-Serif" font-size="10.00">Length</text>
</a>
</g>
</g>
<!-- Node0&#45;&gt;Node2 -->
<g id="edge2" class="edge"><title>Node0&#45;&gt;Node2</title>
<path fill="none" stroke="black" d="M27.4754,-89.8103C33.2024,-103.339 43.0103,-120.547 58,-128.843 90.4092,-146.778 135.118,-141.334 161.499,-135.652"/>
<polygon fill="black" stroke="black" points="30.7142,-88.4807 23.8731,-80.3905 24.1759,-90.981 30.7142,-88.4807"/>
</g>
<!-- Node0&#45;&gt;Node2 -->
<g id="edge5" class="edge"><title>Node0&#45;&gt;Node2</title>
<path fill="none" stroke="darkgreen" stroke-dasharray="5,2" d="M40.279,-77.8424C70.6288,-88.8617 129.381,-110.193 161.396,-121.817"/>
<text text-anchor="middle" x="96.5" y="-112.843" font-family="Helvetica,sans-Serif" font-size="10.00">units_length.scad</text>
</g>
<!-- Node1 -->
<g id="node3" class="node"><title>Node1</title>
<g id="a_node3"><a xlink:href="group__units__angle.html" target="_top" xlink:title="Angle units and conversions. ">
<polygon fill="white" stroke="black" points="164,-55.3426 164,-74.3426 205,-74.3426 205,-55.3426 164,-55.3426"/>
<text text-anchor="middle" x="184.5" y="-62.3426" font-family="Helvetica,sans-Serif" font-size="10.00">Angle</text>
</a>
</g>
</g>
<!-- Node0&#45;&gt;Node1 -->
<g id="edge1" class="edge"><title>Node0&#45;&gt;Node1</title>
<path fill="none" stroke="black" d="M50.535,-71.3435C73.5641,-71.5503 106.339,-71.4421 135,-69.8426 144.466,-69.3144 154.932,-68.2913 163.712,-67.3075"/>
<polygon fill="black" stroke="black" points="50.4218,-67.842 40.382,-71.2262 50.3409,-74.8416 50.4218,-67.842"/>
</g>
<!-- Node0&#45;&gt;Node1 -->
<g id="edge4" class="edge"><title>Node0&#45;&gt;Node1</title>
<path fill="none" stroke="darkgreen" stroke-dasharray="5,2" d="M40.2083,-62.0728C45.8247,-59.9238 52.0547,-57.9298 58,-56.8426 94.9392,-50.0878 138.894,-56.0211 163.762,-60.6421"/>
<text text-anchor="middle" x="96.5" y="-59.8426" font-family="Helvetica,sans-Serif" font-size="10.00">units_angle.scad</text>
</g>
<!-- Node3 -->
<g id="node4" class="node"><title>Node3</title>
<g id="a_node4"><a xlink:href="group__units__resolution.html" target="_top" xlink:title="Arch rendering resolution management. ">
<polygon fill="white" stroke="black" points="153,-7.34263 153,-26.3426 216,-26.3426 216,-7.34263 153,-7.34263"/>
<text text-anchor="middle" x="184.5" y="-14.3426" font-family="Helvetica,sans-Serif" font-size="10.00">Resolution</text>
</a>
</g>
</g>
<!-- Node0&#45;&gt;Node3 -->
<g id="edge3" class="edge"><title>Node0&#45;&gt;Node3</title>
<path fill="none" stroke="black" d="M43.7851,-55.9231C48.3707,-53.3171 53.2452,-50.8141 58,-48.8426 89.1561,-35.9246 126.888,-27.1586 152.793,-22.114"/>
<polygon fill="black" stroke="black" points="41.6626,-53.116 34.909,-61.2793 45.2792,-59.1093 41.6626,-53.116"/>
</g>
<!-- Node0&#45;&gt;Node3 -->
<g id="edge6" class="edge"><title>Node0&#45;&gt;Node3</title>
<path fill="none" stroke="darkgreen" stroke-dasharray="5,2" d="M23.761,-60.957C28.2871,-46.8806 38.7652,-21.5792 58,-10.8426 87.8082,5.79586 128.073,-0.151132 154.87,-7.2875"/>
<text text-anchor="middle" x="96.5" y="-13.8426" font-family="Helvetica,sans-Serif" font-size="10.00">resolution.scad</text>
</g>
</g>
</svg>
