<?xml version="1.0" encoding="UTF-8" standalone="no"?>
<!DOCTYPE svg PUBLIC "-//W3C//DTD SVG 1.1//EN"
 "http://www.w3.org/Graphics/SVG/1.1/DTD/svg11.dtd">
<!-- Generated by graphviz version 2.38.0 (20140413.2041)
 -->
<!-- Title: 2D Shapes Pages: 1 -->
<svg width="226pt" height="29pt"
 viewBox="0.00 0.00 226.00 29.00" xmlns="http://www.w3.org/2000/svg" xmlns:xlink="http://www.w3.org/1999/xlink">
<g id="graph0" class="graph" transform="scale(1 1) rotate(0) translate(4 25)">
<title>2D Shapes</title>
<polygon fill="white" stroke="none" points="-4,4 -4,-25 222,-25 222,4 -4,4"/>
<!-- Node0 -->
<g id="node1" class="node"><title>Node0</title>
<polygon fill="#bfbfbf" stroke="black" points="0,-0.5 0,-19.5 65,-19.5 65,-0.5 0,-0.5"/>
<text text-anchor="middle" x="32.5" y="-7.5" font-family="Helvetica,sans-Serif" font-size="10.00">2D Shapes</text>
</g>
<!-- Node1 -->
<g id="node2" class="node"><title>Node1</title>
<g id="a_node2"><a xlink:href="group__shapes.html" target="_top" xlink:title="2D and 3D shapes. ">
<polygon fill="white" stroke="black" points="168,-0.5 168,-19.5 218,-19.5 218,-0.5 168,-0.5"/>
<text text-anchor="middle" x="193" y="-7.5" font-family="Helvetica,sans-Serif" font-size="10.00">Shapes</text>
</a>
</g>
</g>
<!-- Node0&#45;&gt;Node1 -->
<g id="edge2" class="edge"><title>Node0&#45;&gt;Node1</title>
<path fill="none" stroke="darkgreen" stroke-dasharray="5,2" d="M65.1939,-10C95.3676,-10 140.137,-10 167.618,-10"/>
<text text-anchor="middle" x="116.5" y="-13" font-family="Helvetica,sans-Serif" font-size="10.00">shapes2d.scad</text>
</g>
<!-- Node1&#45;&gt;Node0 -->
<g id="edge1" class="edge"><title>Node1&#45;&gt;Node0</title>
<path fill="none" stroke="black" d="M157.375,-8.22084C154.879,-8.13264 152.401,-8.05715 150,-8 120.231,-7.29161 112.772,-7.3988 83,-8 77.2387,-8.11634 71.1024,-8.30878 65.1822,-8.52951"/>
<polygon fill="black" stroke="black" points="157.442,-11.7265 167.577,-8.64033 157.729,-4.73237 157.442,-11.7265"/>
</g>
</g>
</svg>
