<?xml version="1.0" encoding="UTF-8" standalone="no"?>
<!DOCTYPE svg PUBLIC "-//W3C//DTD SVG 1.1//EN"
 "http://www.w3.org/Graphics/SVG/1.1/DTD/svg11.dtd">
<!-- Generated by graphviz version 2.38.0 (20140413.2041)
 -->
<!-- Title: math_bitwise.scad Pages: 1 -->
<svg width="299pt" height="196pt"
 viewBox="0.00 0.00 298.50 196.00" xmlns="http://www.w3.org/2000/svg" xmlns:xlink="http://www.w3.org/1999/xlink">
<g id="graph0" class="graph" transform="scale(1 1) rotate(0) translate(4 192)">
<title>math_bitwise.scad</title>
<polygon fill="white" stroke="none" points="-4,4 -4,-192 294.5,-192 294.5,4 -4,4"/>
<!-- Node1 -->
<g id="node1" class="node"><title>Node1</title>
<polygon fill="#bfbfbf" stroke="black" points="99,-168.5 99,-187.5 197,-187.5 197,-168.5 99,-168.5"/>
<text text-anchor="middle" x="148" y="-175.5" font-family="Helvetica,sans-Serif" font-size="10.00">math_bitwise.scad</text>
</g>
<!-- Node2 -->
<g id="node2" class="node"><title>Node2</title>
<g id="a_node2"><a xlink:href="transform_8scad.html" target="_top" xlink:title="Shape transformation functions. ">
<polygon fill="white" stroke="black" points="107,-112.5 107,-131.5 189,-131.5 189,-112.5 107,-112.5"/>
<text text-anchor="middle" x="148" y="-119.5" font-family="Helvetica,sans-Serif" font-size="10.00">transform.scad</text>
</a>
</g>
</g>
<!-- Node1&#45;&gt;Node2 -->
<g id="edge1" class="edge"><title>Node1&#45;&gt;Node2</title>
<path fill="none" stroke="midnightblue" d="M148,-157.805C148,-148.91 148,-138.78 148,-131.751"/>
<polygon fill="midnightblue" stroke="midnightblue" points="144.5,-158.083 148,-168.083 151.5,-158.083 144.5,-158.083"/>
</g>
<!-- Node3 -->
<g id="node3" class="node"><title>Node3</title>
<g id="a_node3"><a xlink:href="shapes2d_8scad.html" target="_top" xlink:title="Two&#45;dimensional basic shapes. ">
<polygon fill="white" stroke="black" points="106.5,-56.5 106.5,-75.5 189.5,-75.5 189.5,-56.5 106.5,-56.5"/>
<text text-anchor="middle" x="148" y="-63.5" font-family="Helvetica,sans-Serif" font-size="10.00">shapes2d.scad</text>
</a>
</g>
</g>
<!-- Node2&#45;&gt;Node3 -->
<g id="edge2" class="edge"><title>Node2&#45;&gt;Node3</title>
<path fill="none" stroke="midnightblue" d="M148,-101.805C148,-92.9102 148,-82.7798 148,-75.7511"/>
<polygon fill="midnightblue" stroke="midnightblue" points="144.5,-102.083 148,-112.083 151.5,-102.083 144.5,-102.083"/>
</g>
<!-- Node4 -->
<g id="node4" class="node"><title>Node4</title>
<g id="a_node4"><a xlink:href="shapes2de_8scad.html" target="_top" xlink:title="Linearly extruded two&#45;dimensional basic shapes. ">
<polygon fill="white" stroke="black" points="0,-0.5 0,-19.5 88,-19.5 88,-0.5 0,-0.5"/>
<text text-anchor="middle" x="44" y="-7.5" font-family="Helvetica,sans-Serif" font-size="10.00">shapes2de.scad</text>
</a>
</g>
</g>
<!-- Node3&#45;&gt;Node4 -->
<g id="edge3" class="edge"><title>Node3&#45;&gt;Node4</title>
<path fill="none" stroke="midnightblue" d="M122.172,-51.5895C102.943,-41.6052 77.2553,-28.2672 60.6679,-19.6545"/>
<polygon fill="midnightblue" stroke="midnightblue" points="120.803,-54.822 131.291,-56.324 124.029,-48.6095 120.803,-54.822"/>
</g>
<!-- Node5 -->
<g id="node5" class="node"><title>Node5</title>
<g id="a_node5"><a xlink:href="shapes3d_8scad.html" target="_top" xlink:title="Three&#45;dimensional basic shapes. ">
<polygon fill="white" stroke="black" points="106.5,-0.5 106.5,-19.5 189.5,-19.5 189.5,-0.5 106.5,-0.5"/>
<text text-anchor="middle" x="148" y="-7.5" font-family="Helvetica,sans-Serif" font-size="10.00">shapes3d.scad</text>
</a>
</g>
</g>
<!-- Node3&#45;&gt;Node5 -->
<g id="edge4" class="edge"><title>Node3&#45;&gt;Node5</title>
<path fill="none" stroke="midnightblue" d="M148,-45.8045C148,-36.9102 148,-26.7798 148,-19.7511"/>
<polygon fill="midnightblue" stroke="midnightblue" points="144.5,-46.083 148,-56.083 151.5,-46.083 144.5,-46.083"/>
</g>
<!-- Node6 -->
<g id="node6" class="node"><title>Node6</title>
<g id="a_node6"><a xlink:href="tool__edge_8scad.html" target="_top" xlink:title="Shape edge finishing tools. ">
<polygon fill="white" stroke="black" points="207.5,-0.5 207.5,-19.5 290.5,-19.5 290.5,-0.5 207.5,-0.5"/>
<text text-anchor="middle" x="249" y="-7.5" font-family="Helvetica,sans-Serif" font-size="10.00">tool_edge.scad</text>
</a>
</g>
</g>
<!-- Node3&#45;&gt;Node6 -->
<g id="edge5" class="edge"><title>Node3&#45;&gt;Node6</title>
<path fill="none" stroke="midnightblue" d="M173.083,-51.5895C191.757,-41.6052 216.704,-28.2672 232.813,-19.6545"/>
<polygon fill="midnightblue" stroke="midnightblue" points="171.396,-48.5224 164.227,-56.324 174.696,-54.6955 171.396,-48.5224"/>
</g>
</g>
</svg>
