<?xml version="1.0" encoding="UTF-8" standalone="no"?>
<!DOCTYPE svg PUBLIC "-//W3C//DTD SVG 1.1//EN"
 "http://www.w3.org/Graphics/SVG/1.1/DTD/svg11.dtd">
<!-- Generated by graphviz version 2.38.0 (20140413.2041)
 -->
<!-- Title: tool_edge.scad Pages: 1 -->
<svg width="278pt" height="308pt"
 viewBox="0.00 0.00 278.00 308.00" xmlns="http://www.w3.org/2000/svg" xmlns:xlink="http://www.w3.org/1999/xlink">
<g id="graph0" class="graph" transform="scale(1 1) rotate(0) translate(4 304)">
<title>tool_edge.scad</title>
<polygon fill="white" stroke="none" points="-4,4 -4,-304 274,-304 274,4 -4,4"/>
<!-- Node1 -->
<g id="node1" class="node"><title>Node1</title>
<polygon fill="#bfbfbf" stroke="black" points="81.5,-280.5 81.5,-299.5 164.5,-299.5 164.5,-280.5 81.5,-280.5"/>
<text text-anchor="middle" x="123" y="-287.5" font-family="Helvetica,sans-Serif" font-size="10.00">tool_edge.scad</text>
</g>
<!-- Node2 -->
<g id="node2" class="node"><title>Node2</title>
<g id="a_node2"><a xlink:href="shapes2d_8scad.html" target="_top" xlink:title="Two&#45;dimensional basic shapes. ">
<polygon fill="white" stroke="black" points="81.5,-224.5 81.5,-243.5 164.5,-243.5 164.5,-224.5 81.5,-224.5"/>
<text text-anchor="middle" x="123" y="-231.5" font-family="Helvetica,sans-Serif" font-size="10.00">shapes2d.scad</text>
</a>
</g>
</g>
<!-- Node1&#45;&gt;Node2 -->
<g id="edge1" class="edge"><title>Node1&#45;&gt;Node2</title>
<path fill="none" stroke="midnightblue" d="M123,-280.083C123,-273.006 123,-262.861 123,-253.986"/>
<polygon fill="midnightblue" stroke="midnightblue" points="126.5,-253.751 123,-243.751 119.5,-253.751 126.5,-253.751"/>
</g>
<!-- Node3 -->
<g id="node3" class="node"><title>Node3</title>
<g id="a_node3"><a xlink:href="transform_8scad.html" target="_top" xlink:title="Shape transformation functions. ">
<polygon fill="white" stroke="black" points="82,-168.5 82,-187.5 164,-187.5 164,-168.5 82,-168.5"/>
<text text-anchor="middle" x="123" y="-175.5" font-family="Helvetica,sans-Serif" font-size="10.00">transform.scad</text>
</a>
</g>
</g>
<!-- Node2&#45;&gt;Node3 -->
<g id="edge2" class="edge"><title>Node2&#45;&gt;Node3</title>
<path fill="none" stroke="midnightblue" d="M123,-224.083C123,-217.006 123,-206.861 123,-197.986"/>
<polygon fill="midnightblue" stroke="midnightblue" points="126.5,-197.751 123,-187.751 119.5,-197.751 126.5,-197.751"/>
</g>
<!-- Node4 -->
<g id="node4" class="node"><title>Node4</title>
<g id="a_node4"><a xlink:href="console_8scad.html" target="_top" xlink:title="Message logging functions. ">
<polygon fill="white" stroke="black" points="0,-112.5 0,-131.5 74,-131.5 74,-112.5 0,-112.5"/>
<text text-anchor="middle" x="37" y="-119.5" font-family="Helvetica,sans-Serif" font-size="10.00">console.scad</text>
</a>
</g>
</g>
<!-- Node3&#45;&gt;Node4 -->
<g id="edge3" class="edge"><title>Node3&#45;&gt;Node4</title>
<path fill="none" stroke="midnightblue" d="M109.183,-168.324C95.767,-159.9 75.1759,-146.971 59.4144,-137.074"/>
<polygon fill="midnightblue" stroke="midnightblue" points="61.1132,-134.008 50.7831,-131.655 57.3908,-139.936 61.1132,-134.008"/>
</g>
<!-- Node6 -->
<g id="node6" class="node"><title>Node6</title>
<g id="a_node6"><a xlink:href="math_8scad.html" target="_top" xlink:title="Mathematical functions. ">
<polygon fill="white" stroke="black" points="92,-112.5 92,-131.5 154,-131.5 154,-112.5 92,-112.5"/>
<text text-anchor="middle" x="123" y="-119.5" font-family="Helvetica,sans-Serif" font-size="10.00">math.scad</text>
</a>
</g>
</g>
<!-- Node3&#45;&gt;Node6 -->
<g id="edge5" class="edge"><title>Node3&#45;&gt;Node6</title>
<path fill="none" stroke="midnightblue" d="M123,-168.083C123,-161.006 123,-150.861 123,-141.986"/>
<polygon fill="midnightblue" stroke="midnightblue" points="126.5,-141.751 123,-131.751 119.5,-141.751 126.5,-141.751"/>
</g>
<!-- Node9 -->
<g id="node9" class="node"><title>Node9</title>
<g id="a_node9"><a xlink:href="math__bitwise_8scad.html" target="_top" xlink:title="Mathematical bitwise binary (base&#45;two) functions. ">
<polygon fill="white" stroke="black" points="172,-112.5 172,-131.5 270,-131.5 270,-112.5 172,-112.5"/>
<text text-anchor="middle" x="221" y="-119.5" font-family="Helvetica,sans-Serif" font-size="10.00">math_bitwise.scad</text>
</a>
</g>
</g>
<!-- Node3&#45;&gt;Node9 -->
<g id="edge8" class="edge"><title>Node3&#45;&gt;Node9</title>
<path fill="none" stroke="midnightblue" d="M138.745,-168.324C154.319,-159.743 178.377,-146.486 196.459,-136.522"/>
<polygon fill="midnightblue" stroke="midnightblue" points="198.224,-139.546 205.294,-131.655 194.846,-133.415 198.224,-139.546"/>
</g>
<!-- Node5 -->
<g id="node5" class="node"><title>Node5</title>
<g id="a_node5"><a xlink:href="utilities_8scad.html" target="_top" xlink:title="Miscellaneous utilities. ">
<polygon fill="white" stroke="black" points="1.5,-56.5 1.5,-75.5 72.5,-75.5 72.5,-56.5 1.5,-56.5"/>
<text text-anchor="middle" x="37" y="-63.5" font-family="Helvetica,sans-Serif" font-size="10.00">utilities.scad</text>
</a>
</g>
</g>
<!-- Node4&#45;&gt;Node5 -->
<g id="edge4" class="edge"><title>Node4&#45;&gt;Node5</title>
<path fill="none" stroke="midnightblue" d="M37,-112.083C37,-105.006 37,-94.8611 37,-85.9865"/>
<polygon fill="midnightblue" stroke="midnightblue" points="40.5001,-85.751 37,-75.7511 33.5001,-85.7511 40.5001,-85.751"/>
</g>
<!-- Node7 -->
<g id="node7" class="node"><title>Node7</title>
<g id="a_node7"><a xlink:href="primitives_8scad.html" target="_top" xlink:title="Mathematical primitive functions. ">
<polygon fill="white" stroke="black" points="134.5,-56.5 134.5,-75.5 217.5,-75.5 217.5,-56.5 134.5,-56.5"/>
<text text-anchor="middle" x="176" y="-63.5" font-family="Helvetica,sans-Serif" font-size="10.00">primitives.scad</text>
</a>
</g>
</g>
<!-- Node6&#45;&gt;Node7 -->
<g id="edge6" class="edge"><title>Node6&#45;&gt;Node7</title>
<path fill="none" stroke="midnightblue" d="M131.752,-112.083C139.47,-104.22 150.905,-92.5688 160.217,-83.0813"/>
<polygon fill="midnightblue" stroke="midnightblue" points="162.904,-85.3396 167.411,-75.7511 157.908,-80.4363 162.904,-85.3396"/>
</g>
<!-- Node8 -->
<g id="node8" class="node"><title>Node8</title>
<g id="a_node8"><a xlink:href="constants_8scad.html" target="_top" xlink:title="Mechanical design constants. ">
<polygon fill="white" stroke="black" points="134.5,-0.5 134.5,-19.5 217.5,-19.5 217.5,-0.5 134.5,-0.5"/>
<text text-anchor="middle" x="176" y="-7.5" font-family="Helvetica,sans-Serif" font-size="10.00">constants.scad</text>
</a>
</g>
</g>
<!-- Node7&#45;&gt;Node8 -->
<g id="edge7" class="edge"><title>Node7&#45;&gt;Node8</title>
<path fill="none" stroke="midnightblue" d="M176,-56.083C176,-49.0059 176,-38.8611 176,-29.9865"/>
<polygon fill="midnightblue" stroke="midnightblue" points="179.5,-29.751 176,-19.7511 172.5,-29.7511 179.5,-29.751"/>
</g>
<!-- Node9&#45;&gt;Node7 -->
<g id="edge9" class="edge"><title>Node9&#45;&gt;Node7</title>
<path fill="none" stroke="midnightblue" d="M213.569,-112.083C207.147,-104.377 197.694,-93.0333 189.878,-83.6531"/>
<polygon fill="midnightblue" stroke="midnightblue" points="192.383,-81.1927 183.293,-75.7511 187.006,-85.674 192.383,-81.1927"/>
</g>
</g>
</svg>
