solid OpenSCAD_Model
  facet normal 0 -1 0
    outer loop
      vertex -85.0651 -44.7214 -27.6393
      vertex 52.5731 -44.7214 72.3607
      vertex -52.5731 -44.7214 72.3607
    endloop
  endfacet
  facet normal 0 -1 0
    outer loop
      vertex -85.0651 -44.7214 -27.6393
      vertex 85.0651 -44.7214 -27.6393
      vertex 52.5731 -44.7214 72.3607
    endloop
  endfacet
  facet normal -0 -1 0
    outer loop
      vertex 85.0651 -44.7214 -27.6393
      vertex -85.0651 -44.7214 -27.6393
      vertex -0 -44.7214 -89.4427
    endloop
  endfacet
  facet normal 0 1 0
    outer loop
      vertex 85.0651 44.7214 27.6393
      vertex -85.0651 44.7214 27.6393
      vertex 0 44.7214 89.4427
    endloop
  endfacet
  facet normal 0 1 -0
    outer loop
      vertex 52.5731 44.7214 -72.3607
      vertex -85.0651 44.7214 27.6393
      vertex 85.0651 44.7214 27.6393
    endloop
  endfacet
  facet normal 0 1 0
    outer loop
      vertex -85.0651 44.7214 27.6393
      vertex 52.5731 44.7214 -72.3607
      vertex -52.5731 44.7214 -72.3607
    endloop
  endfacet
  facet normal 0.57735 0.187592 0.794654
    outer loop
      vertex 0 44.7214 89.4427
      vertex 52.5731 -44.7214 72.3607
      vertex 85.0651 44.7214 27.6393
    endloop
  endfacet
  facet normal 0.934172 -0.187592 0.303531
    outer loop
      vertex 85.0651 44.7214 27.6393
      vertex 52.5731 -44.7214 72.3607
      vertex 85.0651 -44.7214 -27.6393
    endloop
  endfacet
  facet normal 0.934172 0.187592 -0.303531
    outer loop
      vertex 85.0651 44.7214 27.6393
      vertex 85.0651 -44.7214 -27.6393
      vertex 52.5731 44.7214 -72.3607
    endloop
  endfacet
  facet normal 0.57735 -0.187592 -0.794654
    outer loop
      vertex 52.5731 44.7214 -72.3607
      vertex 85.0651 -44.7214 -27.6393
      vertex -0 -44.7214 -89.4427
    endloop
  endfacet
  facet normal 0 0.187592 -0.982247
    outer loop
      vertex 52.5731 44.7214 -72.3607
      vertex -0 -44.7214 -89.4427
      vertex -52.5731 44.7214 -72.3607
    endloop
  endfacet
  facet normal -0.57735 -0.187592 -0.794654
    outer loop
      vertex -52.5731 44.7214 -72.3607
      vertex -0 -44.7214 -89.4427
      vertex -85.0651 -44.7214 -27.6393
    endloop
  endfacet
  facet normal -0.934172 0.187592 -0.303531
    outer loop
      vertex -52.5731 44.7214 -72.3607
      vertex -85.0651 -44.7214 -27.6393
      vertex -85.0651 44.7214 27.6393
    endloop
  endfacet
  facet normal -0.934172 -0.187592 0.303531
    outer loop
      vertex -85.0651 44.7214 27.6393
      vertex -85.0651 -44.7214 -27.6393
      vertex -52.5731 -44.7214 72.3607
    endloop
  endfacet
  facet normal -0.57735 0.187592 0.794654
    outer loop
      vertex -85.0651 44.7214 27.6393
      vertex -52.5731 -44.7214 72.3607
      vertex 0 44.7214 89.4427
    endloop
  endfacet
  facet normal 0 -0.187592 0.982247
    outer loop
      vertex 0 44.7214 89.4427
      vertex -52.5731 -44.7214 72.3607
      vertex 52.5731 -44.7214 72.3607
    endloop
  endfacet
endsolid OpenSCAD_Model
