solid OpenSCAD_Model
  facet normal 0.167561 -0.0986234 0.980916
    outer loop
      vertex 0 0 101.449
      vertex 16.3468 -29.4427 95.6959
      vertex 33.6763 0 95.6959
    endloop
  endfacet
  facet normal -0.438679 0.258199 0.860752
    outer loop
      vertex -29.0223 17.082 95.6959
      vertex -42.3052 44.7214 80.6354
      vertex -59.6347 15.2786 80.6354
    endloop
  endfacet
  facet normal 0.699534 0.258199 0.666322
    outer loop
      vertex 59.1433 17.082 80.6354
      vertex 83.0204 15.2786 56.267
      vertex 66.6736 44.7214 62.0196
    endloop
  endfacet
  facet normal 0.113821 -0.736926 0.666322
    outer loop
      vertex 13.7742 -60 80.6354
      vertex -6.73526 -80 62.0196
      vertex 26.941 -80 56.267
    endloop
  endfacet
  facet normal -0.867095 -0.159576 0.471892
    outer loop
      vertex -80.1441 -4.72136 62.0196
      vertex -95.9995 -7.63932 31.8986
      vertex -82.7167 -35.2786 46.9591
    endloop
  endfacet
  facet normal -0.281382 0.835549 0.471892
    outer loop
      vertex -34.7749 72.3607 62.0196
      vertex -9.30789 89.4427 46.9591
      vertex -39.9202 87.6393 31.8986
    endloop
  endfacet
  facet normal 0.974574 -0.159575 0.157296
    outer loop
      vertex 96.1872 -4.72136 31.8986
      vertex 93.6146 -35.2786 16.8381
      vertex 101.145 -7.63932 -1.77765
    endloop
  endfacet
  facet normal 0.422073 0.835549 0.351727
    outer loop
      vertex 53.3907 72.3607 46.9591
      vertex 48.2454 87.6393 16.8381
      vertex 24.3684 89.4427 41.2065
    endloop
  endfacet
  facet normal -0.525631 -0.774597 0.351727
    outer loop
      vertex -37.3476 -81.8034 46.9591
      vertex -66.3699 -64.7214 41.2065
      vertex -53.203 -84.7214 16.8381
    endloop
  endfacet
  facet normal 0.612583 -0.774597 0.157297
    outer loop
      vertex 50.8181 -81.8034 31.8986
      vertex 55.7757 -84.7214 -1.77765
      vertex 76.2851 -64.7214 16.8381
    endloop
  endfacet
  facet normal -0.974574 0.159575 -0.157296
    outer loop
      vertex -101.145 7.63932 1.77765
      vertex -93.6146 35.2786 -16.8381
      vertex -96.1872 4.72136 -31.8986
    endloop
  endfacet
  facet normal -0.612583 0.774597 -0.157297
    outer loop
      vertex -55.7757 84.7214 1.77765
      vertex -50.8181 81.8034 -31.8986
      vertex -76.2851 64.7214 -16.8381
    endloop
  endfacet
  facet normal 0.867095 0.159576 -0.471892
    outer loop
      vertex 95.9995 7.63932 -31.8986
      vertex 80.1441 4.72136 -62.0196
      vertex 82.7167 35.2786 -46.9591
    endloop
  endfacet
  facet normal 0.525631 0.774597 -0.351727
    outer loop
      vertex 53.203 84.7214 -16.8381
      vertex 66.3699 64.7214 -41.2065
      vertex 37.3476 81.8034 -46.9591
    endloop
  endfacet
  facet normal -0.422073 -0.835549 -0.351727
    outer loop
      vertex -48.2454 -87.6393 -16.8381
      vertex -53.3907 -72.3607 -46.9591
      vertex -24.3684 -89.4427 -41.2065
    endloop
  endfacet
  facet normal 0.281382 -0.835549 -0.471892
    outer loop
      vertex 39.9202 -87.6393 -31.8986
      vertex 9.30789 -89.4427 -46.9591
      vertex 34.7749 -72.3607 -62.0196
    endloop
  endfacet
  facet normal -0.699534 -0.258199 -0.666322
    outer loop
      vertex -83.0204 -15.2786 -56.267
      vertex -59.1433 -17.082 -80.6354
      vertex -66.6736 -44.7214 -62.0196
    endloop
  endfacet
  facet normal -0.113821 0.736926 -0.666322
    outer loop
      vertex -26.941 80 -56.267
      vertex 6.73526 80 -62.0196
      vertex -13.7742 60 -80.6354
    endloop
  endfacet
  facet normal 0.438679 -0.258199 -0.860752
    outer loop
      vertex 59.6347 -15.2786 -80.6354
      vertex 42.3052 -44.7214 -80.6354
      vertex 29.0223 -17.082 -95.6959
    endloop
  endfacet
  facet normal -0.167561 0.0986234 -0.980916
    outer loop
      vertex -33.6763 -0 -95.6959
      vertex -16.3468 29.4427 -95.6959
      vertex -0 -0 -101.449
    endloop
  endfacet
  facet normal 0.143234 0.525731 0.838505
    outer loop
      vertex 53.3907 72.3607 46.9591
      vertex 59.1433 17.082 80.6354
      vertex 66.6736 44.7214 62.0196
    endloop
  endfacet
  facet normal 0.143234 0.525731 0.838505
    outer loop
      vertex 53.3907 72.3607 46.9591
      vertex 33.6763 0 95.6959
      vertex 59.1433 17.082 80.6354
    endloop
  endfacet
  facet normal 0.143234 0.525731 0.838505
    outer loop
      vertex 24.3684 89.4427 41.2065
      vertex 33.6763 0 95.6959
      vertex 53.3907 72.3607 46.9591
    endloop
  endfacet
  facet normal 0.143234 0.525731 0.838505
    outer loop
      vertex 24.3684 89.4427 41.2065
      vertex 0 0 101.449
      vertex 33.6763 0 95.6959
    endloop
  endfacet
  facet normal 0.143234 0.525731 0.838505
    outer loop
      vertex -9.30789 89.4427 46.9591
      vertex 0 0 101.449
      vertex 24.3684 89.4427 41.2065
    endloop
  endfacet
  facet normal 0.143233 0.525731 0.838505
    outer loop
      vertex -9.30789 89.4427 46.9591
      vertex -29.0223 17.082 95.6959
      vertex 0 0 101.449
    endloop
  endfacet
  facet normal 0.143234 0.525731 0.838505
    outer loop
      vertex -34.7749 72.3607 62.0196
      vertex -29.0223 17.082 95.6959
      vertex -9.30789 89.4427 46.9591
    endloop
  endfacet
  facet normal 0.143234 0.525731 0.838505
    outer loop
      vertex -29.0223 17.082 95.6959
      vertex -34.7749 72.3607 62.0196
      vertex -42.3052 44.7214 80.6354
    endloop
  endfacet
  facet normal -0.390112 -0.380423 0.838505
    outer loop
      vertex -37.3476 -81.8034 46.9591
      vertex 16.3468 -29.4427 95.6959
      vertex 0 0 101.449
    endloop
  endfacet
  facet normal -0.390112 -0.380423 0.838505
    outer loop
      vertex 16.3468 -29.4427 95.6959
      vertex -37.3476 -81.8034 46.9591
      vertex 13.7742 -60 80.6354
    endloop
  endfacet
  facet normal -0.390113 -0.380422 0.838505
    outer loop
      vertex -66.3699 -64.7214 41.2065
      vertex 0 0 101.449
      vertex -29.0223 17.082 95.6959
    endloop
  endfacet
  facet normal -0.390112 -0.380423 0.838505
    outer loop
      vertex 13.7742 -60 80.6354
      vertex -37.3476 -81.8034 46.9591
      vertex -6.73526 -80 62.0196
    endloop
  endfacet
  facet normal -0.390112 -0.380423 0.838505
    outer loop
      vertex -82.7167 -35.2786 46.9591
      vertex -29.0223 17.082 95.6959
      vertex -59.6347 15.2786 80.6354
    endloop
  endfacet
  facet normal -0.390112 -0.380423 0.838505
    outer loop
      vertex 0 0 101.449
      vertex -66.3699 -64.7214 41.2065
      vertex -37.3476 -81.8034 46.9591
    endloop
  endfacet
  facet normal -0.390113 -0.380423 0.838505
    outer loop
      vertex -82.7167 -35.2786 46.9591
      vertex -59.6347 15.2786 80.6354
      vertex -80.1441 -4.72136 62.0196
    endloop
  endfacet
  facet normal -0.390113 -0.380422 0.838505
    outer loop
      vertex -29.0223 17.082 95.6959
      vertex -82.7167 -35.2786 46.9591
      vertex -66.3699 -64.7214 41.2065
    endloop
  endfacet
  facet normal 0.646337 -0.380423 0.661458
    outer loop
      vertex 59.1433 17.082 80.6354
      vertex 96.1872 -4.72136 31.8986
      vertex 83.0204 15.2786 56.267
    endloop
  endfacet
  facet normal 0.646337 -0.380422 0.661458
    outer loop
      vertex 96.1872 -4.72136 31.8986
      vertex 59.1433 17.082 80.6354
      vertex 93.6146 -35.2786 16.8381
    endloop
  endfacet
  facet normal 0.646337 -0.380423 0.661459
    outer loop
      vertex 33.6763 0 95.6959
      vertex 93.6146 -35.2786 16.8381
      vertex 59.1433 17.082 80.6354
    endloop
  endfacet
  facet normal 0.646337 -0.380423 0.661459
    outer loop
      vertex 93.6146 -35.2786 16.8381
      vertex 33.6763 0 95.6959
      vertex 76.2851 -64.7214 16.8381
    endloop
  endfacet
  facet normal 0.646337 -0.380423 0.661458
    outer loop
      vertex 16.3468 -29.4427 95.6959
      vertex 76.2851 -64.7214 16.8381
      vertex 33.6763 0 95.6959
    endloop
  endfacet
  facet normal 0.646337 -0.380423 0.661458
    outer loop
      vertex 76.2851 -64.7214 16.8381
      vertex 16.3468 -29.4427 95.6959
      vertex 50.8181 -81.8034 31.8986
    endloop
  endfacet
  facet normal 0.646337 -0.380423 0.661458
    outer loop
      vertex 13.7742 -60 80.6354
      vertex 50.8181 -81.8034 31.8986
      vertex 16.3468 -29.4427 95.6959
    endloop
  endfacet
  facet normal 0.646337 -0.380423 0.661458
    outer loop
      vertex 50.8181 -81.8034 31.8986
      vertex 13.7742 -60 80.6354
      vertex 26.941 -80 56.267
    endloop
  endfacet
  facet normal -0.798916 0.470228 0.374991
    outer loop
      vertex -93.6146 35.2786 -16.8381
      vertex -39.9202 87.6393 31.8986
      vertex -55.7757 84.7214 1.77765
    endloop
  endfacet
  facet normal -0.798916 0.470229 0.37499
    outer loop
      vertex -93.6146 35.2786 -16.8381
      vertex -55.7757 84.7214 1.77765
      vertex -76.2851 64.7214 -16.8381
    endloop
  endfacet
  facet normal -0.798916 0.470228 0.374992
    outer loop
      vertex -101.145 7.63932 1.77765
      vertex -39.9202 87.6393 31.8986
      vertex -93.6146 35.2786 -16.8381
    endloop
  endfacet
  facet normal -0.798916 0.470228 0.374991
    outer loop
      vertex -39.9202 87.6393 31.8986
      vertex -101.145 7.63932 1.77765
      vertex -34.7749 72.3607 62.0196
    endloop
  endfacet
  facet normal -0.798916 0.470228 0.37499
    outer loop
      vertex -95.9995 -7.63932 31.8986
      vertex -34.7749 72.3607 62.0196
      vertex -101.145 7.63932 1.77765
    endloop
  endfacet
  facet normal -0.798916 0.470228 0.374991
    outer loop
      vertex -34.7749 72.3607 62.0196
      vertex -95.9995 -7.63932 31.8986
      vertex -42.3052 44.7214 80.6354
    endloop
  endfacet
  facet normal -0.798916 0.470228 0.374991
    outer loop
      vertex -80.1441 -4.72136 62.0196
      vertex -42.3052 44.7214 80.6354
      vertex -95.9995 -7.63932 31.8986
    endloop
  endfacet
  facet normal -0.798916 0.470229 0.37499
    outer loop
      vertex -42.3052 44.7214 80.6354
      vertex -80.1441 -4.72136 62.0196
      vertex -59.6347 15.2786 80.6354
    endloop
  endfacet
  facet normal 0.878094 0.470228 0.0885232
    outer loop
      vertex 101.145 -7.63932 -1.77765
      vertex 48.2454 87.6393 16.8381
      vertex 53.3907 72.3607 46.9591
    endloop
  endfacet
  facet normal 0.878094 0.470228 0.0885234
    outer loop
      vertex 48.2454 87.6393 16.8381
      vertex 101.145 -7.63932 -1.77765
      vertex 53.203 84.7214 -16.8381
    endloop
  endfacet
  facet normal 0.878094 0.470228 0.0885232
    outer loop
      vertex 96.1872 -4.72136 31.8986
      vertex 53.3907 72.3607 46.9591
      vertex 66.6736 44.7214 62.0196
    endloop
  endfacet
  facet normal 0.878094 0.470228 0.0885241
    outer loop
      vertex 95.9995 7.63932 -31.8986
      vertex 53.203 84.7214 -16.8381
      vertex 101.145 -7.63932 -1.77765
    endloop
  endfacet
  facet normal 0.878094 0.470228 0.0885231
    outer loop
      vertex 96.1872 -4.72136 31.8986
      vertex 66.6736 44.7214 62.0196
      vertex 83.0204 15.2786 56.267
    endloop
  endfacet
  facet normal 0.878094 0.470228 0.0885234
    outer loop
      vertex 53.203 84.7214 -16.8381
      vertex 95.9995 7.63932 -31.8986
      vertex 66.3699 64.7214 -41.2065
    endloop
  endfacet
  facet normal 0.878094 0.470228 0.0885227
    outer loop
      vertex 53.3907 72.3607 46.9591
      vertex 96.1872 -4.72136 31.8986
      vertex 101.145 -7.63932 -1.77765
    endloop
  endfacet
  facet normal 0.878094 0.470228 0.0885235
    outer loop
      vertex 66.3699 64.7214 -41.2065
      vertex 95.9995 7.63932 -31.8986
      vertex 82.7167 35.2786 -46.9591
    endloop
  endfacet
  facet normal 0.0151216 -0.995959 0.0885233
    outer loop
      vertex -37.3476 -81.8034 46.9591
      vertex 26.941 -80 56.267
      vertex -6.73526 -80 62.0196
    endloop
  endfacet
  facet normal 0.0151216 -0.995959 0.0885233
    outer loop
      vertex -37.3476 -81.8034 46.9591
      vertex 50.8181 -81.8034 31.8986
      vertex 26.941 -80 56.267
    endloop
  endfacet
  facet normal 0.0151216 -0.995959 0.0885234
    outer loop
      vertex -53.203 -84.7214 16.8381
      vertex 50.8181 -81.8034 31.8986
      vertex -37.3476 -81.8034 46.9591
    endloop
  endfacet
  facet normal 0.0151216 -0.995959 0.0885234
    outer loop
      vertex -53.203 -84.7214 16.8381
      vertex 55.7757 -84.7214 -1.77765
      vertex 50.8181 -81.8034 31.8986
    endloop
  endfacet
  facet normal 0.0151216 -0.995959 0.0885234
    outer loop
      vertex -48.2454 -87.6393 -16.8381
      vertex 55.7757 -84.7214 -1.77765
      vertex -53.203 -84.7214 16.8381
    endloop
  endfacet
  facet normal 0.0151216 -0.995959 0.0885234
    outer loop
      vertex -48.2454 -87.6393 -16.8381
      vertex 39.9202 -87.6393 -31.8986
      vertex 55.7757 -84.7214 -1.77765
    endloop
  endfacet
  facet normal 0.0151216 -0.995959 0.0885233
    outer loop
      vertex -24.3684 -89.4427 -41.2065
      vertex 39.9202 -87.6393 -31.8986
      vertex -48.2454 -87.6393 -16.8381
    endloop
  endfacet
  facet normal 0.0151216 -0.995959 0.0885233
    outer loop
      vertex 39.9202 -87.6393 -31.8986
      vertex -24.3684 -89.4427 -41.2065
      vertex 9.30789 -89.4427 -46.9591
    endloop
  endfacet
  facet normal -0.878094 -0.470228 -0.0885227
    outer loop
      vertex -48.2454 -87.6393 -16.8381
      vertex -101.145 7.63932 1.77765
      vertex -96.1872 4.72136 -31.8986
    endloop
  endfacet
  facet normal -0.878094 -0.470228 -0.0885231
    outer loop
      vertex -53.3907 -72.3607 -46.9591
      vertex -96.1872 4.72136 -31.8986
      vertex -83.0204 -15.2786 -56.267
    endloop
  endfacet
  facet normal -0.878094 -0.470228 -0.088524
    outer loop
      vertex -101.145 7.63932 1.77765
      vertex -48.2454 -87.6393 -16.8381
      vertex -95.9995 -7.63932 31.8986
    endloop
  endfacet
  facet normal -0.878094 -0.470228 -0.0885233
    outer loop
      vertex -53.3907 -72.3607 -46.9591
      vertex -83.0204 -15.2786 -56.267
      vertex -66.6736 -44.7214 -62.0196
    endloop
  endfacet
  facet normal -0.878094 -0.470228 -0.0885234
    outer loop
      vertex -53.203 -84.7214 16.8381
      vertex -95.9995 -7.63932 31.8986
      vertex -48.2454 -87.6393 -16.8381
    endloop
  endfacet
  facet normal -0.878094 -0.470228 -0.0885233
    outer loop
      vertex -96.1872 4.72136 -31.8986
      vertex -53.3907 -72.3607 -46.9591
      vertex -48.2454 -87.6393 -16.8381
    endloop
  endfacet
  facet normal -0.878094 -0.470228 -0.0885235
    outer loop
      vertex -95.9995 -7.63932 31.8986
      vertex -53.203 -84.7214 16.8381
      vertex -82.7167 -35.2786 46.9591
    endloop
  endfacet
  facet normal -0.878094 -0.470228 -0.0885234
    outer loop
      vertex -82.7167 -35.2786 46.9591
      vertex -53.203 -84.7214 16.8381
      vertex -66.3699 -64.7214 41.2065
    endloop
  endfacet
  facet normal -0.0151216 0.995959 -0.0885233
    outer loop
      vertex 24.3684 89.4427 41.2065
      vertex -39.9202 87.6393 31.8986
      vertex -9.30789 89.4427 46.9591
    endloop
  endfacet
  facet normal -0.0151216 0.995959 -0.0885233
    outer loop
      vertex 48.2454 87.6393 16.8381
      vertex -39.9202 87.6393 31.8986
      vertex 24.3684 89.4427 41.2065
    endloop
  endfacet
  facet normal -0.0151216 0.995959 -0.0885234
    outer loop
      vertex 48.2454 87.6393 16.8381
      vertex -55.7757 84.7214 1.77765
      vertex -39.9202 87.6393 31.8986
    endloop
  endfacet
  facet normal -0.0151216 0.995959 -0.0885234
    outer loop
      vertex 53.203 84.7214 -16.8381
      vertex -55.7757 84.7214 1.77765
      vertex 48.2454 87.6393 16.8381
    endloop
  endfacet
  facet normal -0.0151216 0.995959 -0.0885234
    outer loop
      vertex 53.203 84.7214 -16.8381
      vertex -50.8181 81.8034 -31.8986
      vertex -55.7757 84.7214 1.77765
    endloop
  endfacet
  facet normal -0.0151216 0.995959 -0.0885234
    outer loop
      vertex 37.3476 81.8034 -46.9591
      vertex -50.8181 81.8034 -31.8986
      vertex 53.203 84.7214 -16.8381
    endloop
  endfacet
  facet normal -0.0151216 0.995959 -0.0885233
    outer loop
      vertex 37.3476 81.8034 -46.9591
      vertex -26.941 80 -56.267
      vertex -50.8181 81.8034 -31.8986
    endloop
  endfacet
  facet normal -0.0151216 0.995959 -0.0885233
    outer loop
      vertex -26.941 80 -56.267
      vertex 37.3476 81.8034 -46.9591
      vertex 6.73526 80 -62.0196
    endloop
  endfacet
  facet normal 0.798916 -0.470228 -0.37499
    outer loop
      vertex 34.7749 -72.3607 -62.0196
      vertex 95.9995 7.63932 -31.8986
      vertex 101.145 -7.63932 -1.77765
    endloop
  endfacet
  facet normal 0.798916 -0.470228 -0.374991
    outer loop
      vertex 95.9995 7.63932 -31.8986
      vertex 42.3052 -44.7214 -80.6354
      vertex 80.1441 4.72136 -62.0196
    endloop
  endfacet
  facet normal 0.798916 -0.470228 -0.374992
    outer loop
      vertex 39.9202 -87.6393 -31.8986
      vertex 101.145 -7.63932 -1.77765
      vertex 93.6146 -35.2786 16.8381
    endloop
  endfacet
  facet normal 0.798916 -0.470229 -0.37499
    outer loop
      vertex 80.1441 4.72136 -62.0196
      vertex 42.3052 -44.7214 -80.6354
      vertex 59.6347 -15.2786 -80.6354
    endloop
  endfacet
  facet normal 0.798916 -0.470229 -0.37499
    outer loop
      vertex 55.7757 -84.7214 -1.77765
      vertex 93.6146 -35.2786 16.8381
      vertex 76.2851 -64.7214 16.8381
    endloop
  endfacet
  facet normal 0.798916 -0.470228 -0.374991
    outer loop
      vertex 95.9995 7.63932 -31.8986
      vertex 34.7749 -72.3607 -62.0196
      vertex 42.3052 -44.7214 -80.6354
    endloop
  endfacet
  facet normal 0.798916 -0.470228 -0.374991
    outer loop
      vertex 93.6146 -35.2786 16.8381
      vertex 55.7757 -84.7214 -1.77765
      vertex 39.9202 -87.6393 -31.8986
    endloop
  endfacet
  facet normal 0.798916 -0.470228 -0.374991
    outer loop
      vertex 101.145 -7.63932 -1.77765
      vertex 39.9202 -87.6393 -31.8986
      vertex 34.7749 -72.3607 -62.0196
    endloop
  endfacet
  facet normal -0.646337 0.380423 -0.661458
    outer loop
      vertex -50.8181 81.8034 -31.8986
      vertex -13.7742 60 -80.6354
      vertex -16.3468 29.4427 -95.6959
    endloop
  endfacet
  facet normal -0.646337 0.380423 -0.661458
    outer loop
      vertex -76.2851 64.7214 -16.8381
      vertex -16.3468 29.4427 -95.6959
      vertex -33.6763 -0 -95.6959
    endloop
  endfacet
  facet normal -0.646337 0.380423 -0.661458
    outer loop
      vertex -13.7742 60 -80.6354
      vertex -50.8181 81.8034 -31.8986
      vertex -26.941 80 -56.267
    endloop
  endfacet
  facet normal -0.646337 0.380423 -0.661459
    outer loop
      vertex -93.6146 35.2786 -16.8381
      vertex -33.6763 -0 -95.6959
      vertex -59.1433 -17.082 -80.6354
    endloop
  endfacet
  facet normal -0.646337 0.380423 -0.661458
    outer loop
      vertex -16.3468 29.4427 -95.6959
      vertex -76.2851 64.7214 -16.8381
      vertex -50.8181 81.8034 -31.8986
    endloop
  endfacet
  facet normal -0.646337 0.380423 -0.661458
    outer loop
      vertex -96.1872 4.72136 -31.8986
      vertex -59.1433 -17.082 -80.6354
      vertex -83.0204 -15.2786 -56.267
    endloop
  endfacet
  facet normal -0.646337 0.380423 -0.661459
    outer loop
      vertex -33.6763 -0 -95.6959
      vertex -93.6146 35.2786 -16.8381
      vertex -76.2851 64.7214 -16.8381
    endloop
  endfacet
  facet normal -0.646337 0.380422 -0.661458
    outer loop
      vertex -59.1433 -17.082 -80.6354
      vertex -96.1872 4.72136 -31.8986
      vertex -93.6146 35.2786 -16.8381
    endloop
  endfacet
  facet normal 0.390112 0.380423 -0.838505
    outer loop
      vertex 29.0223 -17.082 -95.6959
      vertex 82.7167 35.2786 -46.9591
      vertex 80.1441 4.72136 -62.0196
    endloop
  endfacet
  facet normal 0.390112 0.380423 -0.838505
    outer loop
      vertex 29.0223 -17.082 -95.6959
      vertex 80.1441 4.72136 -62.0196
      vertex 59.6347 -15.2786 -80.6354
    endloop
  endfacet
  facet normal 0.390113 0.380422 -0.838505
    outer loop
      vertex 82.7167 35.2786 -46.9591
      vertex 29.0223 -17.082 -95.6959
      vertex 66.3699 64.7214 -41.2065
    endloop
  endfacet
  facet normal 0.390113 0.380422 -0.838505
    outer loop
      vertex -0 -0 -101.449
      vertex 66.3699 64.7214 -41.2065
      vertex 29.0223 -17.082 -95.6959
    endloop
  endfacet
  facet normal 0.390112 0.380423 -0.838505
    outer loop
      vertex 66.3699 64.7214 -41.2065
      vertex -0 -0 -101.449
      vertex 37.3476 81.8034 -46.9591
    endloop
  endfacet
  facet normal 0.390112 0.380423 -0.838505
    outer loop
      vertex -16.3468 29.4427 -95.6959
      vertex 37.3476 81.8034 -46.9591
      vertex -0 -0 -101.449
    endloop
  endfacet
  facet normal 0.390112 0.380423 -0.838505
    outer loop
      vertex 37.3476 81.8034 -46.9591
      vertex -16.3468 29.4427 -95.6959
      vertex 6.73526 80 -62.0196
    endloop
  endfacet
  facet normal 0.390112 0.380423 -0.838505
    outer loop
      vertex 6.73526 80 -62.0196
      vertex -16.3468 29.4427 -95.6959
      vertex -13.7742 60 -80.6354
    endloop
  endfacet
  facet normal -0.143234 -0.525731 -0.838505
    outer loop
      vertex 34.7749 -72.3607 -62.0196
      vertex 29.0223 -17.082 -95.6959
      vertex 42.3052 -44.7214 -80.6354
    endloop
  endfacet
  facet normal -0.143234 -0.525731 -0.838505
    outer loop
      vertex 9.30789 -89.4427 -46.9591
      vertex 29.0223 -17.082 -95.6959
      vertex 34.7749 -72.3607 -62.0196
    endloop
  endfacet
  facet normal -0.143233 -0.525731 -0.838505
    outer loop
      vertex 9.30789 -89.4427 -46.9591
      vertex -0 -0 -101.449
      vertex 29.0223 -17.082 -95.6959
    endloop
  endfacet
  facet normal -0.143234 -0.525731 -0.838505
    outer loop
      vertex -24.3684 -89.4427 -41.2065
      vertex -0 -0 -101.449
      vertex 9.30789 -89.4427 -46.9591
    endloop
  endfacet
  facet normal -0.143234 -0.525731 -0.838505
    outer loop
      vertex -24.3684 -89.4427 -41.2065
      vertex -33.6763 -0 -95.6959
      vertex -0 -0 -101.449
    endloop
  endfacet
  facet normal -0.143234 -0.525731 -0.838505
    outer loop
      vertex -53.3907 -72.3607 -46.9591
      vertex -33.6763 -0 -95.6959
      vertex -24.3684 -89.4427 -41.2065
    endloop
  endfacet
  facet normal -0.143234 -0.525731 -0.838505
    outer loop
      vertex -53.3907 -72.3607 -46.9591
      vertex -59.1433 -17.082 -80.6354
      vertex -33.6763 -0 -95.6959
    endloop
  endfacet
  facet normal -0.143234 -0.525731 -0.838505
    outer loop
      vertex -59.1433 -17.082 -80.6354
      vertex -53.3907 -72.3607 -46.9591
      vertex -66.6736 -44.7214 -62.0196
    endloop
  endfacet
endsolid OpenSCAD_Model
