solid OpenSCAD_Model
  facet normal 0.707107 0 0.707107
    outer loop
      vertex 0 0 100
      vertex 100 0 0
      vertex 50 50 50
    endloop
  endfacet
  facet normal 0.707107 0 0.707107
    outer loop
      vertex 100 0 0
      vertex 0 0 100
      vertex 50 -50 50
    endloop
  endfacet
  facet normal 0 0.707107 0.707107
    outer loop
      vertex 50 50 50
      vertex -50 50 50
      vertex 0 0 100
    endloop
  endfacet
  facet normal -0 0.707107 0.707107
    outer loop
      vertex -50 50 50
      vertex 50 50 50
      vertex 0 100 0
    endloop
  endfacet
  facet normal -0.707107 0 0.707107
    outer loop
      vertex -100 -0 0
      vertex 0 0 100
      vertex -50 50 50
    endloop
  endfacet
  facet normal -0.707107 0 0.707107
    outer loop
      vertex 0 0 100
      vertex -100 -0 0
      vertex -50 -50 50
    endloop
  endfacet
  facet normal 0 -0.707107 0.707107
    outer loop
      vertex -50 -50 50
      vertex 50 -50 50
      vertex 0 0 100
    endloop
  endfacet
  facet normal 0 -0.707107 0.707107
    outer loop
      vertex 50 -50 50
      vertex -50 -50 50
      vertex -0 -100 0
    endloop
  endfacet
  facet normal 0.707107 0.707107 0
    outer loop
      vertex 50 50 50
      vertex 50 50 -50
      vertex 0 100 0
    endloop
  endfacet
  facet normal 0.707107 0.707107 -0
    outer loop
      vertex 50 50 -50
      vertex 50 50 50
      vertex 100 0 0
    endloop
  endfacet
  facet normal -0.707107 0.707107 0
    outer loop
      vertex -50 50 -50
      vertex -50 50 50
      vertex 0 100 0
    endloop
  endfacet
  facet normal -0.707107 0.707107 0
    outer loop
      vertex -50 50 50
      vertex -50 50 -50
      vertex -100 -0 0
    endloop
  endfacet
  facet normal -0.707107 -0.707107 0
    outer loop
      vertex -50 -50 -50
      vertex -50 -50 50
      vertex -100 -0 0
    endloop
  endfacet
  facet normal -0.707107 -0.707107 -0
    outer loop
      vertex -50 -50 50
      vertex -50 -50 -50
      vertex -0 -100 0
    endloop
  endfacet
  facet normal 0.707107 -0.707107 0
    outer loop
      vertex 50 -50 50
      vertex 50 -50 -50
      vertex 100 0 0
    endloop
  endfacet
  facet normal 0.707107 -0.707107 0
    outer loop
      vertex 50 -50 -50
      vertex 50 -50 50
      vertex -0 -100 0
    endloop
  endfacet
  facet normal 0.707107 0 -0.707107
    outer loop
      vertex 100 0 0
      vertex -0 -0 -100
      vertex 50 50 -50
    endloop
  endfacet
  facet normal 0.707107 0 -0.707107
    outer loop
      vertex -0 -0 -100
      vertex 100 0 0
      vertex 50 -50 -50
    endloop
  endfacet
  facet normal 0 0.707107 -0.707107
    outer loop
      vertex 50 50 -50
      vertex -50 50 -50
      vertex 0 100 0
    endloop
  endfacet
  facet normal 0 0.707107 -0.707107
    outer loop
      vertex -50 50 -50
      vertex 50 50 -50
      vertex -0 -0 -100
    endloop
  endfacet
  facet normal -0.707107 0 -0.707107
    outer loop
      vertex -0 -0 -100
      vertex -100 -0 0
      vertex -50 50 -50
    endloop
  endfacet
  facet normal -0.707107 0 -0.707107
    outer loop
      vertex -100 -0 0
      vertex -0 -0 -100
      vertex -50 -50 -50
    endloop
  endfacet
  facet normal 0 -0.707107 -0.707107
    outer loop
      vertex -50 -50 -50
      vertex 50 -50 -50
      vertex -0 -100 0
    endloop
  endfacet
  facet normal -0 -0.707107 -0.707107
    outer loop
      vertex 50 -50 -50
      vertex -50 -50 -50
      vertex -0 -0 -100
    endloop
  endfacet
endsolid OpenSCAD_Model
