solid OpenSCAD_Model
  facet normal 0.229719 0.137657 0.963473
    outer loop
      vertex 0 0 102.803
      vertex 46.3857 0 91.7434
      vertex 21.8744 40.9041 91.7434
    endloop
  endfacet
  facet normal -0.0130593 0.267488 0.963473
    outer loop
      vertex 0 0 102.803
      vertex 21.8744 40.9041 91.7434
      vertex -25.7549 38.5787 91.7434
    endloop
  endfacet
  facet normal -0.242036 0.114625 0.963473
    outer loop
      vertex 0 0 102.803
      vertex -25.7549 38.5787 91.7434
      vertex -46.1651 -4.5185 91.7434
    endloop
  endfacet
  facet normal -0.215218 -0.15938 0.963473
    outer loop
      vertex 0 0 102.803
      vertex -46.1651 -4.5185 91.7434
      vertex -17.7858 -42.8404 91.7434
    endloop
  endfacet
  facet normal 0.626792 -0.15938 0.762712
    outer loop
      vertex 46.3857 0 91.7434
      vertex 57.2678 -42.8404 73.8484
      vertex 82.594 -4.5185 61.0434
    endloop
  endfacet
  facet normal 0.650726 0.114625 0.750611
    outer loop
      vertex 46.3857 0 91.7434
      vertex 82.594 -4.5185 61.0434
      vertex 64.3795 38.5787 70.2527
    endloop
  endfacet
  facet normal 0.446382 0.267489 0.853928
    outer loop
      vertex 46.3857 0 91.7434
      vertex 64.3795 38.5787 70.2527
      vertex 21.8744 40.9041 91.7434
    endloop
  endfacet
  facet normal 0.407946 0.519772 0.750611
    outer loop
      vertex 21.8744 40.9041 91.7434
      vertex 64.3795 38.5787 70.2527
      vertex 34.9648 74.9643 61.0434
    endloop
  endfacet
  facet normal -0.456638 0.477562 0.750611
    outer loop
      vertex -25.7549 38.5787 91.7434
      vertex -42.1009 71.2018 61.0434
      vertex -67.8314 32.124 70.2527
    endloop
  endfacet
  facet normal -0.470315 0.222734 0.853928
    outer loop
      vertex -25.7549 38.5787 91.7434
      vertex -67.8314 32.124 70.2527
      vertex -46.1651 -4.5185 91.7434
    endloop
  endfacet
  facet normal -0.418202 -0.3097 0.853928
    outer loop
      vertex -46.1651 -4.5185 91.7434
      vertex -60.3154 -44.6666 70.2527
      vertex -17.7858 -42.8404 91.7434
    endloop
  endfacet
  facet normal -0.355374 -0.557039 0.750611
    outer loop
      vertex -17.7858 -42.8404 91.7434
      vertex -60.3154 -44.6666 70.2527
      vertex -27.4961 -78.0138 61.0434
    endloop
  endfacet
  facet normal -0.0931343 -0.639997 0.762712
    outer loop
      vertex -17.7858 -42.8404 91.7434
      vertex -27.4961 -78.0138 61.0434
      vertex 17.6077 -69.3172 73.8484
    endloop
  endfacet
  facet normal 0.427257 -0.639997 0.638635
    outer loop
      vertex 57.2678 -42.8404 73.8484
      vertex 17.6077 -69.3172 73.8484
      vertex 52.0814 -78.0138 42.0698
    endloop
  endfacet
  facet normal 0.655825 -0.557039 0.509511
    outer loop
      vertex 57.2678 -42.8404 73.8484
      vertex 52.0814 -78.0138 42.0698
      vertex 85.5252 -44.6666 35.48
    endloop
  endfacet
  facet normal 0.758511 -0.3097 0.573365
    outer loop
      vertex 57.2678 -42.8404 73.8484
      vertex 85.5252 -44.6666 35.48
      vertex 82.594 -4.5185 61.0434
    endloop
  endfacet
  facet normal 0.906676 -0.177468 0.38268
    outer loop
      vertex 82.594 -4.5185 61.0434
      vertex 85.5252 -44.6666 35.48
      vertex 101.294 -3.5486 17.1878
    endloop
  endfacet
  facet normal 0.57604 0.604849 0.549851
    outer loop
      vertex 64.3795 38.5787 70.2527
      vertex 71.8224 66.1842 32.0887
      vertex 34.9648 74.9643 61.0434
    endloop
  endfacet
  facet normal 0.481666 0.793199 0.372604
    outer loop
      vertex 34.9648 74.9643 61.0434
      vertex 71.8224 66.1842 32.0887
      vertex 36.3369 94.5457 17.585
    endloop
  endfacet
  facet normal 0.224563 0.885764 0.406194
    outer loop
      vertex 34.9648 74.9643 61.0434
      vertex 36.3369 94.5457 17.585
      vertex -4.57409 93.6894 42.0698
    endloop
  endfacet
  facet normal -0.309779 0.859676 0.406194
    outer loop
      vertex -42.1009 71.2018 61.0434
      vertex -4.57409 93.6894 42.0698
      vertex -45.3739 90.5564 17.585
    endloop
  endfacet
  facet normal -0.556642 0.742507 0.372604
    outer loop
      vertex -42.1009 71.2018 61.0434
      vertex -45.3739 90.5564 17.585
      vertex -77.9279 58.8731 32.0887
    endloop
  endfacet
  facet normal -0.632219 0.54586 0.549851
    outer loop
      vertex -42.1009 71.2018 61.0434
      vertex -77.9279 58.8731 32.0887
      vertex -67.8314 32.124 70.2527
    endloop
  endfacet
  facet normal -0.811497 0.355448 0.46382
    outer loop
      vertex -67.8314 32.124 70.2527
      vertex -77.9279 58.8731 32.0887
      vertex -95.3722 14.6222 35.48
    endloop
  endfacet
  facet normal -0.727176 -0.506049 0.46382
    outer loop
      vertex -60.3154 -44.6666 70.2527
      vertex -90.727 -32.837 35.48
      vertex -65.0337 -72.8658 32.0887
    endloop
  endfacet
  facet normal -0.514381 -0.658086 0.549851
    outer loop
      vertex -60.3154 -44.6666 70.2527
      vertex -65.0337 -72.8658 32.0887
      vertex -27.4961 -78.0138 61.0434
    endloop
  endfacet
  facet normal -0.00480914 -0.819286 0.573365
    outer loop
      vertex -27.4961 -78.0138 61.0434
      vertex 8.45948 -96.115 35.48
      vertex 17.6077 -69.3172 73.8484
    endloop
  endfacet
  facet normal 0.262999 -0.819286 0.509511
    outer loop
      vertex 17.6077 -69.3172 73.8484
      vertex 8.45948 -96.115 35.48
      vertex 52.0814 -78.0138 42.0698
    endloop
  endfacet
  facet normal 0.336646 -0.905424 0.258604
    outer loop
      vertex 52.0814 -78.0138 42.0698
      vertex 8.45948 -96.115 35.48
      vertex 39.4915 -94.9126 -0.707256
    endloop
  endfacet
  facet normal 0.943731 -0.300093 0.138983
    outer loop
      vertex 85.5252 -44.6666 35.48
      vertex 93.6047 -40.9557 -11.3698
      vertex 101.294 -3.5486 17.1878
    endloop
  endfacet
  facet normal 0.986702 -0.140713 -0.0813568
    outer loop
      vertex 101.294 -3.5486 17.1878
      vertex 93.6047 -40.9557 -11.3698
      vertex 98.2938 2.69229 -29.9927
    endloop
  endfacet
  facet normal 0.990175 0.132231 -0.0454734
    outer loop
      vertex 101.294 -3.5486 17.1878
      vertex 98.2938 2.69229 -29.9927
      vertex 94.6368 40.1481 -0.707256
    endloop
  endfacet
  facet normal 0.785831 0.61573 0.0578432
    outer loop
      vertex 71.8224 66.1842 32.0887
      vertex 94.6368 40.1481 -0.707256
      vertex 67.0458 76.6283 -14.1937
    endloop
  endfacet
  facet normal 0.58963 0.798798 0.119403
    outer loop
      vertex 71.8224 66.1842 32.0887
      vertex 67.0458 76.6283 -14.1937
      vertex 36.3369 94.5457 17.585
    endloop
  endfacet
  facet normal 0.0900412 0.978666 0.184674
    outer loop
      vertex 36.3369 94.5457 17.585
      vertex -5.00765 102.57 -4.77998
      vertex -4.57409 93.6894 42.0698
    endloop
  endfacet
  facet normal -0.184946 0.965241 0.184674
    outer loop
      vertex -4.57409 93.6894 42.0698
      vertex -5.00765 102.57 -4.77998
      vertex -45.3739 90.5564 17.585
    endloop
  endfacet
  facet normal -0.314073 0.947635 -0.0578431
    outer loop
      vertex -45.3739 90.5564 17.585
      vertex -5.00765 102.57 -4.77998
      vertex -42.9434 88.4578 -29.9927
    endloop
  endfacet
  facet normal -0.905005 0.372508 0.205434
    outer loop
      vertex -77.9279 58.8731 32.0887
      vertex -95.6168 37.1932 -6.52523
      vertex -95.3722 14.6222 35.48
    endloop
  endfacet
  facet normal -0.986702 0.140713 0.0813574
    outer loop
      vertex -95.3722 14.6222 35.48
      vertex -95.6168 37.1932 -6.52523
      vertex -102.204 -10.0034 -4.77998
    endloop
  endfacet
  facet normal -0.970246 -0.0949647 0.222721
    outer loop
      vertex -95.3722 14.6222 35.48
      vertex -102.204 -10.0034 -4.77998
      vertex -90.727 -32.837 35.48
    endloop
  endfacet
  facet normal -0.940693 -0.329361 0.0813573
    outer loop
      vertex -90.727 -32.837 35.48
      vertex -102.204 -10.0034 -4.77998
      vertex -86.5906 -55.0271 -6.52523
    endloop
  endfacet
  facet normal -0.815602 -0.540916 0.205434
    outer loop
      vertex -90.727 -32.837 35.48
      vertex -86.5906 -55.0271 -6.52523
      vertex -65.0337 -72.8658 32.0887
    endloop
  endfacet
  facet normal -0.686206 -0.725838 0.0477671
    outer loop
      vertex -65.0337 -72.8658 32.0887
      vertex -86.5906 -55.0271 -6.52523
      vertex -52.2776 -87.7853 -11.3698
    endloop
  endfacet
  facet normal 0.1383 -0.986666 0.0858136
    outer loop
      vertex 8.45948 -96.115 35.48
      vertex -6.85632 -102.154 -9.27384
      vertex 39.4915 -94.9126 -0.707256
    endloop
  endfacet
  facet normal 0.184947 -0.965241 -0.184674
    outer loop
      vertex 39.4915 -94.9126 -0.707256
      vertex -6.85632 -102.154 -9.27384
      vertex 22.3205 -89.7488 -44.8937
    endloop
  endfacet
  facet normal 0.427289 -0.863793 -0.266994
    outer loop
      vertex 39.4915 -94.9126 -0.707256
      vertex 22.3205 -89.7488 -44.8937
      vertex 65.1544 -72.0095 -33.7347
    endloop
  endfacet
  facet normal 0.802488 -0.489678 -0.340923
    outer loop
      vertex 93.6047 -40.9557 -11.3698
      vertex 65.1544 -72.0095 -33.7347
      vertex 79.6954 -32.5396 -56.1989
    endloop
  endfacet
  facet normal 0.914014 -0.238279 -0.32833
    outer loop
      vertex 93.6047 -40.9557 -11.3698
      vertex 79.6954 -32.5396 -56.1989
      vertex 98.2938 2.69229 -29.9927
    endloop
  endfacet
  facet normal 0.920763 0.292094 -0.258604
    outer loop
      vertex 98.2938 2.69229 -29.9927
      vertex 80.6687 43.9535 -46.1425
      vertex 94.6368 40.1481 -0.707256
    endloop
  endfacet
  facet normal 0.815602 0.540916 -0.205434
    outer loop
      vertex 94.6368 40.1481 -0.707256
      vertex 80.6687 43.9535 -46.1425
      vertex 67.0458 76.6283 -14.1937
    endloop
  endfacet
  facet normal 0.64748 0.653423 -0.392184
    outer loop
      vertex 67.0458 76.6283 -14.1937
      vertex 80.6687 43.9535 -46.1425
      vertex 44.6804 73.5788 -56.1989
    endloop
  endfacet
  facet normal -0.160872 0.944455 -0.286574
    outer loop
      vertex -5.00765 102.57 -4.77998
      vertex 0.14888 89.6115 -50.3809
      vertex -42.9434 88.4578 -29.9927
    endloop
  endfacet
  facet normal -0.262999 0.819286 -0.509511
    outer loop
      vertex -42.9434 88.4578 -29.9927
      vertex 0.14888 89.6115 -50.3809
      vertex -35.354 65.3766 -71.0245
    endloop
  endfacet
  facet normal -0.512521 0.704413 -0.491045
    outer loop
      vertex -42.9434 88.4578 -29.9927
      vertex -35.354 65.3766 -71.0245
      vertex -73.9952 55.4776 -44.8937
    endloop
  endfacet
  facet normal -0.877737 0.348965 -0.32833
    outer loop
      vertex -95.6168 37.1932 -6.52523
      vertex -73.9952 55.4776 -44.8937
      vertex -91.2024 11.022 -46.1425
    endloop
  endfacet
  facet normal -0.972669 0.128597 -0.193333
    outer loop
      vertex -95.6168 37.1932 -6.52523
      vertex -91.2024 11.022 -46.1425
      vertex -102.204 -10.0034 -4.77998
    endloop
  endfacet
  facet normal -0.689256 -0.688691 -0.225014
    outer loop
      vertex -86.5906 -55.0271 -6.52523
      vertex -65.94 -61.828 -48.9664
      vertex -52.2776 -87.7853 -11.3698
    endloop
  endfacet
  facet normal -0.481666 -0.793199 -0.372604
    outer loop
      vertex -52.2776 -87.7853 -11.3698
      vertex -65.94 -61.828 -48.9664
      vertex -24.9065 -86.0809 -50.3809
    endloop
  endfacet
  facet normal -0.282828 -0.928911 -0.239024
    outer loop
      vertex -52.2776 -87.7853 -11.3698
      vertex -24.9065 -86.0809 -50.3809
      vertex -6.85632 -102.154 -9.27384
    endloop
  endfacet
  facet normal -0.031777 -0.935519 -0.351845
    outer loop
      vertex -6.85632 -102.154 -9.27384
      vertex -24.9065 -86.0809 -50.3809
      vertex 22.3205 -89.7488 -44.8937
    endloop
  endfacet
  facet normal 0.439132 -0.73839 -0.511804
    outer loop
      vertex 22.3205 -89.7488 -44.8937
      vertex 43.0105 -57.6499 -73.4512
      vertex 65.1544 -72.0095 -33.7347
    endloop
  endfacet
  facet normal 0.632219 -0.54586 -0.549851
    outer loop
      vertex 65.1544 -72.0095 -33.7347
      vertex 43.0105 -57.6499 -73.4512
      vertex 79.6954 -32.5396 -56.1989
    endloop
  endfacet
  facet normal 0.583157 -0.347449 -0.734307
    outer loop
      vertex 79.6954 -32.5396 -56.1989
      vertex 43.0105 -57.6499 -73.4512
      vertex 50.5758 -13.0528 -88.5449
    endloop
  endfacet
  facet normal 0.594077 0.510711 -0.621487
    outer loop
      vertex 80.6687 43.9535 -46.1425
      vertex 51.1773 34.2225 -82.3297
      vertex 44.6804 73.5788 -56.1989
    endloop
  endfacet
  facet normal 0.355374 0.557039 -0.750611
    outer loop
      vertex 44.6804 73.5788 -56.1989
      vertex 51.1773 34.2225 -82.3297
      vertex 9.73959 57.7194 -84.5109
    endloop
  endfacet
  facet normal 0.183644 0.743444 -0.643091
    outer loop
      vertex 44.6804 73.5788 -56.1989
      vertex 9.73959 57.7194 -84.5109
      vertex 0.14888 89.6115 -50.3809
    endloop
  endfacet
  facet normal -0.0857011 0.71584 -0.692985
    outer loop
      vertex 0.14888 89.6115 -50.3809
      vertex 9.73959 57.7194 -84.5109
      vertex -35.354 65.3766 -71.0245
    endloop
  endfacet
  facet normal -0.570561 0.492623 -0.657102
    outer loop
      vertex -35.354 65.3766 -71.0245
      vertex -60.1895 25.5259 -79.3356
      vertex -73.9952 55.4776 -44.8937
    endloop
  endfacet
  facet normal -0.758511 0.3097 -0.573365
    outer loop
      vertex -73.9952 55.4776 -44.8937
      vertex -60.1895 25.5259 -79.3356
      vertex -91.2024 11.022 -46.1425
    endloop
  endfacet
  facet normal -0.740995 0.0522994 -0.669471
    outer loop
      vertex -91.2024 11.022 -46.1425
      vertex -60.1895 25.5259 -79.3356
      vertex -68.7902 -21.0074 -73.4512
    endloop
  endfacet
  facet normal -0.565835 -0.452812 -0.689051
    outer loop
      vertex -65.94 -61.828 -48.9664
      vertex -68.7902 -21.0074 -73.4512
      vertex -33.4044 -51.7151 -82.3297
    endloop
  endfacet
  facet normal -0.41815 -0.671809 -0.611411
    outer loop
      vertex -65.94 -61.828 -48.9664
      vertex -33.4044 -51.7151 -82.3297
      vertex -24.9065 -86.0809 -50.3809
    endloop
  endfacet
  facet normal 0.343796 -0.352847 -0.870232
    outer loop
      vertex 43.0105 -57.6499 -73.4512
      vertex 8.57063 -34.1438 -96.588
      vertex 50.5758 -13.0528 -88.5449
    endloop
  endfacet
  facet normal 0.242037 -0.114625 -0.963472
    outer loop
      vertex 50.5758 -13.0528 -88.5449
      vertex 8.57063 -34.1438 -96.588
      vertex 12.7735 13.1363 -101.157
    endloop
  endfacet
  facet normal 0.385425 0.115453 -0.915488
    outer loop
      vertex 50.5758 -13.0528 -88.5449
      vertex 12.7735 13.1363 -101.157
      vertex 51.1773 34.2225 -82.3297
    endloop
  endfacet
  facet normal 0.247996 0.353627 -0.901912
    outer loop
      vertex 51.1773 34.2225 -82.3297
      vertex 12.7735 13.1363 -101.157
      vertex 9.73959 57.7194 -84.5109
    endloop
  endfacet
  facet normal -0.536523 -0.00754458 -0.843852
    outer loop
      vertex -60.1895 25.5259 -79.3356
      vertex -30.445 -6.76033 -97.9586
      vertex -68.7902 -21.0074 -73.4512
    endloop
  endfacet
  facet normal -0.446382 -0.267489 -0.853928
    outer loop
      vertex -68.7902 -21.0074 -73.4512
      vertex -30.445 -6.76033 -97.9586
      vertex -33.4044 -51.7151 -82.3297
    endloop
  endfacet
  facet normal -0.186034 -0.311698 -0.931792
    outer loop
      vertex -33.4044 -51.7151 -82.3297
      vertex -30.445 -6.76033 -97.9586
      vertex 8.57063 -34.1438 -96.588
    endloop
  endfacet
  facet normal -0.0306275 -0.0934486 -0.995153
    outer loop
      vertex 8.57063 -34.1438 -96.588
      vertex -30.445 -6.76033 -97.9586
      vertex 12.7735 13.1363 -101.157
    endloop
  endfacet
  facet normal 0.219083 -0.328171 0.918862
    outer loop
      vertex 0 0 102.803
      vertex 57.2678 -42.8404 73.8484
      vertex 46.3857 0 91.7434
    endloop
  endfacet
  facet normal 0.219084 -0.32817 0.918862
    outer loop
      vertex 57.2678 -42.8404 73.8484
      vertex 0 0 102.803
      vertex 17.6077 -69.3172 73.8484
    endloop
  endfacet
  facet normal 0.219085 -0.32817 0.918862
    outer loop
      vertex 17.6077 -69.3172 73.8484
      vertex 0 0 102.803
      vertex -17.7858 -42.8404 91.7434
    endloop
  endfacet
  facet normal -0.0330095 0.676121 0.73605
    outer loop
      vertex -4.57409 93.6894 42.0698
      vertex 21.8744 40.9041 91.7434
      vertex 34.9648 74.9643 61.0434
    endloop
  endfacet
  facet normal -0.0330096 0.676121 0.73605
    outer loop
      vertex -4.57409 93.6894 42.0698
      vertex -25.7549 38.5787 91.7434
      vertex 21.8744 40.9041 91.7434
    endloop
  endfacet
  facet normal -0.0330095 0.676121 0.73605
    outer loop
      vertex -25.7549 38.5787 91.7434
      vertex -4.57409 93.6894 42.0698
      vertex -42.1009 71.2018 61.0434
    endloop
  endfacet
  facet normal -0.763083 -0.0746883 0.641971
    outer loop
      vertex -95.3722 14.6222 35.48
      vertex -46.1651 -4.5185 91.7434
      vertex -67.8314 32.124 70.2527
    endloop
  endfacet
  facet normal -0.763083 -0.0746882 0.641971
    outer loop
      vertex -90.727 -32.837 35.48
      vertex -46.1651 -4.5185 91.7434
      vertex -95.3722 14.6222 35.48
    endloop
  endfacet
  facet normal -0.763083 -0.0746882 0.641971
    outer loop
      vertex -46.1651 -4.5185 91.7434
      vertex -90.727 -32.837 35.48
      vertex -60.3154 -44.6666 70.2527
    endloop
  endfacet
  facet normal 0.878083 0.289734 0.380821
    outer loop
      vertex 64.3795 38.5787 70.2527
      vertex 94.6368 40.1481 -0.707256
      vertex 71.8224 66.1842 32.0887
    endloop
  endfacet
  facet normal 0.878083 0.289734 0.380821
    outer loop
      vertex 64.3795 38.5787 70.2527
      vertex 101.294 -3.5486 17.1878
      vertex 94.6368 40.1481 -0.707256
    endloop
  endfacet
  facet normal 0.878083 0.289734 0.380821
    outer loop
      vertex 101.294 -3.5486 17.1878
      vertex 64.3795 38.5787 70.2527
      vertex 82.594 -4.5185 61.0434
    endloop
  endfacet
  facet normal -0.3032 -0.925102 0.228597
    outer loop
      vertex -65.0337 -72.8658 32.0887
      vertex 8.45948 -96.115 35.48
      vertex -27.4961 -78.0138 61.0434
    endloop
  endfacet
  facet normal -0.3032 -0.925101 0.228598
    outer loop
      vertex -65.0337 -72.8658 32.0887
      vertex -6.85632 -102.154 -9.27384
      vertex 8.45948 -96.115 35.48
    endloop
  endfacet
  facet normal -0.303201 -0.925102 0.228597
    outer loop
      vertex -6.85632 -102.154 -9.27384
      vertex -65.0337 -72.8658 32.0887
      vertex -52.2776 -87.7853 -11.3698
    endloop
  endfacet
  facet normal 0.711096 -0.699876 0.0671973
    outer loop
      vertex 39.4915 -94.9126 -0.707256
      vertex 93.6047 -40.9557 -11.3698
      vertex 85.5252 -44.6666 35.48
    endloop
  endfacet
  facet normal 0.711096 -0.699877 0.0671975
    outer loop
      vertex 39.4915 -94.9126 -0.707256
      vertex 85.5252 -44.6666 35.48
      vertex 52.0814 -78.0138 42.0698
    endloop
  endfacet
  facet normal 0.711096 -0.699876 0.0671978
    outer loop
      vertex 93.6047 -40.9557 -11.3698
      vertex 39.4915 -94.9126 -0.707256
      vertex 65.1544 -72.0095 -33.7347
    endloop
  endfacet
  facet normal 0.3032 0.925102 -0.228597
    outer loop
      vertex 67.0458 76.6283 -14.1937
      vertex -5.00765 102.57 -4.77998
      vertex 36.3369 94.5457 17.585
    endloop
  endfacet
  facet normal 0.3032 0.925102 -0.228597
    outer loop
      vertex 44.6804 73.5788 -56.1989
      vertex -5.00765 102.57 -4.77998
      vertex 67.0458 76.6283 -14.1937
    endloop
  endfacet
  facet normal 0.3032 0.925102 -0.228597
    outer loop
      vertex -5.00765 102.57 -4.77998
      vertex 44.6804 73.5788 -56.1989
      vertex 0.14888 89.6115 -50.3809
    endloop
  endfacet
  facet normal -0.711096 0.699877 -0.0671974
    outer loop
      vertex -95.6168 37.1932 -6.52523
      vertex -45.3739 90.5564 17.585
      vertex -42.9434 88.4578 -29.9927
    endloop
  endfacet
  facet normal -0.711096 0.699877 -0.0671974
    outer loop
      vertex -95.6168 37.1932 -6.52523
      vertex -42.9434 88.4578 -29.9927
      vertex -73.9952 55.4776 -44.8937
    endloop
  endfacet
  facet normal -0.711096 0.699877 -0.0671974
    outer loop
      vertex -45.3739 90.5564 17.585
      vertex -95.6168 37.1932 -6.52523
      vertex -77.9279 58.8731 32.0887
    endloop
  endfacet
  facet normal 0.763083 0.0746884 -0.641971
    outer loop
      vertex 98.2938 2.69229 -29.9927
      vertex 51.1773 34.2225 -82.3297
      vertex 80.6687 43.9535 -46.1425
    endloop
  endfacet
  facet normal 0.763083 0.0746884 -0.641971
    outer loop
      vertex 98.2938 2.69229 -29.9927
      vertex 50.5758 -13.0528 -88.5449
      vertex 51.1773 34.2225 -82.3297
    endloop
  endfacet
  facet normal 0.763083 0.0746882 -0.641971
    outer loop
      vertex 50.5758 -13.0528 -88.5449
      vertex 98.2938 2.69229 -29.9927
      vertex 79.6954 -32.5396 -56.1989
    endloop
  endfacet
  facet normal -0.878083 -0.289734 -0.380821
    outer loop
      vertex -68.7902 -21.0074 -73.4512
      vertex -102.204 -10.0034 -4.77998
      vertex -91.2024 11.022 -46.1425
    endloop
  endfacet
  facet normal -0.878083 -0.289734 -0.380821
    outer loop
      vertex -65.94 -61.828 -48.9664
      vertex -102.204 -10.0034 -4.77998
      vertex -68.7902 -21.0074 -73.4512
    endloop
  endfacet
  facet normal -0.878083 -0.289734 -0.380821
    outer loop
      vertex -102.204 -10.0034 -4.77998
      vertex -65.94 -61.828 -48.9664
      vertex -86.5906 -55.0271 -6.52523
    endloop
  endfacet
  facet normal 0.0330095 -0.676121 -0.73605
    outer loop
      vertex 22.3205 -89.7488 -44.8937
      vertex 8.57063 -34.1438 -96.588
      vertex 43.0105 -57.6499 -73.4512
    endloop
  endfacet
  facet normal 0.0330095 -0.676121 -0.73605
    outer loop
      vertex -24.9065 -86.0809 -50.3809
      vertex 8.57063 -34.1438 -96.588
      vertex 22.3205 -89.7488 -44.8937
    endloop
  endfacet
  facet normal 0.0330093 -0.676121 -0.736051
    outer loop
      vertex 8.57063 -34.1438 -96.588
      vertex -24.9065 -86.0809 -50.3809
      vertex -33.4044 -51.7151 -82.3297
    endloop
  endfacet
  facet normal -0.219084 0.32817 -0.918862
    outer loop
      vertex -35.354 65.3766 -71.0245
      vertex 12.7735 13.1363 -101.157
      vertex -30.445 -6.76033 -97.9586
    endloop
  endfacet
  facet normal -0.219084 0.32817 -0.918862
    outer loop
      vertex 12.7735 13.1363 -101.157
      vertex -35.354 65.3766 -71.0245
      vertex 9.73959 57.7194 -84.5109
    endloop
  endfacet
  facet normal -0.219084 0.32817 -0.918861
    outer loop
      vertex -35.354 65.3766 -71.0245
      vertex -30.445 -6.76033 -97.9586
      vertex -60.1895 25.5259 -79.3356
    endloop
  endfacet
endsolid OpenSCAD_Model
