solid OpenSCAD_Model
  facet normal 0.57735 0.57735 -0.57735
    outer loop
      vertex 100 300 -100
      vertex 300 100 -100
      vertex 100 100 -300
    endloop
  endfacet
  facet normal -0.57735 0.57735 0.57735
    outer loop
      vertex -100 300 100
      vertex -300 100 100
      vertex -100 100 300
    endloop
  endfacet
  facet normal 0.57735 -0.57735 0.57735
    outer loop
      vertex 100 -300 100
      vertex 300 -100 100
      vertex 100 -100 300
    endloop
  endfacet
  facet normal -0.57735 -0.57735 -0.57735
    outer loop
      vertex -100 -300 -100
      vertex -300 -100 -100
      vertex -100 -100 -300
    endloop
  endfacet
  facet normal -0.57735 0.57735 -0.57735
    outer loop
      vertex -300 100 100
      vertex 100 300 -100
      vertex 100 100 -300
    endloop
  endfacet
  facet normal -0.57735 0.57735 -0.57735
    outer loop
      vertex 100 300 -100
      vertex -300 100 100
      vertex -100 300 100
    endloop
  endfacet
  facet normal -0.57735 0.57735 -0.57735
    outer loop
      vertex -300 -100 -100
      vertex 100 100 -300
      vertex -100 -100 -300
    endloop
  endfacet
  facet normal -0.57735 0.57735 -0.57735
    outer loop
      vertex 100 100 -300
      vertex -300 -100 -100
      vertex -300 100 100
    endloop
  endfacet
  facet normal 0.57735 0.57735 0.57735
    outer loop
      vertex 300 100 -100
      vertex -100 300 100
      vertex -100 100 300
    endloop
  endfacet
  facet normal 0.57735 0.57735 0.57735
    outer loop
      vertex -100 300 100
      vertex 300 100 -100
      vertex 100 300 -100
    endloop
  endfacet
  facet normal 0.57735 0.57735 0.57735
    outer loop
      vertex 300 -100 100
      vertex -100 100 300
      vertex 100 -100 300
    endloop
  endfacet
  facet normal 0.57735 0.57735 0.57735
    outer loop
      vertex -100 100 300
      vertex 300 -100 100
      vertex 300 100 -100
    endloop
  endfacet
  facet normal -0.57735 -0.57735 0.57735
    outer loop
      vertex 100 -100 300
      vertex -300 100 100
      vertex -300 -100 -100
    endloop
  endfacet
  facet normal -0.57735 -0.57735 0.57735
    outer loop
      vertex -300 100 100
      vertex 100 -100 300
      vertex -100 100 300
    endloop
  endfacet
  facet normal -0.57735 -0.57735 0.57735
    outer loop
      vertex 100 -300 100
      vertex -300 -100 -100
      vertex -100 -300 -100
    endloop
  endfacet
  facet normal -0.57735 -0.57735 0.57735
    outer loop
      vertex -300 -100 -100
      vertex 100 -300 100
      vertex 100 -100 300
    endloop
  endfacet
  facet normal 0.57735 -0.57735 -0.57735
    outer loop
      vertex -100 -100 -300
      vertex 300 100 -100
      vertex 300 -100 100
    endloop
  endfacet
  facet normal 0.57735 -0.57735 -0.57735
    outer loop
      vertex 300 100 -100
      vertex -100 -100 -300
      vertex 100 100 -300
    endloop
  endfacet
  facet normal 0.57735 -0.57735 -0.57735
    outer loop
      vertex -100 -300 -100
      vertex 300 -100 100
      vertex 100 -300 100
    endloop
  endfacet
  facet normal 0.57735 -0.57735 -0.57735
    outer loop
      vertex 300 -100 100
      vertex -100 -300 -100
      vertex -100 -100 -300
    endloop
  endfacet
endsolid OpenSCAD_Model
