<?xml version="1.0" encoding="UTF-8" standalone="no"?>
<!DOCTYPE svg PUBLIC "-//W3C//DTD SVG 1.1//EN"
 "http://www.w3.org/Graphics/SVG/1.1/DTD/svg11.dtd">
<!-- Generated by graphviz version 2.38.0 (20140413.2041)
 -->
<!-- Title: console.scad Pages: 1 -->
<svg width="520pt" height="207pt"
 viewBox="0.00 0.00 520.00 207.00" xmlns="http://www.w3.org/2000/svg" xmlns:xlink="http://www.w3.org/1999/xlink">
<g id="graph0" class="graph" transform="scale(1 1) rotate(0) translate(4 203)">
<title>console.scad</title>
<polygon fill="white" stroke="none" points="-4,4 -4,-203 516,-203 516,4 -4,4"/>
<!-- Node1 -->
<g id="node1" class="node"><title>Node1</title>
<polygon fill="#bfbfbf" stroke="black" points="202.5,-179.5 202.5,-198.5 276.5,-198.5 276.5,-179.5 202.5,-179.5"/>
<text text-anchor="middle" x="239.5" y="-186.5" font-family="Helvetica,sans-Serif" font-size="10.00">console.scad</text>
</g>
<!-- Node2 -->
<g id="node2" class="node"><title>Node2</title>
<g id="a_node2"><a xlink:href="datatypes__map_8scad.html" target="_top" xlink:title="Map data type operations. ">
<polygon fill="white" stroke="black" points="0,-112.5 0,-142.5 105,-142.5 105,-112.5 0,-112.5"/>
<text text-anchor="start" x="8" y="-130.5" font-family="Helvetica,sans-Serif" font-size="10.00">datatypes/datatypes</text>
<text text-anchor="middle" x="52.5" y="-119.5" font-family="Helvetica,sans-Serif" font-size="10.00">_map.scad</text>
</a>
</g>
</g>
<!-- Node1&#45;&gt;Node2 -->
<g id="edge1" class="edge"><title>Node1&#45;&gt;Node2</title>
<path fill="none" stroke="midnightblue" d="M202.908,-176.357C172.437,-166.662 128.954,-152.826 96.5722,-142.523"/>
<polygon fill="midnightblue" stroke="midnightblue" points="202.117,-179.778 212.707,-179.475 204.239,-173.108 202.117,-179.778"/>
</g>
<!-- Node3 -->
<g id="node3" class="node"><title>Node3</title>
<g id="a_node3"><a xlink:href="datatypes__table_8scad.html" target="_top" xlink:title="Table data type operations. ">
<polygon fill="white" stroke="black" points="123,-112.5 123,-142.5 228,-142.5 228,-112.5 123,-112.5"/>
<text text-anchor="start" x="131" y="-130.5" font-family="Helvetica,sans-Serif" font-size="10.00">datatypes/datatypes</text>
<text text-anchor="middle" x="175.5" y="-119.5" font-family="Helvetica,sans-Serif" font-size="10.00">_table.scad</text>
</a>
</g>
</g>
<!-- Node1&#45;&gt;Node3 -->
<g id="edge2" class="edge"><title>Node1&#45;&gt;Node3</title>
<path fill="none" stroke="midnightblue" d="M222.985,-172.646C212.981,-163.346 200.317,-151.572 190.584,-142.523"/>
<polygon fill="midnightblue" stroke="midnightblue" points="220.623,-175.23 230.33,-179.475 225.39,-170.103 220.623,-175.23"/>
</g>
<!-- Node4 -->
<g id="node4" class="node"><title>Node4</title>
<g id="a_node4"><a xlink:href="tools__utility_8scad.html" target="_top" xlink:title="Shape transformation utility tools. ">
<polygon fill="white" stroke="black" points="246.5,-118 246.5,-137 360.5,-137 360.5,-118 246.5,-118"/>
<text text-anchor="middle" x="303.5" y="-125" font-family="Helvetica,sans-Serif" font-size="10.00">tools/tools_utility.scad</text>
</a>
</g>
</g>
<!-- Node1&#45;&gt;Node4 -->
<g id="edge3" class="edge"><title>Node1&#45;&gt;Node4</title>
<path fill="none" stroke="midnightblue" d="M256.011,-172.65C268.213,-161.306 284.374,-146.281 294.347,-137.009"/>
<polygon fill="midnightblue" stroke="midnightblue" points="253.61,-170.103 248.67,-179.475 258.377,-175.23 253.61,-170.103"/>
</g>
<!-- Node9 -->
<g id="node9" class="node"><title>Node9</title>
<g id="a_node9"><a xlink:href="units__resolution_8scad.html" target="_top" xlink:title="An abstraction for arc rendering resolution control. ">
<polygon fill="white" stroke="black" points="379,-118 379,-137 512,-137 512,-118 379,-118"/>
<text text-anchor="middle" x="445.5" y="-125" font-family="Helvetica,sans-Serif" font-size="10.00">units/units_resolution.scad</text>
</a>
</g>
</g>
<!-- Node1&#45;&gt;Node9 -->
<g id="edge8" class="edge"><title>Node1&#45;&gt;Node9</title>
<path fill="none" stroke="midnightblue" d="M278.706,-176.676C318.734,-165.114 379.964,-147.429 416.04,-137.009"/>
<polygon fill="midnightblue" stroke="midnightblue" points="277.651,-173.338 269.015,-179.475 279.593,-180.063 277.651,-173.338"/>
</g>
<!-- Node5 -->
<g id="node5" class="node"><title>Node5</title>
<g id="a_node5"><a xlink:href="shapes2d_8scad.html" target="_top" xlink:title="Two&#45;dimensional basic shapes. ">
<polygon fill="white" stroke="black" points="245,-56.5 245,-75.5 362,-75.5 362,-56.5 245,-56.5"/>
<text text-anchor="middle" x="303.5" y="-63.5" font-family="Helvetica,sans-Serif" font-size="10.00">shapes/shapes2d.scad</text>
</a>
</g>
</g>
<!-- Node4&#45;&gt;Node5 -->
<g id="edge4" class="edge"><title>Node4&#45;&gt;Node5</title>
<path fill="none" stroke="midnightblue" d="M303.5,-107.817C303.5,-96.9962 303.5,-83.898 303.5,-75.5091"/>
<polygon fill="midnightblue" stroke="midnightblue" points="300,-107.975 303.5,-117.975 307,-107.975 300,-107.975"/>
</g>
<!-- Node6 -->
<g id="node6" class="node"><title>Node6</title>
<g id="a_node6"><a xlink:href="shapes2de_8scad.html" target="_top" xlink:title="Linearly extruded two&#45;dimensional basic shapes. ">
<polygon fill="white" stroke="black" points="104.5,-0.5 104.5,-19.5 226.5,-19.5 226.5,-0.5 104.5,-0.5"/>
<text text-anchor="middle" x="165.5" y="-7.5" font-family="Helvetica,sans-Serif" font-size="10.00">shapes/shapes2de.scad</text>
</a>
</g>
</g>
<!-- Node5&#45;&gt;Node6 -->
<g id="edge5" class="edge"><title>Node5&#45;&gt;Node6</title>
<path fill="none" stroke="midnightblue" d="M272.251,-52.772C246.329,-42.6287 210.138,-28.4669 187.264,-19.5164"/>
<polygon fill="midnightblue" stroke="midnightblue" points="271.046,-56.0588 281.633,-56.4435 273.596,-49.5401 271.046,-56.0588"/>
</g>
<!-- Node7 -->
<g id="node7" class="node"><title>Node7</title>
<g id="a_node7"><a xlink:href="shapes3d_8scad.html" target="_top" xlink:title="Three&#45;dimensional basic shapes. ">
<polygon fill="white" stroke="black" points="245,-0.5 245,-19.5 362,-19.5 362,-0.5 245,-0.5"/>
<text text-anchor="middle" x="303.5" y="-7.5" font-family="Helvetica,sans-Serif" font-size="10.00">shapes/shapes3d.scad</text>
</a>
</g>
</g>
<!-- Node5&#45;&gt;Node7 -->
<g id="edge6" class="edge"><title>Node5&#45;&gt;Node7</title>
<path fill="none" stroke="midnightblue" d="M303.5,-45.8045C303.5,-36.9102 303.5,-26.7798 303.5,-19.7511"/>
<polygon fill="midnightblue" stroke="midnightblue" points="300,-46.083 303.5,-56.083 307,-46.083 300,-46.083"/>
</g>
<!-- Node8 -->
<g id="node8" class="node"><title>Node8</title>
<g id="a_node8"><a xlink:href="tools__edge_8scad.html" target="_top" xlink:title="Shape edge finishing tools. ">
<polygon fill="white" stroke="black" points="380.5,-0.5 380.5,-19.5 492.5,-19.5 492.5,-0.5 380.5,-0.5"/>
<text text-anchor="middle" x="436.5" y="-7.5" font-family="Helvetica,sans-Serif" font-size="10.00">tools/tools_edge.scad</text>
</a>
</g>
</g>
<!-- Node5&#45;&gt;Node8 -->
<g id="edge7" class="edge"><title>Node5&#45;&gt;Node8</title>
<path fill="none" stroke="midnightblue" d="M333.948,-52.6377C358.907,-42.504 393.577,-28.4274 415.524,-19.5164"/>
<polygon fill="midnightblue" stroke="midnightblue" points="332.523,-49.4387 324.574,-56.4435 335.156,-55.9245 332.523,-49.4387"/>
</g>
</g>
</svg>
