solid OpenSCAD_Model
  facet normal 0 -1 0
    outer loop
      vertex -54.1196 -54.1196 0
      vertex 54.1196 -54.1196 0
      vertex -0 -54.1196 54.1196
    endloop
  endfacet
  facet normal -0 -1 0
    outer loop
      vertex 54.1196 -54.1196 0
      vertex -54.1196 -54.1196 0
      vertex -0 -54.1196 -54.1196
    endloop
  endfacet
  facet normal 0.5 -0.707107 0.5
    outer loop
      vertex -0 -54.1196 54.1196
      vertex 92.388 0 38.2683
      vertex 38.2683 0 92.388
    endloop
  endfacet
  facet normal 0.5 -0.707107 0.5
    outer loop
      vertex 92.388 0 38.2683
      vertex -0 -54.1196 54.1196
      vertex 54.1196 -54.1196 0
    endloop
  endfacet
  facet normal 0 -0.57735 0.816497
    outer loop
      vertex -0 -54.1196 54.1196
      vertex 38.2683 0 92.388
      vertex -38.2683 -0 92.388
    endloop
  endfacet
  facet normal -0.5 -0.707107 0.5
    outer loop
      vertex -92.388 -0 38.2683
      vertex -0 -54.1196 54.1196
      vertex -38.2683 -0 92.388
    endloop
  endfacet
  facet normal -0.5 -0.707107 0.5
    outer loop
      vertex -0 -54.1196 54.1196
      vertex -92.388 -0 38.2683
      vertex -54.1196 -54.1196 0
    endloop
  endfacet
  facet normal -0.816497 -0.57735 0
    outer loop
      vertex -54.1196 -54.1196 0
      vertex -92.388 -0 38.2683
      vertex -92.388 -0 -38.2683
    endloop
  endfacet
  facet normal -0.5 -0.707107 -0.5
    outer loop
      vertex -92.388 -0 -38.2683
      vertex -0 -54.1196 -54.1196
      vertex -54.1196 -54.1196 0
    endloop
  endfacet
  facet normal -0.5 -0.707107 -0.5
    outer loop
      vertex -0 -54.1196 -54.1196
      vertex -92.388 -0 -38.2683
      vertex -38.2683 -0 -92.388
    endloop
  endfacet
  facet normal 0 -0.57735 -0.816497
    outer loop
      vertex -0 -54.1196 -54.1196
      vertex -38.2683 -0 -92.388
      vertex 38.2683 0 -92.388
    endloop
  endfacet
  facet normal 0.5 -0.707107 -0.5
    outer loop
      vertex -0 -54.1196 -54.1196
      vertex 92.388 0 -38.2683
      vertex 54.1196 -54.1196 0
    endloop
  endfacet
  facet normal 0.5 -0.707107 -0.5
    outer loop
      vertex 92.388 0 -38.2683
      vertex -0 -54.1196 -54.1196
      vertex 38.2683 0 -92.388
    endloop
  endfacet
  facet normal 0.816497 -0.57735 0
    outer loop
      vertex 54.1196 -54.1196 0
      vertex 92.388 0 -38.2683
      vertex 92.388 0 38.2683
    endloop
  endfacet
  facet normal 0 1 -0
    outer loop
      vertex 38.2683 54.1196 -38.2683
      vertex -38.2683 54.1196 38.2683
      vertex 38.2683 54.1196 38.2683
    endloop
  endfacet
  facet normal 0 1 0
    outer loop
      vertex -38.2683 54.1196 38.2683
      vertex 38.2683 54.1196 -38.2683
      vertex -38.2683 54.1196 -38.2683
    endloop
  endfacet
  facet normal 0 0.707107 0.707107
    outer loop
      vertex 38.2683 54.1196 38.2683
      vertex -38.2683 -0 92.388
      vertex 38.2683 0 92.388
    endloop
  endfacet
  facet normal 0 0.707107 0.707107
    outer loop
      vertex -38.2683 -0 92.388
      vertex 38.2683 54.1196 38.2683
      vertex -38.2683 54.1196 38.2683
    endloop
  endfacet
  facet normal 0.57735 0.57735 0.57735
    outer loop
      vertex 38.2683 54.1196 38.2683
      vertex 38.2683 0 92.388
      vertex 92.388 0 38.2683
    endloop
  endfacet
  facet normal 0.707107 0.707107 0
    outer loop
      vertex 92.388 0 38.2683
      vertex 38.2683 54.1196 -38.2683
      vertex 38.2683 54.1196 38.2683
    endloop
  endfacet
  facet normal 0.707107 0.707107 0
    outer loop
      vertex 38.2683 54.1196 -38.2683
      vertex 92.388 0 38.2683
      vertex 92.388 0 -38.2683
    endloop
  endfacet
  facet normal 0.57735 0.57735 -0.57735
    outer loop
      vertex 38.2683 54.1196 -38.2683
      vertex 92.388 0 -38.2683
      vertex 38.2683 0 -92.388
    endloop
  endfacet
  facet normal 0 0.707107 -0.707107
    outer loop
      vertex 38.2683 0 -92.388
      vertex -38.2683 54.1196 -38.2683
      vertex 38.2683 54.1196 -38.2683
    endloop
  endfacet
  facet normal 0 0.707107 -0.707107
    outer loop
      vertex -38.2683 54.1196 -38.2683
      vertex 38.2683 0 -92.388
      vertex -38.2683 -0 -92.388
    endloop
  endfacet
  facet normal -0.57735 0.57735 -0.57735
    outer loop
      vertex -38.2683 54.1196 -38.2683
      vertex -38.2683 -0 -92.388
      vertex -92.388 -0 -38.2683
    endloop
  endfacet
  facet normal -0.707107 0.707107 0
    outer loop
      vertex -92.388 -0 -38.2683
      vertex -38.2683 54.1196 38.2683
      vertex -38.2683 54.1196 -38.2683
    endloop
  endfacet
  facet normal -0.707107 0.707107 0
    outer loop
      vertex -38.2683 54.1196 38.2683
      vertex -92.388 -0 -38.2683
      vertex -92.388 -0 38.2683
    endloop
  endfacet
  facet normal -0.57735 0.57735 0.57735
    outer loop
      vertex -38.2683 54.1196 38.2683
      vertex -92.388 -0 38.2683
      vertex -38.2683 -0 92.388
    endloop
  endfacet
endsolid OpenSCAD_Model
