<?xml version="1.0" encoding="UTF-8" standalone="no"?>
<!DOCTYPE svg PUBLIC "-//W3C//DTD SVG 1.1//EN"
 "http://www.w3.org/Graphics/SVG/1.1/DTD/svg11.dtd">
<!-- Generated by graphviz version 2.38.0 (20140413.2041)
 -->
<!-- Title: datatypes/datatypes_map.scad Pages: 1 -->
<svg width="859pt" height="162pt"
 viewBox="0.00 0.00 859.00 162.00" xmlns="http://www.w3.org/2000/svg" xmlns:xlink="http://www.w3.org/1999/xlink">
<g id="graph0" class="graph" transform="scale(1 1) rotate(0) translate(4 158)">
<title>datatypes/datatypes_map.scad</title>
<polygon fill="white" stroke="none" points="-4,4 -4,-158 855,-158 855,4 -4,4"/>
<!-- Node1 -->
<g id="node1" class="node"><title>Node1</title>
<polygon fill="#bfbfbf" stroke="black" points="312,-123.5 312,-153.5 417,-153.5 417,-123.5 312,-123.5"/>
<text text-anchor="start" x="320" y="-141.5" font-family="Helvetica,sans-Serif" font-size="10.00">datatypes/datatypes</text>
<text text-anchor="middle" x="364.5" y="-130.5" font-family="Helvetica,sans-Serif" font-size="10.00">_map.scad</text>
</g>
<!-- Node2 -->
<g id="node2" class="node"><title>Node2</title>
<g id="a_node2"><a xlink:href="console_8scad.html" target="_top" xlink:title="Message logging functions. ">
<polygon fill="white" stroke="black" points="279.5,-67.5 279.5,-86.5 353.5,-86.5 353.5,-67.5 279.5,-67.5"/>
<text text-anchor="middle" x="316.5" y="-74.5" font-family="Helvetica,sans-Serif" font-size="10.00">console.scad</text>
</a>
</g>
</g>
<!-- Node1&#45;&gt;Node2 -->
<g id="edge1" class="edge"><title>Node1&#45;&gt;Node2</title>
<path fill="none" stroke="midnightblue" d="M353.125,-123.399C346.15,-114.753 337.186,-103.642 329.872,-94.576"/>
<polygon fill="midnightblue" stroke="midnightblue" points="332.487,-92.2433 323.484,-86.6578 327.039,-96.6385 332.487,-92.2433"/>
</g>
<!-- Node3 -->
<g id="node3" class="node"><title>Node3</title>
<g id="a_node3"><a xlink:href="datatypes_8scad.html" target="_top" xlink:title="Data type identification and operations. ">
<polygon fill="white" stroke="black" points="372,-67.5 372,-86.5 455,-86.5 455,-67.5 372,-67.5"/>
<text text-anchor="middle" x="413.5" y="-74.5" font-family="Helvetica,sans-Serif" font-size="10.00">datatypes.scad</text>
</a>
</g>
</g>
<!-- Node1&#45;&gt;Node3 -->
<g id="edge2" class="edge"><title>Node1&#45;&gt;Node3</title>
<path fill="none" stroke="midnightblue" d="M376.112,-123.399C383.233,-114.753 392.383,-103.642 399.849,-94.576"/>
<polygon fill="midnightblue" stroke="midnightblue" points="402.715,-96.6021 406.37,-86.6578 397.311,-92.1521 402.715,-96.6021"/>
</g>
<!-- Node4 -->
<g id="node4" class="node"><title>Node4</title>
<g id="a_node4"><a xlink:href="constants_8scad.html" target="_top" xlink:title="Design constant definitions. ">
<polygon fill="white" stroke="black" points="0,-6 0,-25 83,-25 83,-6 0,-6"/>
<text text-anchor="middle" x="41.5" y="-13" font-family="Helvetica,sans-Serif" font-size="10.00">constants.scad</text>
</a>
</g>
</g>
<!-- Node3&#45;&gt;Node4 -->
<g id="edge3" class="edge"><title>Node3&#45;&gt;Node4</title>
<path fill="none" stroke="midnightblue" d="M371.775,-68.4877C368.639,-67.9687 365.521,-67.467 362.5,-67 242.424,-48.4381 210.405,-55.9911 91.5,-31 87.1024,-30.0757 82.527,-28.9635 78.0087,-27.7713"/>
<polygon fill="midnightblue" stroke="midnightblue" points="78.8719,-24.3786 68.3,-25.0752 76.9988,-31.1234 78.8719,-24.3786"/>
</g>
<!-- Node5 -->
<g id="node5" class="node"><title>Node5</title>
<g id="a_node5"><a xlink:href="datatypes__identify__scalar_8scad.html" target="_top" xlink:title="Scalar data type identification. ">
<polygon fill="white" stroke="black" points="101,-0.5 101,-30.5 210,-30.5 210,-0.5 101,-0.5"/>
<text text-anchor="start" x="109" y="-18.5" font-family="Helvetica,sans-Serif" font-size="10.00">datatypes/datatypes</text>
<text text-anchor="middle" x="155.5" y="-7.5" font-family="Helvetica,sans-Serif" font-size="10.00">_identify_scalar.scad</text>
</a>
</g>
</g>
<!-- Node3&#45;&gt;Node5 -->
<g id="edge4" class="edge"><title>Node3&#45;&gt;Node5</title>
<path fill="none" stroke="midnightblue" d="M376.535,-67.4751C335.864,-58.0957 269.727,-42.8431 220.379,-31.4623"/>
<polygon fill="midnightblue" stroke="midnightblue" points="220.963,-28.0053 210.432,-29.1685 219.39,-34.8263 220.963,-28.0053"/>
</g>
<!-- Node6 -->
<g id="node6" class="node"><title>Node6</title>
<g id="a_node6"><a xlink:href="datatypes__identify__iterable_8scad.html" target="_top" xlink:title="Iterable data type identification. ">
<polygon fill="white" stroke="black" points="228.5,-0.5 228.5,-30.5 342.5,-30.5 342.5,-0.5 228.5,-0.5"/>
<text text-anchor="start" x="236.5" y="-18.5" font-family="Helvetica,sans-Serif" font-size="10.00">datatypes/datatypes</text>
<text text-anchor="middle" x="285.5" y="-7.5" font-family="Helvetica,sans-Serif" font-size="10.00">_identify_iterable.scad</text>
</a>
</g>
</g>
<!-- Node3&#45;&gt;Node6 -->
<g id="edge5" class="edge"><title>Node3&#45;&gt;Node6</title>
<path fill="none" stroke="midnightblue" d="M395.161,-67.4751C376.934,-59.0024 348.397,-45.7373 325.003,-34.8628"/>
<polygon fill="midnightblue" stroke="midnightblue" points="326.211,-31.5644 315.667,-30.523 323.26,-37.9122 326.211,-31.5644"/>
</g>
<!-- Node7 -->
<g id="node7" class="node"><title>Node7</title>
<g id="a_node7"><a xlink:href="datatypes__identify__list_8scad.html" target="_top" xlink:title="List data type identification. ">
<polygon fill="white" stroke="black" points="361,-0.5 361,-30.5 466,-30.5 466,-0.5 361,-0.5"/>
<text text-anchor="start" x="369" y="-18.5" font-family="Helvetica,sans-Serif" font-size="10.00">datatypes/datatypes</text>
<text text-anchor="middle" x="413.5" y="-7.5" font-family="Helvetica,sans-Serif" font-size="10.00">_identify_list.scad</text>
</a>
</g>
</g>
<!-- Node3&#45;&gt;Node7 -->
<g id="edge6" class="edge"><title>Node3&#45;&gt;Node7</title>
<path fill="none" stroke="midnightblue" d="M413.5,-67.4751C413.5,-60.471 413.5,-50.1919 413.5,-40.6956"/>
<polygon fill="midnightblue" stroke="midnightblue" points="417,-40.5229 413.5,-30.523 410,-40.523 417,-40.5229"/>
</g>
<!-- Node8 -->
<g id="node8" class="node"><title>Node8</title>
<g id="a_node8"><a xlink:href="datatypes__operate__scalar_8scad.html" target="_top" xlink:title="Scalar data type operations. ">
<polygon fill="white" stroke="black" points="484.5,-0.5 484.5,-30.5 594.5,-30.5 594.5,-0.5 484.5,-0.5"/>
<text text-anchor="start" x="492.5" y="-18.5" font-family="Helvetica,sans-Serif" font-size="10.00">datatypes/datatypes</text>
<text text-anchor="middle" x="539.5" y="-7.5" font-family="Helvetica,sans-Serif" font-size="10.00">_operate_scalar.scad</text>
</a>
</g>
</g>
<!-- Node3&#45;&gt;Node8 -->
<g id="edge7" class="edge"><title>Node3&#45;&gt;Node8</title>
<path fill="none" stroke="midnightblue" d="M431.553,-67.4751C449.495,-59.0024 477.586,-45.7373 500.614,-34.8628"/>
<polygon fill="midnightblue" stroke="midnightblue" points="502.256,-37.958 509.804,-30.523 499.267,-31.6282 502.256,-37.958"/>
</g>
<!-- Node9 -->
<g id="node9" class="node"><title>Node9</title>
<g id="a_node9"><a xlink:href="datatypes__operate__iterable_8scad.html" target="_top" xlink:title="Iterable data type operations. ">
<polygon fill="white" stroke="black" points="613,-0.5 613,-30.5 728,-30.5 728,-0.5 613,-0.5"/>
<text text-anchor="start" x="621" y="-18.5" font-family="Helvetica,sans-Serif" font-size="10.00">datatypes/datatypes</text>
<text text-anchor="middle" x="670.5" y="-7.5" font-family="Helvetica,sans-Serif" font-size="10.00">_operate_iterable.scad</text>
</a>
</g>
</g>
<!-- Node3&#45;&gt;Node9 -->
<g id="edge8" class="edge"><title>Node3&#45;&gt;Node9</title>
<path fill="none" stroke="midnightblue" d="M450.322,-67.4751C490.056,-58.276 554.191,-43.4276 603.018,-32.1232"/>
<polygon fill="midnightblue" stroke="midnightblue" points="603.926,-35.5056 612.879,-29.8402 602.347,-28.686 603.926,-35.5056"/>
</g>
<!-- Node10 -->
<g id="node10" class="node"><title>Node10</title>
<g id="a_node10"><a xlink:href="datatypes__operate__list_8scad.html" target="_top" xlink:title="List data type operations. ">
<polygon fill="white" stroke="black" points="746,-0.5 746,-30.5 851,-30.5 851,-0.5 746,-0.5"/>
<text text-anchor="start" x="754" y="-18.5" font-family="Helvetica,sans-Serif" font-size="10.00">datatypes/datatypes</text>
<text text-anchor="middle" x="798.5" y="-7.5" font-family="Helvetica,sans-Serif" font-size="10.00">_operate_list.scad</text>
</a>
</g>
</g>
<!-- Node3&#45;&gt;Node10 -->
<g id="edge9" class="edge"><title>Node3&#45;&gt;Node10</title>
<path fill="none" stroke="midnightblue" d="M455.133,-71.5048C515.132,-64.745 629.559,-50.8026 736.047,-31.1715"/>
<polygon fill="midnightblue" stroke="midnightblue" points="736.807,-34.5903 745.996,-29.3164 735.523,-27.709 736.807,-34.5903"/>
</g>
</g>
</svg>
