<?xml version="1.0" encoding="UTF-8" standalone="no"?>
<!DOCTYPE svg PUBLIC "-//W3C//DTD SVG 1.1//EN"
 "http://www.w3.org/Graphics/SVG/1.1/DTD/svg11.dtd">
<!-- Generated by graphviz version 2.38.0 (20140413.2041)
 -->
<!-- Title: datatypes/datatypes_operate_list.scad Pages: 1 -->
<svg width="698pt" height="330pt"
 viewBox="0.00 0.00 698.00 330.00" xmlns="http://www.w3.org/2000/svg" xmlns:xlink="http://www.w3.org/1999/xlink">
<g id="graph0" class="graph" transform="scale(1 1) rotate(0) translate(4 326)">
<title>datatypes/datatypes_operate_list.scad</title>
<polygon fill="white" stroke="none" points="-4,4 -4,-326 694,-326 694,4 -4,4"/>
<!-- Node1 -->
<g id="node1" class="node"><title>Node1</title>
<polygon fill="#bfbfbf" stroke="black" points="223.5,-291.5 223.5,-321.5 328.5,-321.5 328.5,-291.5 223.5,-291.5"/>
<text text-anchor="start" x="231.5" y="-309.5" font-family="Helvetica,sans-Serif" font-size="10.00">datatypes/datatypes</text>
<text text-anchor="middle" x="276" y="-298.5" font-family="Helvetica,sans-Serif" font-size="10.00">_operate_list.scad</text>
</g>
<!-- Node2 -->
<g id="node2" class="node"><title>Node2</title>
<g id="a_node2"><a xlink:href="datatypes_8scad.html" target="_top" xlink:title="Data type identification and operations. ">
<polygon fill="white" stroke="black" points="234.5,-235.5 234.5,-254.5 317.5,-254.5 317.5,-235.5 234.5,-235.5"/>
<text text-anchor="middle" x="276" y="-242.5" font-family="Helvetica,sans-Serif" font-size="10.00">datatypes.scad</text>
</a>
</g>
</g>
<!-- Node1&#45;&gt;Node2 -->
<g id="edge1" class="edge"><title>Node1&#45;&gt;Node2</title>
<path fill="none" stroke="midnightblue" d="M276,-281.289C276,-271.857 276,-261.655 276,-254.658"/>
<polygon fill="midnightblue" stroke="midnightblue" points="272.5,-281.399 276,-291.399 279.5,-281.399 272.5,-281.399"/>
</g>
<!-- Node3 -->
<g id="node3" class="node"><title>Node3</title>
<g id="a_node3"><a xlink:href="validation_8scad.html" target="_top" xlink:title="Function validation methods. ">
<polygon fill="white" stroke="black" points="0,-174 0,-193 82,-193 82,-174 0,-174"/>
<text text-anchor="middle" x="41" y="-181" font-family="Helvetica,sans-Serif" font-size="10.00">validation.scad</text>
</a>
</g>
</g>
<!-- Node2&#45;&gt;Node3 -->
<g id="edge2" class="edge"><title>Node2&#45;&gt;Node3</title>
<path fill="none" stroke="midnightblue" d="M229.181,-233.057C191.921,-224.226 138.498,-211.291 92,-199 84.9695,-197.142 77.4214,-195.049 70.3446,-193.044"/>
<polygon fill="midnightblue" stroke="midnightblue" points="228.705,-236.541 239.242,-235.435 230.315,-229.728 228.705,-236.541"/>
</g>
<!-- Node4 -->
<g id="node4" class="node"><title>Node4</title>
<g id="a_node4"><a xlink:href="datatypes__map_8scad.html" target="_top" xlink:title="Map data type operations. ">
<polygon fill="white" stroke="black" points="100.5,-168.5 100.5,-198.5 205.5,-198.5 205.5,-168.5 100.5,-168.5"/>
<text text-anchor="start" x="108.5" y="-186.5" font-family="Helvetica,sans-Serif" font-size="10.00">datatypes/datatypes</text>
<text text-anchor="middle" x="153" y="-175.5" font-family="Helvetica,sans-Serif" font-size="10.00">_map.scad</text>
</a>
</g>
</g>
<!-- Node2&#45;&gt;Node4 -->
<g id="edge3" class="edge"><title>Node2&#45;&gt;Node4</title>
<path fill="none" stroke="midnightblue" d="M249.27,-231.07C229.416,-221.465 202.362,-208.378 181.989,-198.523"/>
<polygon fill="midnightblue" stroke="midnightblue" points="247.851,-234.271 258.377,-235.475 250.899,-227.97 247.851,-234.271"/>
</g>
<!-- Node5 -->
<g id="node5" class="node"><title>Node5</title>
<g id="a_node5"><a xlink:href="datatypes__table_8scad.html" target="_top" xlink:title="Table data type operations. ">
<polygon fill="white" stroke="black" points="223.5,-168.5 223.5,-198.5 328.5,-198.5 328.5,-168.5 223.5,-168.5"/>
<text text-anchor="start" x="231.5" y="-186.5" font-family="Helvetica,sans-Serif" font-size="10.00">datatypes/datatypes</text>
<text text-anchor="middle" x="276" y="-175.5" font-family="Helvetica,sans-Serif" font-size="10.00">_table.scad</text>
</a>
</g>
</g>
<!-- Node2&#45;&gt;Node5 -->
<g id="edge4" class="edge"><title>Node2&#45;&gt;Node5</title>
<path fill="none" stroke="midnightblue" d="M276,-225.235C276,-216.586 276,-206.497 276,-198.523"/>
<polygon fill="midnightblue" stroke="midnightblue" points="272.5,-225.475 276,-235.475 279.5,-225.475 272.5,-225.475"/>
</g>
<!-- Node6 -->
<g id="node6" class="node"><title>Node6</title>
<g id="a_node6"><a xlink:href="math_8scad.html" target="_top" xlink:title="Mathematical function primitives. ">
<polygon fill="white" stroke="black" points="347,-174 347,-193 409,-193 409,-174 347,-174"/>
<text text-anchor="middle" x="378" y="-181" font-family="Helvetica,sans-Serif" font-size="10.00">math.scad</text>
</a>
</g>
</g>
<!-- Node2&#45;&gt;Node6 -->
<g id="edge5" class="edge"><title>Node2&#45;&gt;Node6</title>
<path fill="none" stroke="midnightblue" d="M299.313,-230.401C319.036,-218.896 346.686,-202.767 363.413,-193.009"/>
<polygon fill="midnightblue" stroke="midnightblue" points="297.488,-227.413 290.614,-235.475 301.015,-233.46 297.488,-227.413"/>
</g>
<!-- Node15 -->
<g id="node15" class="node"><title>Node15</title>
<g id="a_node15"><a xlink:href="math__bitwise_8scad.html" target="_top" xlink:title="Mathematical base&#45;two bitwise binary functions. ">
<polygon fill="white" stroke="black" points="437.5,-174 437.5,-193 560.5,-193 560.5,-174 437.5,-174"/>
<text text-anchor="middle" x="499" y="-181" font-family="Helvetica,sans-Serif" font-size="10.00">math/math_bitwise.scad</text>
</a>
</g>
</g>
<!-- Node2&#45;&gt;Node15 -->
<g id="edge15" class="edge"><title>Node2&#45;&gt;Node15</title>
<path fill="none" stroke="midnightblue" d="M317.618,-232.896C360.929,-221.34 427.808,-203.495 467.109,-193.009"/>
<polygon fill="midnightblue" stroke="midnightblue" points="316.71,-229.515 307.95,-235.475 318.515,-236.279 316.71,-229.515"/>
</g>
<!-- Node7 -->
<g id="node7" class="node"><title>Node7</title>
<g id="a_node7"><a xlink:href="math__polytope_8scad.html" target="_top" xlink:title="Polygon and polyhedron mathematical functions. ">
<polygon fill="white" stroke="black" points="165.5,-112.5 165.5,-131.5 294.5,-131.5 294.5,-112.5 165.5,-112.5"/>
<text text-anchor="middle" x="230" y="-119.5" font-family="Helvetica,sans-Serif" font-size="10.00">math/math_polytope.scad</text>
</a>
</g>
</g>
<!-- Node6&#45;&gt;Node7 -->
<g id="edge6" class="edge"><title>Node6&#45;&gt;Node7</title>
<path fill="none" stroke="midnightblue" d="M347.234,-170.131C318.481,-158.572 276.315,-141.62 251.165,-131.509"/>
<polygon fill="midnightblue" stroke="midnightblue" points="346.211,-173.492 356.795,-173.975 348.822,-166.998 346.211,-173.492"/>
</g>
<!-- Node9 -->
<g id="node9" class="node"><title>Node9</title>
<g id="a_node9"><a xlink:href="tools__utility_8scad.html" target="_top" xlink:title="Shape transformation utility tools. ">
<polygon fill="white" stroke="black" points="442,-112.5 442,-131.5 556,-131.5 556,-112.5 442,-112.5"/>
<text text-anchor="middle" x="499" y="-119.5" font-family="Helvetica,sans-Serif" font-size="10.00">tools/tools_utility.scad</text>
</a>
</g>
</g>
<!-- Node6&#45;&gt;Node9 -->
<g id="edge8" class="edge"><title>Node6&#45;&gt;Node9</title>
<path fill="none" stroke="midnightblue" d="M404.395,-169.521C427.861,-157.982 461.493,-141.443 481.696,-131.509"/>
<polygon fill="midnightblue" stroke="midnightblue" points="402.766,-166.422 395.336,-173.975 405.855,-172.703 402.766,-166.422"/>
</g>
<!-- Node14 -->
<g id="node14" class="node"><title>Node14</title>
<g id="a_node14"><a xlink:href="tools__align_8scad.html" target="_top" xlink:title="Shape alignment tools. ">
<polygon fill="white" stroke="black" points="312.5,-112.5 312.5,-131.5 423.5,-131.5 423.5,-112.5 312.5,-112.5"/>
<text text-anchor="middle" x="368" y="-119.5" font-family="Helvetica,sans-Serif" font-size="10.00">tools/tools_align.scad</text>
</a>
</g>
</g>
<!-- Node6&#45;&gt;Node14 -->
<g id="edge13" class="edge"><title>Node6&#45;&gt;Node14</title>
<path fill="none" stroke="midnightblue" d="M374.86,-163.817C373.041,-152.996 370.84,-139.898 369.43,-131.509"/>
<polygon fill="midnightblue" stroke="midnightblue" points="371.458,-164.694 376.567,-173.975 378.361,-163.533 371.458,-164.694"/>
</g>
<!-- Node8 -->
<g id="node8" class="node"><title>Node8</title>
<g id="a_node8"><a xlink:href="tools__polytope_8scad.html" target="_top" xlink:title="Polygon and polyhedron tools. ">
<polygon fill="white" stroke="black" points="230,-56.5 230,-75.5 358,-75.5 358,-56.5 230,-56.5"/>
<text text-anchor="middle" x="294" y="-63.5" font-family="Helvetica,sans-Serif" font-size="10.00">tools/tools_polytope.scad</text>
</a>
</g>
</g>
<!-- Node7&#45;&gt;Node8 -->
<g id="edge7" class="edge"><title>Node7&#45;&gt;Node8</title>
<path fill="none" stroke="midnightblue" d="M247.991,-105.82C259.458,-96.1452 273.913,-83.9481 283.53,-75.8339"/>
<polygon fill="midnightblue" stroke="midnightblue" points="245.669,-103.2 240.283,-112.324 250.183,-108.55 245.669,-103.2"/>
</g>
<!-- Node10 -->
<g id="node10" class="node"><title>Node10</title>
<g id="a_node10"><a xlink:href="shapes2d_8scad.html" target="_top" xlink:title="Two&#45;dimensional basic shapes. ">
<polygon fill="white" stroke="black" points="440.5,-56.5 440.5,-75.5 557.5,-75.5 557.5,-56.5 440.5,-56.5"/>
<text text-anchor="middle" x="499" y="-63.5" font-family="Helvetica,sans-Serif" font-size="10.00">shapes/shapes2d.scad</text>
</a>
</g>
</g>
<!-- Node9&#45;&gt;Node10 -->
<g id="edge9" class="edge"><title>Node9&#45;&gt;Node10</title>
<path fill="none" stroke="midnightblue" d="M499,-101.805C499,-92.9102 499,-82.7798 499,-75.7511"/>
<polygon fill="midnightblue" stroke="midnightblue" points="495.5,-102.083 499,-112.083 502.5,-102.083 495.5,-102.083"/>
</g>
<!-- Node11 -->
<g id="node11" class="node"><title>Node11</title>
<g id="a_node11"><a xlink:href="shapes2de_8scad.html" target="_top" xlink:title="Linearly extruded two&#45;dimensional basic shapes. ">
<polygon fill="white" stroke="black" points="300,-0.5 300,-19.5 422,-19.5 422,-0.5 300,-0.5"/>
<text text-anchor="middle" x="361" y="-7.5" font-family="Helvetica,sans-Serif" font-size="10.00">shapes/shapes2de.scad</text>
</a>
</g>
</g>
<!-- Node10&#45;&gt;Node11 -->
<g id="edge10" class="edge"><title>Node10&#45;&gt;Node11</title>
<path fill="none" stroke="midnightblue" d="M467.751,-52.772C441.829,-42.6287 405.638,-28.4669 382.764,-19.5164"/>
<polygon fill="midnightblue" stroke="midnightblue" points="466.546,-56.0588 477.133,-56.4435 469.096,-49.5401 466.546,-56.0588"/>
</g>
<!-- Node12 -->
<g id="node12" class="node"><title>Node12</title>
<g id="a_node12"><a xlink:href="shapes3d_8scad.html" target="_top" xlink:title="Three&#45;dimensional basic shapes. ">
<polygon fill="white" stroke="black" points="440.5,-0.5 440.5,-19.5 557.5,-19.5 557.5,-0.5 440.5,-0.5"/>
<text text-anchor="middle" x="499" y="-7.5" font-family="Helvetica,sans-Serif" font-size="10.00">shapes/shapes3d.scad</text>
</a>
</g>
</g>
<!-- Node10&#45;&gt;Node12 -->
<g id="edge11" class="edge"><title>Node10&#45;&gt;Node12</title>
<path fill="none" stroke="midnightblue" d="M499,-45.8045C499,-36.9102 499,-26.7798 499,-19.7511"/>
<polygon fill="midnightblue" stroke="midnightblue" points="495.5,-46.083 499,-56.083 502.5,-46.083 495.5,-46.083"/>
</g>
<!-- Node13 -->
<g id="node13" class="node"><title>Node13</title>
<g id="a_node13"><a xlink:href="tools__edge_8scad.html" target="_top" xlink:title="Shape edge finishing tools. ">
<polygon fill="white" stroke="black" points="576,-0.5 576,-19.5 688,-19.5 688,-0.5 576,-0.5"/>
<text text-anchor="middle" x="632" y="-7.5" font-family="Helvetica,sans-Serif" font-size="10.00">tools/tools_edge.scad</text>
</a>
</g>
</g>
<!-- Node10&#45;&gt;Node13 -->
<g id="edge12" class="edge"><title>Node10&#45;&gt;Node13</title>
<path fill="none" stroke="midnightblue" d="M529.448,-52.6377C554.407,-42.504 589.077,-28.4274 611.024,-19.5164"/>
<polygon fill="midnightblue" stroke="midnightblue" points="528.023,-49.4387 520.074,-56.4435 530.656,-55.9245 528.023,-49.4387"/>
</g>
<!-- Node14&#45;&gt;Node8 -->
<g id="edge14" class="edge"><title>Node14&#45;&gt;Node8</title>
<path fill="none" stroke="midnightblue" d="M347.966,-106.38C334.591,-96.6204 317.441,-84.1057 306.106,-75.8339"/>
<polygon fill="midnightblue" stroke="midnightblue" points="345.97,-109.257 356.111,-112.324 350.096,-103.602 345.97,-109.257"/>
</g>
<!-- Node15&#45;&gt;Node9 -->
<g id="edge17" class="edge"><title>Node15&#45;&gt;Node9</title>
<path fill="none" stroke="midnightblue" d="M499,-163.817C499,-152.996 499,-139.898 499,-131.509"/>
<polygon fill="midnightblue" stroke="midnightblue" points="495.5,-163.975 499,-173.975 502.5,-163.975 495.5,-163.975"/>
</g>
<!-- Node16 -->
<g id="node16" class="node"><title>Node16</title>
<g id="a_node16"><a xlink:href="math__utility_8scad.html" target="_top" xlink:title="Miscellaneous mathematical utilities. ">
<polygon fill="white" stroke="black" points="574,-112.5 574,-131.5 690,-131.5 690,-112.5 574,-112.5"/>
<text text-anchor="middle" x="632" y="-119.5" font-family="Helvetica,sans-Serif" font-size="10.00">math/math_utility.scad</text>
</a>
</g>
</g>
<!-- Node15&#45;&gt;Node16 -->
<g id="edge16" class="edge"><title>Node15&#45;&gt;Node16</title>
<path fill="none" stroke="midnightblue" d="M527.327,-169.827C553.147,-158.276 590.576,-141.532 612.98,-131.509"/>
<polygon fill="midnightblue" stroke="midnightblue" points="525.755,-166.697 518.056,-173.975 528.613,-173.086 525.755,-166.697"/>
</g>
</g>
</svg>
