solid OpenSCAD_Model
  facet normal 0.506732 -0.506732 -0.697457
    outer loop
      vertex -9.88e-06 -100 -8.837e-06
      vertex 0 1.08263e-06 -72.6543
      vertex 69.0983 9.1e-08 -22.4514
    endloop
  endfacet
  facet normal -0.506732 -0.506732 -0.697457
    outer loop
      vertex -9.88e-06 -100 -8.837e-06
      vertex -69.0983 8.787e-06 -22.4514
      vertex 0 1.08263e-06 -72.6543
    endloop
  endfacet
  facet normal 0.506732 0.506732 -0.697457
    outer loop
      vertex 0 1.08263e-06 -72.6543
      vertex 0 100 0
      vertex 69.0983 9.1e-08 -22.4514
    endloop
  endfacet
  facet normal 0.819909 -0.506732 0.266405
    outer loop
      vertex 69.0983 9.1e-08 -22.4514
      vertex 42.7051 -4.706e-06 58.7785
      vertex -9.88e-06 -100 -8.837e-06
    endloop
  endfacet
  facet normal -0.506732 0.506732 -0.697457
    outer loop
      vertex 0 1.08263e-06 -72.6543
      vertex -69.0983 8.787e-06 -22.4514
      vertex 0 100 0
    endloop
  endfacet
  facet normal -0.81991 -0.506732 0.266404
    outer loop
      vertex -69.0983 8.787e-06 -22.4514
      vertex -9.88e-06 -100 -8.837e-06
      vertex -42.7051 -1.253e-06 58.7785
    endloop
  endfacet
  facet normal 0.819909 0.506732 0.266405
    outer loop
      vertex 69.0983 9.1e-08 -22.4514
      vertex 0 100 0
      vertex 42.7051 -4.706e-06 58.7785
    endloop
  endfacet
  facet normal -9.74951e-08 -0.506732 0.862104
    outer loop
      vertex -9.88e-06 -100 -8.837e-06
      vertex 42.7051 -4.706e-06 58.7785
      vertex -42.7051 -1.253e-06 58.7785
    endloop
  endfacet
  facet normal -0.819909 0.506732 0.266404
    outer loop
      vertex -69.0983 8.787e-06 -22.4514
      vertex -42.7051 -1.253e-06 58.7785
      vertex 0 100 0
    endloop
  endfacet
  facet normal -5.65223e-08 0.506732 0.862104
    outer loop
      vertex 0 100 0
      vertex -42.7051 -1.253e-06 58.7785
      vertex 42.7051 -4.706e-06 58.7785
    endloop
  endfacet
endsolid OpenSCAD_Model
