solid OpenSCAD_Model
  facet normal -0.025409 -0.357407 0.933603
    outer loop
      vertex -0 -100 0
      vertex 14.8043 5.3e-06 38.6854
      vertex -16.8865 1.992e-06 37.8229
    endloop
  endfacet
  facet normal 0.64219 -0.357407 0.678124
    outer loop
      vertex -0 -100 0
      vertex 37.8229 1.75e-06 16.8865
      vertex 14.8043 5.3e-06 38.6854
    endloop
  endfacet
  facet normal -0.0254091 0.357407 0.933603
    outer loop
      vertex 14.8043 5.3e-06 38.6854
      vertex 0 100 0
      vertex -16.8865 1.992e-06 37.8229
    endloop
  endfacet
  facet normal -0.678124 -0.357407 0.64219
    outer loop
      vertex -16.8865 1.992e-06 37.8229
      vertex -38.6854 -4.93e-07 14.8043
      vertex -0 -100 0
    endloop
  endfacet
  facet normal 0.64219 0.357407 0.678124
    outer loop
      vertex 14.8043 5.3e-06 38.6854
      vertex 37.8229 1.75e-06 16.8865
      vertex 0 100 0
    endloop
  endfacet
  facet normal 0.933603 -0.357407 0.0254091
    outer loop
      vertex 37.8229 1.75e-06 16.8865
      vertex -0 -100 0
      vertex 38.6854 4.93e-07 -14.8043
    endloop
  endfacet
  facet normal -0.678124 0.357407 0.64219
    outer loop
      vertex -16.8865 1.992e-06 37.8229
      vertex 0 100 0
      vertex -38.6854 -4.93e-07 14.8043
    endloop
  endfacet
  facet normal -0.933603 -0.357407 -0.0254091
    outer loop
      vertex -0 -100 0
      vertex -38.6854 -4.93e-07 14.8043
      vertex -37.8229 -1.75e-06 -16.8865
    endloop
  endfacet
  facet normal 0.933603 0.357407 0.0254091
    outer loop
      vertex 37.8229 1.75e-06 16.8865
      vertex 38.6854 4.93e-07 -14.8043
      vertex 0 100 0
    endloop
  endfacet
  facet normal 0.678124 -0.357407 -0.64219
    outer loop
      vertex -0 -100 0
      vertex 16.8865 -1.992e-06 -37.8229
      vertex 38.6854 4.93e-07 -14.8043
    endloop
  endfacet
  facet normal -0.933603 0.357407 -0.0254091
    outer loop
      vertex 0 100 0
      vertex -37.8229 -1.75e-06 -16.8865
      vertex -38.6854 -4.93e-07 14.8043
    endloop
  endfacet
  facet normal -0.64219 -0.357407 -0.678124
    outer loop
      vertex -37.8229 -1.75e-06 -16.8865
      vertex -14.8043 -5.3e-06 -38.6854
      vertex -0 -100 0
    endloop
  endfacet
  facet normal 0.678124 0.357407 -0.64219
    outer loop
      vertex 0 100 0
      vertex 38.6854 4.93e-07 -14.8043
      vertex 16.8865 -1.992e-06 -37.8229
    endloop
  endfacet
  facet normal 0.0254091 -0.357407 -0.933603
    outer loop
      vertex 16.8865 -1.992e-06 -37.8229
      vertex -0 -100 0
      vertex -14.8043 -5.3e-06 -38.6854
    endloop
  endfacet
  facet normal -0.64219 0.357407 -0.678124
    outer loop
      vertex -37.8229 -1.75e-06 -16.8865
      vertex 0 100 0
      vertex -14.8043 -5.3e-06 -38.6854
    endloop
  endfacet
  facet normal 0.025409 0.357407 -0.933603
    outer loop
      vertex 16.8865 -1.992e-06 -37.8229
      vertex -14.8043 -5.3e-06 -38.6854
      vertex 0 100 0
    endloop
  endfacet
endsolid OpenSCAD_Model
