solid OpenSCAD_Model
  facet normal -0.816497 0.57735 0
    outer loop
      vertex -70.7107 -0 -70.7107
      vertex -70.7107 -0 70.7107
      vertex 0 100 0
    endloop
  endfacet
  facet normal -0 0.57735 -0.816497
    outer loop
      vertex 70.7107 0 -70.7107
      vertex -70.7107 -0 -70.7107
      vertex 0 100 0
    endloop
  endfacet
  facet normal 0.816497 0.57735 0
    outer loop
      vertex 70.7107 0 70.7107
      vertex 70.7107 0 -70.7107
      vertex 0 100 0
    endloop
  endfacet
  facet normal -0 0.57735 0.816497
    outer loop
      vertex -70.7107 -0 70.7107
      vertex 70.7107 0 70.7107
      vertex 0 100 0
    endloop
  endfacet
  facet normal -0.816497 -0.57735 -0
    outer loop
      vertex -70.7107 -0 70.7107
      vertex -70.7107 -0 -70.7107
      vertex -0 -100 0
    endloop
  endfacet
  facet normal 0 -0.57735 -0.816497
    outer loop
      vertex -70.7107 -0 -70.7107
      vertex 70.7107 0 -70.7107
      vertex -0 -100 0
    endloop
  endfacet
  facet normal 0.816497 -0.57735 0
    outer loop
      vertex 70.7107 0 -70.7107
      vertex 70.7107 0 70.7107
      vertex -0 -100 0
    endloop
  endfacet
  facet normal 0 -0.57735 0.816497
    outer loop
      vertex 70.7107 0 70.7107
      vertex -70.7107 -0 70.7107
      vertex -0 -100 0
    endloop
  endfacet
endsolid OpenSCAD_Model
