<?xml version="1.0" encoding="UTF-8" standalone="no"?>
<!DOCTYPE svg PUBLIC "-//W3C//DTD SVG 1.1//EN"
 "http://www.w3.org/Graphics/SVG/1.1/DTD/svg11.dtd">
<!-- Generated by graphviz version 2.38.0 (20140413.2041)
 -->
<!-- Title: Tools Pages: 1 -->
<svg width="233pt" height="284pt"
 viewBox="0.00 0.00 233.00 283.51" xmlns="http://www.w3.org/2000/svg" xmlns:xlink="http://www.w3.org/1999/xlink">
<g id="graph0" class="graph" transform="scale(1 1) rotate(0) translate(4 279.508)">
<title>Tools</title>
<polygon fill="white" stroke="none" points="-4,4 -4,-279.508 229,-279.508 229,4 -4,4"/>
<!-- Node4 -->
<g id="node1" class="node"><title>Node4</title>
<g id="a_node1"><a xlink:href="group__tools__extrude.html" target="_top" xlink:title="Shape extrusion tools. ">
<polygon fill="white" stroke="black" points="170,-250.884 170,-269.884 220,-269.884 220,-250.884 170,-250.884"/>
<text text-anchor="middle" x="195" y="-257.884" font-family="Helvetica,sans-Serif" font-size="10.00">Extrude</text>
</a>
</g>
</g>
<!-- Node3 -->
<g id="node2" class="node"><title>Node3</title>
<g id="a_node2"><a xlink:href="group__tools__polytope.html" target="_top" xlink:title="Polygon and polyhedron tools. ">
<polygon fill="white" stroke="black" points="167.5,-191.884 167.5,-210.884 222.5,-210.884 222.5,-191.884 167.5,-191.884"/>
<text text-anchor="middle" x="195" y="-198.884" font-family="Helvetica,sans-Serif" font-size="10.00">Polytope</text>
</a>
</g>
</g>
<!-- Node1 -->
<g id="node3" class="node"><title>Node1</title>
<g id="a_node3"><a xlink:href="group__tools__align.html" target="_top" xlink:title="Shape alignment tools. ">
<polygon fill="white" stroke="black" points="165,-132.884 165,-151.884 225,-151.884 225,-132.884 165,-132.884"/>
<text text-anchor="middle" x="195" y="-139.884" font-family="Helvetica,sans-Serif" font-size="10.00">Alignment</text>
</a>
</g>
</g>
<!-- Node5 -->
<g id="node4" class="node"><title>Node5</title>
<g id="a_node4"><a xlink:href="group__tools__repeat.html" target="_top" xlink:title="Shape repetition and distribution tools. ">
<polygon fill="white" stroke="black" points="171,-67.8837 171,-86.8837 219,-86.8837 219,-67.8837 171,-67.8837"/>
<text text-anchor="middle" x="195" y="-74.8837" font-family="Helvetica,sans-Serif" font-size="10.00">Repeat</text>
</a>
</g>
</g>
<!-- Node2 -->
<g id="node5" class="node"><title>Node2</title>
<g id="a_node5"><a xlink:href="group__tools__edge.html" target="_top" xlink:title="Shape edge finishing tools. ">
<polygon fill="white" stroke="black" points="175.5,-19.8837 175.5,-38.8837 214.5,-38.8837 214.5,-19.8837 175.5,-19.8837"/>
<text text-anchor="middle" x="195" y="-26.8837" font-family="Helvetica,sans-Serif" font-size="10.00">Edge</text>
</a>
</g>
</g>
<!-- Node0 -->
<g id="node6" class="node"><title>Node0</title>
<polygon fill="#bfbfbf" stroke="black" points="0,-132.884 0,-151.884 41,-151.884 41,-132.884 0,-132.884"/>
<text text-anchor="middle" x="20.5" y="-139.884" font-family="Helvetica,sans-Serif" font-size="10.00">Tools</text>
</g>
<!-- Node0&#45;&gt;Node4 -->
<g id="edge4" class="edge"><title>Node0&#45;&gt;Node4</title>
<path fill="none" stroke="black" d="M21.3092,-162.257C22.2562,-189.314 28.4754,-236.939 59,-259.384 91.29,-283.126 140.677,-275.596 169.914,-267.979"/>
<polygon fill="black" stroke="black" points="24.8062,-162.005 21.1707,-152.053 17.8069,-162.1 24.8062,-162.005"/>
</g>
<!-- Node0&#45;&gt;Node4 -->
<g id="edge9" class="edge"><title>Node0&#45;&gt;Node4</title>
<path fill="none" stroke="darkgreen" stroke-dasharray="5,2" d="M23.478,-152.096C27.3465,-168.593 37.4856,-202.079 59,-220.384 90.0613,-246.811 107.902,-234.785 147,-246.384 154.346,-248.563 162.336,-250.94 169.609,-253.107"/>
<text text-anchor="middle" x="103" y="-249.384" font-family="Helvetica,sans-Serif" font-size="10.00">tools_utility.scad</text>
</g>
<!-- Node0&#45;&gt;Node3 -->
<g id="edge3" class="edge"><title>Node0&#45;&gt;Node3</title>
<path fill="none" stroke="black" d="M28.1302,-161.362C33.9693,-174.896 43.9238,-192.106 59,-200.384 92.6937,-218.884 138.621,-214.091 167.28,-208.257"/>
<polygon fill="black" stroke="black" points="31.3479,-159.98 24.4505,-151.937 24.8274,-162.526 31.3479,-159.98"/>
</g>
<!-- Node0&#45;&gt;Node3 -->
<g id="edge8" class="edge"><title>Node0&#45;&gt;Node3</title>
<path fill="none" stroke="darkgreen" stroke-dasharray="5,2" d="M41.303,-149.927C47.0006,-152.056 53.2337,-154.347 59,-156.384 96.3883,-169.59 139.96,-183.925 167.265,-192.782"/>
<text text-anchor="middle" x="103" y="-188.384" font-family="Helvetica,sans-Serif" font-size="10.00">tools_polytope.scad</text>
</g>
<!-- Node0&#45;&gt;Node1 -->
<g id="edge1" class="edge"><title>Node0&#45;&gt;Node1</title>
<path fill="none" stroke="black" d="M51.3454,-142.384C83.2301,-142.384 133.431,-142.384 164.991,-142.384"/>
<polygon fill="black" stroke="black" points="51.288,-138.884 41.2879,-142.384 51.2879,-145.884 51.288,-138.884"/>
</g>
<!-- Node0&#45;&gt;Node1 -->
<g id="edge6" class="edge"><title>Node0&#45;&gt;Node1</title>
<path fill="none" stroke="darkgreen" stroke-dasharray="5,2" d="M41.3667,-133.467C46.9569,-131.374 53.1187,-129.446 59,-128.384 97.4886,-121.433 108.298,-122.742 147,-128.384 153.571,-129.342 160.502,-131.016 166.962,-132.88"/>
<text text-anchor="middle" x="103" y="-131.384" font-family="Helvetica,sans-Serif" font-size="10.00">tools_align.scad</text>
</g>
<!-- Node0&#45;&gt;Node5 -->
<g id="edge5" class="edge"><title>Node0&#45;&gt;Node5</title>
<path fill="none" stroke="black" d="M44.0275,-127.328C48.8485,-124.461 53.9988,-121.653 59,-119.384 96.7764,-102.246 143.51,-89.4316 170.911,-82.7011"/>
<polygon fill="black" stroke="black" points="41.9169,-124.52 35.2881,-132.785 45.6242,-130.457 41.9169,-124.52"/>
</g>
<!-- Node0&#45;&gt;Node5 -->
<g id="edge10" class="edge"><title>Node0&#45;&gt;Node5</title>
<path fill="none" stroke="darkgreen" stroke-dasharray="5,2" d="M23.5348,-132.771C27.3957,-117.253 37.4076,-87.1342 59,-74.3837 93.6198,-53.9404 142.442,-62.2343 170.9,-69.9369"/>
<text text-anchor="middle" x="103" y="-77.3837" font-family="Helvetica,sans-Serif" font-size="10.00">tools_utility.scad</text>
</g>
<!-- Node0&#45;&gt;Node2 -->
<g id="edge2" class="edge"><title>Node0&#45;&gt;Node2</title>
<path fill="none" stroke="black" d="M24.7968,-122.791C29.1506,-103.212 38.775,-73.7357 59,-57.3837 92.8768,-29.9941 146.818,-27.397 175.173,-28.1841"/>
<polygon fill="black" stroke="black" points="21.3331,-122.267 22.844,-132.753 28.2023,-123.613 21.3331,-122.267"/>
</g>
<!-- Node0&#45;&gt;Node2 -->
<g id="edge7" class="edge"><title>Node0&#45;&gt;Node2</title>
<path fill="none" stroke="darkgreen" stroke-dasharray="5,2" d="M20.8355,-132.844C19.7088,-108.181 20.5767,-42.228 59,-13.3837 93.3523,12.4045 147.093,-6.56181 175.292,-19.6815"/>
<text text-anchor="middle" x="103" y="-16.3837" font-family="Helvetica,sans-Serif" font-size="10.00">tools_edge.scad</text>
</g>
</g>
</svg>
