<?xml version="1.0" encoding="UTF-8" standalone="no"?>
<!DOCTYPE svg PUBLIC "-//W3C//DTD SVG 1.1//EN"
 "http://www.w3.org/Graphics/SVG/1.1/DTD/svg11.dtd">
<!-- Generated by graphviz version 2.38.0 (20140413.2041)
 -->
<!-- Title: Utilities Pages: 1 -->
<svg width="219pt" height="80pt"
 viewBox="0.00 0.00 219.00 80.31" xmlns="http://www.w3.org/2000/svg" xmlns:xlink="http://www.w3.org/1999/xlink">
<g id="graph0" class="graph" transform="scale(1 1) rotate(0) translate(4 76.313)">
<title>Utilities</title>
<polygon fill="white" stroke="none" points="-4,4 -4,-76.313 215,-76.313 215,4 -4,4"/>
<!-- Node0 -->
<g id="node1" class="node"><title>Node0</title>
<polygon fill="#bfbfbf" stroke="black" points="0,-28.1641 0,-47.1641 50,-47.1641 50,-28.1641 0,-28.1641"/>
<text text-anchor="middle" x="25" y="-35.1641" font-family="Helvetica,sans-Serif" font-size="10.00">Utilities</text>
</g>
<!-- Node1 -->
<g id="node2" class="node"><title>Node1</title>
<g id="a_node2"><a xlink:href="group__utilities__console.html" target="_top" xlink:title="Console message logging. ">
<polygon fill="white" stroke="black" points="155,-52.1641 155,-71.1641 208,-71.1641 208,-52.1641 155,-52.1641"/>
<text text-anchor="middle" x="181.5" y="-59.1641" font-family="Helvetica,sans-Serif" font-size="10.00">Console</text>
</a>
</g>
</g>
<!-- Node0&#45;&gt;Node1 -->
<g id="edge1" class="edge"><title>Node0&#45;&gt;Node1</title>
<path fill="none" stroke="black" d="M44.0976,-53.7167C51.0748,-58.9001 59.4347,-63.9944 68,-66.6641 96.7439,-75.6235 131.616,-71.9942 154.842,-67.6799"/>
<polygon fill="black" stroke="black" points="46.0752,-50.8158 36.088,-47.2792 41.6899,-56.272 46.0752,-50.8158"/>
</g>
<!-- Node0&#45;&gt;Node1 -->
<g id="edge3" class="edge"><title>Node0&#45;&gt;Node1</title>
<path fill="none" stroke="darkgreen" stroke-dasharray="5,2" d="M50.0459,-41.0628C71.9487,-44.1975 105.177,-49.0503 134,-53.6641 140.794,-54.7517 148.136,-55.9869 154.935,-57.1558"/>
<text text-anchor="middle" x="101" y="-56.6641" font-family="Helvetica,sans-Serif" font-size="10.00">console.scad</text>
</g>
<!-- Node2 -->
<g id="node3" class="node"><title>Node2</title>
<g id="a_node3"><a xlink:href="group__utilities__validate.html" target="_top" xlink:title="Function validation methods. ">
<polygon fill="white" stroke="black" points="152,-4.16414 152,-23.1641 211,-23.1641 211,-4.16414 152,-4.16414"/>
<text text-anchor="middle" x="181.5" y="-11.1641" font-family="Helvetica,sans-Serif" font-size="10.00">Validation</text>
</a>
</g>
</g>
<!-- Node0&#45;&gt;Node2 -->
<g id="edge2" class="edge"><title>Node0&#45;&gt;Node2</title>
<path fill="none" stroke="black" d="M60.1074,-32.3659C87.61,-28.0936 125.852,-22.1531 151.802,-18.1221"/>
<polygon fill="black" stroke="black" points="59.4848,-28.9205 50.1406,-33.9141 60.5594,-35.8376 59.4848,-28.9205"/>
</g>
<!-- Node0&#45;&gt;Node2 -->
<g id="edge4" class="edge"><title>Node0&#45;&gt;Node2</title>
<path fill="none" stroke="darkgreen" stroke-dasharray="5,2" d="M34.9383,-28.0104C42.7915,-20.2923 54.9718,-10.0618 68,-5.66414 95.4572,3.60397 128.768,-0.517996 151.987,-5.64543"/>
<text text-anchor="middle" x="101" y="-8.66414" font-family="Helvetica,sans-Serif" font-size="10.00">validation.scad</text>
</g>
</g>
</svg>
