<?xml version="1.0" encoding="UTF-8" standalone="no"?>
<!DOCTYPE svg PUBLIC "-//W3C//DTD SVG 1.1//EN"
 "http://www.w3.org/Graphics/SVG/1.1/DTD/svg11.dtd">
<!-- Generated by graphviz version 2.38.0 (20140413.2041)
 -->
<!-- Title: 2d Extrusions Pages: 1 -->
<svg width="243pt" height="36pt"
 viewBox="0.00 0.00 243.00 35.55" xmlns="http://www.w3.org/2000/svg" xmlns:xlink="http://www.w3.org/1999/xlink">
<g id="graph0" class="graph" transform="scale(1 1) rotate(0) translate(4 31.5488)">
<title>2d Extrusions</title>
<polygon fill="white" stroke="none" points="-4,4 -4,-31.5488 239,-31.5488 239,4 -4,4"/>
<!-- Node1 -->
<g id="node1" class="node"><title>Node1</title>
<g id="a_node1"><a xlink:href="group__shapes.html" target="_top" xlink:title="2d and 3d shapes. ">
<polygon fill="white" stroke="black" points="0,-8.04879 0,-27.0488 50,-27.0488 50,-8.04879 0,-8.04879"/>
<text text-anchor="middle" x="25" y="-15.0488" font-family="Helvetica,sans-Serif" font-size="10.00">Shapes</text>
</a>
</g>
</g>
<!-- Node0 -->
<g id="node2" class="node"><title>Node0</title>
<polygon fill="#bfbfbf" stroke="black" points="158,-8.04879 158,-27.0488 235,-27.0488 235,-8.04879 158,-8.04879"/>
<text text-anchor="middle" x="196.5" y="-15.0488" font-family="Helvetica,sans-Serif" font-size="10.00">2d Extrusions</text>
</g>
<!-- Node1&#45;&gt;Node0 -->
<g id="edge1" class="edge"><title>Node1&#45;&gt;Node0</title>
<path fill="none" stroke="black" d="M60.5013,-17.5488C88.7711,-17.5488 128.716,-17.5488 157.818,-17.5488"/>
<polygon fill="black" stroke="black" points="60.2853,-14.0489 50.2852,-17.5488 60.2852,-21.0489 60.2853,-14.0489"/>
</g>
<!-- Node0&#45;&gt;Node1 -->
<g id="edge2" class="edge"><title>Node0&#45;&gt;Node1</title>
<path fill="none" stroke="darkgreen" stroke-dasharray="5,2" d="M163.474,-8.04124C155.849,-6.1768 147.692,-4.50399 140,-3.54879 108.244,0.394714 99.5868,1.57704 68,-3.54879 62.0823,-4.50911 55.8716,-6.18392 50.0959,-8.04867"/>
<text text-anchor="middle" x="104" y="-6.54879" font-family="Helvetica,sans-Serif" font-size="10.00">shapes2de.scad</text>
</g>
</g>
</svg>
