<?xml version="1.0" encoding="UTF-8" standalone="no"?>
<!DOCTYPE svg PUBLIC "-//W3C//DTD SVG 1.1//EN"
 "http://www.w3.org/Graphics/SVG/1.1/DTD/svg11.dtd">
<!-- Generated by graphviz version 2.38.0 (20140413.2041)
 -->
<!-- Title: Scalars Pages: 1 -->
<svg width="528pt" height="40pt"
 viewBox="0.00 0.00 528.00 39.86" xmlns="http://www.w3.org/2000/svg" xmlns:xlink="http://www.w3.org/1999/xlink">
<g id="graph0" class="graph" transform="scale(1 1) rotate(0) translate(4 35.8558)">
<title>Scalars</title>
<polygon fill="white" stroke="none" points="-4,4 -4,-35.8558 524,-35.8558 524,4 -4,4"/>
<!-- Node1 -->
<g id="node1" class="node"><title>Node1</title>
<g id="a_node1"><a xlink:href="group__datatypes__operate.html" target="_top" xlink:title="Data type operation. ">
<polygon fill="white" stroke="black" points="0,-11.3558 0,-30.3558 64,-30.3558 64,-11.3558 0,-11.3558"/>
<text text-anchor="middle" x="32" y="-18.3558" font-family="Helvetica,sans-Serif" font-size="10.00">Operations</text>
</a>
</g>
</g>
<!-- Node0 -->
<g id="node3" class="node"><title>Node0</title>
<polygon fill="#bfbfbf" stroke="black" points="236,-11.3558 236,-30.3558 286,-30.3558 286,-11.3558 236,-11.3558"/>
<text text-anchor="middle" x="261" y="-18.3558" font-family="Helvetica,sans-Serif" font-size="10.00">Scalars</text>
</g>
<!-- Node1&#45;&gt;Node0 -->
<g id="edge1" class="edge"><title>Node1&#45;&gt;Node0</title>
<path fill="none" stroke="black" d="M74.2906,-20.8558C121.546,-20.8558 197.36,-20.8558 235.869,-20.8558"/>
<polygon fill="black" stroke="black" points="74.0874,-17.3559 64.0874,-20.8558 74.0874,-24.3559 74.0874,-17.3559"/>
</g>
<!-- Node2 -->
<g id="node2" class="node"><title>Node2</title>
<g id="a_node2"><a xlink:href="group__datatypes.html" target="_top" xlink:title="Data type definitions and operators. ">
<polygon fill="white" stroke="black" points="458,-11.3558 458,-30.3558 520,-30.3558 520,-11.3558 458,-11.3558"/>
<text text-anchor="middle" x="489" y="-18.3558" font-family="Helvetica,sans-Serif" font-size="10.00">Datatypes</text>
</a>
</g>
</g>
<!-- Node0&#45;&gt;Node1 -->
<g id="edge3" class="edge"><title>Node0&#45;&gt;Node1</title>
<path fill="none" stroke="darkgreen" stroke-dasharray="5,2" d="M235.904,-11.3557C230.128,-9.49097 223.918,-7.81616 218,-6.85584 158.336,2.82628 141.86,1.52788 82,-6.85584 75.1658,-7.81301 67.9473,-9.48659 61.2131,-11.3512"/>
<text text-anchor="middle" x="150" y="-9.85584" font-family="Helvetica,sans-Serif" font-size="10.00">datatypes_operate_scalar.scad</text>
</g>
<!-- Node0&#45;&gt;Node2 -->
<g id="edge2" class="edge"><title>Node0&#45;&gt;Node2</title>
<path fill="none" stroke="darkgreen" stroke-dasharray="5,2" d="M286.186,-20.8558C327.749,-20.8558 412.617,-20.8558 457.923,-20.8558"/>
<text text-anchor="middle" x="372" y="-23.8558" font-family="Helvetica,sans-Serif" font-size="10.00">datatypes_operate_scalar.scad</text>
</g>
</g>
</svg>
