<?xml version="1.0" encoding="UTF-8" standalone="no"?>
<!DOCTYPE svg PUBLIC "-//W3C//DTD SVG 1.1//EN"
 "http://www.w3.org/Graphics/SVG/1.1/DTD/svg11.dtd">
<!-- Generated by graphviz version 2.38.0 (20140413.2041)
 -->
<!-- Title: Vector Algebra Pages: 1 -->
<svg width="243pt" height="36pt"
 viewBox="0.00 0.00 243.00 36.34" xmlns="http://www.w3.org/2000/svg" xmlns:xlink="http://www.w3.org/1999/xlink">
<g id="graph0" class="graph" transform="scale(1 1) rotate(0) translate(4 32.3369)">
<title>Vector Algebra</title>
<polygon fill="white" stroke="none" points="-4,4 -4,-32.3369 239,-32.3369 239,4 -4,4"/>
<!-- Node1 -->
<g id="node1" class="node"><title>Node1</title>
<g id="a_node1"><a xlink:href="group__math.html" target="_top" xlink:title="Mathematical functions. ">
<polygon fill="white" stroke="black" points="0,-8.8369 0,-27.8369 38,-27.8369 38,-8.8369 0,-8.8369"/>
<text text-anchor="middle" x="19" y="-15.8369" font-family="Helvetica,sans-Serif" font-size="10.00">Math</text>
</a>
</g>
</g>
<!-- Node0 -->
<g id="node2" class="node"><title>Node0</title>
<polygon fill="#bfbfbf" stroke="black" points="154,-8.8369 154,-27.8369 235,-27.8369 235,-8.8369 154,-8.8369"/>
<text text-anchor="middle" x="194.5" y="-15.8369" font-family="Helvetica,sans-Serif" font-size="10.00">Vector Algebra</text>
</g>
<!-- Node1&#45;&gt;Node0 -->
<g id="edge1" class="edge"><title>Node1&#45;&gt;Node0</title>
<path fill="none" stroke="black" d="M48.3875,-18.3369C77.0426,-18.3369 121.542,-18.3369 153.71,-18.3369"/>
<polygon fill="black" stroke="black" points="48.2397,-14.837 38.2396,-18.3369 48.2396,-21.837 48.2397,-14.837"/>
</g>
<!-- Node0&#45;&gt;Node1 -->
<g id="edge2" class="edge"><title>Node0&#45;&gt;Node1</title>
<path fill="none" stroke="darkgreen" stroke-dasharray="5,2" d="M160.302,-8.82865C152.403,-6.96423 143.957,-5.29161 136,-4.3369 100.698,-0.101095 90.9459,2.219 56,-4.3369 50.0681,-5.44973 43.8576,-7.51045 38.2976,-9.71503"/>
<text text-anchor="middle" x="96" y="-7.3369" font-family="Helvetica,sans-Serif" font-size="10.00">math_vecalg.scad</text>
</g>
</g>
</svg>
