<?xml version="1.0" encoding="UTF-8" standalone="no"?>
<!DOCTYPE svg PUBLIC "-//W3C//DTD SVG 1.1//EN"
 "http://www.w3.org/Graphics/SVG/1.1/DTD/svg11.dtd">
<!-- Generated by graphviz version 2.38.0 (20140413.2041)
 -->
<!-- Title: Lengths Pages: 1 -->
<svg width="212pt" height="36pt"
 viewBox="0.00 0.00 212.00 36.43" xmlns="http://www.w3.org/2000/svg" xmlns:xlink="http://www.w3.org/1999/xlink">
<g id="graph0" class="graph" transform="scale(1 1) rotate(0) translate(4 32.4335)">
<title>Lengths</title>
<polygon fill="white" stroke="none" points="-4,4 -4,-32.4335 208,-32.4335 208,4 -4,4"/>
<!-- Node1 -->
<g id="node1" class="node"><title>Node1</title>
<g id="a_node1"><a xlink:href="group__units.html" target="_top" xlink:title="Units and unit conversions. ">
<polygon fill="white" stroke="black" points="0,-8.93347 0,-27.9335 40,-27.9335 40,-8.93347 0,-8.93347"/>
<text text-anchor="middle" x="20" y="-15.9335" font-family="Helvetica,sans-Serif" font-size="10.00">Units</text>
</a>
</g>
</g>
<!-- Node0 -->
<g id="node2" class="node"><title>Node0</title>
<polygon fill="#bfbfbf" stroke="black" points="153,-8.93347 153,-27.9335 204,-27.9335 204,-8.93347 153,-8.93347"/>
<text text-anchor="middle" x="178.5" y="-15.9335" font-family="Helvetica,sans-Serif" font-size="10.00">Lengths</text>
</g>
<!-- Node1&#45;&gt;Node0 -->
<g id="edge1" class="edge"><title>Node1&#45;&gt;Node0</title>
<path fill="none" stroke="black" d="M50.3082,-18.4335C79.8461,-18.4335 124.929,-18.4335 152.735,-18.4335"/>
<polygon fill="black" stroke="black" points="50.19,-14.9336 40.19,-18.4335 50.1899,-21.9336 50.19,-14.9336"/>
</g>
<!-- Node0&#45;&gt;Node1 -->
<g id="edge2" class="edge"><title>Node0&#45;&gt;Node1</title>
<path fill="none" stroke="darkgreen" stroke-dasharray="5,2" d="M153.11,-8.93295C147.265,-7.06822 140.983,-5.39352 135,-4.43347 101.21,0.988627 91.664,1.72242 58,-4.43347 52.0547,-5.52065 45.8247,-7.51469 40.2083,-9.66366"/>
<text text-anchor="middle" x="96.5" y="-7.43347" font-family="Helvetica,sans-Serif" font-size="10.00">units_length.scad</text>
</g>
</g>
</svg>
