<?xml version="1.0" encoding="UTF-8" standalone="no"?>
<!DOCTYPE svg PUBLIC "-//W3C//DTD SVG 1.1//EN"
 "http://www.w3.org/Graphics/SVG/1.1/DTD/svg11.dtd">
<!-- Generated by graphviz version 2.38.0 (20140413.2041)
 -->
<!-- Title: Identification Pages: 1 -->
<svg width="260pt" height="356pt"
 viewBox="0.00 0.00 260.00 356.00" xmlns="http://www.w3.org/2000/svg" xmlns:xlink="http://www.w3.org/1999/xlink">
<g id="graph0" class="graph" transform="scale(1 1) rotate(0) translate(4 351.999)">
<title>Identification</title>
<polygon fill="white" stroke="none" points="-4,4 -4,-351.999 256,-351.999 256,4 -4,4"/>
<!-- Node5 -->
<g id="node1" class="node"><title>Node5</title>
<g id="a_node1"><a xlink:href="group__datatypes__operate.html" target="_top" xlink:title="Data type operation. ">
<polygon fill="white" stroke="black" points="188,-208.499 188,-227.499 252,-227.499 252,-208.499 188,-208.499"/>
<text text-anchor="middle" x="220" y="-215.499" font-family="Helvetica,sans-Serif" font-size="10.00">Operations</text>
</a>
</g>
</g>
<!-- Node2 -->
<g id="node2" class="node"><title>Node2</title>
<g id="a_node2"><a xlink:href="group__datatypes__identify__scalar.html" target="_top" xlink:title="Scalar data type identification. ">
<polygon fill="white" stroke="black" points="195,-154.499 195,-173.499 245,-173.499 245,-154.499 195,-154.499"/>
<text text-anchor="middle" x="220" y="-161.499" font-family="Helvetica,sans-Serif" font-size="10.00">Scalars</text>
</a>
</g>
</g>
<!-- Node1 -->
<g id="node3" class="node"><title>Node1</title>
<g id="a_node3"><a xlink:href="group__datatypes.html" target="_top" xlink:title="Data type definitions and operators. ">
<polygon fill="white" stroke="black" points="189,-256.499 189,-275.499 251,-275.499 251,-256.499 189,-256.499"/>
<text text-anchor="middle" x="220" y="-263.499" font-family="Helvetica,sans-Serif" font-size="10.00">Datatypes</text>
</a>
</g>
</g>
<!-- Node0 -->
<g id="node6" class="node"><title>Node0</title>
<polygon fill="#bfbfbf" stroke="black" points="0,-138.499 0,-157.499 72,-157.499 72,-138.499 0,-138.499"/>
<text text-anchor="middle" x="36" y="-145.499" font-family="Helvetica,sans-Serif" font-size="10.00">Identification</text>
</g>
<!-- Node1&#45;&gt;Node0 -->
<g id="edge1" class="edge"><title>Node1&#45;&gt;Node0</title>
<path fill="none" stroke="black" d="M178.693,-256.246C146.401,-247.88 104.225,-235.543 90,-224.999 65.4889,-206.832 48.3952,-173.821 41.0436,-157.566"/>
<polygon fill="black" stroke="black" points="178.228,-259.739 188.782,-258.815 179.955,-252.956 178.228,-259.739"/>
</g>
<!-- Node4 -->
<g id="node4" class="node"><title>Node4</title>
<g id="a_node4"><a xlink:href="group__datatypes__identify__list.html" target="_top" xlink:title="List data type identification. ">
<polygon fill="white" stroke="black" points="201,-78.4994 201,-97.4994 239,-97.4994 239,-78.4994 201,-78.4994"/>
<text text-anchor="middle" x="220" y="-85.4994" font-family="Helvetica,sans-Serif" font-size="10.00">Lists</text>
</a>
</g>
</g>
<!-- Node3 -->
<g id="node5" class="node"><title>Node3</title>
<g id="a_node5"><a xlink:href="group__datatypes__identify__iterable.html" target="_top" xlink:title="Iterable data type identification. ">
<polygon fill="white" stroke="black" points="193,-24.4994 193,-43.4994 247,-43.4994 247,-24.4994 193,-24.4994"/>
<text text-anchor="middle" x="220" y="-31.4994" font-family="Helvetica,sans-Serif" font-size="10.00">Iterables</text>
</a>
</g>
</g>
<!-- Node0&#45;&gt;Node5 -->
<g id="edge6" class="edge"><title>Node0&#45;&gt;Node5</title>
<path fill="none" stroke="darkgreen" stroke-dasharray="5,2" d="M47.9978,-157.809C58.2061,-166.423 74.1702,-178.69 90,-185.999 121.738,-200.655 161.09,-209.171 187.928,-213.682"/>
<text text-anchor="middle" x="130" y="-212.999" font-family="Helvetica,sans-Serif" font-size="10.00">datatypes.scad</text>
</g>
<!-- Node0&#45;&gt;Node2 -->
<g id="edge2" class="edge"><title>Node0&#45;&gt;Node2</title>
<path fill="none" stroke="black" d="M63.2606,-161.913C71.5785,-165.625 80.9647,-169.123 90,-170.999 126.015,-178.477 168.828,-173.501 194.948,-168.959"/>
<polygon fill="black" stroke="black" points="64.6057,-158.677 54.0718,-157.542 61.5984,-164.998 64.6057,-158.677"/>
</g>
<!-- Node0&#45;&gt;Node2 -->
<g id="edge7" class="edge"><title>Node0&#45;&gt;Node2</title>
<path fill="none" stroke="darkgreen" stroke-dasharray="5,2" d="M72.0435,-143.295C99.0492,-140.609 137.195,-138.862 170,-144.999 179.865,-146.845 190.3,-150.613 198.992,-154.31"/>
<text text-anchor="start" x="90" y="-158.999" font-family="Helvetica,sans-Serif" font-size="10.00">datatypes_identify</text>
<text text-anchor="middle" x="130" y="-147.999" font-family="Helvetica,sans-Serif" font-size="10.00">_scalar.scad</text>
</g>
<!-- Node0&#45;&gt;Node1 -->
<g id="edge5" class="edge"><title>Node0&#45;&gt;Node1</title>
<path fill="none" stroke="darkgreen" stroke-dasharray="5,2" d="M38.6664,-157.555C42.9239,-178.796 56.3373,-229.876 90,-252.999 119.036,-272.945 160.781,-273.362 188.845,-270.674"/>
<text text-anchor="middle" x="130" y="-339.999" font-family="Helvetica,sans-Serif" font-size="10.00">datatypes.scad</text>
<text text-anchor="start" x="90" y="-328.999" font-family="Helvetica,sans-Serif" font-size="10.00">datatypes_identify</text>
<text text-anchor="middle" x="130" y="-317.999" font-family="Helvetica,sans-Serif" font-size="10.00">_scalar.scad</text>
<text text-anchor="start" x="90" y="-306.999" font-family="Helvetica,sans-Serif" font-size="10.00">datatypes_identify</text>
<text text-anchor="middle" x="130" y="-295.999" font-family="Helvetica,sans-Serif" font-size="10.00">_iterable.scad</text>
<text text-anchor="start" x="90" y="-284.999" font-family="Helvetica,sans-Serif" font-size="10.00">datatypes_identify</text>
<text text-anchor="middle" x="130" y="-273.999" font-family="Helvetica,sans-Serif" font-size="10.00">_list.scad</text>
</g>
<!-- Node0&#45;&gt;Node4 -->
<g id="edge4" class="edge"><title>Node0&#45;&gt;Node4</title>
<path fill="none" stroke="black" d="M75.6845,-135.246C114.233,-122.538 171.749,-103.577 200.804,-93.9981"/>
<polygon fill="black" stroke="black" points="74.2398,-132.037 65.8384,-138.492 76.4315,-138.685 74.2398,-132.037"/>
</g>
<!-- Node0&#45;&gt;Node4 -->
<g id="edge9" class="edge"><title>Node0&#45;&gt;Node4</title>
<path fill="none" stroke="darkgreen" stroke-dasharray="5,2" d="M40.9534,-138.385C48.0619,-122.548 64.6632,-91.4862 90,-78.9994 126.046,-61.2345 174.753,-72.7128 200.792,-81.225"/>
<text text-anchor="start" x="90" y="-92.9994" font-family="Helvetica,sans-Serif" font-size="10.00">datatypes_identify</text>
<text text-anchor="middle" x="130" y="-81.9994" font-family="Helvetica,sans-Serif" font-size="10.00">_list.scad</text>
</g>
<!-- Node0&#45;&gt;Node3 -->
<g id="edge3" class="edge"><title>Node0&#45;&gt;Node3</title>
<path fill="none" stroke="black" d="M44.1944,-128.848C52.3709,-109.74 67.5621,-80.99 90,-64.9994 120.762,-43.0763 165.052,-36.5197 192.912,-34.6386"/>
<polygon fill="black" stroke="black" points="40.865,-127.746 40.3721,-138.329 47.3573,-130.363 40.865,-127.746"/>
</g>
<!-- Node0&#45;&gt;Node3 -->
<g id="edge8" class="edge"><title>Node0&#45;&gt;Node3</title>
<path fill="none" stroke="darkgreen" stroke-dasharray="5,2" d="M37.2959,-138.143C38.6778,-111.998 46.4552,-40.8433 90,-10.9994 124.903,12.9216 177.186,-10.0591 203.168,-24.4152"/>
<text text-anchor="start" x="90" y="-24.9994" font-family="Helvetica,sans-Serif" font-size="10.00">datatypes_identify</text>
<text text-anchor="middle" x="130" y="-13.9994" font-family="Helvetica,sans-Serif" font-size="10.00">_iterable.scad</text>
</g>
</g>
</svg>
