<?xml version="1.0" encoding="UTF-8" standalone="no"?>
<!DOCTYPE svg PUBLIC "-//W3C//DTD SVG 1.1//EN"
 "http://www.w3.org/Graphics/SVG/1.1/DTD/svg11.dtd">
<!-- Generated by graphviz version 2.38.0 (20140413.2041)
 -->
<!-- Title: Maps Pages: 1 -->
<svg width="238pt" height="37pt"
 viewBox="0.00 0.00 238.00 37.02" xmlns="http://www.w3.org/2000/svg" xmlns:xlink="http://www.w3.org/1999/xlink">
<g id="graph0" class="graph" transform="scale(1 1) rotate(0) translate(4 33.0235)">
<title>Maps</title>
<polygon fill="white" stroke="none" points="-4,4 -4,-33.0235 234,-33.0235 234,4 -4,4"/>
<!-- Node1 -->
<g id="node1" class="node"><title>Node1</title>
<g id="a_node1"><a xlink:href="group__datatypes.html" target="_top" xlink:title="Data type definitions and operators. ">
<polygon fill="white" stroke="black" points="0,-9.52353 0,-28.5235 62,-28.5235 62,-9.52353 0,-9.52353"/>
<text text-anchor="middle" x="31" y="-16.5235" font-family="Helvetica,sans-Serif" font-size="10.00">Datatypes</text>
</a>
</g>
</g>
<!-- Node0 -->
<g id="node2" class="node"><title>Node0</title>
<polygon fill="#bfbfbf" stroke="black" points="189,-9.52353 189,-28.5235 230,-28.5235 230,-9.52353 189,-9.52353"/>
<text text-anchor="middle" x="209.5" y="-16.5235" font-family="Helvetica,sans-Serif" font-size="10.00">Maps</text>
</g>
<!-- Node1&#45;&gt;Node0 -->
<g id="edge1" class="edge"><title>Node1&#45;&gt;Node0</title>
<path fill="none" stroke="black" d="M72.6455,-19.0235C109.095,-19.0235 161.006,-19.0235 188.926,-19.0235"/>
<polygon fill="black" stroke="black" points="72.3415,-15.5236 62.3414,-19.0235 72.3414,-22.5236 72.3415,-15.5236"/>
</g>
<!-- Node0&#45;&gt;Node1 -->
<g id="edge2" class="edge"><title>Node0&#45;&gt;Node1</title>
<path fill="none" stroke="darkgreen" stroke-dasharray="5,2" d="M188.633,-10.1069C183.043,-8.01401 176.881,-6.08557 171,-5.02353 131.199,2.16367 120.038,0.696181 80,-5.02353 73.2972,-5.98107 66.2229,-7.65479 59.6257,-9.51938"/>
<text text-anchor="middle" x="125.5" y="-8.02353" font-family="Helvetica,sans-Serif" font-size="10.00">datatypes_map.scad</text>
</g>
</g>
</svg>
