<?xml version="1.0" encoding="UTF-8" standalone="no"?>
<!DOCTYPE svg PUBLIC "-//W3C//DTD SVG 1.1//EN"
 "http://www.w3.org/Graphics/SVG/1.1/DTD/svg11.dtd">
<!-- Generated by graphviz version 2.38.0 (20140413.2041)
 -->
<!-- Title: Coordinates Pages: 1 -->
<svg width="249pt" height="29pt"
 viewBox="0.00 0.00 249.00 29.00" xmlns="http://www.w3.org/2000/svg" xmlns:xlink="http://www.w3.org/1999/xlink">
<g id="graph0" class="graph" transform="scale(1 1) rotate(0) translate(4 25)">
<title>Coordinates</title>
<polygon fill="white" stroke="none" points="-4,4 -4,-25 245,-25 245,4 -4,4"/>
<!-- Node0 -->
<g id="node1" class="node"><title>Node0</title>
<polygon fill="#bfbfbf" stroke="black" points="0,-0.5 0,-19.5 69,-19.5 69,-0.5 0,-0.5"/>
<text text-anchor="middle" x="34.5" y="-7.5" font-family="Helvetica,sans-Serif" font-size="10.00">Coordinates</text>
</g>
<!-- Node1 -->
<g id="node2" class="node"><title>Node1</title>
<g id="a_node2"><a xlink:href="group__units.html" target="_top" xlink:title="Units and unit conversions. ">
<polygon fill="white" stroke="black" points="201,-0.5 201,-19.5 241,-19.5 241,-0.5 201,-0.5"/>
<text text-anchor="middle" x="221" y="-7.5" font-family="Helvetica,sans-Serif" font-size="10.00">Units</text>
</a>
</g>
</g>
<!-- Node0&#45;&gt;Node1 -->
<g id="edge2" class="edge"><title>Node0&#45;&gt;Node1</title>
<path fill="none" stroke="darkgreen" stroke-dasharray="5,2" d="M69.3401,-10C107.935,-10 169.703,-10 200.796,-10"/>
<text text-anchor="middle" x="135" y="-13" font-family="Helvetica,sans-Serif" font-size="10.00">units_coordinate.scad</text>
</g>
<!-- Node1&#45;&gt;Node0 -->
<g id="edge1" class="edge"><title>Node1&#45;&gt;Node0</title>
<path fill="none" stroke="black" d="M190.796,-8.27429C188.161,-8.16305 185.532,-8.06838 183,-8 140.349,-6.84811 129.659,-7.17199 87,-8 81.1851,-8.11287 75.0029,-8.29736 69.0149,-8.50982"/>
<polygon fill="black" stroke="black" points="190.645,-11.771 200.804,-8.76494 190.988,-4.77939 190.645,-11.771"/>
</g>
</g>
</svg>
