<?xml version="1.0" encoding="UTF-8" standalone="no"?>
<!DOCTYPE svg PUBLIC "-//W3C//DTD SVG 1.1//EN"
 "http://www.w3.org/Graphics/SVG/1.1/DTD/svg11.dtd">
<!-- Generated by graphviz version 2.38.0 (20140413.2041)
 -->
<!-- Title: Iterables Pages: 1 -->
<svg width="544pt" height="40pt"
 viewBox="0.00 0.00 544.00 39.97" xmlns="http://www.w3.org/2000/svg" xmlns:xlink="http://www.w3.org/1999/xlink">
<g id="graph0" class="graph" transform="scale(1 1) rotate(0) translate(4 35.9715)">
<title>Iterables</title>
<polygon fill="white" stroke="none" points="-4,4 -4,-35.9715 540,-35.9715 540,4 -4,4"/>
<!-- Node1 -->
<g id="node1" class="node"><title>Node1</title>
<g id="a_node1"><a xlink:href="group__datatypes__operate.html" target="_top" xlink:title="Data type operation. ">
<polygon fill="white" stroke="black" points="0,-11.4715 0,-30.4715 64,-30.4715 64,-11.4715 0,-11.4715"/>
<text text-anchor="middle" x="32" y="-18.4715" font-family="Helvetica,sans-Serif" font-size="10.00">Operations</text>
</a>
</g>
</g>
<!-- Node0 -->
<g id="node3" class="node"><title>Node0</title>
<polygon fill="#bfbfbf" stroke="black" points="242,-11.4715 242,-30.4715 296,-30.4715 296,-11.4715 242,-11.4715"/>
<text text-anchor="middle" x="269" y="-18.4715" font-family="Helvetica,sans-Serif" font-size="10.00">Iterables</text>
</g>
<!-- Node1&#45;&gt;Node0 -->
<g id="edge1" class="edge"><title>Node1&#45;&gt;Node0</title>
<path fill="none" stroke="black" d="M74.3235,-20.9715C122.622,-20.9715 201.101,-20.9715 241.743,-20.9715"/>
<polygon fill="black" stroke="black" points="74.2062,-17.4716 64.2062,-20.9715 74.2062,-24.4716 74.2062,-17.4716"/>
</g>
<!-- Node2 -->
<g id="node2" class="node"><title>Node2</title>
<g id="a_node2"><a xlink:href="group__datatypes.html" target="_top" xlink:title="Data type definitions and operators. ">
<polygon fill="white" stroke="black" points="474,-11.4715 474,-30.4715 536,-30.4715 536,-11.4715 474,-11.4715"/>
<text text-anchor="middle" x="505" y="-18.4715" font-family="Helvetica,sans-Serif" font-size="10.00">Datatypes</text>
</a>
</g>
</g>
<!-- Node0&#45;&gt;Node1 -->
<g id="edge3" class="edge"><title>Node0&#45;&gt;Node1</title>
<path fill="none" stroke="darkgreen" stroke-dasharray="5,2" d="M242.726,-11.4699C236.677,-9.60521 230.179,-7.93081 224,-6.97154 161.636,2.71085 144.501,1.78205 82,-6.97154 75.1658,-7.92871 67.9473,-9.60228 61.2131,-11.4669"/>
<text text-anchor="middle" x="153" y="-9.97154" font-family="Helvetica,sans-Serif" font-size="10.00">datatypes_operate_iterable.scad</text>
</g>
<!-- Node0&#45;&gt;Node2 -->
<g id="edge2" class="edge"><title>Node0&#45;&gt;Node2</title>
<path fill="none" stroke="darkgreen" stroke-dasharray="5,2" d="M296.388,-20.9715C340.134,-20.9715 427.427,-20.9715 473.654,-20.9715"/>
<text text-anchor="middle" x="385" y="-23.9715" font-family="Helvetica,sans-Serif" font-size="10.00">datatypes_operate_iterable.scad</text>
</g>
</g>
</svg>
