<?xml version="1.0" encoding="UTF-8" standalone="no"?>
<!DOCTYPE svg PUBLIC "-//W3C//DTD SVG 1.1//EN"
 "http://www.w3.org/Graphics/SVG/1.1/DTD/svg11.dtd">
<!-- Generated by graphviz version 2.38.0 (20140413.2041)
 -->
<!-- Title: Utilities Pages: 1 -->
<svg width="207pt" height="36pt"
 viewBox="0.00 0.00 207.00 36.41" xmlns="http://www.w3.org/2000/svg" xmlns:xlink="http://www.w3.org/1999/xlink">
<g id="graph0" class="graph" transform="scale(1 1) rotate(0) translate(4 32.4079)">
<title>Utilities</title>
<polygon fill="white" stroke="none" points="-4,4 -4,-32.4079 203,-32.4079 203,4 -4,4"/>
<!-- Node1 -->
<g id="node1" class="node"><title>Node1</title>
<g id="a_node1"><a xlink:href="group__math.html" target="_top" xlink:title="Mathematical functions. ">
<polygon fill="white" stroke="black" points="0,-8.90793 0,-27.9079 38,-27.9079 38,-8.90793 0,-8.90793"/>
<text text-anchor="middle" x="19" y="-15.9079" font-family="Helvetica,sans-Serif" font-size="10.00">Math</text>
</a>
</g>
</g>
<!-- Node0 -->
<g id="node2" class="node"><title>Node0</title>
<polygon fill="#bfbfbf" stroke="black" points="149,-8.90793 149,-27.9079 199,-27.9079 199,-8.90793 149,-8.90793"/>
<text text-anchor="middle" x="174" y="-15.9079" font-family="Helvetica,sans-Serif" font-size="10.00">Utilities</text>
</g>
<!-- Node1&#45;&gt;Node0 -->
<g id="edge1" class="edge"><title>Node1&#45;&gt;Node0</title>
<path fill="none" stroke="black" d="M48.4025,-18.4079C77.2917,-18.4079 121.578,-18.4079 148.836,-18.4079"/>
<polygon fill="black" stroke="black" points="48.152,-14.908 38.1519,-18.4079 48.1519,-21.908 48.152,-14.908"/>
</g>
<!-- Node0&#45;&gt;Node1 -->
<g id="edge2" class="edge"><title>Node0&#45;&gt;Node1</title>
<path fill="none" stroke="darkgreen" stroke-dasharray="5,2" d="M148.904,-8.9078C143.128,-7.04305 136.918,-5.36824 131,-4.40793 98.0971,0.93148 88.7618,1.73822 56,-4.40793 50.0681,-5.52076 43.8576,-7.58148 38.2976,-9.78606"/>
<text text-anchor="middle" x="93.5" y="-7.40793" font-family="Helvetica,sans-Serif" font-size="10.00">math_utility.scad</text>
</g>
</g>
</svg>
