<?xml version="1.0" encoding="UTF-8" standalone="no"?>
<!DOCTYPE svg PUBLIC "-//W3C//DTD SVG 1.1//EN"
 "http://www.w3.org/Graphics/SVG/1.1/DTD/svg11.dtd">
<!-- Generated by graphviz version 2.38.0 (20140413.2041)
 -->
<!-- Title: Scalars Pages: 1 -->
<svg width="246pt" height="95pt"
 viewBox="0.00 0.00 246.00 95.00" xmlns="http://www.w3.org/2000/svg" xmlns:xlink="http://www.w3.org/1999/xlink">
<g id="graph0" class="graph" transform="scale(1 1) rotate(0) translate(4 91)">
<title>Scalars</title>
<polygon fill="white" stroke="none" points="-4,4 -4,-91 242,-91 242,4 -4,4"/>
<!-- Node0 -->
<g id="node1" class="node"><title>Node0</title>
<polygon fill="#bfbfbf" stroke="black" points="0,-16.5 0,-35.5 50,-35.5 50,-16.5 0,-16.5"/>
<text text-anchor="middle" x="25" y="-23.5" font-family="Helvetica,sans-Serif" font-size="10.00">Scalars</text>
</g>
<!-- Node2 -->
<g id="node2" class="node"><title>Node2</title>
<g id="a_node2"><a xlink:href="group__datatypes.html" target="_top" xlink:title="Data type definitions and operators. ">
<polygon fill="white" stroke="black" points="171,-61.5 171,-80.5 233,-80.5 233,-61.5 171,-61.5"/>
<text text-anchor="middle" x="202" y="-68.5" font-family="Helvetica,sans-Serif" font-size="10.00">Datatypes</text>
</a>
</g>
</g>
<!-- Node0&#45;&gt;Node2 -->
<g id="edge2" class="edge"><title>Node0&#45;&gt;Node2</title>
<path fill="none" stroke="darkgreen" stroke-dasharray="5,2" d="M41.4367,-35.5676C49.1591,-39.9634 58.8012,-44.8813 68,-48 102.176,-59.587 143.364,-65.5566 170.76,-68.4741"/>
<text text-anchor="start" x="68" y="-79" font-family="Helvetica,sans-Serif" font-size="10.00">datatypes_identify</text>
<text text-anchor="middle" x="108" y="-68" font-family="Helvetica,sans-Serif" font-size="10.00">_scalar.scad</text>
</g>
<!-- Node1 -->
<g id="node3" class="node"><title>Node1</title>
<g id="a_node3"><a xlink:href="group__datatypes__identify.html" target="_top" xlink:title="Compile&#45;time data type identification and tests. ">
<polygon fill="white" stroke="black" points="166,-0.5 166,-19.5 238,-19.5 238,-0.5 166,-0.5"/>
<text text-anchor="middle" x="202" y="-7.5" font-family="Helvetica,sans-Serif" font-size="10.00">Identification</text>
</a>
</g>
</g>
<!-- Node0&#45;&gt;Node1 -->
<g id="edge3" class="edge"><title>Node0&#45;&gt;Node1</title>
<path fill="none" stroke="darkgreen" stroke-dasharray="5,2" d="M50.333,-23.7753C80.2923,-21.0361 131.407,-16.3628 165.685,-13.2288"/>
<text text-anchor="start" x="68" y="-36" font-family="Helvetica,sans-Serif" font-size="10.00">datatypes_identify</text>
<text text-anchor="middle" x="108" y="-25" font-family="Helvetica,sans-Serif" font-size="10.00">_scalar.scad</text>
</g>
<!-- Node1&#45;&gt;Node0 -->
<g id="edge1" class="edge"><title>Node1&#45;&gt;Node0</title>
<path fill="none" stroke="black" d="M155.564,-3.77188C129.63,-1.50617 96.6733,-0.816042 68,-7 59.3945,-8.85595 50.4298,-12.6249 43.0035,-16.3203"/>
<polygon fill="black" stroke="black" points="155.559,-7.2882 165.854,-4.78424 156.244,-0.321833 155.559,-7.2882"/>
</g>
</g>
</svg>
