<?xml version="1.0" encoding="UTF-8" standalone="no"?>
<!DOCTYPE svg PUBLIC "-//W3C//DTD SVG 1.1//EN"
 "http://www.w3.org/Graphics/SVG/1.1/DTD/svg11.dtd">
<!-- Generated by graphviz version 2.38.0 (20140413.2041)
 -->
<!-- Title: Units Pages: 1 -->
<svg width="249pt" height="225pt"
 viewBox="0.00 0.00 249.00 224.75" xmlns="http://www.w3.org/2000/svg" xmlns:xlink="http://www.w3.org/1999/xlink">
<g id="graph0" class="graph" transform="scale(1 1) rotate(0) translate(4 220.751)">
<title>Units</title>
<polygon fill="white" stroke="none" points="-4,4 -4,-220.751 245,-220.751 245,4 -4,4"/>
<!-- Node2 -->
<g id="node1" class="node"><title>Node2</title>
<g id="a_node1"><a xlink:href="group__units__coordinate.html" target="_top" xlink:title="Coordinate systems and conversions. ">
<polygon fill="white" stroke="black" points="172,-191.533 172,-210.533 241,-210.533 241,-191.533 172,-191.533"/>
<text text-anchor="middle" x="206.5" y="-198.533" font-family="Helvetica,sans-Serif" font-size="10.00">Coordinates</text>
</a>
</g>
</g>
<!-- Node0 -->
<g id="node2" class="node"><title>Node0</title>
<polygon fill="#bfbfbf" stroke="black" points="0,-102.533 0,-121.533 40,-121.533 40,-102.533 0,-102.533"/>
<text text-anchor="middle" x="20" y="-109.533" font-family="Helvetica,sans-Serif" font-size="10.00">Units</text>
</g>
<!-- Node0&#45;&gt;Node2 -->
<g id="edge2" class="edge"><title>Node0&#45;&gt;Node2</title>
<path fill="none" stroke="black" d="M23.0691,-131.609C26.4414,-152.549 35.2335,-184.797 58,-200.033 91.6256,-222.537 139.93,-217.643 171.986,-210.599"/>
<polygon fill="black" stroke="black" points="26.5224,-131.027 21.7263,-121.58 19.5843,-131.956 26.5224,-131.027"/>
</g>
<!-- Node0&#45;&gt;Node2 -->
<g id="edge6" class="edge"><title>Node0&#45;&gt;Node2</title>
<path fill="none" stroke="darkgreen" stroke-dasharray="5,2" d="M26.1947,-121.816C32.3751,-132.521 43.6818,-149.433 58,-159.033 60.4257,-160.659 128.847,-179.795 171.637,-191.668"/>
<text text-anchor="middle" x="106" y="-188.033" font-family="Helvetica,sans-Serif" font-size="10.00">units_coordinate.scad</text>
</g>
<!-- Node3 -->
<g id="node3" class="node"><title>Node3</title>
<g id="a_node3"><a xlink:href="group__units__length.html" target="_top" xlink:title="Length units and conversions. ">
<polygon fill="white" stroke="black" points="181,-132.533 181,-151.533 232,-151.533 232,-132.533 181,-132.533"/>
<text text-anchor="middle" x="206.5" y="-139.533" font-family="Helvetica,sans-Serif" font-size="10.00">Lengths</text>
</a>
</g>
</g>
<!-- Node0&#45;&gt;Node3 -->
<g id="edge3" class="edge"><title>Node0&#45;&gt;Node3</title>
<path fill="none" stroke="black" d="M37.0717,-128.372C43.1095,-133.431 50.3713,-138.371 58,-141.033 99.2237,-155.42 150.964,-151.087 180.926,-146.587"/>
<polygon fill="black" stroke="black" points="39.4174,-125.775 29.6776,-121.605 34.6912,-130.938 39.4174,-125.775"/>
</g>
<!-- Node0&#45;&gt;Node3 -->
<g id="edge7" class="edge"><title>Node0&#45;&gt;Node3</title>
<path fill="none" stroke="darkgreen" stroke-dasharray="5,2" d="M40.0771,-113.449C66.0272,-115.574 113.825,-120.199 154,-128.033 162.821,-129.753 172.352,-132.18 180.787,-134.53"/>
<text text-anchor="middle" x="106" y="-131.033" font-family="Helvetica,sans-Serif" font-size="10.00">units_length.scad</text>
</g>
<!-- Node1 -->
<g id="node4" class="node"><title>Node1</title>
<g id="a_node4"><a xlink:href="group__units__angle.html" target="_top" xlink:title="Angle units and conversions. ">
<polygon fill="white" stroke="black" points="183,-67.5331 183,-86.5331 230,-86.5331 230,-67.5331 183,-67.5331"/>
<text text-anchor="middle" x="206.5" y="-74.5331" font-family="Helvetica,sans-Serif" font-size="10.00">Angles</text>
</a>
</g>
</g>
<!-- Node0&#45;&gt;Node1 -->
<g id="edge1" class="edge"><title>Node0&#45;&gt;Node1</title>
<path fill="none" stroke="black" d="M50.1383,-106.505C86.9215,-99.5277 149.419,-87.6718 182.836,-81.3324"/>
<polygon fill="black" stroke="black" points="49.2223,-103.117 40.0498,-108.419 50.527,-109.994 49.2223,-103.117"/>
</g>
<!-- Node0&#45;&gt;Node1 -->
<g id="edge5" class="edge"><title>Node0&#45;&gt;Node1</title>
<path fill="none" stroke="darkgreen" stroke-dasharray="5,2" d="M26.6228,-102.298C32.8716,-92.5596 43.9585,-78.1722 58,-72.0331 99.084,-54.0706 152.925,-63.0027 182.884,-70.4533"/>
<text text-anchor="middle" x="106" y="-75.0331" font-family="Helvetica,sans-Serif" font-size="10.00">units_angle.scad</text>
</g>
<!-- Node4 -->
<g id="node5" class="node"><title>Node4</title>
<g id="a_node5"><a xlink:href="group__units__resolution.html" target="_top" xlink:title="Arch rendering resolution management. ">
<polygon fill="white" stroke="black" points="172.5,-19.5331 172.5,-38.5331 240.5,-38.5331 240.5,-19.5331 172.5,-19.5331"/>
<text text-anchor="middle" x="206.5" y="-26.5331" font-family="Helvetica,sans-Serif" font-size="10.00">Resolutions</text>
</a>
</g>
</g>
<!-- Node0&#45;&gt;Node4 -->
<g id="edge4" class="edge"><title>Node0&#45;&gt;Node4</title>
<path fill="none" stroke="black" d="M29.1642,-92.7718C35.3181,-80.621 44.9411,-65.6469 58,-57.0331 92.3775,-34.3572 140.506,-29.0061 172.317,-28.2322"/>
<polygon fill="black" stroke="black" points="25.8628,-91.5703 24.8117,-102.113 32.2078,-94.5268 25.8628,-91.5703"/>
</g>
<!-- Node0&#45;&gt;Node4 -->
<g id="edge8" class="edge"><title>Node0&#45;&gt;Node4</title>
<path fill="none" stroke="darkgreen" stroke-dasharray="5,2" d="M21.276,-102.375C22.4452,-81.936 28.3808,-34.5103 58,-14.0331 96.5339,12.6073 154.829,-6.21311 185.311,-19.3196"/>
<text text-anchor="middle" x="106" y="-17.0331" font-family="Helvetica,sans-Serif" font-size="10.00">units_resolution.scad</text>
</g>
</g>
</svg>
