<?xml version="1.0" encoding="UTF-8" standalone="no"?>
<!DOCTYPE svg PUBLIC "-//W3C//DTD SVG 1.1//EN"
 "http://www.w3.org/Graphics/SVG/1.1/DTD/svg11.dtd">
<!-- Generated by graphviz version 2.38.0 (20140413.2041)
 -->
<!-- Title: Datatypes Pages: 1 -->
<svg width="320pt" height="573pt"
 viewBox="0.00 0.00 320.00 573.46" xmlns="http://www.w3.org/2000/svg" xmlns:xlink="http://www.w3.org/1999/xlink">
<g id="graph0" class="graph" transform="scale(1 1) rotate(0) translate(4 569.458)">
<title>Datatypes</title>
<polygon fill="white" stroke="none" points="-4,4 -4,-569.458 316,-569.458 316,4 -4,4"/>
<!-- Node2 -->
<g id="node1" class="node"><title>Node2</title>
<g id="a_node1"><a xlink:href="group__datatypes__operate.html" target="_top" xlink:title="Data type operation. ">
<polygon fill="white" stroke="black" points="244,-518.943 244,-537.943 308,-537.943 308,-518.943 244,-518.943"/>
<text text-anchor="middle" x="276" y="-525.943" font-family="Helvetica,sans-Serif" font-size="10.00">Operations</text>
</a>
</g>
</g>
<!-- Node5 -->
<g id="node2" class="node"><title>Node5</title>
<g id="a_node2"><a xlink:href="group__datatypes__identify__scalar.html" target="_top" xlink:title="Scalar data type identification. ">
<polygon fill="white" stroke="black" points="251,-444.943 251,-463.943 301,-463.943 301,-444.943 251,-444.943"/>
<text text-anchor="middle" x="276" y="-451.943" font-family="Helvetica,sans-Serif" font-size="10.00">Scalars</text>
</a>
</g>
</g>
<!-- Node0 -->
<g id="node3" class="node"><title>Node0</title>
<polygon fill="#bfbfbf" stroke="black" points="0,-294.943 0,-313.943 62,-313.943 62,-294.943 0,-294.943"/>
<text text-anchor="middle" x="31" y="-301.943" font-family="Helvetica,sans-Serif" font-size="10.00">Datatypes</text>
</g>
<!-- Node0&#45;&gt;Node2 -->
<g id="edge2" class="edge"><title>Node0&#45;&gt;Node2</title>
<path fill="none" stroke="black" d="M32.8529,-324.17C35.5676,-376.46 45.9415,-516.521 80,-544.443 131.093,-586.329 217.111,-555.332 255.491,-538.021"/>
<polygon fill="black" stroke="black" points="36.3478,-323.978 32.3727,-314.157 29.3558,-324.313 36.3478,-323.978"/>
</g>
<!-- Node0&#45;&gt;Node2 -->
<g id="edge6" class="edge"><title>Node0&#45;&gt;Node2</title>
<path fill="none" stroke="darkgreen" stroke-dasharray="5,2" d="M33.2903,-314.174C37.8957,-347.372 54.6163,-455.333 80,-477.443 128.013,-519.264 161.931,-475.322 222,-496.443 236.804,-501.648 251.961,-511.324 262.253,-518.679"/>
<text text-anchor="middle" x="151" y="-532.443" font-family="Helvetica,sans-Serif" font-size="10.00">datatypes.scad</text>
<text text-anchor="middle" x="151" y="-521.443" font-family="Helvetica,sans-Serif" font-size="10.00">datatypes_operate_scalar.scad</text>
<text text-anchor="middle" x="151" y="-510.443" font-family="Helvetica,sans-Serif" font-size="10.00">datatypes_operate_iterable.scad</text>
<text text-anchor="middle" x="151" y="-499.443" font-family="Helvetica,sans-Serif" font-size="10.00">datatypes_operate_list.scad</text>
</g>
<!-- Node0&#45;&gt;Node5 -->
<g id="edge7" class="edge"><title>Node0&#45;&gt;Node5</title>
<path fill="none" stroke="darkgreen" stroke-dasharray="5,2" d="M32.4232,-314.013C34.0511,-338.148 41.929,-401.686 80,-431.443 106.052,-451.806 204.604,-454.514 250.811,-454.632"/>
<text text-anchor="start" x="111" y="-467.443" font-family="Helvetica,sans-Serif" font-size="10.00">datatypes_identify</text>
<text text-anchor="middle" x="151" y="-456.443" font-family="Helvetica,sans-Serif" font-size="10.00">_scalar.scad</text>
</g>
<!-- Node3 -->
<g id="node4" class="node"><title>Node3</title>
<g id="a_node4"><a xlink:href="group__datatypes__map.html" target="_top" xlink:title="Map data type operations. ">
<polygon fill="white" stroke="black" points="255.5,-398.943 255.5,-417.943 296.5,-417.943 296.5,-398.943 255.5,-398.943"/>
<text text-anchor="middle" x="276" y="-405.943" font-family="Helvetica,sans-Serif" font-size="10.00">Maps</text>
</a>
</g>
</g>
<!-- Node0&#45;&gt;Node3 -->
<g id="edge3" class="edge"><title>Node0&#45;&gt;Node3</title>
<path fill="none" stroke="black" d="M34.7682,-323.912C39.3864,-348.258 51.1916,-388.981 80,-407.443 135.012,-442.697 217.909,-425.363 255.379,-414.696"/>
<polygon fill="black" stroke="black" points="38.2152,-323.304 33.1168,-314.016 31.3107,-324.456 38.2152,-323.304"/>
</g>
<!-- Node0&#45;&gt;Node3 -->
<g id="edge13" class="edge"><title>Node0&#45;&gt;Node3</title>
<path fill="none" stroke="darkgreen" stroke-dasharray="5,2" d="M35.8392,-314.39C42.366,-329.84 57.1785,-359.296 80,-373.443 134.225,-407.056 159.507,-381.61 222,-394.443 233.187,-396.74 245.532,-399.96 255.491,-402.732"/>
<text text-anchor="middle" x="151" y="-397.443" font-family="Helvetica,sans-Serif" font-size="10.00">datatypes_map.scad</text>
</g>
<!-- Node10 -->
<g id="node5" class="node"><title>Node10</title>
<g id="a_node5"><a xlink:href="group__datatypes__operate__list.html" target="_top" xlink:title="List data type operations. ">
<polygon fill="white" stroke="black" points="257,-353.943 257,-372.943 295,-372.943 295,-353.943 257,-353.943"/>
<text text-anchor="middle" x="276" y="-360.943" font-family="Helvetica,sans-Serif" font-size="10.00">Lists</text>
</a>
</g>
</g>
<!-- Node0&#45;&gt;Node10 -->
<g id="edge12" class="edge"><title>Node0&#45;&gt;Node10</title>
<path fill="none" stroke="darkgreen" stroke-dasharray="5,2" d="M44.2888,-314.121C53.5701,-320.914 66.9066,-329.617 80,-334.443 142.142,-357.346 221.751,-362.194 256.918,-363.197"/>
<text text-anchor="middle" x="151" y="-363.443" font-family="Helvetica,sans-Serif" font-size="10.00">datatypes_operate_list.scad</text>
</g>
<!-- Node9 -->
<g id="node6" class="node"><title>Node9</title>
<g id="a_node6"><a xlink:href="group__datatypes__operate__iterable.html" target="_top" xlink:title="Iterable data type operations. ">
<polygon fill="white" stroke="black" points="249,-315.943 249,-334.943 303,-334.943 303,-315.943 249,-315.943"/>
<text text-anchor="middle" x="276" y="-322.943" font-family="Helvetica,sans-Serif" font-size="10.00">Iterables</text>
</a>
</g>
</g>
<!-- Node0&#45;&gt;Node9 -->
<g id="edge11" class="edge"><title>Node0&#45;&gt;Node9</title>
<path fill="none" stroke="darkgreen" stroke-dasharray="5,2" d="M62.2848,-307.06C110.377,-311.216 203.4,-319.255 248.798,-323.178"/>
<text text-anchor="middle" x="151" y="-322.443" font-family="Helvetica,sans-Serif" font-size="10.00">datatypes_operate_iterable.scad</text>
</g>
<!-- Node7 -->
<g id="node7" class="node"><title>Node7</title>
<g id="a_node7"><a xlink:href="group__datatypes__identify__list.html" target="_top" xlink:title="List data type identification. ">
<polygon fill="white" stroke="black" points="257,-272.943 257,-291.943 295,-291.943 295,-272.943 257,-272.943"/>
<text text-anchor="middle" x="276" y="-279.943" font-family="Helvetica,sans-Serif" font-size="10.00">Lists</text>
</a>
</g>
</g>
<!-- Node0&#45;&gt;Node7 -->
<g id="edge9" class="edge"><title>Node0&#45;&gt;Node7</title>
<path fill="none" stroke="darkgreen" stroke-dasharray="5,2" d="M48.2667,-294.861C57.2857,-290.104 68.8944,-284.867 80,-282.443 143.836,-268.511 222.252,-275.586 256.982,-279.911"/>
<text text-anchor="start" x="111" y="-296.443" font-family="Helvetica,sans-Serif" font-size="10.00">datatypes_identify</text>
<text text-anchor="middle" x="151" y="-285.443" font-family="Helvetica,sans-Serif" font-size="10.00">_list.scad</text>
</g>
<!-- Node6 -->
<g id="node8" class="node"><title>Node6</title>
<g id="a_node8"><a xlink:href="group__datatypes__identify__iterable.html" target="_top" xlink:title="Iterable data type identification. ">
<polygon fill="white" stroke="black" points="249,-229.943 249,-248.943 303,-248.943 303,-229.943 249,-229.943"/>
<text text-anchor="middle" x="276" y="-236.943" font-family="Helvetica,sans-Serif" font-size="10.00">Iterables</text>
</a>
</g>
</g>
<!-- Node0&#45;&gt;Node6 -->
<g id="edge8" class="edge"><title>Node0&#45;&gt;Node6</title>
<path fill="none" stroke="darkgreen" stroke-dasharray="5,2" d="M36.8945,-294.617C44.1947,-281.179 59.3243,-257.583 80,-247.443 135.062,-220.439 209.742,-227.621 248.774,-234.147"/>
<text text-anchor="start" x="111" y="-261.443" font-family="Helvetica,sans-Serif" font-size="10.00">datatypes_identify</text>
<text text-anchor="middle" x="151" y="-250.443" font-family="Helvetica,sans-Serif" font-size="10.00">_iterable.scad</text>
</g>
<!-- Node8 -->
<g id="node9" class="node"><title>Node8</title>
<g id="a_node9"><a xlink:href="group__datatypes__operate__scalar.html" target="_top" xlink:title="Scalar data type operations. ">
<polygon fill="white" stroke="black" points="251,-191.943 251,-210.943 301,-210.943 301,-191.943 251,-191.943"/>
<text text-anchor="middle" x="276" y="-198.943" font-family="Helvetica,sans-Serif" font-size="10.00">Scalars</text>
</a>
</g>
</g>
<!-- Node0&#45;&gt;Node8 -->
<g id="edge10" class="edge"><title>Node0&#45;&gt;Node8</title>
<path fill="none" stroke="darkgreen" stroke-dasharray="5,2" d="M33.7851,-294.806C37.9564,-275.347 50.332,-231.59 80,-212.443 132.849,-178.335 211.494,-187.881 250.803,-195.726"/>
<text text-anchor="middle" x="151" y="-215.443" font-family="Helvetica,sans-Serif" font-size="10.00">datatypes_operate_scalar.scad</text>
</g>
<!-- Node1 -->
<g id="node10" class="node"><title>Node1</title>
<g id="a_node10"><a xlink:href="group__datatypes__identify.html" target="_top" xlink:title="Compile&#45;time data type identification and tests. ">
<polygon fill="white" stroke="black" points="240,-75.9428 240,-94.9428 312,-94.9428 312,-75.9428 240,-75.9428"/>
<text text-anchor="middle" x="276" y="-82.9428" font-family="Helvetica,sans-Serif" font-size="10.00">Identification</text>
</a>
</g>
</g>
<!-- Node0&#45;&gt;Node1 -->
<g id="edge1" class="edge"><title>Node0&#45;&gt;Node1</title>
<path fill="none" stroke="black" d="M34.1167,-284.742C38.1089,-257.794 49.3246,-209.889 80,-184.443 129.509,-143.373 167.572,-190.727 222,-156.443 246.208,-141.194 263.217,-110.623 270.709,-95.0449"/>
<polygon fill="black" stroke="black" points="30.6169,-284.517 32.8123,-294.882 37.5597,-285.41 30.6169,-284.517"/>
</g>
<!-- Node0&#45;&gt;Node1 -->
<g id="edge5" class="edge"><title>Node0&#45;&gt;Node1</title>
<path fill="none" stroke="darkgreen" stroke-dasharray="5,2" d="M32.463,-294.902C34.6062,-255.204 44.9992,-103.868 80,-75.4428 103.683,-56.2095 190.467,-68.9669 239.907,-78.2367"/>
<text text-anchor="middle" x="151" y="-144.443" font-family="Helvetica,sans-Serif" font-size="10.00">datatypes.scad</text>
<text text-anchor="start" x="111" y="-133.443" font-family="Helvetica,sans-Serif" font-size="10.00">datatypes_identify</text>
<text text-anchor="middle" x="151" y="-122.443" font-family="Helvetica,sans-Serif" font-size="10.00">_scalar.scad</text>
<text text-anchor="start" x="111" y="-111.443" font-family="Helvetica,sans-Serif" font-size="10.00">datatypes_identify</text>
<text text-anchor="middle" x="151" y="-100.443" font-family="Helvetica,sans-Serif" font-size="10.00">_iterable.scad</text>
<text text-anchor="start" x="111" y="-89.4428" font-family="Helvetica,sans-Serif" font-size="10.00">datatypes_identify</text>
<text text-anchor="middle" x="151" y="-78.4428" font-family="Helvetica,sans-Serif" font-size="10.00">_list.scad</text>
</g>
<!-- Node4 -->
<g id="node11" class="node"><title>Node4</title>
<g id="a_node11"><a xlink:href="group__datatypes__table.html" target="_top" xlink:title="Table data type operations. ">
<polygon fill="white" stroke="black" points="253,-27.9428 253,-46.9428 299,-46.9428 299,-27.9428 253,-27.9428"/>
<text text-anchor="middle" x="276" y="-34.9428" font-family="Helvetica,sans-Serif" font-size="10.00">Tables</text>
</a>
</g>
</g>
<!-- Node0&#45;&gt;Node4 -->
<g id="edge4" class="edge"><title>Node0&#45;&gt;Node4</title>
<path fill="none" stroke="black" d="M32.9861,-284.605C36.0341,-231.993 47.1674,-90.8449 80,-60.4428 104.7,-37.5714 207.35,-36.3005 252.975,-36.914"/>
<polygon fill="black" stroke="black" points="29.4865,-284.503 32.4403,-294.678 36.4763,-284.882 29.4865,-284.503"/>
</g>
<!-- Node0&#45;&gt;Node4 -->
<g id="edge14" class="edge"><title>Node0&#45;&gt;Node4</title>
<path fill="none" stroke="darkgreen" stroke-dasharray="5,2" d="M32.0538,-294.893C32.5282,-249.666 37.0759,-57.6995 80,-21.4428 130.602,21.2991 217.257,-10.3571 255.68,-27.87"/>
<text text-anchor="middle" x="151" y="-24.4428" font-family="Helvetica,sans-Serif" font-size="10.00">datatypes_table.scad</text>
</g>
</g>
</svg>
