<?xml version="1.0" encoding="UTF-8" standalone="no"?>
<!DOCTYPE svg PUBLIC "-//W3C//DTD SVG 1.1//EN"
 "http://www.w3.org/Graphics/SVG/1.1/DTD/svg11.dtd">
<!-- Generated by graphviz version 2.38.0 (20140413.2041)
 -->
<!-- Title: Database Pages: 1 -->
<svg width="170pt" height="142pt"
 viewBox="0.00 0.00 170.00 142.00" xmlns="http://www.w3.org/2000/svg" xmlns:xlink="http://www.w3.org/1999/xlink">
<g id="graph0" class="graph" transform="scale(1 1) rotate(0) translate(4 138)">
<title>Database</title>
<polygon fill="white" stroke="none" points="-4,4 -4,-138 166,-138 166,4 -4,4"/>
<!-- Node3 -->
<g id="node1" class="node"><title>Node3</title>
<g id="a_node1"><a xlink:href="group__database__geometry.html" target="_top" xlink:title="Predefined geometry. ">
<polygon fill="white" stroke="black" points="99,-114.5 99,-133.5 158,-133.5 158,-114.5 99,-114.5"/>
<text text-anchor="middle" x="128.5" y="-121.5" font-family="Helvetica,sans-Serif" font-size="10.00">Geometry</text>
</a>
</g>
</g>
<!-- Node2 -->
<g id="node2" class="node"><title>Node2</title>
<g id="a_node2"><a xlink:href="group__database__electrical.html" target="_top" xlink:title="Electrical specifications. ">
<polygon fill="white" stroke="black" points="100,-76.5 100,-95.5 157,-95.5 157,-76.5 100,-76.5"/>
<text text-anchor="middle" x="128.5" y="-83.5" font-family="Helvetica,sans-Serif" font-size="10.00">Electrical</text>
</a>
</g>
</g>
<!-- Node0 -->
<g id="node3" class="node"><title>Node0</title>
<polygon fill="#bfbfbf" stroke="black" points="0,-57.5 0,-76.5 59,-76.5 59,-57.5 0,-57.5"/>
<text text-anchor="middle" x="29.5" y="-64.5" font-family="Helvetica,sans-Serif" font-size="10.00">Database</text>
</g>
<!-- Node0&#45;&gt;Node3 -->
<g id="edge3" class="edge"><title>Node0&#45;&gt;Node3</title>
<path fill="none" stroke="black" d="M55.6083,-81.8189C67.5372,-88.8526 81.9984,-97.3696 95,-105 100.186,-108.043 105.842,-111.353 110.96,-114.345"/>
<polygon fill="black" stroke="black" points="57.0521,-78.6071 46.6606,-76.5413 53.4958,-84.6364 57.0521,-78.6071"/>
</g>
<!-- Node0&#45;&gt;Node2 -->
<g id="edge2" class="edge"><title>Node0&#45;&gt;Node2</title>
<path fill="none" stroke="black" d="M69.0699,-74.5549C79.3405,-76.5667 90.2317,-78.7 99.793,-80.5728"/>
<polygon fill="black" stroke="black" points="69.5649,-71.0854 59.0786,-72.5979 68.2193,-77.9549 69.5649,-71.0854"/>
</g>
<!-- Node4 -->
<g id="node4" class="node"><title>Node4</title>
<g id="a_node4"><a xlink:href="group__database__material.html" target="_top" xlink:title="Material specifications. ">
<polygon fill="white" stroke="black" points="103,-38.5 103,-57.5 154,-57.5 154,-38.5 103,-38.5"/>
<text text-anchor="middle" x="128.5" y="-45.5" font-family="Helvetica,sans-Serif" font-size="10.00">Material</text>
</a>
</g>
</g>
<!-- Node0&#45;&gt;Node4 -->
<g id="edge4" class="edge"><title>Node0&#45;&gt;Node4</title>
<path fill="none" stroke="black" d="M69.1816,-59.4232C80.4915,-57.2078 92.5449,-54.8469 102.74,-52.8498"/>
<polygon fill="black" stroke="black" points="68.2193,-56.0451 59.0786,-61.4021 69.5649,-62.9146 68.2193,-56.0451"/>
</g>
<!-- Node1 -->
<g id="node5" class="node"><title>Node1</title>
<g id="a_node5"><a xlink:href="group__database__component.html" target="_top" xlink:title="Component specifications. ">
<polygon fill="white" stroke="black" points="95,-0.5 95,-19.5 162,-19.5 162,-0.5 95,-0.5"/>
<text text-anchor="middle" x="128.5" y="-7.5" font-family="Helvetica,sans-Serif" font-size="10.00">Component</text>
</a>
</g>
</g>
<!-- Node0&#45;&gt;Node1 -->
<g id="edge1" class="edge"><title>Node0&#45;&gt;Node1</title>
<path fill="none" stroke="black" d="M55.6083,-52.1811C67.5372,-45.1474 81.9984,-36.6304 95,-29 100.186,-25.9565 105.842,-22.6467 110.96,-19.655"/>
<polygon fill="black" stroke="black" points="53.4958,-49.3636 46.6606,-57.4587 57.0521,-55.3929 53.4958,-49.3636"/>
</g>
</g>
</svg>
