<?xml version="1.0" encoding="UTF-8" standalone="no"?>
<!DOCTYPE svg PUBLIC "-//W3C//DTD SVG 1.1//EN"
 "http://www.w3.org/Graphics/SVG/1.1/DTD/svg11.dtd">
<!-- Generated by graphviz version 2.38.0 (20140413.2041)
 -->
<!-- Title: Operations Pages: 1 -->
<svg width="322pt" height="305pt"
 viewBox="0.00 0.00 322.00 304.65" xmlns="http://www.w3.org/2000/svg" xmlns:xlink="http://www.w3.org/1999/xlink">
<g id="graph0" class="graph" transform="scale(1 1) rotate(0) translate(4 300.646)">
<title>Operations</title>
<polygon fill="white" stroke="none" points="-4,4 -4,-300.646 318,-300.646 318,4 -4,4"/>
<!-- Node0 -->
<g id="node1" class="node"><title>Node0</title>
<polygon fill="#bfbfbf" stroke="black" points="0,-127.146 0,-146.146 64,-146.146 64,-127.146 0,-127.146"/>
<text text-anchor="middle" x="32" y="-134.146" font-family="Helvetica,sans-Serif" font-size="10.00">Operations</text>
</g>
<!-- Node1 -->
<g id="node2" class="node"><title>Node1</title>
<g id="a_node2"><a xlink:href="group__datatypes.html" target="_top" xlink:title="Data type definitions and operators. ">
<polygon fill="white" stroke="black" points="247,-227.146 247,-246.146 309,-246.146 309,-227.146 247,-227.146"/>
<text text-anchor="middle" x="278" y="-234.146" font-family="Helvetica,sans-Serif" font-size="10.00">Datatypes</text>
</a>
</g>
</g>
<!-- Node0&#45;&gt;Node1 -->
<g id="edge5" class="edge"><title>Node0&#45;&gt;Node1</title>
<path fill="none" stroke="darkgreen" stroke-dasharray="5,2" d="M34.7152,-146.252C38.8291,-166.097 51.2926,-211.372 82,-230.646 132.633,-262.427 206.14,-253.237 246.912,-244.465"/>
<text text-anchor="middle" x="153" y="-288.646" font-family="Helvetica,sans-Serif" font-size="10.00">datatypes.scad</text>
<text text-anchor="middle" x="153" y="-277.646" font-family="Helvetica,sans-Serif" font-size="10.00">datatypes_operate_scalar.scad</text>
<text text-anchor="middle" x="153" y="-266.646" font-family="Helvetica,sans-Serif" font-size="10.00">datatypes_operate_iterable.scad</text>
<text text-anchor="middle" x="153" y="-255.646" font-family="Helvetica,sans-Serif" font-size="10.00">datatypes_operate_list.scad</text>
</g>
<!-- Node4 -->
<g id="node3" class="node"><title>Node4</title>
<g id="a_node3"><a xlink:href="group__datatypes__operate__list.html" target="_top" xlink:title="List data type operations. ">
<polygon fill="white" stroke="black" points="259,-173.146 259,-192.146 297,-192.146 297,-173.146 259,-173.146"/>
<text text-anchor="middle" x="278" y="-180.146" font-family="Helvetica,sans-Serif" font-size="10.00">Lists</text>
</a>
</g>
</g>
<!-- Node0&#45;&gt;Node4 -->
<g id="edge4" class="edge"><title>Node0&#45;&gt;Node4</title>
<path fill="none" stroke="black" d="M46.5141,-154.344C55.3668,-164.42 67.8885,-176.108 82,-181.646 143.138,-205.641 223.598,-193.843 258.985,-186.721"/>
<polygon fill="black" stroke="black" points="49.0494,-151.917 39.9864,-146.43 43.6492,-156.371 49.0494,-151.917"/>
</g>
<!-- Node0&#45;&gt;Node4 -->
<g id="edge9" class="edge"><title>Node0&#45;&gt;Node4</title>
<path fill="none" stroke="darkgreen" stroke-dasharray="5,2" d="M64.2655,-140.98C102.231,-146.45 168.124,-156.613 224,-168.646 235.723,-171.171 248.745,-174.602 258.948,-177.435"/>
<text text-anchor="middle" x="153" y="-171.646" font-family="Helvetica,sans-Serif" font-size="10.00">datatypes_operate_list.scad</text>
</g>
<!-- Node3 -->
<g id="node4" class="node"><title>Node3</title>
<g id="a_node4"><a xlink:href="group__datatypes__operate__iterable.html" target="_top" xlink:title="Iterable data type operations. ">
<polygon fill="white" stroke="black" points="251,-107.146 251,-126.146 305,-126.146 305,-107.146 251,-107.146"/>
<text text-anchor="middle" x="278" y="-114.146" font-family="Helvetica,sans-Serif" font-size="10.00">Iterables</text>
</a>
</g>
</g>
<!-- Node0&#45;&gt;Node3 -->
<g id="edge3" class="edge"><title>Node0&#45;&gt;Node3</title>
<path fill="none" stroke="black" d="M74.4776,-134.081C113.193,-131.574 172.558,-127.442 224,-122.646 232.759,-121.83 242.316,-120.793 250.872,-119.812"/>
<polygon fill="black" stroke="black" points="73.8848,-130.612 64.1291,-134.744 74.3326,-137.597 73.8848,-130.612"/>
</g>
<!-- Node0&#45;&gt;Node3 -->
<g id="edge8" class="edge"><title>Node0&#45;&gt;Node3</title>
<path fill="none" stroke="darkgreen" stroke-dasharray="5,2" d="M45.953,-127.126C55.4108,-120.792 68.8308,-113.034 82,-109.646 140.89,-94.4955 213.066,-104.033 250.944,-111.086"/>
<text text-anchor="middle" x="153" y="-112.646" font-family="Helvetica,sans-Serif" font-size="10.00">datatypes_operate_iterable.scad</text>
</g>
<!-- Node2 -->
<g id="node5" class="node"><title>Node2</title>
<g id="a_node5"><a xlink:href="group__datatypes__operate__scalar.html" target="_top" xlink:title="Scalar data type operations. ">
<polygon fill="white" stroke="black" points="253,-61.1463 253,-80.1463 303,-80.1463 303,-61.1463 253,-61.1463"/>
<text text-anchor="middle" x="278" y="-68.1463" font-family="Helvetica,sans-Serif" font-size="10.00">Scalars</text>
</a>
</g>
</g>
<!-- Node0&#45;&gt;Node2 -->
<g id="edge2" class="edge"><title>Node0&#45;&gt;Node2</title>
<path fill="none" stroke="black" d="M49.0066,-119.718C57.9047,-111.38 69.655,-101.991 82,-96.6463 139.513,-71.746 214.766,-69.1839 252.778,-69.7298"/>
<polygon fill="black" stroke="black" points="46.3558,-117.417 41.7016,-126.935 51.2753,-122.397 46.3558,-117.417"/>
</g>
<!-- Node0&#45;&gt;Node2 -->
<g id="edge7" class="edge"><title>Node0&#45;&gt;Node2</title>
<path fill="none" stroke="darkgreen" stroke-dasharray="5,2" d="M35.3841,-127.062C40.4478,-109.027 54.1613,-70.4413 82,-54.6463 137.395,-23.2166 216.251,-46.4096 254.485,-61.0717"/>
<text text-anchor="middle" x="153" y="-57.6463" font-family="Helvetica,sans-Serif" font-size="10.00">datatypes_operate_scalar.scad</text>
</g>
<!-- Node5 -->
<g id="node6" class="node"><title>Node5</title>
<g id="a_node6"><a xlink:href="group__datatypes__identify.html" target="_top" xlink:title="Compile&#45;time data type identification and tests. ">
<polygon fill="white" stroke="black" points="242,-8.14629 242,-27.1463 314,-27.1463 314,-8.14629 242,-8.14629"/>
<text text-anchor="middle" x="278" y="-15.1463" font-family="Helvetica,sans-Serif" font-size="10.00">Identification</text>
</a>
</g>
</g>
<!-- Node0&#45;&gt;Node5 -->
<g id="edge6" class="edge"><title>Node0&#45;&gt;Node5</title>
<path fill="none" stroke="darkgreen" stroke-dasharray="5,2" d="M33.85,-126.921C36.4131,-104.234 46.2582,-47.8997 82,-23.6463 129.645,8.68461 200.003,0.721908 241.897,-8.27671"/>
<text text-anchor="middle" x="153" y="-26.6463" font-family="Helvetica,sans-Serif" font-size="10.00">datatypes.scad</text>
</g>
<!-- Node1&#45;&gt;Node0 -->
<g id="edge1" class="edge"><title>Node1&#45;&gt;Node0</title>
<path fill="none" stroke="black" d="M236.933,-233.176C187.629,-228.309 107.331,-218.26 82,-202.646 59.8897,-189.017 44.4513,-161.409 37.3735,-146.586"/>
<polygon fill="black" stroke="black" points="236.664,-236.666 246.952,-234.136 237.332,-229.698 236.664,-236.666"/>
</g>
</g>
</svg>
