<?xml version="1.0" encoding="UTF-8" standalone="no"?>
<!DOCTYPE svg PUBLIC "-//W3C//DTD SVG 1.1//EN"
 "http://www.w3.org/Graphics/SVG/1.1/DTD/svg11.dtd">
<!-- Generated by graphviz version 2.38.0 (20140413.2041)
 -->
<!-- Title: Euclidean Pages: 1 -->
<svg width="232pt" height="118pt"
 viewBox="0.00 0.00 232.00 118.00" xmlns="http://www.w3.org/2000/svg" xmlns:xlink="http://www.w3.org/1999/xlink">
<g id="graph0" class="graph" transform="scale(1 1) rotate(0) translate(4 114)">
<title>Euclidean</title>
<polygon fill="white" stroke="none" points="-4,4 -4,-114 228,-114 228,4 -4,4"/>
<!-- Node0 -->
<g id="node1" class="node"><title>Node0</title>
<polygon fill="#bfbfbf" stroke="black" points="0,-35.5 0,-54.5 59,-54.5 59,-35.5 0,-35.5"/>
<text text-anchor="middle" x="29.5" y="-42.5" font-family="Helvetica,sans-Serif" font-size="10.00">Euclidean</text>
</g>
<!-- Node3 -->
<g id="node2" class="node"><title>Node3</title>
<g id="a_node2"><a xlink:href="group__constants__system.html" target="_top" xlink:title="System and program limits. ">
<polygon fill="white" stroke="black" points="168,-90.5 168,-109.5 218,-109.5 218,-90.5 168,-90.5"/>
<text text-anchor="middle" x="193" y="-97.5" font-family="Helvetica,sans-Serif" font-size="10.00">System</text>
</a>
</g>
</g>
<!-- Node0&#45;&gt;Node3 -->
<g id="edge4" class="edge"><title>Node0&#45;&gt;Node3</title>
<path fill="none" stroke="darkgreen" stroke-dasharray="5,2" d="M45.499,-54.7195C54.3737,-60.126 65.9987,-66.626 77,-71 107.231,-83.0195 143.951,-91.2492 167.635,-95.7885"/>
<text text-anchor="middle" x="110.5" y="-93" font-family="Helvetica,sans-Serif" font-size="10.00">constants.scad</text>
</g>
<!-- Node2 -->
<g id="node3" class="node"><title>Node2</title>
<g id="a_node3"><a xlink:href="group__constants__general.html" target="_top" xlink:title="General design constants. ">
<polygon fill="white" stroke="black" points="168,-52.5 168,-71.5 218,-71.5 218,-52.5 168,-52.5"/>
<text text-anchor="middle" x="193" y="-59.5" font-family="Helvetica,sans-Serif" font-size="10.00">General</text>
</a>
</g>
</g>
<!-- Node0&#45;&gt;Node2 -->
<g id="edge3" class="edge"><title>Node0&#45;&gt;Node2</title>
<path fill="none" stroke="darkgreen" stroke-dasharray="5,2" d="M59.0012,-48.0001C89.9705,-51.2601 138.908,-56.4114 167.992,-59.4729"/>
<text text-anchor="middle" x="110.5" y="-59" font-family="Helvetica,sans-Serif" font-size="10.00">constants.scad</text>
</g>
<!-- Node1 -->
<g id="node4" class="node"><title>Node1</title>
<g id="a_node4"><a xlink:href="group__constants.html" target="_top" xlink:title="Design constant definitions. ">
<polygon fill="white" stroke="black" points="162,-0.5 162,-19.5 224,-19.5 224,-0.5 162,-0.5"/>
<text text-anchor="middle" x="193" y="-7.5" font-family="Helvetica,sans-Serif" font-size="10.00">Constants</text>
</a>
</g>
</g>
<!-- Node0&#45;&gt;Node1 -->
<g id="edge2" class="edge"><title>Node0&#45;&gt;Node1</title>
<path fill="none" stroke="darkgreen" stroke-dasharray="5,2" d="M59.0012,-38.8233C87.8878,-32.563 132.407,-22.9148 161.866,-16.5305"/>
<text text-anchor="middle" x="110.5" y="-37" font-family="Helvetica,sans-Serif" font-size="10.00">constants.scad</text>
</g>
<!-- Node1&#45;&gt;Node0 -->
<g id="edge1" class="edge"><title>Node1&#45;&gt;Node0</title>
<path fill="none" stroke="black" d="M151.589,-3.19477C129.053,-0.977361 100.812,-0.859671 77,-9 61.9294,-14.152 47.9589,-26.3932 39.344,-35.1704"/>
<polygon fill="black" stroke="black" points="151.491,-6.70669 161.827,-4.38182 152.297,0.246723 151.491,-6.70669"/>
</g>
</g>
</svg>
