<?xml version="1.0" encoding="UTF-8" standalone="no"?>
<!DOCTYPE svg PUBLIC "-//W3C//DTD SVG 1.1//EN"
 "http://www.w3.org/Graphics/SVG/1.1/DTD/svg11.dtd">
<!-- Generated by graphviz version 2.38.0 (20140413.2041)
 -->
<!-- Title: Iterables Pages: 1 -->
<svg width="250pt" height="94pt"
 viewBox="0.00 0.00 250.00 94.00" xmlns="http://www.w3.org/2000/svg" xmlns:xlink="http://www.w3.org/1999/xlink">
<g id="graph0" class="graph" transform="scale(1 1) rotate(0) translate(4 90)">
<title>Iterables</title>
<polygon fill="white" stroke="none" points="-4,4 -4,-90 246,-90 246,4 -4,4"/>
<!-- Node2 -->
<g id="node1" class="node"><title>Node2</title>
<g id="a_node1"><a xlink:href="group__datatypes.html" target="_top" xlink:title="Data type definitions and operators. ">
<polygon fill="white" stroke="black" points="175,-61.5 175,-80.5 237,-80.5 237,-61.5 175,-61.5"/>
<text text-anchor="middle" x="206" y="-68.5" font-family="Helvetica,sans-Serif" font-size="10.00">Datatypes</text>
</a>
</g>
</g>
<!-- Node0 -->
<g id="node2" class="node"><title>Node0</title>
<polygon fill="#bfbfbf" stroke="black" points="0,-16.5 0,-35.5 54,-35.5 54,-16.5 0,-16.5"/>
<text text-anchor="middle" x="27" y="-23.5" font-family="Helvetica,sans-Serif" font-size="10.00">Iterables</text>
</g>
<!-- Node0&#45;&gt;Node2 -->
<g id="edge2" class="edge"><title>Node0&#45;&gt;Node2</title>
<path fill="none" stroke="darkgreen" stroke-dasharray="5,2" d="M45.5391,-35.697C53.4277,-39.7076 62.9774,-44.0907 72,-47 106.39,-58.0887 147.534,-64.5213 174.861,-67.887"/>
<text text-anchor="start" x="72" y="-78" font-family="Helvetica,sans-Serif" font-size="10.00">datatypes_identify</text>
<text text-anchor="middle" x="112" y="-67" font-family="Helvetica,sans-Serif" font-size="10.00">_iterable.scad</text>
</g>
<!-- Node1 -->
<g id="node3" class="node"><title>Node1</title>
<g id="a_node3"><a xlink:href="group__datatypes__identify.html" target="_top" xlink:title="Compile&#45;time data type identification and tests. ">
<polygon fill="white" stroke="black" points="170,-0.5 170,-19.5 242,-19.5 242,-0.5 170,-0.5"/>
<text text-anchor="middle" x="206" y="-7.5" font-family="Helvetica,sans-Serif" font-size="10.00">Identification</text>
</a>
</g>
</g>
<!-- Node0&#45;&gt;Node1 -->
<g id="edge3" class="edge"><title>Node0&#45;&gt;Node1</title>
<path fill="none" stroke="darkgreen" stroke-dasharray="5,2" d="M54.117,-23.6391C84.793,-20.8662 135.815,-16.254 169.921,-13.1709"/>
<text text-anchor="start" x="72" y="-35" font-family="Helvetica,sans-Serif" font-size="10.00">datatypes_identify</text>
<text text-anchor="middle" x="112" y="-24" font-family="Helvetica,sans-Serif" font-size="10.00">_iterable.scad</text>
</g>
<!-- Node1&#45;&gt;Node0 -->
<g id="edge1" class="edge"><title>Node1&#45;&gt;Node0</title>
<path fill="none" stroke="black" d="M159.604,-3.9599C133.683,-1.75492 100.725,-1.06287 72,-7 63.0367,-8.85258 53.6525,-12.6211 45.8639,-16.317"/>
<polygon fill="black" stroke="black" points="159.599,-7.47539 169.887,-4.94406 160.266,-0.507228 159.599,-7.47539"/>
</g>
</g>
</svg>
