<?xml version="1.0" encoding="UTF-8" standalone="no"?>
<!DOCTYPE svg PUBLIC "-//W3C//DTD SVG 1.1//EN"
 "http://www.w3.org/Graphics/SVG/1.1/DTD/svg11.dtd">
<!-- Generated by graphviz version 2.38.0 (20140413.2041)
 -->
<!-- Title: Lists Pages: 1 -->
<svg width="234pt" height="96pt"
 viewBox="0.00 0.00 234.00 96.00" xmlns="http://www.w3.org/2000/svg" xmlns:xlink="http://www.w3.org/1999/xlink">
<g id="graph0" class="graph" transform="scale(1 1) rotate(0) translate(4 92)">
<title>Lists</title>
<polygon fill="white" stroke="none" points="-4,4 -4,-92 230,-92 230,4 -4,4"/>
<!-- Node2 -->
<g id="node1" class="node"><title>Node2</title>
<g id="a_node1"><a xlink:href="group__datatypes.html" target="_top" xlink:title="Data type definitions and operators. ">
<polygon fill="white" stroke="black" points="159,-61.5 159,-80.5 221,-80.5 221,-61.5 159,-61.5"/>
<text text-anchor="middle" x="190" y="-68.5" font-family="Helvetica,sans-Serif" font-size="10.00">Datatypes</text>
</a>
</g>
</g>
<!-- Node0 -->
<g id="node2" class="node"><title>Node0</title>
<polygon fill="#bfbfbf" stroke="black" points="0,-16.5 0,-35.5 38,-35.5 38,-16.5 0,-16.5"/>
<text text-anchor="middle" x="19" y="-23.5" font-family="Helvetica,sans-Serif" font-size="10.00">Lists</text>
</g>
<!-- Node0&#45;&gt;Node2 -->
<g id="edge2" class="edge"><title>Node0&#45;&gt;Node2</title>
<path fill="none" stroke="darkgreen" stroke-dasharray="5,2" d="M33.0531,-35.6329C39.63,-40.0441 47.9106,-44.9561 56,-48 89.8845,-60.7501 131.312,-66.4878 158.836,-69.0332"/>
<text text-anchor="start" x="56" y="-80" font-family="Helvetica,sans-Serif" font-size="10.00">datatypes_identify</text>
<text text-anchor="middle" x="96" y="-69" font-family="Helvetica,sans-Serif" font-size="10.00">_list.scad</text>
</g>
<!-- Node1 -->
<g id="node3" class="node"><title>Node1</title>
<g id="a_node3"><a xlink:href="group__datatypes__identify.html" target="_top" xlink:title="Compile&#45;time data type identification and tests. ">
<polygon fill="white" stroke="black" points="154,-0.5 154,-19.5 226,-19.5 226,-0.5 154,-0.5"/>
<text text-anchor="middle" x="190" y="-7.5" font-family="Helvetica,sans-Serif" font-size="10.00">Identification</text>
</a>
</g>
</g>
<!-- Node0&#45;&gt;Node1 -->
<g id="edge3" class="edge"><title>Node0&#45;&gt;Node1</title>
<path fill="none" stroke="darkgreen" stroke-dasharray="5,2" d="M38.086,-24.2877C65.5898,-21.6838 118.453,-16.679 153.733,-13.3389"/>
<text text-anchor="start" x="56" y="-36" font-family="Helvetica,sans-Serif" font-size="10.00">datatypes_identify</text>
<text text-anchor="middle" x="96" y="-25" font-family="Helvetica,sans-Serif" font-size="10.00">_list.scad</text>
</g>
<!-- Node1&#45;&gt;Node0 -->
<g id="edge1" class="edge"><title>Node1&#45;&gt;Node0</title>
<path fill="none" stroke="black" d="M143.757,-3.14345C117.721,-0.637095 84.5987,0.0838359 56,-7 48.4543,-8.86906 40.7464,-12.6399 34.409,-16.3331"/>
<polygon fill="black" stroke="black" points="143.405,-6.62571 153.723,-4.22185 144.158,0.333669 143.405,-6.62571"/>
</g>
</g>
</svg>
