<?xml version="1.0" encoding="UTF-8" standalone="no"?>
<!DOCTYPE svg PUBLIC "-//W3C//DTD SVG 1.1//EN"
 "http://www.w3.org/Graphics/SVG/1.1/DTD/svg11.dtd">
<!-- Generated by graphviz version 2.38.0 (20140413.2041)
 -->
<!-- Title: Triangles Pages: 1 -->
<svg width="221pt" height="37pt"
 viewBox="0.00 0.00 221.00 36.79" xmlns="http://www.w3.org/2000/svg" xmlns:xlink="http://www.w3.org/1999/xlink">
<g id="graph0" class="graph" transform="scale(1 1) rotate(0) translate(4 32.7864)">
<title>Triangles</title>
<polygon fill="white" stroke="none" points="-4,4 -4,-32.7864 217,-32.7864 217,4 -4,4"/>
<!-- Node1 -->
<g id="node1" class="node"><title>Node1</title>
<g id="a_node1"><a xlink:href="group__math.html" target="_top" xlink:title="Mathematical functions. ">
<polygon fill="white" stroke="black" points="0,-9.2864 0,-28.2864 38,-28.2864 38,-9.2864 0,-9.2864"/>
<text text-anchor="middle" x="19" y="-16.2864" font-family="Helvetica,sans-Serif" font-size="10.00">Math</text>
</a>
</g>
</g>
<!-- Node0 -->
<g id="node2" class="node"><title>Node0</title>
<polygon fill="#bfbfbf" stroke="black" points="157,-9.2864 157,-28.2864 213,-28.2864 213,-9.2864 157,-9.2864"/>
<text text-anchor="middle" x="185" y="-16.2864" font-family="Helvetica,sans-Serif" font-size="10.00">Triangles</text>
</g>
<!-- Node1&#45;&gt;Node0 -->
<g id="edge1" class="edge"><title>Node1&#45;&gt;Node0</title>
<path fill="none" stroke="black" d="M48.5375,-18.7864C78.9745,-18.7864 126.832,-18.7864 156.762,-18.7864"/>
<polygon fill="black" stroke="black" points="48.1775,-15.2865 38.1775,-18.7864 48.1774,-22.2865 48.1775,-15.2865"/>
</g>
<!-- Node0&#45;&gt;Node1 -->
<g id="edge2" class="edge"><title>Node0&#45;&gt;Node1</title>
<path fill="none" stroke="darkgreen" stroke-dasharray="5,2" d="M158.138,-9.28408C151.952,-7.41942 145.309,-5.7452 139,-4.7864 102.53,0.755728 92.2564,2.01534 56,-4.7864 50.0681,-5.89923 43.8576,-7.95995 38.2976,-10.1645"/>
<text text-anchor="middle" x="97.5" y="-7.7864" font-family="Helvetica,sans-Serif" font-size="10.00">math_triangle.scad</text>
</g>
</g>
</svg>
