<?xml version="1.0" encoding="UTF-8" standalone="no"?>
<!DOCTYPE svg PUBLIC "-//W3C//DTD SVG 1.1//EN"
 "http://www.w3.org/Graphics/SVG/1.1/DTD/svg11.dtd">
<!-- Generated by graphviz version 2.38.0 (20140413.2041)
 -->
<!-- Title: Console Pages: 1 -->
<svg width="205pt" height="35pt"
 viewBox="0.00 0.00 205.00 35.06" xmlns="http://www.w3.org/2000/svg" xmlns:xlink="http://www.w3.org/1999/xlink">
<g id="graph0" class="graph" transform="scale(1 1) rotate(0) translate(4 31.0638)">
<title>Console</title>
<polygon fill="white" stroke="none" points="-4,4 -4,-31.0638 201,-31.0638 201,4 -4,4"/>
<!-- Node1 -->
<g id="node1" class="node"><title>Node1</title>
<g id="a_node1"><a xlink:href="group__utilities.html" target="_top" xlink:title="General utilities. ">
<polygon fill="white" stroke="black" points="0,-7.56383 0,-26.5638 50,-26.5638 50,-7.56383 0,-7.56383"/>
<text text-anchor="middle" x="25" y="-14.5638" font-family="Helvetica,sans-Serif" font-size="10.00">Utilities</text>
</a>
</g>
</g>
<!-- Node0 -->
<g id="node2" class="node"><title>Node0</title>
<polygon fill="#bfbfbf" stroke="black" points="144,-7.56383 144,-26.5638 197,-26.5638 197,-7.56383 144,-7.56383"/>
<text text-anchor="middle" x="170.5" y="-14.5638" font-family="Helvetica,sans-Serif" font-size="10.00">Console</text>
</g>
<!-- Node1&#45;&gt;Node0 -->
<g id="edge1" class="edge"><title>Node1&#45;&gt;Node0</title>
<path fill="none" stroke="black" d="M60.0882,-17.0638C85.822,-17.0638 120.576,-17.0638 143.95,-17.0638"/>
<polygon fill="black" stroke="black" points="60.0187,-13.5639 50.0187,-17.0638 60.0186,-20.5639 60.0187,-13.5639"/>
</g>
<!-- Node0&#45;&gt;Node1 -->
<g id="edge2" class="edge"><title>Node0&#45;&gt;Node1</title>
<path fill="none" stroke="darkgreen" stroke-dasharray="5,2" d="M144.521,-7.56255C138.54,-5.69784 132.113,-4.02335 126,-3.06383 100.534,0.933198 93.4449,1.06531 68,-3.06383 62.0823,-4.02414 55.8716,-5.69895 50.0959,-7.5637"/>
<text text-anchor="middle" x="97" y="-6.06383" font-family="Helvetica,sans-Serif" font-size="10.00">console.scad</text>
</g>
</g>
</svg>
