<?xml version="1.0" encoding="UTF-8" standalone="no"?>
<!DOCTYPE svg PUBLIC "-//W3C//DTD SVG 1.1//EN"
 "http://www.w3.org/Graphics/SVG/1.1/DTD/svg11.dtd">
<!-- Generated by graphviz version 2.38.0 (20140413.2041)
 -->
<!-- Title: Resolutions Pages: 1 -->
<svg width="245pt" height="37pt"
 viewBox="0.00 0.00 245.00 37.10" xmlns="http://www.w3.org/2000/svg" xmlns:xlink="http://www.w3.org/1999/xlink">
<g id="graph0" class="graph" transform="scale(1 1) rotate(0) translate(4 33.0976)">
<title>Resolutions</title>
<polygon fill="white" stroke="none" points="-4,4 -4,-33.0976 241,-33.0976 241,4 -4,4"/>
<!-- Node1 -->
<g id="node1" class="node"><title>Node1</title>
<g id="a_node1"><a xlink:href="group__units.html" target="_top" xlink:title="Units and unit conversions. ">
<polygon fill="white" stroke="black" points="0,-9.59759 0,-28.5976 40,-28.5976 40,-9.59759 0,-9.59759"/>
<text text-anchor="middle" x="20" y="-16.5976" font-family="Helvetica,sans-Serif" font-size="10.00">Units</text>
</a>
</g>
</g>
<!-- Node0 -->
<g id="node2" class="node"><title>Node0</title>
<polygon fill="#bfbfbf" stroke="black" points="169,-9.59759 169,-28.5976 237,-28.5976 237,-9.59759 169,-9.59759"/>
<text text-anchor="middle" x="203" y="-16.5976" font-family="Helvetica,sans-Serif" font-size="10.00">Resolutions</text>
</g>
<!-- Node1&#45;&gt;Node0 -->
<g id="edge1" class="edge"><title>Node1&#45;&gt;Node0</title>
<path fill="none" stroke="black" d="M50.218,-19.0976C82.6689,-19.0976 134.946,-19.0976 168.888,-19.0976"/>
<polygon fill="black" stroke="black" points="50.0281,-15.5977 40.0281,-19.0976 50.028,-22.5977 50.0281,-15.5977"/>
</g>
<!-- Node0&#45;&gt;Node1 -->
<g id="edge2" class="edge"><title>Node0&#45;&gt;Node1</title>
<path fill="none" stroke="darkgreen" stroke-dasharray="5,2" d="M172.613,-9.59191C165.605,-7.72739 158.098,-6.05408 151,-5.09759 110.037,0.42268 98.6591,2.33746 58,-5.09759 52.0547,-6.18477 45.8247,-8.17881 40.2083,-10.3278"/>
<text text-anchor="middle" x="104.5" y="-8.09759" font-family="Helvetica,sans-Serif" font-size="10.00">units_resolution.scad</text>
</g>
</g>
</svg>
