<?xml version="1.0" encoding="UTF-8" standalone="no"?>
<!DOCTYPE svg PUBLIC "-//W3C//DTD SVG 1.1//EN"
 "http://www.w3.org/Graphics/SVG/1.1/DTD/svg11.dtd">
<!-- Generated by graphviz version 2.38.0 (20140413.2041)
 -->
<!-- Title: Linear Algebra Pages: 1 -->
<svg width="235pt" height="36pt"
 viewBox="0.00 0.00 235.00 36.03" xmlns="http://www.w3.org/2000/svg" xmlns:xlink="http://www.w3.org/1999/xlink">
<g id="graph0" class="graph" transform="scale(1 1) rotate(0) translate(4 32.0282)">
<title>Linear Algebra</title>
<polygon fill="white" stroke="none" points="-4,4 -4,-32.0282 231,-32.0282 231,4 -4,4"/>
<!-- Node1 -->
<g id="node1" class="node"><title>Node1</title>
<g id="a_node1"><a xlink:href="group__math.html" target="_top" xlink:title="Mathematical functions. ">
<polygon fill="white" stroke="black" points="0,-8.52822 0,-27.5282 38,-27.5282 38,-8.52822 0,-8.52822"/>
<text text-anchor="middle" x="19" y="-15.5282" font-family="Helvetica,sans-Serif" font-size="10.00">Math</text>
</a>
</g>
</g>
<!-- Node0 -->
<g id="node2" class="node"><title>Node0</title>
<polygon fill="#bfbfbf" stroke="black" points="148,-8.52822 148,-27.5282 227,-27.5282 227,-8.52822 148,-8.52822"/>
<text text-anchor="middle" x="187.5" y="-15.5282" font-family="Helvetica,sans-Serif" font-size="10.00">Linear Algebra</text>
</g>
<!-- Node1&#45;&gt;Node0 -->
<g id="edge1" class="edge"><title>Node1&#45;&gt;Node0</title>
<path fill="none" stroke="black" d="M48.2336,-18.0282C75.6572,-18.0282 117.502,-18.0282 147.976,-18.0282"/>
<polygon fill="black" stroke="black" points="48.1354,-14.5283 38.1354,-18.0282 48.1353,-21.5283 48.1354,-14.5283"/>
</g>
<!-- Node0&#45;&gt;Node1 -->
<g id="edge2" class="edge"><title>Node0&#45;&gt;Node1</title>
<path fill="none" stroke="darkgreen" stroke-dasharray="5,2" d="M153.887,-8.52031C146.126,-6.65588 137.824,-4.98317 130,-4.02822 97.3534,-0.0437513 88.325,2.03598 56,-4.02822 50.0681,-5.14105 43.8576,-7.20177 38.2976,-9.40635"/>
<text text-anchor="middle" x="93" y="-7.02822" font-family="Helvetica,sans-Serif" font-size="10.00">math_linalg.scad</text>
</g>
</g>
</svg>
