<?xml version="1.0" encoding="UTF-8" standalone="no"?>
<!DOCTYPE svg PUBLIC "-//W3C//DTD SVG 1.1//EN"
 "http://www.w3.org/Graphics/SVG/1.1/DTD/svg11.dtd">
<!-- Generated by graphviz version 2.38.0 (20140413.2041)
 -->
<!-- Title: Lists Pages: 1 -->
<svg width="490pt" height="40pt"
 viewBox="0.00 0.00 490.00 39.78" xmlns="http://www.w3.org/2000/svg" xmlns:xlink="http://www.w3.org/1999/xlink">
<g id="graph0" class="graph" transform="scale(1 1) rotate(0) translate(4 35.7793)">
<title>Lists</title>
<polygon fill="white" stroke="none" points="-4,4 -4,-35.7793 486,-35.7793 486,4 -4,4"/>
<!-- Node1 -->
<g id="node1" class="node"><title>Node1</title>
<g id="a_node1"><a xlink:href="group__datatypes__operate.html" target="_top" xlink:title="Data type operation. ">
<polygon fill="white" stroke="black" points="0,-11.2793 0,-30.2793 64,-30.2793 64,-11.2793 0,-11.2793"/>
<text text-anchor="middle" x="32" y="-18.2793" font-family="Helvetica,sans-Serif" font-size="10.00">Operations</text>
</a>
</g>
</g>
<!-- Node0 -->
<g id="node3" class="node"><title>Node0</title>
<polygon fill="#bfbfbf" stroke="black" points="223,-11.2793 223,-30.2793 261,-30.2793 261,-11.2793 223,-11.2793"/>
<text text-anchor="middle" x="242" y="-18.2793" font-family="Helvetica,sans-Serif" font-size="10.00">Lists</text>
</g>
<!-- Node1&#45;&gt;Node0 -->
<g id="edge1" class="edge"><title>Node1&#45;&gt;Node0</title>
<path fill="none" stroke="black" d="M74.2175,-20.7793C119.442,-20.7793 189.979,-20.7793 222.916,-20.7793"/>
<polygon fill="black" stroke="black" points="74.1397,-17.2794 64.1397,-20.7793 74.1397,-24.2794 74.1397,-17.2794"/>
</g>
<!-- Node2 -->
<g id="node2" class="node"><title>Node2</title>
<g id="a_node2"><a xlink:href="group__datatypes.html" target="_top" xlink:title="Data type definitions and operators. ">
<polygon fill="white" stroke="black" points="420,-11.2793 420,-30.2793 482,-30.2793 482,-11.2793 420,-11.2793"/>
<text text-anchor="middle" x="451" y="-18.2793" font-family="Helvetica,sans-Serif" font-size="10.00">Datatypes</text>
</a>
</g>
</g>
<!-- Node0&#45;&gt;Node1 -->
<g id="edge3" class="edge"><title>Node0&#45;&gt;Node1</title>
<path fill="none" stroke="darkgreen" stroke-dasharray="5,2" d="M222.702,-12.1575C217.142,-9.95289 210.932,-7.89217 205,-6.77934 151.271,3.30035 136.138,0.80299 82,-6.77934 75.1658,-7.73651 67.9473,-9.41009 61.2131,-11.2747"/>
<text text-anchor="middle" x="143.5" y="-9.77934" font-family="Helvetica,sans-Serif" font-size="10.00">datatypes_operate_list.scad</text>
</g>
<!-- Node0&#45;&gt;Node2 -->
<g id="edge2" class="edge"><title>Node0&#45;&gt;Node2</title>
<path fill="none" stroke="darkgreen" stroke-dasharray="5,2" d="M261.008,-20.7793C296.517,-20.7793 375.907,-20.7793 419.647,-20.7793"/>
<text text-anchor="middle" x="340.5" y="-23.7793" font-family="Helvetica,sans-Serif" font-size="10.00">datatypes_operate_list.scad</text>
</g>
</g>
</svg>
