<?xml version="1.0" encoding="UTF-8" standalone="no"?>
<!DOCTYPE svg PUBLIC "-//W3C//DTD SVG 1.1//EN"
 "http://www.w3.org/Graphics/SVG/1.1/DTD/svg11.dtd">
<!-- Generated by graphviz version 2.38.0 (20140413.2041)
 -->
<!-- Title: Math Pages: 1 -->
<svg width="251pt" height="408pt"
 viewBox="0.00 0.00 251.00 408.30" xmlns="http://www.w3.org/2000/svg" xmlns:xlink="http://www.w3.org/1999/xlink">
<g id="graph0" class="graph" transform="scale(1 1) rotate(0) translate(4 404.3)">
<title>Math</title>
<polygon fill="white" stroke="none" points="-4,4 -4,-404.3 247,-404.3 247,4 -4,4"/>
<!-- Node0 -->
<g id="node1" class="node"><title>Node0</title>
<polygon fill="#bfbfbf" stroke="black" points="0,-196.248 0,-215.248 38,-215.248 38,-196.248 0,-196.248"/>
<text text-anchor="middle" x="19" y="-203.248" font-family="Helvetica,sans-Serif" font-size="10.00">Math</text>
</g>
<!-- Node6 -->
<g id="node2" class="node"><title>Node6</title>
<g id="a_node2"><a xlink:href="group__math__utility.html" target="_top" xlink:title="Miscellaneous mathematical utilities. ">
<polygon fill="white" stroke="black" points="177.5,-373.248 177.5,-392.248 227.5,-392.248 227.5,-373.248 177.5,-373.248"/>
<text text-anchor="middle" x="202.5" y="-380.248" font-family="Helvetica,sans-Serif" font-size="10.00">Utilities</text>
</a>
</g>
</g>
<!-- Node0&#45;&gt;Node6 -->
<g id="edge6" class="edge"><title>Node0&#45;&gt;Node6</title>
<path fill="none" stroke="black" d="M21.0026,-225.249C23.5898,-266.839 32.0532,-362.066 56,-381.748 90.1518,-409.818 145.604,-399.978 177.276,-390.941"/>
<polygon fill="black" stroke="black" points="24.4968,-225.046 20.4318,-215.262 17.5082,-225.445 24.4968,-225.046"/>
</g>
<!-- Node0&#45;&gt;Node6 -->
<g id="edge13" class="edge"><title>Node0&#45;&gt;Node6</title>
<path fill="none" stroke="darkgreen" stroke-dasharray="5,2" d="M19.4322,-215.424C18.5195,-240.544 19.7257,-308.4 56,-344.748 58.1785,-346.931 136.446,-366.603 177.266,-376.751"/>
<text text-anchor="middle" x="100" y="-370.748" font-family="Helvetica,sans-Serif" font-size="10.00">math_utility.scad</text>
</g>
<!-- Node7 -->
<g id="node3" class="node"><title>Node7</title>
<g id="a_node3"><a xlink:href="group__math__vecalg.html" target="_top" xlink:title="Algebraic operations on Euclidean vectors. ">
<polygon fill="white" stroke="black" points="162,-314.248 162,-333.248 243,-333.248 243,-314.248 162,-314.248"/>
<text text-anchor="middle" x="202.5" y="-321.248" font-family="Helvetica,sans-Serif" font-size="10.00">Vector Algebra</text>
</a>
</g>
</g>
<!-- Node0&#45;&gt;Node7 -->
<g id="edge7" class="edge"><title>Node0&#45;&gt;Node7</title>
<path fill="none" stroke="black" d="M19.5401,-225.597C20.1232,-252.625 25.712,-300.217 56,-322.748 88.9355,-347.249 138.684,-341.048 170.631,-333.25"/>
<polygon fill="black" stroke="black" points="23.0402,-225.405 19.5392,-215.405 16.0402,-225.405 23.0402,-225.405"/>
</g>
<!-- Node0&#45;&gt;Node7 -->
<g id="edge14" class="edge"><title>Node0&#45;&gt;Node7</title>
<path fill="none" stroke="darkgreen" stroke-dasharray="5,2" d="M21.6394,-215.367C24.9979,-232.054 34.2592,-266.341 56,-284.748 60.1665,-288.276 120.815,-303.797 162.481,-314.164"/>
<text text-anchor="middle" x="100" y="-311.748" font-family="Helvetica,sans-Serif" font-size="10.00">math_vecalg.scad</text>
</g>
<!-- Node2 -->
<g id="node4" class="node"><title>Node2</title>
<g id="a_node4"><a xlink:href="group__math__linalg.html" target="_top" xlink:title="Linear algebra transformations on Euclidean coordinates. ">
<polygon fill="white" stroke="black" points="163,-255.248 163,-274.248 242,-274.248 242,-255.248 163,-255.248"/>
<text text-anchor="middle" x="202.5" y="-262.248" font-family="Helvetica,sans-Serif" font-size="10.00">Linear Algebra</text>
</a>
</g>
</g>
<!-- Node0&#45;&gt;Node2 -->
<g id="edge2" class="edge"><title>Node0&#45;&gt;Node2</title>
<path fill="none" stroke="black" d="M26.1597,-224.705C31.6593,-238.228 41.1729,-255.433 56,-263.748 88.4987,-281.973 131.85,-279.528 162.759,-274.183"/>
<polygon fill="black" stroke="black" points="29.438,-223.478 22.715,-215.29 22.8641,-225.883 29.438,-223.478"/>
</g>
<!-- Node0&#45;&gt;Node2 -->
<g id="edge9" class="edge"><title>Node0&#45;&gt;Node2</title>
<path fill="none" stroke="darkgreen" stroke-dasharray="5,2" d="M38.2209,-213.123C43.8864,-215.338 50.1743,-217.717 56,-219.748 94.2002,-233.064 138.711,-246.537 168.344,-255.223"/>
<text text-anchor="middle" x="100" y="-249.748" font-family="Helvetica,sans-Serif" font-size="10.00">math_linalg.scad</text>
</g>
<!-- Node4 -->
<g id="node5" class="node"><title>Node4</title>
<g id="a_node5"><a xlink:href="group__math__polytope.html" target="_top" xlink:title="Polygon and polyhedron mathematical functions. ">
<polygon fill="white" stroke="black" points="172.5,-196.248 172.5,-215.248 232.5,-215.248 232.5,-196.248 172.5,-196.248"/>
<text text-anchor="middle" x="202.5" y="-203.248" font-family="Helvetica,sans-Serif" font-size="10.00">Polytopes</text>
</a>
</g>
</g>
<!-- Node0&#45;&gt;Node4 -->
<g id="edge4" class="edge"><title>Node0&#45;&gt;Node4</title>
<path fill="none" stroke="black" d="M48.1618,-205.748C81.8579,-205.748 137.999,-205.748 172.194,-205.748"/>
<polygon fill="black" stroke="black" points="48.0665,-202.248 38.0665,-205.748 48.0664,-209.248 48.0665,-202.248"/>
</g>
<!-- Node0&#45;&gt;Node4 -->
<g id="edge11" class="edge"><title>Node0&#45;&gt;Node4</title>
<path fill="none" stroke="darkgreen" stroke-dasharray="5,2" d="M38.2976,-197.126C43.8576,-194.922 50.0681,-192.861 56,-191.748 94.4405,-184.537 105.167,-187.089 144,-191.748 153.385,-192.874 163.451,-194.999 172.496,-197.259"/>
<text text-anchor="middle" x="100" y="-194.748" font-family="Helvetica,sans-Serif" font-size="10.00">math_polytope.scad</text>
</g>
<!-- Node1 -->
<g id="node6" class="node"><title>Node1</title>
<g id="a_node6"><a xlink:href="group__math__bitwise.html" target="_top" xlink:title="Base&#45;two bitwise binary operations. ">
<polygon fill="white" stroke="black" points="178,-137.248 178,-156.248 227,-156.248 227,-137.248 178,-137.248"/>
<text text-anchor="middle" x="202.5" y="-144.248" font-family="Helvetica,sans-Serif" font-size="10.00">Bitwise</text>
</a>
</g>
</g>
<!-- Node0&#45;&gt;Node1 -->
<g id="edge1" class="edge"><title>Node0&#45;&gt;Node1</title>
<path fill="none" stroke="black" d="M41.2367,-190.581C45.9426,-187.682 51.0165,-184.888 56,-182.748 97.0082,-165.142 148.372,-154.969 177.811,-150.171"/>
<polygon fill="black" stroke="black" points="39.2008,-187.731 32.761,-196.144 43.0417,-193.583 39.2008,-187.731"/>
</g>
<!-- Node0&#45;&gt;Node1 -->
<g id="edge8" class="edge"><title>Node0&#45;&gt;Node1</title>
<path fill="none" stroke="darkgreen" stroke-dasharray="5,2" d="M22.1362,-196.218C26.0127,-181.472 35.7518,-153.59 56,-141.748 93.9632,-119.545 147.538,-129.834 177.964,-138.704"/>
<text text-anchor="middle" x="100" y="-144.748" font-family="Helvetica,sans-Serif" font-size="10.00">math_bitwise.scad</text>
</g>
<!-- Node3 -->
<g id="node7" class="node"><title>Node3</title>
<g id="a_node7"><a xlink:href="group__math__oshapes.html" target="_top" xlink:title="Mathematical functions for other shapes. ">
<polygon fill="white" stroke="black" points="164,-72.2481 164,-91.2481 241,-91.2481 241,-72.2481 164,-72.2481"/>
<text text-anchor="middle" x="202.5" y="-79.2481" font-family="Helvetica,sans-Serif" font-size="10.00">Other Shapes</text>
</a>
</g>
</g>
<!-- Node0&#45;&gt;Node3 -->
<g id="edge3" class="edge"><title>Node0&#45;&gt;Node3</title>
<path fill="none" stroke="black" d="M23.5918,-186.304C28.0374,-167.66 37.4196,-140.014 56,-123.748 86.0694,-97.425 131.726,-87.5539 163.859,-83.878"/>
<polygon fill="black" stroke="black" points="20.168,-185.578 21.5126,-196.087 27.0151,-187.034 20.168,-185.578"/>
</g>
<!-- Node0&#45;&gt;Node3 -->
<g id="edge10" class="edge"><title>Node0&#45;&gt;Node3</title>
<path fill="none" stroke="darkgreen" stroke-dasharray="5,2" d="M21.1494,-195.96C24.652,-168.013 36.179,-88.8874 56,-73.7481 91.5857,-46.5679 147.518,-60.7972 178.65,-72.1677"/>
<text text-anchor="middle" x="100" y="-76.7481" font-family="Helvetica,sans-Serif" font-size="10.00">math_oshapes.scad</text>
</g>
<!-- Node5 -->
<g id="node8" class="node"><title>Node5</title>
<g id="a_node8"><a xlink:href="group__math__triangle.html" target="_top" xlink:title="Triangle mathematical functions. ">
<polygon fill="white" stroke="black" points="174.5,-24.2481 174.5,-43.2481 230.5,-43.2481 230.5,-24.2481 174.5,-24.2481"/>
<text text-anchor="middle" x="202.5" y="-31.2481" font-family="Helvetica,sans-Serif" font-size="10.00">Triangles</text>
</a>
</g>
</g>
<!-- Node0&#45;&gt;Node5 -->
<g id="edge5" class="edge"><title>Node0&#45;&gt;Node5</title>
<path fill="none" stroke="black" d="M22.0066,-186.159C26.1645,-149.631 36.9585,-73.2278 56,-55.7481 88.0884,-26.2917 141.974,-26.3135 174.389,-29.6137"/>
<polygon fill="black" stroke="black" points="18.5265,-185.787 20.9274,-196.106 25.4857,-186.542 18.5265,-185.787"/>
</g>
<!-- Node0&#45;&gt;Node5 -->
<g id="edge12" class="edge"><title>Node0&#45;&gt;Node5</title>
<path fill="none" stroke="darkgreen" stroke-dasharray="5,2" d="M20.2726,-195.924C21.4885,-160.223 27.6859,-38.2241 56,-14.7481 93.0645,15.983 154.707,-9.01841 184.434,-24.2101"/>
<text text-anchor="middle" x="100" y="-17.7481" font-family="Helvetica,sans-Serif" font-size="10.00">math_triangle.scad</text>
</g>
</g>
</svg>
