<?xml version="1.0" encoding="UTF-8" standalone="no"?>
<!DOCTYPE svg PUBLIC "-//W3C//DTD SVG 1.1//EN"
 "http://www.w3.org/Graphics/SVG/1.1/DTD/svg11.dtd">
<!-- Generated by graphviz version 2.38.0 (20140413.2041)
 -->
<!-- Title: Extrude Pages: 1 -->
<svg width="216pt" height="80pt"
 viewBox="0.00 0.00 216.00 80.00" xmlns="http://www.w3.org/2000/svg" xmlns:xlink="http://www.w3.org/1999/xlink">
<g id="graph0" class="graph" transform="scale(1 1) rotate(0) translate(4 76)">
<title>Extrude</title>
<polygon fill="white" stroke="none" points="-4,4 -4,-76 212,-76 212,4 -4,4"/>
<!-- Node0 -->
<g id="node1" class="node"><title>Node0</title>
<polygon fill="#bfbfbf" stroke="black" points="0,-18.5 0,-37.5 50,-37.5 50,-18.5 0,-18.5"/>
<text text-anchor="middle" x="25" y="-25.5" font-family="Helvetica,sans-Serif" font-size="10.00">Extrude</text>
</g>
<!-- Node2 -->
<g id="node2" class="node"><title>Node2</title>
<g id="a_node2"><a xlink:href="group__tools__repeat.html" target="_top" xlink:title="Shape repetition and distribution tools. ">
<polygon fill="white" stroke="black" points="160,-52.5 160,-71.5 208,-71.5 208,-52.5 160,-52.5"/>
<text text-anchor="middle" x="184" y="-59.5" font-family="Helvetica,sans-Serif" font-size="10.00">Repeat</text>
</a>
</g>
</g>
<!-- Node0&#45;&gt;Node2 -->
<g id="edge3" class="edge"><title>Node0&#45;&gt;Node2</title>
<path fill="none" stroke="darkgreen" stroke-dasharray="5,2" d="M50.4031,-33.9323C56.1662,-35.2994 62.2941,-36.7256 68,-38 99.6489,-45.0688 136.346,-52.615 159.612,-57.3187"/>
<text text-anchor="middle" x="105" y="-56" font-family="Helvetica,sans-Serif" font-size="10.00">tools_utility.scad</text>
</g>
<!-- Node1 -->
<g id="node3" class="node"><title>Node1</title>
<g id="a_node3"><a xlink:href="group__tools.html" target="_top" xlink:title="Design tools and techniques. ">
<polygon fill="white" stroke="black" points="163.5,-0.5 163.5,-19.5 204.5,-19.5 204.5,-0.5 163.5,-0.5"/>
<text text-anchor="middle" x="184" y="-7.5" font-family="Helvetica,sans-Serif" font-size="10.00">Tools</text>
</a>
</g>
</g>
<!-- Node0&#45;&gt;Node1 -->
<g id="edge2" class="edge"><title>Node0&#45;&gt;Node1</title>
<path fill="none" stroke="darkgreen" stroke-dasharray="5,2" d="M50.1872,-25.2269C81.3247,-21.657 134.824,-15.5234 163.499,-12.2358"/>
<text text-anchor="middle" x="105" y="-26" font-family="Helvetica,sans-Serif" font-size="10.00">tools_utility.scad</text>
</g>
<!-- Node1&#45;&gt;Node0 -->
<g id="edge1" class="edge"><title>Node1&#45;&gt;Node0</title>
<path fill="none" stroke="black" d="M153.182,-6.18695C129.75,-4.03886 96.4342,-2.8676 68,-9 59.3945,-10.8559 50.4298,-14.6249 43.0035,-18.3203"/>
<polygon fill="black" stroke="black" points="152.893,-9.67565 163.199,-7.21992 153.611,-2.71257 152.893,-9.67565"/>
</g>
</g>
</svg>
