solid OpenSCAD_Model
  facet normal -0.57735 0.57735 0.57735
    outer loop
      vertex -35.7407 35.7407 86.2856
      vertex -35.7407 86.2856 35.7407
      vertex -86.2856 35.7407 35.7407
    endloop
  endfacet
  facet normal -0.57735 0.57735 -0.57735
    outer loop
      vertex -35.7407 86.2856 -35.7407
      vertex -35.7407 35.7407 -86.2856
      vertex -86.2856 35.7407 -35.7407
    endloop
  endfacet
  facet normal 0.57735 0.57735 0.57735
    outer loop
      vertex 86.2856 35.7407 35.7407
      vertex 35.7407 86.2856 35.7407
      vertex 35.7407 35.7407 86.2856
    endloop
  endfacet
  facet normal 0.57735 0.57735 -0.57735
    outer loop
      vertex 86.2856 35.7407 -35.7407
      vertex 35.7407 35.7407 -86.2856
      vertex 35.7407 86.2856 -35.7407
    endloop
  endfacet
  facet normal 0.816496 -0.577351 0
    outer loop
      vertex 50.5449 -86.2856 0
      vertex 86.2856 -35.7407 -35.7407
      vertex 86.2856 -35.7407 35.7407
    endloop
  endfacet
  facet normal 0 -0.577351 0.816496
    outer loop
      vertex -35.7407 -35.7407 86.2856
      vertex -0 -86.2856 50.5449
      vertex 35.7407 -35.7407 86.2856
    endloop
  endfacet
  facet normal 0 -0.577351 -0.816496
    outer loop
      vertex -0 -86.2856 -50.5449
      vertex -35.7407 -35.7407 -86.2856
      vertex 35.7407 -35.7407 -86.2856
    endloop
  endfacet
  facet normal -0.816496 -0.577351 -0
    outer loop
      vertex -86.2856 -35.7407 35.7407
      vertex -86.2856 -35.7407 -35.7407
      vertex -50.5449 -86.2856 0
    endloop
  endfacet
  facet normal -0.707107 0.707107 0
    outer loop
      vertex -86.2856 35.7407 -35.7407
      vertex -35.7407 86.2856 35.7407
      vertex -35.7407 86.2856 -35.7407
    endloop
  endfacet
  facet normal -0.707107 0.707107 0
    outer loop
      vertex -35.7407 86.2856 35.7407
      vertex -86.2856 35.7407 -35.7407
      vertex -86.2856 35.7407 35.7407
    endloop
  endfacet
  facet normal 0 0.707107 0.707107
    outer loop
      vertex 35.7407 86.2856 35.7407
      vertex -35.7407 35.7407 86.2856
      vertex 35.7407 35.7407 86.2856
    endloop
  endfacet
  facet normal 0 0.707107 0.707107
    outer loop
      vertex -35.7407 35.7407 86.2856
      vertex 35.7407 86.2856 35.7407
      vertex -35.7407 86.2856 35.7407
    endloop
  endfacet
  facet normal 0 1 -0
    outer loop
      vertex 35.7407 86.2856 -35.7407
      vertex -35.7407 86.2856 35.7407
      vertex 35.7407 86.2856 35.7407
    endloop
  endfacet
  facet normal 0 1 0
    outer loop
      vertex -35.7407 86.2856 35.7407
      vertex 35.7407 86.2856 -35.7407
      vertex -35.7407 86.2856 -35.7407
    endloop
  endfacet
  facet normal 0 0.707107 -0.707107
    outer loop
      vertex 35.7407 35.7407 -86.2856
      vertex -35.7407 86.2856 -35.7407
      vertex 35.7407 86.2856 -35.7407
    endloop
  endfacet
  facet normal 0 0.707107 -0.707107
    outer loop
      vertex -35.7407 86.2856 -35.7407
      vertex 35.7407 35.7407 -86.2856
      vertex -35.7407 35.7407 -86.2856
    endloop
  endfacet
  facet normal 0.707107 0.707107 0
    outer loop
      vertex 86.2856 35.7407 35.7407
      vertex 35.7407 86.2856 -35.7407
      vertex 35.7407 86.2856 35.7407
    endloop
  endfacet
  facet normal 0.707107 0.707107 0
    outer loop
      vertex 35.7407 86.2856 -35.7407
      vertex 86.2856 35.7407 35.7407
      vertex 86.2856 35.7407 -35.7407
    endloop
  endfacet
  facet normal 0.5 -0.707107 0.5
    outer loop
      vertex -0 -86.2856 50.5449
      vertex 86.2856 -35.7407 35.7407
      vertex 35.7407 -35.7407 86.2856
    endloop
  endfacet
  facet normal 0.5 -0.707107 0.5
    outer loop
      vertex 86.2856 -35.7407 35.7407
      vertex -0 -86.2856 50.5449
      vertex 50.5449 -86.2856 0
    endloop
  endfacet
  facet normal 0.5 -0.707107 -0.5
    outer loop
      vertex -0 -86.2856 -50.5449
      vertex 86.2856 -35.7407 -35.7407
      vertex 50.5449 -86.2856 0
    endloop
  endfacet
  facet normal 0.5 -0.707107 -0.5
    outer loop
      vertex 86.2856 -35.7407 -35.7407
      vertex -0 -86.2856 -50.5449
      vertex 35.7407 -35.7407 -86.2856
    endloop
  endfacet
  facet normal 0 -1 0
    outer loop
      vertex -50.5449 -86.2856 0
      vertex 50.5449 -86.2856 0
      vertex -0 -86.2856 50.5449
    endloop
  endfacet
  facet normal -0 -1 0
    outer loop
      vertex 50.5449 -86.2856 0
      vertex -50.5449 -86.2856 0
      vertex -0 -86.2856 -50.5449
    endloop
  endfacet
  facet normal -0.5 -0.707107 0.5
    outer loop
      vertex -86.2856 -35.7407 35.7407
      vertex -0 -86.2856 50.5449
      vertex -35.7407 -35.7407 86.2856
    endloop
  endfacet
  facet normal -0.5 -0.707107 0.5
    outer loop
      vertex -0 -86.2856 50.5449
      vertex -86.2856 -35.7407 35.7407
      vertex -50.5449 -86.2856 0
    endloop
  endfacet
  facet normal -0.5 -0.707107 -0.5
    outer loop
      vertex -86.2856 -35.7407 -35.7407
      vertex -0 -86.2856 -50.5449
      vertex -50.5449 -86.2856 0
    endloop
  endfacet
  facet normal -0.5 -0.707107 -0.5
    outer loop
      vertex -0 -86.2856 -50.5449
      vertex -86.2856 -35.7407 -35.7407
      vertex -35.7407 -35.7407 -86.2856
    endloop
  endfacet
  facet normal -0.707107 0 0.707107
    outer loop
      vertex -86.2856 -35.7407 35.7407
      vertex -35.7407 35.7407 86.2856
      vertex -86.2856 35.7407 35.7407
    endloop
  endfacet
  facet normal -0.707107 0 0.707107
    outer loop
      vertex -35.7407 35.7407 86.2856
      vertex -86.2856 -35.7407 35.7407
      vertex -35.7407 -35.7407 86.2856
    endloop
  endfacet
  facet normal -0 0 1
    outer loop
      vertex -35.7407 35.7407 86.2856
      vertex 35.7407 -35.7407 86.2856
      vertex 35.7407 35.7407 86.2856
    endloop
  endfacet
  facet normal 0 0 1
    outer loop
      vertex 35.7407 -35.7407 86.2856
      vertex -35.7407 35.7407 86.2856
      vertex -35.7407 -35.7407 86.2856
    endloop
  endfacet
  facet normal 0.707107 -0 0.707107
    outer loop
      vertex 35.7407 -35.7407 86.2856
      vertex 86.2856 35.7407 35.7407
      vertex 35.7407 35.7407 86.2856
    endloop
  endfacet
  facet normal 0.707107 0 0.707107
    outer loop
      vertex 86.2856 35.7407 35.7407
      vertex 35.7407 -35.7407 86.2856
      vertex 86.2856 -35.7407 35.7407
    endloop
  endfacet
  facet normal 1 -0 0
    outer loop
      vertex 86.2856 -35.7407 35.7407
      vertex 86.2856 35.7407 -35.7407
      vertex 86.2856 35.7407 35.7407
    endloop
  endfacet
  facet normal 1 0 0
    outer loop
      vertex 86.2856 35.7407 -35.7407
      vertex 86.2856 -35.7407 35.7407
      vertex 86.2856 -35.7407 -35.7407
    endloop
  endfacet
  facet normal 0.707107 0 -0.707107
    outer loop
      vertex 86.2856 -35.7407 -35.7407
      vertex 35.7407 35.7407 -86.2856
      vertex 86.2856 35.7407 -35.7407
    endloop
  endfacet
  facet normal 0.707107 0 -0.707107
    outer loop
      vertex 35.7407 35.7407 -86.2856
      vertex 86.2856 -35.7407 -35.7407
      vertex 35.7407 -35.7407 -86.2856
    endloop
  endfacet
  facet normal 0 0 -1
    outer loop
      vertex -35.7407 -35.7407 -86.2856
      vertex 35.7407 35.7407 -86.2856
      vertex 35.7407 -35.7407 -86.2856
    endloop
  endfacet
  facet normal -0 0 -1
    outer loop
      vertex 35.7407 35.7407 -86.2856
      vertex -35.7407 -35.7407 -86.2856
      vertex -35.7407 35.7407 -86.2856
    endloop
  endfacet
  facet normal -0.707107 0 -0.707107
    outer loop
      vertex -35.7407 -35.7407 -86.2856
      vertex -86.2856 35.7407 -35.7407
      vertex -35.7407 35.7407 -86.2856
    endloop
  endfacet
  facet normal -0.707107 -0 -0.707107
    outer loop
      vertex -86.2856 35.7407 -35.7407
      vertex -35.7407 -35.7407 -86.2856
      vertex -86.2856 -35.7407 -35.7407
    endloop
  endfacet
  facet normal -1 0 0
    outer loop
      vertex -86.2856 -35.7407 -35.7407
      vertex -86.2856 35.7407 35.7407
      vertex -86.2856 35.7407 -35.7407
    endloop
  endfacet
  facet normal -1 -0 0
    outer loop
      vertex -86.2856 35.7407 35.7407
      vertex -86.2856 -35.7407 -35.7407
      vertex -86.2856 -35.7407 35.7407
    endloop
  endfacet
endsolid OpenSCAD_Model
