solid OpenSCAD_Model
  facet normal -0.947072 0.091442 -0.307721
    outer loop
      vertex -77.4182 -4.95073 -56.2477
      vertex -91.0105 -55.9548 -29.5711
      vertex -95.6941 -4.95066 0
    endloop
  endfacet
  facet normal -0.99581 -0.0914432 -4.41765e-07
    outer loop
      vertex -95.6941 -4.95066 0
      vertex -91.0105 -55.9548 -29.5711
      vertex -91.0105 -55.9547 29.5712
    endloop
  endfacet
  facet normal -0.947072 0.0914432 0.307721
    outer loop
      vertex -95.6941 -4.95066 0
      vertex -91.0105 -55.9547 29.5712
      vertex -77.4182 -4.95062 56.2476
    endloop
  endfacet
  facet normal -0.805628 -0.0914439 0.585322
    outer loop
      vertex -77.4182 -4.95062 56.2476
      vertex -91.0105 -55.9547 29.5712
      vertex -56.2476 -55.9547 77.4183
    endloop
  endfacet
  facet normal -0.585322 0.0914439 0.805628
    outer loop
      vertex -77.4182 -4.95062 56.2476
      vertex -56.2476 -55.9547 77.4183
      vertex -29.5711 -4.95049 91.0105
    endloop
  endfacet
  facet normal -0.307723 -0.0914412 0.947072
    outer loop
      vertex -29.5711 -4.95049 91.0105
      vertex -56.2476 -55.9547 77.4183
      vertex 2.46e-07 -55.9545 95.6942
    endloop
  endfacet
  facet normal -1.73118e-06 0.091445 0.99581
    outer loop
      vertex -29.5711 -4.95049 91.0105
      vertex 2.46e-07 -55.9545 95.6942
      vertex 29.5711 -4.95045 91.0106
    endloop
  endfacet
  facet normal 0.307722 -0.0914426 0.947072
    outer loop
      vertex 29.5711 -4.95045 91.0106
      vertex 2.46e-07 -55.9545 95.6942
      vertex 56.2476 -55.9545 77.4183
    endloop
  endfacet
  facet normal 0.585323 0.0914439 0.805627
    outer loop
      vertex 29.5711 -4.95045 91.0106
      vertex 56.2476 -55.9545 77.4183
      vertex 77.4182 -4.95041 56.2476
    endloop
  endfacet
  facet normal 0.805627 -0.0914426 0.585323
    outer loop
      vertex 77.4182 -4.95041 56.2476
      vertex 56.2476 -55.9545 77.4183
      vertex 91.0105 -55.9545 29.5712
    endloop
  endfacet
  facet normal -1.00091e-06 0.794655 0.607061
    outer loop
      vertex -29.5712 76.4518 40.7011
      vertex -0.000111921 45.3589 81.4023
      vertex 29.571 76.4518 40.7011
    endloop
  endfacet
  facet normal -1.77277e-06 0.187593 0.982247
    outer loop
      vertex -0.000111921 45.3589 81.4023
      vertex -29.5711 -4.95049 91.0105
      vertex 29.5711 -4.95045 91.0106
    endloop
  endfacet
  facet normal 0.577349 0.794656 0.187591
    outer loop
      vertex 29.571 76.4518 40.7011
      vertex 77.4181 45.359 25.1547
      vertex 47.847 76.4517 -15.5465
    endloop
  endfacet
  facet normal 0.934172 0.187593 0.30353
    outer loop
      vertex 77.4181 45.359 25.1547
      vertex 77.4182 -4.95041 56.2476
      vertex 95.6941 -4.9505 6.4329e-05
    endloop
  endfacet
  facet normal 0.356822 0.794654 -0.491124
    outer loop
      vertex 47.847 76.4517 -15.5465
      vertex 47.8471 45.3587 -65.8559
      vertex -7.0745e-05 76.4517 -50.3095
    endloop
  endfacet
  facet normal 0.577351 0.187591 -0.794654
    outer loop
      vertex 47.8471 45.3587 -65.8559
      vertex 77.4182 -4.95061 -56.2475
      vertex 29.5711 -4.95065 -91.0105
    endloop
  endfacet
  facet normal -0.356823 0.794654 -0.491124
    outer loop
      vertex -7.0745e-05 76.4517 -50.3095
      vertex -47.8471 45.3587 -65.8559
      vertex -47.8471 76.4517 -15.5465
    endloop
  endfacet
  facet normal -0.57735 0.187592 -0.794655
    outer loop
      vertex -47.8471 45.3587 -65.8559
      vertex -29.5711 -4.95072 -91.0105
      vertex -77.4182 -4.95073 -56.2477
    endloop
  endfacet
  facet normal -0.577351 0.794655 0.187591
    outer loop
      vertex -47.8471 76.4517 -15.5465
      vertex -77.4182 45.3588 25.1546
      vertex -29.5712 76.4518 40.7011
    endloop
  endfacet
  facet normal -0.934173 0.187592 0.303529
    outer loop
      vertex -77.4182 45.3588 25.1546
      vertex -95.6941 -4.95066 0
      vertex -77.4182 -4.95062 56.2476
    endloop
  endfacet
  facet normal 0.947072 0.0914438 0.307722
    outer loop
      vertex 77.4182 -4.95041 56.2476
      vertex 91.0105 -55.9545 29.5712
      vertex 95.6941 -4.9505 6.4329e-05
    endloop
  endfacet
  facet normal 0.99581 -0.0914422 1.15025e-06
    outer loop
      vertex 95.6941 -4.9505 6.4329e-05
      vertex 91.0105 -55.9545 29.5712
      vertex 91.0106 -55.9545 -29.571
    endloop
  endfacet
  facet normal 0.947072 0.0914446 -0.307722
    outer loop
      vertex 95.6941 -4.9505 6.4329e-05
      vertex 91.0106 -55.9545 -29.571
      vertex 77.4182 -4.95061 -56.2475
    endloop
  endfacet
  facet normal 0.805628 -0.0914426 -0.585322
    outer loop
      vertex 77.4182 -4.95061 -56.2475
      vertex 91.0106 -55.9545 -29.571
      vertex 56.2477 -55.9548 -77.418
    endloop
  endfacet
  facet normal 0.585323 0.091443 -0.805627
    outer loop
      vertex 77.4182 -4.95061 -56.2475
      vertex 56.2477 -55.9548 -77.418
      vertex 29.5711 -4.95065 -91.0105
    endloop
  endfacet
  facet normal 0.307723 -0.0914445 -0.947071
    outer loop
      vertex 29.5711 -4.95065 -91.0105
      vertex 56.2477 -55.9548 -77.418
      vertex 5.2303e-05 -55.9548 -95.6941
    endloop
  endfacet
  facet normal 2.08209e-08 0.0914421 -0.99581
    outer loop
      vertex 29.5711 -4.95065 -91.0105
      vertex 5.2303e-05 -55.9548 -95.6941
      vertex -29.5711 -4.95072 -91.0105
    endloop
  endfacet
  facet normal -0.307722 -0.0914446 -0.947072
    outer loop
      vertex -29.5711 -4.95072 -91.0105
      vertex 5.2303e-05 -55.9548 -95.6941
      vertex -56.2475 -55.9548 -77.4181
    endloop
  endfacet
  facet normal -0.585322 0.0914412 -0.805628
    outer loop
      vertex -29.5711 -4.95072 -91.0105
      vertex -56.2475 -55.9548 -77.4181
      vertex -77.4182 -4.95073 -56.2477
    endloop
  endfacet
  facet normal -0.805627 -0.0914459 -0.585323
    outer loop
      vertex -77.4182 -4.95073 -56.2477
      vertex -56.2475 -55.9548 -77.4181
      vertex -91.0105 -55.9548 -29.5711
    endloop
  endfacet
  facet normal -1.16101e-06 1 -2.00491e-06
    outer loop
      vertex 47.847 76.4517 -15.5465
      vertex -29.5712 76.4518 40.7011
      vertex 29.571 76.4518 40.7011
    endloop
  endfacet
  facet normal -8.76995e-07 1 -1.614e-06
    outer loop
      vertex 47.847 76.4517 -15.5465
      vertex -47.8471 76.4517 -15.5465
      vertex -29.5712 76.4518 40.7011
    endloop
  endfacet
  facet normal -8.76996e-07 1 1.09734e-07
    outer loop
      vertex -47.8471 76.4517 -15.5465
      vertex 47.847 76.4517 -15.5465
      vertex -7.0745e-05 76.4517 -50.3095
    endloop
  endfacet
  facet normal -0.525732 0.447214 0.723606
    outer loop
      vertex -77.4182 45.3588 25.1546
      vertex -0.000111921 45.3589 81.4023
      vertex -29.5712 76.4518 40.7011
    endloop
  endfacet
  facet normal -0.525733 0.447213 0.723606
    outer loop
      vertex -0.000111921 45.3589 81.4023
      vertex -77.4182 45.3588 25.1546
      vertex -29.5711 -4.95049 91.0105
    endloop
  endfacet
  facet normal -0.525731 0.447214 0.723606
    outer loop
      vertex -29.5711 -4.95049 91.0105
      vertex -77.4182 45.3588 25.1546
      vertex -77.4182 -4.95062 56.2476
    endloop
  endfacet
  facet normal 0.525731 0.447214 0.723607
    outer loop
      vertex 77.4181 45.359 25.1547
      vertex 29.5711 -4.95045 91.0106
      vertex 77.4182 -4.95041 56.2476
    endloop
  endfacet
  facet normal 0.52573 0.447215 0.723607
    outer loop
      vertex -0.000111921 45.3589 81.4023
      vertex 77.4181 45.359 25.1547
      vertex 29.571 76.4518 40.7011
    endloop
  endfacet
  facet normal 0.52573 0.447215 0.723607
    outer loop
      vertex 77.4181 45.359 25.1547
      vertex -0.000111921 45.3589 81.4023
      vertex 29.5711 -4.95045 91.0106
    endloop
  endfacet
  facet normal 0.85065 0.447214 -0.276395
    outer loop
      vertex 95.6941 -4.9505 6.4329e-05
      vertex 47.847 76.4517 -15.5465
      vertex 77.4181 45.359 25.1547
    endloop
  endfacet
  facet normal 0.850651 0.447214 -0.276393
    outer loop
      vertex 47.847 76.4517 -15.5465
      vertex 95.6941 -4.9505 6.4329e-05
      vertex 47.8471 45.3587 -65.8559
    endloop
  endfacet
  facet normal 0.850651 0.447213 -0.276394
    outer loop
      vertex 47.8471 45.3587 -65.8559
      vertex 95.6941 -4.9505 6.4329e-05
      vertex 77.4182 -4.95061 -56.2475
    endloop
  endfacet
  facet normal 6.85846e-07 0.447213 -0.894428
    outer loop
      vertex 29.5711 -4.95065 -91.0105
      vertex -7.0745e-05 76.4517 -50.3095
      vertex 47.8471 45.3587 -65.8559
    endloop
  endfacet
  facet normal -4.11046e-07 0.447212 -0.894428
    outer loop
      vertex -29.5711 -4.95072 -91.0105
      vertex -7.0745e-05 76.4517 -50.3095
      vertex 29.5711 -4.95065 -91.0105
    endloop
  endfacet
  facet normal -6.65171e-07 0.447212 -0.894428
    outer loop
      vertex -7.0745e-05 76.4517 -50.3095
      vertex -29.5711 -4.95072 -91.0105
      vertex -47.8471 45.3587 -65.8559
    endloop
  endfacet
  facet normal -0.850651 0.447212 -0.276393
    outer loop
      vertex -95.6941 -4.95066 0
      vertex -47.8471 76.4517 -15.5465
      vertex -47.8471 45.3587 -65.8559
    endloop
  endfacet
  facet normal -0.850651 0.447212 -0.276396
    outer loop
      vertex -47.8471 76.4517 -15.5465
      vertex -95.6941 -4.95066 0
      vertex -77.4182 45.3588 25.1546
    endloop
  endfacet
  facet normal -0.850651 0.447213 -0.276393
    outer loop
      vertex -95.6941 -4.95066 0
      vertex -47.8471 45.3587 -65.8559
      vertex -77.4182 -4.95073 -56.2477
    endloop
  endfacet
  facet normal 1.25466e-06 -1 3.86146e-06
    outer loop
      vertex -56.2476 -55.9547 77.4183
      vertex 56.2476 -55.9545 77.4183
      vertex 2.46e-07 -55.9545 95.6942
    endloop
  endfacet
  facet normal 1.25467e-06 -1 9.11568e-07
    outer loop
      vertex -56.2476 -55.9547 77.4183
      vertex 91.0105 -55.9545 29.5712
      vertex 56.2476 -55.9545 77.4183
    endloop
  endfacet
  facet normal 6.28724e-07 -1 -1.01488e-06
    outer loop
      vertex -91.0105 -55.9547 29.5712
      vertex 91.0105 -55.9545 29.5712
      vertex -56.2476 -55.9547 77.4183
    endloop
  endfacet
  facet normal 6.28724e-07 -1 -6.44997e-08
    outer loop
      vertex -91.0105 -55.9547 29.5712
      vertex 91.0106 -55.9545 -29.571
      vertex 91.0105 -55.9545 29.5712
    endloop
  endfacet
  facet normal 1.36223e-06 -1 2.19301e-06
    outer loop
      vertex -91.0105 -55.9548 -29.5711
      vertex 91.0106 -55.9545 -29.571
      vertex -91.0105 -55.9547 29.5712
    endloop
  endfacet
  facet normal 1.36223e-06 -1 3.47499e-06
    outer loop
      vertex -91.0105 -55.9548 -29.5711
      vertex 56.2477 -55.9548 -77.418
      vertex 91.0106 -55.9545 -29.571
    endloop
  endfacet
  facet normal 3.05188e-07 -1 2.21732e-07
    outer loop
      vertex -56.2475 -55.9548 -77.4181
      vertex 56.2477 -55.9548 -77.418
      vertex -91.0105 -55.9548 -29.5711
    endloop
  endfacet
  facet normal 3.05188e-07 -1 9.39272e-07
    outer loop
      vertex 56.2477 -55.9548 -77.418
      vertex -56.2475 -55.9548 -77.4181
      vertex 5.2303e-05 -55.9548 -95.6941
    endloop
  endfacet
endsolid OpenSCAD_Model
