solid OpenSCAD_Model
  facet normal 0 1 0
    outer loop
      vertex 50 50 0
      vertex -50 50 0
      vertex 0 50 86.6025
    endloop
  endfacet
  facet normal 0 -1 0
    outer loop
      vertex -50 -50 0
      vertex 50 -50 0
      vertex -0 -50 86.6025
    endloop
  endfacet
  facet normal -1 0 0
    outer loop
      vertex -50 -50 0
      vertex -50 50 0
      vertex -50 -0 -86.6025
    endloop
  endfacet
  facet normal 1 0 0
    outer loop
      vertex 50 50 0
      vertex 50 -50 0
      vertex 50 0 -86.6025
    endloop
  endfacet
  facet normal -0.866025 0 0.5
    outer loop
      vertex -50 -50 0
      vertex 0 50 86.6025
      vertex -50 50 0
    endloop
  endfacet
  facet normal -0.866025 0 0.5
    outer loop
      vertex 0 50 86.6025
      vertex -50 -50 0
      vertex -0 -50 86.6025
    endloop
  endfacet
  facet normal 0.866025 -0 0.5
    outer loop
      vertex -0 -50 86.6025
      vertex 50 50 0
      vertex 0 50 86.6025
    endloop
  endfacet
  facet normal 0.866025 0 0.5
    outer loop
      vertex 50 50 0
      vertex -0 -50 86.6025
      vertex 50 -50 0
    endloop
  endfacet
  facet normal 0 0.866025 -0.5
    outer loop
      vertex 50 0 -86.6025
      vertex -50 50 0
      vertex 50 50 0
    endloop
  endfacet
  facet normal 0 0.866025 -0.5
    outer loop
      vertex -50 50 0
      vertex 50 0 -86.6025
      vertex -50 -0 -86.6025
    endloop
  endfacet
  facet normal 0 -0.866025 -0.5
    outer loop
      vertex -50 -0 -86.6025
      vertex 50 -50 0
      vertex -50 -50 0
    endloop
  endfacet
  facet normal 0 -0.866025 -0.5
    outer loop
      vertex 50 -50 0
      vertex -50 -0 -86.6025
      vertex 50 0 -86.6025
    endloop
  endfacet
endsolid OpenSCAD_Model
