solid OpenSCAD_Model
  facet normal -0.934172 0.187592 -0.303531
    outer loop
      vertex -50.3657 34.1344 -69.3224
      vertex -81.4934 -51.5528 -26.4788
      vertex -81.4934 34.1344 26.4788
    endloop
  endfacet
  facet normal -0.934172 -0.187592 0.303531
    outer loop
      vertex -81.4934 34.1344 26.4788
      vertex -81.4934 -51.5528 -26.4788
      vertex -50.3657 -51.5528 69.3224
    endloop
  endfacet
  facet normal -0.57735 0.187592 0.794654
    outer loop
      vertex -81.4934 34.1344 26.4788
      vertex -50.3657 -51.5528 69.3224
      vertex 0 34.1344 85.6873
    endloop
  endfacet
  facet normal 0 -0.187593 0.982247
    outer loop
      vertex 0 34.1344 85.6873
      vertex -50.3657 -51.5528 69.3224
      vertex 50.3657 -51.5528 69.3224
    endloop
  endfacet
  facet normal 0.57735 0.187592 0.794654
    outer loop
      vertex 0 34.1344 85.6873
      vertex 50.3657 -51.5528 69.3224
      vertex 81.4934 34.1344 26.4788
    endloop
  endfacet
  facet normal 0.934172 -0.187592 0.303531
    outer loop
      vertex 81.4934 34.1344 26.4788
      vertex 50.3657 -51.5528 69.3224
      vertex 81.4934 -51.5528 -26.4788
    endloop
  endfacet
  facet normal 0.934172 0.187592 -0.303531
    outer loop
      vertex 81.4934 34.1344 26.4788
      vertex 81.4934 -51.5528 -26.4788
      vertex 50.3657 34.1344 -69.3224
    endloop
  endfacet
  facet normal 0.57735 -0.187592 -0.794654
    outer loop
      vertex 50.3657 34.1344 -69.3224
      vertex 81.4934 -51.5528 -26.4788
      vertex -0 -51.5528 -85.6873
    endloop
  endfacet
  facet normal 0 0.187593 -0.982247
    outer loop
      vertex 50.3657 34.1344 -69.3224
      vertex -0 -51.5528 -85.6873
      vertex -50.3657 34.1344 -69.3224
    endloop
  endfacet
  facet normal -0.57735 -0.187592 -0.794654
    outer loop
      vertex -50.3657 34.1344 -69.3224
      vertex -0 -51.5528 -85.6873
      vertex -81.4934 -51.5528 -26.4788
    endloop
  endfacet
  facet normal -0.57735 0.794654 -0.187592
    outer loop
      vertex -50.3657 34.1344 -69.3224
      vertex -81.4934 34.1344 26.4788
      vertex 0 87.0921 0
    endloop
  endfacet
  facet normal -0.356822 0.794654 0.491123
    outer loop
      vertex -81.4934 34.1344 26.4788
      vertex 0 34.1344 85.6873
      vertex 0 87.0921 0
    endloop
  endfacet
  facet normal 0.356822 0.794654 0.491123
    outer loop
      vertex 0 34.1344 85.6873
      vertex 81.4934 34.1344 26.4788
      vertex 0 87.0921 0
    endloop
  endfacet
  facet normal 0.57735 0.794654 -0.187592
    outer loop
      vertex 81.4934 34.1344 26.4788
      vertex 50.3657 34.1344 -69.3224
      vertex 0 87.0921 0
    endloop
  endfacet
  facet normal 0 0.794654 -0.607062
    outer loop
      vertex 50.3657 34.1344 -69.3224
      vertex -50.3657 34.1344 -69.3224
      vertex 0 87.0921 0
    endloop
  endfacet
  facet normal 0 -1 0
    outer loop
      vertex -81.4934 -51.5528 -26.4788
      vertex 50.3657 -51.5528 69.3224
      vertex -50.3657 -51.5528 69.3224
    endloop
  endfacet
  facet normal 0 -1 0
    outer loop
      vertex -81.4934 -51.5528 -26.4788
      vertex 81.4934 -51.5528 -26.4788
      vertex 50.3657 -51.5528 69.3224
    endloop
  endfacet
  facet normal -0 -1 0
    outer loop
      vertex 81.4934 -51.5528 -26.4788
      vertex -81.4934 -51.5528 -26.4788
      vertex -0 -51.5528 -85.6873
    endloop
  endfacet
endsolid OpenSCAD_Model
