solid OpenSCAD_Model
  facet normal -0.522358 -0.852727 0
    outer loop
      vertex -85.4036 -14.0901 50.0769
      vertex -0 -66.4061 -50.0768
      vertex -0 -66.4061 50.0768
    endloop
  endfacet
  facet normal -0.522358 -0.852727 0
    outer loop
      vertex -0 -66.4061 -50.0768
      vertex -85.4036 -14.0901 50.0769
      vertex -85.4036 -14.0901 -50.0769
    endloop
  endfacet
  facet normal 0.522358 -0.852726 0
    outer loop
      vertex -0 -66.4061 -50.0768
      vertex 85.4036 -14.0901 50.0768
      vertex -0 -66.4061 50.0768
    endloop
  endfacet
  facet normal 0.522358 -0.852726 0
    outer loop
      vertex 85.4036 -14.0901 50.0768
      vertex -0 -66.4061 -50.0768
      vertex 85.4036 -14.0901 -50.0768
    endloop
  endfacet
  facet normal -3.66011e-08 0.911553 -0.411183
    outer loop
      vertex 50.0767 65.1252 -2.9828e-05
      vertex -1.8523e-05 29.461 -79.0642
      vertex -50.0767 65.1252 2.9828e-05
    endloop
  endfacet
  facet normal -0.515391 0.610205 0.601683
    outer loop
      vertex -50.0767 65.1252 2.9828e-05
      vertex -85.4036 -14.0901 50.0769
      vertex -7.6e-06 29.461 79.0642
    endloop
  endfacet
  facet normal -0.515391 0.610205 -0.601683
    outer loop
      vertex -50.0767 65.1252 2.9828e-05
      vertex -1.8523e-05 29.461 -79.0642
      vertex -85.4036 -14.0901 -50.0769
    endloop
  endfacet
  facet normal -0.913297 0.407295 0
    outer loop
      vertex -50.0767 65.1252 2.9828e-05
      vertex -85.4036 -14.0901 -50.0769
      vertex -85.4036 -14.0901 50.0769
    endloop
  endfacet
  facet normal -0.174573 -0.284984 0.942501
    outer loop
      vertex -85.4036 -14.0901 50.0769
      vertex -0 -66.4061 50.0768
      vertex -7.6e-06 29.461 79.0642
    endloop
  endfacet
  facet normal 0.174574 -0.284984 0.942501
    outer loop
      vertex -7.6e-06 29.461 79.0642
      vertex -0 -66.4061 50.0768
      vertex 85.4036 -14.0901 50.0768
    endloop
  endfacet
  facet normal -0.174573 -0.284985 -0.942501
    outer loop
      vertex -1.8523e-05 29.461 -79.0642
      vertex -0 -66.4061 -50.0768
      vertex -85.4036 -14.0901 -50.0769
    endloop
  endfacet
  facet normal 0.174574 -0.284984 -0.942501
    outer loop
      vertex -0 -66.4061 -50.0768
      vertex -1.8523e-05 29.461 -79.0642
      vertex 85.4036 -14.0901 -50.0768
    endloop
  endfacet
  facet normal 0.515391 0.610204 0.601683
    outer loop
      vertex 85.4036 -14.0901 50.0768
      vertex 50.0767 65.1252 -2.9828e-05
      vertex -7.6e-06 29.461 79.0642
    endloop
  endfacet
  facet normal 0.913297 0.407294 0
    outer loop
      vertex 85.4036 -14.0901 50.0768
      vertex 85.4036 -14.0901 -50.0768
      vertex 50.0767 65.1252 -2.9828e-05
    endloop
  endfacet
  facet normal 0.515391 0.610204 -0.601683
    outer loop
      vertex 50.0767 65.1252 -2.9828e-05
      vertex 85.4036 -14.0901 -50.0768
      vertex -1.8523e-05 29.461 -79.0642
    endloop
  endfacet
  facet normal 4.53238e-07 0.911553 0.411183
    outer loop
      vertex -7.6e-06 29.461 79.0642
      vertex 50.0767 65.1252 -2.9828e-05
      vertex -50.0767 65.1252 2.9828e-05
    endloop
  endfacet
endsolid OpenSCAD_Model
