solid OpenSCAD_Model
  facet normal 0 -1 0
    outer loop
      vertex -76.0816 -34.4324 4.16667
      vertex 27.2155 -34.4324 63.8053
      vertex -41.6492 -34.4324 63.8053
    endloop
  endfacet
  facet normal 0 -1 0
    outer loop
      vertex -76.0816 -34.4324 4.16667
      vertex 61.6479 -34.4324 4.16667
      vertex 27.2155 -34.4324 63.8053
    endloop
  endfacet
  facet normal 0 -1 0
    outer loop
      vertex -41.6492 -34.4324 -55.4719
      vertex 61.6479 -34.4324 4.16667
      vertex -76.0816 -34.4324 4.16667
    endloop
  endfacet
  facet normal 0 -1 0
    outer loop
      vertex 61.6479 -34.4324 4.16667
      vertex -41.6492 -34.4324 -55.4719
      vertex 27.2155 -34.4324 -55.4719
    endloop
  endfacet
  facet normal 0 1 0
    outer loop
      vertex 61.6479 34.4324 4.16667
      vertex -41.6492 34.4324 63.8053
      vertex 27.2155 34.4324 63.8053
    endloop
  endfacet
  facet normal 0 1 0
    outer loop
      vertex 61.6479 34.4324 4.16667
      vertex -76.0816 34.4324 4.16667
      vertex -41.6492 34.4324 63.8053
    endloop
  endfacet
  facet normal 0 1 -0
    outer loop
      vertex 27.2155 34.4324 -55.4719
      vertex -76.0816 34.4324 4.16667
      vertex 61.6479 34.4324 4.16667
    endloop
  endfacet
  facet normal 0 1 0
    outer loop
      vertex -76.0816 34.4324 4.16667
      vertex 27.2155 34.4324 -55.4719
      vertex -41.6492 34.4324 -55.4719
    endloop
  endfacet
  facet normal -0.866025 0 -0.5
    outer loop
      vertex -41.6492 -34.4324 -55.4719
      vertex -76.0816 34.4324 4.16667
      vertex -41.6492 34.4324 -55.4719
    endloop
  endfacet
  facet normal -0.866025 -0 -0.5
    outer loop
      vertex -76.0816 34.4324 4.16667
      vertex -41.6492 -34.4324 -55.4719
      vertex -76.0816 -34.4324 4.16667
    endloop
  endfacet
  facet normal 0 0 -1
    outer loop
      vertex -41.6492 -34.4324 -55.4719
      vertex 27.2155 34.4324 -55.4719
      vertex 27.2155 -34.4324 -55.4719
    endloop
  endfacet
  facet normal -0 0 -1
    outer loop
      vertex 27.2155 34.4324 -55.4719
      vertex -41.6492 -34.4324 -55.4719
      vertex -41.6492 34.4324 -55.4719
    endloop
  endfacet
  facet normal 0.866025 -0 0.5
    outer loop
      vertex 27.2155 -34.4324 63.8053
      vertex 61.6479 34.4324 4.16667
      vertex 27.2155 34.4324 63.8053
    endloop
  endfacet
  facet normal 0.866025 0 0.5
    outer loop
      vertex 61.6479 34.4324 4.16667
      vertex 27.2155 -34.4324 63.8053
      vertex 61.6479 -34.4324 4.16667
    endloop
  endfacet
  facet normal -0 0 1
    outer loop
      vertex -41.6492 34.4324 63.8053
      vertex 27.2155 -34.4324 63.8053
      vertex 27.2155 34.4324 63.8053
    endloop
  endfacet
  facet normal 0 0 1
    outer loop
      vertex 27.2155 -34.4324 63.8053
      vertex -41.6492 34.4324 63.8053
      vertex -41.6492 -34.4324 63.8053
    endloop
  endfacet
  facet normal -0.866025 0 0.5
    outer loop
      vertex -76.0816 -34.4324 4.16667
      vertex -41.6492 34.4324 63.8053
      vertex -76.0816 34.4324 4.16667
    endloop
  endfacet
  facet normal -0.866025 0 0.5
    outer loop
      vertex -41.6492 34.4324 63.8053
      vertex -76.0816 -34.4324 4.16667
      vertex -41.6492 -34.4324 63.8053
    endloop
  endfacet
  facet normal 0.5 -0.816497 -0.288675
    outer loop
      vertex 27.2155 -34.4324 -55.4719
      vertex 86.6025 0 -50
      vertex 61.6479 -34.4324 4.16667
    endloop
  endfacet
  facet normal 0.0917517 0 -0.995782
    outer loop
      vertex 27.2155 -34.4324 -55.4719
      vertex 27.2155 34.4324 -55.4719
      vertex 86.6025 0 -50
    endloop
  endfacet
  facet normal 0.908248 -0 0.418432
    outer loop
      vertex 61.6479 -34.4324 4.16667
      vertex 86.6025 0 -50
      vertex 61.6479 34.4324 4.16667
    endloop
  endfacet
  facet normal 0.5 0.816497 -0.288675
    outer loop
      vertex 61.6479 34.4324 4.16667
      vertex 86.6025 0 -50
      vertex 27.2155 34.4324 -55.4719
    endloop
  endfacet
endsolid OpenSCAD_Model
