solid OpenSCAD_Model
  facet normal 1 0 0
    outer loop
      vertex 93.8046 0 34.6512
      vertex 93.8046 0 -34.6512
      vertex 93.8046 34.6512 0
    endloop
  endfacet
  facet normal 1 0 -0
    outer loop
      vertex 93.8046 0 -34.6512
      vertex 93.8046 0 34.6512
      vertex 93.8046 -34.6512 0
    endloop
  endfacet
  facet normal 0.707107 0.5 -0.5
    outer loop
      vertex 93.8046 34.6512 0
      vertex 59.1533 24.5021 -59.1533
      vertex 59.1533 59.1533 -24.5021
    endloop
  endfacet
  facet normal 0.707107 0.5 -0.5
    outer loop
      vertex 59.1533 24.5021 -59.1533
      vertex 93.8046 34.6512 0
      vertex 93.8046 0 -34.6512
    endloop
  endfacet
  facet normal 0.57735 0.816497 0
    outer loop
      vertex 93.8046 34.6512 0
      vertex 59.1533 59.1533 -24.5021
      vertex 59.1533 59.1533 24.5021
    endloop
  endfacet
  facet normal 0.707107 0.5 0.5
    outer loop
      vertex 59.1533 24.5021 59.1533
      vertex 93.8046 34.6512 0
      vertex 59.1533 59.1533 24.5021
    endloop
  endfacet
  facet normal 0.707107 0.5 0.5
    outer loop
      vertex 93.8046 34.6512 0
      vertex 59.1533 24.5021 59.1533
      vertex 93.8046 0 34.6512
    endloop
  endfacet
  facet normal 0.57735 0 0.816497
    outer loop
      vertex 93.8046 0 34.6512
      vertex 59.1533 24.5021 59.1533
      vertex 59.1533 -24.5021 59.1533
    endloop
  endfacet
  facet normal 0.707107 -0.5 0.5
    outer loop
      vertex 59.1533 -24.5021 59.1533
      vertex 93.8046 -34.6512 0
      vertex 93.8046 0 34.6512
    endloop
  endfacet
  facet normal 0.707107 -0.5 0.5
    outer loop
      vertex 93.8046 -34.6512 0
      vertex 59.1533 -24.5021 59.1533
      vertex 59.1533 -59.1533 24.5021
    endloop
  endfacet
  facet normal 0.57735 -0.816497 0
    outer loop
      vertex 93.8046 -34.6512 0
      vertex 59.1533 -59.1533 24.5021
      vertex 59.1533 -59.1533 -24.5021
    endloop
  endfacet
  facet normal 0.707107 -0.5 -0.5
    outer loop
      vertex 93.8046 -34.6512 0
      vertex 59.1533 -24.5021 -59.1533
      vertex 93.8046 0 -34.6512
    endloop
  endfacet
  facet normal 0.707107 -0.5 -0.5
    outer loop
      vertex 59.1533 -24.5021 -59.1533
      vertex 93.8046 -34.6512 0
      vertex 59.1533 -59.1533 -24.5021
    endloop
  endfacet
  facet normal 0.57735 0 -0.816497
    outer loop
      vertex 93.8046 0 -34.6512
      vertex 59.1533 -24.5021 -59.1533
      vertex 59.1533 24.5021 -59.1533
    endloop
  endfacet
  facet normal -1 0 0
    outer loop
      vertex -93.8046 -0 -34.6512
      vertex -93.8046 -0 34.6512
      vertex -93.8046 34.6512 0
    endloop
  endfacet
  facet normal -1 0 -0
    outer loop
      vertex -93.8046 -0 34.6512
      vertex -93.8046 -0 -34.6512
      vertex -93.8046 -34.6512 0
    endloop
  endfacet
  facet normal -0.707107 -0.5 -0.5
    outer loop
      vertex -59.1533 -24.5021 -59.1533
      vertex -93.8046 -34.6512 0
      vertex -93.8046 -0 -34.6512
    endloop
  endfacet
  facet normal -0.707107 -0.5 -0.5
    outer loop
      vertex -93.8046 -34.6512 0
      vertex -59.1533 -24.5021 -59.1533
      vertex -59.1533 -59.1533 -24.5021
    endloop
  endfacet
  facet normal -0.57735 -0.816497 0
    outer loop
      vertex -93.8046 -34.6512 0
      vertex -59.1533 -59.1533 -24.5021
      vertex -59.1533 -59.1533 24.5021
    endloop
  endfacet
  facet normal -0.707107 -0.5 0.5
    outer loop
      vertex -93.8046 -34.6512 0
      vertex -59.1533 -24.5021 59.1533
      vertex -93.8046 -0 34.6512
    endloop
  endfacet
  facet normal -0.707107 -0.5 0.5
    outer loop
      vertex -59.1533 -24.5021 59.1533
      vertex -93.8046 -34.6512 0
      vertex -59.1533 -59.1533 24.5021
    endloop
  endfacet
  facet normal -0.57735 0 0.816497
    outer loop
      vertex -93.8046 -0 34.6512
      vertex -59.1533 -24.5021 59.1533
      vertex -59.1533 24.5021 59.1533
    endloop
  endfacet
  facet normal -0.707107 0.5 0.5
    outer loop
      vertex -93.8046 34.6512 0
      vertex -59.1533 24.5021 59.1533
      vertex -59.1533 59.1533 24.5021
    endloop
  endfacet
  facet normal -0.707107 0.5 0.5
    outer loop
      vertex -59.1533 24.5021 59.1533
      vertex -93.8046 34.6512 0
      vertex -93.8046 -0 34.6512
    endloop
  endfacet
  facet normal -0.57735 0.816497 0
    outer loop
      vertex -93.8046 34.6512 0
      vertex -59.1533 59.1533 24.5021
      vertex -59.1533 59.1533 -24.5021
    endloop
  endfacet
  facet normal -0.707107 0.5 -0.5
    outer loop
      vertex -59.1533 24.5021 -59.1533
      vertex -93.8046 34.6512 0
      vertex -59.1533 59.1533 -24.5021
    endloop
  endfacet
  facet normal -0.707107 0.5 -0.5
    outer loop
      vertex -93.8046 34.6512 0
      vertex -59.1533 24.5021 -59.1533
      vertex -93.8046 -0 -34.6512
    endloop
  endfacet
  facet normal -0.57735 0 -0.816497
    outer loop
      vertex -93.8046 -0 -34.6512
      vertex -59.1533 24.5021 -59.1533
      vertex -59.1533 -24.5021 -59.1533
    endloop
  endfacet
  facet normal 0 -1 0
    outer loop
      vertex -59.1533 -59.1533 24.5021
      vertex 24.5021 -59.1533 59.1533
      vertex -24.5021 -59.1533 59.1533
    endloop
  endfacet
  facet normal 0 -1 0
    outer loop
      vertex -59.1533 -59.1533 24.5021
      vertex 59.1533 -59.1533 24.5021
      vertex 24.5021 -59.1533 59.1533
    endloop
  endfacet
  facet normal 0 -1 0
    outer loop
      vertex -59.1533 -59.1533 -24.5021
      vertex 59.1533 -59.1533 24.5021
      vertex -59.1533 -59.1533 24.5021
    endloop
  endfacet
  facet normal 0 -1 0
    outer loop
      vertex -59.1533 -59.1533 -24.5021
      vertex 59.1533 -59.1533 -24.5021
      vertex 59.1533 -59.1533 24.5021
    endloop
  endfacet
  facet normal 0 -1 0
    outer loop
      vertex -24.5021 -59.1533 -59.1533
      vertex 59.1533 -59.1533 -24.5021
      vertex -59.1533 -59.1533 -24.5021
    endloop
  endfacet
  facet normal 0 -1 0
    outer loop
      vertex 59.1533 -59.1533 -24.5021
      vertex -24.5021 -59.1533 -59.1533
      vertex 24.5021 -59.1533 -59.1533
    endloop
  endfacet
  facet normal 0 0 -1
    outer loop
      vertex 24.5021 -59.1533 -59.1533
      vertex 59.1533 24.5021 -59.1533
      vertex 59.1533 -24.5021 -59.1533
    endloop
  endfacet
  facet normal 0 0 -1
    outer loop
      vertex 24.5021 -59.1533 -59.1533
      vertex 24.5021 59.1533 -59.1533
      vertex 59.1533 24.5021 -59.1533
    endloop
  endfacet
  facet normal 0 0 -1
    outer loop
      vertex -24.5021 -59.1533 -59.1533
      vertex 24.5021 59.1533 -59.1533
      vertex 24.5021 -59.1533 -59.1533
    endloop
  endfacet
  facet normal 0 0 -1
    outer loop
      vertex -24.5021 -59.1533 -59.1533
      vertex -24.5021 59.1533 -59.1533
      vertex 24.5021 59.1533 -59.1533
    endloop
  endfacet
  facet normal 0 0 -1
    outer loop
      vertex -59.1533 -24.5021 -59.1533
      vertex -24.5021 59.1533 -59.1533
      vertex -24.5021 -59.1533 -59.1533
    endloop
  endfacet
  facet normal 0 0 -1
    outer loop
      vertex -24.5021 59.1533 -59.1533
      vertex -59.1533 -24.5021 -59.1533
      vertex -59.1533 24.5021 -59.1533
    endloop
  endfacet
  facet normal 0 1 0
    outer loop
      vertex 59.1533 59.1533 24.5021
      vertex -24.5021 59.1533 59.1533
      vertex 24.5021 59.1533 59.1533
    endloop
  endfacet
  facet normal 0 1 0
    outer loop
      vertex 59.1533 59.1533 24.5021
      vertex -59.1533 59.1533 24.5021
      vertex -24.5021 59.1533 59.1533
    endloop
  endfacet
  facet normal 0 1 -0
    outer loop
      vertex 59.1533 59.1533 -24.5021
      vertex -59.1533 59.1533 24.5021
      vertex 59.1533 59.1533 24.5021
    endloop
  endfacet
  facet normal 0 1 0
    outer loop
      vertex 59.1533 59.1533 -24.5021
      vertex -59.1533 59.1533 -24.5021
      vertex -59.1533 59.1533 24.5021
    endloop
  endfacet
  facet normal 0 1 -0
    outer loop
      vertex 24.5021 59.1533 -59.1533
      vertex -59.1533 59.1533 -24.5021
      vertex 59.1533 59.1533 -24.5021
    endloop
  endfacet
  facet normal 0 1 0
    outer loop
      vertex -59.1533 59.1533 -24.5021
      vertex 24.5021 59.1533 -59.1533
      vertex -24.5021 59.1533 -59.1533
    endloop
  endfacet
  facet normal 0 0 1
    outer loop
      vertex 24.5021 59.1533 59.1533
      vertex 59.1533 -24.5021 59.1533
      vertex 59.1533 24.5021 59.1533
    endloop
  endfacet
  facet normal 0 0 1
    outer loop
      vertex 24.5021 59.1533 59.1533
      vertex 24.5021 -59.1533 59.1533
      vertex 59.1533 -24.5021 59.1533
    endloop
  endfacet
  facet normal -0 0 1
    outer loop
      vertex -24.5021 59.1533 59.1533
      vertex 24.5021 -59.1533 59.1533
      vertex 24.5021 59.1533 59.1533
    endloop
  endfacet
  facet normal 0 0 1
    outer loop
      vertex -24.5021 59.1533 59.1533
      vertex -24.5021 -59.1533 59.1533
      vertex 24.5021 -59.1533 59.1533
    endloop
  endfacet
  facet normal -0 0 1
    outer loop
      vertex -59.1533 24.5021 59.1533
      vertex -24.5021 -59.1533 59.1533
      vertex -24.5021 59.1533 59.1533
    endloop
  endfacet
  facet normal 0 0 1
    outer loop
      vertex -24.5021 -59.1533 59.1533
      vertex -59.1533 24.5021 59.1533
      vertex -59.1533 -24.5021 59.1533
    endloop
  endfacet
  facet normal 0.57735 -0.57735 0.57735
    outer loop
      vertex 59.1533 -24.5021 59.1533
      vertex 24.5021 -59.1533 59.1533
      vertex 59.1533 -59.1533 24.5021
    endloop
  endfacet
  facet normal -0.57735 -0.57735 0.57735
    outer loop
      vertex -59.1533 -24.5021 59.1533
      vertex -59.1533 -59.1533 24.5021
      vertex -24.5021 -59.1533 59.1533
    endloop
  endfacet
  facet normal 0.57735 0.57735 0.57735
    outer loop
      vertex 59.1533 59.1533 24.5021
      vertex 24.5021 59.1533 59.1533
      vertex 59.1533 24.5021 59.1533
    endloop
  endfacet
  facet normal -0.57735 0.57735 0.57735
    outer loop
      vertex -59.1533 59.1533 24.5021
      vertex -59.1533 24.5021 59.1533
      vertex -24.5021 59.1533 59.1533
    endloop
  endfacet
  facet normal 0.57735 0.57735 -0.57735
    outer loop
      vertex 59.1533 24.5021 -59.1533
      vertex 24.5021 59.1533 -59.1533
      vertex 59.1533 59.1533 -24.5021
    endloop
  endfacet
  facet normal -0.57735 0.57735 -0.57735
    outer loop
      vertex -59.1533 24.5021 -59.1533
      vertex -59.1533 59.1533 -24.5021
      vertex -24.5021 59.1533 -59.1533
    endloop
  endfacet
  facet normal 0.57735 -0.57735 -0.57735
    outer loop
      vertex 59.1533 -59.1533 -24.5021
      vertex 24.5021 -59.1533 -59.1533
      vertex 59.1533 -24.5021 -59.1533
    endloop
  endfacet
  facet normal -0.57735 -0.57735 -0.57735
    outer loop
      vertex -59.1533 -59.1533 -24.5021
      vertex -59.1533 -24.5021 -59.1533
      vertex -24.5021 -59.1533 -59.1533
    endloop
  endfacet
endsolid OpenSCAD_Model
