solid OpenSCAD_Model
  facet normal 0 -1 0
    outer loop
      vertex -38.2215 -79.2832 37.5174
      vertex 17.3736 -79.2832 55.5813
      vertex -13.3586 -79.2832 55.5813
    endloop
  endfacet
  facet normal 0 -1 0
    outer loop
      vertex -38.2215 -79.2832 37.5174
      vertex 42.2365 -79.2832 37.5174
      vertex 17.3736 -79.2832 55.5813
    endloop
  endfacet
  facet normal 0 -1 0
    outer loop
      vertex -47.7183 -79.2832 8.28929
      vertex 42.2365 -79.2832 37.5174
      vertex -38.2215 -79.2832 37.5174
    endloop
  endfacet
  facet normal 0 -1 0
    outer loop
      vertex -47.7183 -79.2832 8.28929
      vertex 51.7333 -79.2832 8.28929
      vertex 42.2365 -79.2832 37.5174
    endloop
  endfacet
  facet normal 0 -1 0
    outer loop
      vertex -38.2215 -79.2832 -20.9388
      vertex 51.7333 -79.2832 8.28929
      vertex -47.7183 -79.2832 8.28929
    endloop
  endfacet
  facet normal 0 -1 0
    outer loop
      vertex -38.2215 -79.2832 -20.9388
      vertex 42.2365 -79.2832 -20.9388
      vertex 51.7333 -79.2832 8.28929
    endloop
  endfacet
  facet normal 0 -1 0
    outer loop
      vertex -13.3586 -79.2832 -39.0028
      vertex 42.2365 -79.2832 -20.9388
      vertex -38.2215 -79.2832 -20.9388
    endloop
  endfacet
  facet normal 0 -1 0
    outer loop
      vertex 42.2365 -79.2832 -20.9388
      vertex -13.3586 -79.2832 -39.0028
      vertex 17.3736 -79.2832 -39.0028
    endloop
  endfacet
  facet normal 0.356822 -0.794654 -0.491123
    outer loop
      vertex 42.2365 -63.1263 -47.0812
      vertex 42.2365 -79.2832 -20.9388
      vertex 17.3736 -79.2832 -39.0028
    endloop
  endfacet
  facet normal 0.850651 -0.447214 -0.276393
    outer loop
      vertex 42.2365 -63.1263 -47.0812
      vertex 91.9623 5.31535 -4.78191
      vertex 91.9623 -10.8415 21.3605
    endloop
  endfacet
  facet normal 0.850651 -0.447214 -0.276393
    outer loop
      vertex 91.9623 5.31535 -4.78191
      vertex 42.2365 -63.1263 -47.0812
      vertex 82.4655 5.31535 -34.01
    endloop
  endfacet
  facet normal 0.850651 -0.447214 -0.276393
    outer loop
      vertex 42.2365 -79.2832 -20.9388
      vertex 91.9623 -10.8415 21.3605
      vertex 82.4655 -36.9839 34.4317
    endloop
  endfacet
  facet normal 0.850651 -0.447214 -0.276393
    outer loop
      vertex 51.7333 -36.9839 -60.1524
      vertex 82.4655 5.31535 -34.01
      vertex 42.2365 -63.1263 -47.0812
    endloop
  endfacet
  facet normal 0.850651 -0.447214 -0.276393
    outer loop
      vertex 51.7333 -79.2832 8.28929
      vertex 82.4655 -36.9839 34.4317
      vertex 67.0994 -63.1263 29.4389
    endloop
  endfacet
  facet normal 0.850651 -0.447213 -0.276393
    outer loop
      vertex 82.4655 5.31535 -34.01
      vertex 51.7333 -36.9839 -60.1524
      vertex 67.0994 -10.8415 -55.1597
    endloop
  endfacet
  facet normal 0.850651 -0.447214 -0.276393
    outer loop
      vertex 82.4655 -36.9839 34.4317
      vertex 51.7333 -79.2832 8.28929
      vertex 42.2365 -79.2832 -20.9388
    endloop
  endfacet
  facet normal 0.850651 -0.447214 -0.276393
    outer loop
      vertex 91.9623 -10.8415 21.3605
      vertex 42.2365 -79.2832 -20.9388
      vertex 42.2365 -63.1263 -47.0812
    endloop
  endfacet
  facet normal 0.57735 -0.187592 -0.794654
    outer loop
      vertex 42.2365 -10.8415 -73.2236
      vertex 67.0994 -10.8415 -55.1597
      vertex 51.7333 -36.9839 -60.1524
    endloop
  endfacet
  facet normal 0.57735 -0.794654 0.187593
    outer loop
      vertex 67.0994 -63.1263 29.4389
      vertex 42.2365 -79.2832 37.5174
      vertex 51.7333 -79.2832 8.28929
    endloop
  endfacet
  facet normal 0.525731 -0.447213 0.723607
    outer loop
      vertex 42.2365 5.31535 89.8022
      vertex 82.4655 -10.8415 50.5886
      vertex 67.0994 5.31535 71.7382
    endloop
  endfacet
  facet normal 0.525731 -0.447214 0.723607
    outer loop
      vertex 82.4655 -10.8415 50.5886
      vertex 42.2365 5.31535 89.8022
      vertex 82.4655 -36.9839 34.4317
    endloop
  endfacet
  facet normal 0.525731 -0.447214 0.723607
    outer loop
      vertex 17.3736 -10.8415 97.8806
      vertex 82.4655 -36.9839 34.4317
      vertex 42.2365 5.31535 89.8022
    endloop
  endfacet
  facet normal 0.525731 -0.447214 0.723607
    outer loop
      vertex 82.4655 -36.9839 34.4317
      vertex 17.3736 -10.8415 97.8806
      vertex 67.0994 -63.1263 29.4389
    endloop
  endfacet
  facet normal 0.525731 -0.447214 0.723607
    outer loop
      vertex 2.00751 -36.9839 92.8879
      vertex 67.0994 -63.1263 29.4389
      vertex 17.3736 -10.8415 97.8806
    endloop
  endfacet
  facet normal 0.525731 -0.447214 0.723607
    outer loop
      vertex 67.0994 -63.1263 29.4389
      vertex 2.00751 -36.9839 92.8879
      vertex 42.2365 -79.2832 37.5174
    endloop
  endfacet
  facet normal 0.525731 -0.447214 0.723607
    outer loop
      vertex 2.00751 -63.1263 76.731
      vertex 42.2365 -79.2832 37.5174
      vertex 2.00751 -36.9839 92.8879
    endloop
  endfacet
  facet normal 0.525731 -0.447214 0.723607
    outer loop
      vertex 42.2365 -79.2832 37.5174
      vertex 2.00751 -63.1263 76.731
      vertex 17.3736 -79.2832 55.5813
    endloop
  endfacet
  facet normal 0.934172 -0.187593 0.303531
    outer loop
      vertex 91.9623 -10.8415 21.3605
      vertex 82.4655 -10.8415 50.5886
      vertex 82.4655 -36.9839 34.4317
    endloop
  endfacet
  facet normal 0 -0.794654 0.607062
    outer loop
      vertex 2.00751 -63.1263 76.731
      vertex -13.3586 -79.2832 55.5813
      vertex 17.3736 -79.2832 55.5813
    endloop
  endfacet
  facet normal -0.525731 -0.447214 0.723607
    outer loop
      vertex -63.0844 -63.1263 29.4389
      vertex 2.00751 -36.9839 92.8879
      vertex -13.3586 -10.8415 97.8806
    endloop
  endfacet
  facet normal -0.525731 -0.447214 0.723607
    outer loop
      vertex 2.00751 -36.9839 92.8879
      vertex -38.2215 -79.2832 37.5174
      vertex 2.00751 -63.1263 76.731
    endloop
  endfacet
  facet normal -0.525731 -0.447214 0.723607
    outer loop
      vertex -78.4505 -36.9839 34.4317
      vertex -13.3586 -10.8415 97.8806
      vertex -38.2215 5.31535 89.8022
    endloop
  endfacet
  facet normal -0.525731 -0.447214 0.723607
    outer loop
      vertex 2.00751 -63.1263 76.731
      vertex -38.2215 -79.2832 37.5174
      vertex -13.3586 -79.2832 55.5813
    endloop
  endfacet
  facet normal -0.525731 -0.447213 0.723607
    outer loop
      vertex -78.4505 -10.8415 50.5886
      vertex -38.2215 5.31535 89.8022
      vertex -63.0844 5.31535 71.7382
    endloop
  endfacet
  facet normal -0.525731 -0.447214 0.723607
    outer loop
      vertex 2.00751 -36.9839 92.8879
      vertex -63.0844 -63.1263 29.4389
      vertex -38.2215 -79.2832 37.5174
    endloop
  endfacet
  facet normal -0.525731 -0.447214 0.723607
    outer loop
      vertex -38.2215 5.31535 89.8022
      vertex -78.4505 -10.8415 50.5886
      vertex -78.4505 -36.9839 34.4317
    endloop
  endfacet
  facet normal -0.525731 -0.447214 0.723607
    outer loop
      vertex -13.3586 -10.8415 97.8806
      vertex -78.4505 -36.9839 34.4317
      vertex -63.0844 -63.1263 29.4389
    endloop
  endfacet
  facet normal 0 -0.187592 0.982247
    outer loop
      vertex 17.3736 -10.8415 97.8806
      vertex -13.3586 -10.8415 97.8806
      vertex 2.00751 -36.9839 92.8879
    endloop
  endfacet
  facet normal -0.57735 -0.794654 0.187592
    outer loop
      vertex -63.0844 -63.1263 29.4389
      vertex -47.7183 -79.2832 8.28929
      vertex -38.2215 -79.2832 37.5174
    endloop
  endfacet
  facet normal -0.850651 -0.447214 -0.276393
    outer loop
      vertex -47.7183 -36.9839 -60.1524
      vertex -78.4505 5.31535 -34.01
      vertex -63.0844 -10.8415 -55.1597
    endloop
  endfacet
  facet normal -0.850651 -0.447214 -0.276393
    outer loop
      vertex -78.4505 5.31535 -34.01
      vertex -47.7183 -36.9839 -60.1524
      vertex -87.9473 5.31535 -4.78191
    endloop
  endfacet
  facet normal -0.850651 -0.447214 -0.276393
    outer loop
      vertex -38.2215 -63.1263 -47.0812
      vertex -87.9473 5.31535 -4.78191
      vertex -47.7183 -36.9839 -60.1524
    endloop
  endfacet
  facet normal -0.850651 -0.447214 -0.276393
    outer loop
      vertex -87.9473 5.31535 -4.78191
      vertex -38.2215 -63.1263 -47.0812
      vertex -87.9473 -10.8415 21.3605
    endloop
  endfacet
  facet normal -0.850651 -0.447214 -0.276393
    outer loop
      vertex -38.2215 -79.2832 -20.9388
      vertex -87.9473 -10.8415 21.3605
      vertex -38.2215 -63.1263 -47.0812
    endloop
  endfacet
  facet normal -0.850651 -0.447214 -0.276393
    outer loop
      vertex -87.9473 -10.8415 21.3605
      vertex -38.2215 -79.2832 -20.9388
      vertex -78.4505 -36.9839 34.4317
    endloop
  endfacet
  facet normal -0.850651 -0.447214 -0.276393
    outer loop
      vertex -47.7183 -79.2832 8.28929
      vertex -78.4505 -36.9839 34.4317
      vertex -38.2215 -79.2832 -20.9388
    endloop
  endfacet
  facet normal -0.850651 -0.447214 -0.276393
    outer loop
      vertex -78.4505 -36.9839 34.4317
      vertex -47.7183 -79.2832 8.28929
      vertex -63.0844 -63.1263 29.4389
    endloop
  endfacet
  facet normal -0.934172 -0.187592 0.303531
    outer loop
      vertex -78.4505 -10.8415 50.5886
      vertex -87.9473 -10.8415 21.3605
      vertex -78.4505 -36.9839 34.4317
    endloop
  endfacet
  facet normal -0.356822 -0.794654 -0.491123
    outer loop
      vertex -38.2215 -63.1263 -47.0812
      vertex -13.3586 -79.2832 -39.0028
      vertex -38.2215 -79.2832 -20.9388
    endloop
  endfacet
  facet normal -0.57735 -0.187592 -0.794654
    outer loop
      vertex -38.2215 -10.8415 -73.2236
      vertex -47.7183 -36.9839 -60.1524
      vertex -63.0844 -10.8415 -55.1597
    endloop
  endfacet
  facet normal 0 1 0
    outer loop
      vertex 42.2365 73.757 37.5174
      vertex -13.3586 73.757 55.5813
      vertex 17.3736 73.757 55.5813
    endloop
  endfacet
  facet normal 0 1 0
    outer loop
      vertex 42.2365 73.757 37.5174
      vertex -38.2215 73.757 37.5174
      vertex -13.3586 73.757 55.5813
    endloop
  endfacet
  facet normal 0 1 0
    outer loop
      vertex 51.7333 73.757 8.28929
      vertex -38.2215 73.757 37.5174
      vertex 42.2365 73.757 37.5174
    endloop
  endfacet
  facet normal 0 1 0
    outer loop
      vertex 51.7333 73.757 8.28929
      vertex -47.7183 73.757 8.28929
      vertex -38.2215 73.757 37.5174
    endloop
  endfacet
  facet normal 0 1 -0
    outer loop
      vertex 42.2365 73.757 -20.9388
      vertex -47.7183 73.757 8.28929
      vertex 51.7333 73.757 8.28929
    endloop
  endfacet
  facet normal 0 1 0
    outer loop
      vertex 42.2365 73.757 -20.9388
      vertex -38.2215 73.757 -20.9388
      vertex -47.7183 73.757 8.28929
    endloop
  endfacet
  facet normal 0 1 -0
    outer loop
      vertex 17.3736 73.757 -39.0028
      vertex -38.2215 73.757 -20.9388
      vertex 42.2365 73.757 -20.9388
    endloop
  endfacet
  facet normal 0 1 0
    outer loop
      vertex -38.2215 73.757 -20.9388
      vertex 17.3736 73.757 -39.0028
      vertex -13.3586 73.757 -39.0028
    endloop
  endfacet
  facet normal -0.356822 0.794654 0.491123
    outer loop
      vertex -38.2215 57.6002 63.6598
      vertex -13.3586 73.757 55.5813
      vertex -38.2215 73.757 37.5174
    endloop
  endfacet
  facet normal -4.15413e-07 0.447214 0.894427
    outer loop
      vertex 42.2365 57.6002 63.6598
      vertex 42.2365 5.31535 89.8022
      vertex 51.7333 31.4578 76.731
    endloop
  endfacet
  facet normal 7.65669e-08 0.447214 0.894427
    outer loop
      vertex 17.3736 73.757 55.5813
      vertex 42.2365 5.31535 89.8022
      vertex 42.2365 57.6002 63.6598
    endloop
  endfacet
  facet normal -2.65043e-08 0.447214 0.894427
    outer loop
      vertex 17.3736 73.757 55.5813
      vertex 17.3736 -10.8415 97.8806
      vertex 42.2365 5.31535 89.8022
    endloop
  endfacet
  facet normal -0 0.447214 0.894427
    outer loop
      vertex -13.3586 73.757 55.5813
      vertex 17.3736 -10.8415 97.8806
      vertex 17.3736 73.757 55.5813
    endloop
  endfacet
  facet normal 0 0.447214 0.894427
    outer loop
      vertex -13.3586 73.757 55.5813
      vertex -13.3586 -10.8415 97.8806
      vertex 17.3736 -10.8415 97.8806
    endloop
  endfacet
  facet normal -5.22351e-08 0.447214 0.894427
    outer loop
      vertex -38.2215 57.6002 63.6598
      vertex -13.3586 -10.8415 97.8806
      vertex -13.3586 73.757 55.5813
    endloop
  endfacet
  facet normal 5.08361e-08 0.447214 0.894427
    outer loop
      vertex -38.2215 57.6002 63.6598
      vertex -38.2215 5.31535 89.8022
      vertex -13.3586 -10.8415 97.8806
    endloop
  endfacet
  facet normal 4.15413e-07 0.447214 0.894427
    outer loop
      vertex -38.2215 5.31535 89.8022
      vertex -38.2215 57.6002 63.6598
      vertex -47.7183 31.4578 76.731
    endloop
  endfacet
  facet normal -0.57735 0.187592 0.794654
    outer loop
      vertex -63.0844 5.31535 71.7382
      vertex -38.2215 5.31535 89.8022
      vertex -47.7183 31.4578 76.731
    endloop
  endfacet
  facet normal 0.356822 0.794654 0.491123
    outer loop
      vertex 42.2365 57.6002 63.6598
      vertex 42.2365 73.757 37.5174
      vertex 17.3736 73.757 55.5813
    endloop
  endfacet
  facet normal 0.850651 0.447214 0.276393
    outer loop
      vertex 91.9623 5.31535 -4.78191
      vertex 42.2365 73.757 37.5174
      vertex 42.2365 57.6002 63.6598
    endloop
  endfacet
  facet normal 0.850651 0.447214 0.276393
    outer loop
      vertex 42.2365 73.757 37.5174
      vertex 91.9623 5.31535 -4.78191
      vertex 51.7333 73.757 8.28929
    endloop
  endfacet
  facet normal 0.850651 0.447214 0.276393
    outer loop
      vertex 91.9623 -10.8415 21.3605
      vertex 42.2365 57.6002 63.6598
      vertex 51.7333 31.4578 76.731
    endloop
  endfacet
  facet normal 0.850651 0.447214 0.276393
    outer loop
      vertex 82.4655 31.4578 -17.8531
      vertex 51.7333 73.757 8.28929
      vertex 91.9623 5.31535 -4.78191
    endloop
  endfacet
  facet normal 0.850651 0.447213 0.276393
    outer loop
      vertex 82.4655 -10.8415 50.5886
      vertex 51.7333 31.4578 76.731
      vertex 67.0994 5.31535 71.7382
    endloop
  endfacet
  facet normal 0.850651 0.447214 0.276393
    outer loop
      vertex 51.7333 73.757 8.28929
      vertex 82.4655 31.4578 -17.8531
      vertex 67.0994 57.6002 -12.8604
    endloop
  endfacet
  facet normal 0.850651 0.447213 0.276393
    outer loop
      vertex 51.7333 31.4578 76.731
      vertex 82.4655 -10.8415 50.5886
      vertex 91.9623 -10.8415 21.3605
    endloop
  endfacet
  facet normal 0.850651 0.447214 0.276393
    outer loop
      vertex 42.2365 57.6002 63.6598
      vertex 91.9623 -10.8415 21.3605
      vertex 91.9623 5.31535 -4.78191
    endloop
  endfacet
  facet normal 0.57735 0.187592 0.794654
    outer loop
      vertex 42.2365 5.31535 89.8022
      vertex 67.0994 5.31535 71.7382
      vertex 51.7333 31.4578 76.731
    endloop
  endfacet
  facet normal 0.57735 0.794654 -0.187593
    outer loop
      vertex 67.0994 57.6002 -12.8604
      vertex 42.2365 73.757 -20.9388
      vertex 51.7333 73.757 8.28929
    endloop
  endfacet
  facet normal 0.934172 0.187593 -0.303531
    outer loop
      vertex 82.4655 5.31535 -34.01
      vertex 82.4655 31.4578 -17.8531
      vertex 91.9623 5.31535 -4.78191
    endloop
  endfacet
  facet normal 0 0.794654 -0.607062
    outer loop
      vertex 2.00751 57.6002 -60.1524
      vertex -13.3586 73.757 -39.0028
      vertex 17.3736 73.757 -39.0028
    endloop
  endfacet
  facet normal -0.525731 0.447214 -0.723607
    outer loop
      vertex -63.0844 57.6002 -12.8604
      vertex 2.00751 31.4578 -76.3093
      vertex -13.3586 5.31535 -81.3021
    endloop
  endfacet
  facet normal -0.525731 0.447214 -0.723607
    outer loop
      vertex 2.00751 31.4578 -76.3093
      vertex -38.2215 73.757 -20.9388
      vertex 2.00751 57.6002 -60.1524
    endloop
  endfacet
  facet normal -0.525731 0.447213 -0.723607
    outer loop
      vertex -78.4505 31.4578 -17.8531
      vertex -13.3586 5.31535 -81.3021
      vertex -38.2215 -10.8415 -73.2236
    endloop
  endfacet
  facet normal -0.525731 0.447214 -0.723607
    outer loop
      vertex 2.00751 57.6002 -60.1524
      vertex -38.2215 73.757 -20.9388
      vertex -13.3586 73.757 -39.0028
    endloop
  endfacet
  facet normal -0.525731 0.447213 -0.723607
    outer loop
      vertex -78.4505 5.31535 -34.01
      vertex -38.2215 -10.8415 -73.2236
      vertex -63.0844 -10.8415 -55.1597
    endloop
  endfacet
  facet normal -0.525731 0.447214 -0.723607
    outer loop
      vertex 2.00751 31.4578 -76.3093
      vertex -63.0844 57.6002 -12.8604
      vertex -38.2215 73.757 -20.9388
    endloop
  endfacet
  facet normal -0.525731 0.447214 -0.723607
    outer loop
      vertex -38.2215 -10.8415 -73.2236
      vertex -78.4505 5.31535 -34.01
      vertex -78.4505 31.4578 -17.8531
    endloop
  endfacet
  facet normal -0.525731 0.447214 -0.723607
    outer loop
      vertex -13.3586 5.31535 -81.3021
      vertex -78.4505 31.4578 -17.8531
      vertex -63.0844 57.6002 -12.8604
    endloop
  endfacet
  facet normal 0 0.187593 -0.982247
    outer loop
      vertex 17.3736 5.31535 -81.3021
      vertex -13.3586 5.31535 -81.3021
      vertex 2.00751 31.4578 -76.3093
    endloop
  endfacet
  facet normal -0.57735 0.794654 -0.187592
    outer loop
      vertex -63.0844 57.6002 -12.8604
      vertex -47.7183 73.757 8.28929
      vertex -38.2215 73.757 -20.9388
    endloop
  endfacet
  facet normal -0.934172 0.187592 -0.303531
    outer loop
      vertex -87.9473 5.31535 -4.78191
      vertex -78.4505 31.4578 -17.8531
      vertex -78.4505 5.31535 -34.01
    endloop
  endfacet
  facet normal -0.850651 0.447214 0.276393
    outer loop
      vertex -90.5722 19.7665 22.2134
      vertex -65.7093 62.0658 30.2918
      vertex -81.0754 45.9089 9.14215
    endloop
  endfacet
  facet normal -0.850651 0.447214 0.276393
    outer loop
      vertex -65.7093 62.0658 30.2918
      vertex -90.5722 19.7665 22.2134
      vertex -65.7093 45.9089 56.4342
    endloop
  endfacet
  facet normal -0.850651 0.447213 0.276393
    outer loop
      vertex -65.7093 45.9089 56.4342
      vertex -90.5722 19.7665 22.2134
      vertex -81.0754 19.7665 51.4414
    endloop
  endfacet
  facet normal -0.638197 0.760845 -0.117557
    outer loop
      vertex -47.7183 73.757 8.28929
      vertex -81.0754 45.9089 9.14215
      vertex -65.7093 62.0658 30.2918
    endloop
  endfacet
  facet normal -0.638197 0.760845 -0.117557
    outer loop
      vertex -81.0754 45.9089 9.14215
      vertex -47.7183 73.757 8.28929
      vertex -63.0844 57.6002 -12.8604
    endloop
  endfacet
  facet normal -0.774597 0.523168 -0.35538
    outer loop
      vertex -81.0754 45.9089 9.14215
      vertex -63.0844 57.6002 -12.8604
      vertex -78.4505 31.4578 -17.8531
    endloop
  endfacet
  facet normal -0.947214 0.235114 -0.217963
    outer loop
      vertex -78.4505 31.4578 -17.8531
      vertex -90.5722 19.7665 22.2134
      vertex -81.0754 45.9089 9.14215
    endloop
  endfacet
  facet normal -0.947214 0.235114 -0.217963
    outer loop
      vertex -90.5722 19.7665 22.2134
      vertex -78.4505 31.4578 -17.8531
      vertex -87.9473 5.31535 -4.78191
    endloop
  endfacet
  facet normal -0.995125 -0.0838939 -0.0518493
    outer loop
      vertex -90.5722 19.7665 22.2134
      vertex -87.9473 5.31535 -4.78191
      vertex -87.9473 -10.8415 21.3605
    endloop
  endfacet
  facet normal -0.947214 -0.0898056 0.307768
    outer loop
      vertex -78.4505 -10.8415 50.5886
      vertex -90.5722 19.7665 22.2134
      vertex -87.9473 -10.8415 21.3605
    endloop
  endfacet
  facet normal -0.947214 -0.0898054 0.307769
    outer loop
      vertex -90.5722 19.7665 22.2134
      vertex -78.4505 -10.8415 50.5886
      vertex -81.0754 19.7665 51.4414
    endloop
  endfacet
  facet normal -0.774597 -0.0838937 0.626867
    outer loop
      vertex -81.0754 19.7665 51.4414
      vertex -78.4505 -10.8415 50.5886
      vertex -63.0844 5.31535 71.7382
    endloop
  endfacet
  facet normal -0.638197 0.235114 0.733094
    outer loop
      vertex -81.0754 19.7665 51.4414
      vertex -47.7183 31.4578 76.731
      vertex -65.7093 45.9089 56.4342
    endloop
  endfacet
  facet normal -0.638197 0.235114 0.733094
    outer loop
      vertex -47.7183 31.4578 76.731
      vertex -81.0754 19.7665 51.4414
      vertex -63.0844 5.31535 71.7382
    endloop
  endfacet
  facet normal -0.417775 0.523168 0.742805
    outer loop
      vertex -38.2215 57.6002 63.6598
      vertex -65.7093 45.9089 56.4342
      vertex -47.7183 31.4578 76.731
    endloop
  endfacet
  facet normal -0.447214 0.760845 0.470228
    outer loop
      vertex -38.2215 73.757 37.5174
      vertex -65.7093 45.9089 56.4342
      vertex -38.2215 57.6002 63.6598
    endloop
  endfacet
  facet normal -0.447214 0.760845 0.470228
    outer loop
      vertex -65.7093 45.9089 56.4342
      vertex -38.2215 73.757 37.5174
      vertex -65.7093 62.0658 30.2918
    endloop
  endfacet
  facet normal -0.417775 0.898353 0.135743
    outer loop
      vertex -65.7093 62.0658 30.2918
      vertex -38.2215 73.757 37.5174
      vertex -47.7183 73.757 8.28929
    endloop
  endfacet
  facet normal 0.525731 0.447214 -0.723607
    outer loop
      vertex 43.8588 19.7665 -75.4564
      vertex 68.7217 45.9089 -41.2356
      vertex 68.7217 19.7665 -57.3925
    endloop
  endfacet
  facet normal 0.525731 0.447214 -0.723607
    outer loop
      vertex 28.4927 45.9089 -70.4637
      vertex 68.7217 45.9089 -41.2356
      vertex 43.8588 19.7665 -75.4564
    endloop
  endfacet
  facet normal 0.525731 0.447214 -0.723607
    outer loop
      vertex 68.7217 45.9089 -41.2356
      vertex 28.4927 45.9089 -70.4637
      vertex 43.8588 62.0658 -49.314
    endloop
  endfacet
  facet normal 0.58541 0.760845 -0.280017
    outer loop
      vertex 68.7217 45.9089 -41.2356
      vertex 42.2365 73.757 -20.9388
      vertex 67.0994 57.6002 -12.8604
    endloop
  endfacet
  facet normal 0.58541 0.760845 -0.280017
    outer loop
      vertex 42.2365 73.757 -20.9388
      vertex 68.7217 45.9089 -41.2356
      vertex 43.8588 62.0658 -49.314
    endloop
  endfacet
  facet normal 0.835549 0.523168 -0.167788
    outer loop
      vertex 68.7217 45.9089 -41.2356
      vertex 67.0994 57.6002 -12.8604
      vertex 82.4655 31.4578 -17.8531
    endloop
  endfacet
  facet normal 0.894427 0.235114 -0.380423
    outer loop
      vertex 82.4655 31.4578 -17.8531
      vertex 68.7217 19.7665 -57.3925
      vertex 68.7217 45.9089 -41.2356
    endloop
  endfacet
  facet normal 0.894427 0.235114 -0.380423
    outer loop
      vertex 68.7217 19.7665 -57.3925
      vertex 82.4655 31.4578 -17.8531
      vertex 82.4655 5.31535 -34.01
    endloop
  endfacet
  facet normal 0.835549 -0.083894 -0.542973
    outer loop
      vertex 68.7217 19.7665 -57.3925
      vertex 82.4655 5.31535 -34.01
      vertex 67.0994 -10.8415 -55.1597
    endloop
  endfacet
  facet normal 0.58541 -0.0898057 -0.805748
    outer loop
      vertex 67.0994 -10.8415 -55.1597
      vertex 43.8588 19.7665 -75.4564
      vertex 68.7217 19.7665 -57.3925
    endloop
  endfacet
  facet normal 0.58541 -0.0898058 -0.805748
    outer loop
      vertex 43.8588 19.7665 -75.4564
      vertex 67.0994 -10.8415 -55.1597
      vertex 42.2365 -10.8415 -73.2236
    endloop
  endfacet
  facet normal 0.258199 -0.0838941 -0.962442
    outer loop
      vertex 43.8588 19.7665 -75.4564
      vertex 42.2365 -10.8415 -73.2236
      vertex 17.3736 5.31535 -81.3021
    endloop
  endfacet
  facet normal 0.0854101 0.235114 -0.968208
    outer loop
      vertex 17.3736 5.31535 -81.3021
      vertex 28.4927 45.9089 -70.4637
      vertex 43.8588 19.7665 -75.4564
    endloop
  endfacet
  facet normal 0.0854101 0.235114 -0.968208
    outer loop
      vertex 28.4927 45.9089 -70.4637
      vertex 17.3736 5.31535 -81.3021
      vertex 2.00751 31.4578 -76.3093
    endloop
  endfacet
  facet normal -0.0986231 0.523168 -0.846504
    outer loop
      vertex 2.00751 57.6002 -60.1524
      vertex 28.4927 45.9089 -70.4637
      vertex 2.00751 31.4578 -76.3093
    endloop
  endfacet
  facet normal 0.0854102 0.760845 -0.643288
    outer loop
      vertex 28.4927 45.9089 -70.4637
      vertex 17.3736 73.757 -39.0028
      vertex 43.8588 62.0658 -49.314
    endloop
  endfacet
  facet normal 0.0854102 0.760845 -0.643288
    outer loop
      vertex 17.3736 73.757 -39.0028
      vertex 28.4927 45.9089 -70.4637
      vertex 2.00751 57.6002 -60.1524
    endloop
  endfacet
  facet normal 0.258199 0.898353 -0.35538
    outer loop
      vertex 43.8588 62.0658 -49.314
      vertex 17.3736 73.757 -39.0028
      vertex 42.2365 73.757 -20.9388
    endloop
  endfacet
  facet normal 1.41281e-07 -0.447214 -0.894427
    outer loop
      vertex 2.00751 -67.592 -62.9123
      vertex 17.3736 -25.2927 -84.062
      vertex 26.8704 -51.4351 -70.9908
    endloop
  endfacet
  facet normal 0 -0.447214 -0.894427
    outer loop
      vertex 2.00751 -67.592 -62.9123
      vertex -13.3586 -25.2927 -84.062
      vertex 17.3736 -25.2927 -84.062
    endloop
  endfacet
  facet normal -1.41281e-07 -0.447214 -0.894427
    outer loop
      vertex -13.3586 -25.2927 -84.062
      vertex 2.00751 -67.592 -62.9123
      vertex -22.8554 -51.4351 -70.9908
    endloop
  endfacet
  facet normal -0.309017 -0.760845 -0.570634
    outer loop
      vertex -22.8554 -51.4351 -70.9908
      vertex -13.3586 -79.2832 -39.0028
      vertex -38.2215 -63.1263 -47.0812
    endloop
  endfacet
  facet normal -0.309017 -0.760845 -0.570634
    outer loop
      vertex -13.3586 -79.2832 -39.0028
      vertex -22.8554 -51.4351 -70.9908
      vertex 2.00751 -67.592 -62.9123
    endloop
  endfacet
  facet normal -0.57735 -0.523168 -0.626867
    outer loop
      vertex -22.8554 -51.4351 -70.9908
      vertex -38.2215 -63.1263 -47.0812
      vertex -47.7183 -36.9839 -60.1524
    endloop
  endfacet
  facet normal -0.5 -0.235114 -0.833499
    outer loop
      vertex -47.7183 -36.9839 -60.1524
      vertex -13.3586 -25.2927 -84.062
      vertex -22.8554 -51.4351 -70.9908
    endloop
  endfacet
  facet normal -0.5 -0.235114 -0.833499
    outer loop
      vertex -13.3586 -25.2927 -84.062
      vertex -47.7183 -36.9839 -60.1524
      vertex -38.2215 -10.8415 -73.2236
    endloop
  endfacet
  facet normal -0.356822 0.0838939 -0.930398
    outer loop
      vertex -13.3586 -25.2927 -84.062
      vertex -38.2215 -10.8415 -73.2236
      vertex -13.3586 5.31535 -81.3021
    endloop
  endfacet
  facet normal 0 0.0898056 -0.995959
    outer loop
      vertex -13.3586 -25.2927 -84.062
      vertex 17.3736 5.31535 -81.3021
      vertex 17.3736 -25.2927 -84.062
    endloop
  endfacet
  facet normal 0 0.0898056 -0.995959
    outer loop
      vertex 17.3736 5.31535 -81.3021
      vertex -13.3586 -25.2927 -84.062
      vertex -13.3586 5.31535 -81.3021
    endloop
  endfacet
  facet normal 0.356822 0.0838939 -0.930398
    outer loop
      vertex 17.3736 -25.2927 -84.062
      vertex 17.3736 5.31535 -81.3021
      vertex 42.2365 -10.8415 -73.2236
    endloop
  endfacet
  facet normal 0.5 -0.235114 -0.833499
    outer loop
      vertex 17.3736 -25.2927 -84.062
      vertex 51.7333 -36.9839 -60.1524
      vertex 26.8704 -51.4351 -70.9908
    endloop
  endfacet
  facet normal 0.5 -0.235114 -0.833499
    outer loop
      vertex 51.7333 -36.9839 -60.1524
      vertex 17.3736 -25.2927 -84.062
      vertex 42.2365 -10.8415 -73.2236
    endloop
  endfacet
  facet normal 0.57735 -0.523168 -0.626867
    outer loop
      vertex 42.2365 -63.1263 -47.0812
      vertex 26.8704 -51.4351 -70.9908
      vertex 51.7333 -36.9839 -60.1524
    endloop
  endfacet
  facet normal 0.309017 -0.760845 -0.570634
    outer loop
      vertex 26.8704 -51.4351 -70.9908
      vertex 17.3736 -79.2832 -39.0028
      vertex 2.00751 -67.592 -62.9123
    endloop
  endfacet
  facet normal 0.309017 -0.760845 -0.570634
    outer loop
      vertex 17.3736 -79.2832 -39.0028
      vertex 26.8704 -51.4351 -70.9908
      vertex 42.2365 -63.1263 -47.0812
    endloop
  endfacet
  facet normal 0 -0.898353 -0.439274
    outer loop
      vertex 2.00751 -67.592 -62.9123
      vertex 17.3736 -79.2832 -39.0028
      vertex -13.3586 -79.2832 -39.0028
    endloop
  endfacet
endsolid OpenSCAD_Model
