solid OpenSCAD_Model
  facet normal 0 -1 0
    outer loop
      vertex -41.0982 -57.147 29.8596
      vertex 50.8001 -57.147 0
      vertex 15.6981 -57.147 48.3138
    endloop
  endfacet
  facet normal 0 -1 0
    outer loop
      vertex -41.0982 -57.147 -29.8596
      vertex 50.8001 -57.147 0
      vertex -41.0982 -57.147 29.8596
    endloop
  endfacet
  facet normal 0 -1 0
    outer loop
      vertex 50.8001 -57.147 0
      vertex -41.0982 -57.147 -29.8596
      vertex 15.6981 -57.147 -48.3138
    endloop
  endfacet
  facet normal 0.425325 -0.850651 -0.309017
    outer loop
      vertex 15.6981 -57.147 -48.3138
      vertex 91.8983 -25.7508 -29.8596
      vertex 50.8001 -57.147 0
    endloop
  endfacet
  facet normal 0.425325 -0.850651 -0.309017
    outer loop
      vertex 91.8983 -25.7508 -29.8596
      vertex 15.6981 -57.147 -48.3138
      vertex 56.7963 -25.7508 -78.1734
    endloop
  endfacet
  facet normal 0.607062 -0.794654 0
    outer loop
      vertex 50.8001 -57.147 0
      vertex 91.8983 -25.7508 -29.8596
      vertex 91.8983 -25.7508 29.8596
    endloop
  endfacet
  facet normal 0.425325 -0.850651 0.309017
    outer loop
      vertex 15.6981 -57.147 48.3138
      vertex 91.8983 -25.7508 29.8596
      vertex 56.7963 -25.7508 78.1734
    endloop
  endfacet
  facet normal 0.425325 -0.850651 0.309017
    outer loop
      vertex 91.8983 -25.7508 29.8596
      vertex 15.6981 -57.147 48.3138
      vertex 50.8001 -57.147 0
    endloop
  endfacet
  facet normal 0.187592 -0.794654 0.57735
    outer loop
      vertex 15.6981 -57.147 48.3138
      vertex 56.7963 -25.7508 78.1734
      vertex -0 -25.7508 96.6276
    endloop
  endfacet
  facet normal -0.16246 -0.850651 0.5
    outer loop
      vertex -56.7963 -25.7508 78.1734
      vertex 15.6981 -57.147 48.3138
      vertex -0 -25.7508 96.6276
    endloop
  endfacet
  facet normal -0.16246 -0.850651 0.5
    outer loop
      vertex 15.6981 -57.147 48.3138
      vertex -56.7963 -25.7508 78.1734
      vertex -41.0982 -57.147 29.8596
    endloop
  endfacet
  facet normal -0.491123 -0.794654 0.356822
    outer loop
      vertex -41.0982 -57.147 29.8596
      vertex -56.7963 -25.7508 78.1734
      vertex -91.8983 -25.7508 29.8596
    endloop
  endfacet
  facet normal -0.525731 -0.850651 0
    outer loop
      vertex -91.8983 -25.7508 -29.8596
      vertex -41.0982 -57.147 29.8596
      vertex -91.8983 -25.7508 29.8596
    endloop
  endfacet
  facet normal -0.525731 -0.850651 -0
    outer loop
      vertex -41.0982 -57.147 29.8596
      vertex -91.8983 -25.7508 -29.8596
      vertex -41.0982 -57.147 -29.8596
    endloop
  endfacet
  facet normal -0.491123 -0.794654 -0.356822
    outer loop
      vertex -41.0982 -57.147 -29.8596
      vertex -91.8983 -25.7508 -29.8596
      vertex -56.7963 -25.7508 -78.1734
    endloop
  endfacet
  facet normal -0.16246 -0.850651 -0.5
    outer loop
      vertex -56.7963 -25.7508 -78.1734
      vertex 15.6981 -57.147 -48.3138
      vertex -41.0982 -57.147 -29.8596
    endloop
  endfacet
  facet normal -0.16246 -0.850651 -0.5
    outer loop
      vertex 15.6981 -57.147 -48.3138
      vertex -56.7963 -25.7508 -78.1734
      vertex -0 -25.7508 -96.6276
    endloop
  endfacet
  facet normal 0.187592 -0.794654 -0.57735
    outer loop
      vertex 15.6981 -57.147 -48.3138
      vertex -0 -25.7508 -96.6276
      vertex 56.7963 -25.7508 -78.1734
    endloop
  endfacet
  facet normal 0 1 0
    outer loop
      vertex 48.3138 57.147 15.6981
      vertex -48.3138 57.147 15.6981
      vertex 0 57.147 50.8001
    endloop
  endfacet
  facet normal 0 1 -0
    outer loop
      vertex 29.8596 57.147 -41.0982
      vertex -48.3138 57.147 15.6981
      vertex 48.3138 57.147 15.6981
    endloop
  endfacet
  facet normal 0 1 0
    outer loop
      vertex -48.3138 57.147 15.6981
      vertex 29.8596 57.147 -41.0982
      vertex -29.8596 57.147 -41.0982
    endloop
  endfacet
  facet normal 0.5 0.850651 -0.16246
    outer loop
      vertex 96.6276 25.7508 0
      vertex 29.8596 57.147 -41.0982
      vertex 48.3138 57.147 15.6981
    endloop
  endfacet
  facet normal 0.5 0.850651 -0.16246
    outer loop
      vertex 29.8596 57.147 -41.0982
      vertex 96.6276 25.7508 0
      vertex 78.1734 25.7508 -56.7963
    endloop
  endfacet
  facet normal 0.356822 0.794654 -0.491123
    outer loop
      vertex 29.8596 57.147 -41.0982
      vertex 78.1734 25.7508 -56.7963
      vertex 29.8596 25.7508 -91.8983
    endloop
  endfacet
  facet normal 0 0.850651 -0.525731
    outer loop
      vertex 29.8596 25.7508 -91.8983
      vertex -29.8596 57.147 -41.0982
      vertex 29.8596 57.147 -41.0982
    endloop
  endfacet
  facet normal 0 0.850651 -0.525731
    outer loop
      vertex -29.8596 57.147 -41.0982
      vertex 29.8596 25.7508 -91.8983
      vertex -29.8596 25.7508 -91.8983
    endloop
  endfacet
  facet normal -0.356822 0.794654 -0.491123
    outer loop
      vertex -29.8596 57.147 -41.0982
      vertex -29.8596 25.7508 -91.8983
      vertex -78.1734 25.7508 -56.7963
    endloop
  endfacet
  facet normal -0.5 0.850651 -0.16246
    outer loop
      vertex -29.8596 57.147 -41.0982
      vertex -96.6276 25.7508 0
      vertex -48.3138 57.147 15.6981
    endloop
  endfacet
  facet normal -0.5 0.850651 -0.16246
    outer loop
      vertex -96.6276 25.7508 0
      vertex -29.8596 57.147 -41.0982
      vertex -78.1734 25.7508 -56.7963
    endloop
  endfacet
  facet normal -0.57735 0.794654 0.187592
    outer loop
      vertex -48.3138 57.147 15.6981
      vertex -96.6276 25.7508 0
      vertex -78.1734 25.7508 56.7963
    endloop
  endfacet
  facet normal -0.309017 0.850651 0.425325
    outer loop
      vertex 0 57.147 50.8001
      vertex -78.1734 25.7508 56.7963
      vertex -29.8596 25.7508 91.8983
    endloop
  endfacet
  facet normal -0.309017 0.850651 0.425325
    outer loop
      vertex -78.1734 25.7508 56.7963
      vertex 0 57.147 50.8001
      vertex -48.3138 57.147 15.6981
    endloop
  endfacet
  facet normal 0 0.794654 0.607062
    outer loop
      vertex 0 57.147 50.8001
      vertex -29.8596 25.7508 91.8983
      vertex 29.8596 25.7508 91.8983
    endloop
  endfacet
  facet normal 0.309017 0.850651 0.425325
    outer loop
      vertex 78.1734 25.7508 56.7963
      vertex 0 57.147 50.8001
      vertex 29.8596 25.7508 91.8983
    endloop
  endfacet
  facet normal 0.309017 0.850651 0.425325
    outer loop
      vertex 0 57.147 50.8001
      vertex 78.1734 25.7508 56.7963
      vertex 48.3138 57.147 15.6981
    endloop
  endfacet
  facet normal 0.57735 0.794654 0.187592
    outer loop
      vertex 48.3138 57.147 15.6981
      vertex 78.1734 25.7508 56.7963
      vertex 96.6276 25.7508 0
    endloop
  endfacet
  facet normal -0.805627 -0.0914433 0.585323
    outer loop
      vertex -56.7963 -25.7508 78.1734
      vertex -78.1734 25.7508 56.7963
      vertex -91.8983 -25.7508 29.8596
    endloop
  endfacet
  facet normal -0.947072 0.0914433 0.307722
    outer loop
      vertex -91.8983 -25.7508 29.8596
      vertex -78.1734 25.7508 56.7963
      vertex -96.6276 25.7508 0
    endloop
  endfacet
  facet normal -0.99581 -0.0914433 -0
    outer loop
      vertex -91.8983 -25.7508 29.8596
      vertex -96.6276 25.7508 0
      vertex -91.8983 -25.7508 -29.8596
    endloop
  endfacet
  facet normal -0.947072 0.0914433 -0.307722
    outer loop
      vertex -91.8983 -25.7508 -29.8596
      vertex -96.6276 25.7508 0
      vertex -78.1734 25.7508 -56.7963
    endloop
  endfacet
  facet normal -0.805627 -0.0914433 -0.585323
    outer loop
      vertex -91.8983 -25.7508 -29.8596
      vertex -78.1734 25.7508 -56.7963
      vertex -56.7963 -25.7508 -78.1734
    endloop
  endfacet
  facet normal -0.585323 0.0914433 -0.805627
    outer loop
      vertex -56.7963 -25.7508 -78.1734
      vertex -78.1734 25.7508 -56.7963
      vertex -29.8596 25.7508 -91.8983
    endloop
  endfacet
  facet normal -0.307722 -0.0914433 -0.947072
    outer loop
      vertex -56.7963 -25.7508 -78.1734
      vertex -29.8596 25.7508 -91.8983
      vertex -0 -25.7508 -96.6276
    endloop
  endfacet
  facet normal 0 0.0914433 -0.99581
    outer loop
      vertex -0 -25.7508 -96.6276
      vertex -29.8596 25.7508 -91.8983
      vertex 29.8596 25.7508 -91.8983
    endloop
  endfacet
  facet normal 0.307722 -0.0914433 -0.947072
    outer loop
      vertex -0 -25.7508 -96.6276
      vertex 29.8596 25.7508 -91.8983
      vertex 56.7963 -25.7508 -78.1734
    endloop
  endfacet
  facet normal 0.585323 0.0914433 -0.805627
    outer loop
      vertex 56.7963 -25.7508 -78.1734
      vertex 29.8596 25.7508 -91.8983
      vertex 78.1734 25.7508 -56.7963
    endloop
  endfacet
  facet normal 0.805627 -0.0914433 -0.585323
    outer loop
      vertex 56.7963 -25.7508 -78.1734
      vertex 78.1734 25.7508 -56.7963
      vertex 91.8983 -25.7508 -29.8596
    endloop
  endfacet
  facet normal 0.947072 0.0914433 -0.307722
    outer loop
      vertex 91.8983 -25.7508 -29.8596
      vertex 78.1734 25.7508 -56.7963
      vertex 96.6276 25.7508 0
    endloop
  endfacet
  facet normal 0.99581 -0.0914433 0
    outer loop
      vertex 91.8983 -25.7508 -29.8596
      vertex 96.6276 25.7508 0
      vertex 91.8983 -25.7508 29.8596
    endloop
  endfacet
  facet normal 0.947072 0.0914433 0.307722
    outer loop
      vertex 91.8983 -25.7508 29.8596
      vertex 96.6276 25.7508 0
      vertex 78.1734 25.7508 56.7963
    endloop
  endfacet
  facet normal 0.805627 -0.0914433 0.585323
    outer loop
      vertex 91.8983 -25.7508 29.8596
      vertex 78.1734 25.7508 56.7963
      vertex 56.7963 -25.7508 78.1734
    endloop
  endfacet
  facet normal 0.585323 0.0914433 0.805627
    outer loop
      vertex 56.7963 -25.7508 78.1734
      vertex 78.1734 25.7508 56.7963
      vertex 29.8596 25.7508 91.8983
    endloop
  endfacet
  facet normal 0.307722 -0.0914433 0.947072
    outer loop
      vertex 56.7963 -25.7508 78.1734
      vertex 29.8596 25.7508 91.8983
      vertex -0 -25.7508 96.6276
    endloop
  endfacet
  facet normal 0 0.0914433 0.99581
    outer loop
      vertex -0 -25.7508 96.6276
      vertex 29.8596 25.7508 91.8983
      vertex -29.8596 25.7508 91.8983
    endloop
  endfacet
  facet normal -0.307722 -0.0914433 0.947072
    outer loop
      vertex -0 -25.7508 96.6276
      vertex -29.8596 25.7508 91.8983
      vertex -56.7963 -25.7508 78.1734
    endloop
  endfacet
  facet normal -0.585323 0.0914433 0.805627
    outer loop
      vertex -56.7963 -25.7508 78.1734
      vertex -29.8596 25.7508 91.8983
      vertex -78.1734 25.7508 56.7963
    endloop
  endfacet
endsolid OpenSCAD_Model
