solid OpenSCAD_Model
  facet normal -5.1941e-07 0.154701 -0.987961
    outer loop
      vertex 44.5293 15.9363 -77.1272
      vertex -0 -60.2624 -89.0588
      vertex -44.5295 15.9363 -77.1272
    endloop
  endfacet
  facet normal -0.493981 -0.154701 -0.855599
    outer loop
      vertex -44.5295 15.9363 -77.1272
      vertex -0 -60.2624 -89.0588
      vertex -77.1272 -60.2624 -44.5294
    endloop
  endfacet
  facet normal -0.8556 0.1547 -0.49398
    outer loop
      vertex -44.5295 15.9363 -77.1272
      vertex -77.1272 -60.2624 -44.5294
      vertex -89.0588 15.9362 0.000126041
    endloop
  endfacet
  facet normal -0.987961 -0.154701 -1.27409e-07
    outer loop
      vertex -89.0588 15.9362 0.000126041
      vertex -77.1272 -60.2624 -44.5294
      vertex -77.1272 -60.2625 44.5294
    endloop
  endfacet
  facet normal -0.855599 0.1547 0.493982
    outer loop
      vertex -89.0588 15.9362 0.000126041
      vertex -77.1272 -60.2625 44.5294
      vertex -44.5293 15.9361 77.1273
    endloop
  endfacet
  facet normal -0.49398 -0.154702 0.8556
    outer loop
      vertex -44.5293 15.9361 77.1273
      vertex -77.1272 -60.2625 44.5294
      vertex 7.3025e-05 -60.2625 89.0588
    endloop
  endfacet
  facet normal -2.56999e-07 1 1.33542e-06
    outer loop
      vertex 1.693e-06 88.6525 -51.4181
      vertex -44.5294 88.6524 25.7092
      vertex 44.5294 88.6524 25.7091
    endloop
  endfacet
  facet normal -0.816496 0.333333 0.471406
    outer loop
      vertex -44.5294 88.6524 25.7092
      vertex -89.0588 15.9362 0.000126041
      vertex -44.5293 15.9361 77.1273
    endloop
  endfacet
  facet normal 0.816497 0.333334 0.471404
    outer loop
      vertex 44.5294 88.6524 25.7091
      vertex 44.5295 15.9361 77.1271
      vertex 89.0588 15.9362 -6.507e-05
    endloop
  endfacet
  facet normal -5.09591e-07 0.333334 -0.942809
    outer loop
      vertex 1.693e-06 88.6525 -51.4181
      vertex 44.5293 15.9363 -77.1272
      vertex -44.5295 15.9363 -77.1272
    endloop
  endfacet
  facet normal 1.56666e-06 0.1547 0.987961
    outer loop
      vertex -44.5293 15.9361 77.1273
      vertex 7.3025e-05 -60.2625 89.0588
      vertex 44.5295 15.9361 77.1271
    endloop
  endfacet
  facet normal 0.493981 -0.154701 0.855599
    outer loop
      vertex 44.5295 15.9361 77.1271
      vertex 7.3025e-05 -60.2625 89.0588
      vertex 77.1272 -60.2625 44.5293
    endloop
  endfacet
  facet normal 0.8556 0.1547 0.49398
    outer loop
      vertex 44.5295 15.9361 77.1271
      vertex 77.1272 -60.2625 44.5293
      vertex 89.0588 15.9362 -6.507e-05
    endloop
  endfacet
  facet normal 0.987961 -0.154701 -1.18129e-06
    outer loop
      vertex 89.0588 15.9362 -6.507e-05
      vertex 77.1272 -60.2625 44.5293
      vertex 77.1271 -60.2624 -44.5295
    endloop
  endfacet
  facet normal 0.855599 0.154701 -0.493982
    outer loop
      vertex 89.0588 15.9362 -6.507e-05
      vertex 77.1271 -60.2624 -44.5295
      vertex 44.5293 15.9363 -77.1272
    endloop
  endfacet
  facet normal 0.49398 -0.1547 -0.8556
    outer loop
      vertex 44.5293 15.9363 -77.1272
      vertex 77.1271 -60.2624 -44.5295
      vertex -0 -60.2624 -89.0588
    endloop
  endfacet
  facet normal -0.707107 0.577351 -0.408247
    outer loop
      vertex -89.0588 15.9362 0.000126041
      vertex 1.693e-06 88.6525 -51.4181
      vertex -44.5295 15.9363 -77.1272
    endloop
  endfacet
  facet normal -0.707107 0.577351 -0.408247
    outer loop
      vertex 1.693e-06 88.6525 -51.4181
      vertex -89.0588 15.9362 0.000126041
      vertex -44.5294 88.6524 25.7092
    endloop
  endfacet
  facet normal 1.17443e-06 0.57735 0.816497
    outer loop
      vertex 44.5294 88.6524 25.7091
      vertex -44.5293 15.9361 77.1273
      vertex 44.5295 15.9361 77.1271
    endloop
  endfacet
  facet normal 1.18061e-06 0.57735 0.816497
    outer loop
      vertex -44.5293 15.9361 77.1273
      vertex 44.5294 88.6524 25.7091
      vertex -44.5294 88.6524 25.7092
    endloop
  endfacet
  facet normal 0.707107 0.577351 -0.408248
    outer loop
      vertex 89.0588 15.9362 -6.507e-05
      vertex 1.693e-06 88.6525 -51.4181
      vertex 44.5294 88.6524 25.7091
    endloop
  endfacet
  facet normal 0.707107 0.57735 -0.408249
    outer loop
      vertex 1.693e-06 88.6525 -51.4181
      vertex 89.0588 15.9362 -6.507e-05
      vertex 44.5293 15.9363 -77.1272
    endloop
  endfacet
  facet normal 0 -1 0
    outer loop
      vertex -77.1272 -60.2625 44.5294
      vertex 77.1272 -60.2625 44.5293
      vertex 7.3025e-05 -60.2625 89.0588
    endloop
  endfacet
  facet normal -1.22028e-12 -1 -1.37067e-06
    outer loop
      vertex -77.1272 -60.2624 -44.5294
      vertex 77.1272 -60.2625 44.5293
      vertex -77.1272 -60.2625 44.5294
    endloop
  endfacet
  facet normal -1.73111e-07 -1 -1.07084e-06
    outer loop
      vertex -77.1272 -60.2624 -44.5294
      vertex 77.1271 -60.2624 -44.5295
      vertex 77.1272 -60.2625 44.5293
    endloop
  endfacet
  facet normal -1.7311e-07 -1 -2.99834e-07
    outer loop
      vertex 77.1271 -60.2624 -44.5295
      vertex -77.1272 -60.2624 -44.5294
      vertex -0 -60.2624 -89.0588
    endloop
  endfacet
endsolid OpenSCAD_Model
