solid OpenSCAD_Model
  facet normal 0 -1 0
    outer loop
      vertex -73.1615 -46.0645 -31.971
      vertex 53.0144 -46.0645 59.7011
      vertex -43.3754 -46.0645 59.7011
    endloop
  endfacet
  facet normal 0 -1 0
    outer loop
      vertex -73.1615 -46.0645 -31.971
      vertex 82.8004 -46.0645 -31.971
      vertex 53.0144 -46.0645 59.7011
    endloop
  endfacet
  facet normal -0 -1 0
    outer loop
      vertex 82.8004 -46.0645 -31.971
      vertex -73.1615 -46.0645 -31.971
      vertex 4.81949 -46.0645 -88.6275
    endloop
  endfacet
  facet normal 0.525731 0.447214 -0.723607
    outer loop
      vertex 4.81949 -46.0645 -88.6275
      vertex 82.8004 35.9295 18.7041
      vertex 82.8004 -46.0645 -31.971
    endloop
  endfacet
  facet normal 0.525731 0.447214 -0.723607
    outer loop
      vertex -43.3754 35.9295 -72.968
      vertex 82.8004 35.9295 18.7041
      vertex 4.81949 -46.0645 -88.6275
    endloop
  endfacet
  facet normal 0.525731 0.447214 -0.723607
    outer loop
      vertex 82.8004 35.9295 18.7041
      vertex -43.3754 35.9295 -72.968
      vertex 4.81949 86.6046 -6.63346
    endloop
  endfacet
  facet normal -0.57735 0.187593 0.794654
    outer loop
      vertex -73.1615 35.9295 18.7041
      vertex -43.3754 -46.0645 59.7011
      vertex 4.81949 35.9295 75.3606
    endloop
  endfacet
  facet normal 0 -0.187592 0.982247
    outer loop
      vertex 4.81949 35.9295 75.3606
      vertex -43.3754 -46.0645 59.7011
      vertex 53.0144 -46.0645 59.7011
    endloop
  endfacet
  facet normal 0.934172 -0.187592 0.303531
    outer loop
      vertex 53.0144 -46.0645 59.7011
      vertex 82.8004 -46.0645 -31.971
      vertex 82.8004 35.9295 18.7041
    endloop
  endfacet
  facet normal 0.57735 0.187592 0.794654
    outer loop
      vertex 53.0144 -46.0645 59.7011
      vertex 82.8004 35.9295 18.7041
      vertex 4.81949 35.9295 75.3606
    endloop
  endfacet
  facet normal 0.356822 0.794654 0.491123
    outer loop
      vertex 82.8004 35.9295 18.7041
      vertex 4.81949 86.6046 -6.63346
      vertex 4.81949 35.9295 75.3606
    endloop
  endfacet
  facet normal -0.57735 0.794654 -0.187592
    outer loop
      vertex 4.81949 86.6046 -6.63346
      vertex -43.3754 35.9295 -72.968
      vertex -73.1615 35.9295 18.7041
    endloop
  endfacet
  facet normal -0.356822 0.794654 0.491123
    outer loop
      vertex 4.81949 86.6046 -6.63346
      vertex -73.1615 35.9295 18.7041
      vertex 4.81949 35.9295 75.3606
    endloop
  endfacet
  facet normal -0.57735 -0.187593 -0.794654
    outer loop
      vertex 4.81949 -46.0645 -88.6275
      vertex -73.1615 -46.0645 -31.971
      vertex -43.3754 35.9295 -72.968
    endloop
  endfacet
  facet normal -0.934172 0.187592 -0.303531
    outer loop
      vertex -73.1615 -46.0645 -31.971
      vertex -73.1615 35.9295 18.7041
      vertex -43.3754 35.9295 -72.968
    endloop
  endfacet
  facet normal -0.934172 -0.187592 0.303531
    outer loop
      vertex -73.1615 -46.0645 -31.971
      vertex -43.3754 -46.0645 59.7011
      vertex -73.1615 35.9295 18.7041
    endloop
  endfacet
endsolid OpenSCAD_Model
