solid OpenSCAD_Model
  facet normal 0.866025 0 -0.5
    outer loop
      vertex 37.9796 -37.9796 21.9275
      vertex 0 37.9796 -43.8551
      vertex 37.9796 37.9796 21.9275
    endloop
  endfacet
  facet normal 0.866025 -0 -0.5
    outer loop
      vertex 0 37.9796 -43.8551
      vertex 37.9796 -37.9796 21.9275
      vertex -0 -37.9796 -43.8551
    endloop
  endfacet
  facet normal 0.816497 -0.333333 -0.471405
    outer loop
      vertex -0 -37.9796 -43.8551
      vertex 37.9796 -37.9796 21.9275
      vertex -0 -100 0
    endloop
  endfacet
  facet normal 0.816497 0.333333 -0.471405
    outer loop
      vertex 37.9796 37.9796 21.9275
      vertex 0 37.9796 -43.8551
      vertex 0 100 0
    endloop
  endfacet
  facet normal -0.866025 0 -0.5
    outer loop
      vertex -0 -37.9796 -43.8551
      vertex -37.9796 37.9796 21.9275
      vertex 0 37.9796 -43.8551
    endloop
  endfacet
  facet normal -0.866025 -0 -0.5
    outer loop
      vertex -37.9796 37.9796 21.9275
      vertex -0 -37.9796 -43.8551
      vertex -37.9796 -37.9796 21.9275
    endloop
  endfacet
  facet normal -0.816497 -0.333333 -0.471405
    outer loop
      vertex -37.9796 -37.9796 21.9275
      vertex -0 -37.9796 -43.8551
      vertex -0 -100 0
    endloop
  endfacet
  facet normal -0.816497 0.333333 -0.471405
    outer loop
      vertex 0 37.9796 -43.8551
      vertex -37.9796 37.9796 21.9275
      vertex 0 100 0
    endloop
  endfacet
  facet normal -0 0 1
    outer loop
      vertex -37.9796 37.9796 21.9275
      vertex 37.9796 -37.9796 21.9275
      vertex 37.9796 37.9796 21.9275
    endloop
  endfacet
  facet normal 0 0 1
    outer loop
      vertex 37.9796 -37.9796 21.9275
      vertex -37.9796 37.9796 21.9275
      vertex -37.9796 -37.9796 21.9275
    endloop
  endfacet
  facet normal 0 -0.333333 0.942809
    outer loop
      vertex 37.9796 -37.9796 21.9275
      vertex -37.9796 -37.9796 21.9275
      vertex -0 -100 0
    endloop
  endfacet
  facet normal -0 0.333333 0.942809
    outer loop
      vertex -37.9796 37.9796 21.9275
      vertex 37.9796 37.9796 21.9275
      vertex 0 100 0
    endloop
  endfacet
endsolid OpenSCAD_Model
