solid OpenSCAD_Model
  facet normal 0 -1 0
    outer loop
      vertex -80.4313 -10.7677 58.4368
      vertex 30.722 -10.7677 94.5527
      vertex -30.722 -10.7677 94.5527
    endloop
  endfacet
  facet normal 0 -1 0
    outer loop
      vertex -80.4313 -10.7677 58.4368
      vertex 80.4313 -10.7677 58.4368
      vertex 30.722 -10.7677 94.5527
    endloop
  endfacet
  facet normal 0 -1 0
    outer loop
      vertex -99.4186 -10.7677 0
      vertex 80.4313 -10.7677 58.4368
      vertex -80.4313 -10.7677 58.4368
    endloop
  endfacet
  facet normal 0 -1 0
    outer loop
      vertex -99.4186 -10.7677 0
      vertex 99.4186 -10.7677 0
      vertex 80.4313 -10.7677 58.4368
    endloop
  endfacet
  facet normal 0 -1 0
    outer loop
      vertex -80.4313 -10.7677 -58.4368
      vertex 99.4186 -10.7677 0
      vertex -99.4186 -10.7677 0
    endloop
  endfacet
  facet normal 0 -1 0
    outer loop
      vertex -80.4313 -10.7677 -58.4368
      vertex 80.4313 -10.7677 -58.4368
      vertex 99.4186 -10.7677 0
    endloop
  endfacet
  facet normal 0 -1 0
    outer loop
      vertex -30.722 -10.7677 -94.5527
      vertex 80.4313 -10.7677 -58.4368
      vertex -80.4313 -10.7677 -58.4368
    endloop
  endfacet
  facet normal 0 -1 0
    outer loop
      vertex 80.4313 -10.7677 -58.4368
      vertex -30.722 -10.7677 -94.5527
      vertex 30.722 -10.7677 -94.5527
    endloop
  endfacet
  facet normal 0 1 0
    outer loop
      vertex 49.7093 21.5354 16.1515
      vertex -49.7093 21.5354 16.1515
      vertex 0 21.5354 52.2674
    endloop
  endfacet
  facet normal 0 1 -0
    outer loop
      vertex 30.722 21.5354 -42.2853
      vertex -49.7093 21.5354 16.1515
      vertex 49.7093 21.5354 16.1515
    endloop
  endfacet
  facet normal 0 1 0
    outer loop
      vertex -49.7093 21.5354 16.1515
      vertex 30.722 21.5354 -42.2853
      vertex -30.722 21.5354 -42.2853
    endloop
  endfacet
  facet normal 0 0.850651 -0.525731
    outer loop
      vertex 30.722 -10.7677 -94.5527
      vertex -30.722 21.5354 -42.2853
      vertex 30.722 21.5354 -42.2853
    endloop
  endfacet
  facet normal 0 0.850651 -0.525731
    outer loop
      vertex -30.722 21.5354 -42.2853
      vertex 30.722 -10.7677 -94.5527
      vertex -30.722 -10.7677 -94.5527
    endloop
  endfacet
  facet normal -0.356822 0.794654 -0.491123
    outer loop
      vertex -30.722 21.5354 -42.2853
      vertex -30.722 -10.7677 -94.5527
      vertex -80.4313 -10.7677 -58.4368
    endloop
  endfacet
  facet normal -0.5 0.850651 -0.16246
    outer loop
      vertex -30.722 21.5354 -42.2853
      vertex -99.4186 -10.7677 0
      vertex -49.7093 21.5354 16.1515
    endloop
  endfacet
  facet normal -0.5 0.850651 -0.16246
    outer loop
      vertex -99.4186 -10.7677 0
      vertex -30.722 21.5354 -42.2853
      vertex -80.4313 -10.7677 -58.4368
    endloop
  endfacet
  facet normal -0.57735 0.794654 0.187592
    outer loop
      vertex -49.7093 21.5354 16.1515
      vertex -99.4186 -10.7677 0
      vertex -80.4313 -10.7677 58.4368
    endloop
  endfacet
  facet normal -0.309017 0.850651 0.425325
    outer loop
      vertex 0 21.5354 52.2674
      vertex -80.4313 -10.7677 58.4368
      vertex -30.722 -10.7677 94.5527
    endloop
  endfacet
  facet normal -0.309017 0.850651 0.425325
    outer loop
      vertex -80.4313 -10.7677 58.4368
      vertex 0 21.5354 52.2674
      vertex -49.7093 21.5354 16.1515
    endloop
  endfacet
  facet normal 0 0.794654 0.607062
    outer loop
      vertex 0 21.5354 52.2674
      vertex -30.722 -10.7677 94.5527
      vertex 30.722 -10.7677 94.5527
    endloop
  endfacet
  facet normal 0.309017 0.850651 0.425325
    outer loop
      vertex 80.4313 -10.7677 58.4368
      vertex 0 21.5354 52.2674
      vertex 30.722 -10.7677 94.5527
    endloop
  endfacet
  facet normal 0.309017 0.850651 0.425325
    outer loop
      vertex 0 21.5354 52.2674
      vertex 80.4313 -10.7677 58.4368
      vertex 49.7093 21.5354 16.1515
    endloop
  endfacet
  facet normal 0.57735 0.794654 0.187592
    outer loop
      vertex 49.7093 21.5354 16.1515
      vertex 80.4313 -10.7677 58.4368
      vertex 99.4186 -10.7677 0
    endloop
  endfacet
  facet normal 0.5 0.850651 -0.16246
    outer loop
      vertex 99.4186 -10.7677 0
      vertex 30.722 21.5354 -42.2853
      vertex 49.7093 21.5354 16.1515
    endloop
  endfacet
  facet normal 0.5 0.850651 -0.16246
    outer loop
      vertex 30.722 21.5354 -42.2853
      vertex 99.4186 -10.7677 0
      vertex 80.4313 -10.7677 -58.4368
    endloop
  endfacet
  facet normal 0.356822 0.794654 -0.491123
    outer loop
      vertex 30.722 21.5354 -42.2853
      vertex 80.4313 -10.7677 -58.4368
      vertex 30.722 -10.7677 -94.5527
    endloop
  endfacet
endsolid OpenSCAD_Model
