solid OpenSCAD_Model
  facet normal 0 -1 0
    outer loop
      vertex -96.4901 -26.2613 0
      vertex 48.2451 -26.2613 83.5629
      vertex -48.2451 -26.2613 83.5629
    endloop
  endfacet
  facet normal 0 -1 0
    outer loop
      vertex -96.4901 -26.2613 0
      vertex 96.4901 -26.2613 0
      vertex 48.2451 -26.2613 83.5629
    endloop
  endfacet
  facet normal 0 -1 0
    outer loop
      vertex -48.2451 -26.2613 -83.5629
      vertex 96.4901 -26.2613 0
      vertex -96.4901 -26.2613 0
    endloop
  endfacet
  facet normal 0 -1 0
    outer loop
      vertex 96.4901 -26.2613 0
      vertex -48.2451 -26.2613 -83.5629
      vertex 48.2451 -26.2613 -83.5629
    endloop
  endfacet
  facet normal 0 1 0
    outer loop
      vertex 48.2451 52.5226 27.8543
      vertex 0 52.5226 -55.7086
      vertex -48.2451 52.5226 27.8543
    endloop
  endfacet
  facet normal 0.707107 0.57735 -0.408248
    outer loop
      vertex 96.4901 -26.2613 0
      vertex 0 52.5226 -55.7086
      vertex 48.2451 52.5226 27.8543
    endloop
  endfacet
  facet normal 0.707107 0.57735 -0.408248
    outer loop
      vertex 0 52.5226 -55.7086
      vertex 96.4901 -26.2613 0
      vertex 48.2451 -26.2613 -83.5629
    endloop
  endfacet
  facet normal 0 0.333333 -0.942809
    outer loop
      vertex 0 52.5226 -55.7086
      vertex 48.2451 -26.2613 -83.5629
      vertex -48.2451 -26.2613 -83.5629
    endloop
  endfacet
  facet normal -0.707107 0.57735 -0.408248
    outer loop
      vertex -96.4901 -26.2613 0
      vertex 0 52.5226 -55.7086
      vertex -48.2451 -26.2613 -83.5629
    endloop
  endfacet
  facet normal -0.707107 0.57735 -0.408248
    outer loop
      vertex 0 52.5226 -55.7086
      vertex -96.4901 -26.2613 0
      vertex -48.2451 52.5226 27.8543
    endloop
  endfacet
  facet normal -0.816497 0.333333 0.471405
    outer loop
      vertex -48.2451 52.5226 27.8543
      vertex -96.4901 -26.2613 0
      vertex -48.2451 -26.2613 83.5629
    endloop
  endfacet
  facet normal -0 0.57735 0.816497
    outer loop
      vertex -48.2451 52.5226 27.8543
      vertex 48.2451 -26.2613 83.5629
      vertex 48.2451 52.5226 27.8543
    endloop
  endfacet
  facet normal 0 0.57735 0.816497
    outer loop
      vertex 48.2451 -26.2613 83.5629
      vertex -48.2451 52.5226 27.8543
      vertex -48.2451 -26.2613 83.5629
    endloop
  endfacet
  facet normal 0.816497 0.333333 0.471405
    outer loop
      vertex 48.2451 52.5226 27.8543
      vertex 48.2451 -26.2613 83.5629
      vertex 96.4901 -26.2613 0
    endloop
  endfacet
endsolid OpenSCAD_Model
