solid OpenSCAD_Model
  facet normal 0 -1 0
    outer loop
      vertex -58.8465 -36.3692 24.3475
      vertex 58.8465 -36.3692 24.3475
      vertex -0 -36.3692 67.102
    endloop
  endfacet
  facet normal 0 -1 0
    outer loop
      vertex -36.3692 -36.3692 -44.8308
      vertex 58.8465 -36.3692 24.3475
      vertex -58.8465 -36.3692 24.3475
    endloop
  endfacet
  facet normal 0 -1 0
    outer loop
      vertex 58.8465 -36.3692 24.3475
      vertex -36.3692 -36.3692 -44.8308
      vertex 36.3692 -36.3692 -44.8308
    endloop
  endfacet
  facet normal 0 1 0
    outer loop
      vertex 58.8465 36.3692 24.3475
      vertex -58.8465 36.3692 24.3475
      vertex 0 36.3692 67.102
    endloop
  endfacet
  facet normal 0 1 -0
    outer loop
      vertex 36.3692 36.3692 -44.8308
      vertex -58.8465 36.3692 24.3475
      vertex 58.8465 36.3692 24.3475
    endloop
  endfacet
  facet normal 0 1 0
    outer loop
      vertex -58.8465 36.3692 24.3475
      vertex 36.3692 36.3692 -44.8308
      vertex -36.3692 36.3692 -44.8308
    endloop
  endfacet
  facet normal 0.587785 0 0.809017
    outer loop
      vertex 0 36.3692 67.102
      vertex 58.8465 -36.3692 24.3475
      vertex 58.8465 36.3692 24.3475
    endloop
  endfacet
  facet normal 0.587785 0 0.809017
    outer loop
      vertex 58.8465 -36.3692 24.3475
      vertex 0 36.3692 67.102
      vertex -0 -36.3692 67.102
    endloop
  endfacet
  facet normal -0.587785 0 0.809017
    outer loop
      vertex -58.8465 36.3692 24.3475
      vertex -0 -36.3692 67.102
      vertex 0 36.3692 67.102
    endloop
  endfacet
  facet normal -0.587785 0 0.809017
    outer loop
      vertex -0 -36.3692 67.102
      vertex -58.8465 36.3692 24.3475
      vertex -58.8465 -36.3692 24.3475
    endloop
  endfacet
  facet normal 0 0 -1
    outer loop
      vertex -36.3692 -36.3692 -44.8308
      vertex 36.3692 36.3692 -44.8308
      vertex 36.3692 -36.3692 -44.8308
    endloop
  endfacet
  facet normal -0 0 -1
    outer loop
      vertex 36.3692 36.3692 -44.8308
      vertex -36.3692 -36.3692 -44.8308
      vertex -36.3692 36.3692 -44.8308
    endloop
  endfacet
  facet normal -0.549093 -0.816497 -0.178411
    outer loop
      vertex -58.8465 -36.3692 24.3475
      vertex -96.5243 -0 -26.1355
      vertex -36.3692 -36.3692 -44.8308
    endloop
  endfacet
  facet normal -0.801404 0 0.598123
    outer loop
      vertex -58.8465 -36.3692 24.3475
      vertex -58.8465 36.3692 24.3475
      vertex -96.5243 -0 -26.1355
    endloop
  endfacet
  facet normal -0.296781 0 -0.954945
    outer loop
      vertex -36.3692 -36.3692 -44.8308
      vertex -96.5243 -0 -26.1355
      vertex -36.3692 36.3692 -44.8308
    endloop
  endfacet
  facet normal -0.549093 0.816497 -0.178411
    outer loop
      vertex -36.3692 36.3692 -44.8308
      vertex -96.5243 -0 -26.1355
      vertex -58.8465 36.3692 24.3475
    endloop
  endfacet
  facet normal 0.549093 -0.816497 -0.178411
    outer loop
      vertex 36.3692 -36.3692 -44.8308
      vertex 96.5243 0 -26.1355
      vertex 58.8465 -36.3692 24.3475
    endloop
  endfacet
  facet normal 0.296781 0 -0.954945
    outer loop
      vertex 36.3692 -36.3692 -44.8308
      vertex 36.3692 36.3692 -44.8308
      vertex 96.5243 0 -26.1355
    endloop
  endfacet
  facet normal 0.801404 -0 0.598123
    outer loop
      vertex 58.8465 -36.3692 24.3475
      vertex 96.5243 0 -26.1355
      vertex 58.8465 36.3692 24.3475
    endloop
  endfacet
  facet normal 0.549093 0.816497 -0.178411
    outer loop
      vertex 58.8465 36.3692 24.3475
      vertex 96.5243 0 -26.1355
      vertex 36.3692 36.3692 -44.8308
    endloop
  endfacet
endsolid OpenSCAD_Model
