solid OpenSCAD_Model
  facet normal 0.356822 0.794654 0.491123
    outer loop
      vertex 0 -0 100
      vertex 95.1057 -0 30.9017
      vertex 0 61.8034 0
    endloop
  endfacet
  facet normal -0 0.794654 -0.607062
    outer loop
      vertex 58.7785 0 -80.9017
      vertex -58.7785 -0 -80.9017
      vertex 0 61.8034 0
    endloop
  endfacet
  facet normal 0.57735 0.794654 -0.187592
    outer loop
      vertex 95.1057 -0 30.9017
      vertex 58.7785 0 -80.9017
      vertex 0 61.8034 0
    endloop
  endfacet
  facet normal -0.356822 0.794654 0.491123
    outer loop
      vertex -95.1057 -0 30.9017
      vertex 0 -0 100
      vertex 0 61.8034 0
    endloop
  endfacet
  facet normal -0.57735 0.794654 -0.187592
    outer loop
      vertex -58.7785 -0 -80.9017
      vertex -95.1057 -0 30.9017
      vertex 0 61.8034 0
    endloop
  endfacet
  facet normal 0.356822 -0.794654 0.491123
    outer loop
      vertex 95.1057 -0 30.9017
      vertex 0 -0 100
      vertex -0 -61.8034 0
    endloop
  endfacet
  facet normal 0 -0.794654 -0.607062
    outer loop
      vertex -58.7785 -0 -80.9017
      vertex 58.7785 0 -80.9017
      vertex -0 -61.8034 0
    endloop
  endfacet
  facet normal 0.57735 -0.794654 -0.187592
    outer loop
      vertex 58.7785 0 -80.9017
      vertex 95.1057 -0 30.9017
      vertex -0 -61.8034 0
    endloop
  endfacet
  facet normal -0.356822 -0.794654 0.491123
    outer loop
      vertex 0 -0 100
      vertex -95.1057 -0 30.9017
      vertex -0 -61.8034 0
    endloop
  endfacet
  facet normal -0.57735 -0.794654 -0.187592
    outer loop
      vertex -95.1057 -0 30.9017
      vertex -58.7785 -0 -80.9017
      vertex -0 -61.8034 0
    endloop
  endfacet
endsolid OpenSCAD_Model
