solid OpenSCAD_Model
  facet normal 0 -1 0
    outer loop
      vertex -49.5661 -70.1747 -17.5968
      vertex 30.6335 -70.1747 40.6716
      vertex -30.6335 -70.1747 40.6716
    endloop
  endfacet
  facet normal 0 -1 0
    outer loop
      vertex -49.5661 -70.1747 -17.5968
      vertex 49.5661 -70.1747 -17.5968
      vertex 30.6335 -70.1747 40.6716
    endloop
  endfacet
  facet normal -0 -1 0
    outer loop
      vertex 49.5661 -70.1747 -17.5968
      vertex -49.5661 -70.1747 -17.5968
      vertex -0 -70.1747 -53.6087
    endloop
  endfacet
  facet normal 0.850651 -0.447214 0.276393
    outer loop
      vertex 30.6335 -70.1747 40.6716
      vertex 80.1996 14.1522 24.5666
      vertex 49.5661 -18.0578 66.7301
    endloop
  endfacet
  facet normal 0.850651 -0.447214 0.276393
    outer loop
      vertex 80.1996 14.1522 24.5666
      vertex 30.6335 -70.1747 40.6716
      vertex 80.1996 -18.0578 -27.5502
    endloop
  endfacet
  facet normal 0.850651 -0.447214 0.276393
    outer loop
      vertex 80.1996 -18.0578 -27.5502
      vertex 30.6335 -70.1747 40.6716
      vertex 49.5661 -70.1747 -17.5968
    endloop
  endfacet
  facet normal -0.850651 -0.447214 0.276393
    outer loop
      vertex -30.6335 -70.1747 40.6716
      vertex -80.1996 14.1522 24.5666
      vertex -80.1996 -18.0578 -27.5502
    endloop
  endfacet
  facet normal -0.850651 -0.447214 0.276393
    outer loop
      vertex -30.6335 -70.1747 40.6716
      vertex -80.1996 -18.0578 -27.5502
      vertex -49.5661 -70.1747 -17.5968
    endloop
  endfacet
  facet normal -0.850651 -0.447214 0.276393
    outer loop
      vertex -80.1996 14.1522 24.5666
      vertex -30.6335 -70.1747 40.6716
      vertex -49.5661 -18.0578 66.7301
    endloop
  endfacet
  facet normal -0.525731 -0.447214 -0.723607
    outer loop
      vertex -49.5661 -70.1747 -17.5968
      vertex -0 -18.0578 -85.8187
      vertex -0 -70.1747 -53.6087
    endloop
  endfacet
  facet normal -0.525731 -0.447214 -0.723607
    outer loop
      vertex -80.1996 -18.0578 -27.5502
      vertex -0 -18.0578 -85.8187
      vertex -49.5661 -70.1747 -17.5968
    endloop
  endfacet
  facet normal -0.525731 -0.447214 -0.723607
    outer loop
      vertex -0 -18.0578 -85.8187
      vertex -80.1996 -18.0578 -27.5502
      vertex -49.5661 14.1522 -69.7137
    endloop
  endfacet
  facet normal 0.525731 -0.447214 -0.723607
    outer loop
      vertex -0 -18.0578 -85.8187
      vertex 80.1996 -18.0578 -27.5502
      vertex 49.5661 -70.1747 -17.5968
    endloop
  endfacet
  facet normal 0.525731 -0.447214 -0.723607
    outer loop
      vertex -0 -18.0578 -85.8187
      vertex 49.5661 -70.1747 -17.5968
      vertex -0 -70.1747 -53.6087
    endloop
  endfacet
  facet normal 0.525731 -0.447214 -0.723607
    outer loop
      vertex 80.1996 -18.0578 -27.5502
      vertex -0 -18.0578 -85.8187
      vertex 49.5661 14.1522 -69.7137
    endloop
  endfacet
  facet normal -7.0868e-08 0.447214 -0.894427
    outer loop
      vertex -0 -18.0578 -85.8187
      vertex 30.6335 66.2691 -43.6552
      vertex 49.5661 14.1522 -69.7137
    endloop
  endfacet
  facet normal 0 0.447214 -0.894427
    outer loop
      vertex -0 -18.0578 -85.8187
      vertex -30.6335 66.2691 -43.6552
      vertex 30.6335 66.2691 -43.6552
    endloop
  endfacet
  facet normal 7.0868e-08 0.447214 -0.894427
    outer loop
      vertex -30.6335 66.2691 -43.6552
      vertex -0 -18.0578 -85.8187
      vertex -49.5661 14.1522 -69.7137
    endloop
  endfacet
  facet normal -0.525731 0.447214 0.723607
    outer loop
      vertex -49.5661 66.2691 14.6132
      vertex 0 14.1522 82.8351
      vertex 0 66.2691 50.6251
    endloop
  endfacet
  facet normal -0.525731 0.447214 0.723607
    outer loop
      vertex -80.1996 14.1522 24.5666
      vertex 0 14.1522 82.8351
      vertex -49.5661 66.2691 14.6132
    endloop
  endfacet
  facet normal -0.525731 0.447214 0.723607
    outer loop
      vertex 0 14.1522 82.8351
      vertex -80.1996 14.1522 24.5666
      vertex -49.5661 -18.0578 66.7301
    endloop
  endfacet
  facet normal 0.525731 0.447214 0.723607
    outer loop
      vertex 0 14.1522 82.8351
      vertex 80.1996 14.1522 24.5666
      vertex 49.5661 66.2691 14.6132
    endloop
  endfacet
  facet normal 0.525731 0.447214 0.723607
    outer loop
      vertex 0 14.1522 82.8351
      vertex 49.5661 66.2691 14.6132
      vertex 0 66.2691 50.6251
    endloop
  endfacet
  facet normal 0.525731 0.447214 0.723607
    outer loop
      vertex 80.1996 14.1522 24.5666
      vertex 0 14.1522 82.8351
      vertex 49.5661 -18.0578 66.7301
    endloop
  endfacet
  facet normal 0 1 0
    outer loop
      vertex 49.5661 66.2691 14.6132
      vertex -49.5661 66.2691 14.6132
      vertex 0 66.2691 50.6251
    endloop
  endfacet
  facet normal 0 1 -0
    outer loop
      vertex 30.6335 66.2691 -43.6552
      vertex -49.5661 66.2691 14.6132
      vertex 49.5661 66.2691 14.6132
    endloop
  endfacet
  facet normal 0 1 0
    outer loop
      vertex -49.5661 66.2691 14.6132
      vertex 30.6335 66.2691 -43.6552
      vertex -30.6335 66.2691 -43.6552
    endloop
  endfacet
  facet normal -0.417775 0.898353 -0.135743
    outer loop
      vertex -85.4324 42.9617 -29.2505
      vertex -49.5661 66.2691 14.6132
      vertex -30.6335 66.2691 -43.6552
    endloop
  endfacet
  facet normal -0.417775 0.523168 -0.742805
    outer loop
      vertex -85.4324 42.9617 -29.2505
      vertex -30.6335 66.2691 -43.6552
      vertex -49.5661 14.1522 -69.7137
    endloop
  endfacet
  facet normal -0.774597 0.523168 0.35538
    outer loop
      vertex -85.4324 42.9617 -29.2505
      vertex -80.1996 14.1522 24.5666
      vertex -49.5661 66.2691 14.6132
    endloop
  endfacet
  facet normal -0.995125 -0.083894 0.0518493
    outer loop
      vertex -85.4324 42.9617 -29.2505
      vertex -80.1996 -18.0578 -27.5502
      vertex -80.1996 14.1522 24.5666
    endloop
  endfacet
  facet normal -0.774597 -0.0838939 -0.626867
    outer loop
      vertex -80.1996 -18.0578 -27.5502
      vertex -85.4324 42.9617 -29.2505
      vertex -49.5661 14.1522 -69.7137
    endloop
  endfacet
  facet normal 0 -0.898353 0.439274
    outer loop
      vertex -0 -46.8673 88.3372
      vertex -30.6335 -70.1747 40.6716
      vertex 30.6335 -70.1747 40.6716
    endloop
  endfacet
  facet normal 0.57735 -0.523168 0.626867
    outer loop
      vertex -0 -46.8673 88.3372
      vertex 30.6335 -70.1747 40.6716
      vertex 49.5661 -18.0578 66.7301
    endloop
  endfacet
  facet normal -0.57735 -0.523168 0.626867
    outer loop
      vertex -0 -46.8673 88.3372
      vertex -49.5661 -18.0578 66.7301
      vertex -30.6335 -70.1747 40.6716
    endloop
  endfacet
  facet normal -0.356822 0.0838939 0.930398
    outer loop
      vertex -0 -46.8673 88.3372
      vertex 0 14.1522 82.8351
      vertex -49.5661 -18.0578 66.7301
    endloop
  endfacet
  facet normal 0.356822 0.0838939 0.930398
    outer loop
      vertex 0 14.1522 82.8351
      vertex -0 -46.8673 88.3372
      vertex 49.5661 -18.0578 66.7301
    endloop
  endfacet
  facet normal 0.417775 0.898353 -0.135743
    outer loop
      vertex 85.4324 42.9617 -29.2505
      vertex 30.6335 66.2691 -43.6552
      vertex 49.5661 66.2691 14.6132
    endloop
  endfacet
  facet normal 0.774597 0.523168 0.35538
    outer loop
      vertex 85.4324 42.9617 -29.2505
      vertex 49.5661 66.2691 14.6132
      vertex 80.1996 14.1522 24.5666
    endloop
  endfacet
  facet normal 0.417775 0.523168 -0.742805
    outer loop
      vertex 85.4324 42.9617 -29.2505
      vertex 49.5661 14.1522 -69.7137
      vertex 30.6335 66.2691 -43.6552
    endloop
  endfacet
  facet normal 0.774597 -0.0838939 -0.626867
    outer loop
      vertex 85.4324 42.9617 -29.2505
      vertex 80.1996 -18.0578 -27.5502
      vertex 49.5661 14.1522 -69.7137
    endloop
  endfacet
  facet normal 0.995125 -0.083894 0.0518493
    outer loop
      vertex 80.1996 -18.0578 -27.5502
      vertex 85.4324 42.9617 -29.2505
      vertex 80.1996 14.1522 24.5666
    endloop
  endfacet
endsolid OpenSCAD_Model
