solid OpenSCAD_Model
  facet normal -0.993384 0.114842 -1.1781e-06
    outer loop
      vertex -89.4609 15.0222 -37.0559
      vertex -96.8318 -48.7358 -2.1782e-05
      vertex -89.461 15.0223 37.0559
    endloop
  endfacet
  facet normal -0.917767 -0.114842 0.380151
    outer loop
      vertex -89.461 15.0223 37.0559
      vertex -96.8318 -48.7358 -2.1782e-05
      vertex -68.4705 -48.7358 68.4704
    endloop
  endfacet
  facet normal -0.702429 0.114842 0.702428
    outer loop
      vertex -89.461 15.0223 37.0559
      vertex -68.4705 -48.7358 68.4704
      vertex -37.056 15.0223 89.461
    endloop
  endfacet
  facet normal -0.380152 -0.114843 0.917767
    outer loop
      vertex -37.056 15.0223 89.461
      vertex -68.4705 -48.7358 68.4704
      vertex -0 -48.7358 96.8318
    endloop
  endfacet
  facet normal 2.34378e-07 0.114842 0.993384
    outer loop
      vertex -37.056 15.0223 89.461
      vertex -0 -48.7358 96.8318
      vertex 37.0559 15.0223 89.461
    endloop
  endfacet
  facet normal 0.380152 -0.114842 0.917767
    outer loop
      vertex 37.0559 15.0223 89.461
      vertex -0 -48.7358 96.8318
      vertex 68.4704 -48.7358 68.4705
    endloop
  endfacet
  facet normal 0.702428 0.114842 0.702428
    outer loop
      vertex 37.0559 15.0223 89.461
      vertex 68.4704 -48.7358 68.4705
      vertex 89.4609 15.0223 37.0559
    endloop
  endfacet
  facet normal 0.917767 -0.114843 0.380152
    outer loop
      vertex 89.4609 15.0223 37.0559
      vertex 68.4704 -48.7358 68.4705
      vertex 96.8318 -48.7358 4.9832e-05
    endloop
  endfacet
  facet normal 0.57735 0.577351 0.57735
    outer loop
      vertex 37.0559 67.4273 37.0559
      vertex 37.0559 15.0223 89.461
      vertex 89.4609 15.0223 37.0559
    endloop
  endfacet
  facet normal 0.57735 0.57735 -0.57735
    outer loop
      vertex 37.056 67.4272 -37.0559
      vertex 89.4609 15.0223 -37.0559
      vertex 37.056 15.0223 -89.4608
    endloop
  endfacet
  facet normal -0.57735 0.57735 -0.577351
    outer loop
      vertex -37.0559 67.4273 -37.0559
      vertex -37.0559 15.0223 -89.4609
      vertex -89.4609 15.0222 -37.0559
    endloop
  endfacet
  facet normal -0.577351 0.57735 0.57735
    outer loop
      vertex -37.056 67.4273 37.0559
      vertex -89.461 15.0223 37.0559
      vertex -37.056 15.0223 89.461
    endloop
  endfacet
  facet normal 0.993384 0.114842 -2.57727e-07
    outer loop
      vertex 89.4609 15.0223 37.0559
      vertex 96.8318 -48.7358 4.9832e-05
      vertex 89.4609 15.0223 -37.0559
    endloop
  endfacet
  facet normal 0.917767 -0.114842 -0.380151
    outer loop
      vertex 96.8318 -48.7358 4.9832e-05
      vertex 68.4704 -48.7358 -68.4703
      vertex 89.4609 15.0223 -37.0559
    endloop
  endfacet
  facet normal 0.702428 0.114842 -0.702428
    outer loop
      vertex 89.4609 15.0223 -37.0559
      vertex 68.4704 -48.7358 -68.4703
      vertex 37.056 15.0223 -89.4608
    endloop
  endfacet
  facet normal 0.380152 -0.114842 -0.917767
    outer loop
      vertex 37.056 15.0223 -89.4608
      vertex 68.4704 -48.7358 -68.4703
      vertex 4.425e-05 -48.7359 -96.8317
    endloop
  endfacet
  facet normal 6.52002e-07 0.114842 -0.993384
    outer loop
      vertex 37.056 15.0223 -89.4608
      vertex 4.425e-05 -48.7359 -96.8317
      vertex -37.0559 15.0223 -89.4609
    endloop
  endfacet
  facet normal -0.380151 -0.114842 -0.917767
    outer loop
      vertex -37.0559 15.0223 -89.4609
      vertex 4.425e-05 -48.7359 -96.8317
      vertex -68.4704 -48.7359 -68.4704
    endloop
  endfacet
  facet normal -0.702428 0.114842 -0.702429
    outer loop
      vertex -37.0559 15.0223 -89.4609
      vertex -68.4704 -48.7359 -68.4704
      vertex -89.4609 15.0222 -37.0559
    endloop
  endfacet
  facet normal -0.917767 -0.114842 -0.380152
    outer loop
      vertex -89.4609 15.0222 -37.0559
      vertex -68.4704 -48.7359 -68.4704
      vertex -96.8318 -48.7358 -2.1782e-05
    endloop
  endfacet
  facet normal 3.08833e-07 1 -5.14721e-07
    outer loop
      vertex 37.056 67.4272 -37.0559
      vertex -37.056 67.4273 37.0559
      vertex 37.0559 67.4273 37.0559
    endloop
  endfacet
  facet normal 3.08833e-07 1 -5.14721e-07
    outer loop
      vertex -37.056 67.4273 37.0559
      vertex 37.056 67.4272 -37.0559
      vertex -37.0559 67.4273 -37.0559
    endloop
  endfacet
  facet normal -2.27477e-07 0.707107 0.707106
    outer loop
      vertex 37.0559 67.4273 37.0559
      vertex -37.056 15.0223 89.461
      vertex 37.0559 15.0223 89.461
    endloop
  endfacet
  facet normal -2.54774e-07 0.707107 0.707106
    outer loop
      vertex -37.056 15.0223 89.461
      vertex 37.0559 67.4273 37.0559
      vertex -37.056 67.4273 37.0559
    endloop
  endfacet
  facet normal 0.707106 0.707107 -4.73152e-07
    outer loop
      vertex 89.4609 15.0223 -37.0559
      vertex 37.0559 67.4273 37.0559
      vertex 89.4609 15.0223 37.0559
    endloop
  endfacet
  facet normal 0.707107 0.707107 4.36756e-07
    outer loop
      vertex 37.0559 67.4273 37.0559
      vertex 89.4609 15.0223 -37.0559
      vertex 37.056 67.4272 -37.0559
    endloop
  endfacet
  facet normal 6.73332e-07 0.707107 -0.707107
    outer loop
      vertex -37.0559 15.0223 -89.4609
      vertex 37.056 67.4272 -37.0559
      vertex 37.056 15.0223 -89.4608
    endloop
  endfacet
  facet normal 6.9153e-07 0.707107 -0.707107
    outer loop
      vertex 37.056 67.4272 -37.0559
      vertex -37.0559 15.0223 -89.4609
      vertex -37.0559 67.4273 -37.0559
    endloop
  endfacet
  facet normal -0.707107 0.707107 -1.16468e-06
    outer loop
      vertex -37.0559 67.4273 -37.0559
      vertex -89.461 15.0223 37.0559
      vertex -37.056 67.4273 37.0559
    endloop
  endfacet
  facet normal -0.707107 0.707107 -1.12829e-06
    outer loop
      vertex -89.461 15.0223 37.0559
      vertex -37.0559 67.4273 -37.0559
      vertex -89.4609 15.0222 -37.0559
    endloop
  endfacet
  facet normal -3.34278e-07 -1 -8.07018e-07
    outer loop
      vertex -68.4705 -48.7358 68.4704
      vertex 68.4704 -48.7358 68.4705
      vertex -0 -48.7358 96.8318
    endloop
  endfacet
  facet normal -3.34278e-07 -1 -1.38463e-07
    outer loop
      vertex -68.4705 -48.7358 68.4704
      vertex 96.8318 -48.7358 4.9832e-05
      vertex 68.4704 -48.7358 68.4705
    endloop
  endfacet
  facet normal -2.36371e-07 -1 9.79078e-08
    outer loop
      vertex -96.8318 -48.7358 -2.1782e-05
      vertex 96.8318 -48.7358 4.9832e-05
      vertex -68.4705 -48.7358 68.4704
    endloop
  endfacet
  facet normal -2.36371e-07 -1 4.21947e-08
    outer loop
      vertex -96.8318 -48.7358 -2.1782e-05
      vertex 68.4704 -48.7358 -68.4703
      vertex 96.8318 -48.7358 4.9832e-05
    endloop
  endfacet
  facet normal 2.22852e-07 -1 1.15086e-06
    outer loop
      vertex -68.4704 -48.7359 -68.4704
      vertex 68.4704 -48.7358 -68.4703
      vertex -96.8318 -48.7358 -2.1782e-05
    endloop
  endfacet
  facet normal 2.22852e-07 -1 5.38014e-07
    outer loop
      vertex 68.4704 -48.7358 -68.4703
      vertex -68.4704 -48.7359 -68.4704
      vertex 4.425e-05 -48.7359 -96.8317
    endloop
  endfacet
endsolid OpenSCAD_Model
