solid OpenSCAD_Model
  facet normal 0 -1 0
    outer loop
      vertex -50 -32.492 -16.246
      vertex 30.9017 -32.492 42.5325
      vertex -30.9017 -32.492 42.5325
    endloop
  endfacet
  facet normal 0 -1 0
    outer loop
      vertex -50 -32.492 -16.246
      vertex 50 -32.492 -16.246
      vertex 30.9017 -32.492 42.5325
    endloop
  endfacet
  facet normal -0 -1 0
    outer loop
      vertex 50 -32.492 -16.246
      vertex -50 -32.492 -16.246
      vertex -0 -32.492 -52.5731
    endloop
  endfacet
  facet normal 0.5 -0.850651 0.16246
    outer loop
      vertex 30.9017 -32.492 42.5325
      vertex 100 0 0
      vertex 80.9017 0 58.7785
    endloop
  endfacet
  facet normal 0.5 -0.850651 0.16246
    outer loop
      vertex 100 0 0
      vertex 30.9017 -32.492 42.5325
      vertex 50 -32.492 -16.246
    endloop
  endfacet
  facet normal 0.356822 -0.794654 0.491123
    outer loop
      vertex 30.9017 -32.492 42.5325
      vertex 80.9017 0 58.7785
      vertex 30.9017 0 95.1057
    endloop
  endfacet
  facet normal 0 -0.850651 0.525731
    outer loop
      vertex -30.9017 -32.492 42.5325
      vertex 30.9017 0 95.1057
      vertex -30.9017 -0 95.1057
    endloop
  endfacet
  facet normal 0 -0.850651 0.525731
    outer loop
      vertex 30.9017 0 95.1057
      vertex -30.9017 -32.492 42.5325
      vertex 30.9017 -32.492 42.5325
    endloop
  endfacet
  facet normal -0.356822 -0.794654 0.491123
    outer loop
      vertex -30.9017 -32.492 42.5325
      vertex -30.9017 -0 95.1057
      vertex -80.9017 -0 58.7785
    endloop
  endfacet
  facet normal -0.5 -0.850651 0.16246
    outer loop
      vertex -100 -0 0
      vertex -30.9017 -32.492 42.5325
      vertex -80.9017 -0 58.7785
    endloop
  endfacet
  facet normal -0.5 -0.850651 0.16246
    outer loop
      vertex -30.9017 -32.492 42.5325
      vertex -100 -0 0
      vertex -50 -32.492 -16.246
    endloop
  endfacet
  facet normal -0.57735 -0.794654 -0.187592
    outer loop
      vertex -50 -32.492 -16.246
      vertex -100 -0 0
      vertex -80.9017 -0 -58.7785
    endloop
  endfacet
  facet normal -0.309017 -0.850651 -0.425325
    outer loop
      vertex -80.9017 -0 -58.7785
      vertex -0 -32.492 -52.5731
      vertex -50 -32.492 -16.246
    endloop
  endfacet
  facet normal -0.309017 -0.850651 -0.425325
    outer loop
      vertex -0 -32.492 -52.5731
      vertex -80.9017 -0 -58.7785
      vertex -30.9017 -0 -95.1057
    endloop
  endfacet
  facet normal 0 -0.794654 -0.607062
    outer loop
      vertex -0 -32.492 -52.5731
      vertex -30.9017 -0 -95.1057
      vertex 30.9017 -0 -95.1057
    endloop
  endfacet
  facet normal 0.309017 -0.850651 -0.425325
    outer loop
      vertex -0 -32.492 -52.5731
      vertex 80.9017 0 -58.7785
      vertex 50 -32.492 -16.246
    endloop
  endfacet
  facet normal 0.309017 -0.850651 -0.425325
    outer loop
      vertex 80.9017 0 -58.7785
      vertex -0 -32.492 -52.5731
      vertex 30.9017 -0 -95.1057
    endloop
  endfacet
  facet normal 0.57735 -0.794654 -0.187592
    outer loop
      vertex 50 -32.492 -16.246
      vertex 80.9017 0 -58.7785
      vertex 100 0 0
    endloop
  endfacet
  facet normal 0 1 0
    outer loop
      vertex 50 32.492 16.246
      vertex -50 32.492 16.246
      vertex 0 32.492 52.5731
    endloop
  endfacet
  facet normal 0 1 -0
    outer loop
      vertex 30.9017 32.492 -42.5325
      vertex -50 32.492 16.246
      vertex 50 32.492 16.246
    endloop
  endfacet
  facet normal 0 1 0
    outer loop
      vertex -50 32.492 16.246
      vertex 30.9017 32.492 -42.5325
      vertex -30.9017 32.492 -42.5325
    endloop
  endfacet
  facet normal 0.309017 0.850651 0.425325
    outer loop
      vertex 80.9017 0 58.7785
      vertex 0 32.492 52.5731
      vertex 30.9017 0 95.1057
    endloop
  endfacet
  facet normal 0.309017 0.850651 0.425325
    outer loop
      vertex 0 32.492 52.5731
      vertex 80.9017 0 58.7785
      vertex 50 32.492 16.246
    endloop
  endfacet
  facet normal 0.57735 0.794654 0.187592
    outer loop
      vertex 50 32.492 16.246
      vertex 80.9017 0 58.7785
      vertex 100 0 0
    endloop
  endfacet
  facet normal 0.5 0.850651 -0.16246
    outer loop
      vertex 100 0 0
      vertex 30.9017 32.492 -42.5325
      vertex 50 32.492 16.246
    endloop
  endfacet
  facet normal 0.5 0.850651 -0.16246
    outer loop
      vertex 30.9017 32.492 -42.5325
      vertex 100 0 0
      vertex 80.9017 0 -58.7785
    endloop
  endfacet
  facet normal 0.356822 0.794654 -0.491123
    outer loop
      vertex 30.9017 32.492 -42.5325
      vertex 80.9017 0 -58.7785
      vertex 30.9017 -0 -95.1057
    endloop
  endfacet
  facet normal 0 0.850651 -0.525731
    outer loop
      vertex 30.9017 -0 -95.1057
      vertex -30.9017 32.492 -42.5325
      vertex 30.9017 32.492 -42.5325
    endloop
  endfacet
  facet normal 0 0.850651 -0.525731
    outer loop
      vertex -30.9017 32.492 -42.5325
      vertex 30.9017 -0 -95.1057
      vertex -30.9017 -0 -95.1057
    endloop
  endfacet
  facet normal -0.356822 0.794654 -0.491123
    outer loop
      vertex -30.9017 32.492 -42.5325
      vertex -30.9017 -0 -95.1057
      vertex -80.9017 -0 -58.7785
    endloop
  endfacet
  facet normal -0.5 0.850651 -0.16246
    outer loop
      vertex -30.9017 32.492 -42.5325
      vertex -100 -0 0
      vertex -50 32.492 16.246
    endloop
  endfacet
  facet normal -0.5 0.850651 -0.16246
    outer loop
      vertex -100 -0 0
      vertex -30.9017 32.492 -42.5325
      vertex -80.9017 -0 -58.7785
    endloop
  endfacet
  facet normal -0.57735 0.794654 0.187592
    outer loop
      vertex -50 32.492 16.246
      vertex -100 -0 0
      vertex -80.9017 -0 58.7785
    endloop
  endfacet
  facet normal -0.309017 0.850651 0.425325
    outer loop
      vertex 0 32.492 52.5731
      vertex -80.9017 -0 58.7785
      vertex -30.9017 -0 95.1057
    endloop
  endfacet
  facet normal -0.309017 0.850651 0.425325
    outer loop
      vertex -80.9017 -0 58.7785
      vertex 0 32.492 52.5731
      vertex -50 32.492 16.246
    endloop
  endfacet
  facet normal 0 0.794654 0.607062
    outer loop
      vertex 0 32.492 52.5731
      vertex -30.9017 -0 95.1057
      vertex 30.9017 0 95.1057
    endloop
  endfacet
endsolid OpenSCAD_Model
