solid OpenSCAD_Model
  facet normal 0 -1 0
    outer loop
      vertex -42.5807 -90.4814 0
      vertex 34.4485 -90.4814 25.0283
      vertex -13.1582 -90.4814 40.4967
    endloop
  endfacet
  facet normal 0 -1 0
    outer loop
      vertex -42.5807 -90.4814 0
      vertex 34.4485 -90.4814 -25.0283
      vertex 34.4485 -90.4814 25.0283
    endloop
  endfacet
  facet normal -0 -1 0
    outer loop
      vertex 34.4485 -90.4814 -25.0283
      vertex -42.5807 -90.4814 0
      vertex -13.1582 -90.4814 -40.4967
    endloop
  endfacet
  facet normal -0.276393 -0.447214 -0.850651
    outer loop
      vertex -13.1582 -90.4814 -40.4967
      vertex -0 -21.5843 -80.9933
      vertex 21.2904 -64.1651 -65.525
    endloop
  endfacet
  facet normal -0.276393 -0.447214 -0.850651
    outer loop
      vertex -55.7389 -64.1651 -40.4967
      vertex -0 -21.5843 -80.9933
      vertex -13.1582 -90.4814 -40.4967
    endloop
  endfacet
  facet normal -0.276393 -0.447214 -0.850651
    outer loop
      vertex -0 -21.5843 -80.9933
      vertex -55.7389 -64.1651 -40.4967
      vertex -47.6067 -21.5843 -65.525
    endloop
  endfacet
  facet normal 0.187592 -0.794654 -0.57735
    outer loop
      vertex -13.1582 -90.4814 -40.4967
      vertex 21.2904 -64.1651 -65.525
      vertex 34.4485 -90.4814 -25.0283
    endloop
  endfacet
  facet normal 0.303531 -0.187593 -0.934172
    outer loop
      vertex 21.2904 -64.1651 -65.525
      vertex -0 -21.5843 -80.9933
      vertex 47.6067 -21.5843 -65.525
    endloop
  endfacet
  facet normal 0.723607 -0.447214 -0.525731
    outer loop
      vertex 21.2904 -64.1651 -65.525
      vertex 77.0292 -21.5843 -25.0283
      vertex 68.897 -64.1651 0
    endloop
  endfacet
  facet normal 0.723607 -0.447214 -0.525731
    outer loop
      vertex 77.0292 -21.5843 -25.0283
      vertex 21.2904 -64.1651 -65.525
      vertex 47.6067 -21.5843 -65.525
    endloop
  endfacet
  facet normal 0.723607 -0.447214 -0.525731
    outer loop
      vertex 21.2904 -64.1651 -65.525
      vertex 68.897 -64.1651 0
      vertex 34.4485 -90.4814 -25.0283
    endloop
  endfacet
  facet normal 0.607062 -0.794654 0
    outer loop
      vertex 34.4485 -90.4814 -25.0283
      vertex 68.897 -64.1651 0
      vertex 34.4485 -90.4814 25.0283
    endloop
  endfacet
  facet normal 0.982247 -0.187593 0
    outer loop
      vertex 68.897 -64.1651 0
      vertex 77.0292 -21.5843 -25.0283
      vertex 77.0292 -21.5843 25.0283
    endloop
  endfacet
  facet normal 0.723607 -0.447214 0.525731
    outer loop
      vertex 21.2904 -64.1651 65.525
      vertex 77.0292 -21.5843 25.0283
      vertex 47.6067 -21.5843 65.525
    endloop
  endfacet
  facet normal 0.723607 -0.447214 0.525731
    outer loop
      vertex 21.2904 -64.1651 65.525
      vertex 68.897 -64.1651 0
      vertex 77.0292 -21.5843 25.0283
    endloop
  endfacet
  facet normal 0.723607 -0.447214 0.525731
    outer loop
      vertex 68.897 -64.1651 0
      vertex 21.2904 -64.1651 65.525
      vertex 34.4485 -90.4814 25.0283
    endloop
  endfacet
  facet normal 0.187592 -0.794654 0.57735
    outer loop
      vertex 34.4485 -90.4814 25.0283
      vertex 21.2904 -64.1651 65.525
      vertex -13.1582 -90.4814 40.4967
    endloop
  endfacet
  facet normal 0.303531 -0.187593 0.934172
    outer loop
      vertex 21.2904 -64.1651 65.525
      vertex 47.6067 -21.5843 65.525
      vertex -0 -21.5843 80.9933
    endloop
  endfacet
  facet normal -0.276393 -0.447214 0.850651
    outer loop
      vertex -0 -21.5843 80.9933
      vertex -13.1582 -90.4814 40.4967
      vertex 21.2904 -64.1651 65.525
    endloop
  endfacet
  facet normal -0.276393 -0.447214 0.850651
    outer loop
      vertex -55.7389 -64.1651 40.4967
      vertex -0 -21.5843 80.9933
      vertex -47.6067 -21.5843 65.525
    endloop
  endfacet
  facet normal -0.276393 -0.447214 0.850651
    outer loop
      vertex -0 -21.5843 80.9933
      vertex -55.7389 -64.1651 40.4967
      vertex -13.1582 -90.4814 40.4967
    endloop
  endfacet
  facet normal -0.491123 -0.794654 0.356822
    outer loop
      vertex -13.1582 -90.4814 40.4967
      vertex -55.7389 -64.1651 40.4967
      vertex -42.5807 -90.4814 0
    endloop
  endfacet
  facet normal -0.794654 -0.187592 0.57735
    outer loop
      vertex -55.7389 -64.1651 40.4967
      vertex -47.6067 -21.5843 65.525
      vertex -77.0292 -21.5843 25.0283
    endloop
  endfacet
  facet normal -0.894427 -0.447214 4.70989e-08
    outer loop
      vertex -42.5807 -90.4814 0
      vertex -77.0292 -21.5843 -25.0283
      vertex -55.7389 -64.1651 -40.4967
    endloop
  endfacet
  facet normal -0.894427 -0.447214 0
    outer loop
      vertex -77.0292 -21.5843 -25.0283
      vertex -42.5807 -90.4814 0
      vertex -77.0292 -21.5843 25.0283
    endloop
  endfacet
  facet normal -0.894427 -0.447214 -4.70989e-08
    outer loop
      vertex -77.0292 -21.5843 25.0283
      vertex -42.5807 -90.4814 0
      vertex -55.7389 -64.1651 40.4967
    endloop
  endfacet
  facet normal -0.491123 -0.794654 -0.356822
    outer loop
      vertex -42.5807 -90.4814 0
      vertex -55.7389 -64.1651 -40.4967
      vertex -13.1582 -90.4814 -40.4967
    endloop
  endfacet
  facet normal -0.794654 -0.187592 -0.57735
    outer loop
      vertex -55.7389 -64.1651 -40.4967
      vertex -77.0292 -21.5843 -25.0283
      vertex -47.6067 -21.5843 -65.525
    endloop
  endfacet
  facet normal 0 1 0
    outer loop
      vertex 40.4967 90.4814 -13.1582
      vertex -25.0283 90.4814 34.4485
      vertex 25.0283 90.4814 34.4485
    endloop
  endfacet
  facet normal 0 1 0
    outer loop
      vertex 40.4967 90.4814 -13.1582
      vertex -40.4967 90.4814 -13.1582
      vertex -25.0283 90.4814 34.4485
    endloop
  endfacet
  facet normal -0 1 0
    outer loop
      vertex -40.4967 90.4814 -13.1582
      vertex 40.4967 90.4814 -13.1582
      vertex 0 90.4814 -42.5807
    endloop
  endfacet
  facet normal -4.70989e-08 0.447214 -0.894427
    outer loop
      vertex 25.0283 21.5843 -77.0292
      vertex 0 90.4814 -42.5807
      vertex 40.4967 64.1651 -55.7389
    endloop
  endfacet
  facet normal 0 0.447214 -0.894427
    outer loop
      vertex -25.0283 21.5843 -77.0292
      vertex 0 90.4814 -42.5807
      vertex 25.0283 21.5843 -77.0292
    endloop
  endfacet
  facet normal 4.70989e-08 0.447214 -0.894427
    outer loop
      vertex 0 90.4814 -42.5807
      vertex -25.0283 21.5843 -77.0292
      vertex -40.4967 64.1651 -55.7389
    endloop
  endfacet
  facet normal -0.356822 0.794654 -0.491123
    outer loop
      vertex 0 90.4814 -42.5807
      vertex -40.4967 64.1651 -55.7389
      vertex -40.4967 90.4814 -13.1582
    endloop
  endfacet
  facet normal -0.57735 0.187592 -0.794654
    outer loop
      vertex -40.4967 64.1651 -55.7389
      vertex -25.0283 21.5843 -77.0292
      vertex -65.525 21.5843 -47.6067
    endloop
  endfacet
  facet normal -0.850651 0.447214 -0.276393
    outer loop
      vertex -80.9933 21.5843 0
      vertex -40.4967 90.4814 -13.1582
      vertex -40.4967 64.1651 -55.7389
    endloop
  endfacet
  facet normal -0.850651 0.447214 -0.276393
    outer loop
      vertex -80.9933 21.5843 0
      vertex -40.4967 64.1651 -55.7389
      vertex -65.525 21.5843 -47.6067
    endloop
  endfacet
  facet normal -0.850651 0.447214 -0.276393
    outer loop
      vertex -40.4967 90.4814 -13.1582
      vertex -80.9933 21.5843 0
      vertex -65.525 64.1651 21.2904
    endloop
  endfacet
  facet normal -0.57735 0.794654 0.187592
    outer loop
      vertex -40.4967 90.4814 -13.1582
      vertex -65.525 64.1651 21.2904
      vertex -25.0283 90.4814 34.4485
    endloop
  endfacet
  facet normal -0.934172 0.187593 0.303531
    outer loop
      vertex -65.525 64.1651 21.2904
      vertex -80.9933 21.5843 0
      vertex -65.525 21.5843 47.6067
    endloop
  endfacet
  facet normal -0.525731 0.447214 0.723607
    outer loop
      vertex -65.525 64.1651 21.2904
      vertex 0 64.1651 68.897
      vertex -25.0283 90.4814 34.4485
    endloop
  endfacet
  facet normal -0.525731 0.447214 0.723607
    outer loop
      vertex 0 64.1651 68.897
      vertex -65.525 64.1651 21.2904
      vertex -25.0283 21.5843 77.0292
    endloop
  endfacet
  facet normal -0.525731 0.447214 0.723607
    outer loop
      vertex -25.0283 21.5843 77.0292
      vertex -65.525 64.1651 21.2904
      vertex -65.525 21.5843 47.6067
    endloop
  endfacet
  facet normal -0 0.794654 0.607062
    outer loop
      vertex -25.0283 90.4814 34.4485
      vertex 0 64.1651 68.897
      vertex 25.0283 90.4814 34.4485
    endloop
  endfacet
  facet normal 0 0.187593 0.982247
    outer loop
      vertex 0 64.1651 68.897
      vertex -25.0283 21.5843 77.0292
      vertex 25.0283 21.5843 77.0292
    endloop
  endfacet
  facet normal 0.525731 0.447214 0.723607
    outer loop
      vertex 0 64.1651 68.897
      vertex 65.525 64.1651 21.2904
      vertex 25.0283 90.4814 34.4485
    endloop
  endfacet
  facet normal 0.525731 0.447214 0.723607
    outer loop
      vertex 65.525 64.1651 21.2904
      vertex 25.0283 21.5843 77.0292
      vertex 65.525 21.5843 47.6067
    endloop
  endfacet
  facet normal 0.525731 0.447214 0.723607
    outer loop
      vertex 65.525 64.1651 21.2904
      vertex 0 64.1651 68.897
      vertex 25.0283 21.5843 77.0292
    endloop
  endfacet
  facet normal 0.57735 0.794654 0.187592
    outer loop
      vertex 25.0283 90.4814 34.4485
      vertex 65.525 64.1651 21.2904
      vertex 40.4967 90.4814 -13.1582
    endloop
  endfacet
  facet normal 0.934172 0.187593 0.303531
    outer loop
      vertex 65.525 64.1651 21.2904
      vertex 65.525 21.5843 47.6067
      vertex 80.9933 21.5843 0
    endloop
  endfacet
  facet normal 0.850651 0.447214 -0.276393
    outer loop
      vertex 80.9933 21.5843 0
      vertex 40.4967 90.4814 -13.1582
      vertex 65.525 64.1651 21.2904
    endloop
  endfacet
  facet normal 0.850651 0.447214 -0.276393
    outer loop
      vertex 40.4967 90.4814 -13.1582
      vertex 80.9933 21.5843 0
      vertex 40.4967 64.1651 -55.7389
    endloop
  endfacet
  facet normal 0.850651 0.447214 -0.276393
    outer loop
      vertex 40.4967 64.1651 -55.7389
      vertex 80.9933 21.5843 0
      vertex 65.525 21.5843 -47.6067
    endloop
  endfacet
  facet normal 0.356822 0.794654 -0.491123
    outer loop
      vertex 40.4967 90.4814 -13.1582
      vertex 40.4967 64.1651 -55.7389
      vertex 0 90.4814 -42.5807
    endloop
  endfacet
  facet normal 0.57735 0.187592 -0.794654
    outer loop
      vertex 40.4967 64.1651 -55.7389
      vertex 65.525 21.5843 -47.6067
      vertex 25.0283 21.5843 -77.0292
    endloop
  endfacet
  facet normal 0.307722 -0.0914433 0.947072
    outer loop
      vertex 47.6067 -21.5843 65.525
      vertex 25.0283 21.5843 77.0292
      vertex -0 -21.5843 80.9933
    endloop
  endfacet
  facet normal 0 0.0914433 0.99581
    outer loop
      vertex -0 -21.5843 80.9933
      vertex 25.0283 21.5843 77.0292
      vertex -25.0283 21.5843 77.0292
    endloop
  endfacet
  facet normal -0.307722 -0.0914433 0.947072
    outer loop
      vertex -0 -21.5843 80.9933
      vertex -25.0283 21.5843 77.0292
      vertex -47.6067 -21.5843 65.525
    endloop
  endfacet
  facet normal -0.585323 0.0914433 0.805627
    outer loop
      vertex -47.6067 -21.5843 65.525
      vertex -25.0283 21.5843 77.0292
      vertex -65.525 21.5843 47.6067
    endloop
  endfacet
  facet normal -0.805627 -0.0914433 0.585323
    outer loop
      vertex -47.6067 -21.5843 65.525
      vertex -65.525 21.5843 47.6067
      vertex -77.0292 -21.5843 25.0283
    endloop
  endfacet
  facet normal -0.947072 0.0914433 0.307722
    outer loop
      vertex -77.0292 -21.5843 25.0283
      vertex -65.525 21.5843 47.6067
      vertex -80.9933 21.5843 0
    endloop
  endfacet
  facet normal -0.99581 -0.0914433 -0
    outer loop
      vertex -77.0292 -21.5843 25.0283
      vertex -80.9933 21.5843 0
      vertex -77.0292 -21.5843 -25.0283
    endloop
  endfacet
  facet normal -0.947072 0.0914433 -0.307722
    outer loop
      vertex -77.0292 -21.5843 -25.0283
      vertex -80.9933 21.5843 0
      vertex -65.525 21.5843 -47.6067
    endloop
  endfacet
  facet normal -0.805627 -0.0914433 -0.585323
    outer loop
      vertex -77.0292 -21.5843 -25.0283
      vertex -65.525 21.5843 -47.6067
      vertex -47.6067 -21.5843 -65.525
    endloop
  endfacet
  facet normal -0.585323 0.0914433 -0.805627
    outer loop
      vertex -47.6067 -21.5843 -65.525
      vertex -65.525 21.5843 -47.6067
      vertex -25.0283 21.5843 -77.0292
    endloop
  endfacet
  facet normal -0.307722 -0.0914433 -0.947072
    outer loop
      vertex -47.6067 -21.5843 -65.525
      vertex -25.0283 21.5843 -77.0292
      vertex -0 -21.5843 -80.9933
    endloop
  endfacet
  facet normal 0 0.0914433 -0.99581
    outer loop
      vertex -0 -21.5843 -80.9933
      vertex -25.0283 21.5843 -77.0292
      vertex 25.0283 21.5843 -77.0292
    endloop
  endfacet
  facet normal 0.307722 -0.0914433 -0.947072
    outer loop
      vertex -0 -21.5843 -80.9933
      vertex 25.0283 21.5843 -77.0292
      vertex 47.6067 -21.5843 -65.525
    endloop
  endfacet
  facet normal 0.585323 0.0914433 -0.805627
    outer loop
      vertex 47.6067 -21.5843 -65.525
      vertex 25.0283 21.5843 -77.0292
      vertex 65.525 21.5843 -47.6067
    endloop
  endfacet
  facet normal 0.805627 -0.0914433 -0.585323
    outer loop
      vertex 47.6067 -21.5843 -65.525
      vertex 65.525 21.5843 -47.6067
      vertex 77.0292 -21.5843 -25.0283
    endloop
  endfacet
  facet normal 0.947072 0.0914433 -0.307722
    outer loop
      vertex 77.0292 -21.5843 -25.0283
      vertex 65.525 21.5843 -47.6067
      vertex 80.9933 21.5843 0
    endloop
  endfacet
  facet normal 0.99581 -0.0914433 0
    outer loop
      vertex 77.0292 -21.5843 -25.0283
      vertex 80.9933 21.5843 0
      vertex 77.0292 -21.5843 25.0283
    endloop
  endfacet
  facet normal 0.947072 0.0914433 0.307722
    outer loop
      vertex 77.0292 -21.5843 25.0283
      vertex 80.9933 21.5843 0
      vertex 65.525 21.5843 47.6067
    endloop
  endfacet
  facet normal 0.805627 -0.0914433 0.585323
    outer loop
      vertex 77.0292 -21.5843 25.0283
      vertex 65.525 21.5843 47.6067
      vertex 47.6067 -21.5843 65.525
    endloop
  endfacet
  facet normal 0.585323 0.0914433 0.805627
    outer loop
      vertex 47.6067 -21.5843 65.525
      vertex 65.525 21.5843 47.6067
      vertex 25.0283 21.5843 77.0292
    endloop
  endfacet
endsolid OpenSCAD_Model
