solid OpenSCAD_Model
  facet normal 0.309017 0.850651 0.425325
    outer loop
      vertex 60.8502 58.394 36.6416
      vertex 7.19817 79.9419 32.5264
      vertex 27.6914 58.394 60.7329
    endloop
  endfacet
  facet normal 0.309017 0.850651 0.425325
    outer loop
      vertex 7.19817 79.9419 32.5264
      vertex 60.8502 58.394 36.6416
      vertex 40.3569 79.9419 8.43511
    endloop
  endfacet
  facet normal 0 0.794654 0.607062
    outer loop
      vertex 27.6914 58.394 60.7329
      vertex 7.19817 79.9419 32.5264
      vertex -13.2951 58.394 60.7329
    endloop
  endfacet
  facet normal -0.309017 0.850651 0.425325
    outer loop
      vertex 7.19817 79.9419 32.5264
      vertex -46.4538 58.394 36.6416
      vertex -13.2951 58.394 60.7329
    endloop
  endfacet
  facet normal -0.309017 0.850651 0.425325
    outer loop
      vertex -46.4538 58.394 36.6416
      vertex 7.19817 79.9419 32.5264
      vertex -25.9606 79.9419 8.43511
    endloop
  endfacet
  facet normal 0 1 0
    outer loop
      vertex 40.3569 79.9419 8.43511
      vertex -25.9606 79.9419 8.43511
      vertex 7.19817 79.9419 32.5264
    endloop
  endfacet
  facet normal 0 1 -0
    outer loop
      vertex 27.6914 79.9419 -30.5453
      vertex -25.9606 79.9419 8.43511
      vertex 40.3569 79.9419 8.43511
    endloop
  endfacet
  facet normal 0 1 0
    outer loop
      vertex -25.9606 79.9419 8.43511
      vertex 27.6914 79.9419 -30.5453
      vertex -13.2951 79.9419 -30.5453
    endloop
  endfacet
  facet normal -0.57735 0.794654 0.187592
    outer loop
      vertex -25.9606 79.9419 8.43511
      vertex -59.1193 58.394 -2.33883
      vertex -46.4538 58.394 36.6416
    endloop
  endfacet
  facet normal -0.809017 0.525731 0.262866
    outer loop
      vertex -79.6126 23.5289 4.31983
      vertex -46.4538 58.394 36.6416
      vertex -59.1193 58.394 -2.33883
    endloop
  endfacet
  facet normal -0.809017 0.525731 0.262866
    outer loop
      vertex -46.4538 58.394 36.6416
      vertex -79.6126 23.5289 4.31983
      vertex -66.9471 23.5289 43.3003
    endloop
  endfacet
  facet normal -0.5 0.850651 -0.16246
    outer loop
      vertex -13.2951 79.9419 -30.5453
      vertex -59.1193 58.394 -2.33883
      vertex -25.9606 79.9419 8.43511
    endloop
  endfacet
  facet normal -0.5 0.850651 -0.16246
    outer loop
      vertex -59.1193 58.394 -2.33883
      vertex -13.2951 79.9419 -30.5453
      vertex -46.4538 58.394 -41.3193
    endloop
  endfacet
  facet normal -0.356822 0.794654 -0.491124
    outer loop
      vertex -13.2951 79.9419 -30.5453
      vertex -13.2951 58.394 -65.4105
      vertex -46.4538 58.394 -41.3193
    endloop
  endfacet
  facet normal -0.5 0.525731 -0.688191
    outer loop
      vertex -25.9606 23.5289 -82.8431
      vertex -46.4538 58.394 -41.3193
      vertex -13.2951 58.394 -65.4105
    endloop
  endfacet
  facet normal -0.5 0.525731 -0.688191
    outer loop
      vertex -46.4538 58.394 -41.3193
      vertex -25.9606 23.5289 -82.8431
      vertex -59.1193 23.5289 -58.7519
    endloop
  endfacet
  facet normal -0.850651 0.447214 -0.276393
    outer loop
      vertex -79.6126 1.981 -30.5453
      vertex -46.4538 58.394 -41.3193
      vertex -59.1193 23.5289 -58.7519
    endloop
  endfacet
  facet normal -0.850651 0.447214 -0.276393
    outer loop
      vertex -46.4538 58.394 -41.3193
      vertex -79.6126 23.5289 4.31983
      vertex -59.1193 58.394 -2.33883
    endloop
  endfacet
  facet normal -0.850651 0.447214 -0.276393
    outer loop
      vertex -46.4538 58.394 -41.3193
      vertex -79.6126 1.981 -30.5453
      vertex -79.6126 23.5289 4.31983
    endloop
  endfacet
  facet normal -0.57735 0.187592 -0.794654
    outer loop
      vertex -25.9606 23.5289 -82.8431
      vertex -46.4538 -11.3363 -76.1845
      vertex -59.1193 23.5289 -58.7519
    endloop
  endfacet
  facet normal -0.809017 3.57802e-08 -0.587785
    outer loop
      vertex -46.4538 -11.3363 -76.1845
      vertex -79.6126 1.981 -30.5453
      vertex -59.1193 23.5289 -58.7519
    endloop
  endfacet
  facet normal -0.809017 -6.78571e-08 -0.587785
    outer loop
      vertex -79.6126 1.981 -30.5453
      vertex -46.4538 -11.3363 -76.1845
      vertex -66.9471 -32.8842 -47.9779
    endloop
  endfacet
  facet normal -0 0.525731 0.850651
    outer loop
      vertex -13.2951 58.394 60.7329
      vertex 27.6914 23.5289 82.2807
      vertex 27.6914 58.394 60.7329
    endloop
  endfacet
  facet normal 0 0.525731 0.850651
    outer loop
      vertex 27.6914 23.5289 82.2807
      vertex -13.2951 58.394 60.7329
      vertex -13.2951 23.5289 82.2807
    endloop
  endfacet
  facet normal 0 0.187592 0.982247
    outer loop
      vertex 27.6914 23.5289 82.2807
      vertex -13.2951 23.5289 82.2807
      vertex 7.19817 -11.3363 88.9394
    endloop
  endfacet
  facet normal -0.309017 -6.58308e-08 0.951057
    outer loop
      vertex -46.4538 1.981 71.5068
      vertex 7.19817 -11.3363 88.9394
      vertex -13.2951 23.5289 82.2807
    endloop
  endfacet
  facet normal -0.309017 -8.06755e-08 0.951057
    outer loop
      vertex 7.19817 -11.3363 88.9394
      vertex -46.4538 1.981 71.5068
      vertex -25.9606 -32.8842 78.1655
    endloop
  endfacet
  facet normal -0.525731 0.447214 0.723607
    outer loop
      vertex -46.4538 58.394 36.6416
      vertex -13.2951 23.5289 82.2807
      vertex -13.2951 58.394 60.7329
    endloop
  endfacet
  facet normal -0.525731 0.447214 0.723607
    outer loop
      vertex -66.9471 23.5289 43.3003
      vertex -13.2951 23.5289 82.2807
      vertex -46.4538 58.394 36.6416
    endloop
  endfacet
  facet normal -0.525731 0.447214 0.723607
    outer loop
      vertex -13.2951 23.5289 82.2807
      vertex -66.9471 23.5289 43.3003
      vertex -46.4538 1.981 71.5068
    endloop
  endfacet
  facet normal -0.57735 -0.187593 0.794654
    outer loop
      vertex -46.4538 1.981 71.5068
      vertex -59.1193 -32.8842 54.0742
      vertex -25.9606 -32.8842 78.1655
    endloop
  endfacet
  facet normal -0.5 -0.525731 0.688191
    outer loop
      vertex -25.9606 -32.8842 78.1655
      vertex -46.4538 -67.7494 36.6416
      vertex -13.2951 -67.7494 60.7329
    endloop
  endfacet
  facet normal -0.5 -0.525731 0.688191
    outer loop
      vertex -46.4538 -67.7494 36.6416
      vertex -25.9606 -32.8842 78.1655
      vertex -59.1193 -32.8842 54.0742
    endloop
  endfacet
  facet normal -0.809017 9.6618e-08 0.587785
    outer loop
      vertex -79.6126 -11.3363 25.8677
      vertex -46.4538 1.981 71.5068
      vertex -66.9471 23.5289 43.3003
    endloop
  endfacet
  facet normal -0.809017 -8.23163e-08 0.587785
    outer loop
      vertex -46.4538 1.981 71.5068
      vertex -79.6126 -11.3363 25.8677
      vertex -59.1193 -32.8842 54.0742
    endloop
  endfacet
  facet normal -0.934172 0.187593 0.303531
    outer loop
      vertex -66.9471 23.5289 43.3003
      vertex -79.6126 23.5289 4.31983
      vertex -79.6126 -11.3363 25.8677
    endloop
  endfacet
  facet normal -1 0 0
    outer loop
      vertex -79.6126 1.981 -30.5453
      vertex -79.6126 -11.3363 25.8677
      vertex -79.6126 23.5289 4.31983
    endloop
  endfacet
  facet normal -1 0 -0
    outer loop
      vertex -79.6126 -11.3363 25.8677
      vertex -79.6126 1.981 -30.5453
      vertex -79.6126 -32.8842 -8.99748
    endloop
  endfacet
  facet normal -0.850651 -0.447214 0.276393
    outer loop
      vertex -46.4538 -67.7494 36.6416
      vertex -79.6126 -11.3363 25.8677
      vertex -79.6126 -32.8842 -8.99748
    endloop
  endfacet
  facet normal -0.850651 -0.447214 0.276393
    outer loop
      vertex -46.4538 -67.7494 36.6416
      vertex -79.6126 -32.8842 -8.99748
      vertex -59.1193 -67.7494 -2.33883
    endloop
  endfacet
  facet normal -0.850651 -0.447214 0.276393
    outer loop
      vertex -79.6126 -11.3363 25.8677
      vertex -46.4538 -67.7494 36.6416
      vertex -59.1193 -32.8842 54.0742
    endloop
  endfacet
  facet normal -0.934172 -0.187593 -0.303531
    outer loop
      vertex -79.6126 1.981 -30.5453
      vertex -66.9471 -32.8842 -47.9779
      vertex -79.6126 -32.8842 -8.99748
    endloop
  endfacet
  facet normal -0.809017 -0.525731 -0.262866
    outer loop
      vertex -46.4538 -67.7494 -41.3193
      vertex -79.6126 -32.8842 -8.99748
      vertex -66.9471 -32.8842 -47.9779
    endloop
  endfacet
  facet normal -0.809017 -0.525731 -0.262866
    outer loop
      vertex -79.6126 -32.8842 -8.99748
      vertex -46.4538 -67.7494 -41.3193
      vertex -59.1193 -67.7494 -2.33883
    endloop
  endfacet
  facet normal 0.309017 -7.95074e-08 0.951057
    outer loop
      vertex 7.19817 -11.3363 88.9394
      vertex 60.8502 1.981 71.5068
      vertex 27.6914 23.5289 82.2807
    endloop
  endfacet
  facet normal 0.309017 -6.46626e-08 0.951057
    outer loop
      vertex 60.8502 1.981 71.5068
      vertex 7.19817 -11.3363 88.9394
      vertex 40.3569 -32.8842 78.1655
    endloop
  endfacet
  facet normal 0.57735 -0.187593 0.794654
    outer loop
      vertex 60.8502 1.981 71.5068
      vertex 40.3569 -32.8842 78.1655
      vertex 73.5157 -32.8842 54.0742
    endloop
  endfacet
  facet normal 0.5 -0.525731 0.688191
    outer loop
      vertex 40.3569 -32.8842 78.1655
      vertex 60.8502 -67.7494 36.6416
      vertex 73.5157 -32.8842 54.0742
    endloop
  endfacet
  facet normal 0.5 -0.525731 0.688191
    outer loop
      vertex 60.8502 -67.7494 36.6416
      vertex 40.3569 -32.8842 78.1655
      vertex 27.6914 -67.7494 60.7329
    endloop
  endfacet
  facet normal 5.69418e-08 -0.447214 0.894427
    outer loop
      vertex 7.19817 -11.3363 88.9394
      vertex 27.6914 -67.7494 60.7329
      vertex 40.3569 -32.8842 78.1655
    endloop
  endfacet
  facet normal 0 -0.447214 0.894427
    outer loop
      vertex 7.19817 -11.3363 88.9394
      vertex -13.2951 -67.7494 60.7329
      vertex 27.6914 -67.7494 60.7329
    endloop
  endfacet
  facet normal -5.69418e-08 -0.447214 0.894427
    outer loop
      vertex -13.2951 -67.7494 60.7329
      vertex 7.19817 -11.3363 88.9394
      vertex -25.9606 -32.8842 78.1655
    endloop
  endfacet
  facet normal 0 -1 0
    outer loop
      vertex -46.4538 -67.7494 36.6416
      vertex 27.6914 -67.7494 60.7329
      vertex -13.2951 -67.7494 60.7329
    endloop
  endfacet
  facet normal 0 -1 0
    outer loop
      vertex -46.4538 -67.7494 36.6416
      vertex 60.8502 -67.7494 36.6416
      vertex 27.6914 -67.7494 60.7329
    endloop
  endfacet
  facet normal 0 -1 0
    outer loop
      vertex -59.1193 -67.7494 -2.33883
      vertex 60.8502 -67.7494 36.6416
      vertex -46.4538 -67.7494 36.6416
    endloop
  endfacet
  facet normal 0 -1 0
    outer loop
      vertex -59.1193 -67.7494 -2.33883
      vertex 73.5157 -67.7494 -2.33883
      vertex 60.8502 -67.7494 36.6416
    endloop
  endfacet
  facet normal 0 -1 0
    outer loop
      vertex -46.4538 -67.7494 -41.3193
      vertex 73.5157 -67.7494 -2.33883
      vertex -59.1193 -67.7494 -2.33883
    endloop
  endfacet
  facet normal 0 -1 0
    outer loop
      vertex -46.4538 -67.7494 -41.3193
      vertex 60.8502 -67.7494 -41.3193
      vertex 73.5157 -67.7494 -2.33883
    endloop
  endfacet
  facet normal 0 -1 0
    outer loop
      vertex -13.2951 -67.7494 -65.4105
      vertex 60.8502 -67.7494 -41.3193
      vertex -46.4538 -67.7494 -41.3193
    endloop
  endfacet
  facet normal 0 -1 0
    outer loop
      vertex 60.8502 -67.7494 -41.3193
      vertex -13.2951 -67.7494 -65.4105
      vertex 27.6914 -67.7494 -65.4105
    endloop
  endfacet
  facet normal 0.809017 9.6618e-08 0.587785
    outer loop
      vertex 60.8502 1.981 71.5068
      vertex 94.0089 -11.3363 25.8677
      vertex 81.3434 23.5289 43.3003
    endloop
  endfacet
  facet normal 0.809017 -8.23163e-08 0.587785
    outer loop
      vertex 94.0089 -11.3363 25.8677
      vertex 60.8502 1.981 71.5068
      vertex 73.5157 -32.8842 54.0742
    endloop
  endfacet
  facet normal 0.850651 0.447214 -0.276393
    outer loop
      vertex 81.3434 23.5289 43.3003
      vertex 40.3569 79.9419 8.43511
      vertex 60.8502 58.394 36.6416
    endloop
  endfacet
  facet normal 0.850651 0.447214 -0.276393
    outer loop
      vertex 40.3569 79.9419 8.43511
      vertex 81.3434 23.5289 43.3003
      vertex 27.6914 79.9419 -30.5453
    endloop
  endfacet
  facet normal 0.850651 0.447214 -0.276393
    outer loop
      vertex 94.0089 -11.3363 25.8677
      vertex 27.6914 79.9419 -30.5453
      vertex 81.3434 23.5289 43.3003
    endloop
  endfacet
  facet normal 0.850651 0.447214 -0.276393
    outer loop
      vertex 27.6914 79.9419 -30.5453
      vertex 94.0089 -11.3363 25.8677
      vertex 27.6914 58.394 -65.4105
    endloop
  endfacet
  facet normal 0.850651 0.447214 -0.276393
    outer loop
      vertex 94.0089 -32.8842 -8.99748
      vertex 27.6914 58.394 -65.4105
      vertex 94.0089 -11.3363 25.8677
    endloop
  endfacet
  facet normal 0.850651 0.447214 -0.276393
    outer loop
      vertex 27.6914 58.394 -65.4105
      vertex 94.0089 -32.8842 -8.99748
      vertex 40.3569 23.5289 -82.8431
    endloop
  endfacet
  facet normal 0.850651 0.447214 -0.276393
    outer loop
      vertex 81.3434 -32.8842 -47.9779
      vertex 40.3569 23.5289 -82.8431
      vertex 94.0089 -32.8842 -8.99748
    endloop
  endfacet
  facet normal 0.850651 0.447214 -0.276393
    outer loop
      vertex 40.3569 23.5289 -82.8431
      vertex 81.3434 -32.8842 -47.9779
      vertex 60.8502 -11.3363 -76.1845
    endloop
  endfacet
  facet normal 0.850651 -0.447214 0.276393
    outer loop
      vertex 60.8502 -67.7494 36.6416
      vertex 94.0089 -11.3363 25.8677
      vertex 73.5157 -32.8842 54.0742
    endloop
  endfacet
  facet normal 0.850651 -0.447214 0.276393
    outer loop
      vertex 94.0089 -11.3363 25.8677
      vertex 60.8502 -67.7494 36.6416
      vertex 94.0089 -32.8842 -8.99748
    endloop
  endfacet
  facet normal 0.850651 -0.447214 0.276393
    outer loop
      vertex 94.0089 -32.8842 -8.99748
      vertex 60.8502 -67.7494 36.6416
      vertex 73.5157 -67.7494 -2.33883
    endloop
  endfacet
  facet normal 0.809017 -0.525731 -0.262866
    outer loop
      vertex 60.8502 -67.7494 -41.3193
      vertex 94.0089 -32.8842 -8.99748
      vertex 73.5157 -67.7494 -2.33883
    endloop
  endfacet
  facet normal 0.809017 -0.525731 -0.262866
    outer loop
      vertex 94.0089 -32.8842 -8.99748
      vertex 60.8502 -67.7494 -41.3193
      vertex 81.3434 -32.8842 -47.9779
    endloop
  endfacet
  facet normal 0.525731 -0.447214 -0.723607
    outer loop
      vertex 27.6914 -32.8842 -86.9584
      vertex 81.3434 -32.8842 -47.9779
      vertex 60.8502 -67.7494 -41.3193
    endloop
  endfacet
  facet normal 0.525731 -0.447214 -0.723607
    outer loop
      vertex 27.6914 -32.8842 -86.9584
      vertex 60.8502 -67.7494 -41.3193
      vertex 27.6914 -67.7494 -65.4105
    endloop
  endfacet
  facet normal 0.525731 -0.447214 -0.723607
    outer loop
      vertex 81.3434 -32.8842 -47.9779
      vertex 27.6914 -32.8842 -86.9584
      vertex 60.8502 -11.3363 -76.1845
    endloop
  endfacet
  facet normal 0 -0.525731 -0.850651
    outer loop
      vertex -13.2951 -67.7494 -65.4105
      vertex 27.6914 -32.8842 -86.9584
      vertex 27.6914 -67.7494 -65.4105
    endloop
  endfacet
  facet normal -0 -0.525731 -0.850651
    outer loop
      vertex 27.6914 -32.8842 -86.9584
      vertex -13.2951 -67.7494 -65.4105
      vertex -13.2951 -32.8842 -86.9584
    endloop
  endfacet
  facet normal 0 0.850651 -0.525731
    outer loop
      vertex 27.6914 58.394 -65.4105
      vertex -13.2951 79.9419 -30.5453
      vertex 27.6914 79.9419 -30.5453
    endloop
  endfacet
  facet normal 0 0.850651 -0.525731
    outer loop
      vertex -13.2951 79.9419 -30.5453
      vertex 27.6914 58.394 -65.4105
      vertex -13.2951 58.394 -65.4105
    endloop
  endfacet
  facet normal 0.309017 -7.10865e-08 -0.951056
    outer loop
      vertex 7.19817 1.981 -93.6171
      vertex 60.8502 -11.3363 -76.1845
      vertex 27.6914 -32.8842 -86.9584
    endloop
  endfacet
  facet normal 0.309017 -8.59312e-08 -0.951056
    outer loop
      vertex 60.8502 -11.3363 -76.1845
      vertex 7.19817 1.981 -93.6171
      vertex 40.3569 23.5289 -82.8431
    endloop
  endfacet
  facet normal -7.83292e-08 0.447214 -0.894427
    outer loop
      vertex 7.19817 1.981 -93.6171
      vertex 27.6914 58.394 -65.4105
      vertex 40.3569 23.5289 -82.8431
    endloop
  endfacet
  facet normal 0 0.447214 -0.894427
    outer loop
      vertex 7.19817 1.981 -93.6171
      vertex -13.2951 58.394 -65.4105
      vertex 27.6914 58.394 -65.4105
    endloop
  endfacet
  facet normal 7.83292e-08 0.447214 -0.894427
    outer loop
      vertex -13.2951 58.394 -65.4105
      vertex 7.19817 1.981 -93.6171
      vertex -25.9606 23.5289 -82.8431
    endloop
  endfacet
  facet normal -0 -0.187593 -0.982247
    outer loop
      vertex 27.6914 -32.8842 -86.9584
      vertex -13.2951 -32.8842 -86.9584
      vertex 7.19817 1.981 -93.6171
    endloop
  endfacet
  facet normal -0.309017 -8.47631e-08 -0.951056
    outer loop
      vertex -46.4538 -11.3363 -76.1845
      vertex 7.19817 1.981 -93.6171
      vertex -13.2951 -32.8842 -86.9584
    endloop
  endfacet
  facet normal -0.309017 -6.99183e-08 -0.951056
    outer loop
      vertex 7.19817 1.981 -93.6171
      vertex -46.4538 -11.3363 -76.1845
      vertex -25.9606 23.5289 -82.8431
    endloop
  endfacet
  facet normal 0.525731 0.447214 0.723607
    outer loop
      vertex 27.6914 23.5289 82.2807
      vertex 81.3434 23.5289 43.3003
      vertex 60.8502 58.394 36.6416
    endloop
  endfacet
  facet normal 0.525731 0.447214 0.723607
    outer loop
      vertex 27.6914 23.5289 82.2807
      vertex 60.8502 58.394 36.6416
      vertex 27.6914 58.394 60.7329
    endloop
  endfacet
  facet normal 0.525731 0.447214 0.723607
    outer loop
      vertex 81.3434 23.5289 43.3003
      vertex 27.6914 23.5289 82.2807
      vertex 60.8502 1.981 71.5068
    endloop
  endfacet
  facet normal -0.525731 -0.447214 -0.723607
    outer loop
      vertex -46.4538 -67.7494 -41.3193
      vertex -13.2951 -32.8842 -86.9584
      vertex -13.2951 -67.7494 -65.4105
    endloop
  endfacet
  facet normal -0.525731 -0.447214 -0.723607
    outer loop
      vertex -66.9471 -32.8842 -47.9779
      vertex -13.2951 -32.8842 -86.9584
      vertex -46.4538 -67.7494 -41.3193
    endloop
  endfacet
  facet normal -0.525731 -0.447214 -0.723607
    outer loop
      vertex -13.2951 -32.8842 -86.9584
      vertex -66.9471 -32.8842 -47.9779
      vertex -46.4538 -11.3363 -76.1845
    endloop
  endfacet
endsolid OpenSCAD_Model
