solid OpenSCAD_Model
  facet normal 0 -1 0
    outer loop
      vertex -84.4224 -43.6933 -31.0444
      vertex 46.6146 -43.6933 64.1595
      vertex -53.4888 -43.6933 64.1595
    endloop
  endfacet
  facet normal 0 -1 0
    outer loop
      vertex -84.4224 -43.6933 -31.0444
      vertex 77.5482 -43.6933 -31.0444
      vertex 46.6146 -43.6933 64.1595
    endloop
  endfacet
  facet normal -0 -1 0
    outer loop
      vertex 77.5482 -43.6933 -31.0444
      vertex -84.4224 -43.6933 -31.0444
      vertex -3.43707 -43.6933 -89.8837
    endloop
  endfacet
  facet normal 0.525731 0.447214 -0.723607
    outer loop
      vertex -3.43707 -43.6933 -89.8837
      vertex 77.5482 41.4597 21.583
      vertex 77.5482 -43.6933 -31.0444
    endloop
  endfacet
  facet normal 0.525731 0.447214 -0.723607
    outer loop
      vertex -53.4888 41.4597 -73.6209
      vertex 77.5482 41.4597 21.583
      vertex -3.43707 -43.6933 -89.8837
    endloop
  endfacet
  facet normal 0.525731 0.447214 -0.723607
    outer loop
      vertex 77.5482 41.4597 21.583
      vertex -53.4888 41.4597 -73.6209
      vertex -3.43707 94.0872 -4.73072
    endloop
  endfacet
  facet normal 0.57735 0.187593 0.794654
    outer loop
      vertex 77.5482 41.4597 21.583
      vertex -3.43707 41.4597 80.4223
      vertex 46.6146 -43.6933 64.1595
    endloop
  endfacet
  facet normal 0 -0.187592 0.982247
    outer loop
      vertex -3.43707 41.4597 80.4223
      vertex -53.4888 -43.6933 64.1595
      vertex 46.6146 -43.6933 64.1595
    endloop
  endfacet
  facet normal 0.934172 -0.187592 0.303531
    outer loop
      vertex 46.6146 -43.6933 64.1595
      vertex 77.5482 -43.6933 -31.0444
      vertex 77.5482 41.4597 21.583
    endloop
  endfacet
  facet normal 0.356822 0.794654 0.491123
    outer loop
      vertex 77.5482 41.4597 21.583
      vertex -3.43707 94.0872 -4.73072
      vertex -3.43707 41.4597 80.4223
    endloop
  endfacet
  facet normal -0.850651 0.447214 0.276393
    outer loop
      vertex -84.4224 -43.6933 -31.0444
      vertex -3.43707 94.0872 -4.73072
      vertex -53.4888 41.4597 -73.6209
    endloop
  endfacet
  facet normal -0.850651 0.447214 0.276393
    outer loop
      vertex -3.43707 94.0872 -4.73072
      vertex -84.4224 -43.6933 -31.0444
      vertex -3.43707 41.4597 80.4223
    endloop
  endfacet
  facet normal -0.850651 0.447214 0.276393
    outer loop
      vertex -3.43707 41.4597 80.4223
      vertex -84.4224 -43.6933 -31.0444
      vertex -53.4888 -43.6933 64.1595
    endloop
  endfacet
  facet normal -0.57735 -0.187592 -0.794654
    outer loop
      vertex -3.43707 -43.6933 -89.8837
      vertex -84.4224 -43.6933 -31.0444
      vertex -53.4888 41.4597 -73.6209
    endloop
  endfacet
endsolid OpenSCAD_Model
