<?xml version="1.0" encoding="UTF-8" standalone="no"?>
<!DOCTYPE svg PUBLIC "-//W3C//DTD SVG 1.1//EN"
 "http://www.w3.org/Graphics/SVG/1.1/DTD/svg11.dtd">
<!-- Generated by graphviz version 2.38.0 (20140413.2041)
 -->
<!-- Title: math/math_polytope.scad Pages: 1 -->
<!--zoomable 207 -->
<svg id="main" version="1.1" xmlns="http://www.w3.org/2000/svg" xmlns:xlink="http://www.w3.org/1999/xlink" xml:space="preserve" onload="init(evt)">
<style type="text/css"><![CDATA[
.edge:hover path { stroke: red; }
.edge:hover polygon { stroke: red; fill: red; }
]]></style>
<script type="text/javascript"><![CDATA[
var edges = document.getElementsByTagName('g');
if (edges && edges.length) {
  for (var i=0;i<edges.length;i++) {
    if (edges[i].id.substr(0,4)=='edge') {
      edges[i].setAttribute('class','edge');
    }
  }
}
]]></script>
        <defs>
                <circle id="rim" cx="0" cy="0" r="7"/>
                <circle id="rim2" cx="0" cy="0" r="3.5"/>
                <g id="zoomPlus">
                        <use xlink:href="#rim" fill="#404040">
                                <set attributeName="fill" to="#808080" begin="zoomplus.mouseover" end="zoomplus.mouseout"/>
                        </use>
                        <path d="M-4,0h8M0,-4v8" fill="none" stroke="white" stroke-width="1.5" pointer-events="none"/>
                </g>
                <g id="zoomMin">
                        <use xlink:href="#rim" fill="#404040">
                                <set attributeName="fill" to="#808080" begin="zoomminus.mouseover" end="zoomminus.mouseout"/>
                        </use>
                        <path d="M-4,0h8" fill="none" stroke="white" stroke-width="1.5" pointer-events="none"/>
                </g>
                <g id="dirArrow">
                        <path fill="none" stroke="white" stroke-width="1.5" d="M0,-3.0v7 M-2.5,-0.5L0,-3.0L2.5,-0.5"/>
                </g>
               <g id="resetDef">
                       <use xlink:href="#rim2" fill="#404040">
                               <set attributeName="fill" to="#808080" begin="reset.mouseover" end="reset.mouseout"/>
                       </use>
               </g>
        </defs>

<script type="text/javascript">
var viewWidth = 1025;
var viewHeight = 207;
var sectionId = 'dynsection-0';
</script>
<script xlink:href="svgpan.js"/>
<svg id="graph" class="graph">
<g id="viewport">
<title>math/math_polytope.scad</title>
<polygon fill="white" stroke="none" points="-4,4 -4,-203 1021,-203 1021,4 -4,4"/>
<!-- Node1 -->
<g id="node1" class="node"><title>Node1</title>
<polygon fill="#bfbfbf" stroke="black" points="605,-179.5 605,-198.5 734,-198.5 734,-179.5 605,-179.5"/>
<text text-anchor="middle" x="669.5" y="-186.5" font-family="Helvetica,sans-Serif" font-size="10.00">math/math_polytope.scad</text>
</g>
<!-- Node2 -->
<g id="node2" class="node"><title>Node2</title>
<g id="a_node2"><a xlink:href="math_8scad.html" target="_top" xlink:title="Mathematical function primitives. ">
<polygon fill="white" stroke="black" points="638.5,-123.5 638.5,-142.5 700.5,-142.5 700.5,-123.5 638.5,-123.5"/>
<text text-anchor="middle" x="669.5" y="-130.5" font-family="Helvetica,sans-Serif" font-size="10.00">math.scad</text>
</a>
</g>
</g>
<!-- Node1&#45;&gt;Node2 -->
<g id="edge1" class="edge"><title>Node1&#45;&gt;Node2</title>
<path fill="none" stroke="midnightblue" d="M669.5,-179.083C669.5,-172.006 669.5,-161.861 669.5,-152.986"/>
<polygon fill="midnightblue" stroke="midnightblue" points="673,-152.751 669.5,-142.751 666,-152.751 673,-152.751"/>
</g>
<!-- Node3 -->
<g id="node3" class="node"><title>Node3</title>
<g id="a_node3"><a xlink:href="datatypes_8scad.html" target="_top" xlink:title="Data type identification and operations. ">
<polygon fill="white" stroke="black" points="372,-67.5 372,-86.5 455,-86.5 455,-67.5 372,-67.5"/>
<text text-anchor="middle" x="413.5" y="-74.5" font-family="Helvetica,sans-Serif" font-size="10.00">datatypes.scad</text>
</a>
</g>
</g>
<!-- Node2&#45;&gt;Node3 -->
<g id="edge2" class="edge"><title>Node2&#45;&gt;Node3</title>
<path fill="none" stroke="midnightblue" d="M638.365,-125.433C595.017,-116.289 515.975,-99.6158 464.097,-88.6728"/>
<polygon fill="midnightblue" stroke="midnightblue" points="464.609,-85.2039 454.102,-86.5645 463.164,-92.0532 464.609,-85.2039"/>
</g>
<!-- Node11 -->
<g id="node11" class="node"><title>Node11</title>
<g id="a_node11"><a xlink:href="math__vecalg_8scad.html" target="_top" xlink:title="Vector algebra mathematical functions. ">
<polygon fill="white" stroke="black" points="473,-67.5 473,-86.5 594,-86.5 594,-67.5 473,-67.5"/>
<text text-anchor="middle" x="533.5" y="-74.5" font-family="Helvetica,sans-Serif" font-size="10.00">math/math_vecalg.scad</text>
</a>
</g>
</g>
<!-- Node2&#45;&gt;Node11 -->
<g id="edge10" class="edge"><title>Node2&#45;&gt;Node11</title>
<path fill="none" stroke="midnightblue" d="M647.95,-123.444C625.469,-114.517 590.012,-100.439 564.52,-90.3168"/>
<polygon fill="midnightblue" stroke="midnightblue" points="565.535,-86.9539 554.949,-86.5164 562.951,-93.4598 565.535,-86.9539"/>
</g>
<!-- Node12 -->
<g id="node12" class="node"><title>Node12</title>
<g id="a_node12"><a xlink:href="math__linalg_8scad.html" target="_top" xlink:title="Linear algebra mathematical functions. ">
<polygon fill="white" stroke="black" points="612,-67.5 612,-86.5 727,-86.5 727,-67.5 612,-67.5"/>
<text text-anchor="middle" x="669.5" y="-74.5" font-family="Helvetica,sans-Serif" font-size="10.00">math/math_linalg.scad</text>
</a>
</g>
</g>
<!-- Node2&#45;&gt;Node12 -->
<g id="edge11" class="edge"><title>Node2&#45;&gt;Node12</title>
<path fill="none" stroke="midnightblue" d="M669.5,-123.083C669.5,-116.006 669.5,-105.861 669.5,-96.9865"/>
<polygon fill="midnightblue" stroke="midnightblue" points="673,-96.751 669.5,-86.7511 666,-96.7511 673,-96.751"/>
</g>
<!-- Node13 -->
<g id="node13" class="node"><title>Node13</title>
<g id="a_node13"><a xlink:href="math__triangle_8scad.html" target="_top" xlink:title="Triangle solutions mathematical functions. ">
<polygon fill="white" stroke="black" points="745.5,-67.5 745.5,-86.5 869.5,-86.5 869.5,-67.5 745.5,-67.5"/>
<text text-anchor="middle" x="807.5" y="-74.5" font-family="Helvetica,sans-Serif" font-size="10.00">math/math_triangle.scad</text>
</a>
</g>
</g>
<!-- Node2&#45;&gt;Node13 -->
<g id="edge12" class="edge"><title>Node2&#45;&gt;Node13</title>
<path fill="none" stroke="midnightblue" d="M691.367,-123.444C714.279,-114.478 750.475,-100.314 776.366,-90.1827"/>
<polygon fill="midnightblue" stroke="midnightblue" points="777.699,-93.4198 785.736,-86.5164 775.148,-86.9011 777.699,-93.4198"/>
</g>
<!-- Node14 -->
<g id="node14" class="node"><title>Node14</title>
<g id="a_node14"><a xlink:href="math__oshapes_8scad.html" target="_top" xlink:title="Other shapes mathematical functions. ">
<polygon fill="white" stroke="black" points="888,-67.5 888,-86.5 1017,-86.5 1017,-67.5 888,-67.5"/>
<text text-anchor="middle" x="952.5" y="-74.5" font-family="Helvetica,sans-Serif" font-size="10.00">math/math_oshapes.scad</text>
</a>
</g>
</g>
<!-- Node2&#45;&gt;Node14 -->
<g id="edge13" class="edge"><title>Node2&#45;&gt;Node14</title>
<path fill="none" stroke="midnightblue" d="M700.595,-126.067C748.102,-117.002 839.402,-99.5805 898.058,-88.3882"/>
<polygon fill="midnightblue" stroke="midnightblue" points="898.729,-91.8234 907.896,-86.5111 897.417,-84.9475 898.729,-91.8234"/>
</g>
<!-- Node4 -->
<g id="node4" class="node"><title>Node4</title>
<g id="a_node4"><a xlink:href="constants_8scad.html" target="_top" xlink:title="Design constant definitions. ">
<polygon fill="white" stroke="black" points="0,-6 0,-25 83,-25 83,-6 0,-6"/>
<text text-anchor="middle" x="41.5" y="-13" font-family="Helvetica,sans-Serif" font-size="10.00">constants.scad</text>
</a>
</g>
</g>
<!-- Node3&#45;&gt;Node4 -->
<g id="edge3" class="edge"><title>Node3&#45;&gt;Node4</title>
<path fill="none" stroke="midnightblue" d="M371.997,-72.123C310.347,-65.9314 191.135,-52.2942 91.5,-31 87.1056,-30.0608 82.5321,-28.9395 78.0149,-27.7422"/>
<polygon fill="midnightblue" stroke="midnightblue" points="78.8795,-24.3499 68.3072,-25.0411 77.003,-31.0937 78.8795,-24.3499"/>
</g>
<!-- Node5 -->
<g id="node5" class="node"><title>Node5</title>
<g id="a_node5"><a xlink:href="datatypes__identify__scalar_8scad.html" target="_top" xlink:title="Scalar data type identification. ">
<polygon fill="white" stroke="black" points="101,-0.5 101,-30.5 210,-30.5 210,-0.5 101,-0.5"/>
<text text-anchor="start" x="109" y="-18.5" font-family="Helvetica,sans-Serif" font-size="10.00">datatypes/datatypes</text>
<text text-anchor="middle" x="155.5" y="-7.5" font-family="Helvetica,sans-Serif" font-size="10.00">_identify_scalar.scad</text>
</a>
</g>
</g>
<!-- Node3&#45;&gt;Node5 -->
<g id="edge4" class="edge"><title>Node3&#45;&gt;Node5</title>
<path fill="none" stroke="midnightblue" d="M376.535,-67.4751C335.864,-58.0957 269.727,-42.8431 220.379,-31.4623"/>
<polygon fill="midnightblue" stroke="midnightblue" points="220.963,-28.0053 210.432,-29.1685 219.39,-34.8263 220.963,-28.0053"/>
</g>
<!-- Node6 -->
<g id="node6" class="node"><title>Node6</title>
<g id="a_node6"><a xlink:href="datatypes__identify__iterable_8scad.html" target="_top" xlink:title="Iterable data type identification. ">
<polygon fill="white" stroke="black" points="228.5,-0.5 228.5,-30.5 342.5,-30.5 342.5,-0.5 228.5,-0.5"/>
<text text-anchor="start" x="236.5" y="-18.5" font-family="Helvetica,sans-Serif" font-size="10.00">datatypes/datatypes</text>
<text text-anchor="middle" x="285.5" y="-7.5" font-family="Helvetica,sans-Serif" font-size="10.00">_identify_iterable.scad</text>
</a>
</g>
</g>
<!-- Node3&#45;&gt;Node6 -->
<g id="edge5" class="edge"><title>Node3&#45;&gt;Node6</title>
<path fill="none" stroke="midnightblue" d="M395.161,-67.4751C376.934,-59.0024 348.397,-45.7373 325.003,-34.8628"/>
<polygon fill="midnightblue" stroke="midnightblue" points="326.211,-31.5644 315.667,-30.523 323.26,-37.9122 326.211,-31.5644"/>
</g>
<!-- Node7 -->
<g id="node7" class="node"><title>Node7</title>
<g id="a_node7"><a xlink:href="datatypes__identify__list_8scad.html" target="_top" xlink:title="List data type identification. ">
<polygon fill="white" stroke="black" points="361,-0.5 361,-30.5 466,-30.5 466,-0.5 361,-0.5"/>
<text text-anchor="start" x="369" y="-18.5" font-family="Helvetica,sans-Serif" font-size="10.00">datatypes/datatypes</text>
<text text-anchor="middle" x="413.5" y="-7.5" font-family="Helvetica,sans-Serif" font-size="10.00">_identify_list.scad</text>
</a>
</g>
</g>
<!-- Node3&#45;&gt;Node7 -->
<g id="edge6" class="edge"><title>Node3&#45;&gt;Node7</title>
<path fill="none" stroke="midnightblue" d="M413.5,-67.4751C413.5,-60.471 413.5,-50.1919 413.5,-40.6956"/>
<polygon fill="midnightblue" stroke="midnightblue" points="417,-40.5229 413.5,-30.523 410,-40.523 417,-40.5229"/>
</g>
<!-- Node8 -->
<g id="node8" class="node"><title>Node8</title>
<g id="a_node8"><a xlink:href="datatypes__operate__scalar_8scad.html" target="_top" xlink:title="Scalar data type operations. ">
<polygon fill="white" stroke="black" points="484.5,-0.5 484.5,-30.5 594.5,-30.5 594.5,-0.5 484.5,-0.5"/>
<text text-anchor="start" x="492.5" y="-18.5" font-family="Helvetica,sans-Serif" font-size="10.00">datatypes/datatypes</text>
<text text-anchor="middle" x="539.5" y="-7.5" font-family="Helvetica,sans-Serif" font-size="10.00">_operate_scalar.scad</text>
</a>
</g>
</g>
<!-- Node3&#45;&gt;Node8 -->
<g id="edge7" class="edge"><title>Node3&#45;&gt;Node8</title>
<path fill="none" stroke="midnightblue" d="M431.553,-67.4751C449.495,-59.0024 477.586,-45.7373 500.614,-34.8628"/>
<polygon fill="midnightblue" stroke="midnightblue" points="502.256,-37.958 509.804,-30.523 499.267,-31.6282 502.256,-37.958"/>
</g>
<!-- Node9 -->
<g id="node9" class="node"><title>Node9</title>
<g id="a_node9"><a xlink:href="datatypes__operate__iterable_8scad.html" target="_top" xlink:title="Iterable data type operations. ">
<polygon fill="white" stroke="black" points="613,-0.5 613,-30.5 728,-30.5 728,-0.5 613,-0.5"/>
<text text-anchor="start" x="621" y="-18.5" font-family="Helvetica,sans-Serif" font-size="10.00">datatypes/datatypes</text>
<text text-anchor="middle" x="670.5" y="-7.5" font-family="Helvetica,sans-Serif" font-size="10.00">_operate_iterable.scad</text>
</a>
</g>
</g>
<!-- Node3&#45;&gt;Node9 -->
<g id="edge8" class="edge"><title>Node3&#45;&gt;Node9</title>
<path fill="none" stroke="midnightblue" d="M450.322,-67.4751C490.056,-58.276 554.191,-43.4276 603.018,-32.1232"/>
<polygon fill="midnightblue" stroke="midnightblue" points="603.926,-35.5056 612.879,-29.8402 602.347,-28.686 603.926,-35.5056"/>
</g>
<!-- Node10 -->
<g id="node10" class="node"><title>Node10</title>
<g id="a_node10"><a xlink:href="datatypes__operate__list_8scad.html" target="_top" xlink:title="List data type operations. ">
<polygon fill="white" stroke="black" points="746,-0.5 746,-30.5 851,-30.5 851,-0.5 746,-0.5"/>
<text text-anchor="start" x="754" y="-18.5" font-family="Helvetica,sans-Serif" font-size="10.00">datatypes/datatypes</text>
<text text-anchor="middle" x="798.5" y="-7.5" font-family="Helvetica,sans-Serif" font-size="10.00">_operate_list.scad</text>
</a>
</g>
</g>
<!-- Node3&#45;&gt;Node10 -->
<g id="edge9" class="edge"><title>Node3&#45;&gt;Node10</title>
<path fill="none" stroke="midnightblue" d="M455.224,-68.4844C458.36,-67.9662 461.479,-67.4656 464.5,-67 582.267,-48.8528 615.41,-52.9425 736.006,-31.1666"/>
<polygon fill="midnightblue" stroke="midnightblue" points="736.792,-34.581 746,-29.3396 735.533,-27.6951 736.792,-34.581"/>
</g>
</g>
</svg>
        <g id="navigator" transform="translate(0 0)" fill="#404254">
                <rect fill="#f2f5e9" fill-opacity="0.5" stroke="#606060" stroke-width=".5" x="0" y="0" width="60" height="60"/>
                <use id="zoomplus" xlink:href="#zoomPlus" x="17" y="9" onmousedown="handleZoom(evt,'in')"/>
                <use id="zoomminus" xlink:href="#zoomMin" x="42" y="9" onmousedown="handleZoom(evt,'out')"/>
                <use id="reset" xlink:href="#resetDef" x="30" y="36" onmousedown="handleReset()"/>
                <g id="arrowUp" xlink:href="#dirArrow" transform="translate(30 24)" onmousedown="handlePan(0,-1)">
                  <use xlink:href="#rim" fill="#404040">
                        <set attributeName="fill" to="#808080" begin="arrowUp.mouseover" end="arrowUp.mouseout"/>
                  </use>
                  <path fill="none" stroke="white" stroke-width="1.5" d="M0,-3.0v7 M-2.5,-0.5L0,-3.0L2.5,-0.5"/>
                </g>
                <g id="arrowRight" xlink:href="#dirArrow" transform="rotate(90) translate(36 -43)" onmousedown="handlePan(1,0)">
                  <use xlink:href="#rim" fill="#404040">
                        <set attributeName="fill" to="#808080" begin="arrowRight.mouseover" end="arrowRight.mouseout"/>
                  </use>
                  <path fill="none" stroke="white" stroke-width="1.5" d="M0,-3.0v7 M-2.5,-0.5L0,-3.0L2.5,-0.5"/>
                </g>
                <g id="arrowDown" xlink:href="#dirArrow" transform="rotate(180) translate(-30 -48)" onmousedown="handlePan(0,1)">
                  <use xlink:href="#rim" fill="#404040">
                        <set attributeName="fill" to="#808080" begin="arrowDown.mouseover" end="arrowDown.mouseout"/>
                  </use>
                  <path fill="none" stroke="white" stroke-width="1.5" d="M0,-3.0v7 M-2.5,-0.5L0,-3.0L2.5,-0.5"/>
                </g>
                <g id="arrowLeft" xlink:href="#dirArrow" transform="rotate(270) translate(-36 17)" onmousedown="handlePan(-1,0)">
                  <use xlink:href="#rim" fill="#404040">
                        <set attributeName="fill" to="#808080" begin="arrowLeft.mouseover" end="arrowLeft.mouseout"/>
                  </use>
                  <path fill="none" stroke="white" stroke-width="1.5" d="M0,-3.0v7 M-2.5,-0.5L0,-3.0L2.5,-0.5"/>
                </g>
        </g>
        <svg viewBox="0 0 15 15" width="100%" height="30px" preserveAspectRatio="xMaxYMin meet">
         <g id="arrow_out" transform="scale(0.3 0.3)">
          <a xlink:href="math__polytope_8scad__incl_org.svg" target="_base">
           <rect id="button" ry="5" rx="5" y="6" x="6" height="38" width="38"
                fill="#f2f5e9" fill-opacity="0.5" stroke="#606060" stroke-width="1.0"/>
           <path id="arrow"
             d="M 11.500037,31.436501 C 11.940474,20.09759 22.043105,11.32322 32.158766,21.979434 L 37.068811,17.246167 C 37.068811,17.246167 37.088388,32 37.088388,32 L 22.160133,31.978069 C 22.160133,31.978069 26.997745,27.140456 26.997745,27.140456 C 18.528582,18.264221 13.291696,25.230495 11.500037,31.436501 z"
             style="fill:#404040;"/>
          </a>
         </g>
        </svg>
</svg>
