<?xml version="1.0" encoding="UTF-8" standalone="no"?>
<!DOCTYPE svg PUBLIC "-//W3C//DTD SVG 1.1//EN"
 "http://www.w3.org/Graphics/SVG/1.1/DTD/svg11.dtd">
<!-- Generated by graphviz version 2.38.0 (20140413.2041)
 -->
<!-- Title: math/math_vecalg.scad Pages: 1 -->
<svg width="531pt" height="252pt"
 viewBox="0.00 0.00 530.50 252.00" xmlns="http://www.w3.org/2000/svg" xmlns:xlink="http://www.w3.org/1999/xlink">
<g id="graph0" class="graph" transform="scale(1 1) rotate(0) translate(4 248)">
<title>math/math_vecalg.scad</title>
<polygon fill="white" stroke="none" points="-4,4 -4,-248 526.5,-248 526.5,4 -4,4"/>
<!-- Node1 -->
<g id="node1" class="node"><title>Node1</title>
<polygon fill="#bfbfbf" stroke="black" points="142,-224.5 142,-243.5 263,-243.5 263,-224.5 142,-224.5"/>
<text text-anchor="middle" x="202.5" y="-231.5" font-family="Helvetica,sans-Serif" font-size="10.00">math/math_vecalg.scad</text>
</g>
<!-- Node2 -->
<g id="node2" class="node"><title>Node2</title>
<g id="a_node2"><a xlink:href="math_8scad.html" target="_top" xlink:title="Mathematical function primitives. ">
<polygon fill="white" stroke="black" points="171.5,-168.5 171.5,-187.5 233.5,-187.5 233.5,-168.5 171.5,-168.5"/>
<text text-anchor="middle" x="202.5" y="-175.5" font-family="Helvetica,sans-Serif" font-size="10.00">math.scad</text>
</a>
</g>
</g>
<!-- Node1&#45;&gt;Node2 -->
<g id="edge1" class="edge"><title>Node1&#45;&gt;Node2</title>
<path fill="none" stroke="midnightblue" d="M202.5,-213.805C202.5,-204.91 202.5,-194.78 202.5,-187.751"/>
<polygon fill="midnightblue" stroke="midnightblue" points="199,-214.083 202.5,-224.083 206,-214.083 199,-214.083"/>
</g>
<!-- Node3 -->
<g id="node3" class="node"><title>Node3</title>
<g id="a_node3"><a xlink:href="math__polytope_8scad.html" target="_top" xlink:title="Polygon and polyhedron mathematical functions. ">
<polygon fill="white" stroke="black" points="0,-112.5 0,-131.5 129,-131.5 129,-112.5 0,-112.5"/>
<text text-anchor="middle" x="64.5" y="-119.5" font-family="Helvetica,sans-Serif" font-size="10.00">math/math_polytope.scad</text>
</a>
</g>
</g>
<!-- Node2&#45;&gt;Node3 -->
<g id="edge2" class="edge"><title>Node2&#45;&gt;Node3</title>
<path fill="none" stroke="midnightblue" d="M171.251,-164.772C145.329,-154.629 109.138,-140.467 86.2642,-131.516"/>
<polygon fill="midnightblue" stroke="midnightblue" points="170.046,-168.059 180.633,-168.444 172.596,-161.54 170.046,-168.059"/>
</g>
<!-- Node5 -->
<g id="node5" class="node"><title>Node5</title>
<g id="a_node5"><a xlink:href="tools__utility_8scad.html" target="_top" xlink:title="Shape transformation utility tools. ">
<polygon fill="white" stroke="black" points="276.5,-112.5 276.5,-131.5 390.5,-131.5 390.5,-112.5 276.5,-112.5"/>
<text text-anchor="middle" x="333.5" y="-119.5" font-family="Helvetica,sans-Serif" font-size="10.00">tools/tools_utility.scad</text>
</a>
</g>
</g>
<!-- Node2&#45;&gt;Node5 -->
<g id="edge4" class="edge"><title>Node2&#45;&gt;Node5</title>
<path fill="none" stroke="midnightblue" d="M232.817,-164.503C257.376,-154.38 291.318,-140.388 312.84,-131.516"/>
<polygon fill="midnightblue" stroke="midnightblue" points="231.169,-161.397 223.257,-168.444 233.837,-167.868 231.169,-161.397"/>
</g>
<!-- Node10 -->
<g id="node10" class="node"><title>Node10</title>
<g id="a_node10"><a xlink:href="tools__align_8scad.html" target="_top" xlink:title="Shape alignment tools. ">
<polygon fill="white" stroke="black" points="147,-112.5 147,-131.5 258,-131.5 258,-112.5 147,-112.5"/>
<text text-anchor="middle" x="202.5" y="-119.5" font-family="Helvetica,sans-Serif" font-size="10.00">tools/tools_align.scad</text>
</a>
</g>
</g>
<!-- Node2&#45;&gt;Node10 -->
<g id="edge9" class="edge"><title>Node2&#45;&gt;Node10</title>
<path fill="none" stroke="midnightblue" d="M202.5,-157.805C202.5,-148.91 202.5,-138.78 202.5,-131.751"/>
<polygon fill="midnightblue" stroke="midnightblue" points="199,-158.083 202.5,-168.083 206,-158.083 199,-158.083"/>
</g>
<!-- Node4 -->
<g id="node4" class="node"><title>Node4</title>
<g id="a_node4"><a xlink:href="tools__polytope_8scad.html" target="_top" xlink:title="Polygon and polyhedron tools. ">
<polygon fill="white" stroke="black" points="64.5,-56.5 64.5,-75.5 192.5,-75.5 192.5,-56.5 64.5,-56.5"/>
<text text-anchor="middle" x="128.5" y="-63.5" font-family="Helvetica,sans-Serif" font-size="10.00">tools/tools_polytope.scad</text>
</a>
</g>
</g>
<!-- Node3&#45;&gt;Node4 -->
<g id="edge3" class="edge"><title>Node3&#45;&gt;Node4</title>
<path fill="none" stroke="midnightblue" d="M82.4915,-105.82C93.9576,-96.1452 108.413,-83.9481 118.03,-75.8339"/>
<polygon fill="midnightblue" stroke="midnightblue" points="80.1686,-103.2 74.7827,-112.324 84.6827,-108.55 80.1686,-103.2"/>
</g>
<!-- Node6 -->
<g id="node6" class="node"><title>Node6</title>
<g id="a_node6"><a xlink:href="shapes2d_8scad.html" target="_top" xlink:title="Two&#45;dimensional basic shapes. ">
<polygon fill="white" stroke="black" points="275,-56.5 275,-75.5 392,-75.5 392,-56.5 275,-56.5"/>
<text text-anchor="middle" x="333.5" y="-63.5" font-family="Helvetica,sans-Serif" font-size="10.00">shapes/shapes2d.scad</text>
</a>
</g>
</g>
<!-- Node5&#45;&gt;Node6 -->
<g id="edge5" class="edge"><title>Node5&#45;&gt;Node6</title>
<path fill="none" stroke="midnightblue" d="M333.5,-101.805C333.5,-92.9102 333.5,-82.7798 333.5,-75.7511"/>
<polygon fill="midnightblue" stroke="midnightblue" points="330,-102.083 333.5,-112.083 337,-102.083 330,-102.083"/>
</g>
<!-- Node7 -->
<g id="node7" class="node"><title>Node7</title>
<g id="a_node7"><a xlink:href="shapes2de_8scad.html" target="_top" xlink:title="Linearly extruded two&#45;dimensional basic shapes. ">
<polygon fill="white" stroke="black" points="134.5,-0.5 134.5,-19.5 256.5,-19.5 256.5,-0.5 134.5,-0.5"/>
<text text-anchor="middle" x="195.5" y="-7.5" font-family="Helvetica,sans-Serif" font-size="10.00">shapes/shapes2de.scad</text>
</a>
</g>
</g>
<!-- Node6&#45;&gt;Node7 -->
<g id="edge6" class="edge"><title>Node6&#45;&gt;Node7</title>
<path fill="none" stroke="midnightblue" d="M302.251,-52.772C276.329,-42.6287 240.138,-28.4669 217.264,-19.5164"/>
<polygon fill="midnightblue" stroke="midnightblue" points="301.046,-56.0588 311.633,-56.4435 303.596,-49.5401 301.046,-56.0588"/>
</g>
<!-- Node8 -->
<g id="node8" class="node"><title>Node8</title>
<g id="a_node8"><a xlink:href="shapes3d_8scad.html" target="_top" xlink:title="Three&#45;dimensional basic shapes. ">
<polygon fill="white" stroke="black" points="275,-0.5 275,-19.5 392,-19.5 392,-0.5 275,-0.5"/>
<text text-anchor="middle" x="333.5" y="-7.5" font-family="Helvetica,sans-Serif" font-size="10.00">shapes/shapes3d.scad</text>
</a>
</g>
</g>
<!-- Node6&#45;&gt;Node8 -->
<g id="edge7" class="edge"><title>Node6&#45;&gt;Node8</title>
<path fill="none" stroke="midnightblue" d="M333.5,-45.8045C333.5,-36.9102 333.5,-26.7798 333.5,-19.7511"/>
<polygon fill="midnightblue" stroke="midnightblue" points="330,-46.083 333.5,-56.083 337,-46.083 330,-46.083"/>
</g>
<!-- Node9 -->
<g id="node9" class="node"><title>Node9</title>
<g id="a_node9"><a xlink:href="tools__edge_8scad.html" target="_top" xlink:title="Shape edge finishing tools. ">
<polygon fill="white" stroke="black" points="410.5,-0.5 410.5,-19.5 522.5,-19.5 522.5,-0.5 410.5,-0.5"/>
<text text-anchor="middle" x="466.5" y="-7.5" font-family="Helvetica,sans-Serif" font-size="10.00">tools/tools_edge.scad</text>
</a>
</g>
</g>
<!-- Node6&#45;&gt;Node9 -->
<g id="edge8" class="edge"><title>Node6&#45;&gt;Node9</title>
<path fill="none" stroke="midnightblue" d="M363.948,-52.6377C388.907,-42.504 423.577,-28.4274 445.524,-19.5164"/>
<polygon fill="midnightblue" stroke="midnightblue" points="362.523,-49.4387 354.574,-56.4435 365.156,-55.9245 362.523,-49.4387"/>
</g>
<!-- Node10&#45;&gt;Node4 -->
<g id="edge10" class="edge"><title>Node10&#45;&gt;Node4</title>
<path fill="none" stroke="midnightblue" d="M182.466,-106.38C169.091,-96.6204 151.941,-84.1057 140.606,-75.8339"/>
<polygon fill="midnightblue" stroke="midnightblue" points="180.47,-109.257 190.611,-112.324 184.596,-103.602 180.47,-109.257"/>
</g>
</g>
</svg>
