solid OpenSCAD_Model
  facet normal 0.57735 0.57735 0.57735
    outer loop
      vertex 100 0 61.8034
      vertex 61.8034 100 0
      vertex 0 61.8034 100
    endloop
  endfacet
  facet normal 0.57735 -0.57735 0.57735
    outer loop
      vertex 100 0 61.8034
      vertex -0 -61.8034 100
      vertex 61.8034 -100 0
    endloop
  endfacet
  facet normal -0.356822 0 0.934172
    outer loop
      vertex -100 -0 61.8034
      vertex -0 -61.8034 100
      vertex 0 61.8034 100
    endloop
  endfacet
  facet normal 0.356822 0 0.934172
    outer loop
      vertex 100 0 61.8034
      vertex 0 61.8034 100
      vertex -0 -61.8034 100
    endloop
  endfacet
  facet normal 0.934172 0.356822 0
    outer loop
      vertex 100 0 61.8034
      vertex 100 0 -61.8034
      vertex 61.8034 100 0
    endloop
  endfacet
  facet normal 0.934172 -0.356822 0
    outer loop
      vertex 100 0 61.8034
      vertex 61.8034 -100 0
      vertex 100 0 -61.8034
    endloop
  endfacet
  facet normal 0 0.934172 0.356822
    outer loop
      vertex 61.8034 100 0
      vertex -61.8034 100 0
      vertex 0 61.8034 100
    endloop
  endfacet
  facet normal -0.934172 0.356822 0
    outer loop
      vertex -100 -0 61.8034
      vertex -61.8034 100 0
      vertex -100 -0 -61.8034
    endloop
  endfacet
  facet normal -0.57735 0.57735 0.57735
    outer loop
      vertex -100 -0 61.8034
      vertex 0 61.8034 100
      vertex -61.8034 100 0
    endloop
  endfacet
  facet normal 0 -0.934172 0.356822
    outer loop
      vertex 61.8034 -100 0
      vertex -0 -61.8034 100
      vertex -61.8034 -100 0
    endloop
  endfacet
  facet normal -0.934172 -0.356822 -0
    outer loop
      vertex -100 -0 61.8034
      vertex -100 -0 -61.8034
      vertex -61.8034 -100 0
    endloop
  endfacet
  facet normal -0.57735 -0.57735 0.57735
    outer loop
      vertex -100 -0 61.8034
      vertex -61.8034 -100 0
      vertex -0 -61.8034 100
    endloop
  endfacet
  facet normal 0.57735 0.57735 -0.57735
    outer loop
      vertex 61.8034 100 0
      vertex 100 0 -61.8034
      vertex 0 61.8034 -100
    endloop
  endfacet
  facet normal 0 0.934172 -0.356822
    outer loop
      vertex 61.8034 100 0
      vertex 0 61.8034 -100
      vertex -61.8034 100 0
    endloop
  endfacet
  facet normal -0.57735 0.57735 -0.57735
    outer loop
      vertex -100 -0 -61.8034
      vertex -61.8034 100 0
      vertex 0 61.8034 -100
    endloop
  endfacet
  facet normal 0.57735 -0.57735 -0.57735
    outer loop
      vertex 61.8034 -100 0
      vertex -0 -61.8034 -100
      vertex 100 0 -61.8034
    endloop
  endfacet
  facet normal -0 -0.934172 -0.356822
    outer loop
      vertex 61.8034 -100 0
      vertex -61.8034 -100 0
      vertex -0 -61.8034 -100
    endloop
  endfacet
  facet normal -0.57735 -0.57735 -0.57735
    outer loop
      vertex -100 -0 -61.8034
      vertex -0 -61.8034 -100
      vertex -61.8034 -100 0
    endloop
  endfacet
  facet normal -0.356822 0 -0.934172
    outer loop
      vertex -100 -0 -61.8034
      vertex 0 61.8034 -100
      vertex -0 -61.8034 -100
    endloop
  endfacet
  facet normal 0.356822 0 -0.934172
    outer loop
      vertex 100 0 -61.8034
      vertex -0 -61.8034 -100
      vertex 0 61.8034 -100
    endloop
  endfacet
endsolid OpenSCAD_Model
