solid OpenSCAD_Model
  facet normal 0 -1 0
    outer loop
      vertex -57.735 -57.735 -57.735
      vertex 57.735 -57.735 57.735
      vertex -57.735 -57.735 57.735
    endloop
  endfacet
  facet normal 0 -1 -0
    outer loop
      vertex 57.735 -57.735 57.735
      vertex -57.735 -57.735 -57.735
      vertex 57.735 -57.735 -57.735
    endloop
  endfacet
  facet normal -0 0 1
    outer loop
      vertex -57.735 57.735 57.735
      vertex 57.735 -57.735 57.735
      vertex 57.735 57.735 57.735
    endloop
  endfacet
  facet normal 0 0 1
    outer loop
      vertex 57.735 -57.735 57.735
      vertex -57.735 57.735 57.735
      vertex -57.735 -57.735 57.735
    endloop
  endfacet
  facet normal -1 0 0
    outer loop
      vertex -57.735 -57.735 -57.735
      vertex -57.735 57.735 57.735
      vertex -57.735 57.735 -57.735
    endloop
  endfacet
  facet normal -1 -0 0
    outer loop
      vertex -57.735 57.735 57.735
      vertex -57.735 -57.735 -57.735
      vertex -57.735 -57.735 57.735
    endloop
  endfacet
  facet normal 0 0 -1
    outer loop
      vertex -57.735 -57.735 -57.735
      vertex 57.735 57.735 -57.735
      vertex 57.735 -57.735 -57.735
    endloop
  endfacet
  facet normal -0 0 -1
    outer loop
      vertex 57.735 57.735 -57.735
      vertex -57.735 -57.735 -57.735
      vertex -57.735 57.735 -57.735
    endloop
  endfacet
  facet normal 1 -0 0
    outer loop
      vertex 57.735 -57.735 57.735
      vertex 57.735 57.735 -57.735
      vertex 57.735 57.735 57.735
    endloop
  endfacet
  facet normal 1 0 0
    outer loop
      vertex 57.735 57.735 -57.735
      vertex 57.735 -57.735 57.735
      vertex 57.735 -57.735 -57.735
    endloop
  endfacet
  facet normal 0 1 -0
    outer loop
      vertex 57.735 57.735 -57.735
      vertex -57.735 57.735 57.735
      vertex 57.735 57.735 57.735
    endloop
  endfacet
  facet normal 0 1 0
    outer loop
      vertex -57.735 57.735 57.735
      vertex 57.735 57.735 -57.735
      vertex -57.735 57.735 -57.735
    endloop
  endfacet
endsolid OpenSCAD_Model
