solid OpenSCAD_Model
  facet normal -0.57735 0.57735 -0.57735
    outer loop
      vertex -0 -0 -100
      vertex -100 -0 0
      vertex 0 100 0
    endloop
  endfacet
  facet normal 0.57735 0.57735 -0.57735
    outer loop
      vertex 100 0 0
      vertex -0 -0 -100
      vertex 0 100 0
    endloop
  endfacet
  facet normal 0.57735 0.57735 0.57735
    outer loop
      vertex 0 0 100
      vertex 100 0 0
      vertex 0 100 0
    endloop
  endfacet
  facet normal -0.57735 0.57735 0.57735
    outer loop
      vertex -100 -0 0
      vertex 0 0 100
      vertex 0 100 0
    endloop
  endfacet
  facet normal -0.57735 -0.57735 -0.57735
    outer loop
      vertex -100 -0 0
      vertex -0 -0 -100
      vertex -0 -100 0
    endloop
  endfacet
  facet normal 0.57735 -0.57735 -0.57735
    outer loop
      vertex -0 -0 -100
      vertex 100 0 0
      vertex -0 -100 0
    endloop
  endfacet
  facet normal 0.57735 -0.57735 0.57735
    outer loop
      vertex 100 0 0
      vertex 0 0 100
      vertex -0 -100 0
    endloop
  endfacet
  facet normal -0.57735 -0.57735 0.57735
    outer loop
      vertex 0 0 100
      vertex -100 -0 0
      vertex -0 -100 0
    endloop
  endfacet
endsolid OpenSCAD_Model
