<?xml version="1.0" encoding="UTF-8" standalone="no"?>
<!DOCTYPE svg PUBLIC "-//W3C//DTD SVG 1.1//EN"
 "http://www.w3.org/Graphics/SVG/1.1/DTD/svg11.dtd">
<!-- Generated by graphviz version 2.38.0 (20140413.2041)
 -->
<!-- Title: tools/tools_polytope.scad Pages: 1 -->
<svg width="1025pt" height="263pt"
 viewBox="0.00 0.00 1025.00 263.00" xmlns="http://www.w3.org/2000/svg" xmlns:xlink="http://www.w3.org/1999/xlink">
<g id="graph0" class="graph" transform="scale(1 1) rotate(0) translate(4 259)">
<title>tools/tools_polytope.scad</title>
<polygon fill="white" stroke="none" points="-4,4 -4,-259 1021,-259 1021,4 -4,4"/>
<!-- Node1 -->
<g id="node1" class="node"><title>Node1</title>
<polygon fill="#bfbfbf" stroke="black" points="605.5,-235.5 605.5,-254.5 733.5,-254.5 733.5,-235.5 605.5,-235.5"/>
<text text-anchor="middle" x="669.5" y="-242.5" font-family="Helvetica,sans-Serif" font-size="10.00">tools/tools_polytope.scad</text>
</g>
<!-- Node2 -->
<g id="node2" class="node"><title>Node2</title>
<g id="a_node2"><a xlink:href="math__polytope_8scad.html" target="_top" xlink:title="Polygon and polyhedron mathematical functions. ">
<polygon fill="white" stroke="black" points="536,-179.5 536,-198.5 665,-198.5 665,-179.5 536,-179.5"/>
<text text-anchor="middle" x="600.5" y="-186.5" font-family="Helvetica,sans-Serif" font-size="10.00">math/math_polytope.scad</text>
</a>
</g>
</g>
<!-- Node1&#45;&gt;Node2 -->
<g id="edge1" class="edge"><title>Node1&#45;&gt;Node2</title>
<path fill="none" stroke="midnightblue" d="M658.414,-235.324C648.014,-227.185 632.239,-214.839 619.778,-205.087"/>
<polygon fill="midnightblue" stroke="midnightblue" points="621.82,-202.241 611.788,-198.834 617.506,-207.753 621.82,-202.241"/>
</g>
<!-- Node16 -->
<g id="node16" class="node"><title>Node16</title>
<g id="a_node16"><a xlink:href="tools__align_8scad.html" target="_top" xlink:title="Shape alignment tools. ">
<polygon fill="white" stroke="black" points="683,-179.5 683,-198.5 794,-198.5 794,-179.5 683,-179.5"/>
<text text-anchor="middle" x="738.5" y="-186.5" font-family="Helvetica,sans-Serif" font-size="10.00">tools/tools_align.scad</text>
</a>
</g>
</g>
<!-- Node1&#45;&gt;Node16 -->
<g id="edge15" class="edge"><title>Node1&#45;&gt;Node16</title>
<path fill="none" stroke="midnightblue" d="M680.586,-235.324C690.986,-227.185 706.761,-214.839 719.222,-205.087"/>
<polygon fill="midnightblue" stroke="midnightblue" points="721.494,-207.753 727.212,-198.834 717.18,-202.241 721.494,-207.753"/>
</g>
<!-- Node3 -->
<g id="node3" class="node"><title>Node3</title>
<g id="a_node3"><a xlink:href="math_8scad.html" target="_top" xlink:title="Mathematical function primitives. ">
<polygon fill="white" stroke="black" points="638.5,-123.5 638.5,-142.5 700.5,-142.5 700.5,-123.5 638.5,-123.5"/>
<text text-anchor="middle" x="669.5" y="-130.5" font-family="Helvetica,sans-Serif" font-size="10.00">math.scad</text>
</a>
</g>
</g>
<!-- Node2&#45;&gt;Node3 -->
<g id="edge2" class="edge"><title>Node2&#45;&gt;Node3</title>
<path fill="none" stroke="midnightblue" d="M611.586,-179.324C621.986,-171.185 637.761,-158.839 650.222,-149.087"/>
<polygon fill="midnightblue" stroke="midnightblue" points="652.494,-151.753 658.212,-142.834 648.18,-146.241 652.494,-151.753"/>
</g>
<!-- Node4 -->
<g id="node4" class="node"><title>Node4</title>
<g id="a_node4"><a xlink:href="datatypes_8scad.html" target="_top" xlink:title="Data type identification and operations. ">
<polygon fill="white" stroke="black" points="372,-67.5 372,-86.5 455,-86.5 455,-67.5 372,-67.5"/>
<text text-anchor="middle" x="413.5" y="-74.5" font-family="Helvetica,sans-Serif" font-size="10.00">datatypes.scad</text>
</a>
</g>
</g>
<!-- Node3&#45;&gt;Node4 -->
<g id="edge3" class="edge"><title>Node3&#45;&gt;Node4</title>
<path fill="none" stroke="midnightblue" d="M638.365,-125.433C595.017,-116.289 515.975,-99.6158 464.097,-88.6728"/>
<polygon fill="midnightblue" stroke="midnightblue" points="464.609,-85.2039 454.102,-86.5645 463.164,-92.0532 464.609,-85.2039"/>
</g>
<!-- Node12 -->
<g id="node12" class="node"><title>Node12</title>
<g id="a_node12"><a xlink:href="math__vecalg_8scad.html" target="_top" xlink:title="Vector algebra mathematical functions. ">
<polygon fill="white" stroke="black" points="473,-67.5 473,-86.5 594,-86.5 594,-67.5 473,-67.5"/>
<text text-anchor="middle" x="533.5" y="-74.5" font-family="Helvetica,sans-Serif" font-size="10.00">math/math_vecalg.scad</text>
</a>
</g>
</g>
<!-- Node3&#45;&gt;Node12 -->
<g id="edge11" class="edge"><title>Node3&#45;&gt;Node12</title>
<path fill="none" stroke="midnightblue" d="M647.95,-123.444C625.469,-114.517 590.012,-100.439 564.52,-90.3168"/>
<polygon fill="midnightblue" stroke="midnightblue" points="565.535,-86.9539 554.949,-86.5164 562.951,-93.4598 565.535,-86.9539"/>
</g>
<!-- Node13 -->
<g id="node13" class="node"><title>Node13</title>
<g id="a_node13"><a xlink:href="math__linalg_8scad.html" target="_top" xlink:title="Linear algebra mathematical functions. ">
<polygon fill="white" stroke="black" points="612,-67.5 612,-86.5 727,-86.5 727,-67.5 612,-67.5"/>
<text text-anchor="middle" x="669.5" y="-74.5" font-family="Helvetica,sans-Serif" font-size="10.00">math/math_linalg.scad</text>
</a>
</g>
</g>
<!-- Node3&#45;&gt;Node13 -->
<g id="edge12" class="edge"><title>Node3&#45;&gt;Node13</title>
<path fill="none" stroke="midnightblue" d="M669.5,-123.083C669.5,-116.006 669.5,-105.861 669.5,-96.9865"/>
<polygon fill="midnightblue" stroke="midnightblue" points="673,-96.751 669.5,-86.7511 666,-96.7511 673,-96.751"/>
</g>
<!-- Node14 -->
<g id="node14" class="node"><title>Node14</title>
<g id="a_node14"><a xlink:href="math__triangle_8scad.html" target="_top" xlink:title="Triangle solutions mathematical functions. ">
<polygon fill="white" stroke="black" points="745.5,-67.5 745.5,-86.5 869.5,-86.5 869.5,-67.5 745.5,-67.5"/>
<text text-anchor="middle" x="807.5" y="-74.5" font-family="Helvetica,sans-Serif" font-size="10.00">math/math_triangle.scad</text>
</a>
</g>
</g>
<!-- Node3&#45;&gt;Node14 -->
<g id="edge13" class="edge"><title>Node3&#45;&gt;Node14</title>
<path fill="none" stroke="midnightblue" d="M691.367,-123.444C714.279,-114.478 750.475,-100.314 776.366,-90.1827"/>
<polygon fill="midnightblue" stroke="midnightblue" points="777.699,-93.4198 785.736,-86.5164 775.148,-86.9011 777.699,-93.4198"/>
</g>
<!-- Node15 -->
<g id="node15" class="node"><title>Node15</title>
<g id="a_node15"><a xlink:href="math__oshapes_8scad.html" target="_top" xlink:title="Other shapes mathematical functions. ">
<polygon fill="white" stroke="black" points="888,-67.5 888,-86.5 1017,-86.5 1017,-67.5 888,-67.5"/>
<text text-anchor="middle" x="952.5" y="-74.5" font-family="Helvetica,sans-Serif" font-size="10.00">math/math_oshapes.scad</text>
</a>
</g>
</g>
<!-- Node3&#45;&gt;Node15 -->
<g id="edge14" class="edge"><title>Node3&#45;&gt;Node15</title>
<path fill="none" stroke="midnightblue" d="M700.595,-126.067C748.102,-117.002 839.402,-99.5805 898.058,-88.3882"/>
<polygon fill="midnightblue" stroke="midnightblue" points="898.729,-91.8234 907.896,-86.5111 897.417,-84.9475 898.729,-91.8234"/>
</g>
<!-- Node5 -->
<g id="node5" class="node"><title>Node5</title>
<g id="a_node5"><a xlink:href="constants_8scad.html" target="_top" xlink:title="Design constant definitions. ">
<polygon fill="white" stroke="black" points="0,-6 0,-25 83,-25 83,-6 0,-6"/>
<text text-anchor="middle" x="41.5" y="-13" font-family="Helvetica,sans-Serif" font-size="10.00">constants.scad</text>
</a>
</g>
</g>
<!-- Node4&#45;&gt;Node5 -->
<g id="edge4" class="edge"><title>Node4&#45;&gt;Node5</title>
<path fill="none" stroke="midnightblue" d="M371.997,-72.123C310.347,-65.9314 191.135,-52.2942 91.5,-31 87.1056,-30.0608 82.5321,-28.9395 78.0149,-27.7422"/>
<polygon fill="midnightblue" stroke="midnightblue" points="78.8795,-24.3499 68.3072,-25.0411 77.003,-31.0937 78.8795,-24.3499"/>
</g>
<!-- Node6 -->
<g id="node6" class="node"><title>Node6</title>
<g id="a_node6"><a xlink:href="datatypes__identify__scalar_8scad.html" target="_top" xlink:title="Scalar data type identification. ">
<polygon fill="white" stroke="black" points="101,-0.5 101,-30.5 210,-30.5 210,-0.5 101,-0.5"/>
<text text-anchor="start" x="109" y="-18.5" font-family="Helvetica,sans-Serif" font-size="10.00">datatypes/datatypes</text>
<text text-anchor="middle" x="155.5" y="-7.5" font-family="Helvetica,sans-Serif" font-size="10.00">_identify_scalar.scad</text>
</a>
</g>
</g>
<!-- Node4&#45;&gt;Node6 -->
<g id="edge5" class="edge"><title>Node4&#45;&gt;Node6</title>
<path fill="none" stroke="midnightblue" d="M376.535,-67.4751C335.864,-58.0957 269.727,-42.8431 220.379,-31.4623"/>
<polygon fill="midnightblue" stroke="midnightblue" points="220.963,-28.0053 210.432,-29.1685 219.39,-34.8263 220.963,-28.0053"/>
</g>
<!-- Node7 -->
<g id="node7" class="node"><title>Node7</title>
<g id="a_node7"><a xlink:href="datatypes__identify__iterable_8scad.html" target="_top" xlink:title="Iterable data type identification. ">
<polygon fill="white" stroke="black" points="228.5,-0.5 228.5,-30.5 342.5,-30.5 342.5,-0.5 228.5,-0.5"/>
<text text-anchor="start" x="236.5" y="-18.5" font-family="Helvetica,sans-Serif" font-size="10.00">datatypes/datatypes</text>
<text text-anchor="middle" x="285.5" y="-7.5" font-family="Helvetica,sans-Serif" font-size="10.00">_identify_iterable.scad</text>
</a>
</g>
</g>
<!-- Node4&#45;&gt;Node7 -->
<g id="edge6" class="edge"><title>Node4&#45;&gt;Node7</title>
<path fill="none" stroke="midnightblue" d="M395.161,-67.4751C376.934,-59.0024 348.397,-45.7373 325.003,-34.8628"/>
<polygon fill="midnightblue" stroke="midnightblue" points="326.211,-31.5644 315.667,-30.523 323.26,-37.9122 326.211,-31.5644"/>
</g>
<!-- Node8 -->
<g id="node8" class="node"><title>Node8</title>
<g id="a_node8"><a xlink:href="datatypes__identify__list_8scad.html" target="_top" xlink:title="List data type identification. ">
<polygon fill="white" stroke="black" points="361,-0.5 361,-30.5 466,-30.5 466,-0.5 361,-0.5"/>
<text text-anchor="start" x="369" y="-18.5" font-family="Helvetica,sans-Serif" font-size="10.00">datatypes/datatypes</text>
<text text-anchor="middle" x="413.5" y="-7.5" font-family="Helvetica,sans-Serif" font-size="10.00">_identify_list.scad</text>
</a>
</g>
</g>
<!-- Node4&#45;&gt;Node8 -->
<g id="edge7" class="edge"><title>Node4&#45;&gt;Node8</title>
<path fill="none" stroke="midnightblue" d="M413.5,-67.4751C413.5,-60.471 413.5,-50.1919 413.5,-40.6956"/>
<polygon fill="midnightblue" stroke="midnightblue" points="417,-40.5229 413.5,-30.523 410,-40.523 417,-40.5229"/>
</g>
<!-- Node9 -->
<g id="node9" class="node"><title>Node9</title>
<g id="a_node9"><a xlink:href="datatypes__operate__scalar_8scad.html" target="_top" xlink:title="Scalar data type operations. ">
<polygon fill="white" stroke="black" points="484.5,-0.5 484.5,-30.5 594.5,-30.5 594.5,-0.5 484.5,-0.5"/>
<text text-anchor="start" x="492.5" y="-18.5" font-family="Helvetica,sans-Serif" font-size="10.00">datatypes/datatypes</text>
<text text-anchor="middle" x="539.5" y="-7.5" font-family="Helvetica,sans-Serif" font-size="10.00">_operate_scalar.scad</text>
</a>
</g>
</g>
<!-- Node4&#45;&gt;Node9 -->
<g id="edge8" class="edge"><title>Node4&#45;&gt;Node9</title>
<path fill="none" stroke="midnightblue" d="M431.553,-67.4751C449.495,-59.0024 477.586,-45.7373 500.614,-34.8628"/>
<polygon fill="midnightblue" stroke="midnightblue" points="502.256,-37.958 509.804,-30.523 499.267,-31.6282 502.256,-37.958"/>
</g>
<!-- Node10 -->
<g id="node10" class="node"><title>Node10</title>
<g id="a_node10"><a xlink:href="datatypes__operate__iterable_8scad.html" target="_top" xlink:title="Iterable data type operations. ">
<polygon fill="white" stroke="black" points="613,-0.5 613,-30.5 728,-30.5 728,-0.5 613,-0.5"/>
<text text-anchor="start" x="621" y="-18.5" font-family="Helvetica,sans-Serif" font-size="10.00">datatypes/datatypes</text>
<text text-anchor="middle" x="670.5" y="-7.5" font-family="Helvetica,sans-Serif" font-size="10.00">_operate_iterable.scad</text>
</a>
</g>
</g>
<!-- Node4&#45;&gt;Node10 -->
<g id="edge9" class="edge"><title>Node4&#45;&gt;Node10</title>
<path fill="none" stroke="midnightblue" d="M450.322,-67.4751C490.056,-58.276 554.191,-43.4276 603.018,-32.1232"/>
<polygon fill="midnightblue" stroke="midnightblue" points="603.926,-35.5056 612.879,-29.8402 602.347,-28.686 603.926,-35.5056"/>
</g>
<!-- Node11 -->
<g id="node11" class="node"><title>Node11</title>
<g id="a_node11"><a xlink:href="datatypes__operate__list_8scad.html" target="_top" xlink:title="List data type operations. ">
<polygon fill="white" stroke="black" points="746,-0.5 746,-30.5 851,-30.5 851,-0.5 746,-0.5"/>
<text text-anchor="start" x="754" y="-18.5" font-family="Helvetica,sans-Serif" font-size="10.00">datatypes/datatypes</text>
<text text-anchor="middle" x="798.5" y="-7.5" font-family="Helvetica,sans-Serif" font-size="10.00">_operate_list.scad</text>
</a>
</g>
</g>
<!-- Node4&#45;&gt;Node11 -->
<g id="edge10" class="edge"><title>Node4&#45;&gt;Node11</title>
<path fill="none" stroke="midnightblue" d="M455.217,-68.3382C458.018,-67.8709 460.798,-67.4204 463.5,-67 581.664,-48.6133 614.963,-52.9785 735.667,-31.234"/>
<polygon fill="midnightblue" stroke="midnightblue" points="736.46,-34.6472 745.669,-29.409 735.203,-27.7609 736.46,-34.6472"/>
</g>
<!-- Node16&#45;&gt;Node3 -->
<g id="edge16" class="edge"><title>Node16&#45;&gt;Node3</title>
<path fill="none" stroke="midnightblue" d="M727.414,-179.324C717.014,-171.185 701.239,-158.839 688.778,-149.087"/>
<polygon fill="midnightblue" stroke="midnightblue" points="690.82,-146.241 680.788,-142.834 686.506,-151.753 690.82,-146.241"/>
</g>
</g>
</svg>
