<?xml version="1.0" encoding="UTF-8" standalone="no"?>
<!DOCTYPE svg PUBLIC "-//W3C//DTD SVG 1.1//EN"
 "http://www.w3.org/Graphics/SVG/1.1/DTD/svg11.dtd">
<!-- Generated by graphviz version 2.38.0 (20140413.2041)
 -->
<!-- Title: tools/tools_utility.scad Pages: 1 -->
<svg width="396pt" height="140pt"
 viewBox="0.00 0.00 396.00 140.00" xmlns="http://www.w3.org/2000/svg" xmlns:xlink="http://www.w3.org/1999/xlink">
<g id="graph0" class="graph" transform="scale(1 1) rotate(0) translate(4 136)">
<title>tools/tools_utility.scad</title>
<polygon fill="white" stroke="none" points="-4,4 -4,-136 392,-136 392,4 -4,4"/>
<!-- Node1 -->
<g id="node1" class="node"><title>Node1</title>
<polygon fill="#bfbfbf" stroke="black" points="142,-112.5 142,-131.5 256,-131.5 256,-112.5 142,-112.5"/>
<text text-anchor="middle" x="199" y="-119.5" font-family="Helvetica,sans-Serif" font-size="10.00">tools/tools_utility.scad</text>
</g>
<!-- Node2 -->
<g id="node2" class="node"><title>Node2</title>
<g id="a_node2"><a xlink:href="shapes2d_8scad.html" target="_top" xlink:title="Two&#45;dimensional basic shapes. ">
<polygon fill="white" stroke="black" points="140.5,-56.5 140.5,-75.5 257.5,-75.5 257.5,-56.5 140.5,-56.5"/>
<text text-anchor="middle" x="199" y="-63.5" font-family="Helvetica,sans-Serif" font-size="10.00">shapes/shapes2d.scad</text>
</a>
</g>
</g>
<!-- Node1&#45;&gt;Node2 -->
<g id="edge1" class="edge"><title>Node1&#45;&gt;Node2</title>
<path fill="none" stroke="midnightblue" d="M199,-101.805C199,-92.9102 199,-82.7798 199,-75.7511"/>
<polygon fill="midnightblue" stroke="midnightblue" points="195.5,-102.083 199,-112.083 202.5,-102.083 195.5,-102.083"/>
</g>
<!-- Node3 -->
<g id="node3" class="node"><title>Node3</title>
<g id="a_node3"><a xlink:href="shapes2de_8scad.html" target="_top" xlink:title="Linearly extruded two&#45;dimensional basic shapes. ">
<polygon fill="white" stroke="black" points="0,-0.5 0,-19.5 122,-19.5 122,-0.5 0,-0.5"/>
<text text-anchor="middle" x="61" y="-7.5" font-family="Helvetica,sans-Serif" font-size="10.00">shapes/shapes2de.scad</text>
</a>
</g>
</g>
<!-- Node2&#45;&gt;Node3 -->
<g id="edge2" class="edge"><title>Node2&#45;&gt;Node3</title>
<path fill="none" stroke="midnightblue" d="M167.751,-52.772C141.829,-42.6287 105.638,-28.4669 82.7642,-19.5164"/>
<polygon fill="midnightblue" stroke="midnightblue" points="166.546,-56.0588 177.133,-56.4435 169.096,-49.5401 166.546,-56.0588"/>
</g>
<!-- Node4 -->
<g id="node4" class="node"><title>Node4</title>
<g id="a_node4"><a xlink:href="shapes3d_8scad.html" target="_top" xlink:title="Three&#45;dimensional basic shapes. ">
<polygon fill="white" stroke="black" points="140.5,-0.5 140.5,-19.5 257.5,-19.5 257.5,-0.5 140.5,-0.5"/>
<text text-anchor="middle" x="199" y="-7.5" font-family="Helvetica,sans-Serif" font-size="10.00">shapes/shapes3d.scad</text>
</a>
</g>
</g>
<!-- Node2&#45;&gt;Node4 -->
<g id="edge3" class="edge"><title>Node2&#45;&gt;Node4</title>
<path fill="none" stroke="midnightblue" d="M199,-45.8045C199,-36.9102 199,-26.7798 199,-19.7511"/>
<polygon fill="midnightblue" stroke="midnightblue" points="195.5,-46.083 199,-56.083 202.5,-46.083 195.5,-46.083"/>
</g>
<!-- Node5 -->
<g id="node5" class="node"><title>Node5</title>
<g id="a_node5"><a xlink:href="tools__edge_8scad.html" target="_top" xlink:title="Shape edge finishing tools. ">
<polygon fill="white" stroke="black" points="276,-0.5 276,-19.5 388,-19.5 388,-0.5 276,-0.5"/>
<text text-anchor="middle" x="332" y="-7.5" font-family="Helvetica,sans-Serif" font-size="10.00">tools/tools_edge.scad</text>
</a>
</g>
</g>
<!-- Node2&#45;&gt;Node5 -->
<g id="edge4" class="edge"><title>Node2&#45;&gt;Node5</title>
<path fill="none" stroke="midnightblue" d="M229.448,-52.6377C254.407,-42.504 289.077,-28.4274 311.024,-19.5164"/>
<polygon fill="midnightblue" stroke="midnightblue" points="228.023,-49.4387 220.074,-56.4435 230.656,-55.9245 228.023,-49.4387"/>
</g>
</g>
</svg>
