solid OpenSCAD_Model
  facet normal 1.3487e-08 0.57735 -0.816497
    outer loop
      vertex -0 -33.3333 -94.2809
      vertex 0 100 0
      vertex 81.6497 33.3333 -47.1405
    endloop
  endfacet
  facet normal -1.3487e-08 0.57735 -0.816497
    outer loop
      vertex 0 100 0
      vertex -0 -33.3333 -94.2809
      vertex -81.6497 33.3333 -47.1405
    endloop
  endfacet
  facet normal 0.707107 0.57735 0.408248
    outer loop
      vertex 0 33.3333 94.2809
      vertex 81.6497 33.3333 -47.1405
      vertex 0 100 0
    endloop
  endfacet
  facet normal 0.707107 0.57735 0.408248
    outer loop
      vertex 81.6497 33.3333 -47.1405
      vertex 0 33.3333 94.2809
      vertex 81.6497 -33.3333 47.1405
    endloop
  endfacet
  facet normal 0.707107 -0.57735 -0.408248
    outer loop
      vertex 81.6497 -33.3333 47.1405
      vertex -0 -33.3333 -94.2809
      vertex 81.6497 33.3333 -47.1405
    endloop
  endfacet
  facet normal 0.707107 -0.57735 -0.408248
    outer loop
      vertex -0 -33.3333 -94.2809
      vertex 81.6497 -33.3333 47.1405
      vertex -0 -100 0
    endloop
  endfacet
  facet normal -0.707107 0.57735 0.408248
    outer loop
      vertex -81.6497 33.3333 -47.1405
      vertex 0 33.3333 94.2809
      vertex 0 100 0
    endloop
  endfacet
  facet normal -0.707107 0.57735 0.408248
    outer loop
      vertex 0 33.3333 94.2809
      vertex -81.6497 33.3333 -47.1405
      vertex -81.6497 -33.3333 47.1405
    endloop
  endfacet
  facet normal -0.707107 -0.57735 -0.408248
    outer loop
      vertex -0 -33.3333 -94.2809
      vertex -81.6497 -33.3333 47.1405
      vertex -81.6497 33.3333 -47.1405
    endloop
  endfacet
  facet normal -0.707107 -0.57735 -0.408248
    outer loop
      vertex -81.6497 -33.3333 47.1405
      vertex -0 -33.3333 -94.2809
      vertex -0 -100 0
    endloop
  endfacet
  facet normal 1.3487e-08 -0.57735 0.816497
    outer loop
      vertex 0 33.3333 94.2809
      vertex -0 -100 0
      vertex 81.6497 -33.3333 47.1405
    endloop
  endfacet
  facet normal -1.3487e-08 -0.57735 0.816497
    outer loop
      vertex -0 -100 0
      vertex 0 33.3333 94.2809
      vertex -81.6497 -33.3333 47.1405
    endloop
  endfacet
endsolid OpenSCAD_Model
