solid OpenSCAD_Model
  facet normal -0.0105692 -0.257508 0.966218
    outer loop
      vertex -8.72542 -2.50856 25.8871
      vertex 8.15706 -2.50856 26.0718
      vertex -0.298808 2.50856 27.3164
    endloop
  endfacet
  facet normal -0.0105692 -0.257508 0.966218
    outer loop
      vertex 8.15706 -2.50856 26.0718
      vertex -8.72542 -2.50856 25.8871
      vertex -6.6e-07 -100 -7.47e-07
    endloop
  endfacet
  facet normal 0.559378 -0.257508 0.7879
    outer loop
      vertex 8.15706 -2.50856 26.0718
      vertex 21.9238 -2.50856 16.2979
      vertex 15.8144 2.50856 22.2751
    endloop
  endfacet
  facet normal 0.559378 -0.257508 0.787899
    outer loop
      vertex 21.9238 -2.50856 16.2979
      vertex 8.15706 -2.50856 26.0718
      vertex -6.6e-07 -100 -7.47e-07
    endloop
  endfacet
  facet normal 0.288526 0.257508 0.922194
    outer loop
      vertex -0.298808 2.50856 27.3164
      vertex 15.8144 2.50856 22.2751
      vertex 0 100 0
    endloop
  endfacet
  facet normal 0.288526 0.257508 0.922194
    outer loop
      vertex 15.8144 2.50856 22.2751
      vertex -0.298808 2.50856 27.3164
      vertex 8.15706 -2.50856 26.0718
    endloop
  endfacet
  facet normal -0.30863 0.257508 0.915662
    outer loop
      vertex -16.2979 2.50856 21.9238
      vertex -0.298808 2.50856 27.3164
      vertex 0 100 0
    endloop
  endfacet
  facet normal -0.30863 0.257508 0.915662
    outer loop
      vertex -0.298808 2.50856 27.3164
      vertex -16.2979 2.50856 21.9238
      vertex -8.72542 -2.50856 25.8871
    endloop
  endfacet
  facet normal -0.57648 -0.257508 0.775475
    outer loop
      vertex -22.2751 -2.50856 15.8144
      vertex -8.72542 -2.50856 25.8871
      vertex -16.2979 2.50856 21.9238
    endloop
  endfacet
  facet normal -0.57648 -0.257508 0.775475
    outer loop
      vertex -8.72542 -2.50856 25.8871
      vertex -22.2751 -2.50856 15.8144
      vertex -6.6e-07 -100 -7.47e-07
    endloop
  endfacet
  facet normal 0.915662 -0.257508 0.30863
    outer loop
      vertex 21.9238 -2.50856 16.2979
      vertex 27.3164 -2.50856 0.298808
      vertex 25.8871 2.50856 8.72542
    endloop
  endfacet
  facet normal 0.915662 -0.257508 0.30863
    outer loop
      vertex 27.3164 -2.50856 0.298808
      vertex 21.9238 -2.50856 16.2979
      vertex -6.6e-07 -100 -7.47e-07
    endloop
  endfacet
  facet normal 0.775475 0.257508 0.57648
    outer loop
      vertex 15.8144 2.50856 22.2751
      vertex 25.8871 2.50856 8.72542
      vertex 0 100 0
    endloop
  endfacet
  facet normal 0.775475 0.257508 0.57648
    outer loop
      vertex 25.8871 2.50856 8.72542
      vertex 15.8144 2.50856 22.2751
      vertex 21.9238 -2.50856 16.2979
    endloop
  endfacet
  facet normal -0.787899 0.257508 0.559378
    outer loop
      vertex -26.0718 2.50856 8.15705
      vertex -16.2979 2.50856 21.9238
      vertex 0 100 0
    endloop
  endfacet
  facet normal -0.787899 0.257508 0.559378
    outer loop
      vertex -16.2979 2.50856 21.9238
      vertex -26.0718 2.50856 8.15705
      vertex -22.2751 -2.50856 15.8144
    endloop
  endfacet
  facet normal -0.922194 -0.257509 0.288526
    outer loop
      vertex -27.3164 -2.50856 -0.298808
      vertex -22.2751 -2.50856 15.8144
      vertex -26.0718 2.50856 8.15705
    endloop
  endfacet
  facet normal -0.922194 -0.257508 0.288526
    outer loop
      vertex -22.2751 -2.50856 15.8144
      vertex -27.3164 -2.50856 -0.298808
      vertex -6.6e-07 -100 -7.47e-07
    endloop
  endfacet
  facet normal 0.922194 -0.257508 -0.288526
    outer loop
      vertex 27.3164 -2.50856 0.298808
      vertex 22.2751 -2.50856 -15.8144
      vertex 26.0718 2.50856 -8.15705
    endloop
  endfacet
  facet normal 0.922194 -0.257508 -0.288526
    outer loop
      vertex 22.2751 -2.50856 -15.8144
      vertex 27.3164 -2.50856 0.298808
      vertex -6.6e-07 -100 -7.47e-07
    endloop
  endfacet
  facet normal 0.966218 0.257508 0.0105692
    outer loop
      vertex 25.8871 2.50856 8.72542
      vertex 26.0718 2.50856 -8.15705
      vertex 0 100 0
    endloop
  endfacet
  facet normal 0.966219 0.257507 0.0105692
    outer loop
      vertex 26.0718 2.50856 -8.15705
      vertex 25.8871 2.50856 8.72542
      vertex 27.3164 -2.50856 0.298808
    endloop
  endfacet
  facet normal -0.966218 0.257508 -0.0105692
    outer loop
      vertex -25.8871 2.50856 -8.72542
      vertex -26.0718 2.50856 8.15705
      vertex 0 100 0
    endloop
  endfacet
  facet normal -0.966219 0.257507 -0.0105692
    outer loop
      vertex -26.0718 2.50856 8.15705
      vertex -25.8871 2.50856 -8.72542
      vertex -27.3164 -2.50856 -0.298808
    endloop
  endfacet
  facet normal -0.915662 -0.257509 -0.308629
    outer loop
      vertex -21.9238 -2.50856 -16.2979
      vertex -27.3164 -2.50856 -0.298808
      vertex -25.8871 2.50856 -8.72542
    endloop
  endfacet
  facet normal -0.915662 -0.257508 -0.30863
    outer loop
      vertex -27.3164 -2.50856 -0.298808
      vertex -21.9238 -2.50856 -16.2979
      vertex -6.6e-07 -100 -7.47e-07
    endloop
  endfacet
  facet normal 0.57648 -0.257508 -0.775475
    outer loop
      vertex 22.2751 -2.50856 -15.8144
      vertex 8.72542 -2.50856 -25.8871
      vertex 16.2979 2.50856 -21.9238
    endloop
  endfacet
  facet normal 0.57648 -0.257508 -0.775475
    outer loop
      vertex 8.72542 -2.50856 -25.8871
      vertex 22.2751 -2.50856 -15.8144
      vertex -6.6e-07 -100 -7.47e-07
    endloop
  endfacet
  facet normal 0.787899 0.257508 -0.559378
    outer loop
      vertex 26.0718 2.50856 -8.15705
      vertex 16.2979 2.50856 -21.9238
      vertex 0 100 0
    endloop
  endfacet
  facet normal 0.787899 0.257508 -0.559378
    outer loop
      vertex 16.2979 2.50856 -21.9238
      vertex 26.0718 2.50856 -8.15705
      vertex 22.2751 -2.50856 -15.8144
    endloop
  endfacet
  facet normal -0.775475 0.257508 -0.57648
    outer loop
      vertex -15.8144 2.50856 -22.2751
      vertex -25.8871 2.50856 -8.72542
      vertex 0 100 0
    endloop
  endfacet
  facet normal -0.775475 0.257508 -0.57648
    outer loop
      vertex -25.8871 2.50856 -8.72542
      vertex -15.8144 2.50856 -22.2751
      vertex -21.9238 -2.50856 -16.2979
    endloop
  endfacet
  facet normal -0.559378 -0.257508 -0.7879
    outer loop
      vertex -21.9238 -2.50856 -16.2979
      vertex -8.15705 -2.50856 -26.0718
      vertex -6.6e-07 -100 -7.47e-07
    endloop
  endfacet
  facet normal -0.559378 -0.257508 -0.7879
    outer loop
      vertex -8.15705 -2.50856 -26.0718
      vertex -21.9238 -2.50856 -16.2979
      vertex -15.8144 2.50856 -22.2751
    endloop
  endfacet
  facet normal 0.0105691 -0.257508 -0.966218
    outer loop
      vertex -8.15705 -2.50856 -26.0718
      vertex 8.72542 -2.50856 -25.8871
      vertex -6.6e-07 -100 -7.47e-07
    endloop
  endfacet
  facet normal 0.0105691 -0.257508 -0.966218
    outer loop
      vertex 8.72542 -2.50856 -25.8871
      vertex -8.15705 -2.50856 -26.0718
      vertex 0.298807 2.50856 -27.3164
    endloop
  endfacet
  facet normal 0.30863 0.257508 -0.915662
    outer loop
      vertex 0.298807 2.50856 -27.3164
      vertex 16.2979 2.50856 -21.9238
      vertex 8.72542 -2.50856 -25.8871
    endloop
  endfacet
  facet normal 0.30863 0.257508 -0.915662
    outer loop
      vertex 16.2979 2.50856 -21.9238
      vertex 0.298807 2.50856 -27.3164
      vertex 0 100 0
    endloop
  endfacet
  facet normal -0.288526 0.257508 -0.922194
    outer loop
      vertex -15.8144 2.50856 -22.2751
      vertex 0.298807 2.50856 -27.3164
      vertex -8.15705 -2.50856 -26.0718
    endloop
  endfacet
  facet normal -0.288526 0.257508 -0.922194
    outer loop
      vertex 0.298807 2.50856 -27.3164
      vertex -15.8144 2.50856 -22.2751
      vertex 0 100 0
    endloop
  endfacet
endsolid OpenSCAD_Model
