solid OpenSCAD_Model
  facet normal -0.113244 -0.511081 0.85204
    outer loop
      vertex -55.319 -17.1573 42.3393
      vertex 42.3393 -17.1573 55.319
      vertex -9.17801 17.1573 69.0549
    endloop
  endfacet
  facet normal -0.113244 -0.511081 0.85204
    outer loop
      vertex 42.3393 -17.1573 55.319
      vertex -55.319 -17.1573 42.3393
      vertex -2.205e-06 -100 -8.05e-07
    endloop
  endfacet
  facet normal 0.85204 -0.511081 0.113244
    outer loop
      vertex 42.3393 -17.1573 55.319
      vertex 55.319 -17.1573 -42.3393
      vertex 69.0549 17.1573 9.17802
    endloop
  endfacet
  facet normal 0.85204 -0.511081 0.113244
    outer loop
      vertex 55.319 -17.1573 -42.3393
      vertex 42.3393 -17.1573 55.319
      vertex -2.205e-06 -100 -8.05e-07
    endloop
  endfacet
  facet normal 0.522408 0.511081 0.682559
    outer loop
      vertex -9.17801 17.1573 69.0549
      vertex 69.0549 17.1573 9.17802
      vertex 0 100 0
    endloop
  endfacet
  facet normal 0.522408 0.511081 0.682559
    outer loop
      vertex 69.0549 17.1573 9.17802
      vertex -9.17801 17.1573 69.0549
      vertex 42.3393 -17.1573 55.319
    endloop
  endfacet
  facet normal -0.682559 0.511081 0.522408
    outer loop
      vertex -69.0549 17.1573 -9.17802
      vertex -9.17801 17.1573 69.0549
      vertex 0 100 0
    endloop
  endfacet
  facet normal -0.682559 0.511081 0.522408
    outer loop
      vertex -9.17801 17.1573 69.0549
      vertex -69.0549 17.1573 -9.17802
      vertex -55.319 -17.1573 42.3393
    endloop
  endfacet
  facet normal -0.85204 -0.511081 -0.113244
    outer loop
      vertex -42.3393 -17.1573 -55.319
      vertex -55.319 -17.1573 42.3393
      vertex -69.0549 17.1573 -9.17802
    endloop
  endfacet
  facet normal -0.85204 -0.511081 -0.113244
    outer loop
      vertex -55.319 -17.1573 42.3393
      vertex -42.3393 -17.1573 -55.319
      vertex -2.205e-06 -100 -8.05e-07
    endloop
  endfacet
  facet normal 0.113244 -0.511081 -0.85204
    outer loop
      vertex -42.3393 -17.1573 -55.319
      vertex 55.319 -17.1573 -42.3393
      vertex -2.205e-06 -100 -8.05e-07
    endloop
  endfacet
  facet normal 0.113244 -0.511081 -0.85204
    outer loop
      vertex 55.319 -17.1573 -42.3393
      vertex -42.3393 -17.1573 -55.319
      vertex 9.17802 17.1573 -69.0549
    endloop
  endfacet
  facet normal 0.682559 0.511081 -0.522408
    outer loop
      vertex 69.0549 17.1573 9.17802
      vertex 9.17802 17.1573 -69.0549
      vertex 0 100 0
    endloop
  endfacet
  facet normal 0.682559 0.511081 -0.522408
    outer loop
      vertex 9.17802 17.1573 -69.0549
      vertex 69.0549 17.1573 9.17802
      vertex 55.319 -17.1573 -42.3393
    endloop
  endfacet
  facet normal -0.522408 0.511081 -0.682559
    outer loop
      vertex -69.0549 17.1573 -9.17802
      vertex 9.17802 17.1573 -69.0549
      vertex -42.3393 -17.1573 -55.319
    endloop
  endfacet
  facet normal -0.522408 0.511081 -0.682559
    outer loop
      vertex 9.17802 17.1573 -69.0549
      vertex -69.0549 17.1573 -9.17802
      vertex 0 100 0
    endloop
  endfacet
endsolid OpenSCAD_Model
