<?xml version="1.0" encoding="UTF-8" standalone="no"?>
<!DOCTYPE svg PUBLIC "-//W3C//DTD SVG 1.1//EN"
 "http://www.w3.org/Graphics/SVG/1.1/DTD/svg11.dtd">
<!-- Generated by graphviz version 2.38.0 (20140413.2041)
 -->
<!-- Title: units/units_resolution.scad Pages: 1 -->
<svg width="319pt" height="84pt"
 viewBox="0.00 0.00 318.50 84.00" xmlns="http://www.w3.org/2000/svg" xmlns:xlink="http://www.w3.org/1999/xlink">
<g id="graph0" class="graph" transform="scale(1 1) rotate(0) translate(4 80)">
<title>units/units_resolution.scad</title>
<polygon fill="white" stroke="none" points="-4,4 -4,-80 314.5,-80 314.5,4 -4,4"/>
<!-- Node1 -->
<g id="node1" class="node"><title>Node1</title>
<polygon fill="#bfbfbf" stroke="black" points="67.5,-56.5 67.5,-75.5 200.5,-75.5 200.5,-56.5 67.5,-56.5"/>
<text text-anchor="middle" x="134" y="-63.5" font-family="Helvetica,sans-Serif" font-size="10.00">units/units_resolution.scad</text>
</g>
<!-- Node2 -->
<g id="node2" class="node"><title>Node2</title>
<g id="a_node2"><a xlink:href="console_8scad.html" target="_top" xlink:title="Message logging functions. ">
<polygon fill="white" stroke="black" points="0,-0.5 0,-19.5 74,-19.5 74,-0.5 0,-0.5"/>
<text text-anchor="middle" x="37" y="-7.5" font-family="Helvetica,sans-Serif" font-size="10.00">console.scad</text>
</a>
</g>
</g>
<!-- Node1&#45;&gt;Node2 -->
<g id="edge1" class="edge"><title>Node1&#45;&gt;Node2</title>
<path fill="none" stroke="midnightblue" d="M118.415,-56.324C103.001,-47.7428 79.1878,-34.486 61.2903,-24.5224"/>
<polygon fill="midnightblue" stroke="midnightblue" points="62.9858,-21.4606 52.5461,-19.6545 59.5809,-27.5767 62.9858,-21.4606"/>
</g>
<!-- Node3 -->
<g id="node3" class="node"><title>Node3</title>
<g id="a_node3"><a xlink:href="constants_8scad.html" target="_top" xlink:title="Design constant definitions. ">
<polygon fill="white" stroke="black" points="92.5,-0.5 92.5,-19.5 175.5,-19.5 175.5,-0.5 92.5,-0.5"/>
<text text-anchor="middle" x="134" y="-7.5" font-family="Helvetica,sans-Serif" font-size="10.00">constants.scad</text>
</a>
</g>
</g>
<!-- Node1&#45;&gt;Node3 -->
<g id="edge2" class="edge"><title>Node1&#45;&gt;Node3</title>
<path fill="none" stroke="midnightblue" d="M134,-56.083C134,-49.0059 134,-38.8611 134,-29.9865"/>
<polygon fill="midnightblue" stroke="midnightblue" points="137.5,-29.751 134,-19.7511 130.5,-29.7511 137.5,-29.751"/>
</g>
<!-- Node4 -->
<g id="node4" class="node"><title>Node4</title>
<g id="a_node4"><a xlink:href="units__length_8scad.html" target="_top" xlink:title="Length units and conversions. ">
<polygon fill="white" stroke="black" points="193.5,-0.5 193.5,-19.5 310.5,-19.5 310.5,-0.5 193.5,-0.5"/>
<text text-anchor="middle" x="252" y="-7.5" font-family="Helvetica,sans-Serif" font-size="10.00">units/units_length.scad</text>
</a>
</g>
</g>
<!-- Node1&#45;&gt;Node4 -->
<g id="edge3" class="edge"><title>Node1&#45;&gt;Node4</title>
<path fill="none" stroke="midnightblue" d="M152.697,-56.4435C171.944,-47.6356 202.152,-33.8116 224.2,-23.722"/>
<polygon fill="midnightblue" stroke="midnightblue" points="225.753,-26.8603 233.39,-19.5164 222.84,-20.4951 225.753,-26.8603"/>
</g>
</g>
</svg>
